<?xml version="1.0" encoding="UTF-8" standalone="no"?>
<!-- Created with Inkscape (http://www.inkscape.org/) -->

<svg
   width="24"
   height="24"
   viewBox="0 0 0.024 0.024"
   version="1.1"
   id="svg414"
   inkscape:version="1.2.1 (9c6d41e410, 2022-07-14)"
   sodipodi:docname="icon set 24 px.svg"
   inkscape:export-filename="icon-hear.svg"
   inkscape:export-xdpi="96"
   inkscape:export-ydpi="96"
   xmlns:inkscape="http://www.inkscape.org/namespaces/inkscape"
   xmlns:sodipodi="http://sodipodi.sourceforge.net/DTD/sodipodi-0.dtd"
   xmlns="http://www.w3.org/2000/svg"
   xmlns:svg="http://www.w3.org/2000/svg">
  <sodipodi:namedview
     id="namedview416"
     pagecolor="#ffffff"
     bordercolor="#000000"
     borderopacity="0.25"
     inkscape:showpageshadow="2"
     inkscape:pageopacity="0.0"
     inkscape:pagecheckerboard="false"
     inkscape:deskcolor="#c4c4c4"
     inkscape:document-units="px"
     showgrid="false"
     showguides="true"
     inkscape:zoom="23.29046"
     inkscape:cx="-1.3739531"
     inkscape:cy="9.8108839"
     inkscape:window-width="1920"
     inkscape:window-height="992"
     inkscape:window-x="-8"
     inkscape:window-y="-8"
     inkscape:window-maximized="1"
     inkscape:current-layer="layer1">
    <sodipodi:guide
       position="0.022004718,0.026855246"
       orientation="1,0"
       id="guide535"
       inkscape:locked="false" />
    <sodipodi:guide
       position="0.0019886037,0.026595811"
       orientation="1,0"
       id="guide537"
       inkscape:locked="false" />
    <sodipodi:guide
       position="-0.0012903154,0.022011396"
       orientation="0,-1"
       id="guide539"
       inkscape:locked="false" />
    <sodipodi:guide
       position="-0.0012903154,0.0020039183"
       orientation="0,-1"
       id="guide541"
       inkscape:locked="false" />
    <sodipodi:guide
       position="0.011992343,-0.0018822079"
       orientation="1,0"
       id="guide572"
       inkscape:locked="false" />
    <sodipodi:guide
       position="-0.0012144144,0.012007657"
       orientation="0,-1"
       id="guide574"
       inkscape:locked="false" />
    <sodipodi:guide
       position="-0.0097760363,0.020174594"
       orientation="0,-1"
       id="guide1627"
       inkscape:locked="false" />
    <sodipodi:guide
       position="-0.0092902705,0.018383333"
       orientation="0,-1"
       id="guide2664"
       inkscape:locked="false" />
    <sodipodi:guide
       position="-0.012903154,0.0037799994"
       orientation="0,-1"
       id="guide2666"
       inkscape:locked="false" />
    <sodipodi:guide
       position="-0.01174946,0.0055409004"
       orientation="0,-1"
       id="guide2668"
       inkscape:locked="false" />
  </sodipodi:namedview>
  <defs
     id="defs411" />
  <g
     inkscape:label="Ebene 1"
     inkscape:groupmode="layer"
     id="layer1">
    <path
       id="path1361"
       style="fill:none;stroke:#000000;stroke-width:0.00181744"
       inkscape:label="Circle"
       d="M 0.02109409,0.01201212 A 0.00908719,0.00908719 0 0 1 0.01200691,0.02109931 0.00908719,0.00908719 0 0 1 0.00291972,0.01201212 0.00908719,0.00908719 0 0 1 0.01200691,0.00292493 0.00908719,0.00908719 0 0 1 0.02109409,0.01201212 Z" />
    <path
       style="display:inline;fill:#000000;fill-opacity:1;stroke:none;stroke-width:0.000519537;stroke-linecap:round;stroke-linejoin:round;stroke-dasharray:none;stroke-opacity:1"
       d="m 0.00889764,0.00680096 c -8.65e-6,-3.204e-5 4.143e-5,-5.296e-5 6.717e-5,-7.35e-5 0.00194478,-0.00155349 0.00485361,-0.0014885 0.00640462,4.7664e-4 5.9517e-4,7.7232e-4 9.2731e-4,0.0017132 8.8943e-4,0.00330532 -7.152e-5,0.003006 -0.0015589,0.0043846 -0.0028851,0.0059763 -4.1168e-4,4.9713e-4 -6.7228e-4,0.0011478 -0.001012,0.0015113 -6.062e-4,6.489e-4 -0.0022601,5.4988e-4 -0.00328852,-1.9665e-4 -5.584e-5,-4.055e-5 -1.1242e-4,-8.696e-5 -1.455e-4,-1.4761e-4 -4.008e-5,-7.35e-5 -5.489e-5,-2.4506e-4 -5.489e-5,-2.4506e-4 l 1.256e-5,-0.0020936 c 0,0 9.47e-6,-9.069e-5 3.839e-5,-1.2201e-4 3.18e-5,-3.445e-5 4.26e-5,-5.233e-5 1.3032e-4,-5.278e-5 l 0.00278111,-1.427e-5 c 0,0 7.365e-5,-7.3e-6 1.0638e-4,-2.292e-5 3.297e-5,-1.575e-5 3.839e-5,-9.69e-6 8.531e-5,-6.881e-5 3.78e-4,-4.7617e-4 0.0021328,-0.0019958 0.0022803,-0.0041336 4.385e-5,-6.3506e-4 7.14e-5,-9.99e-4 -1.026e-4,-0.00157755 -3.0864e-4,-8.345e-4 -9.8525e-4,-0.00157903 -0.0022142,-0.00158643 -0.0012565,9.61e-6 -0.0021885,0.00103301 -0.0021717,0.00222754 1.218e-5,8.6725e-4 6.0058e-4,0.00170901 0.0012757,0.0019246 7.364e-5,2.352e-5 4.084e-5,5.291e-5 6.075e-5,9.692e-5 2.129e-5,4.699e-5 3.145e-5,9.102e-5 3.11e-5,1.5158e-4 l -8.49e-6,0.0014853 c -3.6e-7,6.103e-5 -3.138e-5,9.597e-5 -7.251e-5,1.1495e-4 -3.893e-5,1.798e-5 -8.486e-5,7.06e-6 -1.2731e-4,-1.84e-5 l -0.00203295,-0.001219 c -6.119e-5,-3.669e-5 -4.703e-5,-4.171e-5 -6.192e-5,-6.871e-5 -1.674e-5,-3.036e-5 -2.82e-5,-1.0013e-4 -2.82e-5,-1.0013e-4 l 2.527e-5,-0.00544324 c 0,0 4.426e-5,-7.774e-5 1.747e-5,-8.611e-5 0,0 -2e-8,0 10e-9,-7e-8 z"
       id="path6642"
       sodipodi:nodetypes="ascscssaccascassccsssssassacccaa"
       inkscape:label="hear" />
  </g>
</svg>
