<?xml version="1.0" encoding="UTF-8" standalone="no"?>
<!-- Created with Inkscape (http://www.inkscape.org/) -->

<svg
   width="24"
   height="24"
   viewBox="0 0 0.024 0.024"
   version="1.1"
   id="svg414"
   inkscape:version="1.2.1 (9c6d41e410, 2022-07-14)"
   sodipodi:docname="icon set 24 px.svg"
   inkscape:export-filename="icon-skalpell.svg"
   inkscape:export-xdpi="96"
   inkscape:export-ydpi="96"
   xml:space="preserve"
   xmlns:inkscape="http://www.inkscape.org/namespaces/inkscape"
   xmlns:sodipodi="http://sodipodi.sourceforge.net/DTD/sodipodi-0.dtd"
   xmlns="http://www.w3.org/2000/svg"
   xmlns:svg="http://www.w3.org/2000/svg"><sodipodi:namedview
     id="namedview416"
     pagecolor="#ffffff"
     bordercolor="#000000"
     borderopacity="0.25"
     inkscape:showpageshadow="2"
     inkscape:pageopacity="0.0"
     inkscape:pagecheckerboard="false"
     inkscape:deskcolor="#c4c4c4"
     inkscape:document-units="px"
     showgrid="false"
     showguides="false"
     inkscape:zoom="22.627417"
     inkscape:cx="-3.1598834"
     inkscape:cy="3.4250485"
     inkscape:window-width="1920"
     inkscape:window-height="992"
     inkscape:window-x="-8"
     inkscape:window-y="-8"
     inkscape:window-maximized="1"
     inkscape:current-layer="g2320"><sodipodi:guide
       position="0.022004718,0.026855246"
       orientation="1,0"
       id="guide535"
       inkscape:locked="false" /><sodipodi:guide
       position="0.0019886037,0.026595811"
       orientation="1,0"
       id="guide537"
       inkscape:locked="false" /><sodipodi:guide
       position="-0.0012903154,0.022011396"
       orientation="0,-1"
       id="guide539"
       inkscape:locked="false" /><sodipodi:guide
       position="-0.0012903154,0.0020039183"
       orientation="0,-1"
       id="guide541"
       inkscape:locked="false" /><sodipodi:guide
       position="0.011992343,-0.0018822079"
       orientation="1,0"
       id="guide572"
       inkscape:locked="false" /><sodipodi:guide
       position="-0.0012144144,0.012007657"
       orientation="0,-1"
       id="guide574"
       inkscape:locked="false" /><sodipodi:guide
       position="-0.0097760363,0.020174594"
       orientation="0,-1"
       id="guide1627"
       inkscape:locked="false" /><sodipodi:guide
       position="-0.0092902705,0.018383333"
       orientation="0,-1"
       id="guide2664"
       inkscape:locked="false" /><sodipodi:guide
       position="-0.012903154,0.0037799994"
       orientation="0,-1"
       id="guide2666"
       inkscape:locked="false" /><sodipodi:guide
       position="-0.01174946,0.0055409004"
       orientation="0,-1"
       id="guide2668"
       inkscape:locked="false" /></sodipodi:namedview><defs
     id="defs411" /><g
     inkscape:label="Ebene 1"
     inkscape:groupmode="layer"
     id="layer1"><path
       id="path1361"
       style="fill:none;stroke:#000000;stroke-width:0.00181744"
       inkscape:label="Circle"
       d="M 0.02109409,0.01201212 A 0.00908719,0.00908719 0 0 1 0.01200691,0.02109931 0.00908719,0.00908719 0 0 1 0.00291972,0.01201212 0.00908719,0.00908719 0 0 1 0.01200691,0.00292493 0.00908719,0.00908719 0 0 1 0.02109409,0.01201212 Z" /><path
       id="rect4752"
       style="display:none;fill:#000000;fill-opacity:1;stroke-width:0.0015141"
       inkscape:label="microscope"
       d="m 0.00811935,0.00657466 -7.3692e-4,9.2115e-4 3.593e-4,8.55e-5 0.00125299,0.00102091 v 2.238e-5 h -4.682e-5 v 0.00188811 h -1.3741e-4 v 5.9951e-4 h 9.2114e-4 v 0.0012428 h 8.9777e-4 v -0.0012428 h 3.2062e-4 l 2.8296e-4,6.9927e-4 6.3819e-4,-2.6261e-4 -1.771e-4,-4.3666e-4 h 3.6337e-4 v -5.9951e-4 h -1.3843e-4 v -2.1069e-4 l 1.1502e-4,4.04e-6 c 6.1994e-4,4.2467e-4 9.9141e-4,0.0013477 0.0010077,0.0029945 l 3.05e-6,2.7584e-4 H 0.00881054 v 7.3694e-4 h 9.9035e-4 v 0.0018189 h -4.6108e-4 v 5.6491e-4 h -9.2113e-4 v 8.285e-4 h 0.00783023 v -8.285e-4 h -6.4429e-4 v -5.6491e-4 h -6.82e-5 l 2.138e-5,-0.0028092 C 0.01553093,0.01085934 0.0142199,0.00892468 0.011919,0.00865004 v -2.544e-5 h -1.3436e-4 l -8.092e-4,-0.00147384 -0.00198076,-2.341e-5 v 3.766e-4 L 0.0082089,0.00686271 Z m 0.00597679,0.00670151 a 7.7154728e-4,7.7154728e-4 0 0 1 7.7156e-4,7.7253e-4 7.7154728e-4,7.7154728e-4 0 0 1 -7.7156e-4,7.7156e-4 7.7154728e-4,7.7154728e-4 0 0 1 -7.7156e-4,-7.7156e-4 7.7154728e-4,7.7154728e-4 0 0 1 7.7156e-4,-7.7253e-4 z m -0.0051483,4.6108e-4 h 0.00382404 v 1.6082e-4 H 0.00894784 Z m 0.00274105,5.7612e-4 h 0.0013629 l 1.832e-5,0.0018189 h -0.0013813 z" /><path
       style="display:none;fill:#000000;fill-opacity:1;stroke:none;stroke-width:0.0023649;stroke-dasharray:none;stroke-opacity:1"
       d="M 0.01263427,0.01898898 0.00563718,0.01480057 c -1.2086e-4,-6.863e-5 -1.3984e-4,-1.6769e-4 -7.113e-5,-3.1139e-4 8.6139e-4,-0.0019476 0.00224191,-6.1561e-4 0.00460579,3.8102e-4 L 0.01019977,0.0131144 0.00763716,0.00792932 C 0.00709065,0.00694059 0.00841034,0.00639539 0.00885996,0.0070662 L 0.01153197,0.01155617 0.01020508,0.0060015 C 0.00993054,0.0049534 0.0115085,0.00450971 0.0118319,0.00556375 l 0.0017666,0.0057049 1.7646e-4,-0.0048714 c -4.069e-5,-0.00112805 0.001713,-0.00121127 0.0016242,1.5783e-4 l -1.34e-6,0.00511538 7.9201e-4,-0.00337924 c 1.7534e-4,-8.453e-4 0.0015024,-7.3137e-4 0.0013618,4.5106e-4 l -5.5728e-4,0.00354776 3.8968e-4,0.0041248 c -0.0014283,0.0015274 -0.0031261,0.0023161 -0.0047498,0.0025741 z"
       id="path2510"
       sodipodi:nodetypes="cccccccccccccccccccc"
       inkscape:label="touch" /><g
       id="g1418"
       inkscape:label="see"
       style="display:none"
       transform="matrix(5.0713347e-4,0,0,5.0713347e-4,-1.8233102e-4,-1.1225356e-4)"><path
         style="display:inline;opacity:1;fill:#000000;fill-opacity:1;stroke:none;stroke-width:0.257561;stroke-dasharray:none"
         d="m 24,19.544922 a 4.4670682,4.4670682 0 0 0 -0.865234,0.0918 2.6796944,2.6796944 0 0 1 1.642578,2.46875 2.6796944,2.6796944 0 0 1 -2.679688,2.679687 2.6796944,2.6796944 0 0 1 -2.470703,-1.662109 4.4670682,4.4670682 0 0 0 -0.09375,0.890625 A 4.4670682,4.4670682 0 0 0 24,28.480469 4.4670682,4.4670682 0 0 0 28.466797,24.013672 4.4670682,4.4670682 0 0 0 24,19.544922 Z"
         id="circle1414"
         inkscape:label="pupil" /><path
         id="path1623"
         style="display:inline;opacity:1;fill:none;stroke:#000000;stroke-width:1.85245"
         d="m 31.901745,23.980125 c 0,4.364882 -3.538435,7.903317 -7.903317,7.903317 -4.364881,0 -7.903316,-3.538436 -7.903316,-7.903317 0,-4.364881 3.538435,-7.903316 7.903316,-7.903316 4.364881,0 7.903317,3.538435 7.903317,7.903316 z m -21.226039,-0.05633 c 3.19e-4,-0.245915 -0.09149,-0.316285 0.05712,-0.520573 5.351428,-12.50766 21.348158,-12.478544 26.512071,0.248128 0.04873,0.120106 0.02251,0.20122 0.02215,0.318428 -3.76e-4,0.119473 -0.07648,0.216847 -0.154066,0.323619 -7.46169,10.269196 -19.020366,10.351725 -26.153671,0.153218 -0.124844,-0.17849 -0.283858,-0.324558 -0.283601,-0.52282 z m 21.226039,0.05633 a 7.9033165,7.9033165 0 0 1 -7.903317,7.903317 7.9033165,7.9033165 0 0 1 -7.903316,-7.903317 7.9033165,7.9033165 0 0 1 7.903316,-7.903316 7.9033165,7.9033165 0 0 1 7.903317,7.903316 z m -21.226039,-0.05633 c 3.19e-4,-0.245915 0.204838,-0.443281 0.353446,-0.647569 7.184106,-9.875808 18.64404,-9.928347 26.08875,0.375124 0.07591,0.105065 0.149511,0.20122 0.149142,0.318428 -3.76e-4,0.119473 -0.07648,0.216847 -0.154066,0.323619 -7.46169,10.269196 -19.020366,10.351725 -26.153671,0.153218 -0.124844,-0.17849 -0.283858,-0.324558 -0.283601,-0.52282 z"
         inkscape:label="eyelids" /></g><path
       style="display:none;fill:#000000;fill-opacity:1;stroke:none;stroke-width:0.000519537;stroke-linecap:round;stroke-linejoin:round;stroke-dasharray:none;stroke-opacity:1"
       d="m 0.00889764,0.00680096 c -8.65e-6,-3.204e-5 4.143e-5,-5.296e-5 6.717e-5,-7.35e-5 0.00194478,-0.00155349 0.00485361,-0.0014885 0.00640462,4.7664e-4 5.9517e-4,7.7232e-4 9.2731e-4,0.0017132 8.8943e-4,0.00330532 -7.152e-5,0.003006 -0.0015589,0.0043846 -0.0028851,0.0059763 -4.1168e-4,4.9713e-4 -6.7228e-4,0.0011478 -0.001012,0.0015113 -6.062e-4,6.489e-4 -0.0022601,5.4988e-4 -0.00328852,-1.9665e-4 -5.584e-5,-4.055e-5 -1.1242e-4,-8.696e-5 -1.455e-4,-1.4761e-4 -4.008e-5,-7.35e-5 -5.489e-5,-2.4506e-4 -5.489e-5,-2.4506e-4 l 1.256e-5,-0.0020936 c 0,0 9.47e-6,-9.069e-5 3.839e-5,-1.2201e-4 3.18e-5,-3.445e-5 4.26e-5,-5.233e-5 1.3032e-4,-5.278e-5 l 0.00278111,-1.427e-5 c 0,0 7.365e-5,-7.3e-6 1.0638e-4,-2.292e-5 3.297e-5,-1.575e-5 3.839e-5,-9.69e-6 8.531e-5,-6.881e-5 3.78e-4,-4.7617e-4 0.0021328,-0.0019958 0.0022803,-0.0041336 4.385e-5,-6.3506e-4 7.14e-5,-9.99e-4 -1.026e-4,-0.00157755 -3.0864e-4,-8.345e-4 -9.8525e-4,-0.00157903 -0.0022142,-0.00158643 -0.0012565,9.61e-6 -0.0021885,0.00103301 -0.0021717,0.00222754 1.218e-5,8.6725e-4 6.0058e-4,0.00170901 0.0012757,0.0019246 7.364e-5,2.352e-5 4.084e-5,5.291e-5 6.075e-5,9.692e-5 2.129e-5,4.699e-5 3.145e-5,9.102e-5 3.11e-5,1.5158e-4 l -8.49e-6,0.0014853 c -3.6e-7,6.103e-5 -3.138e-5,9.597e-5 -7.251e-5,1.1495e-4 -3.893e-5,1.798e-5 -8.486e-5,7.06e-6 -1.2731e-4,-1.84e-5 l -0.00203295,-0.001219 c -6.119e-5,-3.669e-5 -4.703e-5,-4.171e-5 -6.192e-5,-6.871e-5 -1.674e-5,-3.036e-5 -2.82e-5,-1.0013e-4 -2.82e-5,-1.0013e-4 l 2.527e-5,-0.00544324 c 0,0 4.426e-5,-7.774e-5 1.747e-5,-8.611e-5 0,0 -2e-8,0 10e-9,-7e-8 z"
       id="path6642"
       sodipodi:nodetypes="ascscssaccascassccsssssassacccaa"
       inkscape:label="hear" /><path
       id="path1094"
       style="display:none;fill:#000000;fill-opacity:1;stroke:none;stroke-width:0.00239479;stroke-linecap:butt;stroke-linejoin:miter;stroke-dasharray:none;stroke-opacity:1;paint-order:normal"
       d="m 0.01020254,0.00933957 c -9.1734e-4,5.81e-6 -0.00298512,0.00137649 -0.00508748,0.00211026 0.00108606,0.0014817 0.001885,0.0041999 0.00688478,0.0041994 0.0049997,-5.5e-7 0.005792,-0.0026976 0.006855,-0.0041735 -0.0018752,-5.9723e-4 -0.0040643,-0.00213595 -0.0050098,-0.00213047 -6.3855e-4,3.69e-6 -0.0015771,6.7818e-4 -0.0018473,6.7495e-4 -2.7402e-4,-3.31e-6 -0.0011432,-6.8483e-4 -0.0017952,-6.8064e-4 z m 0.0061839,0.0027804 c -0.0017568,0.0021242 -0.00679742,0.002124 -0.00861389,1.249e-5 0.00199834,2.0959e-4 0.00661602,2.5527e-4 0.00861389,-1.249e-5 z"
       inkscape:label="taste" /><g
       id="g2320"
       inkscape:label="Skalpell"><path
         id="rect2262"
         style="opacity:1;stroke-width:0.00310063"
         d="m 0.01006641,0.01609773 h 0.007121 c 0,0 3.39e-5,3.61e-6 4.97e-5,2.734e-5 1.58e-5,2.373e-5 2.08e-5,6.812e-5 2.08e-5,6.812e-5 v 1.0547e-4 c 0,0 -3.68e-6,4.755e-5 -2.08e-5,7.327e-5 -1.713e-5,2.572e-5 -5.231e-5,3.516e-5 -5.231e-5,3.516e-5 H 0.00991797 c 0,0 -5.743e-5,7.82e-6 -8.087e-5,-1.562e-5 -2.344e-5,-2.344e-5 -2.346e-5,-7.897e-5 -2.346e-5,-7.897e-5 -1.8e-7,-5.458e-5 1.5501e-4,-2.1139e-4 2.5277e-4,-2.1477e-4 z"
         sodipodi:nodetypes="cczcczcczcc"
         inkscape:label="Schnitt" /><path
         style="opacity:1;fill:#000000;fill-opacity:1;stroke:none;stroke-width:0.0038"
         d="m 0.00646099,0.01605871 c 0.00223372,0.0012411 0.00304637,-8.9561e-4 0.0034559,-0.0016245 3.2675e-4,-7.6663e-4 6.2901e-4,-9.2729e-4 0.00119233,-8.0846e-4 5.024e-5,1.06e-5 1.2206e-4,3.49e-6 1.6108e-4,-1.254e-5 3.902e-5,-1.603e-5 1.1144e-4,-5.927e-5 1.1144e-4,-5.927e-5 L 0.01708559,0.008121 c 2.522e-5,-3.445e-5 3.043e-5,-4.816e-5 4.229e-5,-9.625e-5 1.186e-5,-4.809e-5 2.41e-6,-7.383e-5 -7.32e-6,-1.1137e-4 -2.8974e-4,-4.644e-4 -6.4061e-4,-8.0566e-4 -0.0010139,-9.5855e-4 -3.908e-5,-1.6e-5 -7.607e-5,-1.607e-5 -1.1292e-4,-7.96e-6 -3.537e-5,7.78e-6 -9.516e-5,5.243e-5 -9.516e-5,5.243e-5 z"
         id="path373"
         sodipodi:nodetypes="ccszcczcsacc"
         inkscape:label="skalpell" /><path
         id="path2880"
         style="display:none;opacity:1;fill:#ffffff;stroke-width:0.00142709"
         d="m 0.00692549,0.01590214 0.00236726,-0.0022681 c 0,0 1.244e-5,-9.6e-6 2.537e-5,-6.86e-6 1.293e-5,2.75e-6 2.894e-5,1.568e-5 2.894e-5,1.568e-5 l 3.408e-5,3.455e-5 c 0,0 1.414e-5,1.675e-5 1.676e-5,3.062e-5 2.63e-6,1.389e-5 -6.01e-6,2.819e-5 -6.01e-6,2.819e-5 -0.0012209,0.0014753 -0.00192671,0.0021044 -0.00232385,0.0022264 -4.752e-5,-6.68e-6 -9.503e-5,-3.345e-5 -1.4255e-4,-6.048e-5 z"
         sodipodi:nodetypes="cczcczccc"
         inkscape:label="Glanz" /></g></g></svg>
