<?xml version="1.0" encoding="UTF-8" standalone="no"?>
<!-- Created with Inkscape (http://www.inkscape.org/) -->

<svg
   width="24"
   height="24"
   viewBox="0 0 0.024 0.024"
   version="1.1"
   id="svg414"
   inkscape:version="1.2.1 (9c6d41e410, 2022-07-14)"
   sodipodi:docname="icon set 24 px.svg"
   inkscape:export-filename="icon-microscope.svg"
   inkscape:export-xdpi="96"
   inkscape:export-ydpi="96"
   xmlns:inkscape="http://www.inkscape.org/namespaces/inkscape"
   xmlns:sodipodi="http://sodipodi.sourceforge.net/DTD/sodipodi-0.dtd"
   xmlns="http://www.w3.org/2000/svg"
   xmlns:svg="http://www.w3.org/2000/svg">
  <sodipodi:namedview
     id="namedview416"
     pagecolor="#ffffff"
     bordercolor="#000000"
     borderopacity="0.25"
     inkscape:showpageshadow="2"
     inkscape:pageopacity="0.0"
     inkscape:pagecheckerboard="false"
     inkscape:deskcolor="#c4c4c4"
     inkscape:document-units="px"
     showgrid="false"
     showguides="false"
     inkscape:zoom="23.29046"
     inkscape:cx="-1.7603774"
     inkscape:cy="6.3760011"
     inkscape:window-width="1920"
     inkscape:window-height="992"
     inkscape:window-x="-8"
     inkscape:window-y="-8"
     inkscape:window-maximized="1"
     inkscape:current-layer="layer1">
    <sodipodi:guide
       position="0.022004718,0.026855246"
       orientation="1,0"
       id="guide535"
       inkscape:locked="false" />
    <sodipodi:guide
       position="0.0019886037,0.026595811"
       orientation="1,0"
       id="guide537"
       inkscape:locked="false" />
    <sodipodi:guide
       position="-0.0012903154,0.022011396"
       orientation="0,-1"
       id="guide539"
       inkscape:locked="false" />
    <sodipodi:guide
       position="-0.0012903154,0.0020039183"
       orientation="0,-1"
       id="guide541"
       inkscape:locked="false" />
    <sodipodi:guide
       position="0.011992343,-0.0018822079"
       orientation="1,0"
       id="guide572"
       inkscape:locked="false" />
    <sodipodi:guide
       position="-0.0012144144,0.012007657"
       orientation="0,-1"
       id="guide574"
       inkscape:locked="false" />
    <sodipodi:guide
       position="0.017487568,0.018626216"
       orientation="0,-1"
       id="guide1627"
       inkscape:locked="false" />
  </sodipodi:namedview>
  <defs
     id="defs411" />
  <g
     inkscape:label="Ebene 1"
     inkscape:groupmode="layer"
     id="layer1">
    <path
       id="path1361"
       style="fill:none;stroke:#000000;stroke-width:0.00181744"
       inkscape:label="Circle"
       d="M 0.02109409,0.01201212 A 0.00908719,0.00908719 0 0 1 0.01200691,0.02109931 0.00908719,0.00908719 0 0 1 0.00291972,0.01201212 0.00908719,0.00908719 0 0 1 0.01200691,0.00292493 0.00908719,0.00908719 0 0 1 0.02109409,0.01201212 Z" />
    <path
       style="display:inline;fill:#000000;fill-opacity:1;stroke:none;stroke-width:0.0023649;stroke-dasharray:none;stroke-opacity:1"
       d="M 0.01263427,0.01898898 0.00563718,0.01480057 c -1.2086e-4,-6.863e-5 -1.3984e-4,-1.6769e-4 -7.113e-5,-3.1139e-4 8.6139e-4,-0.0019476 0.00224191,-6.1561e-4 0.00460579,3.8102e-4 L 0.01019977,0.0131144 0.00763716,0.00792932 C 0.00709065,0.00694059 0.00841034,0.00639539 0.00885996,0.0070662 L 0.01153197,0.01155617 0.01020508,0.0060015 C 0.00993054,0.0049534 0.0115085,0.00450971 0.0118319,0.00556375 l 0.0017666,0.0057049 1.7646e-4,-0.0048714 c -4.069e-5,-0.00112805 0.001713,-0.00121127 0.0016242,1.5783e-4 l -1.34e-6,0.00511538 7.9201e-4,-0.00337924 c 1.7534e-4,-8.453e-4 0.0015024,-7.3137e-4 0.0013618,4.5106e-4 l -5.5728e-4,0.00354776 3.8968e-4,0.0041248 c -0.0014283,0.0015274 -0.0031261,0.0023161 -0.0047498,0.0025741 z"
       id="path2510"
       sodipodi:nodetypes="cccccccccccccccccccc"
       inkscape:label="touch" />
  </g>
</svg>
