<?xml version="1.0" encoding="UTF-8"?>
<!-- Created with Inkscape (http://www.inkscape.org/) -->
<svg width="642.52" height="642.52" version="1.1" viewBox="0 0 170 170" xml:space="preserve" xmlns="http://www.w3.org/2000/svg"><g transform="matrix(.3323 0 0 .3323 -.13759 -.19103)" fill="#3c8f49" stroke-width=".79622">
	<g fill="#3c8f49" stroke-width=".79622">
		<path d="m470.57 369.84c-1.951-5.285-7.815-7.988-13.1-6.038l-106.07 39.139c-5.285 1.95-7.988 7.815-6.038 13.1 1.521 4.12 5.42 6.671 9.57 6.671 1.172 0 2.365-0.204 3.53-0.633l106.07-39.139c5.285-1.95 7.988-7.815 6.038-13.1z"/>
		<path d="m335.34 419.74c-1.949-5.286-7.815-7.989-13.1-6.039l-4.492 1.657c-5.284 1.95-7.988 7.815-6.038 13.099 1.52 4.12 5.42 6.672 9.57 6.672 1.172 0 2.365-0.204 3.53-0.633l4.492-1.657c5.284-1.95 7.988-7.814 6.038-13.099z"/>
		<path d="m470.57 328.28c-1.951-5.285-7.815-7.986-13.1-6.038l-83.825 30.93c-5.285 1.95-7.988 7.815-6.038 13.1 1.521 4.12 5.42 6.671 9.57 6.671 1.172 0 2.365-0.204 3.53-0.633l83.825-30.93c5.285-1.95 7.988-7.815 6.038-13.1z"/>
		<path d="m470.57 287.15c-1.951-5.285-7.815-7.986-13.1-6.038l-83.825 30.93c-5.285 1.95-7.988 7.815-6.038 13.1 1.521 4.12 5.42 6.671 9.57 6.671 1.172 0 2.365-0.204 3.53-0.633l83.825-30.93c5.285-1.95 7.988-7.815 6.038-13.1z"/>
	</g>
</g><g transform="matrix(.33203 0 0 .33203 0 -.18856)" fill="#3c8f49" stroke-width=".79686">
	<g fill="#3c8f49" stroke-width=".79686">
		<path d="m505.33 100.53-245.8-90.696c-2.279-0.84-4.783-0.84-7.061 0l-245.8 90.696-2e-3 8e-3c-0.805 0.298-1.579 0.692-2.299 1.193-2.737 1.908-4.368 5.033-4.368 8.368v291.81c0 4.271 2.661 8.09 6.668 9.569l245.8 90.696c1.146 0.423 2.341 0.63 3.53 0.63 1.201 0 2.396-0.218 3.528-0.636l4e-3 6e-3 245.8-90.696c4.007-1.479 6.668-5.297 6.668-9.569v-291.81c0-4.272-2.661-8.09-6.668-9.569zm-259.53 377.44-225.4-83.17v-270.06l45.896 16.936v123.58c0 4.271 2.661 8.09 6.668 9.569l110.15 40.645c1.146 0.423 2.341 0.63 3.53 0.63 2.058 0 4.098-0.623 5.833-1.832 2.736-1.907 4.367-5.032 4.367-8.367v-116.05l48.956 18.064v270.06zm-69.355-295.65v108.94l-89.753-33.118v-108.94zm-70.489-47.834 80.688-29.773 80.688 29.773-80.688 29.773zm150.04 55.445-40.001-14.76 84.329-31.117c4.007-1.479 6.668-5.297 6.668-9.569s-2.661-8.09-6.668-9.569l-110.15-40.644c-2.279-0.84-4.782-0.84-7.062 0l-106.73 39.384-36.72-13.55 216.34-79.824 216.34 79.825zm235.6 204.87-225.4 83.169v-270.06l225.4-83.17z" fill="#3c8f49" stroke-width=".79686"/>
	</g>
</g></svg>
