<svg width="54" height="53" viewBox="0 0 54 53" fill="none" xmlns="http://www.w3.org/2000/svg">
<g clip-path="url(#clip0_7832_12827)">
<g filter="url(#filter0_d_7832_12827)">
<path d="M33.7395 42.6748L22.1918 30.2276L12.342 32.3854C10.8556 32.711 9.39284 31.774 9.06722 30.2876C8.7416 28.8011 9.67862 27.3384 11.165 27.0128L21.0148 24.855L26.3012 8.72004C26.498 8.07635 27.0463 7.58086 27.7089 7.4357C28.9626 7.16108 30.1208 8.1648 30.0434 9.43922L29.0916 23.0857L38.9235 20.9319L40.4545 16.3549C40.5568 16.0509 40.826 15.8231 41.1304 15.7564L42.1691 15.5288C42.7601 15.3994 43.3115 15.8604 43.2899 16.4469L43.1281 21.9626L43.0937 22.8335L43.4039 23.4787L43.7657 24.1878L45.3707 27.4021L45.938 28.5353C46.2068 29.077 45.8947 29.7084 45.3037 29.8378L44.265 30.0654C43.9427 30.136 43.6208 30.0376 43.4008 29.8043L40.1004 26.3045L30.2506 28.4622L36.8205 40.4609C37.4415 41.5823 36.8089 42.9784 35.5553 43.253C34.8927 43.3982 34.1874 43.1773 33.7395 42.6748Z" fill="#181818"/>
</g>
</g>
<defs>
<filter id="filter0_d_7832_12827" x="5.00244" y="7.38965" width="45.0332" height="43.9072" filterUnits="userSpaceOnUse" color-interpolation-filters="sRGB">
<feFlood flood-opacity="0" result="BackgroundImageFix"/>
<feColorMatrix in="SourceAlpha" type="matrix" values="0 0 0 0 0 0 0 0 0 0 0 0 0 0 0 0 0 0 127 0" result="hardAlpha"/>
<feOffset dy="4"/>
<feGaussianBlur stdDeviation="2"/>
<feComposite in2="hardAlpha" operator="out"/>
<feColorMatrix type="matrix" values="0 0 0 0 0 0 0 0 0 0 0 0 0 0 0 0 0 0 0.25 0"/>
<feBlend mode="normal" in2="BackgroundImageFix" result="effect1_dropShadow_7832_12827"/>
<feBlend mode="normal" in="SourceGraphic" in2="effect1_dropShadow_7832_12827" result="shape"/>
</filter>
<clipPath id="clip0_7832_12827">
<rect width="44" height="44" fill="white" transform="matrix(0.213991 0.976836 0.976836 -0.213991 0.657227 9.6084)"/>
</clipPath>
</defs>
</svg>
