<svg xmlns="http://www.w3.org/2000/svg" viewBox="0 0 100 100" fill="currentColor">
  <path d="M50 10c-8 0-15 3-20 8-3-1-6-2-9-2-11 0-20 9-20 20 0 8 5 15 12 18-1 2-2 5-2 8 0 11 9 20 20 20 4 0 8-1 11-3 3 5 9 8 15 8 7 0 13-4 16-10 2 1 4 1 6 1 11 0 20-9 20-20 0-7-3-13-8-16 1-2 1-4 1-6 0-11-9-20-20-20-3 0-6 1-8 2-4-5-10-8-16-8zm0 8c5 0 10 2 13 6-2 3-3 6-3 10 0 1 0 2 0 3-1 0-2 0-3 0-4 0-8 1-11 3-1-1-2-2-3-3 1-2 1-4 1-6 0-4-1-7-3-10 3-2 6-3 9-3zm-29 14c7 0 12 5 12 12 0 2 0 4-1 5-3 3-5 7-5 12 0 1 0 2 0 3-5-2-9-7-9-13 0-2 1-4 2-6l2-3-3-2c-4-2-7-6-7-11 0-7 5-12 12-12h-3zm51 4c7 0 12 5 12 12 0 1 0 2 0 3-1 0-2-1-3-1-5 0-10 2-13 6-2-2-4-3-7-4 0-1 0-2 0-3 0-5 2-9 5-11 2-1 4-2 6-2zm-22 14c4 0 8 2 10 5-1 2-2 4-2 7 0 4 2 8 5 10-2 3-5 5-9 5-3 0-6-1-8-3 1-2 1-4 1-6 0-4-1-7-3-10 2-5 4-8 6-8zm20 8c4 0 7 3 7 7s-3 7-7 7c-2 0-4-1-5-2 1-2 1-3 1-5s0-3-1-5c1-1 3-2 5-2zm-39 4c0 5 2 9 6 11-1 1-1 2-1 3 0 4 3 7 7 7h1c-2 2-5 3-8 3-7 0-12-5-12-12s5-12 12-12h-5z"/>
</svg>
