<?xml version="1.0" encoding="UTF-8"?>
<svg version="1.1" xmlns="http://www.w3.org/2000/svg" width="421" height="118">
<path d="M0 0 C138.93 0 277.86 0 421 0 C421 38.94 421 77.88 421 118 C282.07 118 143.14 118 0 118 C0 79.06 0 40.12 0 0 Z " fill="#1F1B21" transform="translate(0,0)"/>
<path d="M0 0 C19.8 0 39.6 0 60 0 C60 2.64 60 5.28 60 8 C62.31 8 64.62 8 67 8 C67 11.96 67 15.92 67 20 C67.99 20 68.98 20 70 20 C70 22.64 70 25.28 70 28 C72.31 28 74.62 28 77 28 C77 35.92 77 43.84 77 52 C73.7 52 70.4 52 67 52 C67 54.64 67 57.28 67 60 C67.99 60 68.98 60 70 60 C70 62.64 70 65.28 70 68 C72.31 68 74.62 68 77 68 C77 82.52 77 97.04 77 112 C69.08 112 61.16 112 53 112 C53 108.04 53 104.08 53 100 C52.01 100 51.02 100 50 100 C50 90.76 50 81.52 50 72 C42.41 72 34.82 72 27 72 C27 85.2 27 98.4 27 112 C19.08 112 11.16 112 3 112 C3 108.04 3 104.08 3 100 C2.01 100 1.02 100 0 100 C0 67 0 34 0 0 Z " fill="#CC97E0" transform="translate(172,3)"/>
<path d="M0 0 C23.1 0 46.2 0 70 0 C70 2.64 70 5.28 70 8 C72.31 8 74.62 8 77 8 C77 15.92 77 23.84 77 32 C60.5 32 44 32 27 32 C27 34.64 27 37.28 27 40 C34.59 40 42.18 40 50 40 C50 42.64 50 45.28 50 48 C52.31 48 54.62 48 57 48 C57 55.92 57 63.84 57 72 C47.1 72 37.2 72 27 72 C27 74.64 27 77.28 27 80 C41.19 80 55.38 80 70 80 C70 82.64 70 85.28 70 88 C72.31 88 74.62 88 77 88 C77 95.92 77 103.84 77 112 C52.58 112 28.16 112 3 112 C3 108.04 3 104.08 3 100 C2.01 100 1.02 100 0 100 C0 67 0 34 0 0 Z " fill="#7937E4" transform="translate(342,3)"/>
<path d="M0 0 C23.1 0 46.2 0 70 0 C70 2.64 70 5.28 70 8 C72.31 8 74.62 8 77 8 C77 15.92 77 23.84 77 32 C60.5 32 44 32 27 32 C27 34.64 27 37.28 27 40 C34.59 40 42.18 40 50 40 C50 42.64 50 45.28 50 48 C52.31 48 54.62 48 57 48 C57 55.92 57 63.84 57 72 C47.1 72 37.2 72 27 72 C27 85.2 27 98.4 27 112 C19.08 112 11.16 112 3 112 C3 108.04 3 104.08 3 100 C2.01 100 1.02 100 0 100 C0 67 0 34 0 0 Z " fill="#AA82ED" transform="translate(2,3)"/>
<path d="M0 0 C19.8 0 39.6 0 60 0 C60 2.64 60 5.28 60 8 C62.31 8 64.62 8 67 8 C67 11.96 67 15.92 67 20 C48.19 20 29.38 20 10 20 C10 39.8 10 59.6 10 80 C10.99 80 11.98 80 13 80 C13 66.8 13 53.6 13 40 C13.33 40 13.66 40 14 40 C14 53.2 14 66.4 14 80 C14.66 80 15.32 80 16 80 C16 66.8 16 53.6 16 40 C16.33 40 16.66 40 17 40 C17 53.2 17 66.4 17 80 C27.89 80 38.78 80 50 80 C50 66.8 50 53.6 50 40 C56.6 40 63.2 40 70 40 C70 53.2 70 66.4 70 80 C66.7 80 63.4 80 60 80 C60 86.6 60 93.2 60 100 C40.2 100 20.4 100 0 100 C0 97.36 0 94.72 0 92 C-2.31 92 -4.62 92 -7 92 C-7 88.04 -7 84.08 -7 80 C-7.99 80 -8.98 80 -10 80 C-10 60.2 -10 40.4 -10 20 C-6.7 20 -3.4 20 0 20 C0 13.4 0 6.8 0 0 Z " fill="#D6CCFA" transform="translate(92,3)"/>
<path d="M0 0 C19.8 0 39.6 0 60 0 C60 2.64 60 5.28 60 8 C62.31 8 64.62 8 67 8 C67 29.12 67 50.24 67 72 C63.7 72 60.4 72 57 72 C57 78.6 57 85.2 57 92 C35.88 92 14.76 92 -7 92 C-7 88.04 -7 84.08 -7 80 C11.81 80 30.62 80 50 80 C50 73.4 50 66.8 50 60 C53.3 60 56.6 60 60 60 C60 46.8 60 33.6 60 20 C53.4 20 46.8 20 40 20 C40 33.2 40 46.4 40 60 C26.8 60 13.6 60 0 60 C0 40.2 0 20.4 0 0 Z " fill="#A45EDB" transform="translate(102,23)"/>
<path d="M0 0 C6.6 0 13.2 0 20 0 C20 19.8 20 39.6 20 60 C20.99 60 21.98 60 23 60 C23 46.8 23 33.6 23 20 C23.33 20 23.66 20 24 20 C24 33.2 24 46.4 24 60 C24.66 60 25.32 60 26 60 C26 46.8 26 33.6 26 20 C26.33 20 26.66 20 27 20 C27 33.2 27 46.4 27 60 C37.89 60 48.78 60 60 60 C60 53.4 60 46.8 60 40 C66.6 40 73.2 40 80 40 C80 46.6 80 53.2 80 60 C76.7 60 73.4 60 70 60 C70 66.6 70 73.2 70 80 C50.2 80 30.4 80 10 80 C10 77.36 10 74.72 10 72 C7.69 72 5.38 72 3 72 C3 68.04 3 64.08 3 60 C2.01 60 1.02 60 0 60 C0 40.2 0 20.4 0 0 Z " fill="#D6CCFA" transform="translate(252,23)"/>
<path d="M0 0 C6.6 0 13.2 0 20 0 C20 6.6 20 13.2 20 20 C20.99 20 21.98 20 23 20 C23 16.04 23 12.08 23 8 C32.9 8 42.8 8 53 8 C53 5.36 53 2.72 53 0 C53.33 0 53.66 0 54 0 C54 2.97 54 5.94 54 9 C44.1 9 34.2 9 24 9 C24 12.63 24 16.26 24 20 C24.66 20 25.32 20 26 20 C26 17.03 26 14.06 26 11 C35.9 11 45.8 11 56 11 C56 7.37 56 3.74 56 0 C56.33 0 56.66 0 57 0 C57 3.96 57 7.92 57 12 C47.1 12 37.2 12 27 12 C27 14.64 27 17.28 27 20 C41.19 20 55.38 20 70 20 C70 22.64 70 25.28 70 28 C72.31 28 74.62 28 77 28 C77 35.92 77 43.84 77 52 C52.58 52 28.16 52 3 52 C3 48.04 3 44.08 3 40 C2.01 40 1.02 40 0 40 C0 26.8 0 13.6 0 0 Z " fill="#DABEEE" transform="translate(342,63)"/>
<path d="M0 0 C19.8 0 39.6 0 60 0 C60 2.64 60 5.28 60 8 C62.31 8 64.62 8 67 8 C67 15.92 67 23.84 67 32 C50.5 32 34 32 17 32 C16.67 47.84 16.34 63.68 16 80 C14.02 80 12.04 80 10 80 C10 60.2 10 40.4 10 20 C6.7 20 3.4 20 0 20 C0 13.4 0 6.8 0 0 Z " fill="#7938E4" transform="translate(262,3)"/>
<path d="M0 0 C23.1 0 46.2 0 70 0 C70 2.64 70 5.28 70 8 C72.31 8 74.62 8 77 8 C77 15.92 77 23.84 77 32 C60.5 32 44 32 27 32 C27 34.64 27 37.28 27 40 C24.69 40 22.38 40 20 40 C20 33.4 20 26.8 20 20 C13.4 20 6.8 20 0 20 C0 13.4 0 6.8 0 0 Z " fill="#7937E4" transform="translate(2,3)"/>
<path d="M0 0 C19.8 0 39.6 0 60 0 C60 6.6 60 13.2 60 20 C46.8 20 33.6 20 20 20 C20 33.2 20 46.4 20 60 C13.4 60 6.8 60 0 60 C0 40.2 0 20.4 0 0 Z " fill="#A181F4" transform="translate(172,43)"/>
<path d="M0 0 C9.9 0 19.8 0 30 0 C30 2.64 30 5.28 30 8 C32.31 8 34.62 8 37 8 C37 22.52 37 37.04 37 52 C33.7 52 30.4 52 27 52 C27 58.6 27 65.2 27 72 C5.88 72 -15.24 72 -37 72 C-37 68.04 -37 64.08 -37 60 C-18.19 60 0.62 60 20 60 C20 53.4 20 46.8 20 40 C23.3 40 26.6 40 30 40 C30 33.4 30 26.8 30 20 C20.1 20 10.2 20 0 20 C0 13.4 0 6.8 0 0 Z " fill="#B47BE1" transform="translate(302,43)"/>
<path d="M0 0 C19.8 0 39.6 0 60 0 C60 2.64 60 5.28 60 8 C62.31 8 64.62 8 67 8 C67 11.96 67 15.92 67 20 C51.49 20 35.98 20 20 20 C20 26.6 20 33.2 20 40 C13.4 40 6.8 40 0 40 C0 26.8 0 13.6 0 0 Z " fill="#7734E3" transform="translate(172,3)"/>
<path d="M0 0 C19.8 0 39.6 0 60 0 C60 2.64 60 5.28 60 8 C62.31 8 64.62 8 67 8 C67 11.96 67 15.92 67 20 C48.19 20 29.38 20 10 20 C10 26.6 10 33.2 10 40 C3.4 40 -3.2 40 -10 40 C-10 33.4 -10 26.8 -10 20 C-6.7 20 -3.4 20 0 20 C0 13.4 0 6.8 0 0 Z " fill="#7734E3" transform="translate(92,3)"/>
<path d="M0 0 C10.89 0 21.78 0 33 0 C33 15.84 33 31.68 33 48 C22.11 48 11.22 48 0 48 C0 32.16 0 16.32 0 0 Z " fill="#1F1B21" transform="translate(109,35)"/>
<path d="M0 0 C16.5 0 33 0 50 0 C50 2.64 50 5.28 50 8 C52.31 8 54.62 8 57 8 C57.02781263 9.77073747 57.04674879 11.54161417 57.0625 13.3125 C57.07410156 14.29863281 57.08570313 15.28476562 57.09765625 16.30078125 C56.9679923 21.21245178 56.44483668 26.1067965 56 31 C46.1 31 36.2 31 26 31 C26 33.97 26 36.94 26 40 C25.34 40 24.68 40 24 40 C24 36.37 24 32.74 24 29 C33.9 29 43.8 29 54 29 C52.89732294 27.67112965 52.89732294 27.67112965 50.13256836 27.88647461 C48.88096924 27.89171143 47.62937012 27.89694824 46.33984375 27.90234375 C45.67537735 27.9037587 45.01091095 27.90517365 44.3263092 27.90663147 C42.19666101 27.91224482 40.06711661 27.92479946 37.9375 27.9375 C36.49674631 27.94251329 35.05599097 27.94707649 33.61523438 27.95117188 C30.07678898 27.96221855 26.53840461 27.97949208 23 28 C23 31.96 23 35.92 23 40 C22.01 40 21.02 40 20 40 C20 33.4 20 26.8 20 20 C13.4 20 6.8 20 0 20 C0 13.4 0 6.8 0 0 Z " fill="#A080F3" transform="translate(342,43)"/>
<path d="M0 0 C16.5 0 33 0 50 0 C50 2.64 50 5.28 50 8 C52.31 8 54.62 8 57 8 C57 15.92 57 23.84 57 32 C53.7 32 50.4 32 47 32 C47 34.64 47 37.28 47 40 C44.69 40 42.38 40 40 40 C40 33.4 40 26.8 40 20 C26.8 20 13.6 20 0 20 C0 13.4 0 6.8 0 0 Z " fill="#8857ED" transform="translate(192,23)"/>
<path d="M0 0 C6.6 0 13.2 0 20 0 C20 19.8 20 39.6 20 60 C16.7 60 13.4 60 10 60 C10 62.64 10 65.28 10 68 C8.02 68.495 8.02 68.495 6 69 C7.32 69 8.64 69 10 69 C10 69.66 10 70.32 10 71 C8.02 71 6.04 71 4 71 C4 67.37 4 63.74 4 60 C2.68 60 1.36 60 0 60 C0 40.2 0 20.4 0 0 Z " fill="#A181F4" transform="translate(252,23)"/>
<path d="M0 0 C6.6 0 13.2 0 20 0 C20 13.2 20 26.4 20 40 C16.7 40 13.4 40 10 40 C10 42.64 10 45.28 10 48 C8.02 48.495 8.02 48.495 6 49 C7.32 49 8.64 49 10 49 C10 49.66 10 50.32 10 51 C8.02 51 6.04 51 4 51 C4 47.37 4 43.74 4 40 C2.68 40 1.36 40 0 40 C0 26.8 0 13.6 0 0 Z " fill="#BFACF9" transform="translate(82,43)"/>
<path d="M0 0 C6.6 0 13.2 0 20 0 C20 13.2 20 26.4 20 40 C13.4 40 6.8 40 0 40 C0 26.8 0 13.6 0 0 Z " fill="#D9D0FB" transform="translate(172,63)"/>
<path d="M0 0 C6.6 0 13.2 0 20 0 C20 13.2 20 26.4 20 40 C13.4 40 6.8 40 0 40 C0 26.8 0 13.6 0 0 Z " fill="#D9D0FB" transform="translate(2,63)"/>
<path d="M0 0 C6.6 0 13.2 0 20 0 C20 13.2 20 26.4 20 40 C13.4 40 6.8 40 0 40 C0 26.8 0 13.6 0 0 Z " fill="#BFACF9" transform="translate(142,43)"/>
<path d="M0 0 C0.99 0 1.98 0 3 0 C3 18.48 3 36.96 3 56 C-0.3 56 -3.6 56 -7 56 C-7 62.6 -7 69.2 -7 76 C-25.48 76 -43.96 76 -63 76 C-63 73.36 -63 70.72 -63 68 C-45.51 68 -28.02 68 -10 68 C-10 61.4 -10 54.8 -10 48 C-6.7 48 -3.4 48 0 48 C0 32.16 0 16.32 0 0 Z " fill="#1F1B21" transform="translate(162,35)"/>
<path d="M0 0 C0.99 0 1.98 0 3 0 C3 11.88 3 23.76 3 36 C-0.3 36 -3.6 36 -7 36 C-7 42.6 -7 49.2 -7 56 C-25.48 56 -43.96 56 -63 56 C-63 53.36 -63 50.72 -63 48 C-45.51 48 -28.02 48 -10 48 C-10 41.4 -10 34.8 -10 28 C-6.7 28 -3.4 28 0 28 C0 18.76 0 9.52 0 0 Z " fill="#1F1B21" transform="translate(332,55)"/>
<path d="M0 0 C0.99 0 1.98 0 3 0 C3 5.28 3 10.56 3 16 C-13.5 16 -30 16 -47 16 C-47 33.16 -47 50.32 -47 68 C-47.99 68 -48.98 68 -50 68 C-50 48.2 -50 28.4 -50 8 C-33.5 8 -17 8 0 8 C0 5.36 0 2.72 0 0 Z " fill="#1F1B21" transform="translate(322,15)"/>
<path d="M0 0 C0.99 0 1.98 0 3 0 C3 5.28 3 10.56 3 16 C-18.78 16 -40.56 16 -63 16 C-63 13.36 -63 10.72 -63 8 C-42.21 8 -21.42 8 0 8 C0 5.36 0 2.72 0 0 Z " fill="#1F1B21" transform="translate(412,95)"/>
<path d="M0 0 C0.99 0 1.98 0 3 0 C3 5.28 3 10.56 3 16 C-6.9 16 -16.8 16 -27 16 C-27 29.2 -27 42.4 -27 56 C-32.28 56 -37.56 56 -43 56 C-43 53.36 -43 50.72 -43 48 C-38.71 48 -34.42 48 -30 48 C-30 34.8 -30 21.6 -30 8 C-20.1 8 -10.2 8 0 8 C0 5.36 0 2.72 0 0 Z " fill="#1F1B21" transform="translate(52,55)"/>
<path d="M0 0 C0.99 0 1.98 0 3 0 C3 5.28 3 10.56 3 16 C-13.5 16 -30 16 -47 16 C-47 19.96 -47 23.92 -47 28 C-47.99 28 -48.98 28 -50 28 C-50 21.4 -50 14.8 -50 8 C-33.5 8 -17 8 0 8 C0 5.36 0 2.72 0 0 Z " fill="#1F1B21" transform="translate(412,15)"/>
<path d="M0 0 C0.99 0 1.98 0 3 0 C3 5.28 3 10.56 3 16 C-13.5 16 -30 16 -47 16 C-47 19.96 -47 23.92 -47 28 C-47.99 28 -48.98 28 -50 28 C-50 21.4 -50 14.8 -50 8 C-33.5 8 -17 8 0 8 C0 5.36 0 2.72 0 0 Z " fill="#1F1B21" transform="translate(72,15)"/>
<path d="M0 0 C13.2 0 26.4 0 40 0 C40 2.64 40 5.28 40 8 C27.79 8 15.58 8 3 8 C3 25.16 3 42.32 3 60 C2.01 60 1.02 60 0 60 C0 40.2 0 20.4 0 0 Z " fill="#1F1B21" transform="translate(102,23)"/>
<path d="M0 0 C9.9 0 19.8 0 30 0 C30 2.64 30 5.28 30 8 C21.09 8 12.18 8 3 8 C3 21.2 3 34.4 3 48 C-2.28 48 -7.56 48 -13 48 C-13 45.36 -13 42.72 -13 40 C-8.71 40 -4.42 40 0 40 C0 26.8 0 13.6 0 0 Z " fill="#1F1B21" transform="translate(192,63)"/>
<path d="M0 0 C6.6 0 13.2 0 20 0 C20 6.6 20 13.2 20 20 C16.7 20 13.4 20 10 20 C10 22.64 10 25.28 10 28 C8.68 28.33 7.36 28.66 6 29 C7.32 29 8.64 29 10 29 C10 29.66 10 30.32 10 31 C8.02 31 6.04 31 4 31 C4 27.37 4 23.74 4 20 C2.68 20 1.36 20 0 20 C0 13.4 0 6.8 0 0 Z " fill="#BFACF9" transform="translate(252,63)"/>
<path d="M0 0 C6.6 0 13.2 0 20 0 C20 6.6 20 13.2 20 20 C13.4 20 6.8 20 0 20 C0 13.4 0 6.8 0 0 Z " fill="#D9D0FB" transform="translate(222,83)"/>
<path d="M0 0 C6.6 0 13.2 0 20 0 C20 6.6 20 13.2 20 20 C13.4 20 6.8 20 0 20 C0 13.4 0 6.8 0 0 Z " fill="#BFACF9" transform="translate(342,63)"/>
<path d="M0 0 C6.6 0 13.2 0 20 0 C20 6.6 20 13.2 20 20 C13.4 20 6.8 20 0 20 C0 13.4 0 6.8 0 0 Z " fill="#BFACF9" transform="translate(312,63)"/>
<path d="M0 0 C6.6 0 13.2 0 20 0 C20 6.6 20 13.2 20 20 C13.4 20 6.8 20 0 20 C0 13.4 0 6.8 0 0 Z " fill="#BFACF9" transform="translate(172,63)"/>
<path d="M0 0 C6.6 0 13.2 0 20 0 C20 6.6 20 13.2 20 20 C13.4 20 6.8 20 0 20 C0 13.4 0 6.8 0 0 Z " fill="#BFACF9" transform="translate(2,63)"/>
<path d="M0 0 C6.6 0 13.2 0 20 0 C20 6.6 20 13.2 20 20 C13.4 20 6.8 20 0 20 C0 13.4 0 6.8 0 0 Z " fill="#A181F4" transform="translate(142,43)"/>
<path d="M0 0 C6.6 0 13.2 0 20 0 C20 6.6 20 13.2 20 20 C13.4 20 6.8 20 0 20 C0 13.4 0 6.8 0 0 Z " fill="#A181F4" transform="translate(82,43)"/>
<path d="M0 0 C6.6 0 13.2 0 20 0 C20 6.6 20 13.2 20 20 C13.4 20 6.8 20 0 20 C0 13.4 0 6.8 0 0 Z " fill="#8653EE" transform="translate(342,23)"/>
<path d="M0 0 C6.6 0 13.2 0 20 0 C20 6.6 20 13.2 20 20 C13.4 20 6.8 20 0 20 C0 13.4 0 6.8 0 0 Z " fill="#8653EE" transform="translate(252,23)"/>
<path d="M0 0 C6.6 0 13.2 0 20 0 C20 6.6 20 13.2 20 20 C13.4 20 6.8 20 0 20 C0 13.4 0 6.8 0 0 Z " fill="#8653EE" transform="translate(172,23)"/>
<path d="M0 0 C6.6 0 13.2 0 20 0 C20 6.6 20 13.2 20 20 C13.4 20 6.8 20 0 20 C0 13.4 0 6.8 0 0 Z " fill="#8653EE" transform="translate(82,23)"/>
<path d="M0 0 C6.6 0 13.2 0 20 0 C20 6.6 20 13.2 20 20 C13.4 20 6.8 20 0 20 C0 13.4 0 6.8 0 0 Z " fill="#8653EE" transform="translate(2,23)"/>
<path d="M0 0 C1.98 0 3.96 0 6 0 C6 20.46 6 40.92 6 62 C2.7 62 -0.6 62 -4 62 C-4 68.6 -4 75.2 -4 82 C-24.46 82 -44.92 82 -66 82 C-66 78.37 -66 74.74 -66 71 C-65.34 71 -64.68 71 -64 71 C-64 73.97 -64 76.94 -64 80 C-44.86 80 -25.72 80 -6 80 C-6 73.4 -6 66.8 -6 60 C-2.7 60 0.6 60 4 60 C4 40.86 4 21.72 4 2 C2.68 2 1.36 2 0 2 C0 1.34 0 0.68 0 0 Z " fill="#1F1B21" transform="translate(162,32)"/>
<path d="M0 0 C0.99 0 1.98 0 3 0 C3 5.28 3 10.56 3 16 C-6.9 16 -16.8 16 -27 16 C-27 19.96 -27 23.92 -27 28 C-27.99 28 -28.98 28 -30 28 C-30 21.4 -30 14.8 -30 8 C-20.1 8 -10.2 8 0 8 C0 5.36 0 2.72 0 0 Z " fill="#1F1B21" transform="translate(392,55)"/>
<path d="M0 0 C1.98 0 3.96 0 6 0 C6 13.86 6 27.72 6 42 C2.7 42 -0.6 42 -4 42 C-4 48.6 -4 55.2 -4 62 C-24.46 62 -44.92 62 -66 62 C-66 58.37 -66 54.74 -66 51 C-65.34 51 -64.68 51 -64 51 C-64 53.97 -64 56.94 -64 60 C-44.86 60 -25.72 60 -6 60 C-6 53.4 -6 46.8 -6 40 C-2.7 40 0.6 40 4 40 C4 27.46 4 14.92 4 2 C2.68 2 1.36 2 0 2 C0 1.34 0 0.68 0 0 Z " fill="#1F1B21" transform="translate(332,52)"/>
<path d="M0 0 C9.9 0 19.8 0 30 0 C30 2.64 30 5.28 30 8 C21.09 8 12.18 8 3 8 C3 11.96 3 15.92 3 20 C2.01 20 1.02 20 0 20 C0 13.4 0 6.8 0 0 Z " fill="#1F1B21" transform="translate(192,23)"/>
<path d="M0 0 C1.98 0 3.96 0 6 0 C6 7.26 6 14.52 6 22 C-3.9 22 -13.8 22 -24 22 C-24 35.2 -24 48.4 -24 62 C-31.26 62 -38.52 62 -46 62 C-46 58.37 -46 54.74 -46 51 C-45.34 51 -44.68 51 -44 51 C-44 53.97 -44 56.94 -44 60 C-38.06 60 -32.12 60 -26 60 C-26 46.8 -26 33.6 -26 20 C-16.1 20 -6.2 20 4 20 C4 14.06 4 8.12 4 2 C2.68 2 1.36 2 0 2 C0 1.34 0 0.68 0 0 Z " fill="#1F1B21" transform="translate(52,52)"/>
<path d="M0 0 C1.98 0 3.96 0 6 0 C6 7.26 6 14.52 6 22 C-10.5 22 -27 22 -44 22 C-44 38.17 -44 54.34 -44 71 C-44.66 71 -45.32 71 -46 71 C-46 54.17 -46 37.34 -46 20 C-29.5 20 -13 20 4 20 C4 14.06 4 8.12 4 2 C2.68 2 1.36 2 0 2 C0 1.34 0 0.68 0 0 Z " fill="#1F1B21" transform="translate(322,12)"/>
<path d="M0 0 C0.99 0 1.98 0 3 0 C3 11.88 3 23.76 3 36 C-2.28 36 -7.56 36 -13 36 C-13 33.36 -13 30.72 -13 28 C-8.71 28 -4.42 28 0 28 C0 18.76 0 9.52 0 0 Z " fill="#1F1B21" transform="translate(242,75)"/>
<path d="M0 0 C1.98 0 3.96 0 6 0 C6 7.26 6 14.52 6 22 C-17.76 22 -41.52 22 -66 22 C-66 18.37 -66 14.74 -66 11 C-65.34 11 -64.68 11 -64 11 C-64 13.97 -64 16.94 -64 20 C-41.56 20 -19.12 20 4 20 C4 14.06 4 8.12 4 2 C2.68 2 1.36 2 0 2 C0 1.34 0 0.68 0 0 Z " fill="#1F1B21" transform="translate(412,92)"/>
<path d="M0 0 C8.58 0 17.16 0 26 0 C26 0.66 26 1.32 26 2 C18.08 2 10.16 2 2 2 C2 15.2 2 28.4 2 42 C-5.26 42 -12.52 42 -20 42 C-20 38.37 -20 34.74 -20 31 C-19.34 31 -18.68 31 -18 31 C-18 33.97 -18 36.94 -18 40 C-12.06 40 -6.12 40 0 40 C0 26.8 0 13.6 0 0 Z " fill="#1F1B21" transform="translate(196,72)"/>
<path d="M0 0 C7.59 0 15.18 0 23 0 C23 2.64 23 5.28 23 8 C15.41 8 7.82 8 0 8 C0 5.36 0 2.72 0 0 Z " fill="#1F1B21" transform="translate(199,35)"/>
<path d="M0 0 C1.98 0 3.96 0 6 0 C6 7.26 6 14.52 6 22 C-10.5 22 -27 22 -44 22 C-44 24.97 -44 27.94 -44 31 C-44.66 31 -45.32 31 -46 31 C-46 27.37 -46 23.74 -46 20 C-29.5 20 -13 20 4 20 C4 14.06 4 8.12 4 2 C2.68 2 1.36 2 0 2 C0 1.34 0 0.68 0 0 Z " fill="#1F1B21" transform="translate(412,12)"/>
<path d="M0 0 C11.88 0 23.76 0 36 0 C36 0.66 36 1.32 36 2 C24.78 2 13.56 2 2 2 C2 18.17 2 34.34 2 51 C1.34 51 0.68 51 0 51 C0 34.17 0 17.34 0 0 Z " fill="#1F1B21" transform="translate(106,32)"/>
<path d="M0 0 C1.98 0 3.96 0 6 0 C6 7.26 6 14.52 6 22 C-10.5 22 -27 22 -44 22 C-44 24.97 -44 27.94 -44 31 C-44.66 31 -45.32 31 -46 31 C-46 27.37 -46 23.74 -46 20 C-29.5 20 -13 20 4 20 C4 14.06 4 8.12 4 2 C2.68 2 1.36 2 0 2 C0 1.34 0 0.68 0 0 Z " fill="#1F1B21" transform="translate(72,12)"/>
<path d="M0 0 C0.99 0 1.98 0 3 0 C3 5.28 3 10.56 3 16 C-0.3 16 -3.6 16 -7 16 C-7 19.96 -7 23.92 -7 28 C-7.99 28 -8.98 28 -10 28 C-10 21.4 -10 14.8 -10 8 C-6.7 8 -3.4 8 0 8 C0 5.36 0 2.72 0 0 Z " fill="#1F1B21" transform="translate(242,35)"/>
<path d="M0 0 C1.98 0 3.96 0 6 0 C6 13.86 6 27.72 6 42 C-1.26 42 -8.52 42 -16 42 C-16 38.37 -16 34.74 -16 31 C-15.34 31 -14.68 31 -14 31 C-14 33.97 -14 36.94 -14 40 C-8.06 40 -2.12 40 4 40 C4 27.46 4 14.92 4 2 C2.68 2 1.36 2 0 2 C0 1.34 0 0.68 0 0 Z " fill="#1F1B21" transform="translate(242,72)"/>
<path d="M0 0 C1.98 0 3.96 0 6 0 C6 7.26 6 14.52 6 22 C-3.9 22 -13.8 22 -24 22 C-24 24.97 -24 27.94 -24 31 C-24.66 31 -25.32 31 -26 31 C-26 27.37 -26 23.74 -26 20 C-16.1 20 -6.2 20 4 20 C4 14.06 4 8.12 4 2 C2.68 2 1.36 2 0 2 C0 1.34 0 0.68 0 0 Z " fill="#1F1B21" transform="translate(392,52)"/>
<path d="M0 0 C1.98 0 3.96 0 6 0 C6 7.26 6 14.52 6 22 C2.7 22 -0.6 22 -4 22 C-4 24.97 -4 27.94 -4 31 C-4.66 31 -5.32 31 -6 31 C-6 27.37 -6 23.74 -6 20 C-2.7 20 0.6 20 4 20 C4 14.06 4 8.12 4 2 C2.68 2 1.36 2 0 2 C0 1.34 0 0.68 0 0 Z " fill="#1F1B21" transform="translate(242,32)"/>
<path d="M0 0 C8.58 0 17.16 0 26 0 C26 0.66 26 1.32 26 2 C18.08 2 10.16 2 2 2 C2 4.97 2 7.94 2 11 C1.34 11 0.68 11 0 11 C0 7.37 0 3.74 0 0 Z " fill="#1F1B21" transform="translate(196,32)"/>
<path d="M0 0 C0.66 0 1.32 0 2 0 C2 2.97 2 5.94 2 9 C3.32 9 4.64 9 6 9 C6 9.66 6 10.32 6 11 C4.02 11 2.04 11 0 11 C0 7.37 0 3.74 0 0 Z " fill="#1F1B21" transform="translate(256,83)"/>
<path d="M0 0 C0.66 0 1.32 0 2 0 C2 2.97 2 5.94 2 9 C3.32 9 4.64 9 6 9 C6 9.66 6 10.32 6 11 C4.02 11 2.04 11 0 11 C0 7.37 0 3.74 0 0 Z " fill="#1F1B21" transform="translate(86,83)"/>
<path d="M0 0 C1.98 0 3.96 0 6 0 C6 3.63 6 7.26 6 11 C5.34 11 4.68 11 4 11 C4 8.03 4 5.06 4 2 C2.68 2 1.36 2 0 2 C0 1.34 0 0.68 0 0 Z " fill="#1F1B21" transform="translate(232,12)"/>
<path d="M0 0 C1.98 0 3.96 0 6 0 C6 3.63 6 7.26 6 11 C5.34 11 4.68 11 4 11 C4 8.03 4 5.06 4 2 C2.68 2 1.36 2 0 2 C0 1.34 0 0.68 0 0 Z " fill="#1F1B21" transform="translate(152,12)"/>
<path d="M0 0 C0.99 0 1.98 0 3 0 C3 2.64 3 5.28 3 8 C2.01 8 1.02 8 0 8 C0 5.36 0 2.72 0 0 Z " fill="#1F1B21" transform="translate(259,83)"/>
<path d="M0 0 C0.99 0 1.98 0 3 0 C3 2.64 3 5.28 3 8 C2.01 8 1.02 8 0 8 C0 5.36 0 2.72 0 0 Z " fill="#1F1B21" transform="translate(89,83)"/>
<path d="M0 0 C0.99 0 1.98 0 3 0 C3 2.64 3 5.28 3 8 C2.01 8 1.02 8 0 8 C0 5.36 0 2.72 0 0 Z " fill="#1F1B21" transform="translate(232,15)"/>
<path d="M0 0 C0.99 0 1.98 0 3 0 C3 2.64 3 5.28 3 8 C2.01 8 1.02 8 0 8 C0 5.36 0 2.72 0 0 Z " fill="#1F1B21" transform="translate(152,15)"/>
</svg>
