<?xml version="1.0" encoding="UTF-8" standalone="no"?>
<svg
   xmlns:dc="http://purl.org/dc/elements/1.1/"
   xmlns:cc="http://creativecommons.org/ns#"
   xmlns:rdf="http://www.w3.org/1999/02/22-rdf-syntax-ns#"
   xmlns:svg="http://www.w3.org/2000/svg"
   xmlns="http://www.w3.org/2000/svg"
   xmlns:sodipodi="http://sodipodi.sourceforge.net/DTD/sodipodi-0.dtd"
   xmlns:inkscape="http://www.inkscape.org/namespaces/inkscape"
   version="1.0"
   width="200"
   height="200"
   viewBox="0 0 150.00001 150.00001"
   preserveAspectRatio="xMidYMid meet"
   id="svg8"
   sodipodi:docname="checkbox_off.svg"
   inkscape:version="0.92.5 (2060ec1f9f, 2020-04-08)">
  <defs
     id="defs12" />
  <sodipodi:namedview
     pagecolor="#ffffff"
     bordercolor="#666666"
     borderopacity="1"
     objecttolerance="10"
     gridtolerance="10"
     guidetolerance="10"
     inkscape:pageopacity="0"
     inkscape:pageshadow="2"
     inkscape:window-width="1848"
     inkscape:window-height="1016"
     id="namedview10"
     showgrid="false"
     inkscape:zoom="1.1071149"
     inkscape:cx="185.09858"
     inkscape:cy="180.54664"
     inkscape:window-x="72"
     inkscape:window-y="27"
     inkscape:window-maximized="1"
     inkscape:current-layer="svg8"
     units="px" />
  <metadata
     id="metadata2">
Created by potrace 1.15, written by Peter Selinger 2001-2017
<rdf:RDF>
  <cc:Work
     rdf:about="">
    <dc:format>image/svg+xml</dc:format>
    <dc:type
       rdf:resource="http://purl.org/dc/dcmitype/StillImage" />
    <dc:title></dc:title>
  </cc:Work>
</rdf:RDF>
</metadata>
  <path
     style="fill:#646464;fill-opacity:0.53809524;stroke:none;stroke-width:0.01176794"
     inkscape:connector-curvature="0"
     id="path4"
     d="m 124.61695,22.449128 -1.38861,-0.9179 c -3.38917,-2.247674 -7.62564,-4.001101 -11.6032,-4.801321 -3.74221,-0.753147 -1.2474,-0.706074 -36.139374,-0.706074 -32.973789,0 -32.385389,-0.01175 -35.303843,0.48248 -5.401482,0.906134 -10.92065,3.377408 -15.239491,6.825415 -1.2827,1.023807 -3.495074,3.236181 -4.518888,4.518888 -3.330328,4.189388 -5.260275,8.555296 -6.166408,14.050931 -0.176514,1.082654 -0.200054,4.048174 -0.235354,34.315329 -0.02356,21.605954 0.01175,33.656334 0.08237,34.656614 0.2942,3.81281 1.18856,7.06076 2.84784,10.41463 1.671054,3.3774 3.648068,6.02519 6.460609,8.64944 4.012868,3.76574 9.308443,6.51944 14.945291,7.80215 3.730434,0.84729 0.74138,0.78845 37.010194,0.78845 h 32.597224 l 1.64751,-0.2589 c 10.93243,-1.75342 19.61718,-7.88452 24.1243,-17.03998 1.29447,-2.63602 2.08292,-5.10729 2.61248,-8.2611 0.20006,-1.2121 0.21182,-2.91845 0.21182,-35.574503 0,-36.433564 0.0236,-34.821357 -0.54132,-37.480911 -0.90614,-4.283534 -2.94199,-8.508229 -5.84867,-12.144523 -0.92967,-1.176794 -1.05911,-1.36508 -0.87083,-1.30624 -2.39266,-2.572422 -3.03714,-2.815572 -4.68365,-4.012875 z m -16.18093,6.672429 c 0.71785,0.141213 1.75343,0.38834 2.30652,0.541326 5.93255,0.807559 7.57904,4.633969 9.74387,6.601816 0.69431,0.611933 2.02408,3.036134 2.60072,4.742481 0.76491,2.294754 0.71784,-0.164747 0.68254,36.79837 l -0.0353,33.53865 -0.31773,1.17679 c -0.18829,0.64724 -0.44718,1.471 -0.5884,1.82404 -1.75342,4.44828 -5.4721,8.07281 -10.19105,9.94391 -2.24768,0.8826 -4.10701,1.29448 -6.67242,1.471 -2.23591,0.15298 -59.110409,0.15298 -61.346316,0 -2.859614,-0.20006 -5.213201,-0.78846 -7.637402,-1.94172 -5.260268,-2.4948 -8.755349,-6.71949 -9.885076,-11.97977 -0.200053,-0.90613 -0.21182,-2.87138 -0.21182,-34.503613 0,-31.796996 0.01175,-33.585723 0.21182,-34.53893 0.447187,-2.118227 1.1768,-3.859881 2.388894,-5.672148 2.989061,-4.495355 8.331709,-7.578556 14.227451,-8.202256 0.517786,-0.05887 15.00413,-0.09415 32.185335,-0.08238 l 31.243904,0.02356 z"
     sodipodi:nodetypes="cccscccccccccsccccscccccccccccccccccscccccc" />
  <path
     style="opacity:1;fill:#646464;fill-opacity:0.10952382;stroke:none;stroke-width:0.88259602;stroke-miterlimit:4;stroke-dasharray:none;stroke-opacity:1"
     d="M 35.621275,77.416913 62.311856,93.18324 C 75.211886,76.311253 84.538836,63.47332 93.024546,54.13373 116.63568,28.1467 126.16801,24.743632 140.68953,14.646028 129.42694,28.434966 108.07913,51.684092 94.802576,72.651526 79.500026,96.81856 70.017086,118.12917 69.233436,118.76572 64.556756,116.29043 34.903428,78.311273 34.903428,78.311273 Z"
     id="rect842"
     inkscape:connector-curvature="0"
     sodipodi:nodetypes="ccscsccc" />
</svg>
