<?xml version="1.0" encoding="UTF-8" standalone="no"?><!DOCTYPE svg PUBLIC "-//W3C//DTD SVG 1.1//EN" "http://www.w3.org/Graphics/SVG/1.1/DTD/svg11.dtd"><svg width="100%" height="100%" viewBox="0 0 755 197" version="1.1" xmlns="http://www.w3.org/2000/svg" xmlns:xlink="http://www.w3.org/1999/xlink" xml:space="preserve" xmlns:serif="http://www.serif.com/" style="fill-rule:evenodd;clip-rule:evenodd;"><g><path id="path4902-9-3-3-3" d="M126.606,6.282c-33.046,0 -59.837,26.047 -59.837,58.18c0.433,40.014 42.201,89.467 59.837,115.042c18.231,-25.243 60.106,-74.588 59.834,-115.042c-0,-32.133 -26.788,-58.18 -59.834,-58.18Zm0.085,34.957c13.335,0 24.308,10.67 24.308,23.636c-0,12.966 -10.973,23.635 -24.308,23.635c-13.334,-0 -24.307,-10.669 -24.307,-23.635c0,-12.966 10.973,-23.636 24.307,-23.636Z" style="fill:#c85365;fill-rule:nonzero;stroke:#fff;stroke-width:3.05px;"/><path id="path4914-2-3-6-6" d="M232.178,177.283c-14.793,8.495 -31.487,12.875 -85.271,12.478c21.181,-38.02 38.839,-56.072 53.632,-64.567c14.794,-8.495 33.868,-3.721 42.605,10.663c8.736,14.384 3.827,32.931 -10.966,41.426Z" style="fill:#749b06;fill-rule:nonzero;stroke:#fff;stroke-width:3.05px;"/><path id="path4916-3-1-2-2" d="M21.576,177.335c14.793,8.495 31.486,12.875 85.271,12.478c-21.181,-38.02 -38.84,-56.072 -53.633,-64.567c-14.793,-8.495 -33.868,-3.721 -42.604,10.663c-8.737,14.384 -3.827,32.931 10.966,41.426Z" style="fill:#749b06;fill-rule:nonzero;stroke:#fff;stroke-width:3.05px;"/></g><g><g><path d="M305.623,12.677l13.735,-0l0,56.454l32.774,0l-0,13.261l-46.509,0l0,-69.715Z" style="fill:#749b06;fill-rule:nonzero;"/><path d="M390.212,47.629c-0,-4.799 0.915,-9.346 2.747,-13.64c1.831,-4.294 4.373,-8.098 7.625,-11.414c3.252,-3.315 7.025,-5.92 11.319,-7.814c4.294,-1.895 8.904,-2.842 13.829,-2.842c4.863,0 9.441,0.947 13.735,2.842c4.294,1.894 8.099,4.499 11.414,7.814c3.315,3.316 5.904,7.12 7.767,11.414c1.863,4.294 2.795,8.841 2.795,13.64c-0,4.926 -0.932,9.536 -2.795,13.83c-1.863,4.294 -4.452,8.067 -7.767,11.319c-3.315,3.252 -7.12,5.794 -11.414,7.625c-4.294,1.831 -8.872,2.747 -13.735,2.747c-4.925,-0 -9.535,-0.916 -13.829,-2.747c-4.294,-1.831 -8.067,-4.373 -11.319,-7.625c-3.252,-3.252 -5.794,-7.025 -7.625,-11.319c-1.832,-4.294 -2.747,-8.904 -2.747,-13.83Zm14.208,0c0,3.094 0.553,5.983 1.658,8.667c1.105,2.684 2.652,5.052 4.641,7.104c1.989,2.053 4.294,3.647 6.915,4.784c2.62,1.136 5.478,1.705 8.572,1.705c2.968,-0 5.731,-0.569 8.288,-1.705c2.558,-1.137 4.784,-2.731 6.678,-4.784c1.895,-2.052 3.379,-4.42 4.452,-7.104c1.074,-2.684 1.61,-5.573 1.61,-8.667c0,-3.157 -0.552,-6.094 -1.657,-8.809c-1.105,-2.715 -2.621,-5.099 -4.547,-7.151c-1.926,-2.053 -4.183,-3.647 -6.773,-4.784c-2.589,-1.137 -5.399,-1.705 -8.43,-1.705c-3.031,0 -5.841,0.568 -8.43,1.705c-2.589,1.137 -4.862,2.731 -6.82,4.784c-1.958,2.052 -3.473,4.436 -4.547,7.151c-1.073,2.715 -1.61,5.652 -1.61,8.809Z" style="fill:#749b06;fill-rule:nonzero;"/><path d="M554.779,76.614c-0.758,0.632 -2.163,1.484 -4.216,2.558c-2.052,1.073 -4.562,2.02 -7.53,2.841c-2.968,0.821 -6.252,1.2 -9.851,1.137c-5.494,-0.126 -10.404,-1.121 -14.729,-2.984c-4.326,-1.863 -7.989,-4.404 -10.988,-7.625c-3,-3.221 -5.289,-6.915 -6.867,-11.082c-1.579,-4.168 -2.368,-8.62 -2.368,-13.356c-0,-5.305 0.805,-10.167 2.415,-14.587c1.61,-4.421 3.915,-8.241 6.915,-11.462c2.999,-3.22 6.583,-5.715 10.751,-7.483c4.167,-1.768 8.777,-2.652 13.829,-2.652c4.673,0 8.809,0.632 12.409,1.895c3.599,1.262 6.535,2.62 8.809,4.073l-5.399,12.976c-1.579,-1.199 -3.679,-2.447 -6.299,-3.741c-2.621,-1.295 -5.636,-1.942 -9.046,-1.942c-2.653,0 -5.194,0.553 -7.625,1.658c-2.432,1.105 -4.579,2.668 -6.442,4.688c-1.862,2.021 -3.331,4.373 -4.404,7.057c-1.074,2.684 -1.61,5.605 -1.61,8.762c-0,3.347 0.489,6.41 1.468,9.188c0.979,2.779 2.384,5.162 4.215,7.152c1.831,1.989 4.026,3.52 6.583,4.594c2.558,1.073 5.447,1.61 8.667,1.61c3.726,-0 6.915,-0.6 9.567,-1.8c2.652,-1.2 4.673,-2.463 6.062,-3.789l5.684,12.314Z" style="fill:#749b06;fill-rule:nonzero;"/><path d="M597.508,82.392l31.448,-72.462l0.757,-0l31.448,72.462l-15.913,0l-20.081,-50.96l9.945,-6.82l-24.059,57.78l-13.545,0Zm21.502,-25.196l20.933,0l4.831,11.556l-30.027,0l4.263,-11.556Z" style="fill:#749b06;fill-rule:nonzero;"/><path d="M703.566,12.677l13.735,-0l-0,56.454l32.773,0l0,13.261l-46.508,0l-0,-69.715Z" style="fill:#749b06;fill-rule:nonzero;"/></g><g><path d="M353.439,183.295c-0.758,0.631 -2.163,1.484 -4.215,2.557c-2.052,1.074 -4.562,2.021 -7.53,2.842c-2.968,0.821 -6.252,1.2 -9.851,1.137c-5.494,-0.127 -10.404,-1.121 -14.73,-2.984c-4.325,-1.863 -7.988,-4.405 -10.987,-7.625c-3,-3.221 -5.289,-6.915 -6.868,-11.083c-1.578,-4.167 -2.368,-8.619 -2.368,-13.355c0,-5.305 0.805,-10.167 2.416,-14.587c1.61,-4.421 3.915,-8.241 6.914,-11.462c3,-3.22 6.584,-5.715 10.751,-7.483c4.168,-1.768 8.778,-2.652 13.83,-2.652c4.673,-0 8.809,0.631 12.408,1.894c3.6,1.263 6.536,2.621 8.809,4.073l-5.399,12.977c-1.578,-1.199 -3.678,-2.447 -6.299,-3.741c-2.62,-1.295 -5.636,-1.942 -9.046,-1.942c-2.652,0 -5.194,0.553 -7.625,1.658c-2.431,1.105 -4.578,2.668 -6.441,4.688c-1.863,2.021 -3.331,4.373 -4.404,7.057c-1.074,2.684 -1.611,5.605 -1.611,8.762c0,3.347 0.49,6.409 1.469,9.188c0.978,2.778 2.383,5.162 4.215,7.151c1.831,1.99 4.025,3.521 6.583,4.594c2.557,1.074 5.446,1.611 8.667,1.611c3.726,-0 6.915,-0.6 9.567,-1.8c2.652,-1.2 4.673,-2.463 6.062,-3.789l5.683,12.314Z" style="fill:#749b06;fill-rule:nonzero;"/><path d="M368.931,154.31c-0,-4.799 0.915,-9.346 2.747,-13.64c1.831,-4.294 4.373,-8.099 7.625,-11.414c3.252,-3.315 7.025,-5.92 11.319,-7.814c4.294,-1.895 8.904,-2.842 13.829,-2.842c4.863,-0 9.441,0.947 13.735,2.842c4.294,1.894 8.099,4.499 11.414,7.814c3.315,3.315 5.904,7.12 7.767,11.414c1.863,4.294 2.795,8.841 2.795,13.64c-0,4.926 -0.932,9.535 -2.795,13.829c-1.863,4.295 -4.452,8.068 -7.767,11.32c-3.315,3.252 -7.12,5.794 -11.414,7.625c-4.294,1.831 -8.872,2.747 -13.735,2.747c-4.925,-0 -9.535,-0.916 -13.829,-2.747c-4.294,-1.831 -8.067,-4.373 -11.319,-7.625c-3.252,-3.252 -5.794,-7.025 -7.625,-11.32c-1.832,-4.294 -2.747,-8.903 -2.747,-13.829Zm14.208,0c0,3.094 0.553,5.983 1.658,8.667c1.105,2.684 2.652,5.052 4.641,7.104c1.989,2.053 4.294,3.647 6.915,4.784c2.62,1.136 5.478,1.705 8.572,1.705c2.968,-0 5.731,-0.569 8.288,-1.705c2.558,-1.137 4.784,-2.731 6.678,-4.784c1.895,-2.052 3.378,-4.42 4.452,-7.104c1.074,-2.684 1.61,-5.573 1.61,-8.667c0,-3.157 -0.552,-6.094 -1.657,-8.809c-1.105,-2.715 -2.621,-5.099 -4.547,-7.152c-1.926,-2.052 -4.184,-3.646 -6.773,-4.783c-2.589,-1.137 -5.399,-1.705 -8.43,-1.705c-3.031,0 -5.841,0.568 -8.43,1.705c-2.589,1.137 -4.862,2.731 -6.82,4.783c-1.958,2.053 -3.473,4.437 -4.547,7.152c-1.073,2.715 -1.61,5.652 -1.61,8.809Z" style="fill:#749b06;fill-rule:nonzero;"/><path d="M499.844,136.218c-2.652,-1.452 -5.352,-2.652 -8.098,-3.599c-2.747,-0.947 -5.321,-1.421 -7.72,-1.421c-2.968,-0 -5.305,0.6 -7.01,1.8c-1.705,1.199 -2.557,2.999 -2.557,5.399c-0,1.642 0.647,3.11 1.942,4.404c1.294,1.295 2.968,2.447 5.02,3.458c2.052,1.01 4.183,1.926 6.394,2.747c2.02,0.757 4.025,1.657 6.014,2.699c1.99,1.042 3.774,2.337 5.352,3.884c1.579,1.547 2.842,3.473 3.789,5.778c0.947,2.305 1.421,5.131 1.421,8.477c-0,3.537 -0.916,6.82 -2.747,9.852c-1.831,3.031 -4.515,5.478 -8.051,7.34c-3.537,1.863 -7.894,2.795 -13.072,2.795c-2.652,-0 -5.352,-0.269 -8.099,-0.805c-2.747,-0.537 -5.446,-1.358 -8.098,-2.463c-2.653,-1.105 -5.21,-2.51 -7.673,-4.215l6.062,-10.704c1.642,1.2 3.426,2.258 5.352,3.173c1.926,0.916 3.868,1.626 5.825,2.132c1.958,0.505 3.758,0.757 5.4,0.757c1.641,0 3.299,-0.236 4.973,-0.71c1.673,-0.474 3.062,-1.279 4.167,-2.415c1.105,-1.137 1.658,-2.716 1.658,-4.737c-0,-1.389 -0.458,-2.652 -1.374,-3.788c-0.915,-1.137 -2.147,-2.179 -3.694,-3.126c-1.547,-0.947 -3.236,-1.768 -5.067,-2.463c-2.147,-0.821 -4.358,-1.768 -6.631,-2.842c-2.273,-1.073 -4.404,-2.383 -6.394,-3.931c-1.989,-1.547 -3.599,-3.473 -4.83,-5.778c-1.232,-2.305 -1.847,-5.13 -1.847,-8.477c-0,-4.042 0.899,-7.546 2.699,-10.514c1.8,-2.968 4.342,-5.321 7.625,-7.057c3.284,-1.737 7.073,-2.7 11.367,-2.889c5.62,-0 10.182,0.663 13.687,1.989c3.505,1.326 6.646,2.905 9.425,4.736l-5.21,10.514Z" style="fill:#749b06;fill-rule:nonzero;"/><path d="M527.017,189.073l-0,-72.557l0.095,0l38.741,54.939l-5.873,-1.326l38.647,-53.613l0.189,0l0,72.557l-13.735,-0l0,-41.583l0.853,7.104l-23.586,33.532l-0.189,-0l-24.249,-33.532l2.368,-6.536l-0,41.015l-13.261,-0Z" style="fill:#749b06;fill-rule:nonzero;"/><path d="M617.612,154.31c0,-4.799 0.916,-9.346 2.747,-13.64c1.831,-4.294 4.373,-8.099 7.625,-11.414c3.252,-3.315 7.025,-5.92 11.319,-7.814c4.294,-1.895 8.904,-2.842 13.83,-2.842c4.862,-0 9.44,0.947 13.734,2.842c4.295,1.894 8.099,4.499 11.414,7.814c3.316,3.315 5.905,7.12 7.768,11.414c1.862,4.294 2.794,8.841 2.794,13.64c-0,4.926 -0.932,9.535 -2.794,13.829c-1.863,4.295 -4.452,8.068 -7.768,11.32c-3.315,3.252 -7.119,5.794 -11.414,7.625c-4.294,1.831 -8.872,2.747 -13.734,2.747c-4.926,-0 -9.536,-0.916 -13.83,-2.747c-4.294,-1.831 -8.067,-4.373 -11.319,-7.625c-3.252,-3.252 -5.794,-7.025 -7.625,-11.32c-1.831,-4.294 -2.747,-8.903 -2.747,-13.829Zm14.208,0c0,3.094 0.553,5.983 1.658,8.667c1.105,2.684 2.652,5.052 4.641,7.104c1.99,2.053 4.294,3.647 6.915,4.784c2.621,1.136 5.478,1.705 8.572,1.705c2.968,-0 5.731,-0.569 8.289,-1.705c2.557,-1.137 4.783,-2.731 6.677,-4.784c1.895,-2.052 3.379,-4.42 4.452,-7.104c1.074,-2.684 1.611,-5.573 1.611,-8.667c-0,-3.157 -0.553,-6.094 -1.658,-8.809c-1.105,-2.715 -2.621,-5.099 -4.547,-7.152c-1.926,-2.052 -4.183,-3.646 -6.772,-4.783c-2.589,-1.137 -5.399,-1.705 -8.43,-1.705c-3.032,0 -5.842,0.568 -8.431,1.705c-2.589,1.137 -4.862,2.731 -6.82,4.783c-1.957,2.053 -3.473,4.437 -4.546,7.152c-1.074,2.715 -1.611,5.652 -1.611,8.809Z" style="fill:#749b06;fill-rule:nonzero;"/><path d="M748.979,136.218c-2.652,-1.452 -5.352,-2.652 -8.099,-3.599c-2.747,-0.947 -5.32,-1.421 -7.72,-1.421c-2.968,-0 -5.304,0.6 -7.009,1.8c-1.705,1.199 -2.558,2.999 -2.558,5.399c0,1.642 0.648,3.11 1.942,4.404c1.295,1.295 2.968,2.447 5.02,3.458c2.053,1.01 4.184,1.926 6.394,2.747c2.021,0.757 4.026,1.657 6.015,2.699c1.989,1.042 3.773,2.337 5.352,3.884c1.578,1.547 2.841,3.473 3.789,5.778c0.947,2.305 1.42,5.131 1.42,8.477c0,3.537 -0.915,6.82 -2.746,9.852c-1.832,3.031 -4.516,5.478 -8.052,7.34c-3.536,1.863 -7.893,2.795 -13.071,2.795c-2.653,-0 -5.352,-0.269 -8.099,-0.805c-2.747,-0.537 -5.447,-1.358 -8.099,-2.463c-2.652,-1.105 -5.21,-2.51 -7.672,-4.215l6.062,-10.704c1.642,1.2 3.426,2.258 5.352,3.173c1.926,0.916 3.867,1.626 5.825,2.132c1.958,0.505 3.757,0.757 5.399,0.757c1.642,0 3.3,-0.236 4.973,-0.71c1.673,-0.474 3.063,-1.279 4.168,-2.415c1.105,-1.137 1.657,-2.716 1.657,-4.737c0,-1.389 -0.457,-2.652 -1.373,-3.788c-0.916,-1.137 -2.147,-2.179 -3.694,-3.126c-1.547,-0.947 -3.236,-1.768 -5.068,-2.463c-2.147,-0.821 -4.357,-1.768 -6.63,-2.842c-2.274,-1.073 -4.405,-2.383 -6.394,-3.931c-1.989,-1.547 -3.599,-3.473 -4.831,-5.778c-1.231,-2.305 -1.847,-5.13 -1.847,-8.477c0,-4.042 0.9,-7.546 2.7,-10.514c1.799,-2.968 4.341,-5.321 7.625,-7.057c3.283,-1.737 7.072,-2.7 11.366,-2.889c5.621,-0 10.183,0.663 13.688,1.989c3.504,1.326 6.646,2.905 9.424,4.736l-5.209,10.514Z" style="fill:#749b06;fill-rule:nonzero;"/></g></g></svg>