<?xml version="1.0" encoding="UTF-8" standalone="no"?>
<!-- Created with Inkscape (http://www.inkscape.org/) -->

<svg
   width="24"
   height="24"
   viewBox="0 0 0.024 0.024"
   version="1.1"
   id="svg414"
   inkscape:version="1.2.1 (9c6d41e410, 2022-07-14)"
   sodipodi:docname="icon set 24 px.svg"
   inkscape:export-filename="icon-microscope.svg"
   inkscape:export-xdpi="96"
   inkscape:export-ydpi="96"
   xmlns:inkscape="http://www.inkscape.org/namespaces/inkscape"
   xmlns:sodipodi="http://sodipodi.sourceforge.net/DTD/sodipodi-0.dtd"
   xmlns="http://www.w3.org/2000/svg"
   xmlns:svg="http://www.w3.org/2000/svg">
  <sodipodi:namedview
     id="namedview416"
     pagecolor="#ffffff"
     bordercolor="#000000"
     borderopacity="0.25"
     inkscape:showpageshadow="2"
     inkscape:pageopacity="0.0"
     inkscape:pagecheckerboard="false"
     inkscape:deskcolor="#c4c4c4"
     inkscape:document-units="px"
     showgrid="false"
     showguides="false"
     inkscape:zoom="23.29046"
     inkscape:cx="-1.7603774"
     inkscape:cy="6.3760011"
     inkscape:window-width="1920"
     inkscape:window-height="992"
     inkscape:window-x="-8"
     inkscape:window-y="-8"
     inkscape:window-maximized="1"
     inkscape:current-layer="layer1">
    <sodipodi:guide
       position="0.022004718,0.026855246"
       orientation="1,0"
       id="guide535"
       inkscape:locked="false" />
    <sodipodi:guide
       position="0.0019886037,0.026595811"
       orientation="1,0"
       id="guide537"
       inkscape:locked="false" />
    <sodipodi:guide
       position="-0.0012903154,0.022011396"
       orientation="0,-1"
       id="guide539"
       inkscape:locked="false" />
    <sodipodi:guide
       position="-0.0012903154,0.0020039183"
       orientation="0,-1"
       id="guide541"
       inkscape:locked="false" />
    <sodipodi:guide
       position="0.011992343,-0.0018822079"
       orientation="1,0"
       id="guide572"
       inkscape:locked="false" />
    <sodipodi:guide
       position="-0.0012144144,0.012007657"
       orientation="0,-1"
       id="guide574"
       inkscape:locked="false" />
    <sodipodi:guide
       position="0.017487568,0.018626216"
       orientation="0,-1"
       id="guide1627"
       inkscape:locked="false" />
  </sodipodi:namedview>
  <defs
     id="defs411" />
  <g
     inkscape:label="Ebene 1"
     inkscape:groupmode="layer"
     id="layer1">
    <path
       id="path1361"
       style="fill:none;stroke:#000000;stroke-width:0.00181744"
       inkscape:label="Circle"
       d="M 0.02109409,0.01201212 A 0.00908719,0.00908719 0 0 1 0.01200691,0.02109931 0.00908719,0.00908719 0 0 1 0.00291972,0.01201212 0.00908719,0.00908719 0 0 1 0.01200691,0.00292493 0.00908719,0.00908719 0 0 1 0.02109409,0.01201212 Z" />
    <g
       id="g1418"
       inkscape:label="see"
       style="display:inline"
       transform="matrix(5.0713347e-4,0,0,5.0713347e-4,-1.8233102e-4,-1.1225356e-4)">
      <path
         style="display:inline;opacity:1;fill:#000000;fill-opacity:1;stroke:none;stroke-width:0.257561;stroke-dasharray:none"
         d="m 24,19.544922 a 4.4670682,4.4670682 0 0 0 -0.865234,0.0918 2.6796944,2.6796944 0 0 1 1.642578,2.46875 2.6796944,2.6796944 0 0 1 -2.679688,2.679687 2.6796944,2.6796944 0 0 1 -2.470703,-1.662109 4.4670682,4.4670682 0 0 0 -0.09375,0.890625 A 4.4670682,4.4670682 0 0 0 24,28.480469 4.4670682,4.4670682 0 0 0 28.466797,24.013672 4.4670682,4.4670682 0 0 0 24,19.544922 Z"
         id="circle1414"
         inkscape:label="pupil" />
      <path
         id="path1623"
         style="display:inline;opacity:1;fill:none;stroke:#000000;stroke-width:1.85245"
         d="m 31.901745,23.980125 c 0,4.364882 -3.538435,7.903317 -7.903317,7.903317 -4.364881,0 -7.903316,-3.538436 -7.903316,-7.903317 0,-4.364881 3.538435,-7.903316 7.903316,-7.903316 4.364881,0 7.903317,3.538435 7.903317,7.903316 z m -21.226039,-0.05633 c 3.19e-4,-0.245915 -0.09149,-0.316285 0.05712,-0.520573 5.351428,-12.50766 21.348158,-12.478544 26.512071,0.248128 0.04873,0.120106 0.02251,0.20122 0.02215,0.318428 -3.76e-4,0.119473 -0.07648,0.216847 -0.154066,0.323619 -7.46169,10.269196 -19.020366,10.351725 -26.153671,0.153218 -0.124844,-0.17849 -0.283858,-0.324558 -0.283601,-0.52282 z m 21.226039,0.05633 a 7.9033165,7.9033165 0 0 1 -7.903317,7.903317 7.9033165,7.9033165 0 0 1 -7.903316,-7.903317 7.9033165,7.9033165 0 0 1 7.903316,-7.903316 7.9033165,7.9033165 0 0 1 7.903317,7.903316 z m -21.226039,-0.05633 c 3.19e-4,-0.245915 0.204838,-0.443281 0.353446,-0.647569 7.184106,-9.875808 18.64404,-9.928347 26.08875,0.375124 0.07591,0.105065 0.149511,0.20122 0.149142,0.318428 -3.76e-4,0.119473 -0.07648,0.216847 -0.154066,0.323619 -7.46169,10.269196 -19.020366,10.351725 -26.153671,0.153218 -0.124844,-0.17849 -0.283858,-0.324558 -0.283601,-0.52282 z"
         inkscape:label="eyelids" />
    </g>
  </g>
</svg>
