<svg xmlns="http://www.w3.org/2000/svg" width="24" height="24" viewBox="0 0 24 24">
<path d="M13.8105 2.85512C13.9805 2.55512 13.8105 2.15512 13.4605 2.11512C10.8405 1.74512 8.16048 2.39512 6.02048 3.97512C5.83048 4.12512 5.77048 4.40512 5.90048 4.62512L8.91048 9.84512C9.10048 10.1751 9.58048 10.1751 9.78048 9.84512L13.8105 2.85512ZM21.3005 8.32512C20.3205 5.85512 18.3805 3.86512 15.9505 2.82512C15.7205 2.72512 15.4505 2.82512 15.3205 3.04512L12.3105 8.25512C12.1205 8.57512 12.3605 8.99512 12.7505 8.99512H20.8305C21.1805 8.99512 21.4305 8.64512 21.3005 8.32512ZM21.3705 9.99512H15.1705C14.7905 9.99512 14.5405 10.4151 14.7405 10.7451L19.0005 18.1351C19.1705 18.4351 19.6005 18.4851 19.8205 18.2151C21.5605 16.0351 22.3005 13.1851 21.8705 10.4251C21.8405 10.1751 21.6205 9.99512 21.3705 9.99512ZM4.18048 5.78512C2.45048 7.97512 1.70048 10.8051 2.13048 13.5751C2.16048 13.8151 2.38048 13.9951 2.63048 13.9951H8.83048C9.21048 13.9951 9.46048 13.5751 9.26048 13.2451L5.00048 5.86512C4.82048 5.56512 4.39048 5.51512 4.18048 5.78512ZM2.70048 15.6651C3.68048 18.1351 5.62048 20.1251 8.05048 21.1651C8.28048 21.2651 8.55048 21.1651 8.68048 20.9451L11.6905 15.7351C11.8805 15.4051 11.6405 14.9851 11.2605 14.9851H3.17048C2.82048 14.9951 2.57048 15.3451 2.70048 15.6651ZM10.5305 21.8851C13.1505 22.2551 15.8305 21.6051 17.9705 20.0251C18.1705 19.8751 18.2305 19.5851 18.1005 19.3651L15.0905 14.1451C14.9005 13.8151 14.4205 13.8151 14.2205 14.1451L10.1805 21.1351C10.0105 21.4351 10.1905 21.8351 10.5305 21.8851Z"/>
</svg>