<?xml version="1.0" standalone="no"?>
<!DOCTYPE svg PUBLIC "-//W3C//DTD SVG 20010904//EN"
 "http://www.w3.org/TR/2001/REC-SVG-20010904/DTD/svg10.dtd">
<svg version="1.0" xmlns="http://www.w3.org/2000/svg"
 width="512.000000pt" height="512.000000pt" viewBox="0 0 512.000000 512.000000"
 preserveAspectRatio="xMidYMid meet">
<metadata>
Created by potrace 1.14, written by Peter Selinger 2001-2017
</metadata>
<g transform="translate(0.000000,512.000000) scale(0.100000,-0.100000)"
fill="#000000" stroke="none">
<path d="M1235 5098 c-54 -28 -60 -35 -375 -432 l-275 -346 -25 28 c-14 16
-34 40 -45 53 -119 143 -151 177 -186 201 -39 26 -52 30 -111 31 -126 3 -230
-115 -213 -239 9 -68 19 -85 130 -219 22 -26 45 -53 50 -59 6 -6 34 -39 62
-73 28 -34 56 -68 62 -75 6 -7 19 -23 29 -34 80 -99 122 -140 161 -157 75 -33
166 -21 226 31 16 14 88 100 152 182 16 21 81 101 101 125 10 11 39 48 65 82
26 34 53 68 60 75 7 7 35 42 62 78 28 35 58 73 67 85 131 158 284 358 296 385
18 43 17 118 -2 163 -47 113 -189 170 -291 115z"/>
<path d="M2152 4629 c-76 -38 -122 -112 -122 -197 0 -93 57 -176 142 -204 62
-22 2779 -20 2818 1 36 19 89 72 106 103 26 51 29 130 5 184 -29 64 -46 82
-106 110 l-50 24 -1375 0 c-1375 0 -1376 0 -1418 -21z"/>
<path d="M1270 3227 c-36 -9 -96 -49 -116 -77 -7 -8 -121 -152 -255 -320 -289
-361 -269 -336 -295 -368 l-22 -26 -25 29 c-14 17 -65 77 -114 135 -60 72
-102 112 -133 128 -150 75 -330 -55 -307 -223 7 -46 26 -92 49 -117 16 -16
245 -289 312 -372 95 -116 144 -147 231 -142 89 5 121 31 255 198 67 84 135
169 150 188 15 19 96 121 179 225 84 105 165 206 180 225 171 211 188 242 178
338 -6 52 -35 106 -77 140 -45 37 -130 55 -190 39z"/>
<path d="M2186 2755 c-127 -32 -193 -174 -138 -298 23 -53 53 -83 107 -108 38
-18 96 -19 1419 -19 l1379 0 44 22 c99 49 144 160 109 266 -18 52 -60 99 -116
128 -33 18 -96 18 -1398 19 -951 0 -1376 -3 -1406 -10z"/>
<path d="M186 1316 c-29 -15 -48 -34 -64 -66 l-22 -44 2 -552 c3 -540 3 -553
24 -580 11 -15 33 -37 48 -48 27 -21 39 -21 590 -23 l563 -3 33 23 c18 12 43
35 54 50 21 28 21 36 21 595 l0 567 -23 33 c-50 69 -27 66 -636 67 -536 1
-551 1 -590 -19z m942 -647 l-3 -360 -307 0 c-170 0 -330 1 -358 1 l-50 0 0
360 0 360 360 0 360 0 -2 -361z"/>
<path d="M2175 873 c-161 -56 -200 -263 -70 -371 20 -16 53 -34 74 -41 28 -8
409 -11 1402 -11 1338 0 1365 1 1408 20 61 28 107 82 121 142 26 108 -19 206
-118 254 -35 18 -101 19 -1408 19 -1105 1 -1379 -1 -1409 -12z"/>
</g>
</svg>
