<svg xmlns="http://www.w3.org/2000/svg" viewBox="0 0 16 16">
  <g transform="translate(2, 2) scale(0.75)">
    <path fill="#616161" d="M15.7 1.84v.72c0 .54-.83.87-1.49 1.08-1.49.47-3.83.73-6.24.73-1.87 0-4.03-.14-5.9-.59C1.5 3.64.02 3.22 0 2.56v-.73c.03-.62 1.27-1.03 2.33-1.28C4 .19 6.29 0 8.37.05c2.1.04 4.17.22 6.01.79.47.17 1.29.49 1.32 1zm0 1.47v.7L13.1 14.74c-.09.38-.36.59-1.18.82-.87.25-2.2.44-4.06.45-1.85 0-3.03-.18-3.86-.36-.65-.17-1.29-.36-1.44-.85L0 4.02v-.71c.23.44 1.06.77 1.93 1 1.94.47 4.03.62 6.13.61 2.01-.03 4.2-.15 6.16-.74.74-.23 1.31-.53 1.48-.87z"/>
  </g>
</svg>
