<svg xmlns="http://www.w3.org/2000/svg" width="24" height="24" viewBox="0 0 24 24">
  <g transform="translate(-4.7, 27.6) scale(0.001575, -0.001575)" fill="#616161" class="jp-icon3">
    <path d="M11474 17356 c-3 -8 -18 -19 -33 -26 -33 -13 -63 -51 -94 -118 l-22 -47 2 -789 3 -789 25 -43 c26 -44 75 -88 135 -120 33 -18 73 -19 822 -22 519 -2 801 1 826 8 61 16 128 75 159 139 l28 56 3 770 c2 631 0 775 -11 796 -8 14 -17 38 -21 54 -11 42 -41 80 -92 115 l-45 30 -840 0 c-713 0 -840 -2 -845 -14z"/>
    <path d="M5875 16626 c-71 -26 -150 -101 -165 -156 -6 -21 -10 -338 -10 -811 0 -865 -2 -835 69 -908 22 -23 59 -47 94 -60 57 -21 65 -21 831 -21 769 0 775 0 831 22 72 27 135 95 159 171 15 49 17 121 14 813 l-3 759 -32 66 c-39 79 -50 90 -130 123 l-62 26 -768 -1 c-766 -1 -768 -1 -828 -23z"/>
    <path d="M9032 15229 c-48 -24 -93 -74 -122 -137 -20 -42 -20 -57 -18 -835 3 -896 -1 -845 81 -907 95 -72 65 -70 916 -70 734 0 764 1 819 20 40 14 70 34 103 67 39 42 47 57 58 113 16 86 10 1535 -7 1594 -14 51 -58 104 -117 141 l-48 30 -811 3 c-810 2 -811 2 -854 -19z"/>
    <path d="M8140 14349 c-639 -61 -1135 -138 -1655 -255 -466 -105 -555 -129 -705 -184 -47 -17 -141 -49 -210 -70 -112 -35 -270 -96 -387 -150 -24 -11 -46 -20 -49 -20 -7 0 -164 -79 -284 -143 -74 -39 -205 -125 -326 -212 -74 -54 -242 -220 -296 -292 -119 -162 -188 -365 -188 -558 0 -33 14 -143 30 -245 17 -102 37 -234 46 -295 8 -60 40 -261 69 -445 30 -184 77 -486 105 -670 28 -184 62 -400 75 -480 14 -80 40 -246 60 -370 19 -124 44 -277 55 -340 11 -63 35 -221 55 -350 72 -479 88 -580 121 -780 18 -113 47 -279 63 -370 16 -91 34 -199 40 -240 34 -225 76 -496 116 -740 24 -151 60 -385 80 -520 20 -135 52 -337 71 -450 20 -113 44 -257 54 -320 10 -63 39 -243 65 -400 25 -157 54 -343 65 -415 19 -128 91 -590 130 -835 28 -173 52 -245 109 -331 126 -191 418 -398 761 -539 116 -48 368 -141 435 -160 33 -9 101 -29 150 -43 336 -97 653 -159 1155 -226 585 -79 1525 -120 2065 -90 77 4 268 15 425 23 362 20 906 86 1190 146 455 95 500 107 860 218 271 84 600 236 776 359 85 59 222 180 276 244 84 99 122 198 143 373 8 67 19 137 25 156 16 57 14 64 -17 43 -57 -39 -335 -148 -563 -221 -266 -84 -684 -157 -1000 -174 -338 -17 -760 13 -1070 78 -883 184 -1708 660 -2304 1329 -84 94 -181 208 -217 255 -86 112 -279 400 -314 470 -15 30 -42 80 -61 110 -56 92 -201 419 -260 587 -143 407 -227 867 -238 1303 -15 625 135 1316 411 1900 183 385 398 707 707 1058 109 123 334 347 400 397 l40 30 -105 5 -104 5 0 690 c0 611 -2 694 -16 725 -24 52 -65 97 -118 128 l-46 27 -800 2 -800 3 -72 -35 c-66 -32 -74 -40 -99 -90 -41 -85 -47 -182 -41 -747 3 -373 2 -508 -7 -508 -83 0 -701 137 -901 200 -33 10 -123 38 -200 61 -224 67 -587 217 -684 281 -24 16 -69 42 -100 58 -70 36 -116 68 -209 145 -54 45 -72 65 -72 84 0 50 171 192 345 286 200 108 278 147 331 165 32 11 68 27 79 34 12 8 96 40 186 71 138 47 251 81 649 195 19 5 69 16 110 24 41 9 122 26 180 40 382 89 1152 196 1526 212 l161 7 -1 403 -1 404 -45 -1 c-25 -1 -128 -10 -230 -20z"/>
    <path d="M11340 13913 l0 -389 104 -12 c57 -6 132 -18 167 -26 35 -8 138 -29 229 -46 339 -64 427 -82 520 -105 52 -13 151 -38 220 -54 69 -17 179 -46 245 -66 66 -20 158 -47 204 -60 46 -13 94 -31 107 -40 13 -8 30 -15 38 -15 8 0 67 -21 133 -46 65 -25 135 -52 157 -60 70 -26 240 -107 285 -136 25 -15 49 -28 54 -28 14 0 196 -123 261 -176 69 -57 92 -87 101 -131 6 -29 3 -34 -42 -64 -26 -18 -68 -49 -93 -70 -81 -66 -306 -193 -430 -243 l-45 -18 58 -24 c106 -45 381 -190 477 -252 150 -97 371 -253 420 -298 25 -22 72 -60 105 -84 33 -24 86 -70 118 -103 32 -32 60 -57 62 -55 2 1 28 156 59 343 31 187 66 394 78 460 24 134 36 339 27 460 -6 84 -52 243 -94 324 -92 182 -307 394 -538 531 -45 27 -101 63 -124 80 -56 40 -454 230 -483 230 -6 0 -25 7 -43 17 -187 96 -957 317 -1392 398 -77 14 -153 30 -170 35 -16 5 -79 16 -140 25 -60 8 -148 22 -195 30 -108 18 -285 43 -372 51 l-68 7 0 -390z"/>
    <path d="M10850 12769 c-148 -3 -259 -10 -281 -17 -47 -16 -107 -75 -131 -129 -15 -34 -21 -77 -25 -186 -3 -79 -3 -163 1 -189 l7 -45 167 49 c443 130 712 182 1017 196 203 10 642 5 738 -7 l57 -8 0 48 c0 93 -19 148 -68 202 -90 95 -49 90 -682 91 -305 1 -665 -2 -800 -5z"/>
    <path d="M11690 11993 c-92 -5 -388 -42 -503 -64 -97 -18 -350 -86 -512 -137 -255 -82 -706 -317 -943 -494 -53 -39 -120 -89 -149 -110 -150 -110 -499 -464 -652 -662 -89 -115 -251 -346 -251 -358 0 -4 -17 -34 -37 -65 -38 -59 -179 -346 -228 -463 -88 -210 -192 -575 -235 -831 -80 -465 -64 -948 44 -1394 79 -325 95 -379 142 -495 25 -63 57 -146 70 -185 14 -38 46 -108 73 -155 27 -47 61 -109 75 -138 34 -68 165 -286 227 -377 124 -184 456 -541 674 -726 268 -227 516 -385 830 -531 193 -90 536 -210 708 -249 161 -36 468 -89 586 -100 179 -18 617 -6 769 20 217 37 474 91 567 118 362 105 829 332 1111 541 l84 62 221 -221 220 -221 -7 -92 c-4 -67 -2 -115 10 -180 20 -101 44 -158 112 -253 30 -42 392 -412 948 -967 934 -932 953 -949 1113 -1030 110 -55 294 -76 453 -51 169 26 304 100 443 244 74 77 93 105 141 202 67 140 79 195 80 379 1 139 0 149 -32 240 -37 106 -54 137 -126 230 -62 81 -1818 1829 -1895 1887 -31 24 -90 57 -131 75 -70 30 -84 33 -213 36 l-137 4 -220 221 c-121 122 -220 226 -220 232 0 6 39 65 88 132 247 345 421 715 552 1175 52 180 65 245 96 468 55 400 42 841 -37 1225 -47 231 -158 596 -229 750 -57 125 -123 258 -169 340 -25 44 -56 102 -69 130 -50 102 -318 467 -427 580 -181 189 -258 264 -350 343 -55 46 -107 92 -115 102 -52 57 -358 259 -545 358 -211 113 -246 129 -425 200 -521 205 -1008 284 -1580 255z m405 -898 c249 -22 343 -41 658 -130 65 -19 155 -52 200 -74 45 -22 123 -57 172 -78 130 -56 352 -194 507 -314 125 -98 283 -247 446 -423 140 -151 362 -509 444 -716 113 -285 172 -490 210 -735 20 -130 23 -186 23 -415 0 -158 -6 -301 -13 -355 -20 -140 -50 -292 -76 -380 -13 -44 -27 -93 -30 -110 -22 -97 -161 -411 -253 -570 -217 -374 -548 -723 -909 -960 -198 -131 -492 -276 -692 -342 -316 -104 -519 -136 -872 -137 -251 -1 -358 9 -550 50 -333 71 -557 156 -850 321 -101 57 -182 111 -360 239 -68 49 -348 312 -394 370 -175 219 -227 290 -293 397 -303 490 -458 1084 -423 1624 18 288 54 465 156 771 145 434 362 791 664 1092 265 265 450 401 765 565 385 201 790 303 1280 323 17 1 102 -5 190 -13z"/>
    <path d="M11990 10060 c-19 -5 -87 -19 -150 -30 -63 -12 -205 -41 -315 -66 -110 -25 -299 -65 -420 -90 -233 -47 -327 -68 -520 -115 -66 -16 -202 -45 -302 -66 -101 -20 -183 -39 -183 -43 0 -4 93 -35 208 -69 114 -35 270 -85 347 -111 436 -148 716 -239 899 -293 l140 -40 130 32 c72 17 160 36 196 42 36 5 137 27 225 48 88 22 273 64 410 96 138 31 286 65 330 75 204 48 429 100 522 120 98 22 133 34 123 43 -8 7 -300 104 -490 162 -96 30 -260 81 -365 114 -632 197 -699 214 -785 191z"/>
    <path d="M10024 9448 c29 -46 82 -145 268 -498 92 -174 198 -371 221 -412 14 -24 50 -90 80 -148 74 -143 188 -356 284 -530 44 -80 98 -181 120 -225 22 -44 59 -116 83 -160 24 -44 60 -111 80 -150 21 -38 63 -117 95 -175 32 -58 65 -120 72 -139 8 -19 41 -78 73 -130 31 -53 89 -159 129 -236 146 -288 249 -468 262 -460 4 3 3 21 -1 41 -5 19 -8 68 -9 107 0 40 -9 185 -20 322 -11 138 -27 349 -36 470 -8 121 -24 326 -35 455 -11 129 -29 363 -40 520 -36 522 -42 604 -54 740 l-11 134 -40 23 c-22 13 -65 30 -95 39 -60 17 -362 112 -475 149 -38 13 -140 46 -225 73 -85 28 -288 93 -451 146 -162 53 -298 96 -302 96 -4 0 8 -24 27 -52z"/>
    <path d="M13675 9419 c-33 -10 -69 -23 -80 -28 -11 -5 -112 -29 -225 -51 -113 -23 -248 -52 -300 -65 -52 -12 -142 -32 -200 -45 -157 -32 -397 -87 -555 -125 -77 -19 -221 -52 -320 -75 -99 -22 -190 -45 -203 -50 -22 -10 -23 -13 -18 -93 4 -45 13 -194 21 -332 23 -379 35 -550 46 -660 15 -159 67 -852 79 -1060 5 -104 14 -239 20 -300 5 -60 12 -163 16 -228 3 -64 9 -119 13 -121 4 -3 31 37 60 87 29 51 77 135 107 187 30 52 85 156 123 230 38 74 90 170 115 213 26 43 67 120 93 170 25 51 58 111 74 134 16 22 50 85 77 140 26 54 86 163 132 243 45 80 93 163 105 185 12 22 60 108 105 190 46 83 123 227 173 320 49 94 97 184 107 200 10 17 36 64 57 105 22 41 64 118 95 171 31 53 93 167 138 255 46 87 86 164 90 169 23 32 128 245 122 249 -4 2 -34 -4 -67 -15z"/>
  </g>
</svg>
