<svg xmlns="http://www.w3.org/2000/svg" viewBox="0 0 16 16">
  <g transform="translate(2, 2) scale(0.75)" fill="#616161">
    <g transform="translate(-5.5, 20.5) scale(0.0075, -0.0062)">
      <path transform="translate(0, 150)" d="M1565 3133 c-77 -6 -241 -34 -325 -54 -333 -81 -488 -233 -389 -382 99 -150 433 -250 875 -264 535 -17 990 118 1054 312 37 113 -91 234 -325 308 -105 33 -265 64 -394 77 -95 9 -402 11 -496 3z"/>
      <path transform="translate(0, 50)" d="M820 2399 l0 -235 33 -31 c86 -82 296 -149 587 -188 153 -21 527 -24 680 -6 296 35 528 105 633 191 l37 31 0 235 c0 135 -4 234 -9 234 -5 0 -11 -4 -13 -8 -1 -4 -21 -22 -43 -39 -197 -156 -699 -244 -1155 -203 -324 30 -607 117 -717 223 l-33 31 0 -235z"/>
      <path transform="translate(0, -50)" d="M820 1875 l0 -195 43 -31 c151 -111 461 -183 842 -196 457 -15 906 74 1047 207 l38 37 0 186 c0 103 -3 187 -6 187 -3 0 -33 -15 -67 -34 -163 -90 -435 -150 -754 -165 -439 -22 -874 47 -1086 171 -26 15 -50 28 -52 28 -3 0 -5 -88 -5 -195z"/>
      <path transform="translate(0, -150)" d="M820 1420 c0 -159 2 -185 19 -219 66 -128 334 -232 693 -271 123 -13 426 -13 543 0 305 34 534 111 642 215 67 66 74 94 71 295 l-3 160 -39 -26 c-93 -63 -330 -131 -576 -166 -147 -20 -623 -17 -775 6 -229 33 -440 97 -536 161 l-39 25 0 -180z"/>
    </g>
  </g>
</svg>
