<svg xmlns="http://www.w3.org/2000/svg" viewBox="0 0 1933.68 174.97" preserveAspectRatio="xMinYMin meet" role="img" aria-labelledby="fr en">
  <g style="fill: #f00">
    <rect x="0" y="14.33" width="70.69" height="143.12"/>
    <rect x="212.06" y="14.33" width="70.69" height="143.12"/>
    <path d="m131.93,49.23l9.55-19.8,9.48,19.08c1.18,2.01,2.14,1.85,4.03.89l8.16-4.1-5.3,26.63c-1.11,5.23,1.81,6.76,4.99,3.22l11.63-12.64,3.09,7.15c1.04,2.16,2.6,1.85,4.67,1.46l12.01-2.57-4.03,15.44s-1.42,4.03.8,5.01l4.27,2.16-24.85,21.31c-2.52,2.64-1.65,3.46-.7,6.43l2.29,7.15-23.09-4.25c-2.85-.72-4.83-.72-4.9,1.61l.94,26.95h-6.94l.95-26.88c0-2.65-1.98-2.57-6.65-1.59l-21.42,4.18,2.76-7.15c.95-2.74,1.2-4.59-.95-6.43l-25.23-21.02,4.67-2.9c1.35-1.06,1.42-2.17.71-4.51l-4.74-15.62,12.17,2.64c3.4.82,4.34,0,5.21-1.84l3.4-7.09,12.03,13.68c2.12,2.57,5.14.89,4.19-2.81l-5.78-28.88,8.94,5.23c1.41.89,2.92,1.13,3.8-.55"/>
  </g>
  <g style="font-family: Helvetica, Helvetica; font-size: 83px;">
    <text id="fr" transform="translate(397.89 73.46)"><tspan x="0" y="0">Agence de la santé</tspan><tspan x="0" y="83">publique du Canada</tspan></text>
    <text id="en" transform="translate(1250.46 74.25)"><tspan x="0" y="0">Public Health</tspan><tspan x="0" y="83">Agency of Canada</tspan></text>
  </g>
</svg>