<?xml version="1.0" encoding="UTF-8" standalone="no"?>
<svg
   version="1.1"
   width="70"
   height="70"
   viewBox="0,0,70,70"
   odoo-icon:version="1.0"
   odoo-icon:size="70"
   odoo-icon:icon-size="0.78"
   odoo-icon:icon-color="#FFFFFF"
   odoo-icon:icon-flat-shadow-angle="135"
   odoo-icon:background-color="#3949ab"
   odoo-icon:background-gradient="0.2"
   odoo-icon:box-radius="3.5"
   odoo-icon:odoo-version="14.0"
   id="svg2"
   sodipodi:docname="icon (5).svg"
   xml:space="preserve"
   inkscape:version="1.4 (e7c3feb100, 2024-10-09)"
   xmlns:inkscape="http://www.inkscape.org/namespaces/inkscape"
   xmlns:sodipodi="http://sodipodi.sourceforge.net/DTD/sodipodi-0.dtd"
   xmlns="http://www.w3.org/2000/svg"
   xmlns:svg="http://www.w3.org/2000/svg"
   xmlns:odoo-icon="https://ivantodorovich.github.io/odoo-icon"><sodipodi:namedview
     id="namedview2"
     pagecolor="#505050"
     bordercolor="#eeeeee"
     borderopacity="1"
     inkscape:showpageshadow="0"
     inkscape:pageopacity="0"
     inkscape:pagecheckerboard="0"
     inkscape:deskcolor="#505050"
     inkscape:zoom="5.7714286"
     inkscape:cx="1.9925743"
     inkscape:cy="53.886139"
     inkscape:window-width="2496"
     inkscape:window-height="1011"
     inkscape:window-x="1984"
     inkscape:window-y="32"
     inkscape:window-maximized="1"
     inkscape:current-layer="g2" /><defs
     id="defs2"><linearGradient
       x1="70"
       y1="0"
       x2="0"
       y2="70"
       gradientUnits="userSpaceOnUse"
       id="color-1"><stop
         offset="0"
         stop-color="#6c7cde"
         id="stop1" /><stop
         offset="1"
         stop-color="#3949ab"
         id="stop2" /></linearGradient></defs><g
     fill="none"
     fill-rule="nonzero"
     stroke="none"
     stroke-width="1"
     stroke-linecap="butt"
     stroke-linejoin="miter"
     stroke-miterlimit="10"
     stroke-dasharray=""
     stroke-dashoffset="0"
     font-family="none"
     font-weight="none"
     font-size="none"
     text-anchor="none"
     style="mix-blend-mode: normal"
     id="g2"><path
       d="M3.5,70c-1.933,0 -3.5,-1.567 -3.5,-3.5v-63c0,-1.933 1.567,-3.5 3.5,-3.5h63c1.933,0 3.5,1.567 3.5,3.5v63c0,1.933 -1.567,3.5 -3.5,3.5z"
       id="box"
       fill="url(#color-1)" /><path
       d="M65,1h-61c-1.95033,0 -3.2667,0.63396 -3.9491,1.90189c0.28378,-1.64806 1.72001,-2.90189 3.4491,-2.90189h63c1.72965,0 3.16627,1.25466 3.44938,2.90352c-0.69803,-1.26902 -2.34782,-1.90352 -4.94938,-1.90352z"
       id="topBoxShadow"
       fill="#ffffff"
       opacity="0.383" /><path
       d="M4,69h61c2.66667,0 4.33333,-1 5,-3v0.5c0,1.933 -1.567,3.5 -3.5,3.5h-63c-1.933,0 -3.5,-1.567 -3.5,-3.5c0,-0.1611 0,-0.32777 0,-0.5c0.66667,2 2,3 4,3z"
       id="bottomBoxShadow"
       fill="#000000"
       opacity="0.383" /><path
       d="M35.00033,26.00007c-2.86705,3.06505 -2.78719,7.85205 0.18018,10.81942c2.96803,2.96803 7.75437,3.04789 10.81942,0.18018c0,6.07532 -4.92494,11.00026 -11.00026,11.00026c-6.07532,0 -11.00026,-4.92494 -11.00026,-11.00026c0,-6.07532 4.92494,-11.00026 11.00026,-11.00026M35.00033,9.5v5.4998M35.00033,59.0002v5.4998M15.47547,17.47547l3.8498,3.8498M50.67539,52.67539l3.8498,3.8498M7.5,37.00033h5.4998M57.0002,37.00033h5.4998M19.32527,52.67539l-3.8498,3.8498M54.52519,17.47547l-3.8498,3.8498z"
       id="shadow"
       fill="#000000"
       opacity="0.3" /><path
       d="M35.00033,24.00007c-2.86705,3.06505 -2.78719,7.85205 0.18018,10.81942c2.96803,2.96803 7.75437,3.04789 10.81942,0.18018c0,3.03766 -1.23123,5.78773 -3.22189,7.77838l-27.22195,27.22195h-12.0561c-1.933,0 -3.5,-1.567 -3.5,-3.5l0,-12.05742l27.22129,-27.22129c1.99065,-1.99065 4.74072,-3.22189 7.77838,-3.22189l-11.00026,11.00026c0,0.00044 0,0.00088 0,0.00132zM35.00033,7.5v5.4998l-49.49747,49.49747l0,-5.4998zM15.47547,15.47547l3.8498,3.8498l-19.32527,19.32527l0,-7.69959zM50.67539,50.67539l3.8498,3.8498l-15.47481,15.47481h-7.69959zM57.0002,35.00033h5.4998l-49.49747,49.49747h-5.4998z"
       id="flatShadow"
       fill="#000000"
       opacity="0.324" /><path
       d="m 35.00033,24.00007 c -2.86705,3.06505 -2.78719,7.85205 0.18018,10.81942 2.96803,2.96803 7.75437,3.04789 10.81942,0.18018 0,6.07532 -4.92494,11.00026 -11.00026,11.00026 -6.07532,0 -11.00026,-4.92494 -11.00026,-11.00026 0,-6.07532 4.92494,-11.00026 11.00026,-11.00026 M 35.00033,7.5 v 5.4998 m 0,44.0004 V 62.5 m -19.52486,-47.02453 3.8498,3.8498 m 31.35012,31.35012 3.8498,3.8498 M 7.5,35.00033 h 5.4998 m 44.0004,0 H 62.5 m -43.17473,15.67506 -3.8498,3.8498 m 39.04972,-39.04972 -3.8498,3.8498 z"
       id="icon"
       fill="#ffffff"
       sodipodi:nodetypes="cscsscccccccccccccccccc"
       style="fill:none" /><path
       style="fill:#ffffff;stroke-width:0.11785"
       d="m 34.595397,61.924437 c -0.705154,-0.321155 -1.304855,-1.050299 -1.460414,-1.775653 -0.169424,-0.789999 -0.169424,-5.354045 0,-6.144043 0.237835,-1.108988 1.328108,-1.990344 2.462137,-1.990344 1.134028,0 2.224301,0.881356 2.462136,1.990344 0.169424,0.789998 0.169424,5.354044 0,6.144043 -0.237835,1.108986 -1.328108,1.990343 -2.462136,1.990343 -0.291678,0 -0.742453,-0.09661 -1.001723,-0.21469 z M 16.682228,54.61419 c -1.260859,-0.583759 -1.830393,-2.121805 -1.248271,-3.370992 0.136236,-0.292349 1.041696,-1.283986 2.383869,-2.610756 2.250076,-2.224248 2.497805,-2.395439 3.469016,-2.397201 0.587532,-0.0011 1.40089,0.334807 1.794704,0.741121 0.409237,0.422229 0.730596,1.210446 0.730596,1.791991 0,0.931769 -0.276604,1.32913 -2.449118,3.51834 -1.274597,1.284391 -2.27175,2.190165 -2.559496,2.324946 -0.602271,0.2821 -1.515126,0.283199 -2.1213,0.0025 z m 35.708486,-0.0025 c -0.287747,-0.134781 -1.284901,-1.040555 -2.559497,-2.324946 -1.633472,-1.646024 -2.127398,-2.216417 -2.268609,-2.619822 -0.721444,-2.061007 1.035727,-3.886832 3.178209,-3.30238 0.379817,0.103611 0.891852,0.544222 2.635596,2.267952 2.320036,2.293407 2.603543,2.693196 2.603543,3.671404 0,1.846056 -1.92818,3.085828 -3.589242,2.307792 z M 34.359697,46.990476 c -3.25188,-0.461774 -5.52875,-1.543712 -7.632073,-3.62666 -2.44373,-2.420056 -3.66974,-5.398169 -3.66974,-8.914198 0,-2.775832 0.638544,-4.862596 2.19275,-7.165894 1.458578,-2.161577 4.100152,-4.118206 6.516369,-4.826714 1.852694,-0.543267 3.81601,-0.756938 4.594472,-0.500022 0.710488,0.234484 1.443012,0.985057 1.654023,1.694784 0.259041,0.871268 0.132247,1.485325 -0.486786,2.357489 -0.774368,1.091017 -1.085445,1.741103 -1.213432,2.535822 -0.486223,3.019179 2.167198,5.6726 5.186374,5.186375 0.794121,-0.127889 1.445038,-0.439182 2.532385,-1.211078 0.836348,-0.593716 1.433113,-0.718888 2.324715,-0.487609 0.761047,0.197415 1.528001,0.959159 1.734674,1.722891 0.339044,1.252894 -0.238095,4.331967 -1.157243,6.173972 -1.813053,3.633411 -4.975322,6.058707 -8.982069,6.888774 -0.694807,0.143941 -3.0115,0.254843 -3.594419,0.172068 z m 3.181944,-5.315481 c 1.281228,-0.316126 2.7639,-1.236473 3.688596,-2.289646 0.371485,-0.423097 0.371485,-0.423097 -0.892531,-0.504227 -1.38789,-0.08908 -2.309611,-0.29128 -3.378369,-0.741114 -2.047524,-0.861792 -4.196636,-3.016593 -5.062792,-5.076191 -0.427452,-1.016427 -0.642344,-2.018185 -0.734462,-3.423851 -0.07827,-1.194359 -0.07827,-1.194359 -0.50103,-0.823169 -1.062694,0.933055 -1.960998,2.388043 -2.31352,3.747226 -0.260073,1.002709 -0.260073,2.768482 0,3.771191 0.10927,0.421314 0.380084,1.112083 0.601804,1.535043 1.656996,3.160961 5.072248,4.673259 8.592304,3.804738 z M 9.751706,36.874059 C 8.7218794,36.597185 7.9075974,35.526651 7.9075974,34.449611 c 0,-1.134027 0.8813533,-2.224298 1.9903441,-2.462136 0.7899995,-0.169425 5.3540445,-0.169425 6.1440445,0 1.108987,0.237838 1.990339,1.328109 1.990339,2.462136 0,1.13403 -0.881352,2.224302 -1.990339,2.462136 -0.862698,0.185016 -5.566761,0.156832 -6.29028,-0.03769 z m 45.254316,0 c -1.029826,-0.276874 -1.844108,-1.347408 -1.844108,-2.424448 0,-1.134027 0.881354,-2.224298 1.990342,-2.462136 0.789999,-0.169425 5.354045,-0.169425 6.144045,0 1.108987,0.237838 1.99034,1.328109 1.99034,2.462136 0,1.13403 -0.881353,2.224302 -1.99034,2.462136 -0.862698,0.185016 -5.56676,0.156832 -6.290279,-0.03769 z M 20.343134,22.489042 c -0.599122,-0.213437 -4.580701,-4.134157 -4.908049,-4.833023 -0.778034,-1.661063 0.461736,-3.589245 2.307793,-3.589245 0.969498,0 1.380928,0.289324 3.620146,2.545747 1.633471,1.646025 2.127396,2.216418 2.268606,2.619822 0.736402,2.103729 -1.184651,4.006205 -3.288496,3.256699 z m 28.632194,-0.01272 c -0.914269,-0.334654 -1.59323,-1.336803 -1.59323,-2.35162 0,-0.925 0.279635,-1.326013 2.449119,-3.512166 2.239217,-2.256423 2.650645,-2.545748 3.620145,-2.545748 1.431748,0 2.537786,1.116128 2.531182,2.554273 -0.0044,0.951954 -0.301353,1.367402 -2.606131,3.645727 -1.743744,1.723731 -2.255779,2.164339 -2.635596,2.267953 -0.623704,0.17014 -1.192475,0.15132 -1.765489,-0.05842 z M 34.595397,16.670139 c -0.705154,-0.32115 -1.304855,-1.050299 -1.460414,-1.775649 -0.169424,-0.79 -0.169424,-5.3540446 0,-6.1440439 0.237835,-1.1089907 1.328108,-1.990344 2.462137,-1.990344 1.134028,0 2.224301,0.8813533 2.462136,1.990344 0.169424,0.7899993 0.169424,5.3540439 0,6.1440439 -0.237835,1.108987 -1.328108,1.990339 -2.462136,1.990339 -0.291678,0 -0.742453,-0.09661 -1.001723,-0.21469 z"
       id="path2" /></g></svg>
