<!--Generator: Adobe Illustrator 16.0.0, SVG Export Plug-In . SVG Version: 6.00 Build 0)--><svg xmlns="http://www.w3.org/2000/svg" xml:space="preserve" id="cog21" x="0" y="0" viewBox="0 0 96 96"><style>@keyframes spinning-cog4432{0%{transform:rotate(0deg)}to{transform:rotate(360deg)}}</style><path fill="currentColor" fill-rule="evenodd" d="M48 30c-9.941 0-18 8.059-18 18s8.059 18 18 18 18-8.059 18-18-8.059-18-18-18m0 30c-6.627 0-12-5.373-12-12s5.373-12 12-12 12 5.373 12 12-5.373 12-12 12m43.223-24.803c-1.74-.363-3.611-.706-5.59-1.025a40 40 0 0 0-1.238-2.992 117 117 0 0 0 3.236-4.713 6 6 0 0 0-.79-7.508l-9.8-9.8a6 6 0 0 0-4.244-1.757 5.97 5.97 0 0 0-3.264.967c-1.482.962-3.06 2.044-4.713 3.236a40 40 0 0 0-2.979-1.233 118 118 0 0 0-1.044-5.621A6 6 0 0 0 54.929 0H41.07a6 6 0 0 0-5.868 4.751 118 118 0 0 0-1.044 5.621q-1.516.556-2.979 1.233a117 117 0 0 0-4.713-3.236 6 6 0 0 0-3.264-.967 6 6 0 0 0-4.243 1.757l-9.8 9.8a6 6 0 0 0-.791 7.508c.961 1.482 2.045 3.06 3.237 4.713a40 40 0 0 0-1.234 2.979c-2.011.327-3.892.676-5.62 1.044A6 6 0 0 0 0 41.071v13.857a6 6 0 0 0 4.751 5.869c1.729.367 3.609.717 5.62 1.044q.557 1.515 1.234 2.979a117 117 0 0 0-3.237 4.713 6 6 0 0 0 .791 7.508l9.8 9.8a5.99 5.99 0 0 0 7.508.79 118 118 0 0 0 4.713-3.235q1.463.675 2.979 1.232c.327 2.012.676 3.893 1.044 5.621A6 6 0 0 0 41.07 96h13.858a6 6 0 0 0 5.869-4.751c.368-1.729.717-3.609 1.044-5.621a39 39 0 0 0 2.991-1.239 127 127 0 0 0 4.677 3.228 5.99 5.99 0 0 0 7.531-.776l9.8-9.8a6 6 0 0 0 .775-7.531 129 129 0 0 0-3.227-4.677q.681-1.475 1.243-3.005c1.979-.32 3.85-.663 5.59-1.025A6 6 0 0 0 96 54.929V41.071a6 6 0 0 0-4.777-5.874M90 54.929c-2.716.565-5.728 1.074-8.973 1.522a33.9 33.9 0 0 1-3.697 8.928c1.979 2.611 3.747 5.1 5.268 7.42l-9.799 9.799c-2.32-1.521-4.809-3.289-7.42-5.268a33.8 33.8 0 0 1-8.914 3.693c-.452 3.276-.965 6.295-1.536 8.977H41.07c-.57-2.682-1.083-5.701-1.535-8.977a33.9 33.9 0 0 1-8.902-3.687c-2.635 1.996-5.132 3.769-7.432 5.261l-9.799-9.799c1.492-2.3 3.265-4.797 5.26-7.432a33.9 33.9 0 0 1-3.686-8.903c-3.275-.45-6.294-.963-8.976-1.534V41.071c2.682-.571 5.701-1.084 8.977-1.535a33.8 33.8 0 0 1 3.686-8.903c-1.995-2.635-3.768-5.132-5.26-7.432l9.799-9.799c2.3 1.492 4.797 3.265 7.432 5.26a33.9 33.9 0 0 1 8.902-3.686c.451-3.274.964-6.294 1.534-8.976h13.858c.571 2.682 1.084 5.702 1.536 8.977a33.9 33.9 0 0 1 8.902 3.686c2.635-1.995 5.132-3.768 7.432-5.26l9.799 9.799c-1.492 2.3-3.265 4.797-5.261 7.432a33.8 33.8 0 0 1 3.69 8.916c3.245.448 6.257.957 8.973 1.522z" clip-rule="evenodd" style="animation:spinning-cog4432 1.3s infinite ease;transform-origin:50% 50%"/></svg>