<svg width="511" height="492" viewBox="0 0 511 492" fill="none" xmlns="http://www.w3.org/2000/svg">
<line x1="251.022" y1="120.627" x2="345.022" y2="37.6268" stroke="#038E93" stroke-width="9"/>
<line x1="23.4977" y1="197.145" x2="21.4977" y2="259.145" stroke="#038E93" stroke-width="9"/>
<line x1="26.4074" y1="198.518" x2="103.407" y2="205.518" stroke="#038E93" stroke-width="9"/>
<line x1="23.1479" y1="260.502" x2="175.148" y2="265.502" stroke="#038E93" stroke-width="9"/>
<line x1="27.0942" y1="263.132" x2="79.0942" y2="377.132" stroke="#038E93" stroke-width="9"/>
<line x1="192.615" y1="333.2" x2="75.6154" y2="378.2" stroke="#038E93" stroke-width="9"/>
<line x1="126.736" y1="436.098" x2="70.7361" y2="377.098" stroke="#038E93" stroke-width="9"/>
<line x1="128.342" y1="428.816" x2="181.342" y2="407.816" stroke="#038E93" stroke-width="9"/>
<line x1="174.552" y1="411.316" x2="186.552" y2="333.316" stroke="#038E93" stroke-width="9"/>
<line x1="177.857" y1="410.524" x2="250.857" y2="470.524" stroke="#038E93" stroke-width="9"/>
<line x1="207" y1="471.5" x2="248" y2="471.5" stroke="#038E93" stroke-width="9"/>
<line x1="252.5" y1="311.027" x2="251.5" y2="476.027" stroke="#038E93" stroke-width="9"/>
<line x1="320.033" y1="409.324" x2="263.033" y2="461.324" stroke="#038E93" stroke-width="9"/>
<line x1="318.998" y1="404.058" x2="300.998" y2="369.058" stroke="#038E93" stroke-width="9"/>
<line x1="341.998" y1="447.058" x2="323.998" y2="412.058" stroke="#038E93" stroke-width="9"/>
<line x1="455.998" y1="313.058" x2="437.998" y2="278.058" stroke="#038E93" stroke-width="9"/>
<line x1="465.719" y1="315.613" x2="488.719" y2="244.613" stroke="#038E93" stroke-width="9"/>
<line x1="334.644" y1="218.546" x2="493.644" y2="241.546" stroke="#038E93" stroke-width="9"/>
<line x1="488.524" y1="240.463" x2="482.524" y2="182.463" stroke="#038E93" stroke-width="9"/>
<line x1="443.955" y1="112.853" x2="481.955" y2="182.853" stroke="#038E93" stroke-width="9"/>
<line x1="437.704" y1="111.165" x2="371.704" y2="138.165" stroke="#038E93" stroke-width="9"/>
<line x1="433.38" y1="103.659" x2="345.38" y2="40.659" stroke="#038E93" stroke-width="9"/>
<line x1="250.9" y1="16.5909" x2="348.9" y2="36.5909" stroke="#038E93" stroke-width="9"/>
<path d="M251.5 18.5L201 20.5" stroke="#038E93" stroke-width="9"/>
<line x1="251.5" y1="15.9602" x2="252.5" y2="128.96" stroke="#038E93" stroke-width="9"/>
<line x1="125.047" y1="58.0314" x2="179.047" y2="169.031" stroke="#038E93" stroke-width="9"/>
<line x1="124.052" y1="57.3066" x2="59.0523" y2="117.307" stroke="#038E93" stroke-width="9"/>
<line x1="21.9171" y1="199.108" x2="59.9171" y2="117.108" stroke="#038E93" stroke-width="9"/>
<line x1="304" y1="466.5" x2="260" y2="466.5" stroke="#038E93" stroke-width="9"/>
<line x1="124.377" y1="432.179" x2="169.377" y2="460.179" stroke="#038E93" stroke-width="9"/>
<line x1="22.9979" y1="197.129" x2="20.9979" y2="259.129" stroke="#011828" stroke-width="8"/>
<line x1="26.3621" y1="199.016" x2="103.362" y2="206.016" stroke="#011828" stroke-width="8"/>
<line x1="23.1315" y1="261.002" x2="175.132" y2="266.002" stroke="#011828" stroke-width="8"/>
<line x1="26.6393" y1="263.34" x2="78.6393" y2="377.34" stroke="#011828" stroke-width="8"/>
<line x1="190.458" y1="332.725" x2="75.4576" y2="377.725" stroke="#011828" stroke-width="8"/>
<line x1="127.099" y1="435.754" x2="71.0988" y2="376.754" stroke="#011828" stroke-width="8"/>
<line x1="128.527" y1="429.281" x2="181.527" y2="408.281" stroke="#011828" stroke-width="8"/>
<line x1="175.047" y1="411.392" x2="187.047" y2="333.392" stroke="#011828" stroke-width="8"/>
<line x1="177.54" y1="410.91" x2="250.54" y2="470.91" stroke="#011828" stroke-width="8"/>
<line x1="207" y1="472" x2="248" y2="472" stroke="#011828" stroke-width="8"/>
<line x1="251" y1="318" x2="251" y2="476" stroke="#011828" stroke-width="8"/>
<line x1="319.696" y1="408.955" x2="262.696" y2="460.955" stroke="#011828" stroke-width="8"/>
<line x1="319.443" y1="403.829" x2="301.443" y2="368.829" stroke="#011828" stroke-width="8"/>
<line x1="342.443" y1="446.829" x2="324.443" y2="411.829" stroke="#011828" stroke-width="8"/>
<line x1="456.443" y1="312.829" x2="438.443" y2="277.829" stroke="#011828" stroke-width="8"/>
<line x1="466.195" y1="315.767" x2="489.195" y2="244.767" stroke="#011828" stroke-width="8"/>
<line x1="335.576" y1="219.042" x2="493.576" y2="242.042" stroke="#011828" stroke-width="8"/>
<line x1="489.021" y1="240.412" x2="483.021" y2="182.412" stroke="#011828" stroke-width="8"/>
<line x1="443.515" y1="113.092" x2="481.515" y2="183.092" stroke="#011828" stroke-width="8"/>
<line x1="437.515" y1="110.702" x2="371.515" y2="137.702" stroke="#011828" stroke-width="8"/>
<line x1="433.672" y1="103.252" x2="345.672" y2="40.2524" stroke="#011828" stroke-width="8"/>
<line x1="245.344" y1="125.009" x2="343.344" y2="38.0087" stroke="#011828" stroke-width="8"/>
<line x1="250.8" y1="17.0808" x2="348.8" y2="37.0808" stroke="#011828" stroke-width="8"/>
<line x1="253.154" y1="17.997" x2="201.154" y2="19.997" stroke="#011828" stroke-width="8"/>
<line x1="251" y1="16.964" x2="252" y2="127.964" stroke="#011828" stroke-width="8"/>
<line x1="124.597" y1="58.2501" x2="178.597" y2="169.25" stroke="#011828" stroke-width="8"/>
<line x1="123.713" y1="56.9392" x2="58.7131" y2="116.939" stroke="#011828" stroke-width="8"/>
<line x1="22.3708" y1="199.318" x2="60.3708" y2="117.318" stroke="#011828" stroke-width="8"/>
<line x1="304" y1="466" x2="260" y2="466" stroke="#011828" stroke-width="8"/>
<line x1="124.113" y1="432.604" x2="169.113" y2="460.604" stroke="#011828" stroke-width="8"/>
<circle cx="437.5" cy="106.5" r="26" fill="#011828" stroke="#038E93"/>
<circle cx="60.75" cy="118.75" r="18.25" fill="#011828" stroke="#038E93"/>
<circle cx="100.5" cy="114.5" r="10" fill="#011828" stroke="#038E93"/>
<circle cx="55.5" cy="229.5" r="10" fill="#011828" stroke="#038E93"/>
<circle cx="89.5" cy="324.5" r="9" fill="#011828" stroke="#038E93"/>
<circle cx="86.5" cy="423.5" r="9" fill="#011828" stroke="#038E93"/>
<circle cx="220.5" cy="413.5" r="9" fill="#011828" stroke="#038E93"/>
<circle cx="278.5" cy="411.5" r="9" fill="#011828" stroke="#038E93"/>
<circle cx="303.5" cy="467.5" r="9" fill="#011828" stroke="#038E93"/>
<circle cx="343.5" cy="448.5" r="9" fill="#011828" stroke="#038E93"/>
<circle cx="278.5" cy="411.5" r="9" fill="#011828" stroke="#038E93"/>
<circle cx="372.5" cy="429.5" r="9" fill="#011828" stroke="#038E93"/>
<circle cx="460.5" cy="359.5" r="9" fill="#011828" stroke="#038E93"/>
<circle cx="435.5" cy="350.5" r="9" fill="#011828" stroke="#038E93"/>
<circle cx="449.5" cy="211.5" r="9" fill="#011828" stroke="#038E93"/>
<circle cx="479.5" cy="140.5" r="9" fill="#011828" stroke="#038E93"/>
<circle cx="403.5" cy="59.5" r="9" fill="#011828" stroke="#038E93"/>
<circle cx="291.5" cy="48.5" r="9" fill="#011828" stroke="#038E93"/>
<circle cx="212.5" cy="48.5" r="9" fill="#011828" stroke="#038E93"/>
<circle cx="374.5" cy="88.5" r="9" fill="#011828" stroke="#038E93"/>
<path d="M41 318.166C41 323.136 36.9706 327.166 32 327.166C27.0294 327.166 23 323.136 23 318.166C23 313.195 27.0294 309.166 32 309.166C36.9706 309.166 41 313.195 41 318.166Z" fill="#011828" stroke="#038E93"/>
<circle cx="38.5" cy="348.5" r="9" fill="#011828" stroke="#038E93"/>
<circle cx="25.75" cy="196.75" r="18.25" fill="#011828" stroke="#038E93"/>
<circle cx="121.5" cy="432.5" r="16" fill="#011828" stroke="#038E93"/>
<circle cx="178.5" cy="411.5" r="16" fill="#011828" stroke="#038E93"/>
<circle cx="320.5" cy="411.5" r="16" fill="#011828" stroke="#038E93"/>
<circle cx="434" cy="270" r="12.5" fill="#011828" stroke="#038E93"/>
<circle cx="200" cy="23" r="12.5" fill="#011828" stroke="#038E93"/>
<circle cx="165" cy="39" r="12.5" fill="#011828" stroke="#038E93"/>
<path d="M136.5 57.5C136.5 65.8162 130.201 72.5 122.5 72.5C114.799 72.5 108.5 65.8162 108.5 57.5C108.5 49.1838 114.799 42.5 122.5 42.5C130.201 42.5 136.5 49.1838 136.5 57.5Z" fill="#011828" stroke="#038E93"/>
<circle cx="344" cy="39" r="17.5" fill="#011828" stroke="#038E93"/>
<circle cx="463.5" cy="321.5" r="16" fill="#011828" stroke="#038E93"/>
<circle cx="486.5" cy="243.5" r="24" fill="#011828" stroke="#038E93"/>
<path d="M274.5 468C274.5 480.989 264.193 491.5 251.5 491.5C238.807 491.5 228.5 480.989 228.5 468C228.5 455.011 238.807 444.5 251.5 444.5C264.193 444.5 274.5 455.011 274.5 468Z" fill="#011828" stroke="#038E93"/>
<path d="M102.5 378.5C102.5 393.403 90.1964 405.5 75 405.5C59.8036 405.5 47.5 393.403 47.5 378.5C47.5 363.597 59.8036 351.5 75 351.5C90.1964 351.5 102.5 363.597 102.5 378.5Z" fill="#011828" stroke="#038E93"/>
<circle cx="438" cy="107" r="33.5" fill="white"/>
<circle cx="438" cy="107" r="33.5" fill="white"/>
<circle cx="438" cy="107" r="33.5" stroke="#038E93"/>
<path d="M456.5 96C456.5 100.971 452.471 105 447.5 105C442.529 105 438.5 100.971 438.5 96C438.5 91.0294 442.529 87 447.5 87C452.471 87 456.5 91.0294 456.5 96Z" fill="#038E93" stroke="#038E93"/>
<circle cx="415" cy="306" r="10.5" fill="#038E93" stroke="#038E93"/>
<circle cx="206.5" cy="471.5" r="9" fill="#038E93" stroke="#038E93"/>
<circle cx="252" cy="18" r="17.5" fill="#038E93" stroke="#038E93"/>
<path d="M502.5 182.013C502.5 193.353 493.534 202.525 482.5 202.525C471.466 202.525 462.5 193.353 462.5 182.013C462.5 170.672 471.466 161.5 482.5 161.5C493.534 161.5 502.5 170.672 502.5 182.013Z" fill="#038E93" stroke="#038E93"/>
<circle cx="169.5" cy="457.5" r="13" fill="#038E93" stroke="#038E93"/>
<circle cx="22.5" cy="264.5" r="22" fill="#038E93" stroke="#038E93"/>
<line x1="188.476" y1="167.274" x2="250.476" y2="125.274" stroke="#038E93" stroke-width="9"/>
<line x1="334.252" y1="146.437" x2="251.252" y2="132.437" stroke="#038E93" stroke-width="9"/>
<line x1="334.5" y1="136" x2="334.5" y2="219" stroke="#038E93" stroke-width="9"/>
<line x1="330.514" y1="285.644" x2="335.514" y2="222.644" stroke="#038E93" stroke-width="9"/>
<line x1="333.066" y1="292.372" x2="251.066" y2="312.372" stroke="#038E93" stroke-width="9"/>
<line x1="182.012" y1="268.975" x2="252.012" y2="303.975" stroke="#038E93" stroke-width="9"/>
<line x1="176.036" y1="275.129" x2="147.036" y2="221.129" stroke="#038E93" stroke-width="9"/>
<line x1="182.711" y1="174.592" x2="129.711" y2="214.592" stroke="#038E93" stroke-width="9"/>
<line x1="182.471" y1="169.239" x2="252.471" y2="215.239" stroke="#038E93" stroke-width="9"/>
<line x1="335.037" y1="147.321" x2="253.037" y2="222.321" stroke="#038E93" stroke-width="9"/>
<line x1="335" y1="223.5" x2="250" y2="223.5" stroke="#038E93" stroke-width="9"/>
<line x1="330.099" y1="292.44" x2="247.099" y2="222.44" stroke="#038E93" stroke-width="9"/>
<line x1="249.5" y1="312.948" x2="251.5" y2="139.948" stroke="#038E93" stroke-width="9"/>
<line x1="177.35" y1="266.363" x2="247.35" y2="215.363" stroke="#038E93" stroke-width="9"/>
<line x1="147" y1="214.5" x2="250" y2="214.5" stroke="#038E93" stroke-width="9"/>
<line x1="184.5" y1="173" x2="184.5" y2="273" stroke="#038E93" stroke-width="9"/>
<line x1="188.769" y1="167.68" x2="249.769" y2="126.68" stroke="#011828" stroke-width="8"/>
<line x1="331.358" y1="144.948" x2="251.358" y2="131.948" stroke="#011828" stroke-width="8"/>
<line x1="334" y1="144" x2="334" y2="219" stroke="#011828" stroke-width="8"/>
<line x1="329.015" y1="289.648" x2="335.015" y2="221.648" stroke="#011828" stroke-width="8"/>
<line x1="332.948" y1="291.886" x2="250.948" y2="311.886" stroke="#011828" stroke-width="8"/>
<line x1="181.789" y1="269.422" x2="251.789" y2="304.422" stroke="#011828" stroke-width="8"/>
<line x1="176.476" y1="274.892" x2="147.476" y2="220.893" stroke="#011828" stroke-width="8"/>
<line x1="182.389" y1="174.208" x2="135.389" y2="209.208" stroke="#011828" stroke-width="8"/>
<line x1="182.197" y1="169.657" x2="252.197" y2="215.657" stroke="#011828" stroke-width="8"/>
<line x1="334.7" y1="146.952" x2="252.7" y2="221.952" stroke="#011828" stroke-width="8"/>
<line x1="335" y1="223" x2="250" y2="223" stroke="#011828" stroke-width="8"/>
<line x1="329.425" y1="291.061" x2="247.425" y2="222.061" stroke="#011828" stroke-width="8"/>
<line x1="250" y1="312.954" x2="252" y2="139.954" stroke="#011828" stroke-width="8"/>
<line x1="177.645" y1="266.767" x2="247.645" y2="215.767" stroke="#011828" stroke-width="8"/>
<line x1="147" y1="215" x2="250" y2="215" stroke="#011828" stroke-width="8"/>
<line x1="184" y1="173" x2="184" y2="273" stroke="#011828" stroke-width="8"/>
<g filter="url(#filter0_d_15_2)">
<circle cx="251.5" cy="218.5" r="33.5" fill="#011828" stroke="#038E93"/>
<circle cx="250" cy="308" r="21" fill="#011828" stroke="#038E93"/>
<path d="M359 143.5C359 158.688 346.688 171 331.5 171C316.312 171 304 158.688 304 143.5C304 128.312 316.312 116 331.5 116C346.688 116 359 128.312 359 143.5Z" fill="#011828" stroke="#038E93"/>
<path d="M217 333.5C217 348.688 204.688 361 189.5 361C174.312 361 162 348.688 162 333.5C162 318.312 174.312 306 189.5 306C204.688 306 217 318.312 217 333.5Z" fill="#011828" stroke="#038E93"/>
<circle cx="335" cy="219" r="21" fill="#011828" stroke="#038E93"/>
<circle cx="332" cy="288" r="21" fill="#011828" stroke="#038E93"/>
<circle cx="180" cy="173" r="21" fill="#011828" stroke="#038E93"/>
<circle cx="250" cy="128" r="21" fill="#011828" stroke="#038E93"/>
<circle cx="127" cy="212" r="25" fill="#011828" stroke="#038E93"/>
</g>
<circle cx="180" cy="270" r="27" fill="#038E93" stroke="#038E93"/>
<circle cx="189" cy="262" r="10" fill="white" stroke="#038E93"/>
<rect x="315.1" y="336.28" width="56" height="180.951" rx="28" transform="rotate(-43.5 315.1 336.28)" fill="#011828"/>
<rect x="315.1" y="336.28" width="56" height="180.951" rx="28" transform="rotate(-43.5 315.1 336.28)" fill="#011828"/>
<rect x="315.1" y="336.28" width="56" height="180.951" rx="28" transform="rotate(-43.5 315.1 336.28)" stroke="white" stroke-width="3"/>
<circle cx="250" cy="219" r="145" stroke="white" stroke-width="40"/>
<circle cx="250" cy="219" r="145" stroke="#011828" stroke-width="32"/>
<defs>
<filter id="filter0_d_15_2" x="97.5" y="106.5" width="266" height="263" filterUnits="userSpaceOnUse" color-interpolation-filters="sRGB">
<feFlood flood-opacity="0" result="BackgroundImageFix"/>
<feColorMatrix in="SourceAlpha" type="matrix" values="0 0 0 0 0 0 0 0 0 0 0 0 0 0 0 0 0 0 127 0" result="hardAlpha"/>
<feOffset dy="4"/>
<feGaussianBlur stdDeviation="2"/>
<feComposite in2="hardAlpha" operator="out"/>
<feColorMatrix type="matrix" values="0 0 0 0 0 0 0 0 0 0 0 0 0 0 0 0 0 0 0.25 0"/>
<feBlend mode="normal" in2="BackgroundImageFix" result="effect1_dropShadow_15_2"/>
<feBlend mode="normal" in="SourceGraphic" in2="effect1_dropShadow_15_2" result="shape"/>
</filter>
</defs>
</svg>
