<?xml version="1.0" encoding="UTF-8" standalone="no"?>
<!-- Created with Inkscape (http://www.inkscape.org/) -->
<svg xmlns:rdf="http://www.w3.org/1999/02/22-rdf-syntax-ns#" xmlns="http://www.w3.org/2000/svg" height="38.975" width="107.38" version="1.0" xmlns:cc="http://creativecommons.org/ns#" xmlns:dc="http://purl.org/dc/elements/1.1/">
 <metadata>
  <rdf:RDF>
   <cc:Work rdf:about="">
    <dc:format>image/svg+xml</dc:format>
    <dc:type rdf:resource="http://purl.org/dc/dcmitype/StillImage"/>
    <dc:title/>
   </cc:Work>
  </rdf:RDF>
 </metadata>
 <g fill="#fff" transform="translate(-386.31 -412.87)">
  <path d="m411.63 430.61h7.86s0.31-1.18-1.09-2.96c-2.77-2.85-5.87-0.96-5.87-0.96-1.53 0.81-3.48 4.17-2.34 8.98 1.44 4.82 6.93 5.81 10.35 4.69 2.26-0.74 3.57-2.37 4.19-3.39 0.2-0.83 0.35-1.66 0.44-2.48h-13.54v-3.88z"/>
  <path d="m404.75 412.9c-8.29 0.44-15.69 6.18-17.84 14.66-2.65 10.43 3.66 21.04 14.09 23.69 7.42 1.88 14.93-0.76 19.6-6.19-2.05 0.49-4.46 0.52-7.06-0.38-8.74-3.01-10.34-11.09-8.16-16.75 2.17-5.65 9.78-8.29 15.06-4.5 4.53 3.25 4.78 9.03 4.75 10.63 0.84-9.36-5.19-18.21-14.59-20.59-1.96-0.5-3.93-0.67-5.85-0.57zm-9.5 17.19c1.39 0 2.5 1.12 2.5 2.5 0 1.39-1.11 2.5-2.5 2.5-1.38 0-2.53-1.11-2.53-2.5 0-1.38 1.15-2.5 2.53-2.5z"/>
  <path d="m483.44 421.68c-1.55 0.07-3.13 0.32-4.44 0.82-2.72 1.11-4.09 3.77-4.09 6.56h4.94c-0.13-1.43 0.94-2.72 1.94-3.09 0.43-0.19 1.03-0.32 1.65-0.32 1.24-0.06 2.51 0.26 3.38 1.07 0.56 0.55 0.71 1.28 0.53 2.09-0.31 1.3-1.74 1.75-3.91 2.06-0.74 0.12-1.6 0.19-2.53 0.31-2.6 0.31-6.32 1.6-7.19 5.38-0.31 1.49-0.07 4.23 2.22 6.03 1.55 1.18 3.74 1.72 5.41 1.66 0.74 0 1.5-0.07 2.12-0.19 1.74-0.37 3.08-1.17 4.38-2.22 0.06 0.31 0.38 1.47 0.62 1.78h5.22c-0.8-1.61-0.69-3.95-0.69-5.25v-6.69c-0.06-1.73-0.06-3.48-0.43-5.09-0.38-1.61-1.79-4.28-6.38-4.84-0.87-0.06-1.82-0.07-2.75-0.07zm4.22 11.16c0 0.5 0.06 4.04-0.25 4.72-0.56 1.49-2.11 2.35-3.97 2.53-0.37 0.06-0.79 0.12-1.22 0.06-1.24 0-2.28-0.6-2.72-1.53-0.49-0.93-0.18-1.88 0.13-2.44 0.74-1.3 2.04-1.53 3.84-1.9 0.56-0.06 1.17-0.19 1.85-0.38 1.36-0.31 1.66-0.56 2.34-1.06z"/>
  <path d="m447.18 424.73c-2.17-2.42-5.52-3.48-8.93-2.98-3.1 0.5-5.33 2.23-6.88 4.71-0.81 1.43-1.37 3.04-1.62 4.59-0.49 3.78 0.56 10.11 7.2 12.59 3.1 1.18 7.01 0.74 9.98-1.43 1.67-1.24 3.35-4.03 3.47-5.77h-5.51c-0.19 0.75-0.62 1.74-1.62 2.49-2.23 1.61-4.77 0.55-5.89-0.25-1.67-1.24-2.23-3.29-2.29-6.2 0-1.55 0.43-4.03 1.73-5.21 1.43-1.18 3.17-1.49 4.84-0.99 1.8 0.55 3.16 2.54 3.04 4.34h-7.81v3.9h13.51c0.13-1.42-0.12-2.79-0.37-4.09-0.43-1.92-1.61-4.28-2.85-5.7z"/>
  <path d="m463.18 430.49c-1.68-0.31-3.6-0.37-4.59-1.48-0.43-0.5-0.43-1.37-0.19-1.87 0.69-1.36 2.36-1.79 3.97-1.67 1.43 0 2.73 0.74 3.29 1.98 0.25 0.5 0.31 1.06 0.37 1.62h4.59c0.06-1.8-0.68-3.66-1.8-4.84-1.43-1.49-4.78-3.04-8.93-2.42-2.23 0.31-5.21 1.61-6.2 4.53-0.87 2.73 0 5.21 1.67 6.51 2.11 1.61 6.08 2.04 7.69 2.42 1.86 0.37 2.79 0.62 3.1 1.67 0.19 0.68 0.13 1.49-0.31 2.05-1.17 1.55-3.59 1.67-5.51 1.11-1.62-0.49-2.3-1.79-2.61-3.53h-4.84c0 1.61 0.5 2.73 1.31 4.03 1.05 1.68 2.91 3.04 5.64 3.47 2.97 0.5 6.01 0.13 7.81-0.86 1.06-0.63 1.86-1.43 2.55-2.3 0.99-1.24 1.86-4.34 0.3-7.07-1.36-2.36-4.46-2.85-7.31-3.35"/>
 </g>
</svg>
