<?xml version="1.0" encoding="UTF-8"?>
<!DOCTYPE svg PUBLIC "-//W3C//DTD SVG 1.1//EN" "http://www.w3.org/Graphics/SVG/1.1/DTD/svg11.dtd">
<svg xmlns="http://www.w3.org/2000/svg" version="1.1" width="256px" height="256px" style="shape-rendering:geometricPrecision; text-rendering:geometricPrecision; image-rendering:optimizeQuality; fill-rule:evenodd; clip-rule:evenodd" xmlns:xlink="http://www.w3.org/1999/xlink">
<g><path style="opacity:1" fill="#fdfcfc" d="M -0.5,-0.5 C 84.8333,-0.5 170.167,-0.5 255.5,-0.5C 255.5,84.8333 255.5,170.167 255.5,255.5C 170.167,255.5 84.8333,255.5 -0.5,255.5C -0.5,170.167 -0.5,84.8333 -0.5,-0.5 Z"/></g>
<g><path style="opacity:1" fill="#080304" d="M 120.5,9.5 C 123.572,9.18259 126.572,9.51592 129.5,10.5C 131.422,12.6866 133.088,15.0199 134.5,17.5C 141.661,26.4919 148.328,35.8252 154.5,45.5C 154.167,46.1667 153.833,46.8333 153.5,47.5C 148.23,46.5488 142.897,46.2154 137.5,46.5C 137.5,48.1667 137.5,49.8333 137.5,51.5C 136.349,49.2209 135.349,46.8876 134.5,44.5C 133.967,40.0352 132.967,35.7019 131.5,31.5C 128.885,23.6043 125.219,16.271 120.5,9.5 Z"/></g>
<g><path style="opacity:1" fill="#0b0708" d="M 165.5,29.5 C 161.063,27.2855 156.396,25.6188 151.5,24.5C 148.258,22.592 144.924,20.9253 141.5,19.5C 143.963,17.5389 146.297,15.3722 148.5,13C 153.328,12.3712 157.995,13.0379 162.5,15C 163.967,16.0975 164.801,17.5975 165,19.5C 165.498,22.8168 165.665,26.1501 165.5,29.5 Z"/></g>
<g><path style="opacity:1" fill="#b77a6d" d="M 120.5,9.5 C 125.219,16.271 128.885,23.6043 131.5,31.5C 128.049,28.6171 125.049,25.2838 122.5,21.5C 121.833,25.5 121.167,29.5 120.5,33.5C 117.567,32.07 115.067,30.07 113,27.5C 112.861,30.5752 113.361,33.5752 114.5,36.5C 109.804,33.1649 105.138,28.9982 100.5,24C 102.387,23.8374 103.887,24.6707 105,26.5C 104.718,21.4274 104.884,16.4274 105.5,11.5C 110.414,10.2926 115.414,9.6259 120.5,9.5 Z"/></g>
<g><path style="opacity:1" fill="#0f0a0a" d="M 87.5,16.5 C 85.4805,25.7861 85.1472,35.1194 86.5,44.5C 87.0863,50.5169 88.7529,56.1836 91.5,61.5C 87.827,59.9998 84.4937,57.9998 81.5,55.5C 81.5,53.1667 81.5,50.8333 81.5,48.5C 81.1348,39.7315 81.8015,31.0649 83.5,22.5C 84.038,20.8828 84.3713,19.2161 84.5,17.5C 85.391,16.8902 86.391,16.5569 87.5,16.5 Z"/></g>
<g><path style="opacity:1" fill="#9d7c76" d="M 84.5,17.5 C 84.3713,19.2161 84.038,20.8828 83.5,22.5C 82.1667,21.8333 81.1667,20.8333 80.5,19.5C 81.8333,18.8333 83.1667,18.1667 84.5,17.5 Z"/></g>
<g><path style="opacity:1" fill="#d4a69c" d="M 105.5,11.5 C 104.884,16.4274 104.718,21.4274 105,26.5C 103.887,24.6707 102.387,23.8374 100.5,24C 105.138,28.9982 109.804,33.1649 114.5,36.5C 116.088,37.6353 116.421,38.9686 115.5,40.5C 112.833,39.1667 110.167,37.8333 107.5,36.5C 107.167,37.1667 106.833,37.8333 106.5,38.5C 104.417,36.7515 102.084,35.9182 99.5,36C 102.833,39.3333 106.167,42.6667 109.5,46C 105.833,46.6667 102.167,46.6667 98.5,46C 99.3279,45.0853 100.328,44.4186 101.5,44C 100.751,42.2663 100.251,40.433 100,38.5C 98.647,37.3147 97.4803,35.9814 96.5,34.5C 97.4891,33.5318 98.1557,32.3651 98.5,31C 97.4629,25.204 96.7963,19.3707 96.5,13.5C 99.454,12.7287 102.454,12.062 105.5,11.5 Z"/></g>
<g><path style="opacity:1" fill="#57080c" d="M 80.5,19.5 C 81.1667,20.8333 82.1667,21.8333 83.5,22.5C 81.8015,31.0649 81.1348,39.7315 81.5,48.5C 78.3113,46.7401 74.9779,45.2401 71.5,44C 64.3156,42.7319 57.3156,40.8986 50.5,38.5C 59.426,30.5942 69.426,24.2609 80.5,19.5 Z"/></g>
<g><path style="opacity:1" fill="#661215" d="M 166.5,30.5 C 175.524,33.5117 183.857,37.8451 191.5,43.5C 192.086,43.2907 192.586,42.9574 193,42.5C 197.333,47.5 201.667,52.5 206,57.5C 207.777,60.0594 209.277,62.7261 210.5,65.5C 208.986,64.3199 207.319,63.3199 205.5,62.5C 202.023,57.8549 198.356,53.3549 194.5,49C 185.306,42.5734 175.973,36.4067 166.5,30.5 Z"/></g>
<g><path style="opacity:1" fill="#530d0d" d="M 134.5,17.5 C 136.965,17.767 139.299,18.4336 141.5,19.5C 144.924,20.9253 148.258,22.592 151.5,24.5C 148.813,24.3359 146.146,24.5026 143.5,25C 150.406,33.157 156.073,40.657 160.5,47.5C 161.028,48.8474 161.195,50.1807 161,51.5C 159.907,49.6508 158.574,47.9842 157,46.5C 156.508,47.549 156.674,48.549 157.5,49.5C 156.575,50.5624 155.575,50.5624 154.5,49.5C 154.44,48.9569 154.107,48.6236 153.5,48.5C 148.739,50.37 143.739,51.0367 138.5,50.5C 139.229,54.6862 140.562,58.6862 142.5,62.5C 142.376,63.1067 142.043,63.44 141.5,63.5C 139.566,59.6973 138.232,55.6973 137.5,51.5C 137.5,49.8333 137.5,48.1667 137.5,46.5C 142.897,46.2154 148.23,46.5488 153.5,47.5C 153.833,46.8333 154.167,46.1667 154.5,45.5C 148.328,35.8252 141.661,26.4919 134.5,17.5 Z"/></g>
<g><path style="opacity:1" fill="#9f1313" d="M 151.5,24.5 C 153.27,25.764 154.937,27.264 156.5,29C 155.5,29.3333 154.5,29.6667 153.5,30C 154.743,31.1545 155.743,32.4878 156.5,34C 159.807,34.6528 162.473,36.3195 164.5,39C 168.768,39.5339 172.768,40.8673 176.5,43C 180.016,46.3486 183.349,49.8486 186.5,53.5C 187.425,54.6405 188.259,54.6405 189,53.5C 189.791,55.6036 191.291,56.937 193.5,57.5C 193.113,58.7199 192.28,59.3865 191,59.5C 188.047,58.0487 185.213,56.3821 182.5,54.5C 181.702,54.9569 181.369,55.6236 181.5,56.5C 179.377,51.5465 175.71,48.0465 170.5,46C 167.068,45.8839 164.068,44.7172 161.5,42.5C 160.548,44.0453 160.215,45.712 160.5,47.5C 156.073,40.657 150.406,33.157 143.5,25C 146.146,24.5026 148.813,24.3359 151.5,24.5 Z"/></g>
<g><path style="opacity:1" fill="#520407" d="M 45.5,43.5 C 47.9619,46.4639 50.6286,49.2972 53.5,52C 49.0218,51.5659 44.6884,50.3993 40.5,48.5C 41.8333,46.5 43.5,44.8333 45.5,43.5 Z"/></g>
<g><path style="opacity:1" fill="#911212" d="M 151.5,24.5 C 156.396,25.6188 161.063,27.2855 165.5,29.5C 165.5,30.1667 165.833,30.5 166.5,30.5C 175.973,36.4067 185.306,42.5734 194.5,49C 198.356,53.3549 202.023,57.8549 205.5,62.5C 207.319,63.3199 208.986,64.3199 210.5,65.5C 213.414,69.658 216.081,73.9914 218.5,78.5C 220.59,85.0263 222.257,91.6929 223.5,98.5C 222.849,97.9094 222.182,97.2427 221.5,96.5C 220.893,96.6236 220.56,96.9569 220.5,97.5C 220.167,97.5 219.833,97.5 219.5,97.5C 219.5,95.8333 219.5,94.1667 219.5,92.5C 219.682,90.4086 219.348,88.4086 218.5,86.5C 209.383,78.5539 200.383,70.3872 191.5,62C 188.268,59.8861 184.935,58.0528 181.5,56.5C 181.369,55.6236 181.702,54.9569 182.5,54.5C 185.213,56.3821 188.047,58.0487 191,59.5C 192.28,59.3865 193.113,58.7199 193.5,57.5C 191.291,56.937 189.791,55.6036 189,53.5C 188.259,54.6405 187.425,54.6405 186.5,53.5C 183.349,49.8486 180.016,46.3486 176.5,43C 172.768,40.8673 168.768,39.5339 164.5,39C 162.473,36.3195 159.807,34.6528 156.5,34C 155.743,32.4878 154.743,31.1545 153.5,30C 154.5,29.6667 155.5,29.3333 156.5,29C 154.937,27.264 153.27,25.764 151.5,24.5 Z"/></g>
<g><path style="opacity:1" fill="#8f1d0d" d="M 154.5,49.5 C 154.062,49.4346 153.728,49.6012 153.5,50C 154.163,51.5185 155.163,52.6851 156.5,53.5C 157.625,55.1288 158.959,56.6288 160.5,58C 154.294,59.2452 148.461,58.4119 143,55.5C 142.376,57.4645 142.876,59.1311 144.5,60.5C 147.422,60.8988 150.422,61.0655 153.5,61C 149.948,61.8775 146.614,63.0442 143.5,64.5C 142.833,64.5 142.167,64.5 141.5,64.5C 141.5,64.1667 141.5,63.8333 141.5,63.5C 142.043,63.44 142.376,63.1067 142.5,62.5C 140.562,58.6862 139.229,54.6862 138.5,50.5C 143.739,51.0367 148.739,50.37 153.5,48.5C 154.107,48.6236 154.44,48.9569 154.5,49.5 Z"/></g>
<g><path style="opacity:1" fill="#be1d16" d="M 219.5,92.5 C 219.5,94.1667 219.5,95.8333 219.5,97.5C 219.5,101.833 219.5,106.167 219.5,110.5C 219.167,110.5 218.833,110.5 218.5,110.5C 217.821,106.9 216.987,107.233 216,111.5C 215.346,112.696 214.846,112.696 214.5,111.5C 216.319,108.352 217.652,105.019 218.5,101.5C 218.896,98.5178 218.229,95.8511 216.5,93.5C 212.028,90.1974 207.695,86.6974 203.5,83C 202.167,82.6667 200.833,82.3333 199.5,82C 198.164,78.168 195.497,76.668 191.5,77.5C 187.841,72.3259 183.508,67.4926 178.5,63C 172.439,59.3917 166.439,55.8917 160.5,52.5C 162.048,52.1788 162.715,51.1788 162.5,49.5C 169.719,51.3321 176.719,54.4987 183.5,59C 192.389,67.3871 200.723,76.2204 208.5,85.5C 211.644,88.6418 215.311,90.9751 219.5,92.5 Z"/></g>
<g><path style="opacity:1" fill="#d0ab8f" d="M 86.5,44.5 C 89.1345,51.2673 92.4679,57.7673 96.5,64C 94.332,64.2494 92.6653,63.4161 91.5,61.5C 88.7529,56.1836 87.0863,50.5169 86.5,44.5 Z"/></g>
<g><path style="opacity:1" fill="#d51d16" d="M 36.5,52.5 C 45.459,55.8834 54.6257,58.8834 64,61.5C 66.158,64.4965 68.9913,66.4965 72.5,67.5C 75.9365,69.481 79.6032,70.981 83.5,72C 72.4221,74.2026 61.4221,73.8693 50.5,71C 48.3333,69.5 46.1667,68 44,66.5C 47.6166,74.2547 53.7833,78.9214 62.5,80.5C 59.1667,81.8333 55.8333,81.8333 52.5,80.5C 42.8087,77.8187 34.4754,72.8187 27.5,65.5C 30.1427,60.8679 33.1427,56.5346 36.5,52.5 Z"/></g>
<g><path style="opacity:1" fill="#d1ab99" d="M 134.5,44.5 C 135.349,46.8876 136.349,49.2209 137.5,51.5C 138.232,55.6973 139.566,59.6973 141.5,63.5C 141.5,63.8333 141.5,64.1667 141.5,64.5C 139.784,64.6287 138.117,64.962 136.5,65.5C 135.377,63.4194 134.377,61.2527 133.5,59C 134.419,54.2188 134.752,49.3855 134.5,44.5 Z"/></g>
<g><path style="opacity:1" fill="#c01d19" d="M 50.5,38.5 C 57.3156,40.8986 64.3156,42.7319 71.5,44C 74.9779,45.2401 78.3113,46.7401 81.5,48.5C 81.5,50.8333 81.5,53.1667 81.5,55.5C 80.475,55.8966 80.3083,56.5632 81,57.5C 84.8666,61.7016 89.0332,65.5349 93.5,69C 86.758,69.9633 80.258,69.1299 74,66.5C 73.2352,66.5699 72.7352,66.9033 72.5,67.5C 68.9913,66.4965 66.158,64.4965 64,61.5C 54.6257,58.8834 45.459,55.8834 36.5,52.5C 37.5,50.8333 38.8333,49.5 40.5,48.5C 44.6884,50.3993 49.0218,51.5659 53.5,52C 50.6286,49.2972 47.9619,46.4639 45.5,43.5C 46.8333,41.5 48.5,39.8333 50.5,38.5 Z"/></g>
<g><path style="opacity:1" fill="#faebe1" d="M 96.5,13.5 C 96.7963,19.3707 97.4629,25.204 98.5,31C 98.1557,32.3651 97.4891,33.5318 96.5,34.5C 97.4803,35.9814 98.647,37.3147 100,38.5C 100.251,40.433 100.751,42.2663 101.5,44C 100.328,44.4186 99.3279,45.0853 98.5,46C 102.167,46.6667 105.833,46.6667 109.5,46C 106.167,42.6667 102.833,39.3333 99.5,36C 102.084,35.9182 104.417,36.7515 106.5,38.5C 106.833,37.8333 107.167,37.1667 107.5,36.5C 110.167,37.8333 112.833,39.1667 115.5,40.5C 116.421,38.9686 116.088,37.6353 114.5,36.5C 113.361,33.5752 112.861,30.5752 113,27.5C 115.067,30.07 117.567,32.07 120.5,33.5C 121.167,29.5 121.833,25.5 122.5,21.5C 125.049,25.2838 128.049,28.6171 131.5,31.5C 132.967,35.7019 133.967,40.0352 134.5,44.5C 134.752,49.3855 134.419,54.2188 133.5,59C 134.377,61.2527 135.377,63.4194 136.5,65.5C 132.982,67.9661 128.982,68.9661 124.5,68.5C 123.609,67.8902 122.609,67.5569 121.5,67.5C 118.614,66.1208 116.114,64.1208 114,61.5C 114.835,64.8435 117.001,67.1768 120.5,68.5C 122.938,70.2672 125.605,71.6006 128.5,72.5C 129.167,73.1667 129.833,73.8333 130.5,74.5C 124.674,75.8307 119.008,77.664 113.5,80C 108.904,81.2861 104.237,82.1194 99.5,82.5C 97.8008,82.6602 96.1341,82.4935 94.5,82C 101.744,79.9511 109.078,78.2844 116.5,77C 106.494,76.669 97.161,79.0024 88.5,84C 89.0944,84.4643 89.7611,84.631 90.5,84.5C 96.2343,84.5816 101.901,85.2483 107.5,86.5C 100.188,89.6633 92.5216,90.9967 84.5,90.5C 79.3717,90.0269 74.3717,88.6936 69.5,86.5C 68.4376,85.4246 68.4376,84.4246 69.5,83.5C 71.1151,82.846 72.7818,82.346 74.5,82C 70.4724,81.6082 66.4724,81.1082 62.5,80.5C 53.7833,78.9214 47.6166,74.2547 44,66.5C 46.1667,68 48.3333,69.5 50.5,71C 61.4221,73.8693 72.4221,74.2026 83.5,72C 79.6032,70.981 75.9365,69.481 72.5,67.5C 72.7352,66.9033 73.2352,66.5699 74,66.5C 80.258,69.1299 86.758,69.9633 93.5,69C 89.0332,65.5349 84.8666,61.7016 81,57.5C 80.3083,56.5632 80.475,55.8966 81.5,55.5C 84.4937,57.9998 87.827,59.9998 91.5,61.5C 92.6653,63.4161 94.332,64.2494 96.5,64C 92.4679,57.7673 89.1345,51.2673 86.5,44.5C 85.1472,35.1194 85.4805,25.7861 87.5,16.5C 90.2542,15.0541 93.2542,14.0541 96.5,13.5 Z"/></g>
<g><path style="opacity:1" fill="#c08a84" d="M 121.5,67.5 C 120.833,67.5 120.5,67.8333 120.5,68.5C 117.001,67.1768 114.835,64.8435 114,61.5C 116.114,64.1208 118.614,66.1208 121.5,67.5 Z"/></g>
<g><path style="opacity:1" fill="#ce1d1a" d="M 25.5,69.5 C 28.0221,69.8781 30.3554,70.7114 32.5,72C 29.5184,72.498 26.5184,72.6646 23.5,72.5C 23.427,70.9731 24.0937,69.9731 25.5,69.5 Z"/></g>
<g><path style="opacity:1" fill="#bc1f1e" d="M 120.5,68.5 C 120.5,67.8333 120.833,67.5 121.5,67.5C 122.609,67.5569 123.609,67.8902 124.5,68.5C 124.611,69.1174 124.944,69.6174 125.5,70C 129.573,70.512 133.573,71.3453 137.5,72.5C 136.234,73.3624 134.901,74.0291 133.5,74.5C 132.448,72.744 130.781,72.0773 128.5,72.5C 125.605,71.6006 122.938,70.2672 120.5,68.5 Z"/></g>
<g><path style="opacity:1" fill="#d78581" d="M 128.5,72.5 C 130.781,72.0773 132.448,72.744 133.5,74.5C 132.5,74.5 131.5,74.5 130.5,74.5C 129.833,73.8333 129.167,73.1667 128.5,72.5 Z"/></g>
<g><path style="opacity:1" fill="#ad1514" d="M 181.5,56.5 C 184.935,58.0528 188.268,59.8861 191.5,62C 200.383,70.3872 209.383,78.5539 218.5,86.5C 219.348,88.4086 219.682,90.4086 219.5,92.5C 215.311,90.9751 211.644,88.6418 208.5,85.5C 200.723,76.2204 192.389,67.3871 183.5,59C 176.719,54.4987 169.719,51.3321 162.5,49.5C 162.715,51.1788 162.048,52.1788 160.5,52.5C 158.901,52.2322 157.568,52.5655 156.5,53.5C 155.163,52.6851 154.163,51.5185 153.5,50C 153.728,49.6012 154.062,49.4346 154.5,49.5C 155.575,50.5624 156.575,50.5624 157.5,49.5C 156.674,48.549 156.508,47.549 157,46.5C 158.574,47.9842 159.907,49.6508 161,51.5C 161.195,50.1807 161.028,48.8474 160.5,47.5C 160.215,45.712 160.548,44.0453 161.5,42.5C 164.068,44.7172 167.068,45.8839 170.5,46C 175.71,48.0465 179.377,51.5465 181.5,56.5 Z"/></g>
<g><path style="opacity:1" fill="#721313" d="M 27.5,65.5 C 34.4754,72.8187 42.8087,77.8187 52.5,80.5C 46.4908,80.6662 40.4908,80.4995 34.5,80C 33.2625,79.7679 32.2625,79.2679 31.5,78.5C 28.3811,77.1301 25.0477,76.1301 21.5,75.5C 21.9321,74.2905 22.5987,73.2905 23.5,72.5C 26.5184,72.6646 29.5184,72.498 32.5,72C 30.3554,70.7114 28.0221,69.8781 25.5,69.5C 25.6596,67.847 26.3263,66.5137 27.5,65.5 Z"/></g>
<g><path style="opacity:1" fill="#d9342b" d="M 21.5,75.5 C 25.0477,76.1301 28.3811,77.1301 31.5,78.5C 29.3023,78.4088 28.9689,79.0755 30.5,80.5C 29.1526,79.9717 27.8193,79.805 26.5,80C 30.12,83.4665 34.12,86.2999 38.5,88.5C 35.2693,89.7815 31.9359,89.7815 28.5,88.5C 27.7701,87.2876 26.7701,86.2876 25.5,85.5C 26.0253,84.8076 26.6919,84.3076 27.5,84C 24.98,82.3029 22.6467,80.4695 20.5,78.5C 20.5569,77.391 20.8902,76.391 21.5,75.5 Z"/></g>
<g><path style="opacity:1" fill="#f6d4ca" d="M 31.5,78.5 C 32.2625,79.2679 33.2625,79.7679 34.5,80C 40.4908,80.4995 46.4908,80.6662 52.5,80.5C 55.8333,81.8333 59.1667,81.8333 62.5,80.5C 66.4724,81.1082 70.4724,81.6082 74.5,82C 72.7818,82.346 71.1151,82.846 69.5,83.5C 68.4376,84.4246 68.4376,85.4246 69.5,86.5C 69.5,86.8333 69.5,87.1667 69.5,87.5C 63.5793,90.0486 57.5793,90.0486 51.5,87.5C 50.5836,87.5427 49.9169,87.8761 49.5,88.5C 48.8333,88.5 48.1667,88.5 47.5,88.5C 42.0232,85.5968 36.3565,82.9302 30.5,80.5C 28.9689,79.0755 29.3023,78.4088 31.5,78.5 Z"/></g>
<g><path style="opacity:1" fill="#eb9d95" d="M 99.5,82.5 C 96.5,83.1667 93.5,83.8333 90.5,84.5C 89.7611,84.631 89.0944,84.4643 88.5,84C 97.161,79.0024 106.494,76.669 116.5,77C 109.078,78.2844 101.744,79.9511 94.5,82C 96.1341,82.4935 97.8008,82.6602 99.5,82.5 Z"/></g>
<g><path style="opacity:1" fill="#b47c79" d="M 20.5,78.5 C 22.6467,80.4695 24.98,82.3029 27.5,84C 26.6919,84.3076 26.0253,84.8076 25.5,85.5C 26.7701,86.2876 27.7701,87.2876 28.5,88.5C 27.6618,88.8417 27.3284,89.5084 27.5,90.5C 26.8333,90.5 26.5,90.1667 26.5,89.5C 25.8333,88.5 25.1667,87.5 24.5,86.5C 23.0892,84.086 21.0892,82.4194 18.5,81.5C 18.9321,80.2905 19.5987,79.2905 20.5,78.5 Z"/></g>
<g><path style="opacity:1" fill="#e46e6a" d="M 30.5,80.5 C 36.3565,82.9302 42.0232,85.5968 47.5,88.5C 41.1397,87.1515 35.4731,84.4849 30.5,80.5 Z"/></g>
<g><path style="opacity:1" fill="#841314" d="M 18.5,81.5 C 21.0892,82.4194 23.0892,84.086 24.5,86.5C 22.0971,86.552 19.7638,86.2186 17.5,85.5C 17.8333,84.1667 18.1667,82.8333 18.5,81.5 Z"/></g>
<g><path style="opacity:1" fill="#c61d17" d="M 17.5,85.5 C 19.7638,86.2186 22.0971,86.552 24.5,86.5C 25.1667,87.5 25.8333,88.5 26.5,89.5C 22.8333,89.5 19.1667,89.5 15.5,89.5C 15.9887,88.0048 16.6554,86.6715 17.5,85.5 Z"/></g>
<g><path style="opacity:1" fill="#f6bcb8" d="M 194.5,85.5 C 195.492,85.3284 196.158,85.6618 196.5,86.5C 195.81,87.8802 195.476,89.2135 195.5,90.5C 193.18,88.2064 191.013,88.2064 189,90.5C 186.276,89.3132 183.443,88.6465 180.5,88.5C 180.5,89.8333 180.5,91.1667 180.5,92.5C 177.819,92.5379 175.319,91.8713 173,90.5C 171.941,90.6301 171.108,91.1301 170.5,92C 174.394,95.8131 173.894,96.3131 169,93.5C 168.235,93.5699 167.735,93.9033 167.5,94.5C 166.957,94.44 166.624,94.1067 166.5,93.5C 168.557,91.523 170.891,90.023 173.5,89C 172.833,88.6667 172.167,88.3333 171.5,88C 173.925,86.9373 176.258,85.7706 178.5,84.5C 183.555,83.0638 188.055,84.0638 192,87.5C 192.995,86.9341 193.828,86.2674 194.5,85.5 Z"/></g>
<g><path style="opacity:1" fill="#f2958b" d="M 194.5,85.5 C 193.828,86.2674 192.995,86.9341 192,87.5C 188.055,84.0638 183.555,83.0638 178.5,84.5C 176.258,85.7706 173.925,86.9373 171.5,88C 172.167,88.3333 172.833,88.6667 173.5,89C 170.891,90.023 168.557,91.523 166.5,93.5C 166.624,94.1067 166.957,94.44 167.5,94.5C 168.29,95.7942 169.29,96.9609 170.5,98C 169.833,98.3333 169.167,98.6667 168.5,99C 171.612,100.599 173.278,103.099 173.5,106.5C 170.214,104.549 167.214,102.215 164.5,99.5C 164.523,97.4004 163.856,95.5671 162.5,94C 163.552,91.3675 165.219,90.5341 167.5,91.5C 168.725,89.1567 168.059,87.3234 165.5,86C 166.745,85.2086 168.078,84.7086 169.5,84.5C 170.568,85.4345 171.901,85.7678 173.5,85.5C 174.404,84.791 174.737,83.791 174.5,82.5C 177.609,82.7359 180.609,82.4025 183.5,81.5C 183.56,82.0431 183.893,82.3764 184.5,82.5C 185.167,81.8333 185.833,81.1667 186.5,80.5C 187.833,81.8333 189.167,81.8333 190.5,80.5C 191.281,81.7287 191.781,83.062 192,84.5C 192.671,85.2524 193.504,85.5858 194.5,85.5 Z"/></g>
<g><path style="opacity:1" fill="#d21c13" d="M 160.5,52.5 C 166.439,55.8917 172.439,59.3917 178.5,63C 183.508,67.4926 187.841,72.3259 191.5,77.5C 195.497,76.668 198.164,78.168 199.5,82C 200.833,82.3333 202.167,82.6667 203.5,83C 207.695,86.6974 212.028,90.1974 216.5,93.5C 218.229,95.8511 218.896,98.5178 218.5,101.5C 216.715,99.6224 214.715,97.9558 212.5,96.5C 211.5,97.8333 210.5,97.8333 209.5,96.5C 208.334,98.1673 208.334,99.834 209.5,101.5C 208.02,98.5848 206.02,95.9181 203.5,93.5C 202.833,93.5 202.167,93.5 201.5,93.5C 200.246,90.9066 198.58,88.5732 196.5,86.5C 196.158,85.6618 195.492,85.3284 194.5,85.5C 193.504,85.5858 192.671,85.2524 192,84.5C 191.781,83.062 191.281,81.7287 190.5,80.5C 189.167,81.8333 187.833,81.8333 186.5,80.5C 185.833,81.1667 185.167,81.8333 184.5,82.5C 183.893,82.3764 183.56,82.0431 183.5,81.5C 183.44,80.9569 183.107,80.6236 182.5,80.5C 178.889,81.2618 175.222,81.7618 171.5,82C 172.823,82.8159 173.489,83.9826 173.5,85.5C 171.901,85.7678 170.568,85.4345 169.5,84.5C 170.434,83.4324 170.768,82.099 170.5,80.5C 173.522,80.196 176.522,79.696 179.5,79C 178.478,76.6837 176.978,76.1837 175,77.5C 174.707,75.0751 173.541,73.2418 171.5,72C 171.833,71.6667 172.167,71.3333 172.5,71C 168.225,66.8592 163.559,63.1926 158.5,60C 154.051,62.5318 149.051,64.0318 143.5,64.5C 146.614,63.0442 149.948,61.8775 153.5,61C 150.422,61.0655 147.422,60.8988 144.5,60.5C 142.876,59.1311 142.376,57.4645 143,55.5C 148.461,58.4119 154.294,59.2452 160.5,58C 158.959,56.6288 157.625,55.1288 156.5,53.5C 157.568,52.5655 158.901,52.2322 160.5,52.5 Z"/></g>
<g><path style="opacity:1" fill="#f06b5f" d="M 183.5,81.5 C 180.609,82.4025 177.609,82.7359 174.5,82.5C 174.737,83.791 174.404,84.791 173.5,85.5C 173.489,83.9826 172.823,82.8159 171.5,82C 175.222,81.7618 178.889,81.2618 182.5,80.5C 183.107,80.6236 183.44,80.9569 183.5,81.5 Z"/></g>
<g><path style="opacity:1" fill="#da7a72" d="M 69.5,87.5 C 69.5,87.1667 69.5,86.8333 69.5,86.5C 74.3717,88.6936 79.3717,90.0269 84.5,90.5C 82.901,90.2322 81.5676,90.5655 80.5,91.5C 79.8333,91.5 79.5,91.8333 79.5,92.5C 76.1835,90.8627 72.8501,89.1961 69.5,87.5 Z"/></g>
<g><path style="opacity:1" fill="#ed1a12" d="M 169.5,84.5 C 168.078,84.7086 166.745,85.2086 165.5,86C 168.059,87.3234 168.725,89.1567 167.5,91.5C 165.219,90.5341 163.552,91.3675 162.5,94C 163.856,95.5671 164.523,97.4004 164.5,99.5C 159.814,99.1191 155.481,100.119 151.5,102.5C 149.435,102.517 147.435,102.85 145.5,103.5C 143.167,104.167 140.833,104.833 138.5,105.5C 136.181,105.992 134.181,106.992 132.5,108.5C 130.473,108.338 128.473,108.505 126.5,109C 124.099,111.062 121.433,112.729 118.5,114C 112.496,116.068 106.496,117.568 100.5,118.5C 97.9407,118.198 95.6074,118.532 93.5,119.5C 84.3414,119.024 75.6748,120.691 67.5,124.5C 66.8333,124.5 66.5,124.167 66.5,123.5C 72.3866,118.803 78.7199,114.637 85.5,111C 79.2332,110.701 73.2332,111.868 67.5,114.5C 66.3044,114.154 66.3044,113.654 67.5,113C 77.1918,107.984 87.1918,103.818 97.5,100.5C 100.259,99.3576 102.926,98.0243 105.5,96.5C 97.0585,95.3056 88.7251,93.639 80.5,91.5C 81.5676,90.5655 82.901,90.2322 84.5,90.5C 92.5216,90.9967 100.188,89.6633 107.5,86.5C 101.901,85.2483 96.2343,84.5816 90.5,84.5C 93.5,83.8333 96.5,83.1667 99.5,82.5C 104.237,82.1194 108.904,81.2861 113.5,80C 119.008,77.664 124.674,75.8307 130.5,74.5C 131.5,74.5 132.5,74.5 133.5,74.5C 134.901,74.0291 136.234,73.3624 137.5,72.5C 133.573,71.3453 129.573,70.512 125.5,70C 124.944,69.6174 124.611,69.1174 124.5,68.5C 128.982,68.9661 132.982,67.9661 136.5,65.5C 138.117,64.962 139.784,64.6287 141.5,64.5C 142.167,64.5 142.833,64.5 143.5,64.5C 149.051,64.0318 154.051,62.5318 158.5,60C 163.559,63.1926 168.225,66.8592 172.5,71C 172.167,71.3333 171.833,71.6667 171.5,72C 173.541,73.2418 174.707,75.0751 175,77.5C 176.978,76.1837 178.478,76.6837 179.5,79C 176.522,79.696 173.522,80.196 170.5,80.5C 170.768,82.099 170.434,83.4324 169.5,84.5 Z"/></g>
<g><path style="opacity:1" fill="#f9f0ec" d="M 196.5,86.5 C 198.58,88.5732 200.246,90.9066 201.5,93.5C 201.682,100.409 201.848,107.409 202,114.5C 205.993,107.737 206.493,100.737 203.5,93.5C 206.02,95.9181 208.02,98.5848 209.5,101.5C 211.895,105.767 211.895,110.101 209.5,114.5C 208.167,115.5 206.833,116.5 205.5,117.5C 204.167,117.5 202.833,117.5 201.5,117.5C 200.194,115.527 198.527,113.861 196.5,112.5C 196.392,108.334 195.059,107.667 192.5,110.5C 186.631,108.849 180.631,107.849 174.5,107.5C 173.833,107.5 173.5,107.167 173.5,106.5C 173.278,103.099 171.612,100.599 168.5,99C 169.167,98.6667 169.833,98.3333 170.5,98C 169.29,96.9609 168.29,95.7942 167.5,94.5C 167.735,93.9033 168.235,93.5699 169,93.5C 173.894,96.3131 174.394,95.8131 170.5,92C 171.108,91.1301 171.941,90.6301 173,90.5C 175.319,91.8713 177.819,92.5379 180.5,92.5C 180.5,91.1667 180.5,89.8333 180.5,88.5C 183.443,88.6465 186.276,89.3132 189,90.5C 191.013,88.2064 193.18,88.2064 195.5,90.5C 195.476,89.2135 195.81,87.8802 196.5,86.5 Z"/></g>
<g><path style="opacity:1" fill="#e41917" d="M 15.5,89.5 C 19.1667,89.5 22.8333,89.5 26.5,89.5C 26.5,90.1667 26.8333,90.5 27.5,90.5C 29.3788,93.1148 31.7121,95.2814 34.5,97C 33.552,97.4828 32.552,97.6495 31.5,97.5C 26.5476,95.9053 21.5476,94.4053 16.5,93C 15.944,92.6174 15.6107,92.1174 15.5,91.5C 15.5,90.8333 15.5,90.1667 15.5,89.5 Z"/></g>
<g><path style="opacity:1" fill="#8c1615" d="M 15.5,91.5 C 15.6107,92.1174 15.944,92.6174 16.5,93C 21.5476,94.4053 26.5476,95.9053 31.5,97.5C 29.6976,98.4582 27.6976,99.1249 25.5,99.5C 22.2794,97.0932 18.6127,95.4265 14.5,94.5C 14.2627,93.209 14.596,92.209 15.5,91.5 Z"/></g>
<g><path style="opacity:1" fill="#ec2017" d="M 14.5,94.5 C 18.6127,95.4265 22.2794,97.0932 25.5,99.5C 20.6197,102.199 16.1197,105.532 12,109.5C 11.5357,108.906 11.369,108.239 11.5,107.5C 12.0566,102.948 13.0566,98.6151 14.5,94.5 Z"/></g>
<g><path style="opacity:1" fill="#f1cbc9" d="M 80.5,91.5 C 88.7251,93.639 97.0585,95.3056 105.5,96.5C 102.926,98.0243 100.259,99.3576 97.5,100.5C 96.8333,99.8333 96.1667,99.1667 95.5,98.5C 96.8734,98.6567 98.2068,98.49 99.5,98C 96.5219,97.304 93.5219,96.804 90.5,96.5C 86.4632,95.9347 82.7966,94.6013 79.5,92.5C 79.5,91.8333 79.8333,91.5 80.5,91.5 Z"/></g>
<g><path style="opacity:1" fill="#df7975" d="M 90.5,96.5 C 93.5219,96.804 96.5219,97.304 99.5,98C 98.2068,98.49 96.8734,98.6567 95.5,98.5C 93.597,98.2041 91.9303,97.5375 90.5,96.5 Z"/></g>
<g><path style="opacity:1" fill="#e41a12" d="M 218.5,101.5 C 217.652,105.019 216.319,108.352 214.5,111.5C 214.846,112.696 215.346,112.696 216,111.5C 216.987,107.233 217.821,106.9 218.5,110.5C 218.107,112.284 217.441,113.95 216.5,115.5C 214.743,114.482 213.077,114.816 211.5,116.5C 210.287,116.253 209.62,115.586 209.5,114.5C 211.895,110.101 211.895,105.767 209.5,101.5C 208.334,99.834 208.334,98.1673 209.5,96.5C 210.5,97.8333 211.5,97.8333 212.5,96.5C 214.715,97.9558 216.715,99.6224 218.5,101.5 Z"/></g>
<g><path style="opacity:1" fill="#f4d4cc" d="M 28.5,88.5 C 31.9359,89.7815 35.2693,89.7815 38.5,88.5C 40.8525,89.3403 42.8525,90.6736 44.5,92.5C 41.9671,94.1909 39.3004,95.6909 36.5,97C 42.5137,97.5762 48.5137,97.4095 54.5,96.5C 57.9685,96.527 61.3018,97.1937 64.5,98.5C 59.162,101.167 54.162,104.334 49.5,108C 54.2824,108.119 58.9491,108.785 63.5,110C 57.8302,111.85 52.4968,114.35 47.5,117.5C 47.44,116.957 47.1067,116.624 46.5,116.5C 37.0242,120.725 29.3575,127.059 23.5,135.5C 22.9569,135.44 22.6236,135.107 22.5,134.5C 26.0444,127.623 30.711,121.623 36.5,116.5C 43.6913,111.607 51.6913,109.44 60.5,110C 52.4221,109.762 44.4221,108.929 36.5,107.5C 29.3835,106.827 22.5501,107.827 16,110.5C 15.2352,110.43 14.7352,110.097 14.5,109.5C 13.2921,110.234 11.9587,110.567 10.5,110.5C 10.2627,109.209 10.596,108.209 11.5,107.5C 11.369,108.239 11.5357,108.906 12,109.5C 16.1197,105.532 20.6197,102.199 25.5,99.5C 27.6976,99.1249 29.6976,98.4582 31.5,97.5C 32.552,97.6495 33.552,97.4828 34.5,97C 31.7121,95.2814 29.3788,93.1148 27.5,90.5C 27.3284,89.5084 27.6618,88.8417 28.5,88.5 Z"/></g>
<g><path style="opacity:1" fill="#e8e0e2" d="M 220.5,97.5 C 221.687,99.0725 222.687,100.739 223.5,102.5C 223.5,103.833 223.5,105.167 223.5,106.5C 223.5,107.5 223.5,108.5 223.5,109.5C 222.5,109.5 221.5,109.5 220.5,109.5C 220.5,105.5 220.5,101.5 220.5,97.5 Z"/></g>
<g><path style="opacity:1" fill="#581516" d="M 218.5,78.5 C 227.083,91.6021 230.083,105.935 227.5,121.5C 225.917,119.492 224.917,117.159 224.5,114.5C 224.5,113.167 224.5,111.833 224.5,110.5C 225.151,111.091 225.818,111.757 226.5,112.5C 228.391,107.089 227.391,102.423 223.5,98.5C 222.257,91.6929 220.59,85.0263 218.5,78.5 Z"/></g>
<g><path style="opacity:1" fill="#c0827f" d="M 220.5,97.5 C 220.56,96.9569 220.893,96.6236 221.5,96.5C 222.182,97.2427 222.849,97.9094 223.5,98.5C 223.5,99.8333 223.5,101.167 223.5,102.5C 222.687,100.739 221.687,99.0725 220.5,97.5 Z"/></g>
<g><path style="opacity:1" fill="#d35852" d="M 14.5,109.5 C 20.9468,103.104 28.6135,99.7708 37.5,99.5C 29.2505,101.687 21.5839,105.02 14.5,109.5 Z"/></g>
<g><path style="opacity:1" fill="#620707" d="M 164.5,99.5 C 167.214,102.215 170.214,104.549 173.5,106.5C 173.5,107.167 173.833,107.5 174.5,107.5C 175.306,108.728 176.306,109.728 177.5,110.5C 177.062,110.435 176.728,110.601 176.5,111C 177.416,111.278 178.082,111.778 178.5,112.5C 176.302,112.409 175.969,113.075 177.5,114.5C 175.027,114.088 173.694,115.088 173.5,117.5C 172.735,117.077 171.902,116.743 171,116.5C 167.863,117.361 164.697,118.027 161.5,118.5C 161.167,118.5 160.833,118.5 160.5,118.5C 159.069,115.567 157.069,113.067 154.5,111C 152.727,108.41 151.727,105.577 151.5,102.5C 155.481,100.119 159.814,99.1191 164.5,99.5 Z"/></g>
<g><path style="opacity:1" fill="#c72d21" d="M 223.5,98.5 C 227.391,102.423 228.391,107.089 226.5,112.5C 225.818,111.757 225.151,111.091 224.5,110.5C 224.768,108.901 224.434,107.568 223.5,106.5C 223.5,105.167 223.5,103.833 223.5,102.5C 223.5,101.167 223.5,99.8333 223.5,98.5 Z"/></g>
<g><path style="opacity:1" fill="#542627" d="M 201.5,93.5 C 202.167,93.5 202.833,93.5 203.5,93.5C 206.493,100.737 205.993,107.737 202,114.5C 201.848,107.409 201.682,100.409 201.5,93.5 Z"/></g>
<g><path style="opacity:1" fill="#7b2825" d="M 36.5,108.5 C 36.5,108.167 36.5,107.833 36.5,107.5C 44.4221,108.929 52.4221,109.762 60.5,110C 51.6913,109.44 43.6913,111.607 36.5,116.5C 35.1667,116.167 33.8333,115.833 32.5,115.5C 35.861,113.914 37.1944,111.581 36.5,108.5 Z"/></g>
<g><path style="opacity:1" fill="#cd2b26" d="M 174.5,107.5 C 180.631,107.849 186.631,108.849 192.5,110.5C 192.5,110.833 192.5,111.167 192.5,111.5C 187.438,111.726 182.438,111.392 177.5,110.5C 176.306,109.728 175.306,108.728 174.5,107.5 Z"/></g>
<g><path style="opacity:1" fill="#cf332a" d="M 36.5,107.5 C 36.5,107.833 36.5,108.167 36.5,108.5C 32.1539,108.334 27.8206,108.501 23.5,109C 19.2128,110.737 14.8794,112.237 10.5,113.5C 10.5,112.5 10.5,111.5 10.5,110.5C 11.9587,110.567 13.2921,110.234 14.5,109.5C 14.7352,110.097 15.2352,110.43 16,110.5C 22.5501,107.827 29.3835,106.827 36.5,107.5 Z"/></g>
<g><path style="opacity:1" fill="#be8c87" d="M 196.5,112.5 C 195.041,112.567 193.708,112.234 192.5,111.5C 192.5,111.167 192.5,110.833 192.5,110.5C 195.059,107.667 196.392,108.334 196.5,112.5 Z"/></g>
<g><path style="opacity:1" fill="#14090a" d="M 177.5,110.5 C 182.438,111.392 187.438,111.726 192.5,111.5C 193.708,112.234 195.041,112.567 196.5,112.5C 198.527,113.861 200.194,115.527 201.5,117.5C 202.015,119.894 202.681,122.228 203.5,124.5C 203.738,126.404 204.738,127.738 206.5,128.5C 206.629,130.216 206.962,131.883 207.5,133.5C 206.391,133.443 205.391,133.11 204.5,132.5C 201.131,130.489 197.464,129.489 193.5,129.5C 193.5,129.167 193.5,128.833 193.5,128.5C 195.096,125.639 196.43,122.639 197.5,119.5C 197.566,117.734 196.732,116.734 195,116.5C 193.124,117.619 192.291,119.286 192.5,121.5C 191.662,121.158 191.328,120.492 191.5,119.5C 192.038,117.883 192.371,116.216 192.5,114.5C 191.209,114.263 190.209,114.596 189.5,115.5C 188.518,114.859 187.518,114.193 186.5,113.5C 186.167,114.333 185.833,115.167 185.5,116C 186.86,118.27 187.527,120.77 187.5,123.5C 185.912,120.242 183.579,117.575 180.5,115.5C 180.573,113.973 179.906,112.973 178.5,112.5C 178.082,111.778 177.416,111.278 176.5,111C 176.728,110.601 177.062,110.435 177.5,110.5 Z"/></g>
<g><path style="opacity:1" fill="#9c2115" d="M 145.5,103.5 C 144.619,106.438 144.286,109.271 144.5,112C 147.167,113.333 149.167,115.333 150.5,118C 153.817,118.498 157.15,118.665 160.5,118.5C 160.833,118.5 161.167,118.5 161.5,118.5C 161.5,118.833 161.5,119.167 161.5,119.5C 158.5,119.5 155.5,119.5 152.5,119.5C 152.167,119.5 151.833,119.5 151.5,119.5C 148.482,119.665 145.482,119.498 142.5,119C 140.875,118.147 140.542,117.147 141.5,116C 139.004,114.92 136.67,113.586 134.5,112C 135.833,111.333 135.833,110.667 134.5,110C 135.699,108.306 137.032,106.806 138.5,105.5C 140.833,104.833 143.167,104.167 145.5,103.5 Z"/></g>
<g><path style="opacity:1" fill="#7a110f" d="M 151.5,102.5 C 151.727,105.577 152.727,108.41 154.5,111C 157.069,113.067 159.069,115.567 160.5,118.5C 157.15,118.665 153.817,118.498 150.5,118C 149.167,115.333 147.167,113.333 144.5,112C 144.286,109.271 144.619,106.438 145.5,103.5C 147.435,102.85 149.435,102.517 151.5,102.5 Z"/></g>
<g><path style="opacity:1" fill="#ef712c" d="M 132.5,108.5 C 130.811,110.328 128.811,111.828 126.5,113C 134.156,117.832 142.489,120.332 151.5,120.5C 151.953,121.458 152.619,122.292 153.5,123C 141.714,128.321 130.381,127.488 119.5,120.5C 118.707,121.355 119.04,122.189 120.5,123C 122.5,124.333 124.5,125.667 126.5,127C 123.525,127.044 120.525,126.877 117.5,126.5C 118.815,125.105 118.481,124.105 116.5,123.5C 111.985,120.304 106.985,118.638 101.5,118.5C 101.167,118.5 100.833,118.5 100.5,118.5C 106.496,117.568 112.496,116.068 118.5,114C 121.433,112.729 124.099,111.062 126.5,109C 128.473,108.505 130.473,108.338 132.5,108.5 Z"/></g>
<g><path style="opacity:1" fill="#190806" d="M 177.5,114.5 C 177.668,119.225 179.334,123.225 182.5,126.5C 184.873,127.839 187.207,129.172 189.5,130.5C 186.482,130.665 183.482,130.498 180.5,130C 177.502,126.138 175.169,121.971 173.5,117.5C 173.694,115.088 175.027,114.088 177.5,114.5 Z"/></g>
<g><path style="opacity:1" fill="#c03818" d="M 138.5,105.5 C 137.032,106.806 135.699,108.306 134.5,110C 135.833,110.667 135.833,111.333 134.5,112C 136.67,113.586 139.004,114.92 141.5,116C 140.542,117.147 140.875,118.147 142.5,119C 145.482,119.498 148.482,119.665 151.5,119.5C 151.5,119.833 151.5,120.167 151.5,120.5C 142.489,120.332 134.156,117.832 126.5,113C 128.811,111.828 130.811,110.328 132.5,108.5C 134.181,106.992 136.181,105.992 138.5,105.5 Z"/></g>
<g><path style="opacity:1" fill="#cbb9b5" d="M 191.5,119.5 C 189.824,118.817 189.157,117.483 189.5,115.5C 190.209,114.596 191.209,114.263 192.5,114.5C 192.371,116.216 192.038,117.883 191.5,119.5 Z"/></g>
<g><path style="opacity:1" fill="#bd2c26" d="M 209.5,114.5 C 209.62,115.586 210.287,116.253 211.5,116.5C 213.077,114.816 214.743,114.482 216.5,115.5C 213.001,117.75 209.335,119.75 205.5,121.5C 205.5,120.167 205.5,118.833 205.5,117.5C 206.833,116.5 208.167,115.5 209.5,114.5 Z"/></g>
<g><path style="opacity:1" fill="#54090b" d="M 218.5,110.5 C 218.833,110.5 219.167,110.5 219.5,110.5C 219.382,113.688 218.549,116.688 217,119.5C 213.295,122.41 209.795,125.41 206.5,128.5C 204.738,127.738 203.738,126.404 203.5,124.5C 204.401,123.71 205.068,122.71 205.5,121.5C 209.335,119.75 213.001,117.75 216.5,115.5C 217.441,113.95 218.107,112.284 218.5,110.5 Z"/></g>
<g><path style="opacity:1" fill="#cd443b" d="M 178.5,112.5 C 179.906,112.973 180.573,113.973 180.5,115.5C 181.008,119.197 181.674,122.864 182.5,126.5C 179.334,123.225 177.668,119.225 177.5,114.5C 175.969,113.075 176.302,112.409 178.5,112.5 Z"/></g>
<g><path style="opacity:1" fill="#c5422f" d="M 193.5,128.5 C 192.167,127.833 191.167,126.833 190.5,125.5C 190.733,123.938 191.4,122.605 192.5,121.5C 192.291,119.286 193.124,117.619 195,116.5C 196.732,116.734 197.566,117.734 197.5,119.5C 196.43,122.639 195.096,125.639 193.5,128.5 Z"/></g>
<g><path style="opacity:1" fill="#fbede3" d="M 101.5,118.5 C 106.985,118.638 111.985,120.304 116.5,123.5C 116.265,124.097 115.765,124.43 115,124.5C 109.976,123.399 105.476,121.399 101.5,118.5 Z"/></g>
<g><path style="opacity:1" fill="#ece0de" d="M 180.5,115.5 C 183.579,117.575 185.912,120.242 187.5,123.5C 187.973,124.906 188.973,125.573 190.5,125.5C 191.167,126.833 192.167,127.833 193.5,128.5C 193.5,128.833 193.5,129.167 193.5,129.5C 192.432,130.434 191.099,130.768 189.5,130.5C 187.207,129.172 184.873,127.839 182.5,126.5C 181.674,122.864 181.008,119.197 180.5,115.5 Z"/></g>
<g><path style="opacity:1" fill="#8c7a82" d="M 201.5,117.5 C 202.833,117.5 204.167,117.5 205.5,117.5C 205.5,118.833 205.5,120.167 205.5,121.5C 205.068,122.71 204.401,123.71 203.5,124.5C 202.681,122.228 202.015,119.894 201.5,117.5 Z"/></g>
<g><path style="opacity:1" fill="#432024" d="M 224.5,114.5 C 224.917,117.159 225.917,119.492 227.5,121.5C 225.717,125.634 224.717,129.967 224.5,134.5C 223.798,128.008 223.798,121.341 224.5,114.5 Z"/></g>
<g><path style="opacity:1" fill="#e9af93" d="M 93.5,119.5 C 95.6074,118.532 97.9407,118.198 100.5,118.5C 100.833,118.5 101.167,118.5 101.5,118.5C 105.476,121.399 109.976,123.399 115,124.5C 115.765,124.43 116.265,124.097 116.5,123.5C 118.481,124.105 118.815,125.105 117.5,126.5C 111.427,125.398 105.761,123.232 100.5,120C 98.1902,119.503 95.8568,119.337 93.5,119.5 Z"/></g>
<g><path style="opacity:1" fill="#71241b" d="M 189.5,115.5 C 189.157,117.483 189.824,118.817 191.5,119.5C 191.328,120.492 191.662,121.158 192.5,121.5C 191.4,122.605 190.733,123.938 190.5,125.5C 188.973,125.573 187.973,124.906 187.5,123.5C 187.527,120.77 186.86,118.27 185.5,116C 185.833,115.167 186.167,114.333 186.5,113.5C 187.518,114.193 188.518,114.859 189.5,115.5 Z"/></g>
<g><path style="opacity:1" fill="#7a6c80" d="M 219.5,97.5 C 219.833,97.5 220.167,97.5 220.5,97.5C 220.5,101.5 220.5,105.5 220.5,109.5C 221.5,109.5 222.5,109.5 223.5,109.5C 223.5,108.5 223.5,107.5 223.5,106.5C 224.434,107.568 224.768,108.901 224.5,110.5C 224.5,111.833 224.5,113.167 224.5,114.5C 223.798,121.341 223.798,128.008 224.5,134.5C 225.167,134.5 225.5,134.833 225.5,135.5C 224.957,135.56 224.624,135.893 224.5,136.5C 226.027,138.193 227.36,140.027 228.5,142C 226.963,143.707 225.296,145.207 223.5,146.5C 219.643,142.22 214.977,138.886 209.5,136.5C 208.833,135.5 208.167,134.5 207.5,133.5C 206.962,131.883 206.629,130.216 206.5,128.5C 209.795,125.41 213.295,122.41 217,119.5C 218.549,116.688 219.382,113.688 219.5,110.5C 219.5,106.167 219.5,101.833 219.5,97.5 Z"/></g>
<g><path style="opacity:1" fill="#db5117" d="M 173.5,117.5 C 175.169,121.971 177.502,126.138 180.5,130C 183.482,130.498 186.482,130.665 189.5,130.5C 191.099,130.768 192.432,130.434 193.5,129.5C 197.464,129.489 201.131,130.489 204.5,132.5C 203.817,134.176 202.483,134.843 200.5,134.5C 194.251,134.447 188.251,134.78 182.5,135.5C 180.726,135.113 179.059,134.447 177.5,133.5C 175.843,135.579 173.843,135.746 171.5,134C 168.453,130.075 165.286,126.241 162,122.5C 161.517,121.552 161.351,120.552 161.5,119.5C 161.5,119.167 161.5,118.833 161.5,118.5C 164.697,118.027 167.863,117.361 171,116.5C 171.902,116.743 172.735,117.077 173.5,117.5 Z"/></g>
<g><path style="opacity:1" fill="#d7231a" d="M 32.5,115.5 C 33.8333,115.833 35.1667,116.167 36.5,116.5C 30.711,121.623 26.0444,127.623 22.5,134.5C 22.6236,135.107 22.9569,135.44 23.5,135.5C 19.0164,140.193 16.5164,145.86 16,152.5C 15.7598,142.036 18.4264,132.369 24,123.5C 26.7028,120.629 29.5361,117.962 32.5,115.5 Z"/></g>
<g><path style="opacity:1" fill="#f9eee6" d="M 30.5,80.5 C 35.4731,84.4849 41.1397,87.1515 47.5,88.5C 51.8015,91.1004 56.4682,92.6004 61.5,93C 57.5102,91.3934 53.5102,89.8934 49.5,88.5C 49.9169,87.8761 50.5836,87.5427 51.5,87.5C 57.5793,90.0486 63.5793,90.0486 69.5,87.5C 72.8501,89.1961 76.1835,90.8627 79.5,92.5C 82.7966,94.6013 86.4632,95.9347 90.5,96.5C 91.9303,97.5375 93.597,98.2041 95.5,98.5C 96.1667,99.1667 96.8333,99.8333 97.5,100.5C 87.1918,103.818 77.1918,107.984 67.5,113C 66.3044,113.654 66.3044,114.154 67.5,114.5C 73.2332,111.868 79.2332,110.701 85.5,111C 78.7199,114.637 72.3866,118.803 66.5,123.5C 63.9265,124.879 62.4265,126.879 62,129.5C 63.8119,127.7 65.6452,126.033 67.5,124.5C 75.6748,120.691 84.3414,119.024 93.5,119.5C 95.8568,119.337 98.1902,119.503 100.5,120C 105.761,123.232 111.427,125.398 117.5,126.5C 120.525,126.877 123.525,127.044 126.5,127C 124.5,125.667 122.5,124.333 120.5,123C 119.04,122.189 118.707,121.355 119.5,120.5C 130.381,127.488 141.714,128.321 153.5,123C 152.619,122.292 151.953,121.458 151.5,120.5C 151.5,120.167 151.5,119.833 151.5,119.5C 151.833,119.5 152.167,119.5 152.5,119.5C 156.334,121.603 158.334,124.937 158.5,129.5C 157.065,132.328 157.731,134.661 160.5,136.5C 160.154,137.696 159.654,137.696 159,136.5C 158.333,137.167 158.333,137.833 159,138.5C 161.052,140.058 163.219,141.392 165.5,142.5C 169.167,142.5 172.833,142.5 176.5,142.5C 180.155,142.472 182.822,144.139 184.5,147.5C 183.167,147.833 181.833,148.167 180.5,148.5C 175.637,146.793 170.637,146.293 165.5,147C 166.416,147.278 167.082,147.778 167.5,148.5C 160.721,147.747 155.054,144.747 150.5,139.5C 150.167,139.833 149.833,140.167 149.5,140.5C 155.13,146.53 154.463,147.53 147.5,143.5C 147.016,144.781 147.683,145.781 149.5,146.5C 148.352,147.164 147.019,147.331 145.5,147C 146.749,148.98 148.082,150.813 149.5,152.5C 150.124,154.754 151.457,156.421 153.5,157.5C 166.598,166.75 179.598,176.25 192.5,186C 193.793,186.49 195.127,186.657 196.5,186.5C 196.611,187.117 196.944,187.617 197.5,188C 187.566,189.267 178.566,186.933 170.5,181C 162.179,178.392 153.846,175.892 145.5,173.5C 145.611,172.883 145.944,172.383 146.5,172C 148.833,171.667 151.167,171.333 153.5,171C 152.774,169.603 151.607,168.769 150,168.5C 139.472,167.627 128.972,166.46 118.5,165C 117.257,163.846 116.257,162.512 115.5,161C 112.312,160.245 109.145,159.411 106,158.5C 103.719,159.776 101.719,161.443 100,163.5C 100.546,160.907 102.046,158.74 104.5,157C 107.795,154.566 111.462,152.899 115.5,152C 110.167,151.333 104.833,151.333 99.5,152C 96.666,152.045 94.166,152.879 92,154.5C 91.5357,153.906 91.369,153.239 91.5,152.5C 93.0664,152.024 93.3998,151.357 92.5,150.5C 82.043,153.555 73.043,158.888 65.5,166.5C 65.1667,166.167 64.8333,165.833 64.5,165.5C 69.073,158.426 75.073,152.926 82.5,149C 78.0779,149.975 73.7446,151.475 69.5,153.5C 70.7335,151.931 72.7335,150.431 75.5,149C 79.6282,147.436 83.6282,145.602 87.5,143.5C 78.0112,140.75 68.3445,139.917 58.5,141C 57.7471,142.487 56.9138,142.654 56,141.5C 53.6667,144.5 51.3333,147.5 49,150.5C 48.5078,149.451 48.6744,148.451 49.5,147.5C 49.1543,146.304 48.6543,146.304 48,147.5C 46.4758,149.898 44.9758,152.231 43.5,154.5C 43.5,153.833 43.5,153.167 43.5,152.5C 44.01,149.461 44.6766,146.461 45.5,143.5C 47.1667,140.167 48.8333,136.833 50.5,133.5C 52.2131,130.275 54.5464,127.441 57.5,125C 49.4384,126.364 42.4384,129.864 36.5,135.5C 35.1851,136.476 33.8518,137.476 32.5,138.5C 31.8933,138.376 31.56,138.043 31.5,137.5C 35.7239,129.943 41.0572,123.276 47.5,117.5C 52.4968,114.35 57.8302,111.85 63.5,110C 58.9491,108.785 54.2824,108.119 49.5,108C 54.162,104.334 59.162,101.167 64.5,98.5C 61.3018,97.1937 57.9685,96.527 54.5,96.5C 48.5137,97.4095 42.5137,97.5762 36.5,97C 39.3004,95.6909 41.9671,94.1909 44.5,92.5C 42.8525,90.6736 40.8525,89.3403 38.5,88.5C 34.12,86.2999 30.12,83.4665 26.5,80C 27.8193,79.805 29.1526,79.9717 30.5,80.5 Z"/></g>
<g><path style="opacity:1" fill="#f06b5f" d="M 50.5,133.5 C 50.2089,132.351 49.3756,131.684 48,131.5C 44.4412,133.518 40.6079,134.851 36.5,135.5C 42.4384,129.864 49.4384,126.364 57.5,125C 54.5464,127.441 52.2131,130.275 50.5,133.5 Z"/></g>
<g><path style="opacity:1" fill="#d25d54" d="M 66.5,123.5 C 66.5,124.167 66.8333,124.5 67.5,124.5C 65.6452,126.033 63.8119,127.7 62,129.5C 62.4265,126.879 63.9265,124.879 66.5,123.5 Z"/></g>
<g><path style="opacity:1" fill="#e09993" d="M 47.5,88.5 C 48.1667,88.5 48.8333,88.5 49.5,88.5C 53.5102,89.8934 57.5102,91.3934 61.5,93C 56.4682,92.6004 51.8015,91.1004 47.5,88.5 Z"/></g>
<g><path style="opacity:1" fill="#f1c0a0" d="M 158.5,129.5 C 160.644,133.927 162.977,138.261 165.5,142.5C 163.219,141.392 161.052,140.058 159,138.5C 158.333,137.833 158.333,137.167 159,136.5C 159.654,137.696 160.154,137.696 160.5,136.5C 157.731,134.661 157.065,132.328 158.5,129.5 Z"/></g>
<g><path style="opacity:1" fill="#e16220" d="M 152.5,119.5 C 155.5,119.5 158.5,119.5 161.5,119.5C 161.351,120.552 161.517,121.552 162,122.5C 165.286,126.241 168.453,130.075 171.5,134C 173.843,135.746 175.843,135.579 177.5,133.5C 179.059,134.447 180.726,135.113 182.5,135.5C 188.251,134.78 194.251,134.447 200.5,134.5C 195.604,136.482 190.604,138.149 185.5,139.5C 183.847,139.66 182.514,140.326 181.5,141.5C 179.585,141.216 177.919,141.549 176.5,142.5C 172.833,142.5 169.167,142.5 165.5,142.5C 162.977,138.261 160.644,133.927 158.5,129.5C 158.334,124.937 156.334,121.603 152.5,119.5 Z"/></g>
<g><path style="opacity:1" fill="#ea4943" d="M 50.5,133.5 C 48.8333,136.833 47.1667,140.167 45.5,143.5C 41.3961,143.884 37.7294,145.384 34.5,148C 27.3749,154.595 21.7082,162.095 17.5,170.5C 17.4431,169.391 17.1098,168.391 16.5,167.5C 18.8304,156.173 23.8304,146.173 31.5,137.5C 31.56,138.043 31.8933,138.376 32.5,138.5C 33.8518,137.476 35.1851,136.476 36.5,135.5C 40.6079,134.851 44.4412,133.518 48,131.5C 49.3756,131.684 50.2089,132.351 50.5,133.5 Z"/></g>
<g><path style="opacity:1" fill="#f3ccb8" d="M 204.5,132.5 C 205.391,133.11 206.391,133.443 207.5,133.5C 208.167,134.5 208.833,135.5 209.5,136.5C 201.456,137.068 193.456,138.068 185.5,139.5C 190.604,138.149 195.604,136.482 200.5,134.5C 202.483,134.843 203.817,134.176 204.5,132.5 Z"/></g>
<g><path style="opacity:1" fill="#fbf3ef" d="M 209.5,136.5 C 214.977,138.886 219.643,142.22 223.5,146.5C 221.243,148.878 220.91,151.545 222.5,154.5C 222.833,155.833 223.167,157.167 223.5,158.5C 222.596,159.209 222.263,160.209 222.5,161.5C 221.178,161.33 220.011,161.663 219,162.5C 218.333,161.167 217.333,160.167 216,159.5C 213.768,160.187 211.602,160.521 209.5,160.5C 208.167,159.5 206.833,158.5 205.5,157.5C 203.737,157.306 201.903,157.306 200,157.5C 195.449,150.448 189.282,145.115 181.5,141.5C 182.514,140.326 183.847,139.66 185.5,139.5C 193.456,138.068 201.456,137.068 209.5,136.5 Z"/></g>
<g><path style="opacity:1" fill="#ea1d16" d="M 36.5,108.5 C 37.1944,111.581 35.861,113.914 32.5,115.5C 29.5361,117.962 26.7028,120.629 24,123.5C 18.4264,132.369 15.7598,142.036 16,152.5C 16.5164,145.86 19.0164,140.193 23.5,135.5C 29.3575,127.059 37.0242,120.725 46.5,116.5C 47.1067,116.624 47.44,116.957 47.5,117.5C 41.0572,123.276 35.7239,129.943 31.5,137.5C 23.8304,146.173 18.8304,156.173 16.5,167.5C 10.6224,149.935 8.6224,131.935 10.5,113.5C 14.8794,112.237 19.2128,110.737 23.5,109C 27.8206,108.501 32.1539,108.334 36.5,108.5 Z"/></g>
<g><path style="opacity:1" fill="#e98470" d="M 144.5,138.5 C 146.735,139.248 146.402,140.081 143.5,141C 136.765,141.705 130.265,143.205 124,145.5C 123.833,145.167 123.667,144.833 123.5,144.5C 124.665,143.416 125.998,142.583 127.5,142C 132.453,141.005 137.453,140.338 142.5,140C 143.416,139.722 144.082,139.222 144.5,138.5 Z"/></g>
<g><path style="opacity:1" fill="#120e10" d="M 167.5,148.5 C 167.389,149.117 167.056,149.617 166.5,150C 176.226,158.267 186.893,165.267 198.5,171C 199.793,171.49 201.127,171.657 202.5,171.5C 204.117,172.038 205.784,172.371 207.5,172.5C 207.158,173.338 206.492,173.672 205.5,173.5C 204.022,173.238 202.689,173.571 201.5,174.5C 203.833,177.833 206.167,181.167 208.5,184.5C 206.681,185.32 205.014,186.32 203.5,187.5C 203.414,186.504 203.748,185.671 204.5,185C 203.906,184.536 203.239,184.369 202.5,184.5C 205.804,183.593 206.138,182.093 203.5,180C 200.232,178.85 196.899,178.016 193.5,177.5C 193.953,173.574 192.62,170.408 189.5,168C 181.01,163.517 172.51,159.017 164,154.5C 163.5,154.833 163,155.167 162.5,155.5C 165.48,160.146 169.147,164.146 173.5,167.5C 175.833,169.167 177.833,171.167 179.5,173.5C 172.802,169.314 166.802,164.147 161.5,158C 158.806,158.612 156.14,158.445 153.5,157.5C 151.457,156.421 150.124,154.754 149.5,152.5C 148.373,150.083 148.373,148.083 149.5,146.5C 147.683,145.781 147.016,144.781 147.5,143.5C 154.463,147.53 155.13,146.53 149.5,140.5C 149.833,140.167 150.167,139.833 150.5,139.5C 155.054,144.747 160.721,147.747 167.5,148.5 Z"/></g>
<g><path style="opacity:1" fill="#ceb5b9" d="M 69.5,153.5 C 65.1306,156.357 61.1306,159.69 57.5,163.5C 56.7784,163.082 56.2784,162.416 56,161.5C 53.4536,165.05 49.9536,166.383 45.5,165.5C 45.6602,163.801 45.4935,162.134 45,160.5C 44.5939,163.742 43.7605,166.742 42.5,169.5C 42.5,166.5 42.5,163.5 42.5,160.5C 43.4614,158.735 43.7947,156.735 43.5,154.5C 44.9758,152.231 46.4758,149.898 48,147.5C 48.6543,146.304 49.1543,146.304 49.5,147.5C 48.6744,148.451 48.5078,149.451 49,150.5C 51.3333,147.5 53.6667,144.5 56,141.5C 56.9138,142.654 57.7471,142.487 58.5,141C 68.3445,139.917 78.0112,140.75 87.5,143.5C 83.6282,145.602 79.6282,147.436 75.5,149C 72.7335,150.431 70.7335,151.931 69.5,153.5 Z"/></g>
<g><path style="opacity:1" fill="#6d6d71" d="M 149.5,146.5 C 148.373,148.083 148.373,150.083 149.5,152.5C 148.082,150.813 146.749,148.98 145.5,147C 147.019,147.331 148.352,147.164 149.5,146.5 Z"/></g>
<g><path style="opacity:1" fill="#0d0c11" d="M 225.5,135.5 C 229.425,140.323 233.591,144.99 238,149.5C 240.009,152.95 239.842,156.283 237.5,159.5C 235.25,159.181 233.25,159.681 231.5,161C 232.737,161.232 233.737,161.732 234.5,162.5C 232.611,163.604 230.945,164.937 229.5,166.5C 227.899,163.876 226.232,161.21 224.5,158.5C 226.984,156.972 226.818,155.306 224,153.5C 223.617,154.056 223.117,154.389 222.5,154.5C 220.91,151.545 221.243,148.878 223.5,146.5C 225.296,145.207 226.963,143.707 228.5,142C 227.36,140.027 226.027,138.193 224.5,136.5C 224.624,135.893 224.957,135.56 225.5,135.5 Z"/></g>
<g><path style="opacity:1" fill="#1d2b49" d="M 228.5,143.5 C 231.407,144.734 233.741,146.734 235.5,149.5C 233.234,150.206 230.901,150.039 228.5,149C 227.248,147.172 227.248,145.339 228.5,143.5 Z"/></g>
<g><path style="opacity:1" fill="#bc3f3b" d="M 45.5,143.5 C 44.6766,146.461 44.01,149.461 43.5,152.5C 42.6981,153.952 42.1981,155.618 42,157.5C 40.1881,159.3 38.3548,160.967 36.5,162.5C 32.1018,164.725 28.1018,167.559 24.5,171C 24.7284,171.399 25.0618,171.565 25.5,171.5C 23.5,172.833 21.8333,174.5 20.5,176.5C 19.5,174.5 18.5,172.5 17.5,170.5C 21.7082,162.095 27.3749,154.595 34.5,148C 37.7294,145.384 41.3961,143.884 45.5,143.5 Z"/></g>
<g><path style="opacity:1" fill="#efeaea" d="M 176.5,142.5 C 177.919,141.549 179.585,141.216 181.5,141.5C 189.282,145.115 195.449,150.448 200,157.5C 201.903,157.306 203.737,157.306 205.5,157.5C 206.833,158.5 208.167,159.5 209.5,160.5C 211.602,160.521 213.768,160.187 216,159.5C 217.333,160.167 218.333,161.167 219,162.5C 220.011,161.663 221.178,161.33 222.5,161.5C 222.263,160.209 222.596,159.209 223.5,158.5C 223.833,158.5 224.167,158.5 224.5,158.5C 226.232,161.21 227.899,163.876 229.5,166.5C 229.167,167.5 228.5,168.167 227.5,168.5C 221.459,173.011 214.792,174.344 207.5,172.5C 205.784,172.371 204.117,172.038 202.5,171.5C 189.795,165.47 178.128,157.804 167.5,148.5C 167.082,147.778 166.416,147.278 165.5,147C 170.637,146.293 175.637,146.793 180.5,148.5C 181.833,148.167 183.167,147.833 184.5,147.5C 182.822,144.139 180.155,142.472 176.5,142.5 Z"/></g>
<g><path style="opacity:1" fill="#787d80" d="M 224.5,158.5 C 224.167,158.5 223.833,158.5 223.5,158.5C 223.167,157.167 222.833,155.833 222.5,154.5C 223.117,154.389 223.617,154.056 224,153.5C 226.818,155.306 226.984,156.972 224.5,158.5 Z"/></g>
<g><path style="opacity:1" fill="#ecd7d5" d="M 145.5,173.5 C 144.476,172.862 143.476,172.195 142.5,171.5C 137.447,172.113 132.447,172.78 127.5,173.5C 125.856,174.366 124.189,174.866 122.5,175C 124.208,172.957 126.208,171.29 128.5,170C 123.264,168.661 117.93,168.161 112.5,168.5C 112.062,168.565 111.728,168.399 111.5,168C 112.833,167.333 114.167,166.667 115.5,166C 109.899,164.783 104.232,164.283 98.5,164.5C 98.631,163.761 98.4643,163.094 98,162.5C 89.7927,163.937 82.4593,167.271 76,172.5C 79.9188,165.062 85.0855,158.395 91.5,152.5C 91.369,153.239 91.5357,153.906 92,154.5C 94.166,152.879 96.666,152.045 99.5,152C 104.833,151.333 110.167,151.333 115.5,152C 111.462,152.899 107.795,154.566 104.5,157C 102.046,158.74 100.546,160.907 100,163.5C 101.719,161.443 103.719,159.776 106,158.5C 109.145,159.411 112.312,160.245 115.5,161C 116.257,162.512 117.257,163.846 118.5,165C 128.972,166.46 139.472,167.627 150,168.5C 151.607,168.769 152.774,169.603 153.5,171C 151.167,171.333 148.833,171.667 146.5,172C 145.944,172.383 145.611,172.883 145.5,173.5 Z"/></g>
<g><path style="opacity:1" fill="#876a6e" d="M 43.5,152.5 C 43.5,153.167 43.5,153.833 43.5,154.5C 43.7947,156.735 43.4614,158.735 42.5,160.5C 42.5654,160.062 42.3988,159.728 42,159.5C 40.6487,161.019 39.1487,162.352 37.5,163.5C 36.8933,163.376 36.56,163.043 36.5,162.5C 38.3548,160.967 40.1881,159.3 42,157.5C 42.1981,155.618 42.6981,153.952 43.5,152.5 Z"/></g>
<g><path style="opacity:1" fill="#2c2328" d="M 153.5,157.5 C 156.14,158.445 158.806,158.612 161.5,158C 166.802,164.147 172.802,169.314 179.5,173.5C 180.833,173.833 182.167,174.167 183.5,174.5C 186.697,175.112 188.031,177.112 187.5,180.5C 189.685,180.704 191.685,181.37 193.5,182.5C 195.857,184.098 198.523,185.098 201.5,185.5C 200.081,186.451 198.415,186.784 196.5,186.5C 195.127,186.657 193.793,186.49 192.5,186C 179.598,176.25 166.598,166.75 153.5,157.5 Z"/></g>
<g><path style="opacity:1" fill="#7b7c7f" d="M 237.5,159.5 C 236.833,160.833 235.833,161.833 234.5,162.5C 233.737,161.732 232.737,161.232 231.5,161C 233.25,159.681 235.25,159.181 237.5,159.5 Z"/></g>
<g><path style="opacity:1" fill="#2d0809" d="M 42.5,160.5 C 42.5,163.5 42.5,166.5 42.5,169.5C 43.3242,172.764 43.6576,176.098 43.5,179.5C 39.5468,176.721 35.7135,173.721 32,170.5C 30.0561,171.439 28.3894,172.773 27,174.5C 26.6012,174.272 26.4346,173.938 26.5,173.5C 28.0311,172.075 27.6977,171.409 25.5,171.5C 25.0618,171.565 24.7284,171.399 24.5,171C 28.1018,167.559 32.1018,164.725 36.5,162.5C 36.56,163.043 36.8933,163.376 37.5,163.5C 39.1487,162.352 40.6487,161.019 42,159.5C 42.3988,159.728 42.5654,160.062 42.5,160.5 Z"/></g>
<g><path style="opacity:1" fill="#caaeb2" d="M 98.5,164.5 C 104.232,164.283 109.899,164.783 115.5,166C 114.167,166.667 112.833,167.333 111.5,168C 111.728,168.399 112.062,168.565 112.5,168.5C 111.749,169.573 110.749,169.74 109.5,169C 109.833,168.667 110.167,168.333 110.5,168C 105.881,167.306 101.381,167.806 97,169.5C 96.5,169.333 96,169.167 95.5,169C 96.3994,167.348 97.3994,165.848 98.5,164.5 Z"/></g>
<g><path style="opacity:1" fill="#edebec" d="M 173.5,167.5 C 178.789,166.389 182.123,168.722 183.5,174.5C 182.167,174.167 180.833,173.833 179.5,173.5C 177.833,171.167 175.833,169.167 173.5,167.5 Z"/></g>
<g><path style="opacity:1" fill="#4e4c56" d="M 167.5,148.5 C 178.128,157.804 189.795,165.47 202.5,171.5C 201.127,171.657 199.793,171.49 198.5,171C 186.893,165.267 176.226,158.267 166.5,150C 167.056,149.617 167.389,149.117 167.5,148.5 Z"/></g>
<g><path style="opacity:1" fill="#7a6578" d="M 91.5,152.5 C 85.0855,158.395 79.9188,165.062 76,172.5C 82.4593,167.271 89.7927,163.937 98,162.5C 98.4643,163.094 98.631,163.761 98.5,164.5C 97.3994,165.848 96.3994,167.348 95.5,169C 96,169.167 96.5,169.333 97,169.5C 101.381,167.806 105.881,167.306 110.5,168C 110.167,168.333 109.833,168.667 109.5,169C 110.749,169.74 111.749,169.573 112.5,168.5C 117.93,168.161 123.264,168.661 128.5,170C 126.208,171.29 124.208,172.957 122.5,175C 124.189,174.866 125.856,174.366 127.5,173.5C 130.587,174.053 133.087,175.72 135,178.5C 136,178.167 137,177.833 138,177.5C 138.309,178.766 138.809,179.933 139.5,181C 133.403,182.367 127.57,184.533 122,187.5C 120.39,185.511 118.557,185.178 116.5,186.5C 115.201,185.91 114.368,184.91 114,183.5C 107.994,183.563 102.494,185.563 97.5,189.5C 97.1757,188.188 96.5091,187.355 95.5,187C 95.7355,186.127 96.0688,185.293 96.5,184.5C 95.9984,183.479 95.3317,183.312 94.5,184C 92.1943,189.259 90.361,194.759 89,200.5C 85.5404,201.886 82.0404,202.22 78.5,201.5C 77.4793,202.901 76.4793,204.235 75.5,205.5C 75.6653,201.818 75.4986,198.152 75,194.5C 73.4987,200.185 71.9987,205.851 70.5,211.5C 66.1026,206.705 63.2693,201.039 62,194.5C 61.5269,197.951 62.0269,201.285 63.5,204.5C 63.0302,205.463 62.3635,205.463 61.5,204.5C 60.8333,201.833 60.1667,199.167 59.5,196.5C 58.2185,189.912 57.3852,183.245 57,176.5C 56.8255,181.351 56.3255,186.018 55.5,190.5C 53.8491,182.311 54.5157,174.311 57.5,166.5C 57.3764,165.893 57.0431,165.56 56.5,165.5C 56.8333,164.833 57.1667,164.167 57.5,163.5C 61.1306,159.69 65.1306,156.357 69.5,153.5C 73.7446,151.475 78.0779,149.975 82.5,149C 75.073,152.926 69.073,158.426 64.5,165.5C 64.8333,165.833 65.1667,166.167 65.5,166.5C 73.043,158.888 82.043,153.555 92.5,150.5C 93.3998,151.357 93.0664,152.024 91.5,152.5 Z"/></g>
<g><path style="opacity:1" fill="#9b8994" d="M 57.5,163.5 C 57.1667,164.167 56.8333,164.833 56.5,165.5C 52.5502,172.738 49.2169,180.071 46.5,187.5C 45.871,184.603 44.871,181.936 43.5,179.5C 43.6576,176.098 43.3242,172.764 42.5,169.5C 43.7605,166.742 44.5939,163.742 45,160.5C 45.4935,162.134 45.6602,163.801 45.5,165.5C 49.9536,166.383 53.4536,165.05 56,161.5C 56.2784,162.416 56.7784,163.082 57.5,163.5 Z"/></g>
<g><path style="opacity:1" fill="#e398a6" d="M 193.5,177.5 C 193.5,179.167 193.5,180.833 193.5,182.5C 191.685,181.37 189.685,180.704 187.5,180.5C 188.031,177.112 186.697,175.112 183.5,174.5C 182.123,168.722 178.789,166.389 173.5,167.5C 169.147,164.146 165.48,160.146 162.5,155.5C 163,155.167 163.5,154.833 164,154.5C 172.51,159.017 181.01,163.517 189.5,168C 192.62,170.408 193.953,173.574 193.5,177.5 Z"/></g>
<g><path style="opacity:1" fill="#61616a" d="M 227.5,168.5 C 227.586,169.496 227.252,170.329 226.5,171C 219.666,175.083 212.666,175.917 205.5,173.5C 206.492,173.672 207.158,173.338 207.5,172.5C 214.792,174.344 221.459,173.011 227.5,168.5 Z"/></g>
<g><path style="opacity:1" fill="#27090b" d="M 56.5,165.5 C 57.0431,165.56 57.3764,165.893 57.5,166.5C 54.5157,174.311 53.8491,182.311 55.5,190.5C 56.0305,192.924 56.8638,195.257 58,197.5C 58.3826,196.944 58.8826,196.611 59.5,196.5C 60.1667,199.167 60.8333,201.833 61.5,204.5C 56.7609,200.089 52.0943,195.755 47.5,191.5C 47.5674,190.041 47.2341,188.708 46.5,187.5C 49.2169,180.071 52.5502,172.738 56.5,165.5 Z"/></g>
<g><path style="opacity:1" fill="#2d090b" d="M 193.5,177.5 C 196.899,178.016 200.232,178.85 203.5,180C 206.138,182.093 205.804,183.593 202.5,184.5C 202.5,185.167 202.167,185.5 201.5,185.5C 198.523,185.098 195.857,184.098 193.5,182.5C 193.5,180.833 193.5,179.167 193.5,177.5 Z"/></g>
<g><path style="opacity:1" fill="#6d5b6f" d="M 145.5,173.5 C 153.846,175.892 162.179,178.392 170.5,181C 178.566,186.933 187.566,189.267 197.5,188C 196.944,187.617 196.611,187.117 196.5,186.5C 198.415,186.784 200.081,186.451 201.5,185.5C 202.167,185.5 202.5,185.167 202.5,184.5C 203.239,184.369 203.906,184.536 204.5,185C 203.748,185.671 203.414,186.504 203.5,187.5C 199.786,190.69 195.453,192.857 190.5,194C 186.549,197.737 185.383,202.237 187,207.5C 185.983,205.624 185.149,203.624 184.5,201.5C 183.205,203.328 182.205,205.328 181.5,207.5C 178.366,205.246 176.2,202.246 175,198.5C 173.334,199.34 173.167,198.84 174.5,197C 170.062,197.023 165.729,197.857 161.5,199.5C 160.833,198.833 160.167,198.167 159.5,197.5C 154.722,198.773 150.889,201.439 148,205.5C 147.837,203.613 148.671,202.113 150.5,201C 145.052,201.48 140.552,203.98 137,208.5C 138.538,204.246 141.038,200.413 144.5,197C 136.216,198.266 129.716,202.433 125,209.5C 124.667,210.833 124.333,212.167 124,213.5C 122.353,207.616 121.353,201.616 121,195.5C 120.051,197.093 118.885,198.426 117.5,199.5C 116.883,199.611 116.383,199.944 116,200.5C 115.805,198.793 115.805,197.126 116,195.5C 113.256,198.254 110.256,200.588 107,202.5C 104.845,201.317 102.845,201.65 101,203.5C 99.2041,202.233 97.3707,202.233 95.5,203.5C 94.343,200.216 94.1764,196.882 95,193.5C 95.2004,191.68 96.0337,190.347 97.5,189.5C 102.494,185.563 107.994,183.563 114,183.5C 114.368,184.91 115.201,185.91 116.5,186.5C 118.557,185.178 120.39,185.511 122,187.5C 127.57,184.533 133.403,182.367 139.5,181C 138.809,179.933 138.309,178.766 138,177.5C 137,177.833 136,178.167 135,178.5C 133.087,175.72 130.587,174.053 127.5,173.5C 132.447,172.78 137.447,172.113 142.5,171.5C 143.476,172.195 144.476,172.862 145.5,173.5 Z"/></g>
<g><path style="opacity:1" fill="#6e2a24" d="M 43.5,179.5 C 44.871,181.936 45.871,184.603 46.5,187.5C 44.3455,185.383 43.3455,182.716 43.5,179.5 Z"/></g>
<g><path style="opacity:1" fill="#4d3f4d" d="M 59.5,196.5 C 58.8826,196.611 58.3826,196.944 58,197.5C 56.8638,195.257 56.0305,192.924 55.5,190.5C 56.3255,186.018 56.8255,181.351 57,176.5C 57.3852,183.245 58.2185,189.912 59.5,196.5 Z"/></g>
<g><path style="opacity:1" fill="#d22f12" d="M 25.5,171.5 C 27.6977,171.409 28.0311,172.075 26.5,173.5C 25.0384,174.458 23.7051,175.624 22.5,177C 24.3425,176.421 26.3425,175.921 28.5,175.5C 31.3815,176.858 34.3815,178.025 37.5,179C 42.974,183.775 45.8074,189.609 46,196.5C 41.6729,195.835 37.1729,195.835 32.5,196.5C 27.4972,190.505 23.4972,183.838 20.5,176.5C 21.8333,174.5 23.5,172.833 25.5,171.5 Z"/></g>
<g><path style="opacity:1" fill="#bb2e14" d="M 43.5,179.5 C 43.3455,182.716 44.3455,185.383 46.5,187.5C 47.2341,188.708 47.5674,190.041 47.5,191.5C 49.3629,195.755 51.0296,200.088 52.5,204.5C 52.5,205.5 52.5,206.5 52.5,207.5C 50.4534,207.511 48.4534,207.844 46.5,208.5C 44.484,207.822 42.484,207.156 40.5,206.5C 37.3552,203.54 34.6885,200.207 32.5,196.5C 37.1729,195.835 41.6729,195.835 46,196.5C 45.8074,189.609 42.974,183.775 37.5,179C 34.3815,178.025 31.3815,176.858 28.5,175.5C 26.3425,175.921 24.3425,176.421 22.5,177C 23.7051,175.624 25.0384,174.458 26.5,173.5C 26.4346,173.938 26.6012,174.272 27,174.5C 28.3894,172.773 30.0561,171.439 32,170.5C 35.7135,173.721 39.5468,176.721 43.5,179.5 Z"/></g>
<g><path style="opacity:1" fill="#5d4a5e" d="M 97.5,189.5 C 96.0337,190.347 95.2004,191.68 95,193.5C 94.1764,196.882 94.343,200.216 95.5,203.5C 97.3707,202.233 99.2041,202.233 101,203.5C 102.845,201.65 104.845,201.317 107,202.5C 110.256,200.588 113.256,198.254 116,195.5C 115.805,197.126 115.805,198.793 116,200.5C 116.383,199.944 116.883,199.611 117.5,199.5C 115.284,204.928 114.117,210.594 114,216.5C 112.898,212.584 112.231,208.584 112,204.5C 109.505,208.485 108.338,212.818 108.5,217.5C 107.778,217.082 107.278,216.416 107,215.5C 106.077,216.759 105.243,218.092 104.5,219.5C 101.639,218.596 98.4726,218.929 95,220.5C 94.5291,218.754 93.8624,217.087 93,215.5C 93.257,218.343 93.0904,221.01 92.5,223.5C 90.1764,220.196 87.843,216.862 85.5,213.5C 84.5091,217.445 84.1758,221.445 84.5,225.5C 84.4827,227.028 83.816,227.528 82.5,227C 80.2805,224.287 78.2805,221.454 76.5,218.5C 75.6274,214.232 75.2941,209.898 75.5,205.5C 76.4793,204.235 77.4793,202.901 78.5,201.5C 82.0404,202.22 85.5404,201.886 89,200.5C 90.361,194.759 92.1943,189.259 94.5,184C 95.3317,183.312 95.9984,183.479 96.5,184.5C 96.0688,185.293 95.7355,186.127 95.5,187C 96.5091,187.355 97.1757,188.188 97.5,189.5 Z"/></g>
<g><path style="opacity:1" fill="#99230d" d="M 52.5,204.5 C 56.1448,208.834 58.4781,213.834 59.5,219.5C 54.2526,217.776 49.9193,214.61 46.5,210C 45.5632,209.308 44.8966,209.475 44.5,210.5C 42.8333,209.5 41.5,208.167 40.5,206.5C 42.484,207.156 44.484,207.822 46.5,208.5C 48.4534,207.844 50.4534,207.511 52.5,207.5C 52.5,206.5 52.5,205.5 52.5,204.5 Z"/></g>
<g><path style="opacity:1" fill="#5e1f0f" d="M 47.5,191.5 C 52.0943,195.755 56.7609,200.089 61.5,204.5C 63.7851,207.452 66.4517,210.118 69.5,212.5C 69.4142,213.496 69.7476,214.329 70.5,215C 69.2341,215.309 68.0674,215.809 67,216.5C 66.6667,216.167 66.3333,215.833 66,215.5C 64.702,216.56 63.5353,217.726 62.5,219C 64.6479,222.643 66.9812,226.143 69.5,229.5C 59.7412,225.079 51.4079,218.745 44.5,210.5C 44.8966,209.475 45.5632,209.308 46.5,210C 49.9193,214.61 54.2526,217.776 59.5,219.5C 58.4781,213.834 56.1448,208.834 52.5,204.5C 51.0296,200.088 49.3629,195.755 47.5,191.5 Z"/></g>
<g><path style="opacity:1" fill="#211518" d="M 75.5,205.5 C 75.2941,209.898 75.6274,214.232 76.5,218.5C 74.1667,216.5 71.8333,214.5 69.5,212.5C 66.4517,210.118 63.7851,207.452 61.5,204.5C 62.3635,205.463 63.0302,205.463 63.5,204.5C 62.0269,201.285 61.5269,197.951 62,194.5C 63.2693,201.039 66.1026,206.705 70.5,211.5C 71.9987,205.851 73.4987,200.185 75,194.5C 75.4986,198.152 75.6653,201.818 75.5,205.5 Z"/></g>
<g><path style="opacity:1" fill="#0e0506" d="M 92.5,223.5 C 95.7863,227.835 99.453,232.002 103.5,236C 105.078,237.094 106.745,237.928 108.5,238.5C 109.585,240.587 111.251,241.92 113.5,242.5C 111.735,243.461 109.735,243.795 107.5,243.5C 99.5508,242.511 91.8841,240.511 84.5,237.5C 83.833,235.181 83.6664,232.847 84,230.5C 85.3675,232.815 86.2009,232.815 86.5,230.5C 86.1992,228.578 85.5325,226.912 84.5,225.5C 84.1758,221.445 84.5091,217.445 85.5,213.5C 87.843,216.862 90.1764,220.196 92.5,223.5 Z"/></g>
<g><path style="opacity:1" fill="#35130b" d="M 69.5,212.5 C 71.8333,214.5 74.1667,216.5 76.5,218.5C 78.2805,221.454 80.2805,224.287 82.5,227C 83.816,227.528 84.4827,227.028 84.5,225.5C 85.5325,226.912 86.1992,228.578 86.5,230.5C 86.2009,232.815 85.3675,232.815 84,230.5C 83.6664,232.847 83.833,235.181 84.5,237.5C 79.0203,235.595 74.0203,232.929 69.5,229.5C 66.9812,226.143 64.6479,222.643 62.5,219C 63.5353,217.726 64.702,216.56 66,215.5C 66.3333,215.833 66.6667,216.167 67,216.5C 68.0674,215.809 69.2341,215.309 70.5,215C 69.7476,214.329 69.4142,213.496 69.5,212.5 Z"/></g>
<g><path style="opacity:1" fill="#3d3140" d="M 108.5,217.5 C 108.629,220.766 109.629,223.766 111.5,226.5C 111.333,226.833 111.167,227.167 111,227.5C 109.257,225.679 107.757,223.679 106.5,221.5C 104.89,227.473 105.557,233.139 108.5,238.5C 106.745,237.928 105.078,237.094 103.5,236C 99.453,232.002 95.7863,227.835 92.5,223.5C 93.0904,221.01 93.257,218.343 93,215.5C 93.8624,217.087 94.5291,218.754 95,220.5C 98.4726,218.929 101.639,218.596 104.5,219.5C 105.243,218.092 106.077,216.759 107,215.5C 107.278,216.416 107.778,217.082 108.5,217.5 Z"/></g>
<g><path style="opacity:1" fill="#6b6364" d="M 113.5,242.5 C 114.873,242.343 116.207,242.51 117.5,243C 114.106,244.684 110.772,244.851 107.5,243.5C 109.735,243.795 111.735,243.461 113.5,242.5 Z"/></g>
</svg>
