<?xml version="1.0" encoding="utf-8" ?>
<svg baseProfile="full" height="1000" version="1.1" width="1000" xmlns="http://www.w3.org/2000/svg" xmlns:ev="http://www.w3.org/2001/xml-events" xmlns:xlink="http://www.w3.org/1999/xlink"><defs /><rect fill="gray" height="1000" width="150" x="225.0" y="0" /><rect fill="gray" height="1000" width="150" x="475.0" y="0" /><line stroke="gray" stroke-dasharray="5,5" stroke-width="5" x1="725.0" x2="725.0" y1="1000" y2="550" /><line stroke="gray" stroke-dasharray="5,5" stroke-width="5" x1="875.0" x2="875.0" y1="1000" y2="550" /><rect fill="gray" height="100" width="400" x="475" y="450" /><rect fill="gray" height="500" width="150" x="725.0" y="-50" /><line stroke="grey" stroke-dasharray="5,5" stroke-width="8" x1="385" x2="465" y1="800" y2="800" /><polygon fill="grey" points="475,800 450,825 450,775" stroke-width="0" /><polygon fill="grey" points="375,800 400,825 400,775" stroke-width="0" /><line stroke="grey" stroke-dasharray="5,5" stroke-width="8" x1="385" x2="465" y1="600" y2="600" /><polygon fill="grey" points="475,600 450,625 450,575" stroke-width="0" /><polygon fill="grey" points="375,600 400,625 400,575" stroke-width="0" /><line stroke="grey" stroke-dasharray="5,5" stroke-width="8" x1="385" x2="465" y1="400" y2="400" /><polygon fill="grey" points="475,400 450,425 450,375" stroke-width="0" /><polygon fill="grey" points="375,400 400,425 400,375" stroke-width="0" /><line stroke="grey" stroke-dasharray="5,5" stroke-width="8" x1="385" x2="465" y1="200" y2="200" /><polygon fill="grey" points="475,200 450,225 450,175" stroke-width="0" /><polygon fill="grey" points="375,200 400,225 400,175" stroke-width="0" /><line stroke="black" stroke-dasharray="5,5" stroke-width="3" x1="150" x2="225" y1="500" y2="500" /><text font-family="sans" font-size="50" text-anchor="start" x="20" y="515">0.50</text><rect fill="none" height="50" stroke="black" stroke-width="10" width="150" x="225.0" y="945" /><text font-family="sans" font-size="40" text-anchor="middle" x="300" y="985">n=20</text><rect fill="none" height="50" stroke="black" stroke-dasharray="5,5" stroke-width="5" width="150" x="475.0" y="945" /><text font-family="sans" font-size="40" text-anchor="middle" x="550" y="985">n=0</text><rect fill="none" height="50" stroke="black" stroke-dasharray="5,5" stroke-width="5" width="150" x="725.0" y="945" /><text font-family="sans" font-size="40" text-anchor="middle" x="800" y="985">n=0</text><line stroke="black" stroke-width="8" x1="150" x2="150" y1="10" y2="1000" /><polygon fill="black" points="150,0 125,50 175,50" stroke-width="0" /></svg>