<?xml version="1.0" encoding="utf-8" ?>
<svg baseProfile="full" height="1000" version="1.1" width="1000" xmlns="http://www.w3.org/2000/svg" xmlns:ev="http://www.w3.org/2001/xml-events" xmlns:xlink="http://www.w3.org/1999/xlink"><defs /><rect fill="gray" height="200" width="150" x="225.0" y="800" /><rect fill="gray" height="1000" width="150" x="475.0" y="0" /><rect fill="gray" height="800" width="150" x="725.0" y="200" /><rect fill="none" height="50" stroke="black" stroke-width="10" width="150" x="225.0" y="945" /><text font-family="sans" font-size="40" text-anchor="middle" x="300" y="985">n=2*4</text><rect fill="none" height="50" stroke="black" stroke-width="10" width="150" x="475.0" y="945" /><text font-family="sans" font-size="40" text-anchor="middle" x="550" y="985">n=2*4</text><rect fill="none" height="50" stroke="black" stroke-width="10" width="150" x="725.0" y="945" /><text font-family="sans" font-size="40" text-anchor="middle" x="800" y="985">n=2*1</text><rect fill="gray" height="100" width="400" x="225" y="700" /><line stroke="black" stroke-dasharray="5,5" stroke-width="4" x1="300" x2="540" y1="750" y2="750" /><polygon fill="black" points="550,750 475,765 475,735" stroke-width="0" /><line stroke="black" stroke-dasharray="5,5" stroke-width="4" x1="300" x2="300" y1="950" y2="750" /><line stroke="gray" stroke-dasharray="5,5" stroke-width="5" x1="225.0" x2="225.0" y1="700" y2="0" /><line stroke="gray" stroke-dasharray="5,5" stroke-width="5" x1="375.0" x2="375.0" y1="700" y2="0" /><line stroke="black" stroke-dasharray="5,5" stroke-width="3" x1="150" x2="225" y1="750" y2="750" /><text font-family="sans" font-size="50" text-anchor="start" x="50" y="765">0.5</text><rect fill="gray" height="100" width="400" x="475" y="100" /><line stroke="black" stroke-dasharray="5,5" stroke-width="4" x1="800" x2="560" y1="150" y2="150" /><polygon fill="black" points="550,150 625,165 625,135" stroke-width="0" /><line stroke="black" stroke-dasharray="5,5" stroke-width="4" x1="800" x2="800" y1="350" y2="150" /><line stroke="gray" stroke-dasharray="5,5" stroke-width="5" x1="725.0" x2="725.0" y1="100" y2="0" /><line stroke="gray" stroke-dasharray="5,5" stroke-width="5" x1="875.0" x2="875.0" y1="100" y2="0" /><line stroke="black" stroke-dasharray="5,5" stroke-width="3" x1="150" x2="475" y1="150" y2="150" /><text font-family="sans" font-size="50" text-anchor="start" x="50" y="165">3.0</text><line stroke="black" stroke-width="8" x1="150" x2="150" y1="10" y2="1000" /><polygon fill="black" points="150,0 125,50 175,50" stroke-width="0" /></svg>