<?xml version="1.0" encoding="utf-8" ?>
<svg baseProfile="full" height="1000" version="1.1" width="1000" xmlns="http://www.w3.org/2000/svg" xmlns:ev="http://www.w3.org/2001/xml-events" xmlns:xlink="http://www.w3.org/1999/xlink"><defs /><rect fill="gray" height="1000" width="200" x="300.0" y="0" /><line stroke="gray" stroke-dasharray="5,5" stroke-width="5" x1="700.0" x2="700.0" y1="1000" y2="700" /><line stroke="gray" stroke-dasharray="5,5" stroke-width="5" x1="900.0" x2="900.0" y1="1000" y2="700" /><rect fill="gray" height="475" width="200" x="700.0" y="250" /><rect fill="gray" height="100" width="600" x="300.0" y="150" /><line stroke="gray" stroke-dasharray="5,5" stroke-width="5" x1="700.0" x2="700.0" y1="150" y2="0" /><line stroke="gray" stroke-dasharray="5,5" stroke-width="5" x1="900.0" x2="900.0" y1="150" y2="0" /><line stroke="black" stroke-dasharray="5,5" stroke-width="4" x1="800" x2="410" y1="200" y2="200" /><polygon fill="black" points="400,200 475,215 475,185" stroke-width="0" /><line stroke="black" stroke-dasharray="5,5" stroke-width="4" x1="800" x2="800" y1="400" y2="200" /><rect fill="none" height="50" stroke="black" stroke-width="10" width="200" x="300.0" y="945" /><text font-family="sans" font-size="40" text-anchor="middle" x="400" y="985">n=20</text><rect fill="none" height="50" stroke="black" stroke-width="10" width="200" x="700.0" y="675" /><text font-family="sans" font-size="40" text-anchor="middle" x="800" y="715">n=20</text><line stroke="black" stroke-dasharray="5,5" stroke-width="3" x1="150" x2="300" y1="700" y2="700" /><text font-family="sans" font-size="50" text-anchor="start" x="50" y="715">0.2</text><line stroke="black" stroke-dasharray="5,5" stroke-width="3" x1="500" x2="700" y1="700" y2="700" /><line stroke="black" stroke-dasharray="5,5" stroke-width="3" x1="150" x2="300" y1="200" y2="200" /><text font-family="sans" font-size="50" text-anchor="start" x="50" y="215">1.0</text><line stroke="black" stroke-width="8" x1="150" x2="150" y1="10" y2="1000" /><polygon fill="black" points="150,0 125,50 175,50" stroke-width="0" /></svg>