<svg xmlns="http://www.w3.org/2000/svg" xmlns:xlink="http://www.w3.org/1999/xlink" width="1920" zoomAndPan="magnify" viewBox="0 0 1440 809.999993" height="1080" preserveAspectRatio="xMidYMid meet" version="1.0"><defs><filter x="0%" y="0%" width="100%" height="100%" id="056eed377f"><feColorMatrix values="0 0 0 0 1 0 0 0 0 1 0 0 0 0 1 0 0 0 1 0" color-interpolation-filters="sRGB"/></filter><mask id="c7df679303"><g filter="url(#056eed377f)"><rect x="-144" width="1728" fill="#000000" y="-80.999999" height="971.999992" fill-opacity="0.32"/></g></mask><clipPath id="97b6b249fe"><path d="M 200 325 L 575.761719 325 L 575.761719 693 L 200 693 Z M 200 325 " clip-rule="nonzero"/></clipPath><clipPath id="0d4e51999c"><path d="M 0 0.121094 L 421 0.121094 L 421 490 L 0 490 Z M 0 0.121094 " clip-rule="nonzero"/></clipPath><clipPath id="b168c9e6a0"><rect x="0" width="576" y="0" height="693"/></clipPath><clipPath id="88e514d330"><path d="M 351 292 L 678.75 292 L 678.75 798 L 351 798 Z M 351 292 " clip-rule="nonzero"/></clipPath></defs><g mask="url(#c7df679303)"><g transform="matrix(1, 0, 0, 1, 0, 117)"><g clip-path="url(#b168c9e6a0)"><path fill="#ffffff" d="M 98.945312 682.160156 L 88.101562 693 L 92.292969 693 L 99.828125 685.464844 L 127.945312 693 L 139.382812 693 Z M 98.945312 682.160156 " fill-opacity="1" fill-rule="nonzero"/><path fill="#ffffff" d="M 286.554688 141.375 L 285.46875 137.339844 L 282.347656 125.675781 L 233.453125 112.574219 L 197.660156 148.363281 L 206.839844 182.675781 L 207.925781 186.71875 L 210.757812 197.292969 L 237.5625 204.46875 L 242.113281 205.691406 L 259.652344 210.390625 L 295.445312 174.597656 Z M 258.769531 207.054688 L 240.488281 202.15625 L 235.9375 200.9375 L 213.175781 194.835938 L 211.234375 187.570312 L 210.148438 183.535156 L 200.960938 149.253906 L 234.335938 115.875 L 279.929688 128.09375 L 283.050781 139.757812 L 284.128906 143.792969 L 292.136719 173.683594 Z M 258.769531 207.054688 " fill-opacity="1" fill-rule="nonzero"/><g clip-path="url(#97b6b249fe)"><path fill="#ffffff" d="M 560.273438 641.28125 L 556.949219 628.875 L 516.347656 617.992188 L 512.3125 616.90625 L 509.632812 616.191406 L 501.199219 592.832031 L 499.707031 588.683594 L 466.589844 496.917969 L 501.109375 462.398438 L 500.132812 458.75 L 499.046875 454.710938 L 488.449219 415.160156 L 528.320312 375.304688 L 554.875 382.417969 L 575.539062 361.761719 L 567.972656 333.539062 L 539.753906 325.976562 L 519.09375 346.636719 L 526.207031 373.207031 L 486.339844 413.074219 L 439.09375 400.414062 L 403.308594 436.207031 L 415.960938 483.453125 L 363.429688 535.992188 L 354.027344 533.472656 L 349.992188 532.394531 L 270.125 510.988281 L 212.988281 568.128906 L 210.023438 571.089844 L 200.601562 580.515625 L 225.820312 674.625 L 226.039062 675.457031 L 291.492188 693 L 302.972656 693 L 228.488281 673.042969 L 203.925781 581.386719 L 271.019531 514.292969 L 350.894531 535.695312 L 354.929688 536.777344 L 362.671875 538.851562 L 387.234375 630.503906 L 324.714844 693 L 328.902344 693 L 390.546875 631.394531 L 365.539062 538.082031 L 413.304688 490.292969 L 418.078125 485.550781 L 457.628906 496.148438 L 461.664062 497.234375 L 463.746094 497.789062 L 496.195312 587.734375 L 497.695312 591.882812 L 506.769531 617.039062 L 472.246094 651.5625 L 473.941406 657.882812 L 475.019531 661.917969 L 483.371094 693 L 486.433594 693 L 478.34375 662.808594 L 477.265625 658.769531 L 475.570312 652.445312 L 508.941406 619.078125 L 513.203125 620.222656 L 517.238281 621.300781 L 554.53125 631.292969 L 557.007812 640.53125 L 558.070312 644.488281 L 566.730469 676.878906 L 550.609375 693 L 554.804688 693 L 570.035156 677.765625 L 561.316406 645.226562 Z M 522.414062 347.496094 L 540.648438 329.257812 L 565.542969 335.933594 L 572.21875 360.828125 L 553.980469 379.070312 L 529.085938 372.390625 Z M 464.089844 494.78125 L 460.046875 493.699219 L 418.84375 482.660156 L 406.625 437.074219 L 440 403.699219 L 485.585938 415.914062 L 496.628906 457.101562 L 497.714844 461.132812 L 497.804688 461.476562 L 464.433594 494.851562 Z M 464.089844 494.78125 " fill-opacity="1" fill-rule="nonzero"/></g><g clip-path="url(#0d4e51999c)"><path fill="#ffffff" d="M 11.820312 18.359375 L 10.765625 14.34375 L 7.5 2.152344 L 0.0976562 0.148438 L 0.0976562 3.21875 L 5.058594 4.546875 L 8.324219 16.714844 L 9.410156 20.746094 L 17.285156 50.132812 L 0.0976562 67.320312 L 0.0976562 71.511719 L 20.574219 51.035156 Z M 416.914062 340.929688 L 415.832031 336.894531 L 412.695312 325.1875 L 384.476562 317.625 L 364.988281 337.113281 L 309.144531 325.347656 L 296.5 278.15625 L 295.378906 277.851562 L 267.742188 270.449219 L 247.589844 265.054688 L 213.035156 299.609375 L 133.457031 274.59375 L 115.972656 209.28125 L 114.894531 205.246094 L 108.460938 181.246094 L 15.039062 156.214844 L 0.0976562 119.730469 L 0.0976562 127.554688 L 12.207031 157.117188 L 0.0976562 169.214844 L 0.0976562 173.40625 L 14.394531 159.109375 L 106.042969 183.664062 L 112.476562 207.65625 L 113.554688 211.699219 L 130.605469 275.320312 L 116.582031 289.363281 L 113.621094 292.328125 L 63.515625 342.417969 L 0.0976562 325.425781 L 0.0976562 328.480469 L 62.925781 345.316406 L 67.535156 355.289062 L 69.152344 358.789062 L 104.25 434.65625 L 84.925781 453.976562 L 92.484375 482.203125 L 120.707031 489.765625 L 141.371094 469.101562 L 133.808594 440.882812 L 107.082031 433.71875 L 71.386719 356.566406 L 69.769531 353.0625 L 65.75 344.382812 L 114.53125 295.605469 L 132.699219 277.4375 L 212.277344 302.460938 L 224.941406 349.742188 L 273.839844 362.839844 L 308.460938 328.222656 L 364.300781 339.988281 L 371.414062 366.503906 L 379.710938 368.726562 L 383.746094 369.8125 L 399.636719 374.066406 L 420.300781 353.40625 Z M 131.363281 443.300781 L 138.039062 468.195312 L 119.824219 486.457031 L 94.929688 479.785156 L 88.25 454.890625 L 106.496094 436.644531 Z M 272.921875 359.546875 L 227.335938 347.332031 L 215.121094 301.738281 L 248.492188 268.371094 L 265.316406 272.878906 L 269.355469 273.957031 L 292.226562 280.085938 L 294.082031 280.585938 L 299.8125 301.96875 L 306.296875 326.171875 Z M 398.714844 370.765625 L 386.128906 367.394531 L 382.09375 366.316406 L 373.796875 364.09375 L 367.121094 339.199219 L 385.359375 320.9375 L 410.253906 327.609375 L 412.507812 336.015625 L 413.585938 340.050781 L 416.925781 352.5 Z M 398.714844 370.765625 " fill-opacity="1" fill-rule="nonzero"/></g></g></g></g><path fill="#ffffff" d="M 354.90625 653.777344 L 354.015625 650.472656 L 346.863281 623.800781 L 263.882812 601.566406 L 203.125 662.320312 L 210.035156 688.109375 L 210.917969 691.410156 L 225.328125 745.28125 L 308.308594 767.519531 L 369.058594 706.765625 Z M 307.265625 763.484375 L 228.292969 742.332031 L 213.847656 688.421875 L 212.957031 685.128906 L 207.132812 663.375 L 264.933594 605.574219 L 343.894531 626.726562 L 349.980469 649.375 L 350.871094 652.675781 L 365.09375 705.664062 Z M 307.265625 763.484375 " fill-opacity="1" fill-rule="nonzero"/><path fill="#ffffff" d="M 423.621094 118.742188 L 380.617188 107.222656 L 349.128906 138.710938 L 360.636719 181.726562 L 403.65625 193.253906 L 435.148438 161.761719 Z M 402.578125 189.21875 L 363.59375 178.761719 L 353.152344 139.777344 L 381.683594 111.246094 L 420.667969 121.691406 L 431.109375 160.671875 Z M 402.578125 189.21875 " fill-opacity="1" fill-rule="nonzero"/><g clip-path="url(#88e514d330)"><path fill="#ffffff" d="M 620.84375 544.464844 L 583.691406 441.515625 L 613.632812 411.578125 L 602.648438 370.574219 L 636.816406 336.40625 L 659.875 342.585938 L 678.25 324.214844 L 671.527344 299.136719 L 646.449219 292.421875 L 628.074219 310.792969 L 634.25 333.851562 L 600.082031 368.027344 L 559.082031 357.039062 L 527.609375 388.492188 L 538.582031 429.480469 L 493.394531 474.667969 L 415.832031 453.898438 L 412.53125 453.015625 L 412.421875 453.015625 L 382.09375 483.34375 L 379.667969 485.761719 L 351.664062 513.769531 L 373.902344 596.75 L 410 606.421875 L 413.304688 607.304688 L 456.894531 618.988281 L 517.652344 558.214844 L 505.972656 514.628906 L 505.085938 511.320312 L 495.953125 477.238281 L 541.140625 432.050781 L 580.21875 442.519531 L 617.371094 545.46875 L 587.425781 575.40625 L 598.414062 616.402344 L 507.136719 707.679688 L 499.707031 705.683594 L 496.195312 704.734375 L 466.140625 696.683594 L 434.667969 728.207031 L 446.195312 771.21875 L 475.035156 778.925781 L 478.34375 779.8125 L 489.207031 782.722656 L 519.253906 752.679688 L 558.070312 761.492188 L 561.335938 762.234375 L 586.824219 768.019531 L 592.988281 791.035156 L 618.066406 797.75 L 636.4375 779.375 L 629.675781 754.285156 L 604.605469 747.5625 L 587.6875 764.480469 L 560.273438 758.257812 L 557.007812 757.507812 L 520.148438 749.140625 L 517.238281 738.28125 L 516.347656 734.976562 L 509.714844 710.210938 L 600.996094 618.933594 L 641.992188 629.917969 L 673.484375 598.425781 L 661.953125 555.414062 Z M 632.105469 311.875 L 647.515625 296.460938 L 668.550781 302.097656 L 674.195312 323.140625 L 658.785156 338.550781 L 637.742188 332.914062 Z M 502.125 514.277344 L 503.011719 517.578125 L 513.609375 557.136719 L 499.046875 571.730469 L 496.628906 574.152344 L 460.042969 610.699219 L 455.808594 614.933594 L 416.265625 604.328125 L 412.957031 603.445312 L 376.859375 593.773438 L 355.722656 514.828125 L 413.527344 457.027344 L 413.632812 457.027344 L 416.941406 457.910156 L 492.480469 478.152344 Z M 542.074219 428.554688 L 531.628906 389.578125 L 560.167969 361.039062 L 599.144531 371.488281 L 609.589844 410.464844 L 581.054688 438.996094 Z M 605.675781 751.628906 L 626.71875 757.265625 L 632.355469 778.308594 L 616.945312 793.71875 L 595.910156 788.082031 L 590.273438 767.039062 Z M 512.308594 733.90625 L 513.195312 737.222656 L 516.65625 750.148438 L 488.125 778.679688 L 477.261719 775.769531 L 473.953125 774.882812 L 449.140625 768.238281 L 438.703125 729.253906 L 467.238281 700.722656 L 497.714844 708.882812 L 501.199219 709.820312 L 506.21875 711.164062 Z M 640.882812 625.914062 L 601.90625 615.472656 L 591.46875 576.472656 L 620.003906 547.9375 L 658.984375 558.382812 L 669.429688 597.363281 Z M 640.882812 625.914062 " fill-opacity="1" fill-rule="nonzero"/></g><path fill="#ffffff" d="M 536.746094 291.898438 L 511.667969 285.175781 L 494.746094 302.105469 L 446.878906 292.027344 L 435.90625 251.074219 L 392.886719 239.542969 L 362.914062 269.523438 L 294.433594 247.992188 L 272.746094 166.972656 L 191.601562 145.238281 L 166.707031 84.445312 L 196.609375 54.542969 L 185.082031 11.527344 L 142.058594 0 L 110.566406 31.492188 L 121.554688 72.488281 L 77.101562 116.941406 L 36.117188 105.949219 L 4.625 137.4375 L 13.570312 170.835938 L 14.457031 174.140625 L 16.148438 180.453125 L 59.167969 191.980469 L 90.65625 160.488281 L 79.675781 119.492188 L 124.128906 75.039062 L 163.246094 85.515625 L 188.140625 146.316406 L 128.96875 205.492188 L 150.644531 286.46875 L 114.871094 322.246094 L 112.453125 324.65625 L 96.945312 340.164062 L 15.96875 318.46875 L 0.0976562 334.367188 L 0.0976562 339.488281 L 17.078125 322.507812 L 96.035156 343.660156 L 113.625 409.328125 L 114.507812 412.628906 L 117.191406 422.640625 L 59.421875 480.410156 L 0.0976562 464.53125 L 0.0976562 468.277344 L 60.46875 484.453125 L 69.128906 475.792969 L 71.363281 473.566406 L 121.230469 423.699219 L 117.453125 409.648438 L 116.570312 406.34375 L 99.519531 342.722656 L 153.222656 289.007812 L 207.925781 303.664062 L 211.234375 304.546875 L 232.375 310.214844 L 235.929688 317.917969 L 237.554688 321.421875 L 267.980469 387.210938 L 251.253906 403.9375 L 257.96875 429.015625 L 283.046875 435.730469 L 301.421875 417.359375 L 295.390625 394.835938 L 294.703125 392.273438 L 271.453125 386.046875 L 242.125 322.625 L 240.5 319.121094 L 235.847656 309.046875 L 284.140625 260.746094 L 286.566406 258.328125 L 293.453125 251.433594 L 361.925781 273.003906 L 372.914062 314.066406 L 415.933594 325.589844 L 446 295.527344 L 493.867188 305.601562 L 500.03125 328.59375 L 525.109375 335.316406 L 543.484375 316.941406 Z M 86.632812 159.402344 L 58.089844 187.941406 L 19.105469 177.5 L 17.417969 171.179688 L 16.527344 167.878906 L 8.660156 138.515625 L 37.195312 110.007812 L 76.175781 120.449219 Z M 125.0625 71.550781 L 114.609375 32.570312 L 143.140625 4.035156 L 182.117188 14.480469 L 192.570312 53.460938 L 164.03125 81.996094 Z M 281.984375 431.695312 L 260.945312 426.058594 L 255.308594 405.019531 L 269.355469 390.953125 L 270.695312 389.613281 L 291.734375 395.25 L 292.226562 397.082031 L 297.371094 416.292969 Z M 285.480469 254.339844 L 233.132812 306.6875 L 210.160156 300.535156 L 206.851562 299.644531 L 154.171875 285.53125 L 133.007812 206.578125 L 190.808594 148.777344 L 269.78125 169.929688 L 290.941406 248.886719 Z M 414.871094 321.550781 L 375.875 311.109375 L 365.433594 272.132812 L 393.964844 243.59375 L 432.949219 254.035156 L 443.398438 293.019531 Z M 524.054688 331.296875 L 503.019531 325.660156 L 497.375 304.617188 L 512.785156 289.207031 L 533.828125 294.84375 L 539.464844 315.886719 Z M 524.054688 331.296875 " fill-opacity="1" fill-rule="nonzero"/></svg>