<svg xmlns="http://www.w3.org/2000/svg" xmlns:xlink="http://www.w3.org/1999/xlink" width="1920" zoomAndPan="magnify" viewBox="0 0 1440 809.999993" height="1080" preserveAspectRatio="xMidYMid meet" version="1.0"><defs><filter x="0%" y="0%" width="100%" height="100%" id="bf29473988"><feColorMatrix values="0 0 0 0 1 0 0 0 0 1 0 0 0 0 1 0 0 0 1 0" color-interpolation-filters="sRGB"/></filter><clipPath id="ff80dd2164"><path d="M 690.75 0 L 1440 0 L 1440 810 L 690.75 810 Z M 690.75 0 " clip-rule="nonzero"/></clipPath><clipPath id="d166c60715"><path d="M 0.75 304 L 684 304 L 684 798 L 0.75 798 Z M 0.75 304 " clip-rule="nonzero"/></clipPath><mask id="fe6859bced"><g filter="url(#bf29473988)"><rect x="-1006.8" width="2073.6" fill="#000000" y="-178.199998" height="1166.39999" fill-opacity="0.3"/></g></mask><clipPath id="1a98b511f8"><path d="M 390 0.078125 L 683.519531 0.078125 L 683.519531 253 L 390 253 Z M 390 0.078125 " clip-rule="nonzero"/></clipPath><clipPath id="228c972ebd"><path d="M 0.75 278 L 230 278 L 230 493 L 0.75 493 Z M 0.75 278 " clip-rule="nonzero"/></clipPath><clipPath id="703984e0a0"><rect x="0" width="684" y="0" height="494"/></clipPath><clipPath id="37fad556a9"><rect x="0" width="750" y="0" height="810"/></clipPath></defs><g clip-path="url(#ff80dd2164)"><g transform="matrix(1, 0, 0, 1, 690, 0.000000000000039746)"><g clip-path="url(#37fad556a9)"><path fill="#ffffff" d="M 685.09375 799.8125 L 594.660156 778.933594 L 567.535156 690.160156 L 630.835938 622.285156 L 721.265625 643.179688 L 748.386719 731.945312 Z M 718.40625 646.257812 L 632.078125 626.3125 L 571.644531 691.105469 L 597.53125 775.839844 L 683.863281 795.785156 L 744.296875 730.996094 Z M 718.40625 646.257812 " fill-opacity="1" fill-rule="nonzero"/><path fill="#ffffff" d="M 268.390625 327.433594 L 221.59375 316.628906 L 207.5625 270.683594 L 240.320312 235.5625 L 287.117188 246.371094 L 301.15625 292.3125 Z M 284.28125 249.484375 L 241.582031 239.617188 L 211.683594 271.660156 L 224.488281 313.570312 L 267.1875 323.429688 L 297.089844 291.386719 Z M 284.28125 249.484375 " fill-opacity="1" fill-rule="nonzero"/><path fill="#ffffff" d="M 463.609375 748.644531 L 373.179688 727.753906 L 346.671875 640.96875 L 279.140625 625.363281 L 249.183594 657.449219 L 274.136719 773.40625 L 318.785156 783.714844 L 326.660156 809.5625 L 322.847656 809.5625 L 315.910156 786.859375 L 273.21875 776.992188 L 243.320312 809.042969 L 243.480469 809.5625 L 239.65625 809.5625 L 239.214844 808.101562 L 270.570312 774.441406 L 245.617188 658.484375 L 200.96875 648.175781 L 187.550781 604.25 L 136.453125 592.445312 L 118.890625 611.332031 L 91.675781 605.046875 L 83.507812 578.324219 L 102.5625 557.90625 L 129.78125 564.199219 L 137.328125 588.898438 L 188.425781 600.707031 L 219.785156 567.125 L 266.582031 577.929688 L 280.007812 621.855469 L 347.488281 637.453125 L 409.367188 571.089844 L 499.796875 591.984375 L 526.917969 680.773438 Z M 126.914062 567.269531 L 103.796875 561.925781 L 87.613281 579.273438 L 94.542969 601.96875 L 117.660156 607.304688 L 133.839844 589.957031 Z M 263.6875 581 L 220.988281 571.140625 L 191.089844 603.179688 L 203.894531 645.089844 L 246.585938 654.957031 L 276.484375 622.914062 Z M 496.9375 595.089844 L 410.597656 575.144531 L 350.164062 639.933594 L 376.054688 724.675781 L 462.375 744.621094 L 522.816406 679.824219 Z M 496.9375 595.089844 " fill-opacity="1" fill-rule="nonzero"/><path fill="#ffffff" d="M 749.066406 393.921875 L 749.898438 393.03125 L 749.898438 397.851562 L 659.871094 377.054688 L 633.359375 290.273438 L 553.140625 271.742188 L 492.570312 336.683594 L 504.191406 429.152344 L 500.546875 429.605469 L 489.007812 337.578125 L 402.957031 317.691406 L 352.34375 376.835938 L 365.785156 420.804688 L 333.019531 455.933594 L 288.207031 445.578125 L 249.949219 482.382812 L 257.453125 507.015625 L 238.398438 527.4375 L 211.179688 521.152344 L 203.019531 494.4375 L 222.066406 474.019531 L 247.300781 479.851562 L 285.566406 443.046875 L 272.160156 399.1875 L 304.925781 364.066406 L 349.625 374.394531 L 400.226562 315.257812 L 373.703125 228.472656 L 435.691406 162.039062 L 423.667969 91.816406 L 379.074219 81.511719 L 365.042969 35.566406 L 397.800781 0.445312 L 444.605469 11.261719 L 458.023438 55.175781 L 524.4375 70.492188 L 555.796875 36.945312 L 602.601562 47.761719 L 616.632812 93.703125 L 583.871094 128.828125 L 537.070312 118.011719 L 523.648438 74.09375 L 457.234375 58.78125 L 427.246094 90.933594 L 439.273438 161.15625 L 527.515625 181.574219 L 554.023438 268.355469 L 634.242188 286.886719 L 696.121094 220.523438 L 749.964844 232.964844 L 749.964844 236.707031 L 697.355469 224.550781 L 636.914062 289.339844 L 662.800781 374.078125 Z M 246.433594 483.382812 L 223.316406 478.042969 L 207.132812 495.394531 L 214.066406 518.082031 L 237.1875 523.417969 L 253.367188 506.070312 Z M 348.867188 377.953125 L 306.167969 368.085938 L 276.265625 400.128906 L 289.089844 442.011719 L 331.78125 451.871094 L 361.679688 419.824219 Z M 539.933594 114.898438 L 582.605469 124.777344 L 612.503906 92.734375 L 599.699219 50.824219 L 556.992188 40.914062 L 527.09375 72.957031 Z M 454.535156 56.226562 L 441.730469 14.316406 L 399.03125 4.449219 L 369.132812 36.492188 L 381.9375 78.40625 L 424.636719 88.273438 Z M 524.589844 184.578125 L 438.257812 164.632812 L 377.824219 229.421875 L 403.714844 314.164062 L 490.046875 334.078125 L 550.480469 269.285156 Z M 524.589844 184.578125 " fill-opacity="1" fill-rule="nonzero"/><g clip-path="url(#d166c60715)"><g mask="url(#fe6859bced)"><g transform="matrix(1, 0, 0, 1, 0, 304)"><g clip-path="url(#703984e0a0)"><path fill="#ffffff" d="M 638.859375 307.929688 L 651.839844 350.410156 L 621.539062 382.882812 L 578.273438 372.886719 L 565.289062 330.414062 L 595.585938 297.929688 Z M 579.644531 371.414062 L 620.957031 380.957031 L 649.878906 349.949219 L 637.480469 309.402344 L 596.144531 299.90625 L 567.222656 330.910156 Z M 579.644531 371.414062 " fill-opacity="1" fill-rule="nonzero"/><path fill="#ffffff" d="M 399.734375 151.683594 L 393.015625 129.695312 L 408.695312 112.921875 L 431.089844 118.09375 L 437.808594 140.074219 L 422.128906 156.882812 Z M 429.710938 119.539062 L 409.292969 114.820312 L 394.984375 130.132812 L 401.109375 150.1875 L 421.53125 154.90625 L 435.832031 139.59375 Z M 429.710938 119.539062 " fill-opacity="1" fill-rule="nonzero"/><path fill="#ffffff" d="M 421.222656 276.71875 L 427.648438 297.734375 L 459.960938 305.203125 L 489.570312 273.464844 L 532.847656 283.460938 L 545.828125 325.933594 L 515.527344 358.417969 L 472.25 348.417969 L 459.570312 306.902344 L 427.253906 299.441406 L 412.917969 314.808594 L 424.863281 370.28125 L 446.222656 375.21875 L 452.648438 396.238281 L 517.800781 411.296875 L 532.792969 395.253906 L 555.191406 400.429688 L 561.90625 422.410156 L 546.242188 439.199219 L 524.808594 434.246094 L 499.285156 459.566406 L 502.886719 471.367188 L 493.773438 481.136719 L 480.746094 478.132812 L 476.84375 465.347656 L 485.960938 455.570312 L 498.023438 458.355469 L 523.546875 433.042969 L 517.421875 413.011719 L 452.238281 397.949219 L 437.246094 413.996094 L 414.859375 408.816406 L 408.140625 386.835938 L 423.164062 370.726562 L 411.21875 315.257812 L 389.859375 310.320312 L 383.433594 289.304688 L 358.980469 283.652344 L 350.550781 292.6875 L 337.539062 289.699219 L 333.632812 276.914062 L 342.746094 267.132812 L 355.773438 270.144531 L 359.417969 281.96875 L 383.871094 287.621094 L 398.855469 271.574219 Z M 473.628906 346.945312 L 514.941406 356.484375 L 543.859375 325.484375 L 531.460938 284.9375 L 490.15625 275.390625 L 461.230469 306.390625 Z M 497.636719 460.039062 L 486.582031 457.480469 L 478.835938 465.789062 L 482.15625 476.644531 L 493.210938 479.199219 L 500.953125 470.898438 Z M 525.230469 432.539062 L 545.652344 437.257812 L 559.960938 421.945312 L 553.828125 401.894531 L 533.40625 397.171875 L 519.097656 412.484375 Z M 410.117188 387.324219 L 416.242188 407.378906 L 436.664062 412.097656 L 450.964844 396.785156 L 444.835938 376.730469 L 424.417969 372.003906 Z M 354.402344 271.640625 L 343.339844 269.089844 L 335.59375 277.386719 L 338.910156 288.238281 L 349.972656 290.792969 L 357.71875 282.492188 Z M 391.242188 308.886719 L 411.664062 313.605469 L 425.964844 298.289062 L 419.839844 278.234375 L 399.417969 273.515625 L 385.117188 288.832031 Z M 391.242188 308.886719 " fill-opacity="1" fill-rule="nonzero"/><g clip-path="url(#1a98b511f8)"><path fill="#ffffff" d="M 652.714844 190.597656 L 609.441406 180.597656 L 596.757812 139.082031 L 558.378906 130.214844 L 529.390625 161.289062 L 534.953125 205.539062 L 533.226562 205.757812 L 527.683594 161.703125 L 486.5 152.222656 L 462.28125 180.519531 L 468.714844 201.566406 L 453.035156 218.339844 L 431.59375 213.386719 L 413.28125 231 L 416.886719 242.792969 L 407.769531 252.5625 L 394.738281 249.550781 L 390.835938 236.769531 L 399.953125 226.996094 L 412.027344 229.789062 L 430.332031 212.167969 L 423.921875 191.1875 L 439.601562 174.378906 L 460.992188 179.316406 L 485.203125 151.019531 L 472.511719 109.453125 L 502.171875 77.664062 L 496.410156 44.058594 L 475.074219 39.128906 L 468.355469 17.148438 L 484.035156 0.375 L 506.429688 5.554688 L 512.855469 26.570312 L 544.636719 33.90625 L 559.625 17.863281 L 582.019531 23.035156 L 588.738281 45.015625 L 573.058594 61.789062 L 550.660156 56.617188 L 544.246094 35.597656 L 512.460938 28.253906 L 498.109375 43.648438 L 503.863281 77.246094 L 546.082031 87.003906 L 558.769531 128.515625 L 597.152344 137.382812 L 626.761719 105.644531 L 670.035156 115.644531 L 683.007812 158.117188 Z M 411.605469 231.480469 L 400.542969 228.921875 L 392.796875 237.191406 L 396.117188 248.042969 L 407.179688 250.601562 L 414.921875 242.296875 Z M 460.617188 181.039062 L 440.199219 176.320312 L 425.890625 191.632812 L 432.015625 211.6875 L 452.4375 216.40625 L 466.746094 201.09375 Z M 552.078125 55.152344 L 572.496094 59.871094 L 586.804688 44.554688 L 580.679688 24.5 L 560.257812 19.78125 L 545.957031 35.097656 Z M 511.238281 27.074219 L 505.113281 7.019531 L 484.691406 2.292969 L 470.390625 17.609375 L 476.515625 37.664062 L 496.9375 42.382812 Z M 544.785156 88.476562 L 503.398438 78.941406 L 474.476562 109.949219 L 486.871094 150.496094 L 528.1875 160.042969 L 557.109375 129.03125 Z M 668.757812 117.117188 L 627.453125 107.570312 L 598.53125 138.570312 L 610.929688 179.125 L 652.242188 188.664062 L 681.15625 157.664062 Z M 668.757812 117.117188 " fill-opacity="1" fill-rule="nonzero"/></g><path fill="#ffffff" d="M 305.976562 319.765625 L 318.953125 362.238281 L 288.65625 394.710938 L 245.382812 384.722656 L 232.410156 342.207031 L 262.703125 309.730469 Z M 246.761719 383.210938 L 288.082031 392.789062 L 316.996094 361.785156 L 304.597656 321.238281 L 263.285156 311.691406 L 234.363281 342.695312 Z M 246.761719 383.210938 " fill-opacity="1" fill-rule="nonzero"/><path fill="#ffffff" d="M 66.878906 163.5 L 60.164062 141.519531 L 75.835938 124.746094 L 98.230469 129.921875 L 104.949219 151.902344 L 89.277344 168.675781 Z M 96.859375 131.359375 L 76.441406 126.632812 L 62.140625 141.949219 L 68.265625 162.003906 L 88.683594 166.722656 L 102.984375 151.40625 Z M 96.859375 131.359375 " fill-opacity="1" fill-rule="nonzero"/><g clip-path="url(#228c972ebd)"><path fill="#ffffff" d="M 88.371094 288.539062 L 94.796875 309.554688 L 127.109375 317.023438 L 156.71875 285.277344 L 199.992188 295.277344 L 212.96875 337.75 L 182.671875 370.230469 L 139.398438 360.234375 L 126.714844 318.722656 L 94.402344 311.253906 L 80.066406 326.621094 L 92.011719 382.097656 L 113.371094 387.035156 L 119.796875 408.050781 L 184.976562 423.109375 L 199.972656 407.066406 L 222.359375 412.246094 L 229.078125 434.222656 L 213.40625 450.996094 L 191.964844 446.046875 L 166.441406 471.359375 L 170.042969 483.160156 L 160.925781 492.9375 L 147.902344 489.925781 L 144.015625 477.121094 L 153.167969 467.378906 L 165.230469 470.164062 L 190.753906 444.84375 L 184.636719 424.808594 L 119.453125 409.75 L 104.460938 425.792969 L 82.0625 420.617188 L 75.347656 398.636719 L 90.378906 382.535156 L 78.429688 327.058594 L 57.0625 322.121094 L 50.644531 301.105469 L 26.195312 295.453125 L 17.757812 304.496094 L 4.6875 301.511719 L 0.75 288.726562 L 9.867188 278.957031 L 22.890625 281.960938 L 26.535156 293.78125 L 50.996094 299.433594 L 65.984375 283.390625 Z M 140.769531 358.761719 L 182.074219 368.304688 L 210.996094 337.296875 L 198.601562 296.75 L 157.289062 287.203125 L 128.371094 318.210938 Z M 164.777344 471.855469 L 153.714844 469.300781 L 145.96875 477.601562 L 149.289062 488.460938 L 160.351562 491.011719 L 168.09375 482.714844 Z M 192.371094 444.355469 L 212.792969 449.078125 L 227.09375 433.765625 L 220.988281 413.671875 L 200.570312 408.957031 L 186.269531 424.269531 Z M 77.257812 399.140625 L 83.382812 419.195312 L 103.804688 423.917969 L 118.160156 408.570312 L 112.035156 388.515625 L 91.617188 383.796875 Z M 21.542969 283.457031 L 10.476562 280.902344 L 2.734375 289.203125 L 6.050781 300.0625 L 17.113281 302.621094 L 24.859375 294.3125 Z M 58.363281 320.675781 L 78.78125 325.394531 L 93.089844 310.082031 L 86.964844 290.027344 L 66.542969 285.308594 L 52.242188 300.621094 Z M 58.363281 320.675781 " fill-opacity="1" fill-rule="nonzero"/></g><path fill="#ffffff" d="M 276.589844 192.414062 L 263.90625 150.902344 L 225.519531 142.035156 L 196.535156 173.109375 L 202.101562 217.363281 L 200.363281 217.574219 L 194.828125 173.527344 L 153.648438 164.007812 L 129.429688 192.3125 L 135.855469 213.351562 L 120.183594 230.160156 L 98.734375 225.203125 L 80.429688 242.8125 L 84.03125 254.605469 L 74.910156 264.378906 L 61.882812 261.375 L 57.984375 248.589844 L 67.097656 238.808594 L 79.175781 241.601562 L 97.480469 223.992188 L 91.070312 203.003906 L 106.75 186.191406 L 128.132812 191.136719 L 152.351562 162.804688 L 139.660156 121.273438 L 169.320312 89.476562 L 163.558594 55.871094 L 142.226562 50.972656 L 135.511719 28.992188 L 151.191406 12.21875 L 173.585938 17.390625 L 180.003906 38.40625 L 211.785156 45.75 L 226.78125 29.707031 L 249.175781 34.882812 L 255.890625 56.863281 L 240.210938 73.675781 L 217.816406 68.496094 L 211.390625 47.480469 L 179.617188 40.136719 L 165.265625 55.523438 L 171.019531 89.128906 L 213.238281 98.878906 L 225.917969 140.394531 L 264.308594 149.261719 L 293.914062 117.519531 L 337.191406 127.515625 L 350.164062 169.988281 L 319.871094 202.46875 Z M 78.78125 243.292969 L 67.71875 240.742188 L 59.972656 249.042969 L 63.292969 259.898438 L 74.355469 262.453125 L 82.09375 254.152344 Z M 127.796875 192.84375 L 107.375 188.117188 L 93.074219 203.433594 L 99.199219 223.488281 L 119.621094 228.207031 L 133.921875 212.890625 Z M 219.214844 66.964844 L 239.636719 71.683594 L 253.945312 56.367188 L 247.8125 36.3125 L 227.390625 31.589844 L 213.082031 46.902344 Z M 178.378906 38.886719 L 172.246094 18.832031 L 151.824219 14.113281 L 137.515625 29.429688 L 143.648438 49.484375 L 164.070312 54.210938 Z M 211.925781 100.292969 L 170.609375 90.753906 L 141.6875 121.753906 L 154.085938 162.300781 L 195.398438 171.847656 L 224.320312 140.839844 Z M 335.898438 128.929688 L 294.585938 119.386719 L 265.578125 150.40625 L 277.972656 190.957031 L 319.285156 200.5 L 348.210938 169.492188 Z M 335.898438 128.929688 " fill-opacity="1" fill-rule="nonzero"/></g></g></g></g></g></g></g></svg>