<svg width="288" height="272" viewBox="0 0 288 272" fill="none" xmlns="http://www.w3.org/2000/svg">
<rect width="288" height="271.454" rx="8" fill="white"/>
<rect width="288" height="271.454" rx="8" fill="url(#paint0_linear_1542_15583)" fill-opacity="0.4"/>
<path d="M19.7734 34L16.7031 22.7266H18.1719L20.4141 31.8906H20.5078L23.0312 22.7266H24.4531L26.9766 31.8906H27.0703L29.3125 22.7266H30.7812L27.7109 34H26.3828L23.7891 25.1016H23.6953L21.1016 34H19.7734ZM34.2812 34.1484C32.6797 34.1484 31.4688 33.1797 31.4688 31.6484V31.6328C31.4688 30.1328 32.5781 29.2656 34.5391 29.1484L36.9531 29V28.2344C36.9531 27.1953 36.3203 26.6328 35.0625 26.6328C34.0547 26.6328 33.3906 27.0078 33.1719 27.6641L33.1641 27.6875H31.8047L31.8125 27.6406C32.0312 26.3203 33.3125 25.4297 35.1094 25.4297C37.1641 25.4297 38.3125 26.4844 38.3125 28.2344V34H36.9531V32.7578H36.8281C36.2969 33.6562 35.4141 34.1484 34.2812 34.1484ZM32.8594 31.6172C32.8594 32.4688 33.5859 32.9688 34.5625 32.9688C35.9453 32.9688 36.9531 32.0625 36.9531 30.8594V30.0938L34.7031 30.2344C33.4219 30.3125 32.8594 30.7656 32.8594 31.6016V31.6172ZM40.7969 34V25.5781H42.1562V26.8438H42.2812C42.7031 25.9531 43.4922 25.4297 44.7344 25.4297C46.625 25.4297 47.6797 26.5469 47.6797 28.5469V34H46.3203V28.875C46.3203 27.3594 45.6953 26.6328 44.3516 26.6328C43.0078 26.6328 42.1562 27.5391 42.1562 29.0156V34H40.7969ZM53.1328 34.0625C51.3984 34.0625 50.6719 33.4219 50.6719 31.8125V26.7031H49.3438V25.5781H50.6719V23.3984H52.0781V25.5781H53.9219V26.7031H52.0781V31.4688C52.0781 32.4609 52.4219 32.8594 53.2969 32.8594C53.5391 32.8594 53.6719 32.8516 53.9219 32.8281V33.9844C53.6562 34.0312 53.3984 34.0625 53.1328 34.0625ZM63.4453 34.0625C61.7109 34.0625 60.9844 33.4219 60.9844 31.8125V26.7031H59.6562V25.5781H60.9844V23.3984H62.3906V25.5781H64.2344V26.7031H62.3906V31.4688C62.3906 32.4609 62.7344 32.8594 63.6094 32.8594C63.8516 32.8594 63.9844 32.8516 64.2344 32.8281V33.9844C63.9688 34.0312 63.7109 34.0625 63.4453 34.0625ZM69.6016 34.1484C67.2031 34.1484 65.7188 32.4922 65.7188 29.7969V29.7812C65.7188 27.0781 67.2031 25.4297 69.6016 25.4297C72 25.4297 73.4844 27.0781 73.4844 29.7812V29.7969C73.4844 32.4922 72 34.1484 69.6016 34.1484ZM69.6016 32.9453C71.1953 32.9453 72.0938 31.7812 72.0938 29.7969V29.7812C72.0938 27.7891 71.1953 26.6328 69.6016 26.6328C68.0078 26.6328 67.1094 27.7891 67.1094 29.7812V29.7969C67.1094 31.7812 68.0078 32.9453 69.6016 32.9453ZM83.2031 34.1484C81.0703 34.1484 79.6719 32.4219 79.6719 29.7969V29.7812C79.6719 27.1406 81.0625 25.4297 83.2031 25.4297C84.3594 25.4297 85.3672 26.0078 85.8281 26.9062H85.9531V22.2344H87.3125V34H85.9531V32.6562H85.8281C85.3125 33.5938 84.375 34.1484 83.2031 34.1484ZM83.5156 32.9453C85.0469 32.9453 85.9844 31.7422 85.9844 29.7969V29.7812C85.9844 27.8359 85.0469 26.6328 83.5156 26.6328C81.9766 26.6328 81.0625 27.8203 81.0625 29.7812V29.7969C81.0625 31.7578 81.9766 32.9453 83.5156 32.9453ZM90.6406 23.9531C90.125 23.9531 89.7031 23.5312 89.7031 23.0156C89.7031 22.5 90.125 22.0781 90.6406 22.0781C91.1562 22.0781 91.5781 22.5 91.5781 23.0156C91.5781 23.5312 91.1562 23.9531 90.6406 23.9531ZM89.9531 34V25.5781H91.3125V34H89.9531ZM96.7656 34.1484C94.8906 34.1484 93.6016 33.2422 93.4453 31.8516H94.8359C95.0625 32.5547 95.7344 33.0156 96.8125 33.0156C97.9453 33.0156 98.75 32.4766 98.75 31.7109V31.6953C98.75 31.125 98.3203 30.7266 97.2812 30.4766L95.9766 30.1641C94.3984 29.7891 93.6875 29.1016 93.6875 27.8906V27.8828C93.6875 26.4844 95.0312 25.4297 96.8203 25.4297C98.5859 25.4297 99.8125 26.3125 100 27.6875H98.6641C98.4844 27.0234 97.8281 26.5625 96.8125 26.5625C95.8125 26.5625 95.0781 27.0781 95.0781 27.8203V27.8359C95.0781 28.4062 95.5 28.7656 96.4922 29.0078L97.7891 29.3203C99.375 29.7031 100.141 30.3906 100.141 31.5938V31.6094C100.141 33.1094 98.6797 34.1484 96.7656 34.1484ZM105.695 34.1484C103.336 34.1484 101.828 32.4375 101.828 29.7656V29.75C101.828 27.1328 103.328 25.4297 105.688 25.4297C107.734 25.4297 108.961 26.6094 109.211 28.1094L109.219 28.1562H107.867L107.859 28.1328C107.648 27.3047 106.898 26.6328 105.688 26.6328C104.172 26.6328 103.219 27.8516 103.219 29.75V29.7656C103.219 31.7031 104.188 32.9453 105.688 32.9453C106.82 32.9453 107.539 32.4453 107.852 31.5078L107.867 31.4609L109.211 31.4531L109.195 31.5391C108.852 33.0625 107.719 34.1484 105.695 34.1484ZM114.023 34.1484C112.109 34.1484 111.125 33.0234 111.125 31.0312V25.5781H112.484V30.7031C112.484 32.2188 113.031 32.9453 114.375 32.9453C115.859 32.9453 116.648 32.0391 116.648 30.5625V25.5781H118.008V34H116.648V32.7422H116.523C116.109 33.6406 115.258 34.1484 114.023 34.1484ZM123.438 34.1484C121.562 34.1484 120.273 33.2422 120.117 31.8516H121.508C121.734 32.5547 122.406 33.0156 123.484 33.0156C124.617 33.0156 125.422 32.4766 125.422 31.7109V31.6953C125.422 31.125 124.992 30.7266 123.953 30.4766L122.648 30.1641C121.07 29.7891 120.359 29.1016 120.359 27.8906V27.8828C120.359 26.4844 121.703 25.4297 123.492 25.4297C125.258 25.4297 126.484 26.3125 126.672 27.6875H125.336C125.156 27.0234 124.5 26.5625 123.484 26.5625C122.484 26.5625 121.75 27.0781 121.75 27.8203V27.8359C121.75 28.4062 122.172 28.7656 123.164 29.0078L124.461 29.3203C126.047 29.7031 126.812 30.3906 126.812 31.5938V31.6094C126.812 33.1094 125.352 34.1484 123.438 34.1484ZM131.656 34.1484C129.781 34.1484 128.492 33.2422 128.336 31.8516H129.727C129.953 32.5547 130.625 33.0156 131.703 33.0156C132.836 33.0156 133.641 32.4766 133.641 31.7109V31.6953C133.641 31.125 133.211 30.7266 132.172 30.4766L130.867 30.1641C129.289 29.7891 128.578 29.1016 128.578 27.8906V27.8828C128.578 26.4844 129.922 25.4297 131.711 25.4297C133.477 25.4297 134.703 26.3125 134.891 27.6875H133.555C133.375 27.0234 132.719 26.5625 131.703 26.5625C130.703 26.5625 129.969 27.0781 129.969 27.8203V27.8359C129.969 28.4062 130.391 28.7656 131.383 29.0078L132.68 29.3203C134.266 29.7031 135.031 30.3906 135.031 31.5938V31.6094C135.031 33.1094 133.57 34.1484 131.656 34.1484ZM141.812 34V22.7266H143.219V32.7344H148.656V34H141.812ZM151.453 23.9531C150.938 23.9531 150.516 23.5312 150.516 23.0156C150.516 22.5 150.938 22.0781 151.453 22.0781C151.969 22.0781 152.391 22.5 152.391 23.0156C152.391 23.5312 151.969 23.9531 151.453 23.9531ZM150.766 34V25.5781H152.125V34H150.766ZM158.156 36.9688C156.125 36.9688 154.828 36.0547 154.617 34.6719L154.633 34.6641H156.039L156.047 34.6719C156.195 35.3125 156.945 35.7656 158.156 35.7656C159.664 35.7656 160.562 35.0547 160.562 33.8125V32.1094H160.438C159.906 33.0391 158.953 33.5625 157.797 33.5625C155.617 33.5625 154.266 31.875 154.266 29.5156V29.5C154.266 27.1406 155.625 25.4297 157.828 25.4297C159.016 25.4297 159.938 26.0156 160.453 26.9688H160.547V25.5781H161.906V33.8828C161.906 35.7656 160.453 36.9688 158.156 36.9688ZM158.094 32.3594C159.656 32.3594 160.594 31.1875 160.594 29.5156V29.5C160.594 27.8281 159.648 26.6328 158.094 26.6328C156.531 26.6328 155.656 27.8281 155.656 29.5V29.5156C155.656 31.1875 156.531 32.3594 158.094 32.3594ZM164.516 34V22.2344H165.875V26.8438H166C166.422 25.9531 167.211 25.4297 168.453 25.4297C170.344 25.4297 171.398 26.5469 171.398 28.5469V34H170.039V28.875C170.039 27.3594 169.414 26.6328 168.07 26.6328C166.727 26.6328 165.875 27.5391 165.875 29.0156V34H164.516ZM176.852 34.0625C175.117 34.0625 174.391 33.4219 174.391 31.8125V26.7031H173.062V25.5781H174.391V23.3984H175.797V25.5781H177.641V26.7031H175.797V31.4688C175.797 32.4609 176.141 32.8594 177.016 32.8594C177.258 32.8594 177.391 32.8516 177.641 32.8281V33.9844C177.375 34.0312 177.117 34.0625 176.852 34.0625ZM179.75 34V22.2344H181.109V34H179.75ZM184.438 36.9531C184.258 36.9531 184.023 36.9375 183.836 36.9062V35.7891C184 35.8203 184.211 35.8281 184.398 35.8281C185.172 35.8281 185.641 35.4766 185.945 34.5078L186.102 34.0078L182.984 25.5781H184.438L186.75 32.5078H186.875L189.18 25.5781H190.609L187.32 34.5156C186.625 36.4062 185.93 36.9531 184.438 36.9531ZM194.492 34V23.9922H190.859V22.7266H199.531V23.9922H195.898V34H194.492ZM200.359 34V25.5781H201.719V26.8281H201.844C202.164 25.9453 202.953 25.4297 204.094 25.4297C204.352 25.4297 204.641 25.4609 204.773 25.4844V26.8047C204.492 26.7578 204.234 26.7266 203.938 26.7266C202.641 26.7266 201.719 27.5469 201.719 28.7812V34H200.359ZM208.766 34.1484C207.164 34.1484 205.953 33.1797 205.953 31.6484V31.6328C205.953 30.1328 207.062 29.2656 209.023 29.1484L211.438 29V28.2344C211.438 27.1953 210.805 26.6328 209.547 26.6328C208.539 26.6328 207.875 27.0078 207.656 27.6641L207.648 27.6875H206.289L206.297 27.6406C206.516 26.3203 207.797 25.4297 209.594 25.4297C211.648 25.4297 212.797 26.4844 212.797 28.2344V34H211.438V32.7578H211.312C210.781 33.6562 209.898 34.1484 208.766 34.1484ZM207.344 31.6172C207.344 32.4688 208.07 32.9688 209.047 32.9688C210.43 32.9688 211.438 32.0625 211.438 30.8594V30.0938L209.188 30.2344C207.906 30.3125 207.344 30.7656 207.344 31.6016V31.6172ZM216 23.9531C215.484 23.9531 215.062 23.5312 215.062 23.0156C215.062 22.5 215.484 22.0781 216 22.0781C216.516 22.0781 216.938 22.5 216.938 23.0156C216.938 23.5312 216.516 23.9531 216 23.9531ZM215.312 34V25.5781H216.672V34H215.312ZM219.234 34V25.5781H220.594V26.8438H220.719C221.141 25.9531 221.93 25.4297 223.172 25.4297C225.062 25.4297 226.117 26.5469 226.117 28.5469V34H224.758V28.875C224.758 27.3594 224.133 26.6328 222.789 26.6328C221.445 26.6328 220.594 27.5391 220.594 29.0156V34H219.234ZM233.641 34V26.7031H232.242V25.5781H233.641V24.6406C233.641 22.9609 234.484 22.1562 236.086 22.1562C236.414 22.1562 236.711 22.1797 236.992 22.2344V23.3203C236.828 23.2891 236.602 23.2812 236.359 23.2812C235.391 23.2812 235 23.7578 235 24.6797V25.5781H236.914V26.7031H235V34H233.641ZM241.977 34.1484C239.578 34.1484 238.094 32.4922 238.094 29.7969V29.7812C238.094 27.0781 239.578 25.4297 241.977 25.4297C244.375 25.4297 245.859 27.0781 245.859 29.7812V29.7969C245.859 32.4922 244.375 34.1484 241.977 34.1484ZM241.977 32.9453C243.57 32.9453 244.469 31.7812 244.469 29.7969V29.7812C244.469 27.7891 243.57 26.6328 241.977 26.6328C240.383 26.6328 239.484 27.7891 239.484 29.7812V29.7969C239.484 31.7812 240.383 32.9453 241.977 32.9453ZM247.969 34V25.5781H249.328V26.8281H249.453C249.773 25.9453 250.562 25.4297 251.703 25.4297C251.961 25.4297 252.25 25.4609 252.383 25.4844V26.8047C252.102 26.7578 251.844 26.7266 251.547 26.7266C250.25 26.7266 249.328 27.5469 249.328 28.7812V34H247.969ZM17.9844 60.9531C17.8047 60.9531 17.5703 60.9375 17.3828 60.9062V59.7891C17.5469 59.8203 17.7578 59.8281 17.9453 59.8281C18.7188 59.8281 19.1875 59.4766 19.4922 58.5078L19.6484 58.0078L16.5312 49.5781H17.9844L20.2969 56.5078H20.4219L22.7266 49.5781H24.1562L20.8672 58.5156C20.1719 60.4062 19.4766 60.9531 17.9844 60.9531ZM29.1016 58.1484C26.7031 58.1484 25.2188 56.4922 25.2188 53.7969V53.7812C25.2188 51.0781 26.7031 49.4297 29.1016 49.4297C31.5 49.4297 32.9844 51.0781 32.9844 53.7812V53.7969C32.9844 56.4922 31.5 58.1484 29.1016 58.1484ZM29.1016 56.9453C30.6953 56.9453 31.5938 55.7812 31.5938 53.7969V53.7812C31.5938 51.7891 30.6953 50.6328 29.1016 50.6328C27.5078 50.6328 26.6094 51.7891 26.6094 53.7812V53.7969C26.6094 55.7812 27.5078 56.9453 29.1016 56.9453ZM37.9141 58.1484C36 58.1484 35.0156 57.0234 35.0156 55.0312V49.5781H36.375V54.7031C36.375 56.2188 36.9219 56.9453 38.2656 56.9453C39.75 56.9453 40.5391 56.0391 40.5391 54.5625V49.5781H41.8984V58H40.5391V56.7422H40.4141C40 57.6406 39.1484 58.1484 37.9141 58.1484ZM44.4375 58V49.5781H45.7969V50.8281H45.9219C46.2422 49.9453 47.0312 49.4297 48.1719 49.4297C48.4297 49.4297 48.7188 49.4609 48.8516 49.4844V50.8047C48.5703 50.7578 48.3125 50.7266 48.0156 50.7266C46.7188 50.7266 45.7969 51.5469 45.7969 52.7812V58H44.4375ZM57.8516 58.1484C55.9375 58.1484 54.9531 57.0234 54.9531 55.0312V49.5781H56.3125V54.7031C56.3125 56.2188 56.8594 56.9453 58.2031 56.9453C59.6875 56.9453 60.4766 56.0391 60.4766 54.5625V49.5781H61.8359V58H60.4766V56.7422H60.3516C59.9375 57.6406 59.0859 58.1484 57.8516 58.1484ZM67.2656 58.1484C65.3906 58.1484 64.1016 57.2422 63.9453 55.8516H65.3359C65.5625 56.5547 66.2344 57.0156 67.3125 57.0156C68.4453 57.0156 69.25 56.4766 69.25 55.7109V55.6953C69.25 55.125 68.8203 54.7266 67.7812 54.4766L66.4766 54.1641C64.8984 53.7891 64.1875 53.1016 64.1875 51.8906V51.8828C64.1875 50.4844 65.5312 49.4297 67.3203 49.4297C69.0859 49.4297 70.3125 50.3125 70.5 51.6875H69.1641C68.9844 51.0234 68.3281 50.5625 67.3125 50.5625C66.3125 50.5625 65.5781 51.0781 65.5781 51.8203V51.8359C65.5781 52.4062 66 52.7656 66.9922 53.0078L68.2891 53.3203C69.875 53.7031 70.6406 54.3906 70.6406 55.5938V55.6094C70.6406 57.1094 69.1797 58.1484 67.2656 58.1484ZM76.1875 58.1484C73.7812 58.1484 72.3281 56.4609 72.3281 53.8203V53.8125C72.3281 51.2109 73.8125 49.4297 76.1016 49.4297C78.3906 49.4297 79.7812 51.1328 79.7812 53.6484V54.1797H73.7188C73.7578 55.9219 74.7188 56.9375 76.2188 56.9375C77.3594 56.9375 78.0625 56.3984 78.2891 55.8906L78.3203 55.8203H79.6797L79.6641 55.8828C79.375 57.0234 78.1719 58.1484 76.1875 58.1484ZM76.0938 50.6406C74.8438 50.6406 73.8906 51.4922 73.7422 53.0938H78.3984C78.2578 51.4297 77.3359 50.6406 76.0938 50.6406ZM89.8359 58.1484C87.4766 58.1484 85.9688 56.4375 85.9688 53.7656V53.75C85.9688 51.1328 87.4688 49.4297 89.8281 49.4297C91.875 49.4297 93.1016 50.6094 93.3516 52.1094L93.3594 52.1562H92.0078L92 52.1328C91.7891 51.3047 91.0391 50.6328 89.8281 50.6328C88.3125 50.6328 87.3594 51.8516 87.3594 53.75V53.7656C87.3594 55.7031 88.3281 56.9453 89.8281 56.9453C90.9609 56.9453 91.6797 56.4453 91.9922 55.5078L92.0078 55.4609L93.3516 55.4531L93.3359 55.5391C92.9922 57.0625 91.8594 58.1484 89.8359 58.1484ZM97.6562 58.1484C96.0547 58.1484 94.8438 57.1797 94.8438 55.6484V55.6328C94.8438 54.1328 95.9531 53.2656 97.9141 53.1484L100.328 53V52.2344C100.328 51.1953 99.6953 50.6328 98.4375 50.6328C97.4297 50.6328 96.7656 51.0078 96.5469 51.6641L96.5391 51.6875H95.1797L95.1875 51.6406C95.4062 50.3203 96.6875 49.4297 98.4844 49.4297C100.539 49.4297 101.688 50.4844 101.688 52.2344V58H100.328V56.7578H100.203C99.6719 57.6562 98.7891 58.1484 97.6562 58.1484ZM96.2344 55.6172C96.2344 56.4688 96.9609 56.9688 97.9375 56.9688C99.3203 56.9688 100.328 56.0625 100.328 54.8594V54.0938L98.0781 54.2344C96.7969 54.3125 96.2344 54.7656 96.2344 55.6016V55.6172ZM107.062 58.1484C105.188 58.1484 103.898 57.2422 103.742 55.8516H105.133C105.359 56.5547 106.031 57.0156 107.109 57.0156C108.242 57.0156 109.047 56.4766 109.047 55.7109V55.6953C109.047 55.125 108.617 54.7266 107.578 54.4766L106.273 54.1641C104.695 53.7891 103.984 53.1016 103.984 51.8906V51.8828C103.984 50.4844 105.328 49.4297 107.117 49.4297C108.883 49.4297 110.109 50.3125 110.297 51.6875H108.961C108.781 51.0234 108.125 50.5625 107.109 50.5625C106.109 50.5625 105.375 51.0781 105.375 51.8203V51.8359C105.375 52.4062 105.797 52.7656 106.789 53.0078L108.086 53.3203C109.672 53.7031 110.438 54.3906 110.438 55.5938V55.6094C110.438 57.1094 108.977 58.1484 107.062 58.1484ZM115.984 58.1484C113.578 58.1484 112.125 56.4609 112.125 53.8203V53.8125C112.125 51.2109 113.609 49.4297 115.898 49.4297C118.188 49.4297 119.578 51.1328 119.578 53.6484V54.1797H113.516C113.555 55.9219 114.516 56.9375 116.016 56.9375C117.156 56.9375 117.859 56.3984 118.086 55.8906L118.117 55.8203H119.477L119.461 55.8828C119.172 57.0234 117.969 58.1484 115.984 58.1484ZM115.891 50.6406C114.641 50.6406 113.688 51.4922 113.539 53.0938H118.195C118.055 51.4297 117.133 50.6406 115.891 50.6406ZM123.492 54.5156V53.7969C123.484 52.7656 123.984 52.0625 125.055 51.4219C125.961 50.8672 126.312 50.375 126.312 49.5469V49.5312C126.312 48.5703 125.562 47.8594 124.398 47.8594C123.219 47.8594 122.469 48.5547 122.391 49.6641L122.375 49.6719L121.047 49.6797V49.6641C121.133 47.9844 122.258 46.6406 124.453 46.6406C126.422 46.6406 127.766 47.8594 127.766 49.4609V49.4766C127.766 50.6953 127.133 51.5625 126.133 52.1641C125.141 52.75 124.859 53.1875 124.859 54.0078V54.5156H123.492ZM124.281 58.1406C123.648 58.1406 123.195 57.6875 123.195 57.0547C123.195 56.4141 123.648 55.9609 124.281 55.9609C124.914 55.9609 125.359 56.4141 125.359 57.0547C125.359 57.6875 124.914 58.1406 124.281 58.1406Z" fill="black"/>
<path d="M21.1328 82.2656C18.6641 82.2656 17.0703 80.9688 16.9062 79.1328L16.8984 79.0469H18.3047L18.3125 79.1328C18.4141 80.2578 19.5859 80.9688 21.2109 80.9688C22.7422 80.9688 23.8594 80.1797 23.8594 79.0312V79.0234C23.8594 78.0859 23.2109 77.4453 21.6641 77.1016L20.4141 76.8281C18.1562 76.3281 17.1797 75.2891 17.1797 73.6562V73.6484C17.1875 71.7812 18.8203 70.4609 21.1484 70.4609C23.3984 70.4609 24.9688 71.7891 25.0859 73.4688L25.0938 73.5781H23.6875L23.6719 73.4766C23.5156 72.4844 22.5781 71.75 21.1094 71.7578C19.7031 71.7656 18.6172 72.4297 18.6172 73.6094V73.6172C18.6172 74.5156 19.2344 75.125 20.7656 75.4609L22.0156 75.7422C24.3672 76.2656 25.2969 77.2109 25.2969 78.8359V78.8438C25.2969 80.9531 23.6484 82.2656 21.1328 82.2656ZM30.9141 82.1484C28.5547 82.1484 27.0469 80.4375 27.0469 77.7656V77.75C27.0469 75.1328 28.5469 73.4297 30.9062 73.4297C32.9531 73.4297 34.1797 74.6094 34.4297 76.1094L34.4375 76.1562H33.0859L33.0781 76.1328C32.8672 75.3047 32.1172 74.6328 30.9062 74.6328C29.3906 74.6328 28.4375 75.8516 28.4375 77.75V77.7656C28.4375 79.7031 29.4062 80.9453 30.9062 80.9453C32.0391 80.9453 32.7578 80.4453 33.0703 79.5078L33.0859 79.4609L34.4297 79.4531L34.4141 79.5391C34.0703 81.0625 32.9375 82.1484 30.9141 82.1484ZM36.5 82V70.2344H37.8594V74.8438H37.9844C38.4062 73.9531 39.1953 73.4297 40.4375 73.4297C42.3281 73.4297 43.3828 74.5469 43.3828 76.5469V82H42.0234V76.875C42.0234 75.3594 41.3984 74.6328 40.0547 74.6328C38.7109 74.6328 37.8594 75.5391 37.8594 77.0156V82H36.5ZM49.2812 82.1484C46.875 82.1484 45.4219 80.4609 45.4219 77.8203V77.8125C45.4219 75.2109 46.9062 73.4297 49.1953 73.4297C51.4844 73.4297 52.875 75.1328 52.875 77.6484V78.1797H46.8125C46.8516 79.9219 47.8125 80.9375 49.3125 80.9375C50.4531 80.9375 51.1562 80.3984 51.3828 79.8906L51.4141 79.8203H52.7734L52.7578 79.8828C52.4688 81.0234 51.2656 82.1484 49.2812 82.1484ZM49.1875 74.6406C47.9375 74.6406 46.9844 75.4922 46.8359 77.0938H51.4922C51.3516 75.4297 50.4297 74.6406 49.1875 74.6406ZM58.0938 82.1484C55.9609 82.1484 54.5625 80.4219 54.5625 77.7969V77.7812C54.5625 75.1406 55.9531 73.4297 58.0938 73.4297C59.25 73.4297 60.2578 74.0078 60.7188 74.9062H60.8438V70.2344H62.2031V82H60.8438V80.6562H60.7188C60.2031 81.5938 59.2656 82.1484 58.0938 82.1484ZM58.4062 80.9453C59.9375 80.9453 60.875 79.7422 60.875 77.7969V77.7812C60.875 75.8359 59.9375 74.6328 58.4062 74.6328C56.8672 74.6328 55.9531 75.8203 55.9531 77.7812V77.7969C55.9531 79.7578 56.8672 80.9453 58.4062 80.9453ZM67.6328 82.1484C65.7188 82.1484 64.7344 81.0234 64.7344 79.0312V73.5781H66.0938V78.7031C66.0938 80.2188 66.6406 80.9453 67.9844 80.9453C69.4688 80.9453 70.2578 80.0391 70.2578 78.5625V73.5781H71.6172V82H70.2578V80.7422H70.1328C69.7188 81.6406 68.8672 82.1484 67.6328 82.1484ZM74.2344 82V70.2344H75.5938V82H74.2344ZM81.6406 82.1484C79.2344 82.1484 77.7812 80.4609 77.7812 77.8203V77.8125C77.7812 75.2109 79.2656 73.4297 81.5547 73.4297C83.8438 73.4297 85.2344 75.1328 85.2344 77.6484V78.1797H79.1719C79.2109 79.9219 80.1719 80.9375 81.6719 80.9375C82.8125 80.9375 83.5156 80.3984 83.7422 79.8906L83.7734 79.8203H85.1328L85.1172 79.8828C84.8281 81.0234 83.625 82.1484 81.6406 82.1484ZM81.5469 74.6406C80.2969 74.6406 79.3438 75.4922 79.1953 77.0938H83.8516C83.7109 75.4297 82.7891 74.6406 81.5469 74.6406ZM94.1562 82.1484C92.5547 82.1484 91.3438 81.1797 91.3438 79.6484V79.6328C91.3438 78.1328 92.4531 77.2656 94.4141 77.1484L96.8281 77V76.2344C96.8281 75.1953 96.1953 74.6328 94.9375 74.6328C93.9297 74.6328 93.2656 75.0078 93.0469 75.6641L93.0391 75.6875H91.6797L91.6875 75.6406C91.9062 74.3203 93.1875 73.4297 94.9844 73.4297C97.0391 73.4297 98.1875 74.4844 98.1875 76.2344V82H96.8281V80.7578H96.7031C96.1719 81.6562 95.2891 82.1484 94.1562 82.1484ZM92.7344 79.6172C92.7344 80.4688 93.4609 80.9688 94.4375 80.9688C95.8203 80.9688 96.8281 80.0625 96.8281 78.8594V78.0938L94.5781 78.2344C93.2969 78.3125 92.7344 78.7656 92.7344 79.6016V79.6172ZM108.617 82.1484C106.258 82.1484 104.75 80.4375 104.75 77.7656V77.75C104.75 75.1328 106.25 73.4297 108.609 73.4297C110.656 73.4297 111.883 74.6094 112.133 76.1094L112.141 76.1562H110.789L110.781 76.1328C110.57 75.3047 109.82 74.6328 108.609 74.6328C107.094 74.6328 106.141 75.8516 106.141 77.75V77.7656C106.141 79.7031 107.109 80.9453 108.609 80.9453C109.742 80.9453 110.461 80.4453 110.773 79.5078L110.789 79.4609L112.133 79.4531L112.117 79.5391C111.773 81.0625 110.641 82.1484 108.617 82.1484ZM116.438 82.1484C114.836 82.1484 113.625 81.1797 113.625 79.6484V79.6328C113.625 78.1328 114.734 77.2656 116.695 77.1484L119.109 77V76.2344C119.109 75.1953 118.477 74.6328 117.219 74.6328C116.211 74.6328 115.547 75.0078 115.328 75.6641L115.32 75.6875H113.961L113.969 75.6406C114.188 74.3203 115.469 73.4297 117.266 73.4297C119.32 73.4297 120.469 74.4844 120.469 76.2344V82H119.109V80.7578H118.984C118.453 81.6562 117.57 82.1484 116.438 82.1484ZM115.016 79.6172C115.016 80.4688 115.742 80.9688 116.719 80.9688C118.102 80.9688 119.109 80.0625 119.109 78.8594V78.0938L116.859 78.2344C115.578 78.3125 115.016 78.7656 115.016 79.6016V79.6172ZM123.031 82V70.2344H124.391V82H123.031ZM127.078 82V70.2344H128.438V82H127.078ZM137.172 82L134.812 73.5781H136.172L137.828 80.3125H137.953L139.836 73.5781H141.125L143.008 80.3125H143.133L144.789 73.5781H146.141L143.781 82H142.414L140.531 75.4844H140.406L138.531 82H137.172ZM148.656 71.9531C148.141 71.9531 147.719 71.5312 147.719 71.0156C147.719 70.5 148.141 70.0781 148.656 70.0781C149.172 70.0781 149.594 70.5 149.594 71.0156C149.594 71.5312 149.172 71.9531 148.656 71.9531ZM147.969 82V73.5781H149.328V82H147.969ZM154.883 82.0625C153.148 82.0625 152.422 81.4219 152.422 79.8125V74.7031H151.094V73.5781H152.422V71.3984H153.828V73.5781H155.672V74.7031H153.828V79.4688C153.828 80.4609 154.172 80.8594 155.047 80.8594C155.289 80.8594 155.422 80.8516 155.672 80.8281V81.9844C155.406 82.0312 155.148 82.0625 154.883 82.0625ZM157.781 82V70.2344H159.141V74.8438H159.266C159.688 73.9531 160.477 73.4297 161.719 73.4297C163.609 73.4297 164.664 74.5469 164.664 76.5469V82H163.305V76.875C163.305 75.3594 162.68 74.6328 161.336 74.6328C159.992 74.6328 159.141 75.5391 159.141 77.0156V82H157.781ZM175.086 82.1484C172.688 82.1484 171.203 80.4922 171.203 77.7969V77.7812C171.203 75.0781 172.688 73.4297 175.086 73.4297C177.484 73.4297 178.969 75.0781 178.969 77.7812V77.7969C178.969 80.4922 177.484 82.1484 175.086 82.1484ZM175.086 80.9453C176.68 80.9453 177.578 79.7812 177.578 77.7969V77.7812C177.578 75.7891 176.68 74.6328 175.086 74.6328C173.492 74.6328 172.594 75.7891 172.594 77.7812V77.7969C172.594 79.7812 173.492 80.9453 175.086 80.9453ZM183.898 82.1484C181.984 82.1484 181 81.0234 181 79.0312V73.5781H182.359V78.7031C182.359 80.2188 182.906 80.9453 184.25 80.9453C185.734 80.9453 186.523 80.0391 186.523 78.5625V73.5781H187.883V82H186.523V80.7422H186.398C185.984 81.6406 185.133 82.1484 183.898 82.1484ZM190.422 82V73.5781H191.781V74.8281H191.906C192.227 73.9453 193.016 73.4297 194.156 73.4297C194.414 73.4297 194.703 73.4609 194.836 73.4844V74.8047C194.555 74.7578 194.297 74.7266 194 74.7266C192.703 74.7266 191.781 75.5469 191.781 76.7812V82H190.422ZM204.008 82.0625C202.273 82.0625 201.547 81.4219 201.547 79.8125V74.7031H200.219V73.5781H201.547V71.3984H202.953V73.5781H204.797V74.7031H202.953V79.4688C202.953 80.4609 203.297 80.8594 204.172 80.8594C204.414 80.8594 204.547 80.8516 204.797 80.8281V81.9844C204.531 82.0312 204.273 82.0625 204.008 82.0625ZM210.141 82.1484C207.734 82.1484 206.281 80.4609 206.281 77.8203V77.8125C206.281 75.2109 207.766 73.4297 210.055 73.4297C212.344 73.4297 213.734 75.1328 213.734 77.6484V78.1797H207.672C207.711 79.9219 208.672 80.9375 210.172 80.9375C211.312 80.9375 212.016 80.3984 212.242 79.8906L212.273 79.8203H213.633L213.617 79.8828C213.328 81.0234 212.125 82.1484 210.141 82.1484ZM210.047 74.6406C208.797 74.6406 207.844 75.4922 207.695 77.0938H212.352C212.211 75.4297 211.289 74.6406 210.047 74.6406ZM218.156 82.1484C216.555 82.1484 215.344 81.1797 215.344 79.6484V79.6328C215.344 78.1328 216.453 77.2656 218.414 77.1484L220.828 77V76.2344C220.828 75.1953 220.195 74.6328 218.938 74.6328C217.93 74.6328 217.266 75.0078 217.047 75.6641L217.039 75.6875H215.68L215.688 75.6406C215.906 74.3203 217.188 73.4297 218.984 73.4297C221.039 73.4297 222.188 74.4844 222.188 76.2344V82H220.828V80.7578H220.703C220.172 81.6562 219.289 82.1484 218.156 82.1484ZM216.734 79.6172C216.734 80.4688 217.461 80.9688 218.438 80.9688C219.82 80.9688 220.828 80.0625 220.828 78.8594V78.0938L218.578 78.2344C217.297 78.3125 216.734 78.7656 216.734 79.6016V79.6172ZM224.672 82V73.5781H226.031V74.8594H226.156C226.531 73.9531 227.328 73.4297 228.43 73.4297C229.57 73.4297 230.367 74.0312 230.758 74.9062H230.883C231.336 74.0156 232.297 73.4297 233.461 73.4297C235.18 73.4297 236.141 74.4141 236.141 76.1797V82H234.781V76.4922C234.781 75.25 234.211 74.6328 233.023 74.6328C231.852 74.6328 231.078 75.5156 231.078 76.5859V82H229.719V76.2812C229.719 75.2812 229.031 74.6328 227.969 74.6328C226.867 74.6328 226.031 75.5938 226.031 76.7812V82H224.672ZM246.086 82.0625C244.352 82.0625 243.625 81.4219 243.625 79.8125V74.7031H242.297V73.5781H243.625V71.3984H245.031V73.5781H246.875V74.7031H245.031V79.4688C245.031 80.4609 245.375 80.8594 246.25 80.8594C246.492 80.8594 246.625 80.8516 246.875 80.8281V81.9844C246.609 82.0312 246.352 82.0625 246.086 82.0625ZM252.242 82.1484C249.844 82.1484 248.359 80.4922 248.359 77.7969V77.7812C248.359 75.0781 249.844 73.4297 252.242 73.4297C254.641 73.4297 256.125 75.0781 256.125 77.7812V77.7969C256.125 80.4922 254.641 82.1484 252.242 82.1484ZM252.242 80.9453C253.836 80.9453 254.734 79.7812 254.734 77.7969V77.7812C254.734 75.7891 253.836 74.6328 252.242 74.6328C250.648 74.6328 249.75 75.7891 249.75 77.7812V77.7969C249.75 79.7812 250.648 80.9453 252.242 80.9453ZM17.3438 106V94.2344H18.7031V106H17.3438ZM24.75 106.148C22.3438 106.148 20.8906 104.461 20.8906 101.82V101.812C20.8906 99.2109 22.375 97.4297 24.6641 97.4297C26.9531 97.4297 28.3438 99.1328 28.3438 101.648V102.18H22.2812C22.3203 103.922 23.2812 104.938 24.7812 104.938C25.9219 104.938 26.625 104.398 26.8516 103.891L26.8828 103.82H28.2422L28.2266 103.883C27.9375 105.023 26.7344 106.148 24.75 106.148ZM24.6562 98.6406C23.4062 98.6406 22.4531 99.4922 22.3047 101.094H26.9609C26.8203 99.4297 25.8984 98.6406 24.6562 98.6406ZM32.7656 106.148C31.1641 106.148 29.9531 105.18 29.9531 103.648V103.633C29.9531 102.133 31.0625 101.266 33.0234 101.148L35.4375 101V100.234C35.4375 99.1953 34.8047 98.6328 33.5469 98.6328C32.5391 98.6328 31.875 99.0078 31.6562 99.6641L31.6484 99.6875H30.2891L30.2969 99.6406C30.5156 98.3203 31.7969 97.4297 33.5938 97.4297C35.6484 97.4297 36.7969 98.4844 36.7969 100.234V106H35.4375V104.758H35.3125C34.7812 105.656 33.8984 106.148 32.7656 106.148ZM31.3438 103.617C31.3438 104.469 32.0703 104.969 33.0469 104.969C34.4297 104.969 35.4375 104.062 35.4375 102.859V102.094L33.1875 102.234C31.9062 102.312 31.3438 102.766 31.3438 103.602V103.617ZM39.2812 106V97.5781H40.6406V98.8281H40.7656C41.0859 97.9453 41.875 97.4297 43.0156 97.4297C43.2734 97.4297 43.5625 97.4609 43.6953 97.4844V98.8047C43.4141 98.7578 43.1562 98.7266 42.8594 98.7266C41.5625 98.7266 40.6406 99.5469 40.6406 100.781V106H39.2812ZM45.5312 106V97.5781H46.8906V98.8438H47.0156C47.4375 97.9531 48.2266 97.4297 49.4688 97.4297C51.3594 97.4297 52.4141 98.5469 52.4141 100.547V106H51.0547V100.875C51.0547 99.3594 50.4297 98.6328 49.0859 98.6328C47.7422 98.6328 46.8906 99.5391 46.8906 101.016V106H45.5312ZM59.375 106V97.5781H60.7344V98.8594H60.8594C61.2344 97.9531 62.0312 97.4297 63.1328 97.4297C64.2734 97.4297 65.0703 98.0312 65.4609 98.9062H65.5859C66.0391 98.0156 67 97.4297 68.1641 97.4297C69.8828 97.4297 70.8438 98.4141 70.8438 100.18V106H69.4844V100.492C69.4844 99.25 68.9141 98.6328 67.7266 98.6328C66.5547 98.6328 65.7812 99.5156 65.7812 100.586V106H64.4219V100.281C64.4219 99.2812 63.7344 98.6328 62.6719 98.6328C61.5703 98.6328 60.7344 99.5938 60.7344 100.781V106H59.375ZM76.7578 106.148C74.3594 106.148 72.875 104.492 72.875 101.797V101.781C72.875 99.0781 74.3594 97.4297 76.7578 97.4297C79.1562 97.4297 80.6406 99.0781 80.6406 101.781V101.797C80.6406 104.492 79.1562 106.148 76.7578 106.148ZM76.7578 104.945C78.3516 104.945 79.25 103.781 79.25 101.797V101.781C79.25 99.7891 78.3516 98.6328 76.7578 98.6328C75.1641 98.6328 74.2656 99.7891 74.2656 101.781V101.797C74.2656 103.781 75.1641 104.945 76.7578 104.945ZM82.75 106V97.5781H84.1094V98.8281H84.2344C84.5547 97.9453 85.3438 97.4297 86.4844 97.4297C86.7422 97.4297 87.0312 97.4609 87.1641 97.4844V98.8047C86.8828 98.7578 86.625 98.7266 86.3281 98.7266C85.0312 98.7266 84.1094 99.5469 84.1094 100.781V106H82.75ZM92.0469 106.148C89.6406 106.148 88.1875 104.461 88.1875 101.82V101.812C88.1875 99.2109 89.6719 97.4297 91.9609 97.4297C94.25 97.4297 95.6406 99.1328 95.6406 101.648V102.18H89.5781C89.6172 103.922 90.5781 104.938 92.0781 104.938C93.2188 104.938 93.9219 104.398 94.1484 103.891L94.1797 103.82H95.5391L95.5234 103.883C95.2344 105.023 94.0312 106.148 92.0469 106.148ZM91.9531 98.6406C90.7031 98.6406 89.75 99.4922 89.6016 101.094H94.2578C94.1172 99.4297 93.1953 98.6406 91.9531 98.6406ZM98.8594 106.078C98.3047 106.078 97.8438 105.617 97.8438 105.062C97.8438 104.5 98.3047 104.047 98.8594 104.047C99.4219 104.047 99.875 104.5 99.875 105.062C99.875 105.617 99.4219 106.078 98.8594 106.078Z" fill="#444A4B"/>
<path d="M16 132C16 127.582 19.5817 124 24 124H111C115.418 124 119 127.582 119 132V156C119 160.418 115.418 164 111 164H24C19.5817 164 16 160.418 16 156V132Z" fill="#A72264"/>
<path d="M32.9961 139.875V138.364H42.0018V139.875H38.3711V150H36.6211V139.875H32.9961ZM44.8878 150.193C44.3347 150.193 43.8347 150.091 43.3878 149.886C42.9408 149.678 42.5866 149.377 42.3253 148.983C42.0677 148.589 41.9389 148.106 41.9389 147.534C41.9389 147.042 42.0336 146.636 42.223 146.318C42.4124 146 42.6681 145.748 42.99 145.562C43.312 145.377 43.6718 145.237 44.0696 145.142C44.4673 145.047 44.8726 144.975 45.2855 144.926C45.8082 144.866 46.2325 144.816 46.5582 144.778C46.884 144.737 47.1207 144.67 47.2684 144.58C47.4162 144.489 47.49 144.341 47.49 144.136V144.097C47.49 143.6 47.3499 143.216 47.0696 142.943C46.7931 142.67 46.3802 142.534 45.8309 142.534C45.259 142.534 44.8082 142.661 44.4787 142.915C44.1529 143.165 43.9275 143.443 43.8025 143.75L42.2059 143.386C42.3953 142.856 42.6718 142.428 43.0355 142.102C43.4029 141.773 43.8253 141.534 44.3025 141.386C44.7798 141.235 45.2817 141.159 45.8082 141.159C46.1567 141.159 46.526 141.201 46.9162 141.284C47.3101 141.364 47.6775 141.511 48.0184 141.727C48.3631 141.943 48.6453 142.252 48.865 142.653C49.0847 143.051 49.1946 143.568 49.1946 144.205V150H47.5355V148.807H47.4673C47.3575 149.027 47.1927 149.242 46.973 149.455C46.7533 149.667 46.4711 149.843 46.1264 149.983C45.7817 150.123 45.3688 150.193 44.8878 150.193ZM45.2571 148.83C45.7268 148.83 46.1283 148.737 46.4616 148.551C46.7987 148.366 47.0544 148.123 47.2287 147.824C47.4067 147.521 47.4957 147.197 47.4957 146.852V145.727C47.4351 145.788 47.3177 145.845 47.1434 145.898C46.973 145.947 46.7779 145.991 46.5582 146.028C46.3385 146.062 46.1245 146.095 45.9162 146.125C45.7078 146.152 45.5336 146.174 45.3934 146.193C45.0639 146.235 44.7628 146.305 44.49 146.403C44.2211 146.502 44.0052 146.644 43.8423 146.83C43.6832 147.011 43.6037 147.254 43.6037 147.557C43.6037 147.977 43.759 148.295 44.0696 148.511C44.3802 148.723 44.776 148.83 45.2571 148.83ZM52.8362 138.364V150H51.1374V138.364H52.8362ZM56.3642 147.04L56.3529 144.966H56.6483L60.1256 141.273H62.1597L58.1938 145.477H57.9267L56.3642 147.04ZM54.8017 150V138.364H56.5006V150H54.8017ZM60.3131 150L57.1881 145.852L58.3586 144.665L62.3983 150H60.3131ZM71.3762 141.273V142.636H66.6092V141.273H71.3762ZM67.8876 139.182H69.5864V147.438C69.5864 147.767 69.6357 148.015 69.7342 148.182C69.8327 148.345 69.9596 148.456 70.1149 148.517C70.2739 148.574 70.4463 148.602 70.6319 148.602C70.7683 148.602 70.8876 148.593 70.9899 148.574C71.0921 148.555 71.1717 148.54 71.2285 148.528L71.5353 149.932C71.4368 149.97 71.2967 150.008 71.1149 150.045C70.933 150.087 70.7058 150.11 70.433 150.114C69.9861 150.121 69.5694 150.042 69.183 149.875C68.7967 149.708 68.4842 149.451 68.2455 149.102C68.0069 148.754 67.8876 148.316 67.8876 147.79V139.182ZM76.5179 150.176C75.6997 150.176 74.9857 149.989 74.3758 149.614C73.766 149.239 73.2925 148.714 72.9554 148.04C72.6182 147.366 72.4497 146.578 72.4497 145.676C72.4497 144.771 72.6182 143.979 72.9554 143.301C73.2925 142.623 73.766 142.097 74.3758 141.722C74.9857 141.347 75.6997 141.159 76.5179 141.159C77.3361 141.159 78.0501 141.347 78.6599 141.722C79.2698 142.097 79.7432 142.623 80.0804 143.301C80.4175 143.979 80.5861 144.771 80.5861 145.676C80.5861 146.578 80.4175 147.366 80.0804 148.04C79.7432 148.714 79.2698 149.239 78.6599 149.614C78.0501 149.989 77.3361 150.176 76.5179 150.176ZM76.5236 148.75C77.0539 148.75 77.4932 148.61 77.8417 148.33C78.1902 148.049 78.4478 147.676 78.6145 147.21C78.7849 146.744 78.8701 146.231 78.8701 145.67C78.8701 145.114 78.7849 144.602 78.6145 144.136C78.4478 143.667 78.1902 143.29 77.8417 143.006C77.4932 142.722 77.0539 142.58 76.5236 142.58C75.9895 142.58 75.5463 142.722 75.194 143.006C74.8455 143.29 74.5861 143.667 74.4156 144.136C74.2489 144.602 74.1656 145.114 74.1656 145.67C74.1656 146.231 74.2489 146.744 74.4156 147.21C74.5861 147.676 74.8455 148.049 75.194 148.33C75.5463 148.61 75.9895 148.75 76.5236 148.75ZM91.6051 146.381V141.273H93.3097V150H91.6392V148.489H91.5483C91.3476 148.955 91.0256 149.343 90.5824 149.653C90.143 149.96 89.5957 150.114 88.9404 150.114C88.3798 150.114 87.8835 149.991 87.4517 149.744C87.0237 149.494 86.6866 149.125 86.4404 148.636C86.1979 148.148 86.0767 147.544 86.0767 146.824V141.273H87.7756V146.619C87.7756 147.214 87.9404 147.687 88.2699 148.04C88.5995 148.392 89.0275 148.568 89.554 148.568C89.8722 148.568 90.1885 148.489 90.5029 148.33C90.821 148.17 91.0843 147.93 91.2926 147.608C91.5048 147.286 91.6089 146.877 91.6051 146.381ZM101.812 143.403L100.272 143.676C100.208 143.479 100.106 143.292 99.9655 143.114C99.8292 142.936 99.6436 142.79 99.4087 142.676C99.1739 142.562 98.8803 142.506 98.528 142.506C98.047 142.506 97.6455 142.614 97.3235 142.83C97.0015 143.042 96.8405 143.316 96.8405 143.653C96.8405 143.945 96.9485 144.18 97.1644 144.358C97.3803 144.536 97.7288 144.682 98.2099 144.795L99.5962 145.114C100.399 145.299 100.998 145.585 101.392 145.972C101.786 146.358 101.983 146.86 101.983 147.477C101.983 148 101.831 148.466 101.528 148.875C101.229 149.28 100.81 149.598 100.272 149.83C99.7383 150.061 99.1189 150.176 98.4144 150.176C97.4371 150.176 96.6398 149.968 96.0224 149.551C95.4049 149.131 95.0261 148.534 94.886 147.761L96.528 147.511C96.6303 147.939 96.8405 148.263 97.1587 148.483C97.4769 148.699 97.8917 148.807 98.403 148.807C98.9599 148.807 99.4049 148.691 99.7383 148.46C100.072 148.225 100.238 147.939 100.238 147.602C100.238 147.33 100.136 147.1 99.9314 146.915C99.7307 146.729 99.422 146.589 99.0053 146.494L97.528 146.17C96.7136 145.985 96.1114 145.689 95.7212 145.284C95.3349 144.879 95.1417 144.366 95.1417 143.744C95.1417 143.229 95.2856 142.778 95.5735 142.392C95.8614 142.006 96.2591 141.705 96.7667 141.489C97.2742 141.269 97.8557 141.159 98.511 141.159C99.4542 141.159 100.197 141.364 100.738 141.773C101.28 142.178 101.638 142.722 101.812 143.403Z" fill="white"/>
<g filter="url(#filter0_dd_1542_15583)">
<path d="M16 185.577C16 182.497 18.4967 180 21.5766 180H266.423C269.503 180 272 182.497 272 185.577V249.877C272 252.957 269.503 255.454 266.423 255.454H21.5766C18.4967 255.454 16 252.957 16 249.877V185.577Z" fill="white"/>
<circle cx="37.2269" cy="201.227" r="5.22686" fill="#FF5F56"/>
<circle cx="55.5208" cy="201.227" r="5.22686" fill="#FFBD2E"/>
<circle cx="73.815" cy="201.227" r="5.22686" fill="#27C93F"/>
<path d="M32.96 229.142H34.128V230.582C34.288 230.048 34.5653 229.648 34.96 229.382C35.3547 229.115 35.8187 228.982 36.352 228.982C36.9067 228.982 37.4133 229.126 37.872 229.414C38.3413 229.691 38.7147 230.112 38.992 230.678C39.2693 231.243 39.408 231.931 39.408 232.742C39.408 233.563 39.264 234.272 38.976 234.87C38.688 235.456 38.304 235.899 37.824 236.198C37.3547 236.496 36.8533 236.646 36.32 236.646C35.8827 236.646 35.472 236.544 35.088 236.342C34.704 236.139 34.3893 235.856 34.144 235.494V239.126H32.96V229.142ZM36.128 235.622C36.7147 235.622 37.2053 235.403 37.6 234.966C38.0053 234.518 38.208 233.792 38.208 232.79C38.208 231.883 38.032 231.19 37.68 230.71C37.328 230.219 36.8267 229.974 36.176 229.974C35.568 229.974 35.072 230.23 34.688 230.742C34.3147 231.243 34.128 232.011 34.128 233.046C34.1493 233.888 34.336 234.528 34.688 234.966C35.04 235.403 35.52 235.622 36.128 235.622ZM41.6 236.454V235.526H43.472V230.07H41.696V229.142H44.624V235.526H46.336V236.454H41.6ZM43.984 227.606C43.76 227.606 43.568 227.526 43.408 227.366C43.248 227.206 43.168 227.014 43.168 226.79C43.168 226.555 43.2427 226.358 43.392 226.198C43.552 226.038 43.7493 225.958 43.984 225.958C44.208 225.958 44.4 226.043 44.56 226.214C44.7307 226.374 44.816 226.566 44.816 226.79C44.816 227.014 44.7307 227.206 44.56 227.366C44.4 227.526 44.208 227.606 43.984 227.606ZM48.96 229.142H50.128V230.582C50.288 230.048 50.5653 229.648 50.96 229.382C51.3547 229.115 51.8187 228.982 52.352 228.982C52.9067 228.982 53.4133 229.126 53.872 229.414C54.3413 229.691 54.7147 230.112 54.992 230.678C55.2693 231.243 55.408 231.931 55.408 232.742C55.408 233.563 55.264 234.272 54.976 234.87C54.688 235.456 54.304 235.899 53.824 236.198C53.3547 236.496 52.8533 236.646 52.32 236.646C51.8827 236.646 51.472 236.544 51.088 236.342C50.704 236.139 50.3893 235.856 50.144 235.494V239.126H48.96V229.142ZM52.128 235.622C52.7147 235.622 53.2053 235.403 53.6 234.966C54.0053 234.518 54.208 233.792 54.208 232.79C54.208 231.883 54.032 231.19 53.68 230.71C53.328 230.219 52.8267 229.974 52.176 229.974C51.568 229.974 51.072 230.23 50.688 230.742C50.3147 231.243 50.128 232.011 50.128 233.046C50.1493 233.888 50.336 234.528 50.688 234.966C51.04 235.403 51.52 235.622 52.128 235.622ZM65.6 236.454V235.526H67.472V230.07H65.696V229.142H68.624V235.526H70.336V236.454H65.6ZM67.984 227.606C67.76 227.606 67.568 227.526 67.408 227.366C67.248 227.206 67.168 227.014 67.168 226.79C67.168 226.555 67.2427 226.358 67.392 226.198C67.552 226.038 67.7493 225.958 67.984 225.958C68.208 225.958 68.4 226.043 68.56 226.214C68.7307 226.374 68.816 226.566 68.816 226.79C68.816 227.014 68.7307 227.206 68.56 227.366C68.4 227.526 68.208 227.606 67.984 227.606ZM73.152 229.142H74.272V230.438C74.56 229.99 74.9227 229.632 75.36 229.366C75.7973 229.099 76.2613 228.966 76.752 228.966C77.4027 228.966 77.92 229.216 78.304 229.718C78.6987 230.208 78.896 230.976 78.896 232.022V236.454H77.776V232.054C77.776 231.328 77.6533 230.8 77.408 230.47C77.1627 230.139 76.8373 229.974 76.432 229.974C76.1013 229.974 75.7653 230.07 75.424 230.262C75.0933 230.454 74.816 230.726 74.592 231.078C74.3787 231.419 74.272 231.808 74.272 232.246V236.454H73.152V229.142ZM84.528 232.15C85.4453 232.427 86.0907 232.731 86.464 233.062C86.848 233.382 87.04 233.803 87.04 234.326C87.04 234.987 86.7787 235.536 86.256 235.974C85.744 236.4 84.9973 236.614 84.016 236.614C82.7787 236.614 81.744 236.23 80.912 235.462L81.552 234.374L81.568 234.358L81.584 234.374C81.9147 234.8 82.256 235.12 82.608 235.334C82.96 235.547 83.44 235.654 84.048 235.654C84.624 235.654 85.0773 235.552 85.408 235.35C85.7387 235.136 85.904 234.848 85.904 234.486C85.904 234.176 85.7707 233.92 85.504 233.718C85.2373 233.515 84.7573 233.302 84.064 233.078C82.2293 232.555 81.312 231.798 81.312 230.806C81.312 230.24 81.5413 229.792 82 229.462C82.4693 229.131 83.136 228.966 84 228.966C84.6613 228.966 85.216 229.062 85.664 229.254C86.1227 229.435 86.5387 229.723 86.912 230.118L86.256 230.918L86.24 230.934C86.016 230.592 85.696 230.326 85.28 230.134C84.8747 229.931 84.4587 229.83 84.032 229.83C83.5733 229.83 83.1947 229.91 82.896 230.07C82.608 230.23 82.464 230.454 82.464 230.742C82.464 231.008 82.6133 231.254 82.912 231.478C83.2107 231.702 83.7493 231.926 84.528 232.15ZM86.064 230.966C86.064 230.912 86.1067 230.918 86.192 230.982L86.144 231.046L86.064 230.966ZM86.24 230.934C86.272 230.976 86.2827 231.003 86.272 231.014C86.272 231.024 86.2613 231.024 86.24 231.014C86.2187 231.003 86.2027 230.992 86.192 230.982L86.24 230.934ZM81.744 234.31C81.744 234.352 81.696 234.352 81.6 234.31L81.648 234.23L81.744 234.294V234.31ZM81.568 234.358C81.536 234.304 81.5253 234.278 81.536 234.278C81.5467 234.278 81.568 234.288 81.6 234.31L81.568 234.358ZM95.104 235.782C94.4 236.304 93.6267 236.566 92.784 236.566C91.9733 236.566 91.3973 236.32 91.056 235.83C90.7253 235.339 90.56 234.539 90.56 233.43C90.56 233.248 90.5707 232.934 90.592 232.486L90.736 230.086H89.12V229.142H90.8L90.912 227.19L92.192 226.982L92.352 226.966L92.368 227.062C92.2933 227.168 92.2347 227.259 92.192 227.334C92.16 227.408 92.1387 227.526 92.128 227.686L91.952 229.142H94.384V230.086H91.888L91.744 232.566C91.7227 232.992 91.712 233.275 91.712 233.414C91.712 234.267 91.808 234.848 92 235.158C92.2027 235.456 92.5227 235.606 92.96 235.606C93.28 235.606 93.5733 235.547 93.84 235.43C94.1067 235.312 94.4107 235.126 94.752 234.87L95.104 235.782ZM99.904 228.982C100.949 228.982 101.744 229.254 102.288 229.798C102.843 230.342 103.12 231.264 103.12 232.566V236.454H101.872V235.334C101.424 236.198 100.592 236.63 99.376 236.63C98.5653 236.63 97.9307 236.448 97.472 236.086C97.0133 235.712 96.784 235.222 96.784 234.614C96.784 234.102 96.9493 233.654 97.28 233.27C97.6107 232.886 98.0533 232.592 98.608 232.39C99.1733 232.176 99.792 232.07 100.464 232.07C101.072 232.07 101.621 232.102 102.112 232.166C102.048 231.344 101.829 230.768 101.456 230.438C101.093 230.096 100.549 229.926 99.824 229.926C99.4613 229.926 99.1093 229.995 98.768 230.134C98.4373 230.272 98.1333 230.475 97.856 230.742L97.296 230.006C97.9787 229.323 98.848 228.982 99.904 228.982ZM99.488 235.75C100.277 235.75 100.901 235.52 101.36 235.062C101.819 234.592 102.069 233.92 102.112 233.046C101.632 232.971 101.115 232.934 100.56 232.934C99.7493 232.934 99.1093 233.067 98.64 233.334C98.1707 233.6 97.936 234.006 97.936 234.55C97.936 235.35 98.4533 235.75 99.488 235.75ZM105.264 236.454V235.526H107.424V226.742H105.36V225.814H108.592V235.526H110.736V236.454H105.264ZM113.264 236.454V235.526H115.424V226.742H113.36V225.814H116.592V235.526H118.736V236.454H113.264ZM129.264 236.454V235.526H131.424V226.742H129.36V225.814H132.592V235.526H134.736V236.454H129.264ZM137.6 236.454V235.526H139.472V230.07H137.696V229.142H140.624V235.526H142.336V236.454H137.6ZM139.984 227.606C139.76 227.606 139.568 227.526 139.408 227.366C139.248 227.206 139.168 227.014 139.168 226.79C139.168 226.555 139.243 226.358 139.392 226.198C139.552 226.038 139.749 225.958 139.984 225.958C140.208 225.958 140.4 226.043 140.56 226.214C140.731 226.374 140.816 226.566 140.816 226.79C140.816 227.014 140.731 227.206 140.56 227.366C140.4 227.526 140.208 227.606 139.984 227.606ZM151.6 229.894C151.504 229.883 151.365 229.878 151.184 229.878C150.672 229.878 150.245 229.99 149.904 230.214C150.085 230.576 150.176 230.976 150.176 231.414C150.176 231.894 150.069 232.331 149.856 232.726C149.653 233.11 149.355 233.414 148.96 233.638C148.576 233.862 148.128 233.974 147.616 233.974C147.211 233.974 146.832 233.899 146.48 233.75C146.288 233.984 146.192 234.208 146.192 234.422C146.192 234.678 146.352 234.864 146.672 234.982C147.003 235.088 147.589 235.142 148.432 235.142C149.467 235.142 150.171 235.302 150.544 235.622C150.928 235.931 151.12 236.39 151.12 236.998C151.12 237.627 150.864 238.15 150.352 238.566C149.84 238.992 149.04 239.206 147.952 239.206C146.907 239.206 146.085 239.046 145.488 238.726C144.901 238.406 144.608 237.936 144.608 237.318C144.608 236.934 144.715 236.603 144.928 236.326C145.141 236.048 145.413 235.83 145.744 235.67C145.392 235.435 145.216 235.11 145.216 234.694C145.216 234.267 145.435 233.819 145.872 233.35C145.605 233.115 145.403 232.832 145.264 232.502C145.125 232.171 145.056 231.808 145.056 231.414C145.056 230.944 145.157 230.518 145.36 230.134C145.573 229.739 145.872 229.43 146.256 229.206C146.651 228.982 147.104 228.87 147.616 228.87C148.395 228.87 149.019 229.12 149.488 229.622C149.744 229.387 150.005 229.216 150.272 229.11C150.549 228.992 150.853 228.934 151.184 228.934L151.456 228.95L151.6 229.894ZM147.616 233.014C148.075 233.014 148.453 232.859 148.752 232.55C149.061 232.24 149.216 231.862 149.216 231.414C149.216 230.966 149.061 230.587 148.752 230.278C148.453 229.968 148.075 229.814 147.616 229.814C147.157 229.814 146.773 229.968 146.464 230.278C146.165 230.587 146.016 230.966 146.016 231.414C146.016 231.862 146.165 232.24 146.464 232.55C146.773 232.859 147.157 233.014 147.616 233.014ZM150.064 237.174C150.064 236.918 150.016 236.715 149.92 236.566C149.835 236.427 149.659 236.326 149.392 236.262C149.125 236.187 148.725 236.15 148.192 236.15C147.424 236.15 146.811 236.08 146.352 235.942C146.096 236.112 145.915 236.288 145.808 236.47C145.712 236.651 145.664 236.891 145.664 237.19C145.664 237.552 145.867 237.835 146.272 238.038C146.677 238.24 147.243 238.342 147.968 238.342C148.672 238.342 149.195 238.235 149.536 238.022C149.888 237.819 150.064 237.536 150.064 237.174ZM153.168 225.814H154.432V225.926C154.368 225.99 154.325 226.059 154.304 226.134C154.293 226.208 154.288 226.336 154.288 226.518V230.438C154.576 229.99 154.933 229.632 155.36 229.366C155.797 229.099 156.24 228.966 156.688 228.966C157.381 228.966 157.925 229.211 158.32 229.702C158.715 230.192 158.912 230.966 158.912 232.022V236.454H157.792V232.054C157.792 231.328 157.669 230.8 157.424 230.47C157.179 230.139 156.853 229.974 156.448 229.974C156.107 229.974 155.771 230.07 155.44 230.262C155.109 230.443 154.832 230.71 154.608 231.062C154.395 231.403 154.288 231.798 154.288 232.246V236.454H153.168V225.814ZM167.104 235.782C166.4 236.304 165.627 236.566 164.784 236.566C163.973 236.566 163.397 236.32 163.056 235.83C162.725 235.339 162.56 234.539 162.56 233.43C162.56 233.248 162.571 232.934 162.592 232.486L162.736 230.086H161.12V229.142H162.8L162.912 227.19L164.192 226.982L164.352 226.966L164.368 227.062C164.293 227.168 164.235 227.259 164.192 227.334C164.16 227.408 164.139 227.526 164.128 227.686L163.952 229.142H166.384V230.086H163.888L163.744 232.566C163.723 232.992 163.712 233.275 163.712 233.414C163.712 234.267 163.808 234.848 164 235.158C164.203 235.456 164.523 235.606 164.96 235.606C165.28 235.606 165.573 235.547 165.84 235.43C166.107 235.312 166.411 235.126 166.752 234.87L167.104 235.782ZM169.264 236.454V235.526H171.424V226.742H169.36V225.814H172.592V235.526H174.736V236.454H169.264ZM183.088 229.142C183.024 229.579 182.923 230.011 182.784 230.438C182.656 230.864 182.469 231.43 182.224 232.134L180.4 237.286C180.155 237.968 179.835 238.464 179.44 238.774C179.045 239.083 178.576 239.238 178.032 239.238C177.349 239.238 176.789 239.03 176.352 238.614L176.848 237.83L176.864 237.814L176.88 237.83C177.051 237.99 177.232 238.107 177.424 238.182C177.616 238.256 177.84 238.294 178.096 238.294C178.491 238.294 178.805 238.155 179.04 237.878C179.275 237.6 179.504 237.142 179.728 236.502L176.736 229.142H177.936L180.208 234.998L181.168 232.054C181.403 231.318 181.573 230.758 181.68 230.374C181.797 229.979 181.883 229.568 181.936 229.142H183.088ZM177.04 237.766C177.04 237.787 177.029 237.798 177.008 237.798L176.88 237.766L176.944 237.686L177.04 237.75V237.766ZM176.864 237.814C176.811 237.76 176.795 237.739 176.816 237.75C176.848 237.76 176.869 237.766 176.88 237.766L176.864 237.814ZM185.136 231.958V230.886H190.896V231.958H185.136ZM199.104 235.782C198.4 236.304 197.627 236.566 196.784 236.566C195.973 236.566 195.397 236.32 195.056 235.83C194.725 235.339 194.56 234.539 194.56 233.43C194.56 233.248 194.571 232.934 194.592 232.486L194.736 230.086H193.12V229.142H194.8L194.912 227.19L196.192 226.982L196.352 226.966L196.368 227.062C196.293 227.168 196.235 227.259 196.192 227.334C196.16 227.408 196.139 227.526 196.128 227.686L195.952 229.142H198.384V230.086H195.888L195.744 232.566C195.723 232.992 195.712 233.275 195.712 233.414C195.712 234.267 195.808 234.848 196 235.158C196.203 235.456 196.523 235.606 196.96 235.606C197.28 235.606 197.573 235.547 197.84 235.43C198.107 235.312 198.411 235.126 198.752 234.87L199.104 235.782ZM206.816 230.662V230.678C206.507 230.39 206.245 230.198 206.032 230.102C205.829 230.006 205.589 229.958 205.312 229.958C204.928 229.958 204.565 230.054 204.224 230.246C203.883 230.438 203.605 230.731 203.392 231.126C203.179 231.51 203.072 231.995 203.072 232.582V236.47H201.904V229.142H203.104L203.072 230.486C203.275 230.006 203.584 229.632 204 229.366C204.427 229.099 204.891 228.966 205.392 228.966C206.171 228.966 206.816 229.232 207.328 229.766L206.816 230.662ZM206.816 230.678C206.891 230.742 206.907 230.768 206.864 230.758C206.832 230.747 206.805 230.736 206.784 230.726L206.816 230.678ZM206.64 230.726C206.64 230.694 206.656 230.683 206.688 230.694C206.72 230.694 206.752 230.704 206.784 230.726L206.752 230.806L206.64 230.742V230.726ZM211.904 228.982C212.949 228.982 213.744 229.254 214.288 229.798C214.843 230.342 215.12 231.264 215.12 232.566V236.454H213.872V235.334C213.424 236.198 212.592 236.63 211.376 236.63C210.565 236.63 209.931 236.448 209.472 236.086C209.013 235.712 208.784 235.222 208.784 234.614C208.784 234.102 208.949 233.654 209.28 233.27C209.611 232.886 210.053 232.592 210.608 232.39C211.173 232.176 211.792 232.07 212.464 232.07C213.072 232.07 213.621 232.102 214.112 232.166C214.048 231.344 213.829 230.768 213.456 230.438C213.093 230.096 212.549 229.926 211.824 229.926C211.461 229.926 211.109 229.995 210.768 230.134C210.437 230.272 210.133 230.475 209.856 230.742L209.296 230.006C209.979 229.323 210.848 228.982 211.904 228.982ZM211.488 235.75C212.277 235.75 212.901 235.52 213.36 235.062C213.819 234.592 214.069 233.92 214.112 233.046C213.632 232.971 213.115 232.934 212.56 232.934C211.749 232.934 211.109 233.067 210.64 233.334C210.171 233.6 209.936 234.006 209.936 234.55C209.936 235.35 210.453 235.75 211.488 235.75ZM217.6 236.454V235.526H219.472V230.07H217.696V229.142H220.624V235.526H222.336V236.454H217.6ZM219.984 227.606C219.76 227.606 219.568 227.526 219.408 227.366C219.248 227.206 219.168 227.014 219.168 226.79C219.168 226.555 219.243 226.358 219.392 226.198C219.552 226.038 219.749 225.958 219.984 225.958C220.208 225.958 220.4 226.043 220.56 226.214C220.731 226.374 220.816 226.566 220.816 226.79C220.816 227.014 220.731 227.206 220.56 227.366C220.4 227.526 220.208 227.606 219.984 227.606ZM225.152 229.142H226.272V230.438C226.56 229.99 226.923 229.632 227.36 229.366C227.797 229.099 228.261 228.966 228.752 228.966C229.403 228.966 229.92 229.216 230.304 229.718C230.699 230.208 230.896 230.976 230.896 232.022V236.454H229.776V232.054C229.776 231.328 229.653 230.8 229.408 230.47C229.163 230.139 228.837 229.974 228.432 229.974C228.101 229.974 227.765 230.07 227.424 230.262C227.093 230.454 226.816 230.726 226.592 231.078C226.379 231.419 226.272 231.808 226.272 232.246V236.454H225.152V229.142Z" fill="#90A959"/>
</g>
<defs>
<filter id="filter0_dd_1542_15583" x="11.0697" y="177.042" width="265.861" height="85.3143" filterUnits="userSpaceOnUse" color-interpolation-filters="sRGB">
<feFlood flood-opacity="0" result="BackgroundImageFix"/>
<feColorMatrix in="SourceAlpha" type="matrix" values="0 0 0 0 0 0 0 0 0 0 0 0 0 0 0 0 0 0 127 0" result="hardAlpha"/>
<feMorphology radius="0.986061" operator="erode" in="SourceAlpha" result="effect1_dropShadow_1542_15583"/>
<feOffset dy="0.986061"/>
<feGaussianBlur stdDeviation="1.47909"/>
<feColorMatrix type="matrix" values="0 0 0 0 0.0392157 0 0 0 0 0.0496732 0 0 0 0 0.0705882 0 0 0 0.06 0"/>
<feBlend mode="normal" in2="BackgroundImageFix" result="effect1_dropShadow_1542_15583"/>
<feColorMatrix in="SourceAlpha" type="matrix" values="0 0 0 0 0 0 0 0 0 0 0 0 0 0 0 0 0 0 127 0" result="hardAlpha"/>
<feMorphology radius="0.986061" operator="erode" in="SourceAlpha" result="effect2_dropShadow_1542_15583"/>
<feOffset dy="1.97212"/>
<feGaussianBlur stdDeviation="2.95818"/>
<feColorMatrix type="matrix" values="0 0 0 0 0.0392157 0 0 0 0 0.0496732 0 0 0 0 0.0705882 0 0 0 0.1 0"/>
<feBlend mode="normal" in2="effect1_dropShadow_1542_15583" result="effect2_dropShadow_1542_15583"/>
<feBlend mode="normal" in="SourceGraphic" in2="effect2_dropShadow_1542_15583" result="shape"/>
</filter>
<linearGradient id="paint0_linear_1542_15583" x1="120.882" y1="-0.075141" x2="318.468" y2="81.9105" gradientUnits="userSpaceOnUse">
<stop stop-color="#CBE6FF"/>
<stop offset="1" stop-color="#F3AED9"/>
</linearGradient>
</defs>
</svg>
