<svg width="778" height="141" viewBox="0 0 778 141" fill="none" xmlns="http://www.w3.org/2000/svg">
<rect y="0.5" width="778" height="140" rx="8" fill="white"/>
<rect y="0.5" width="778" height="140" rx="8" fill="url(#paint0_linear_1399_2396)" fill-opacity="0.4"/>
<path d="M23.7734 38.5L20.7031 27.2266H22.1719L24.4141 36.3906H24.5078L27.0312 27.2266H28.4531L30.9766 36.3906H31.0703L33.3125 27.2266H34.7812L31.7109 38.5H30.3828L27.7891 29.6016H27.6953L25.1016 38.5H23.7734ZM38.2812 38.6484C36.6797 38.6484 35.4688 37.6797 35.4688 36.1484V36.1328C35.4688 34.6328 36.5781 33.7656 38.5391 33.6484L40.9531 33.5V32.7344C40.9531 31.6953 40.3203 31.1328 39.0625 31.1328C38.0547 31.1328 37.3906 31.5078 37.1719 32.1641L37.1641 32.1875H35.8047L35.8125 32.1406C36.0312 30.8203 37.3125 29.9297 39.1094 29.9297C41.1641 29.9297 42.3125 30.9844 42.3125 32.7344V38.5H40.9531V37.2578H40.8281C40.2969 38.1562 39.4141 38.6484 38.2812 38.6484ZM36.8594 36.1172C36.8594 36.9688 37.5859 37.4688 38.5625 37.4688C39.9453 37.4688 40.9531 36.5625 40.9531 35.3594V34.5938L38.7031 34.7344C37.4219 34.8125 36.8594 35.2656 36.8594 36.1016V36.1172ZM44.7969 38.5V30.0781H46.1562V31.3438H46.2812C46.7031 30.4531 47.4922 29.9297 48.7344 29.9297C50.625 29.9297 51.6797 31.0469 51.6797 33.0469V38.5H50.3203V33.375C50.3203 31.8594 49.6953 31.1328 48.3516 31.1328C47.0078 31.1328 46.1562 32.0391 46.1562 33.5156V38.5H44.7969ZM57.1328 38.5625C55.3984 38.5625 54.6719 37.9219 54.6719 36.3125V31.2031H53.3438V30.0781H54.6719V27.8984H56.0781V30.0781H57.9219V31.2031H56.0781V35.9688C56.0781 36.9609 56.4219 37.3594 57.2969 37.3594C57.5391 37.3594 57.6719 37.3516 57.9219 37.3281V38.4844C57.6562 38.5312 57.3984 38.5625 57.1328 38.5625ZM67.4453 38.5625C65.7109 38.5625 64.9844 37.9219 64.9844 36.3125V31.2031H63.6562V30.0781H64.9844V27.8984H66.3906V30.0781H68.2344V31.2031H66.3906V35.9688C66.3906 36.9609 66.7344 37.3594 67.6094 37.3594C67.8516 37.3594 67.9844 37.3516 68.2344 37.3281V38.4844C67.9688 38.5312 67.7109 38.5625 67.4453 38.5625ZM73.6016 38.6484C71.2031 38.6484 69.7188 36.9922 69.7188 34.2969V34.2812C69.7188 31.5781 71.2031 29.9297 73.6016 29.9297C76 29.9297 77.4844 31.5781 77.4844 34.2812V34.2969C77.4844 36.9922 76 38.6484 73.6016 38.6484ZM73.6016 37.4453C75.1953 37.4453 76.0938 36.2812 76.0938 34.2969V34.2812C76.0938 32.2891 75.1953 31.1328 73.6016 31.1328C72.0078 31.1328 71.1094 32.2891 71.1094 34.2812V34.2969C71.1094 36.2812 72.0078 37.4453 73.6016 37.4453ZM87.2031 38.6484C85.0703 38.6484 83.6719 36.9219 83.6719 34.2969V34.2812C83.6719 31.6406 85.0625 29.9297 87.2031 29.9297C88.3594 29.9297 89.3672 30.5078 89.8281 31.4062H89.9531V26.7344H91.3125V38.5H89.9531V37.1562H89.8281C89.3125 38.0938 88.375 38.6484 87.2031 38.6484ZM87.5156 37.4453C89.0469 37.4453 89.9844 36.2422 89.9844 34.2969V34.2812C89.9844 32.3359 89.0469 31.1328 87.5156 31.1328C85.9766 31.1328 85.0625 32.3203 85.0625 34.2812V34.2969C85.0625 36.2578 85.9766 37.4453 87.5156 37.4453ZM94.6406 28.4531C94.125 28.4531 93.7031 28.0312 93.7031 27.5156C93.7031 27 94.125 26.5781 94.6406 26.5781C95.1562 26.5781 95.5781 27 95.5781 27.5156C95.5781 28.0312 95.1562 28.4531 94.6406 28.4531ZM93.9531 38.5V30.0781H95.3125V38.5H93.9531ZM100.766 38.6484C98.8906 38.6484 97.6016 37.7422 97.4453 36.3516H98.8359C99.0625 37.0547 99.7344 37.5156 100.812 37.5156C101.945 37.5156 102.75 36.9766 102.75 36.2109V36.1953C102.75 35.625 102.32 35.2266 101.281 34.9766L99.9766 34.6641C98.3984 34.2891 97.6875 33.6016 97.6875 32.3906V32.3828C97.6875 30.9844 99.0312 29.9297 100.82 29.9297C102.586 29.9297 103.812 30.8125 104 32.1875H102.664C102.484 31.5234 101.828 31.0625 100.812 31.0625C99.8125 31.0625 99.0781 31.5781 99.0781 32.3203V32.3359C99.0781 32.9062 99.5 33.2656 100.492 33.5078L101.789 33.8203C103.375 34.2031 104.141 34.8906 104.141 36.0938V36.1094C104.141 37.6094 102.68 38.6484 100.766 38.6484ZM109.695 38.6484C107.336 38.6484 105.828 36.9375 105.828 34.2656V34.25C105.828 31.6328 107.328 29.9297 109.688 29.9297C111.734 29.9297 112.961 31.1094 113.211 32.6094L113.219 32.6562H111.867L111.859 32.6328C111.648 31.8047 110.898 31.1328 109.688 31.1328C108.172 31.1328 107.219 32.3516 107.219 34.25V34.2656C107.219 36.2031 108.188 37.4453 109.688 37.4453C110.82 37.4453 111.539 36.9453 111.852 36.0078L111.867 35.9609L113.211 35.9531L113.195 36.0391C112.852 37.5625 111.719 38.6484 109.695 38.6484ZM118.023 38.6484C116.109 38.6484 115.125 37.5234 115.125 35.5312V30.0781H116.484V35.2031C116.484 36.7188 117.031 37.4453 118.375 37.4453C119.859 37.4453 120.648 36.5391 120.648 35.0625V30.0781H122.008V38.5H120.648V37.2422H120.523C120.109 38.1406 119.258 38.6484 118.023 38.6484ZM127.438 38.6484C125.562 38.6484 124.273 37.7422 124.117 36.3516H125.508C125.734 37.0547 126.406 37.5156 127.484 37.5156C128.617 37.5156 129.422 36.9766 129.422 36.2109V36.1953C129.422 35.625 128.992 35.2266 127.953 34.9766L126.648 34.6641C125.07 34.2891 124.359 33.6016 124.359 32.3906V32.3828C124.359 30.9844 125.703 29.9297 127.492 29.9297C129.258 29.9297 130.484 30.8125 130.672 32.1875H129.336C129.156 31.5234 128.5 31.0625 127.484 31.0625C126.484 31.0625 125.75 31.5781 125.75 32.3203V32.3359C125.75 32.9062 126.172 33.2656 127.164 33.5078L128.461 33.8203C130.047 34.2031 130.812 34.8906 130.812 36.0938V36.1094C130.812 37.6094 129.352 38.6484 127.438 38.6484ZM135.656 38.6484C133.781 38.6484 132.492 37.7422 132.336 36.3516H133.727C133.953 37.0547 134.625 37.5156 135.703 37.5156C136.836 37.5156 137.641 36.9766 137.641 36.2109V36.1953C137.641 35.625 137.211 35.2266 136.172 34.9766L134.867 34.6641C133.289 34.2891 132.578 33.6016 132.578 32.3906V32.3828C132.578 30.9844 133.922 29.9297 135.711 29.9297C137.477 29.9297 138.703 30.8125 138.891 32.1875H137.555C137.375 31.5234 136.719 31.0625 135.703 31.0625C134.703 31.0625 133.969 31.5781 133.969 32.3203V32.3359C133.969 32.9062 134.391 33.2656 135.383 33.5078L136.68 33.8203C138.266 34.2031 139.031 34.8906 139.031 36.0938V36.1094C139.031 37.6094 137.57 38.6484 135.656 38.6484ZM145.812 38.5V27.2266H147.219V37.2344H152.656V38.5H145.812ZM155.453 28.4531C154.938 28.4531 154.516 28.0312 154.516 27.5156C154.516 27 154.938 26.5781 155.453 26.5781C155.969 26.5781 156.391 27 156.391 27.5156C156.391 28.0312 155.969 28.4531 155.453 28.4531ZM154.766 38.5V30.0781H156.125V38.5H154.766ZM162.156 41.4688C160.125 41.4688 158.828 40.5547 158.617 39.1719L158.633 39.1641H160.039L160.047 39.1719C160.195 39.8125 160.945 40.2656 162.156 40.2656C163.664 40.2656 164.562 39.5547 164.562 38.3125V36.6094H164.438C163.906 37.5391 162.953 38.0625 161.797 38.0625C159.617 38.0625 158.266 36.375 158.266 34.0156V34C158.266 31.6406 159.625 29.9297 161.828 29.9297C163.016 29.9297 163.938 30.5156 164.453 31.4688H164.547V30.0781H165.906V38.3828C165.906 40.2656 164.453 41.4688 162.156 41.4688ZM162.094 36.8594C163.656 36.8594 164.594 35.6875 164.594 34.0156V34C164.594 32.3281 163.648 31.1328 162.094 31.1328C160.531 31.1328 159.656 32.3281 159.656 34V34.0156C159.656 35.6875 160.531 36.8594 162.094 36.8594ZM168.516 38.5V26.7344H169.875V31.3438H170C170.422 30.4531 171.211 29.9297 172.453 29.9297C174.344 29.9297 175.398 31.0469 175.398 33.0469V38.5H174.039V33.375C174.039 31.8594 173.414 31.1328 172.07 31.1328C170.727 31.1328 169.875 32.0391 169.875 33.5156V38.5H168.516ZM180.852 38.5625C179.117 38.5625 178.391 37.9219 178.391 36.3125V31.2031H177.062V30.0781H178.391V27.8984H179.797V30.0781H181.641V31.2031H179.797V35.9688C179.797 36.9609 180.141 37.3594 181.016 37.3594C181.258 37.3594 181.391 37.3516 181.641 37.3281V38.4844C181.375 38.5312 181.117 38.5625 180.852 38.5625ZM183.75 38.5V26.7344H185.109V38.5H183.75ZM188.438 41.4531C188.258 41.4531 188.023 41.4375 187.836 41.4062V40.2891C188 40.3203 188.211 40.3281 188.398 40.3281C189.172 40.3281 189.641 39.9766 189.945 39.0078L190.102 38.5078L186.984 30.0781H188.438L190.75 37.0078H190.875L193.18 30.0781H194.609L191.32 39.0156C190.625 40.9062 189.93 41.4531 188.438 41.4531ZM198.492 38.5V28.4922H194.859V27.2266H203.531V28.4922H199.898V38.5H198.492ZM204.359 38.5V30.0781H205.719V31.3281H205.844C206.164 30.4453 206.953 29.9297 208.094 29.9297C208.352 29.9297 208.641 29.9609 208.773 29.9844V31.3047C208.492 31.2578 208.234 31.2266 207.938 31.2266C206.641 31.2266 205.719 32.0469 205.719 33.2812V38.5H204.359ZM212.766 38.6484C211.164 38.6484 209.953 37.6797 209.953 36.1484V36.1328C209.953 34.6328 211.062 33.7656 213.023 33.6484L215.438 33.5V32.7344C215.438 31.6953 214.805 31.1328 213.547 31.1328C212.539 31.1328 211.875 31.5078 211.656 32.1641L211.648 32.1875H210.289L210.297 32.1406C210.516 30.8203 211.797 29.9297 213.594 29.9297C215.648 29.9297 216.797 30.9844 216.797 32.7344V38.5H215.438V37.2578H215.312C214.781 38.1562 213.898 38.6484 212.766 38.6484ZM211.344 36.1172C211.344 36.9688 212.07 37.4688 213.047 37.4688C214.43 37.4688 215.438 36.5625 215.438 35.3594V34.5938L213.188 34.7344C211.906 34.8125 211.344 35.2656 211.344 36.1016V36.1172ZM220 28.4531C219.484 28.4531 219.062 28.0312 219.062 27.5156C219.062 27 219.484 26.5781 220 26.5781C220.516 26.5781 220.938 27 220.938 27.5156C220.938 28.0312 220.516 28.4531 220 28.4531ZM219.312 38.5V30.0781H220.672V38.5H219.312ZM223.234 38.5V30.0781H224.594V31.3438H224.719C225.141 30.4531 225.93 29.9297 227.172 29.9297C229.062 29.9297 230.117 31.0469 230.117 33.0469V38.5H228.758V33.375C228.758 31.8594 228.133 31.1328 226.789 31.1328C225.445 31.1328 224.594 32.0391 224.594 33.5156V38.5H223.234ZM237.641 38.5V31.2031H236.242V30.0781H237.641V29.1406C237.641 27.4609 238.484 26.6562 240.086 26.6562C240.414 26.6562 240.711 26.6797 240.992 26.7344V27.8203C240.828 27.7891 240.602 27.7812 240.359 27.7812C239.391 27.7812 239 28.2578 239 29.1797V30.0781H240.914V31.2031H239V38.5H237.641ZM245.977 38.6484C243.578 38.6484 242.094 36.9922 242.094 34.2969V34.2812C242.094 31.5781 243.578 29.9297 245.977 29.9297C248.375 29.9297 249.859 31.5781 249.859 34.2812V34.2969C249.859 36.9922 248.375 38.6484 245.977 38.6484ZM245.977 37.4453C247.57 37.4453 248.469 36.2812 248.469 34.2969V34.2812C248.469 32.2891 247.57 31.1328 245.977 31.1328C244.383 31.1328 243.484 32.2891 243.484 34.2812V34.2969C243.484 36.2812 244.383 37.4453 245.977 37.4453ZM251.969 38.5V30.0781H253.328V31.3281H253.453C253.773 30.4453 254.562 29.9297 255.703 29.9297C255.961 29.9297 256.25 29.9609 256.383 29.9844V31.3047C256.102 31.2578 255.844 31.2266 255.547 31.2266C254.25 31.2266 253.328 32.0469 253.328 33.2812V38.5H251.969ZM263.281 41.4531C263.102 41.4531 262.867 41.4375 262.68 41.4062V40.2891C262.844 40.3203 263.055 40.3281 263.242 40.3281C264.016 40.3281 264.484 39.9766 264.789 39.0078L264.945 38.5078L261.828 30.0781H263.281L265.594 37.0078H265.719L268.023 30.0781H269.453L266.164 39.0156C265.469 40.9062 264.773 41.4531 263.281 41.4531ZM274.398 38.6484C272 38.6484 270.516 36.9922 270.516 34.2969V34.2812C270.516 31.5781 272 29.9297 274.398 29.9297C276.797 29.9297 278.281 31.5781 278.281 34.2812V34.2969C278.281 36.9922 276.797 38.6484 274.398 38.6484ZM274.398 37.4453C275.992 37.4453 276.891 36.2812 276.891 34.2969V34.2812C276.891 32.2891 275.992 31.1328 274.398 31.1328C272.805 31.1328 271.906 32.2891 271.906 34.2812V34.2969C271.906 36.2812 272.805 37.4453 274.398 37.4453ZM283.211 38.6484C281.297 38.6484 280.312 37.5234 280.312 35.5312V30.0781H281.672V35.2031C281.672 36.7188 282.219 37.4453 283.562 37.4453C285.047 37.4453 285.836 36.5391 285.836 35.0625V30.0781H287.195V38.5H285.836V37.2422H285.711C285.297 38.1406 284.445 38.6484 283.211 38.6484ZM289.734 38.5V30.0781H291.094V31.3281H291.219C291.539 30.4453 292.328 29.9297 293.469 29.9297C293.727 29.9297 294.016 29.9609 294.148 29.9844V31.3047C293.867 31.2578 293.609 31.2266 293.312 31.2266C292.016 31.2266 291.094 32.0469 291.094 33.2812V38.5H289.734ZM303.148 38.6484C301.234 38.6484 300.25 37.5234 300.25 35.5312V30.0781H301.609V35.2031C301.609 36.7188 302.156 37.4453 303.5 37.4453C304.984 37.4453 305.773 36.5391 305.773 35.0625V30.0781H307.133V38.5H305.773V37.2422H305.648C305.234 38.1406 304.383 38.6484 303.148 38.6484ZM312.562 38.6484C310.688 38.6484 309.398 37.7422 309.242 36.3516H310.633C310.859 37.0547 311.531 37.5156 312.609 37.5156C313.742 37.5156 314.547 36.9766 314.547 36.2109V36.1953C314.547 35.625 314.117 35.2266 313.078 34.9766L311.773 34.6641C310.195 34.2891 309.484 33.6016 309.484 32.3906V32.3828C309.484 30.9844 310.828 29.9297 312.617 29.9297C314.383 29.9297 315.609 30.8125 315.797 32.1875H314.461C314.281 31.5234 313.625 31.0625 312.609 31.0625C311.609 31.0625 310.875 31.5781 310.875 32.3203V32.3359C310.875 32.9062 311.297 33.2656 312.289 33.5078L313.586 33.8203C315.172 34.2031 315.938 34.8906 315.938 36.0938V36.1094C315.938 37.6094 314.477 38.6484 312.562 38.6484ZM321.484 38.6484C319.078 38.6484 317.625 36.9609 317.625 34.3203V34.3125C317.625 31.7109 319.109 29.9297 321.398 29.9297C323.688 29.9297 325.078 31.6328 325.078 34.1484V34.6797H319.016C319.055 36.4219 320.016 37.4375 321.516 37.4375C322.656 37.4375 323.359 36.8984 323.586 36.3906L323.617 36.3203H324.977L324.961 36.3828C324.672 37.5234 323.469 38.6484 321.484 38.6484ZM321.391 31.1406C320.141 31.1406 319.188 31.9922 319.039 33.5938H323.695C323.555 31.9297 322.633 31.1406 321.391 31.1406ZM335.133 38.6484C332.773 38.6484 331.266 36.9375 331.266 34.2656V34.25C331.266 31.6328 332.766 29.9297 335.125 29.9297C337.172 29.9297 338.398 31.1094 338.648 32.6094L338.656 32.6562H337.305L337.297 32.6328C337.086 31.8047 336.336 31.1328 335.125 31.1328C333.609 31.1328 332.656 32.3516 332.656 34.25V34.2656C332.656 36.2031 333.625 37.4453 335.125 37.4453C336.258 37.4453 336.977 36.9453 337.289 36.0078L337.305 35.9609L338.648 35.9531L338.633 36.0391C338.289 37.5625 337.156 38.6484 335.133 38.6484ZM342.953 38.6484C341.352 38.6484 340.141 37.6797 340.141 36.1484V36.1328C340.141 34.6328 341.25 33.7656 343.211 33.6484L345.625 33.5V32.7344C345.625 31.6953 344.992 31.1328 343.734 31.1328C342.727 31.1328 342.062 31.5078 341.844 32.1641L341.836 32.1875H340.477L340.484 32.1406C340.703 30.8203 341.984 29.9297 343.781 29.9297C345.836 29.9297 346.984 30.9844 346.984 32.7344V38.5H345.625V37.2578H345.5C344.969 38.1562 344.086 38.6484 342.953 38.6484ZM341.531 36.1172C341.531 36.9688 342.258 37.4688 343.234 37.4688C344.617 37.4688 345.625 36.5625 345.625 35.3594V34.5938L343.375 34.7344C342.094 34.8125 341.531 35.2656 341.531 36.1016V36.1172ZM352.359 38.6484C350.484 38.6484 349.195 37.7422 349.039 36.3516H350.43C350.656 37.0547 351.328 37.5156 352.406 37.5156C353.539 37.5156 354.344 36.9766 354.344 36.2109V36.1953C354.344 35.625 353.914 35.2266 352.875 34.9766L351.57 34.6641C349.992 34.2891 349.281 33.6016 349.281 32.3906V32.3828C349.281 30.9844 350.625 29.9297 352.414 29.9297C354.18 29.9297 355.406 30.8125 355.594 32.1875H354.258C354.078 31.5234 353.422 31.0625 352.406 31.0625C351.406 31.0625 350.672 31.5781 350.672 32.3203V32.3359C350.672 32.9062 351.094 33.2656 352.086 33.5078L353.383 33.8203C354.969 34.2031 355.734 34.8906 355.734 36.0938V36.1094C355.734 37.6094 354.273 38.6484 352.359 38.6484ZM361.281 38.6484C358.875 38.6484 357.422 36.9609 357.422 34.3203V34.3125C357.422 31.7109 358.906 29.9297 361.195 29.9297C363.484 29.9297 364.875 31.6328 364.875 34.1484V34.6797H358.812C358.852 36.4219 359.812 37.4375 361.312 37.4375C362.453 37.4375 363.156 36.8984 363.383 36.3906L363.414 36.3203H364.773L364.758 36.3828C364.469 37.5234 363.266 38.6484 361.281 38.6484ZM361.188 31.1406C359.938 31.1406 358.984 31.9922 358.836 33.5938H363.492C363.352 31.9297 362.43 31.1406 361.188 31.1406ZM368.789 35.0156V34.2969C368.781 33.2656 369.281 32.5625 370.352 31.9219C371.258 31.3672 371.609 30.875 371.609 30.0469V30.0312C371.609 29.0703 370.859 28.3594 369.695 28.3594C368.516 28.3594 367.766 29.0547 367.688 30.1641L367.672 30.1719L366.344 30.1797V30.1641C366.43 28.4844 367.555 27.1406 369.75 27.1406C371.719 27.1406 373.062 28.3594 373.062 29.9609V29.9766C373.062 31.1953 372.43 32.0625 371.43 32.6641C370.438 33.25 370.156 33.6875 370.156 34.5078V35.0156H368.789ZM369.578 38.6406C368.945 38.6406 368.492 38.1875 368.492 37.5547C368.492 36.9141 368.945 36.4609 369.578 36.4609C370.211 36.4609 370.656 36.9141 370.656 37.5547C370.656 38.1875 370.211 38.6406 369.578 38.6406Z" fill="black"/>
<path d="M25.1328 62.7656C22.6641 62.7656 21.0703 61.4688 20.9062 59.6328L20.8984 59.5469H22.3047L22.3125 59.6328C22.4141 60.7578 23.5859 61.4688 25.2109 61.4688C26.7422 61.4688 27.8594 60.6797 27.8594 59.5312V59.5234C27.8594 58.5859 27.2109 57.9453 25.6641 57.6016L24.4141 57.3281C22.1562 56.8281 21.1797 55.7891 21.1797 54.1562V54.1484C21.1875 52.2812 22.8203 50.9609 25.1484 50.9609C27.3984 50.9609 28.9688 52.2891 29.0859 53.9688L29.0938 54.0781H27.6875L27.6719 53.9766C27.5156 52.9844 26.5781 52.25 25.1094 52.2578C23.7031 52.2656 22.6172 52.9297 22.6172 54.1094V54.1172C22.6172 55.0156 23.2344 55.625 24.7656 55.9609L26.0156 56.2422C28.3672 56.7656 29.2969 57.7109 29.2969 59.3359V59.3438C29.2969 61.4531 27.6484 62.7656 25.1328 62.7656ZM34.9141 62.6484C32.5547 62.6484 31.0469 60.9375 31.0469 58.2656V58.25C31.0469 55.6328 32.5469 53.9297 34.9062 53.9297C36.9531 53.9297 38.1797 55.1094 38.4297 56.6094L38.4375 56.6562H37.0859L37.0781 56.6328C36.8672 55.8047 36.1172 55.1328 34.9062 55.1328C33.3906 55.1328 32.4375 56.3516 32.4375 58.25V58.2656C32.4375 60.2031 33.4062 61.4453 34.9062 61.4453C36.0391 61.4453 36.7578 60.9453 37.0703 60.0078L37.0859 59.9609L38.4297 59.9531L38.4141 60.0391C38.0703 61.5625 36.9375 62.6484 34.9141 62.6484ZM40.5 62.5V50.7344H41.8594V55.3438H41.9844C42.4062 54.4531 43.1953 53.9297 44.4375 53.9297C46.3281 53.9297 47.3828 55.0469 47.3828 57.0469V62.5H46.0234V57.375C46.0234 55.8594 45.3984 55.1328 44.0547 55.1328C42.7109 55.1328 41.8594 56.0391 41.8594 57.5156V62.5H40.5ZM53.2812 62.6484C50.875 62.6484 49.4219 60.9609 49.4219 58.3203V58.3125C49.4219 55.7109 50.9062 53.9297 53.1953 53.9297C55.4844 53.9297 56.875 55.6328 56.875 58.1484V58.6797H50.8125C50.8516 60.4219 51.8125 61.4375 53.3125 61.4375C54.4531 61.4375 55.1562 60.8984 55.3828 60.3906L55.4141 60.3203H56.7734L56.7578 60.3828C56.4688 61.5234 55.2656 62.6484 53.2812 62.6484ZM53.1875 55.1406C51.9375 55.1406 50.9844 55.9922 50.8359 57.5938H55.4922C55.3516 55.9297 54.4297 55.1406 53.1875 55.1406ZM62.0938 62.6484C59.9609 62.6484 58.5625 60.9219 58.5625 58.2969V58.2812C58.5625 55.6406 59.9531 53.9297 62.0938 53.9297C63.25 53.9297 64.2578 54.5078 64.7188 55.4062H64.8438V50.7344H66.2031V62.5H64.8438V61.1562H64.7188C64.2031 62.0938 63.2656 62.6484 62.0938 62.6484ZM62.4062 61.4453C63.9375 61.4453 64.875 60.2422 64.875 58.2969V58.2812C64.875 56.3359 63.9375 55.1328 62.4062 55.1328C60.8672 55.1328 59.9531 56.3203 59.9531 58.2812V58.2969C59.9531 60.2578 60.8672 61.4453 62.4062 61.4453ZM71.6328 62.6484C69.7188 62.6484 68.7344 61.5234 68.7344 59.5312V54.0781H70.0938V59.2031C70.0938 60.7188 70.6406 61.4453 71.9844 61.4453C73.4688 61.4453 74.2578 60.5391 74.2578 59.0625V54.0781H75.6172V62.5H74.2578V61.2422H74.1328C73.7188 62.1406 72.8672 62.6484 71.6328 62.6484ZM78.2344 62.5V50.7344H79.5938V62.5H78.2344ZM85.6406 62.6484C83.2344 62.6484 81.7812 60.9609 81.7812 58.3203V58.3125C81.7812 55.7109 83.2656 53.9297 85.5547 53.9297C87.8438 53.9297 89.2344 55.6328 89.2344 58.1484V58.6797H83.1719C83.2109 60.4219 84.1719 61.4375 85.6719 61.4375C86.8125 61.4375 87.5156 60.8984 87.7422 60.3906L87.7734 60.3203H89.1328L89.1172 60.3828C88.8281 61.5234 87.625 62.6484 85.6406 62.6484ZM85.5469 55.1406C84.2969 55.1406 83.3438 55.9922 83.1953 57.5938H87.8516C87.7109 55.9297 86.7891 55.1406 85.5469 55.1406ZM98.1562 62.6484C96.5547 62.6484 95.3438 61.6797 95.3438 60.1484V60.1328C95.3438 58.6328 96.4531 57.7656 98.4141 57.6484L100.828 57.5V56.7344C100.828 55.6953 100.195 55.1328 98.9375 55.1328C97.9297 55.1328 97.2656 55.5078 97.0469 56.1641L97.0391 56.1875H95.6797L95.6875 56.1406C95.9062 54.8203 97.1875 53.9297 98.9844 53.9297C101.039 53.9297 102.188 54.9844 102.188 56.7344V62.5H100.828V61.2578H100.703C100.172 62.1562 99.2891 62.6484 98.1562 62.6484ZM96.7344 60.1172C96.7344 60.9688 97.4609 61.4688 98.4375 61.4688C99.8203 61.4688 100.828 60.5625 100.828 59.3594V58.5938L98.5781 58.7344C97.2969 58.8125 96.7344 59.2656 96.7344 60.1016V60.1172ZM112.617 62.6484C110.258 62.6484 108.75 60.9375 108.75 58.2656V58.25C108.75 55.6328 110.25 53.9297 112.609 53.9297C114.656 53.9297 115.883 55.1094 116.133 56.6094L116.141 56.6562H114.789L114.781 56.6328C114.57 55.8047 113.82 55.1328 112.609 55.1328C111.094 55.1328 110.141 56.3516 110.141 58.25V58.2656C110.141 60.2031 111.109 61.4453 112.609 61.4453C113.742 61.4453 114.461 60.9453 114.773 60.0078L114.789 59.9609L116.133 59.9531L116.117 60.0391C115.773 61.5625 114.641 62.6484 112.617 62.6484ZM120.438 62.6484C118.836 62.6484 117.625 61.6797 117.625 60.1484V60.1328C117.625 58.6328 118.734 57.7656 120.695 57.6484L123.109 57.5V56.7344C123.109 55.6953 122.477 55.1328 121.219 55.1328C120.211 55.1328 119.547 55.5078 119.328 56.1641L119.32 56.1875H117.961L117.969 56.1406C118.188 54.8203 119.469 53.9297 121.266 53.9297C123.32 53.9297 124.469 54.9844 124.469 56.7344V62.5H123.109V61.2578H122.984C122.453 62.1562 121.57 62.6484 120.438 62.6484ZM119.016 60.1172C119.016 60.9688 119.742 61.4688 120.719 61.4688C122.102 61.4688 123.109 60.5625 123.109 59.3594V58.5938L120.859 58.7344C119.578 58.8125 119.016 59.2656 119.016 60.1016V60.1172ZM127.031 62.5V50.7344H128.391V62.5H127.031ZM131.078 62.5V50.7344H132.438V62.5H131.078ZM141.172 62.5L138.812 54.0781H140.172L141.828 60.8125H141.953L143.836 54.0781H145.125L147.008 60.8125H147.133L148.789 54.0781H150.141L147.781 62.5H146.414L144.531 55.9844H144.406L142.531 62.5H141.172ZM152.656 52.4531C152.141 52.4531 151.719 52.0312 151.719 51.5156C151.719 51 152.141 50.5781 152.656 50.5781C153.172 50.5781 153.594 51 153.594 51.5156C153.594 52.0312 153.172 52.4531 152.656 52.4531ZM151.969 62.5V54.0781H153.328V62.5H151.969ZM158.883 62.5625C157.148 62.5625 156.422 61.9219 156.422 60.3125V55.2031H155.094V54.0781H156.422V51.8984H157.828V54.0781H159.672V55.2031H157.828V59.9688C157.828 60.9609 158.172 61.3594 159.047 61.3594C159.289 61.3594 159.422 61.3516 159.672 61.3281V62.4844C159.406 62.5312 159.148 62.5625 158.883 62.5625ZM161.781 62.5V50.7344H163.141V55.3438H163.266C163.688 54.4531 164.477 53.9297 165.719 53.9297C167.609 53.9297 168.664 55.0469 168.664 57.0469V62.5H167.305V57.375C167.305 55.8594 166.68 55.1328 165.336 55.1328C163.992 55.1328 163.141 56.0391 163.141 57.5156V62.5H161.781ZM179.086 62.6484C176.688 62.6484 175.203 60.9922 175.203 58.2969V58.2812C175.203 55.5781 176.688 53.9297 179.086 53.9297C181.484 53.9297 182.969 55.5781 182.969 58.2812V58.2969C182.969 60.9922 181.484 62.6484 179.086 62.6484ZM179.086 61.4453C180.68 61.4453 181.578 60.2812 181.578 58.2969V58.2812C181.578 56.2891 180.68 55.1328 179.086 55.1328C177.492 55.1328 176.594 56.2891 176.594 58.2812V58.2969C176.594 60.2812 177.492 61.4453 179.086 61.4453ZM187.898 62.6484C185.984 62.6484 185 61.5234 185 59.5312V54.0781H186.359V59.2031C186.359 60.7188 186.906 61.4453 188.25 61.4453C189.734 61.4453 190.523 60.5391 190.523 59.0625V54.0781H191.883V62.5H190.523V61.2422H190.398C189.984 62.1406 189.133 62.6484 187.898 62.6484ZM194.422 62.5V54.0781H195.781V55.3281H195.906C196.227 54.4453 197.016 53.9297 198.156 53.9297C198.414 53.9297 198.703 53.9609 198.836 53.9844V55.3047C198.555 55.2578 198.297 55.2266 198 55.2266C196.703 55.2266 195.781 56.0469 195.781 57.2812V62.5H194.422ZM208.008 62.5625C206.273 62.5625 205.547 61.9219 205.547 60.3125V55.2031H204.219V54.0781H205.547V51.8984H206.953V54.0781H208.797V55.2031H206.953V59.9688C206.953 60.9609 207.297 61.3594 208.172 61.3594C208.414 61.3594 208.547 61.3516 208.797 61.3281V62.4844C208.531 62.5312 208.273 62.5625 208.008 62.5625ZM214.141 62.6484C211.734 62.6484 210.281 60.9609 210.281 58.3203V58.3125C210.281 55.7109 211.766 53.9297 214.055 53.9297C216.344 53.9297 217.734 55.6328 217.734 58.1484V58.6797H211.672C211.711 60.4219 212.672 61.4375 214.172 61.4375C215.312 61.4375 216.016 60.8984 216.242 60.3906L216.273 60.3203H217.633L217.617 60.3828C217.328 61.5234 216.125 62.6484 214.141 62.6484ZM214.047 55.1406C212.797 55.1406 211.844 55.9922 211.695 57.5938H216.352C216.211 55.9297 215.289 55.1406 214.047 55.1406ZM222.156 62.6484C220.555 62.6484 219.344 61.6797 219.344 60.1484V60.1328C219.344 58.6328 220.453 57.7656 222.414 57.6484L224.828 57.5V56.7344C224.828 55.6953 224.195 55.1328 222.938 55.1328C221.93 55.1328 221.266 55.5078 221.047 56.1641L221.039 56.1875H219.68L219.688 56.1406C219.906 54.8203 221.188 53.9297 222.984 53.9297C225.039 53.9297 226.188 54.9844 226.188 56.7344V62.5H224.828V61.2578H224.703C224.172 62.1562 223.289 62.6484 222.156 62.6484ZM220.734 60.1172C220.734 60.9688 221.461 61.4688 222.438 61.4688C223.82 61.4688 224.828 60.5625 224.828 59.3594V58.5938L222.578 58.7344C221.297 58.8125 220.734 59.2656 220.734 60.1016V60.1172ZM228.672 62.5V54.0781H230.031V55.3594H230.156C230.531 54.4531 231.328 53.9297 232.43 53.9297C233.57 53.9297 234.367 54.5312 234.758 55.4062H234.883C235.336 54.5156 236.297 53.9297 237.461 53.9297C239.18 53.9297 240.141 54.9141 240.141 56.6797V62.5H238.781V56.9922C238.781 55.75 238.211 55.1328 237.023 55.1328C235.852 55.1328 235.078 56.0156 235.078 57.0859V62.5H233.719V56.7812C233.719 55.7812 233.031 55.1328 231.969 55.1328C230.867 55.1328 230.031 56.0938 230.031 57.2812V62.5H228.672ZM250.086 62.5625C248.352 62.5625 247.625 61.9219 247.625 60.3125V55.2031H246.297V54.0781H247.625V51.8984H249.031V54.0781H250.875V55.2031H249.031V59.9688C249.031 60.9609 249.375 61.3594 250.25 61.3594C250.492 61.3594 250.625 61.3516 250.875 61.3281V62.4844C250.609 62.5312 250.352 62.5625 250.086 62.5625ZM256.242 62.6484C253.844 62.6484 252.359 60.9922 252.359 58.2969V58.2812C252.359 55.5781 253.844 53.9297 256.242 53.9297C258.641 53.9297 260.125 55.5781 260.125 58.2812V58.2969C260.125 60.9922 258.641 62.6484 256.242 62.6484ZM256.242 61.4453C257.836 61.4453 258.734 60.2812 258.734 58.2969V58.2812C258.734 56.2891 257.836 55.1328 256.242 55.1328C254.648 55.1328 253.75 56.2891 253.75 58.2812V58.2969C253.75 60.2812 254.648 61.4453 256.242 61.4453ZM266.812 62.5V50.7344H268.172V62.5H266.812ZM274.219 62.6484C271.812 62.6484 270.359 60.9609 270.359 58.3203V58.3125C270.359 55.7109 271.844 53.9297 274.133 53.9297C276.422 53.9297 277.812 55.6328 277.812 58.1484V58.6797H271.75C271.789 60.4219 272.75 61.4375 274.25 61.4375C275.391 61.4375 276.094 60.8984 276.32 60.3906L276.352 60.3203H277.711L277.695 60.3828C277.406 61.5234 276.203 62.6484 274.219 62.6484ZM274.125 55.1406C272.875 55.1406 271.922 55.9922 271.773 57.5938H276.43C276.289 55.9297 275.367 55.1406 274.125 55.1406ZM282.234 62.6484C280.633 62.6484 279.422 61.6797 279.422 60.1484V60.1328C279.422 58.6328 280.531 57.7656 282.492 57.6484L284.906 57.5V56.7344C284.906 55.6953 284.273 55.1328 283.016 55.1328C282.008 55.1328 281.344 55.5078 281.125 56.1641L281.117 56.1875H279.758L279.766 56.1406C279.984 54.8203 281.266 53.9297 283.062 53.9297C285.117 53.9297 286.266 54.9844 286.266 56.7344V62.5H284.906V61.2578H284.781C284.25 62.1562 283.367 62.6484 282.234 62.6484ZM280.812 60.1172C280.812 60.9688 281.539 61.4688 282.516 61.4688C283.898 61.4688 284.906 60.5625 284.906 59.3594V58.5938L282.656 58.7344C281.375 58.8125 280.812 59.2656 280.812 60.1016V60.1172ZM288.75 62.5V54.0781H290.109V55.3281H290.234C290.555 54.4453 291.344 53.9297 292.484 53.9297C292.742 53.9297 293.031 53.9609 293.164 53.9844V55.3047C292.883 55.2578 292.625 55.2266 292.328 55.2266C291.031 55.2266 290.109 56.0469 290.109 57.2812V62.5H288.75ZM295 62.5V54.0781H296.359V55.3438H296.484C296.906 54.4531 297.695 53.9297 298.938 53.9297C300.828 53.9297 301.883 55.0469 301.883 57.0469V62.5H300.523V57.375C300.523 55.8594 299.898 55.1328 298.555 55.1328C297.211 55.1328 296.359 56.0391 296.359 57.5156V62.5H295ZM308.844 62.5V54.0781H310.203V55.3594H310.328C310.703 54.4531 311.5 53.9297 312.602 53.9297C313.742 53.9297 314.539 54.5312 314.93 55.4062H315.055C315.508 54.5156 316.469 53.9297 317.633 53.9297C319.352 53.9297 320.312 54.9141 320.312 56.6797V62.5H318.953V56.9922C318.953 55.75 318.383 55.1328 317.195 55.1328C316.023 55.1328 315.25 56.0156 315.25 57.0859V62.5H313.891V56.7812C313.891 55.7812 313.203 55.1328 312.141 55.1328C311.039 55.1328 310.203 56.0938 310.203 57.2812V62.5H308.844ZM326.227 62.6484C323.828 62.6484 322.344 60.9922 322.344 58.2969V58.2812C322.344 55.5781 323.828 53.9297 326.227 53.9297C328.625 53.9297 330.109 55.5781 330.109 58.2812V58.2969C330.109 60.9922 328.625 62.6484 326.227 62.6484ZM326.227 61.4453C327.82 61.4453 328.719 60.2812 328.719 58.2969V58.2812C328.719 56.2891 327.82 55.1328 326.227 55.1328C324.633 55.1328 323.734 56.2891 323.734 58.2812V58.2969C323.734 60.2812 324.633 61.4453 326.227 61.4453ZM332.219 62.5V54.0781H333.578V55.3281H333.703C334.023 54.4453 334.812 53.9297 335.953 53.9297C336.211 53.9297 336.5 53.9609 336.633 53.9844V55.3047C336.352 55.2578 336.094 55.2266 335.797 55.2266C334.5 55.2266 333.578 56.0469 333.578 57.2812V62.5H332.219ZM341.516 62.6484C339.109 62.6484 337.656 60.9609 337.656 58.3203V58.3125C337.656 55.7109 339.141 53.9297 341.43 53.9297C343.719 53.9297 345.109 55.6328 345.109 58.1484V58.6797H339.047C339.086 60.4219 340.047 61.4375 341.547 61.4375C342.688 61.4375 343.391 60.8984 343.617 60.3906L343.648 60.3203H345.008L344.992 60.3828C344.703 61.5234 343.5 62.6484 341.516 62.6484ZM341.422 55.1406C340.172 55.1406 339.219 55.9922 339.07 57.5938H343.727C343.586 55.9297 342.664 55.1406 341.422 55.1406ZM348.328 62.5781C347.773 62.5781 347.312 62.1172 347.312 61.5625C347.312 61 347.773 60.5469 348.328 60.5469C348.891 60.5469 349.344 61 349.344 61.5625C349.344 62.1172 348.891 62.5781 348.328 62.5781Z" fill="#444A4B"/>
<path d="M20 88.5C20 84.0817 23.5817 80.5 28 80.5H115C119.418 80.5 123 84.0817 123 88.5V112.5C123 116.918 119.418 120.5 115 120.5H28C23.5817 120.5 20 116.918 20 112.5V88.5Z" fill="#A72264"/>
<path d="M36.9961 96.375V94.8636H46.0018V96.375H42.3711V106.5H40.6211V96.375H36.9961ZM48.8878 106.693C48.3347 106.693 47.8347 106.591 47.3878 106.386C46.9408 106.178 46.5866 105.877 46.3253 105.483C46.0677 105.089 45.9389 104.606 45.9389 104.034C45.9389 103.542 46.0336 103.136 46.223 102.818C46.4124 102.5 46.6681 102.248 46.99 102.062C47.312 101.877 47.6718 101.737 48.0696 101.642C48.4673 101.547 48.8726 101.475 49.2855 101.426C49.8082 101.366 50.2325 101.316 50.5582 101.278C50.884 101.237 51.1207 101.17 51.2684 101.08C51.4162 100.989 51.49 100.841 51.49 100.636V100.597C51.49 100.1 51.3499 99.7159 51.0696 99.4432C50.7931 99.1705 50.3802 99.0341 49.8309 99.0341C49.259 99.0341 48.8082 99.161 48.4787 99.4148C48.1529 99.6648 47.9275 99.9432 47.8025 100.25L46.2059 99.8864C46.3953 99.3561 46.6718 98.928 47.0355 98.6023C47.4029 98.2727 47.8253 98.0341 48.3025 97.8864C48.7798 97.7348 49.2817 97.6591 49.8082 97.6591C50.1567 97.6591 50.526 97.7008 50.9162 97.7841C51.3101 97.8636 51.6775 98.0114 52.0184 98.2273C52.3631 98.4432 52.6453 98.7519 52.865 99.1534C53.0847 99.5511 53.1946 100.068 53.1946 100.705V106.5H51.5355V105.307H51.4673C51.3575 105.527 51.1927 105.742 50.973 105.955C50.7533 106.167 50.4711 106.343 50.1264 106.483C49.7817 106.623 49.3688 106.693 48.8878 106.693ZM49.2571 105.33C49.7268 105.33 50.1283 105.237 50.4616 105.051C50.7987 104.866 51.0544 104.623 51.2287 104.324C51.4067 104.021 51.4957 103.697 51.4957 103.352V102.227C51.4351 102.288 51.3177 102.345 51.1434 102.398C50.973 102.447 50.7779 102.491 50.5582 102.528C50.3385 102.562 50.1245 102.595 49.9162 102.625C49.7078 102.652 49.5336 102.674 49.3934 102.693C49.0639 102.735 48.7628 102.805 48.49 102.903C48.2211 103.002 48.0052 103.144 47.8423 103.33C47.6832 103.511 47.6037 103.754 47.6037 104.057C47.6037 104.477 47.759 104.795 48.0696 105.011C48.3802 105.223 48.776 105.33 49.2571 105.33ZM56.8362 94.8636V106.5H55.1374V94.8636H56.8362ZM60.3642 103.54L60.3529 101.466H60.6483L64.1256 97.7727H66.1597L62.1938 101.977H61.9267L60.3642 103.54ZM58.8017 106.5V94.8636H60.5006V106.5H58.8017ZM64.3131 106.5L61.1881 102.352L62.3586 101.165L66.3983 106.5H64.3131ZM75.3762 97.7727V99.1364H70.6092V97.7727H75.3762ZM71.8876 95.6818H73.5864V103.938C73.5864 104.267 73.6357 104.515 73.7342 104.682C73.8327 104.845 73.9596 104.956 74.1149 105.017C74.2739 105.074 74.4463 105.102 74.6319 105.102C74.7683 105.102 74.8876 105.093 74.9899 105.074C75.0921 105.055 75.1717 105.04 75.2285 105.028L75.5353 106.432C75.4368 106.47 75.2967 106.508 75.1149 106.545C74.933 106.587 74.7058 106.61 74.433 106.614C73.9861 106.621 73.5694 106.542 73.183 106.375C72.7967 106.208 72.4842 105.951 72.2455 105.602C72.0069 105.254 71.8876 104.816 71.8876 104.29V95.6818ZM80.5179 106.676C79.6997 106.676 78.9857 106.489 78.3758 106.114C77.766 105.739 77.2925 105.214 76.9554 104.54C76.6182 103.866 76.4497 103.078 76.4497 102.176C76.4497 101.271 76.6182 100.479 76.9554 99.8011C77.2925 99.1231 77.766 98.5966 78.3758 98.2216C78.9857 97.8466 79.6997 97.6591 80.5179 97.6591C81.3361 97.6591 82.0501 97.8466 82.6599 98.2216C83.2698 98.5966 83.7432 99.1231 84.0804 99.8011C84.4175 100.479 84.5861 101.271 84.5861 102.176C84.5861 103.078 84.4175 103.866 84.0804 104.54C83.7432 105.214 83.2698 105.739 82.6599 106.114C82.0501 106.489 81.3361 106.676 80.5179 106.676ZM80.5236 105.25C81.0539 105.25 81.4932 105.11 81.8417 104.83C82.1902 104.549 82.4478 104.176 82.6145 103.71C82.7849 103.244 82.8701 102.731 82.8701 102.17C82.8701 101.614 82.7849 101.102 82.6145 100.636C82.4478 100.167 82.1902 99.7898 81.8417 99.5057C81.4932 99.2216 81.0539 99.0795 80.5236 99.0795C79.9895 99.0795 79.5463 99.2216 79.194 99.5057C78.8455 99.7898 78.5861 100.167 78.4156 100.636C78.2489 101.102 78.1656 101.614 78.1656 102.17C78.1656 102.731 78.2489 103.244 78.4156 103.71C78.5861 104.176 78.8455 104.549 79.194 104.83C79.5463 105.11 79.9895 105.25 80.5236 105.25ZM95.6051 102.881V97.7727H97.3097V106.5H95.6392V104.989H95.5483C95.3476 105.455 95.0256 105.843 94.5824 106.153C94.143 106.46 93.5957 106.614 92.9404 106.614C92.3798 106.614 91.8835 106.491 91.4517 106.244C91.0237 105.994 90.6866 105.625 90.4404 105.136C90.1979 104.648 90.0767 104.044 90.0767 103.324V97.7727H91.7756V103.119C91.7756 103.714 91.9404 104.187 92.2699 104.54C92.5995 104.892 93.0275 105.068 93.554 105.068C93.8722 105.068 94.1885 104.989 94.5029 104.83C94.821 104.67 95.0843 104.43 95.2926 104.108C95.5048 103.786 95.6089 103.377 95.6051 102.881ZM105.812 99.9034L104.272 100.176C104.208 99.9792 104.106 99.7917 103.966 99.6136C103.829 99.4356 103.644 99.2898 103.409 99.1761C103.174 99.0625 102.88 99.0057 102.528 99.0057C102.047 99.0057 101.645 99.1136 101.323 99.3295C101.002 99.5417 100.841 99.8163 100.841 100.153C100.841 100.445 100.948 100.68 101.164 100.858C101.38 101.036 101.729 101.182 102.21 101.295L103.596 101.614C104.399 101.799 104.998 102.085 105.392 102.472C105.786 102.858 105.983 103.36 105.983 103.977C105.983 104.5 105.831 104.966 105.528 105.375C105.229 105.78 104.81 106.098 104.272 106.33C103.738 106.561 103.119 106.676 102.414 106.676C101.437 106.676 100.64 106.468 100.022 106.051C99.4049 105.631 99.0261 105.034 98.886 104.261L100.528 104.011C100.63 104.439 100.841 104.763 101.159 104.983C101.477 105.199 101.892 105.307 102.403 105.307C102.96 105.307 103.405 105.191 103.738 104.96C104.072 104.725 104.238 104.439 104.238 104.102C104.238 103.83 104.136 103.6 103.931 103.415C103.731 103.229 103.422 103.089 103.005 102.994L101.528 102.67C100.714 102.485 100.111 102.189 99.7212 101.784C99.3349 101.379 99.1417 100.866 99.1417 100.244C99.1417 99.7292 99.2856 99.2784 99.5735 98.892C99.8614 98.5057 100.259 98.2045 100.767 97.9886C101.274 97.7689 101.856 97.6591 102.511 97.6591C103.454 97.6591 104.197 97.8636 104.738 98.2727C105.28 98.678 105.638 99.2216 105.812 99.9034Z" fill="white"/>
<g filter="url(#filter0_dd_1399_2396)">
<path d="M442.46 26.0766C442.46 22.9967 444.957 20.5 448.037 20.5H752.423C755.503 20.5 758 22.9967 758 26.0766V114.923C758 118.003 755.503 120.5 752.423 120.5H448.037C444.957 120.5 442.46 118.003 442.46 114.923V26.0766Z" fill="white"/>
<circle cx="463.687" cy="41.7269" r="5.22686" fill="#FF5F56"/>
<circle cx="481.981" cy="41.7269" r="5.22686" fill="#FFBD2E"/>
<circle cx="500.275" cy="41.7269" r="5.22686" fill="#27C93F"/>
<path d="M459.78 79.8997H461.386V81.8797C461.606 81.1464 461.988 80.5964 462.53 80.2297C463.073 79.8631 463.711 79.6797 464.444 79.6797C465.207 79.6797 465.904 79.8777 466.534 80.2737C467.18 80.6551 467.693 81.2344 468.074 82.0117C468.456 82.7891 468.646 83.7351 468.646 84.8497C468.646 85.9791 468.448 86.9544 468.052 87.7757C467.656 88.5824 467.128 89.1911 466.468 89.6017C465.823 90.0124 465.134 90.2177 464.4 90.2177C463.799 90.2177 463.234 90.0784 462.706 89.7997C462.178 89.5211 461.746 89.1324 461.408 88.6337V93.6277H459.78V79.8997ZM464.136 88.8097C464.943 88.8097 465.618 88.5091 466.16 87.9077C466.718 87.2917 466.996 86.2944 466.996 84.9157C466.996 83.6691 466.754 82.7157 466.27 82.0557C465.786 81.3811 465.097 81.0437 464.202 81.0437C463.366 81.0437 462.684 81.3957 462.156 82.0997C461.643 82.7891 461.386 83.8451 461.386 85.2677C461.416 86.4264 461.672 87.3064 462.156 87.9077C462.64 88.5091 463.3 88.8097 464.136 88.8097ZM471.66 89.9537V88.6777H474.234V81.1757H471.792V79.8997H475.818V88.6777H478.172V89.9537H471.66ZM474.938 77.7877C474.63 77.7877 474.366 77.6777 474.146 77.4577C473.926 77.2377 473.816 76.9737 473.816 76.6657C473.816 76.3431 473.919 76.0717 474.124 75.8517C474.344 75.6317 474.616 75.5217 474.938 75.5217C475.246 75.5217 475.51 75.6391 475.73 75.8737C475.965 76.0937 476.082 76.3577 476.082 76.6657C476.082 76.9737 475.965 77.2377 475.73 77.4577C475.51 77.6777 475.246 77.7877 474.938 77.7877ZM481.78 79.8997H483.386V81.8797C483.606 81.1464 483.988 80.5964 484.53 80.2297C485.073 79.8631 485.711 79.6797 486.444 79.6797C487.207 79.6797 487.904 79.8777 488.534 80.2737C489.18 80.6551 489.693 81.2344 490.074 82.0117C490.456 82.7891 490.646 83.7351 490.646 84.8497C490.646 85.9791 490.448 86.9544 490.052 87.7757C489.656 88.5824 489.128 89.1911 488.468 89.6017C487.823 90.0124 487.134 90.2177 486.4 90.2177C485.799 90.2177 485.234 90.0784 484.706 89.7997C484.178 89.5211 483.746 89.1324 483.408 88.6337V93.6277H481.78V79.8997ZM486.136 88.8097C486.943 88.8097 487.618 88.5091 488.16 87.9077C488.718 87.2917 488.996 86.2944 488.996 84.9157C488.996 83.6691 488.754 82.7157 488.27 82.0557C487.786 81.3811 487.097 81.0437 486.202 81.0437C485.366 81.0437 484.684 81.3957 484.156 82.0997C483.643 82.7891 483.386 83.8451 483.386 85.2677C483.416 86.4264 483.672 87.3064 484.156 87.9077C484.64 88.5091 485.3 88.8097 486.136 88.8097ZM504.66 89.9537V88.6777H507.234V81.1757H504.792V79.8997H508.818V88.6777H511.172V89.9537H504.66ZM507.938 77.7877C507.63 77.7877 507.366 77.6777 507.146 77.4577C506.926 77.2377 506.816 76.9737 506.816 76.6657C506.816 76.3431 506.919 76.0717 507.124 75.8517C507.344 75.6317 507.616 75.5217 507.938 75.5217C508.246 75.5217 508.51 75.6391 508.73 75.8737C508.965 76.0937 509.082 76.3577 509.082 76.6657C509.082 76.9737 508.965 77.2377 508.73 77.4577C508.51 77.6777 508.246 77.7877 507.938 77.7877ZM515.044 79.8997H516.584V81.6817C516.98 81.0657 517.479 80.5744 518.08 80.2077C518.682 79.8411 519.32 79.6577 519.994 79.6577C520.889 79.6577 521.6 80.0024 522.128 80.6917C522.671 81.3664 522.942 82.4224 522.942 83.8597V89.9537H521.402V83.9037C521.402 82.9064 521.234 82.1804 520.896 81.7257C520.559 81.2711 520.112 81.0437 519.554 81.0437C519.1 81.0437 518.638 81.1757 518.168 81.4397C517.714 81.7037 517.332 82.0777 517.024 82.5617C516.731 83.0311 516.584 83.5664 516.584 84.1677V89.9537H515.044V79.8997ZM530.686 84.0357C531.948 84.4171 532.835 84.8351 533.348 85.2897C533.876 85.7297 534.14 86.3091 534.14 87.0277C534.14 87.9371 533.781 88.6924 533.062 89.2937C532.358 89.8804 531.332 90.1737 529.982 90.1737C528.281 90.1737 526.858 89.6457 525.714 88.5897L526.594 87.0937L526.616 87.0717L526.638 87.0937C527.093 87.6804 527.562 88.1204 528.046 88.4137C528.53 88.7071 529.19 88.8537 530.026 88.8537C530.818 88.8537 531.442 88.7144 531.896 88.4357C532.351 88.1424 532.578 87.7464 532.578 87.2477C532.578 86.8224 532.395 86.4704 532.028 86.1917C531.662 85.9131 531.002 85.6197 530.048 85.3117C527.526 84.5931 526.264 83.5517 526.264 82.1877C526.264 81.4104 526.58 80.7944 527.21 80.3397C527.856 79.8851 528.772 79.6577 529.96 79.6577C530.87 79.6577 531.632 79.7897 532.248 80.0537C532.879 80.3031 533.451 80.6991 533.964 81.2417L533.062 82.3417L533.04 82.3637C532.732 81.8944 532.292 81.5277 531.72 81.2637C531.163 80.9851 530.591 80.8457 530.004 80.8457C529.374 80.8457 528.853 80.9557 528.442 81.1757C528.046 81.3957 527.848 81.7037 527.848 82.0997C527.848 82.4664 528.054 82.8037 528.464 83.1117C528.875 83.4197 529.616 83.7277 530.686 84.0357ZM532.798 82.4077C532.798 82.3344 532.857 82.3417 532.974 82.4297L532.908 82.5177L532.798 82.4077ZM533.04 82.3637C533.084 82.4224 533.099 82.4591 533.084 82.4737C533.084 82.4884 533.07 82.4884 533.04 82.4737C533.011 82.4591 532.989 82.4444 532.974 82.4297L533.04 82.3637ZM526.858 87.0057C526.858 87.0644 526.792 87.0644 526.66 87.0057L526.726 86.8957L526.858 86.9837V87.0057ZM526.616 87.0717C526.572 86.9984 526.558 86.9617 526.572 86.9617C526.587 86.9617 526.616 86.9764 526.66 87.0057L526.616 87.0717ZM545.228 89.0297C544.26 89.7484 543.197 90.1077 542.038 90.1077C540.924 90.1077 540.132 89.7704 539.662 89.0957C539.208 88.4211 538.98 87.3211 538.98 85.7957C538.98 85.5464 538.995 85.1137 539.024 84.4977L539.222 81.1977H537V79.8997H539.31L539.464 77.2157L541.224 76.9297L541.444 76.9077L541.466 77.0397C541.364 77.1864 541.283 77.3111 541.224 77.4137C541.18 77.5164 541.151 77.6777 541.136 77.8977L540.894 79.8997H544.238V81.1977H540.806L540.608 84.6077C540.579 85.1944 540.564 85.5831 540.564 85.7737C540.564 86.9471 540.696 87.7464 540.96 88.1717C541.239 88.5824 541.679 88.7877 542.28 88.7877C542.72 88.7877 543.124 88.7071 543.49 88.5457C543.857 88.3844 544.275 88.1277 544.744 87.7757L545.228 89.0297ZM551.828 79.6797C553.266 79.6797 554.358 80.0537 555.106 80.8017C555.869 81.5497 556.25 82.8184 556.25 84.6077V89.9537H554.534V88.4137C553.918 89.6017 552.774 90.1957 551.102 90.1957C549.988 90.1957 549.115 89.9464 548.484 89.4477C547.854 88.9344 547.538 88.2597 547.538 87.4237C547.538 86.7197 547.766 86.1037 548.22 85.5757C548.675 85.0477 549.284 84.6444 550.046 84.3657C550.824 84.0724 551.674 83.9257 552.598 83.9257C553.434 83.9257 554.19 83.9697 554.864 84.0577C554.776 82.9284 554.476 82.1364 553.962 81.6817C553.464 81.2124 552.716 80.9777 551.718 80.9777C551.22 80.9777 550.736 81.0731 550.266 81.2637C549.812 81.4544 549.394 81.7331 549.012 82.0997L548.242 81.0877C549.181 80.1491 550.376 79.6797 551.828 79.6797ZM551.256 88.9857C552.342 88.9857 553.2 88.6704 553.83 88.0397C554.461 87.3944 554.806 86.4704 554.864 85.2677C554.204 85.1651 553.493 85.1137 552.73 85.1137C551.616 85.1137 550.736 85.2971 550.09 85.6637C549.445 86.0304 549.122 86.5877 549.122 87.3357C549.122 88.4357 549.834 88.9857 551.256 88.9857ZM559.198 89.9537V88.6777H562.168V76.5997H559.33V75.3237H563.774V88.6777H566.722V89.9537H559.198ZM570.198 89.9537V88.6777H573.168V76.5997H570.33V75.3237H574.774V88.6777H577.722V89.9537H570.198ZM592.198 89.9537V88.6777H595.168V76.5997H592.33V75.3237H596.774V88.6777H599.722V89.9537H592.198ZM603.66 89.9537V88.6777H606.234V81.1757H603.792V79.8997H607.818V88.6777H610.172V89.9537H603.66ZM606.938 77.7877C606.63 77.7877 606.366 77.6777 606.146 77.4577C605.926 77.2377 605.816 76.9737 605.816 76.6657C605.816 76.3431 605.919 76.0717 606.124 75.8517C606.344 75.6317 606.616 75.5217 606.938 75.5217C607.246 75.5217 607.51 75.6391 607.73 75.8737C607.965 76.0937 608.082 76.3577 608.082 76.6657C608.082 76.9737 607.965 77.2377 607.73 77.4577C607.51 77.6777 607.246 77.7877 606.938 77.7877ZM622.91 80.9337C622.778 80.9191 622.588 80.9117 622.338 80.9117C621.634 80.9117 621.048 81.0657 620.578 81.3737C620.828 81.8724 620.952 82.4224 620.952 83.0237C620.952 83.6837 620.806 84.2851 620.512 84.8277C620.234 85.3557 619.823 85.7737 619.28 86.0817C618.752 86.3897 618.136 86.5437 617.432 86.5437C616.875 86.5437 616.354 86.4411 615.87 86.2357C615.606 86.5584 615.474 86.8664 615.474 87.1597C615.474 87.5117 615.694 87.7684 616.134 87.9297C616.589 88.0764 617.396 88.1497 618.554 88.1497C619.977 88.1497 620.945 88.3697 621.458 88.8097C621.986 89.2351 622.25 89.8657 622.25 90.7017C622.25 91.5671 621.898 92.2857 621.194 92.8577C620.49 93.4444 619.39 93.7377 617.894 93.7377C616.457 93.7377 615.328 93.5177 614.506 93.0777C613.7 92.6377 613.296 91.9924 613.296 91.1417C613.296 90.6137 613.443 90.1591 613.736 89.7777C614.03 89.3964 614.404 89.0957 614.858 88.8757C614.374 88.5531 614.132 88.1057 614.132 87.5337C614.132 86.9471 614.433 86.3311 615.034 85.6857C614.668 85.3631 614.389 84.9744 614.198 84.5197C614.008 84.0651 613.912 83.5664 613.912 83.0237C613.912 82.3784 614.052 81.7917 614.33 81.2637C614.624 80.7211 615.034 80.2957 615.562 79.9877C616.105 79.6797 616.728 79.5257 617.432 79.5257C618.503 79.5257 619.361 79.8704 620.006 80.5597C620.358 80.2371 620.718 80.0024 621.084 79.8557C621.466 79.6944 621.884 79.6137 622.338 79.6137L622.712 79.6357L622.91 80.9337ZM617.432 85.2237C618.063 85.2237 618.584 85.0111 618.994 84.5857C619.42 84.1604 619.632 83.6397 619.632 83.0237C619.632 82.4077 619.42 81.8871 618.994 81.4617C618.584 81.0364 618.063 80.8237 617.432 80.8237C616.802 80.8237 616.274 81.0364 615.848 81.4617C615.438 81.8871 615.232 82.4077 615.232 83.0237C615.232 83.6397 615.438 84.1604 615.848 84.5857C616.274 85.0111 616.802 85.2237 617.432 85.2237ZM620.798 90.9437C620.798 90.5917 620.732 90.3131 620.6 90.1077C620.483 89.9171 620.241 89.7777 619.874 89.6897C619.508 89.5871 618.958 89.5357 618.224 89.5357C617.168 89.5357 616.325 89.4404 615.694 89.2497C615.342 89.4844 615.093 89.7264 614.946 89.9757C614.814 90.2251 614.748 90.5551 614.748 90.9657C614.748 91.4644 615.027 91.8531 615.584 92.1317C616.142 92.4104 616.919 92.5497 617.916 92.5497C618.884 92.5497 619.603 92.4031 620.072 92.1097C620.556 91.8311 620.798 91.4424 620.798 90.9437ZM625.066 75.3237H626.804V75.4777C626.716 75.5657 626.658 75.6611 626.628 75.7637C626.614 75.8664 626.606 76.0424 626.606 76.2917V81.6817C627.002 81.0657 627.494 80.5744 628.08 80.2077C628.682 79.8411 629.29 79.6577 629.906 79.6577C630.86 79.6577 631.608 79.9951 632.15 80.6697C632.693 81.3444 632.964 82.4077 632.964 83.8597V89.9537H631.424V83.9037C631.424 82.9064 631.256 82.1804 630.918 81.7257C630.581 81.2711 630.134 81.0437 629.576 81.0437C629.107 81.0437 628.645 81.1757 628.19 81.4397C627.736 81.6891 627.354 82.0557 627.046 82.5397C626.753 83.0091 626.606 83.5517 626.606 84.1677V89.9537H625.066V75.3237ZM644.228 89.0297C643.26 89.7484 642.197 90.1077 641.038 90.1077C639.924 90.1077 639.132 89.7704 638.662 89.0957C638.208 88.4211 637.98 87.3211 637.98 85.7957C637.98 85.5464 637.995 85.1137 638.024 84.4977L638.222 81.1977H636V79.8997H638.31L638.464 77.2157L640.224 76.9297L640.444 76.9077L640.466 77.0397C640.364 77.1864 640.283 77.3111 640.224 77.4137C640.18 77.5164 640.151 77.6777 640.136 77.8977L639.894 79.8997H643.238V81.1977H639.806L639.608 84.6077C639.579 85.1944 639.564 85.5831 639.564 85.7737C639.564 86.9471 639.696 87.7464 639.96 88.1717C640.239 88.5824 640.679 88.7877 641.28 88.7877C641.72 88.7877 642.124 88.7071 642.49 88.5457C642.857 88.3844 643.275 88.1277 643.744 87.7757L644.228 89.0297ZM647.198 89.9537V88.6777H650.168V76.5997H647.33V75.3237H651.774V88.6777H654.722V89.9537H647.198ZM666.206 79.8997C666.118 80.5011 665.979 81.0951 665.788 81.6817C665.612 82.2684 665.356 83.0457 665.018 84.0137L662.51 91.0977C662.173 92.0364 661.733 92.7184 661.19 93.1437C660.648 93.5691 660.002 93.7817 659.254 93.7817C658.316 93.7817 657.546 93.4957 656.944 92.9237L657.626 91.8457L657.648 91.8237L657.67 91.8457C657.905 92.0657 658.154 92.2271 658.418 92.3297C658.682 92.4324 658.99 92.4837 659.342 92.4837C659.885 92.4837 660.318 92.2931 660.64 91.9117C660.963 91.5304 661.278 90.8997 661.586 90.0197L657.472 79.8997H659.122L662.246 87.9517L663.566 83.9037C663.889 82.8917 664.124 82.1217 664.27 81.5937C664.432 81.0511 664.549 80.4864 664.622 79.8997H666.206ZM657.89 91.7577C657.89 91.7871 657.876 91.8017 657.846 91.8017L657.67 91.7577L657.758 91.6477L657.89 91.7357V91.7577ZM657.648 91.8237C657.575 91.7504 657.553 91.7211 657.582 91.7357C657.626 91.7504 657.656 91.7577 657.67 91.7577L657.648 91.8237ZM669.022 83.7717V82.2977H676.942V83.7717H669.022ZM688.228 89.0297C687.26 89.7484 686.197 90.1077 685.038 90.1077C683.924 90.1077 683.132 89.7704 682.662 89.0957C682.208 88.4211 681.98 87.3211 681.98 85.7957C681.98 85.5464 681.995 85.1137 682.024 84.4977L682.222 81.1977H680V79.8997H682.31L682.464 77.2157L684.224 76.9297L684.444 76.9077L684.466 77.0397C684.364 77.1864 684.283 77.3111 684.224 77.4137C684.18 77.5164 684.151 77.6777 684.136 77.8977L683.894 79.8997H687.238V81.1977H683.806L683.608 84.6077C683.579 85.1944 683.564 85.5831 683.564 85.7737C683.564 86.9471 683.696 87.7464 683.96 88.1717C684.239 88.5824 684.679 88.7877 685.28 88.7877C685.72 88.7877 686.124 88.7071 686.49 88.5457C686.857 88.3844 687.275 88.1277 687.744 87.7757L688.228 89.0297ZM698.832 81.9897V82.0117C698.407 81.6157 698.048 81.3517 697.754 81.2197C697.476 81.0877 697.146 81.0217 696.764 81.0217C696.236 81.0217 695.738 81.1537 695.268 81.4177C694.799 81.6817 694.418 82.0851 694.124 82.6277C693.831 83.1557 693.684 83.8231 693.684 84.6297V89.9757H692.078V79.8997H693.728L693.684 81.7477C693.963 81.0877 694.388 80.5744 694.96 80.2077C695.547 79.8411 696.185 79.6577 696.874 79.6577C697.945 79.6577 698.832 80.0244 699.536 80.7577L698.832 81.9897ZM698.832 82.0117C698.935 82.0997 698.957 82.1364 698.898 82.1217C698.854 82.1071 698.818 82.0924 698.788 82.0777L698.832 82.0117ZM698.59 82.0777C698.59 82.0337 698.612 82.0191 698.656 82.0337C698.7 82.0337 698.744 82.0484 698.788 82.0777L698.744 82.1877L698.59 82.0997V82.0777ZM705.828 79.6797C707.266 79.6797 708.358 80.0537 709.106 80.8017C709.869 81.5497 710.25 82.8184 710.25 84.6077V89.9537H708.534V88.4137C707.918 89.6017 706.774 90.1957 705.102 90.1957C703.988 90.1957 703.115 89.9464 702.484 89.4477C701.854 88.9344 701.538 88.2597 701.538 87.4237C701.538 86.7197 701.766 86.1037 702.22 85.5757C702.675 85.0477 703.284 84.6444 704.046 84.3657C704.824 84.0724 705.674 83.9257 706.598 83.9257C707.434 83.9257 708.19 83.9697 708.864 84.0577C708.776 82.9284 708.476 82.1364 707.962 81.6817C707.464 81.2124 706.716 80.9777 705.718 80.9777C705.22 80.9777 704.736 81.0731 704.266 81.2637C703.812 81.4544 703.394 81.7331 703.012 82.0997L702.242 81.0877C703.181 80.1491 704.376 79.6797 705.828 79.6797ZM705.256 88.9857C706.342 88.9857 707.2 88.6704 707.83 88.0397C708.461 87.3944 708.806 86.4704 708.864 85.2677C708.204 85.1651 707.493 85.1137 706.73 85.1137C705.616 85.1137 704.736 85.2971 704.09 85.6637C703.445 86.0304 703.122 86.5877 703.122 87.3357C703.122 88.4357 703.834 88.9857 705.256 88.9857ZM713.66 89.9537V88.6777H716.234V81.1757H713.792V79.8997H717.818V88.6777H720.172V89.9537H713.66ZM716.938 77.7877C716.63 77.7877 716.366 77.6777 716.146 77.4577C715.926 77.2377 715.816 76.9737 715.816 76.6657C715.816 76.3431 715.919 76.0717 716.124 75.8517C716.344 75.6317 716.616 75.5217 716.938 75.5217C717.246 75.5217 717.51 75.6391 717.73 75.8737C717.965 76.0937 718.082 76.3577 718.082 76.6657C718.082 76.9737 717.965 77.2377 717.73 77.4577C717.51 77.6777 717.246 77.7877 716.938 77.7877ZM724.044 79.8997H725.584V81.6817C725.98 81.0657 726.479 80.5744 727.08 80.2077C727.682 79.8411 728.32 79.6577 728.994 79.6577C729.889 79.6577 730.6 80.0024 731.128 80.6917C731.671 81.3664 731.942 82.4224 731.942 83.8597V89.9537H730.402V83.9037C730.402 82.9064 730.234 82.1804 729.896 81.7257C729.559 81.2711 729.112 81.0437 728.554 81.0437C728.1 81.0437 727.638 81.1757 727.168 81.4397C726.714 81.7037 726.332 82.0777 726.024 82.5617C725.731 83.0311 725.584 83.5664 725.584 84.1677V89.9537H724.044V79.8997Z" fill="#90A959"/>
</g>
<defs>
<filter id="filter0_dd_1399_2396" x="437.53" y="17.5418" width="325.4" height="109.861" filterUnits="userSpaceOnUse" color-interpolation-filters="sRGB">
<feFlood flood-opacity="0" result="BackgroundImageFix"/>
<feColorMatrix in="SourceAlpha" type="matrix" values="0 0 0 0 0 0 0 0 0 0 0 0 0 0 0 0 0 0 127 0" result="hardAlpha"/>
<feMorphology radius="0.986061" operator="erode" in="SourceAlpha" result="effect1_dropShadow_1399_2396"/>
<feOffset dy="0.986061"/>
<feGaussianBlur stdDeviation="1.47909"/>
<feColorMatrix type="matrix" values="0 0 0 0 0.0392157 0 0 0 0 0.0496732 0 0 0 0 0.0705882 0 0 0 0.06 0"/>
<feBlend mode="normal" in2="BackgroundImageFix" result="effect1_dropShadow_1399_2396"/>
<feColorMatrix in="SourceAlpha" type="matrix" values="0 0 0 0 0 0 0 0 0 0 0 0 0 0 0 0 0 0 127 0" result="hardAlpha"/>
<feMorphology radius="0.986061" operator="erode" in="SourceAlpha" result="effect2_dropShadow_1399_2396"/>
<feOffset dy="1.97212"/>
<feGaussianBlur stdDeviation="2.95818"/>
<feColorMatrix type="matrix" values="0 0 0 0 0.0392157 0 0 0 0 0.0496732 0 0 0 0 0.0705882 0 0 0 0.1 0"/>
<feBlend mode="normal" in2="effect1_dropShadow_1399_2396" result="effect2_dropShadow_1399_2396"/>
<feBlend mode="normal" in="SourceGraphic" in2="effect2_dropShadow_1399_2396" result="shape"/>
</filter>
<linearGradient id="paint0_linear_1399_2396" x1="326.55" y1="0.461247" x2="435.861" y2="238.037" gradientUnits="userSpaceOnUse">
<stop stop-color="#CBE6FF"/>
<stop offset="1" stop-color="#F3AED9"/>
</linearGradient>
</defs>
</svg>
