<?xml version="1.0" standalone="no"?>
<!DOCTYPE svg PUBLIC "-//W3C//DTD SVG 20010904//EN"
 "http://www.w3.org/TR/2001/REC-SVG-20010904/DTD/svg10.dtd">
<svg version="1.0" xmlns="http://www.w3.org/2000/svg"
 width="1024.000000pt" height="1024.000000pt" viewBox="0 0 1024.000000 1024.000000"
 preserveAspectRatio="xMidYMid meet">
<metadata>
Created by potrace 1.16, written by Peter Selinger 2001-2019
</metadata>
<g transform="translate(0.000000,1024.000000) scale(0.100000,-0.100000)"
fill="#000000" stroke="none">
<path d="M2890 9581 c-30 -10 -163 -79 -295 -152 -655 -367 -624 -348 -711
-434 -137 -134 -226 -297 -260 -472 -12 -62 -14 -414 -16 -2184 -1 -1500 -4
-2112 -12 -2118 -6 -5 -65 -30 -131 -56 -158 -62 -376 -173 -489 -248 -133
-89 -283 -242 -330 -337 -157 -320 39 -629 559 -880 178 -86 404 -173 390
-150 -7 12 5 41 15 35 12 -7 33 23 27 39 -3 8 -1 16 4 18 6 2 11 10 12 18 2 8
6 20 10 26 4 7 -5 17 -23 24 -17 7 -29 15 -26 17 2 2 59 -14 127 -36 359 -116
836 -216 1429 -301 246 -35 524 -70 558 -70 9 0 12 278 12 1359 l0 1358 21 27
c28 35 80 36 114 2 l25 -25 -1 -1367 c0 -751 1 -1368 3 -1369 5 -5 477 -43
663 -55 94 -5 208 -13 255 -15 258 -17 402 -24 458 -25 l62 0 0 2298 c0 2275
0 2300 20 2378 37 143 123 297 223 396 77 78 116 102 704 436 312 178 383 208
453 196 97 -18 158 -84 77 -84 -57 -1 -128 -32 -293 -127 -77 -45 -204 -118
-284 -163 -462 -263 -484 -278 -572 -388 -77 -98 -135 -218 -159 -334 -18 -90
-19 -166 -19 -2350 0 -1241 3 -2259 8 -2261 4 -3 151 -8 327 -11 176 -4 384
-9 463 -12 140 -6 143 -7 126 -25 -15 -17 -15 -23 -4 -44 7 -13 18 -21 24 -18
6 4 5 -1 -3 -10 -10 -13 -18 -14 -32 -6 -11 5 -19 6 -18 2 4 -22 -2 -43 -12
-43 -5 0 -7 5 -4 10 10 16 -12 12 -29 -6 -9 -8 -24 -14 -33 -13 -33 3 -43 -1
-43 -17 0 -8 -4 -12 -10 -9 -5 3 -18 2 -27 -4 -20 -11 216 -14 1290 -19 l627
-2 0 100 0 101 -830 -2 c-457 -1 -833 1 -836 3 -2 3 46 34 107 69 157 90 224
143 299 236 75 93 130 198 162 310 l23 78 0 2345 0 2345 -22 70 c-27 85 -86
171 -150 218 -42 31 -168 101 -478 268 -110 59 -188 74 -297 59 -91 -13 -138
-35 -412 -193 -120 -70 -221 -127 -223 -127 -1 0 -3 89 -3 198 0 290 -29 393
-136 491 -45 41 -359 224 -540 315 -102 50 -257 54 -365 8 -24 -11 -151 -81
-283 -156 -131 -75 -239 -136 -241 -136 -1 0 -5 96 -7 213 -4 178 -8 222 -25
274 -26 79 -74 154 -123 193 -45 36 -492 284 -570 317 -71 29 -216 31 -300 4z
m4026 -1763 c5 -8 2 -9 -10 -5 -10 4 -22 7 -27 7 -5 0 -9 7 -9 15 0 12 4 14
19 5 11 -5 23 -15 27 -22z m-5319 -3695 c-2 -16 -4 -3 -4 27 0 30 2 43 4 28 2
-16 2 -40 0 -55z m13 -742 c0 -345 -3 -631 -6 -634 -19 -19 -380 146 -522 239
-111 72 -220 182 -258 260 -113 231 91 465 611 699 88 40 163 71 167 68 5 -2
8 -287 8 -632z"/>
<path d="M1610 1988 c0 -599 2 -616 62 -732 18 -34 62 -90 98 -126 56 -56 100
-84 308 -199 134 -73 271 -142 305 -153 74 -24 187 -20 263 10 41 16 394 213
737 411 l87 50 158 -88 c256 -144 360 -191 350 -159 -3 7 -17 13 -31 13 -56 1
-151 109 -184 208 -15 45 -18 107 -21 479 l-3 427 -57 6 c-870 99 -1393 196
-1929 356 -72 21 -134 39 -137 39 -3 0 -6 -244 -6 -542z"/>
<path d="M8152 2323 l1 -98 6 77 c7 75 20 116 22 67 1 -17 3 -19 6 -6 5 21 17
22 33 2 7 -8 16 -12 22 -9 5 3 14 1 21 -4 7 -6 107 -63 222 -127 116 -64 212
-119 215 -122 3 -2 7 -131 10 -286 l6 -282 2 286 2 286 -147 83 c-82 46 -207
116 -279 156 -73 41 -135 74 -138 74 -3 0 -5 -44 -4 -97z"/>
<path d="M3750 2058 c1 -58 2 -61 15 -44 8 11 15 16 15 12 0 -4 7 0 16 8 8 9
20 14 25 11 5 -4 9 1 9 10 0 9 9 19 19 22 11 3 22 11 25 18 5 13 -40 25 -96
25 -28 0 -28 -1 -28 -62z"/>
<path d="M3899 2108 c-7 -40 -6 -816 1 -873 11 -87 70 -225 96 -225 8 0 24
-10 35 -21 19 -19 30 -21 103 -17 114 6 82 -10 704 347 145 83 283 164 306
181 78 53 181 173 230 270 26 49 48 90 50 90 1 0 21 -9 44 -20 56 -27 78 -25
25 2 -53 27 -95 70 -126 128 l-24 45 -79 2 c-283 9 -1073 62 -1311 89 -29 3
-53 4 -54 2z"/>
<path d="M5490 1991 c0 -42 25 -97 61 -136 27 -29 36 -45 27 -48 -7 -3 -4 -5
7 -5 11 0 54 -4 95 -7 94 -9 130 4 319 112 l136 78 -120 7 c-66 3 -211 8 -322
10 -179 4 -203 2 -203 -11z"/>
<path d="M8151 1814 c0 -11 3 -14 6 -6 3 7 2 16 -1 19 -3 4 -6 -2 -5 -13z"/>
<path d="M8520 1556 c0 -3 9 -10 20 -16 11 -6 20 -8 20 -6 0 3 -9 10 -20 16
-11 6 -20 8 -20 6z"/>
</g>
</svg>
