<?xml version="1.0" standalone="no"?>
<!DOCTYPE svg PUBLIC "-//W3C//DTD SVG 20010904//EN"
 "http://www.w3.org/TR/2001/REC-SVG-20010904/DTD/svg10.dtd">
<svg version="1.0" xmlns="http://www.w3.org/2000/svg"
 width="2048.000000pt" height="2048.000000pt" viewBox="0 0 2048.000000 2048.000000"
 preserveAspectRatio="xMidYMid meet">
<metadata>
Created by potrace 1.16, written by Peter Selinger 2001-2019
</metadata>
<g transform="translate(0.000000,2048.000000) scale(0.100000,-0.100000)"
fill="#000000" stroke="none">
<path d="M6225 19193 c-206 -46 -263 -72 -670 -308 -49 -29 -121 -69 -158 -89
-38 -21 -126 -70 -195 -110 -70 -39 -172 -97 -227 -128 -421 -236 -652 -369
-720 -416 -151 -104 -410 -392 -485 -539 -13 -26 -34 -64 -45 -83 -18 -29 -61
-130 -105 -245 -4 -11 -13 -33 -19 -48 -6 -15 -11 -37 -11 -48 0 -10 -4 -27
-9 -37 -9 -16 -27 -114 -51 -279 -7 -49 -10 -1411 -10 -4248 0 -4168 0 -4177
-20 -4182 -11 -3 -20 -9 -20 -13 0 -4 -12 -11 -27 -14 -24 -6 -155 -51 -218
-76 -95 -37 -217 -91 -331 -145 -75 -36 -140 -65 -144 -65 -5 0 -10 -3 -12 -7
-1 -5 -43 -28 -93 -53 -84 -41 -203 -105 -250 -133 -30 -17 -158 -101 -170
-110 -5 -4 -53 -40 -105 -79 -219 -163 -350 -295 -462 -467 -69 -105 -138
-254 -138 -295 0 -12 -5 -27 -11 -33 -7 -7 -14 -66 -16 -145 -6 -148 15 -314
42 -334 8 -6 15 -21 15 -32 0 -26 47 -135 80 -187 75 -116 126 -178 229 -282
97 -98 166 -154 315 -257 59 -41 82 -46 40 -9 -13 12 -24 19 -24 15 0 -8 -29
31 -30 40 0 3 10 4 22 0 15 -4 19 -2 13 7 -6 10 -3 11 13 2 11 -6 22 -18 26
-28 5 -16 4 -15 -9 1 -8 11 -17 17 -21 14 -10 -11 16 -49 49 -69 23 -15 26
-19 9 -14 -41 12 -22 -10 45 -50 36 -22 82 -50 102 -63 52 -32 282 -150 381
-194 47 -21 102 -48 123 -58 22 -11 43 -20 48 -20 5 0 32 -11 60 -24 48 -24
79 -25 79 -4 0 5 -10 6 -22 3 -17 -5 -19 -4 -9 3 11 8 10 12 -8 23 -11 8 -21
19 -21 25 0 5 -9 20 -20 32 -12 12 -17 22 -12 22 6 0 25 -20 43 -45 19 -25 44
-48 56 -51 25 -7 20 -34 -6 -34 -14 0 -14 -2 -1 -10 15 -10 44 6 35 20 -3 4
11 10 31 12 32 4 34 3 18 -9 -22 -16 2 -19 26 -3 13 9 13 12 -3 21 -9 6 -15
14 -12 19 3 5 -8 2 -24 -8 -26 -14 -32 -15 -43 -3 -11 12 -10 13 5 8 11 -4 16
-3 12 4 -4 6 -13 8 -21 5 -7 -3 -29 9 -49 26 -38 34 -46 54 -17 44 15 -5 15
-4 2 7 -8 7 -21 19 -29 27 -11 13 -12 12 -2 -8 13 -25 0 -30 -21 -8 -7 8 -40
41 -72 75 -32 34 -57 64 -54 66 10 11 34 -6 56 -40 12 -19 27 -35 32 -35 6 0
2 10 -10 22 -24 27 -29 58 -5 38 13 -11 14 -10 9 4 -4 10 -13 15 -20 12 -17
-6 -64 13 -64 26 0 5 -4 6 -10 3 -5 -3 -10 -1 -10 4 0 19 -20 12 -20 -6 -1
-17 -1 -17 -14 0 -16 21 -26 22 -26 2 0 -8 5 -15 11 -15 5 0 7 -5 3 -11 -11
-18 -26 18 -19 42 4 12 3 19 -1 16 -5 -3 -9 5 -9 18 0 13 3 21 7 19 3 -2 9 2
12 8 3 9 12 5 26 -12 l22 -25 19 24 c11 13 23 21 26 17 4 -4 2 -11 -6 -15 -10
-6 -9 -10 4 -15 24 -9 27 -8 19 6 -5 7 -3 8 6 3 23 -14 80 -17 80 -4 0 8 6 7
18 -3 9 -8 33 -18 52 -22 l34 -6 -22 21 c-13 11 -29 18 -37 15 -9 -3 -12 0 -9
9 4 10 -2 13 -20 11 -15 -2 -29 1 -32 5 -3 5 0 9 6 9 6 0 8 5 5 10 -5 8 -11 7
-21 -1 -11 -9 -14 -9 -14 1 0 8 -3 11 -6 7 -3 -3 -15 3 -27 14 -11 10 -28 19
-36 19 -12 0 -12 3 -3 12 10 10 14 10 20 1 4 -7 17 -14 27 -16 11 -1 46 -15
79 -30 32 -15 63 -27 70 -27 6 0 20 -7 30 -15 10 -8 23 -12 29 -8 5 3 12 1 16
-3 3 -5 53 -29 111 -53 58 -23 113 -47 122 -52 10 -5 24 -9 32 -9 7 0 26 -6
41 -14 15 -8 33 -12 41 -9 12 4 169 -40 204 -58 24 -12 296 -96 385 -119 44
-12 89 -25 100 -29 11 -5 52 -16 90 -25 39 -9 102 -25 140 -36 39 -11 99 -27
135 -36 36 -8 72 -17 80 -19 8 -2 56 -13 105 -24 50 -11 144 -31 210 -46 66
-14 152 -32 190 -40 39 -7 138 -27 220 -44 271 -56 287 -59 685 -121 74 -12
167 -27 205 -35 39 -7 129 -21 200 -29 72 -9 153 -21 180 -26 28 -5 88 -13
135 -19 47 -6 119 -15 160 -22 41 -6 93 -12 115 -14 22 -1 137 -14 255 -29
355 -44 455 -56 468 -56 9 0 12 599 12 2708 l0 2707 23 39 c56 99 169 119 246
45 18 -16 36 -41 42 -55 6 -16 9 -1027 9 -2747 0 -1952 3 -2723 11 -2727 6 -4
50 -10 97 -14 48 -3 161 -13 252 -20 387 -34 870 -71 1115 -86 571 -34 772
-45 1075 -59 118 -6 239 -12 268 -13 l53 -3 0 4505 c0 4359 2 4703 29 4765 5
11 11 34 14 50 27 161 127 391 252 582 125 188 294 356 471 464 105 65 235
139 243 139 4 0 42 23 84 50 42 28 78 50 81 50 2 0 42 23 90 50 48 28 88 50
90 50 2 0 50 28 107 61 56 34 128 75 158 91 30 16 82 45 115 64 33 19 68 38
78 41 9 3 17 9 17 13 0 5 12 13 28 19 15 6 41 19 57 30 55 34 277 161 282 161
3 0 17 8 31 18 15 11 56 34 92 53 36 18 67 36 70 39 9 10 155 79 198 94 63 23
177 30 251 16 78 -14 194 -67 251 -115 23 -19 45 -35 48 -35 12 0 94 -81 89
-86 -3 -3 -25 5 -49 19 -59 35 -141 57 -207 57 -109 0 -258 -53 -371 -130 -21
-14 -166 -98 -290 -167 -40 -23 -365 -210 -515 -298 -107 -62 -351 -202 -425
-243 -346 -193 -462 -273 -595 -406 -171 -172 -294 -368 -368 -586 -74 -218
-80 -250 -86 -535 -4 -143 -7 -2201 -9 -4573 -2 -3467 0 -4313 10 -4316 7 -3
185 -7 395 -11 210 -3 393 -8 405 -10 13 -2 276 -6 585 -10 l562 -6 63 34 c93
50 142 78 153 87 6 4 42 25 80 45 301 164 463 308 643 575 114 170 216 420
242 596 7 43 16 98 21 121 5 25 9 1915 9 4611 0 4864 2 4640 -45 4822 -41 160
-184 360 -321 451 -118 78 -190 121 -284 170 -58 29 -163 87 -235 127 -71 41
-177 100 -235 132 -58 32 -156 86 -217 120 -62 34 -130 67 -150 72 -121 32
-192 39 -318 34 -216 -9 -318 -46 -665 -243 -314 -178 -409 -233 -545 -314
-83 -49 -155 -89 -160 -89 -6 0 -9 135 -7 357 4 389 -3 497 -44 648 -70 254
-202 403 -499 560 -49 26 -103 55 -120 65 -29 17 -69 39 -210 115 -38 21 -135
75 -215 120 -364 207 -400 219 -625 220 -229 0 -309 -21 -527 -142 -148 -82
-330 -184 -483 -273 -246 -143 -402 -230 -409 -230 -3 0 -6 163 -6 361 0 342
-5 431 -32 534 -41 161 -127 321 -225 420 -71 72 -161 134 -283 195 -71 36
-470 256 -685 377 -122 70 -246 124 -312 138 -64 14 -328 19 -378 8z m-2713
-10905 c2 -73 5 -735 6 -1470 3 -1382 3 -1362 -33 -1330 -6 5 -53 24 -105 42
-52 19 -97 36 -100 39 -3 3 -18 11 -35 18 -137 52 -253 100 -265 108 -8 5 -17
10 -20 10 -8 1 -198 99 -250 129 -25 14 -58 33 -75 42 -85 48 -288 185 -345
233 -66 56 -169 157 -228 224 -18 21 -37 35 -43 32 -6 -4 1 -17 16 -31 14 -13
21 -24 15 -24 -12 0 -46 37 -43 48 0 4 -4 11 -10 15 -8 6 -5 7 6 3 24 -7 21 7
-8 55 -80 125 -117 320 -81 428 9 27 16 59 16 70 0 12 5 21 10 21 6 0 10 6 10
14 0 8 28 57 62 108 57 85 166 205 261 286 21 18 36 36 33 41 -3 5 0 8 7 7 6
0 12 2 12 5 0 3 6 13 13 21 7 9 10 24 6 34 -5 16 -4 17 6 4 9 -11 13 -12 17
-2 2 6 10 12 16 12 6 0 -2 -13 -18 -30 -31 -32 -22 -42 11 -12 10 9 59 44 107
77 49 33 84 61 78 63 -6 2 -8 8 -5 13 3 6 11 5 20 -2 8 -6 15 -9 15 -5 1 3 2
10 3 15 0 4 10 20 21 34 18 25 21 25 42 11 21 -13 24 -13 29 1 3 8 15 15 25
15 10 0 19 5 19 10 0 6 9 10 20 10 11 0 20 5 20 10 0 6 9 10 20 10 13 0 20 7
20 20 0 11 -5 20 -11 20 -5 0 -8 4 -4 9 3 5 -2 17 -11 26 -9 9 -13 19 -9 23 4
4 10 1 12 -5 3 -7 9 -13 15 -13 6 0 6 6 -2 15 -7 8 -10 20 -7 27 3 8 -5 14
-20 14 -20 2 -22 0 -12 -13 10 -12 10 -16 -1 -23 -12 -7 -11 -13 5 -31 l20
-22 -22 12 c-34 17 -41 13 -13 -9 14 -11 32 -20 40 -20 13 0 13 -1 0 -10 -11
-7 -19 -5 -27 7 -7 9 -16 13 -20 10 -4 -4 -1 -13 5 -19 16 -16 15 -28 -3 -28
-8 0 -15 7 -15 15 0 8 -4 15 -10 15 -14 0 -13 -13 2 -28 9 -9 9 -12 0 -13 -7
-1 -18 -2 -24 -3 -7 -1 -18 2 -25 7 -7 5 -16 6 -22 3 -5 -3 -7 4 -5 16 2 13 2
18 -2 11 -4 -8 -13 -3 -29 15 -19 21 -24 23 -25 10 0 -9 6 -18 13 -21 6 -2 8
-8 4 -13 -5 -5 -17 1 -27 14 -13 15 -20 18 -23 10 -3 -8 -6 -6 -6 5 -1 9 -6
17 -12 17 -5 0 -7 5 -3 12 6 9 9 9 12 -1 4 -11 6 -11 13 0 7 11 9 11 9 1 0 -7
4 -10 10 -7 6 4 5 11 -3 19 -6 8 -15 12 -19 9 -10 -5 -10 0 -2 22 5 13 9 14
15 4 4 -8 11 -10 15 -6 10 10 -16 38 -29 30 -6 -3 -7 -1 -3 5 5 9 14 7 32 -4
27 -18 30 -30 12 -38 -10 -3 -8 -9 4 -19 10 -8 15 -17 11 -20 -3 -4 -1 -7 5
-7 7 0 12 -8 13 -17 0 -11 2 -13 6 -5 3 7 -3 24 -12 38 -9 14 -14 29 -10 32 3
4 10 0 15 -8 6 -8 10 -12 10 -8 0 3 3 14 7 24 3 9 2 15 -3 12 -5 -3 -18 4 -29
15 l-20 20 22 -12 c18 -9 23 -8 28 9 7 21 25 28 25 10 0 -5 -4 -10 -10 -10
-18 0 -10 -20 20 -50 27 -27 39 -50 25 -50 -3 0 -16 12 -29 27 -22 25 -23 26
-28 5 -4 -13 -2 -19 6 -16 7 3 18 -7 26 -21 15 -28 30 -33 30 -9 0 8 4 13 9
10 5 -3 9 5 9 19 0 14 -3 23 -7 21 -11 -6 -52 52 -41 59 5 3 10 1 10 -4 0 -6
5 -11 10 -11 17 0 11 22 -12 49 -19 22 -18 21 9 -3 27 -24 30 -32 22 -49 -7
-12 -7 -17 -1 -13 6 3 12 0 15 -6 2 -7 8 -10 12 -6 4 4 2 14 -5 23 -10 12 -10
15 1 15 9 0 10 3 4 8 -5 4 -16 18 -23 32 -12 21 -9 20 18 -7 43 -45 72 -46 30
-1 -11 12 -17 24 -14 27 4 3 9 0 11 -6 6 -18 23 -16 23 2 0 8 -5 15 -12 15 -6
0 -8 3 -5 7 4 3 27 -16 52 -42 24 -27 48 -45 52 -41 4 4 -6 18 -22 31 -15 14
-25 28 -20 33 4 4 10 1 12 -5 3 -7 9 -13 14 -13 15 0 10 22 -8 36 -17 13 -17
14 0 8 10 -4 22 -15 28 -25 12 -24 29 -25 29 -2 0 14 2 15 13 4 10 -11 10 -14
0 -18 -7 -3 -13 -11 -13 -18 0 -7 -6 -15 -12 -18 -7 -2 -10 -8 -6 -12 4 -4 14
-3 22 4 11 9 15 7 19 -9 3 -11 11 -20 17 -20 7 0 9 7 6 15 -3 8 -9 22 -13 32
-5 12 1 10 25 -7 24 -18 29 -27 21 -37 -16 -18 -11 -17 59 17 34 17 67 30 72
30 17 0 11 18 -7 24 -10 2 -1 2 20 -1 24 -3 37 -1 37 6 0 6 9 11 19 11 11 0
21 5 23 10 2 6 13 12 26 13 12 0 22 5 22 9 0 4 7 8 16 8 8 0 12 5 9 10 -4 6
-11 7 -17 4 -6 -4 -8 1 -4 13 5 15 0 23 -20 31 -14 7 -29 10 -34 7 -5 -3 -12
0 -16 6 -4 8 -3 9 4 5 15 -9 15 -1 2 25 -7 13 -7 19 0 19 5 0 10 -4 10 -10 0
-5 4 -10 10 -10 5 0 9 11 8 25 -2 16 -7 24 -15 21 -7 -3 -10 1 -6 10 6 16 19
18 28 4 3 -5 15 -15 26 -21 20 -10 20 -10 4 15 -10 14 -21 26 -26 26 -5 0 -9
7 -9 15 0 8 16 -2 39 -25 22 -22 43 -40 48 -40 4 0 1 6 -8 13 -22 17 -43 57
-29 57 5 0 10 -3 10 -8 0 -4 10 -13 23 -21 l22 -14 -22 25 c-27 28 -30 43 -7
34 9 -3 12 -2 9 5 -4 6 -13 8 -20 5 -8 -3 -19 3 -27 12 -11 15 -11 16 4 4 13
-10 17 -10 21 0 4 10 7 11 18 1 22 -22 32 -14 16 11 -15 22 -15 24 2 19 11 -3
21 2 24 11 4 11 1 13 -10 9 -10 -4 -14 -2 -10 4 4 6 0 14 -9 17 -9 4 -14 9
-11 13 4 3 14 0 22 -7 13 -11 18 -11 28 0 9 10 9 11 -2 5 -10 -6 -12 -2 -6 14
3 11 8 33 11 47 6 34 22 48 59 52 17 2 39 12 50 23 11 10 23 19 27 19 4 0 8
-60 10 -132z m-152 52 c0 -5 -2 -10 -4 -10 -3 0 -8 5 -11 10 -3 6 -1 10 4 10
6 0 11 -4 11 -10z m-70 -20 c0 -5 -10 -10 -22 -9 -22 0 -22 1 -3 9 11 5 21 9
23 9 1 1 2 -3 2 -9z m34 -2 c-5 -7 0 -9 14 -6 15 4 19 2 15 -8 -3 -8 -9 -14
-13 -14 -12 0 -30 26 -23 33 10 11 15 8 7 -5z m-59 -86 c-3 -3 -11 0 -18 7 -9
10 -8 11 6 5 10 -3 15 -9 12 -12z m0 -80 c-3 -3 -11 0 -18 7 -9 10 -8 11 6 5
10 -3 15 -9 12 -12z m-55 -22 c0 -5 -2 -10 -4 -10 -3 0 -8 5 -11 10 -3 6 -1
10 4 10 6 0 11 -4 11 -10z m-20 -20 c0 -5 -2 -10 -4 -10 -3 0 -8 5 -11 10 -3
6 -1 10 4 10 6 0 11 -4 11 -10z m-10 -72 c0 -6 -6 -5 -15 2 -8 7 -15 14 -15
16 0 2 7 1 15 -2 8 -4 15 -11 15 -16z m66 -73 c-3 -8 0 -15 7 -15 14 -1 -50
-30 -65 -30 -5 0 -6 5 -3 10 4 6 10 8 14 5 5 -2 17 7 27 20 21 28 29 32 20 10z
m-336 -25 c0 -5 -2 -10 -4 -10 -3 0 -8 5 -11 10 -3 6 -1 10 4 10 6 0 11 -4 11
-10z m260 -12 c0 -6 -6 -5 -15 2 -8 7 -15 14 -15 16 0 2 7 1 15 -2 8 -4 15
-11 15 -16z m-345 -16 c-3 -3 -11 0 -18 7 -9 10 -8 11 6 5 10 -3 15 -9 12 -12z
m140 -13 c14 -21 -1 -17 -25 8 -23 24 -23 25 -3 15 12 -7 25 -17 28 -23z m108
4 c-19 -7 -16 -33 5 -33 14 0 14 -2 3 -9 -15 -10 -43 8 -34 22 2 4 -2 7 -9 7
-9 0 -9 3 2 10 8 5 22 9 30 9 10 0 11 -2 3 -6z m80 0 c-7 -2 -19 -2 -25 0 -7
3 -2 5 12 5 14 0 19 -2 13 -5z m-114 -41 c8 -8 10 -17 5 -22 -5 -5 -19 7 -33
28 -24 37 -16 35 28 -6z m-38 -9 c13 -15 12 -15 -8 -4 -24 12 -29 21 -14 21 5
0 15 -7 22 -17z m-456 -33 c3 -5 1 -10 -4 -10 -6 0 -11 5 -11 10 0 6 2 10 4
10 3 0 8 -4 11 -10z m-19 -38 c-6 -5 -36 23 -36 34 0 4 9 -1 20 -11 11 -10 18
-20 16 -23z m-96 -2 c0 -5 -2 -10 -4 -10 -3 0 -8 5 -11 10 -3 6 -1 10 4 10 6
0 11 -4 11 -10z m50 -9 c-6 -11 -2 -25 11 -41 21 -28 24 -40 9 -40 -5 0 -10 7
-10 15 0 8 -4 15 -10 15 -18 0 -11 -15 22 -42 18 -15 27 -28 21 -28 -7 0 -13
5 -13 10 0 6 -7 10 -15 10 -9 0 -12 -6 -9 -17 5 -16 4 -16 -8 -3 -8 8 -20 21
-28 29 -13 11 -12 12 8 2 30 -16 28 -4 -5 33 -16 17 -21 25 -13 19 8 -7 18
-13 22 -13 14 0 8 22 -9 36 -17 13 -17 14 1 7 15 -5 18 -3 14 9 -4 8 -1 15 7
15 10 0 11 -5 5 -16z m50 -35 c16 -22 28 -30 32 -23 6 9 8 8 8 -1 0 -22 27
-42 46 -35 16 6 17 5 4 -9 -17 -17 -50 -12 -50 8 0 8 -4 14 -10 14 -12 0 -70
59 -70 71 0 18 16 8 40 -25z m-100 -36 c0 -5 -2 -10 -4 -10 -3 0 -8 5 -11 10
-3 6 -1 10 4 10 6 0 11 -4 11 -10z m-28 -44 c9 -18 8 -19 -3 -6 -8 8 -21 20
-29 27 -13 11 -13 12 3 7 10 -4 22 -16 29 -28z m158 4 c6 -11 8 -20 6 -20 -3
0 -10 9 -16 20 -6 11 -8 20 -6 20 3 0 10 -9 16 -20z m120 0 c0 -5 -7 -7 -15
-4 -8 4 -12 10 -9 15 6 11 24 2 24 -11z m-90 -29 c0 -5 -7 -12 -16 -15 -14 -5
-15 -4 -4 9 14 17 20 19 20 6z m-205 -39 c-3 -3 -11 0 -18 7 -9 10 -8 11 6 5
10 -3 15 -9 12 -12z m-65 -12 c6 -11 9 -20 8 -20 -2 0 -11 9 -21 20 -9 11 -13
20 -7 20 5 0 14 -9 20 -20z m-29 -17 c13 -16 12 -17 -3 -4 -10 7 -18 15 -18
17 0 8 8 3 21 -13z m116 -55 c-3 -8 -6 -5 -6 6 -1 11 2 17 5 13 3 -3 4 -12 1
-19z m51 8 c-7 -8 -17 -12 -22 -9 -4 3 -2 9 5 14 22 13 31 11 17 -5z m-168
-120 c0 -3 -4 -8 -10 -11 -5 -3 -10 -1 -10 4 0 6 5 11 10 11 6 0 10 -2 10 -4z
m-21 -29 c-2 -1 -13 -9 -24 -17 -19 -14 -19 -14 -6 3 7 9 18 17 24 17 6 0 8
-1 6 -3z m-99 -81 c0 -2 -7 -7 -16 -10 -8 -3 -12 -2 -9 4 6 10 25 14 25 6z
m-45 -26 c-3 -5 -12 -10 -18 -10 -7 0 -6 4 3 10 19 12 23 12 15 0z m-65 -64
c0 -2 -8 -10 -17 -17 -16 -13 -17 -12 -4 4 13 16 21 21 21 13z m-14 -52 c-9
-9 -20 -14 -23 -10 -4 3 2 13 13 20 25 18 31 12 10 -10z m-68 -99 c-3 -3 -9 2
-12 12 -6 14 -5 15 5 6 7 -7 10 -15 7 -18z m-38 -75 c0 -5 -5 -10 -11 -10 -5
0 -7 5 -4 10 3 6 8 10 11 10 2 0 4 -4 4 -10z m-33 -82 c-3 -7 -5 -2 -5 12 0
14 2 19 5 13 2 -7 2 -19 0 -25z m-17 -34 c0 -8 -4 -12 -10 -9 -5 3 -10 10 -10
16 0 5 5 9 10 9 6 0 10 -7 10 -16z m-28 -58 c13 -9 14 -16 6 -24 -7 -7 -8 -15
-1 -24 16 -21 14 -58 -3 -51 -8 3 -14 1 -14 -5 0 -5 7 -12 15 -16 8 -3 15 -13
15 -23 -1 -14 -6 -12 -25 12 -13 16 -21 32 -17 35 16 11 11 57 -8 78 -14 14
-16 22 -7 25 18 8 21 7 39 -7z m-3 -169 c0 -9 -2 -8 -6 1 -2 6 -10 9 -15 6 -7
-4 -8 -2 -4 5 9 13 26 5 25 -12z m48 -57 c-1 -11 -5 -20 -9 -20 -10 0 -10 4
-2 24 8 22 13 20 11 -4z m33 -90 c0 -5 -2 -10 -4 -10 -3 0 -8 5 -11 10 -3 6
-1 10 4 10 6 0 11 -4 11 -10z m50 -80 c0 -5 -4 -10 -10 -10 -5 0 -10 5 -10 10
0 6 5 10 10 10 6 0 10 -4 10 -10z m-85 -88 c-3 -3 -11 0 -18 7 -9 10 -8 11 6
5 10 -3 15 -9 12 -12z m5 -44 c0 -12 -6 -9 -26 13 -19 22 -19 22 4 8 12 -8 22
-17 22 -21z m78 19 c4 7 21 -3 42 -25 29 -29 31 -33 10 -22 -14 7 -30 20 -37
29 -7 9 -13 12 -13 8 0 -5 23 -30 50 -57 52 -51 57 -53 39 -17 -11 21 -10 21
11 -2 18 -18 20 -25 9 -32 -11 -6 -10 -9 4 -15 9 -3 17 -11 17 -17 0 -6 -10
-1 -23 11 -47 45 -45 20 3 -29 27 -28 43 -48 35 -45 -8 3 -22 9 -32 13 -12 5
-14 3 -8 -8 13 -20 -60 42 -75 65 -10 16 -10 18 5 13 10 -4 14 -3 10 4 -4 6
-13 8 -20 5 -8 -3 -16 3 -19 12 -3 9 -20 32 -37 50 -17 18 -28 36 -24 40 3 4
19 -9 36 -27 16 -19 29 -29 29 -23 0 6 -6 17 -12 24 -7 8 -19 25 -27 38 -13
23 -13 24 3 11 12 -10 20 -11 24 -4z m67 3 c3 -5 1 -10 -4 -10 -6 0 -11 5 -11
10 0 6 2 10 4 10 3 0 8 -4 11 -10z m50 -40 c8 0 16 -4 19 -9 8 -12 -27 -8 -36
4 -4 6 -7 15 -7 20 0 6 3 4 6 -2 2 -7 11 -13 18 -13z m-211 -46 c5 -14 4 -15
-9 -4 -17 14 -19 20 -6 20 5 0 12 -7 15 -16z m76 -16 c0 -12 -14 -10 -28 4
-19 19 -14 29 8 16 11 -7 20 -16 20 -20z m-20 -22 c0 -3 -4 -8 -10 -11 -5 -3
-10 -1 -10 4 0 6 5 11 10 11 6 0 10 -2 10 -4z m60 -40 c0 -5 -8 -1 -19 10 -10
10 -16 23 -14 27 5 9 32 -22 33 -37z m188 32 c7 -7 12 -16 12 -21 0 -12 -20
-5 -21 8 0 6 -6 13 -12 17 -8 5 -8 8 -1 8 5 0 15 -5 22 -12z m-274 -24 c3 -8
2 -12 -4 -9 -6 3 -10 10 -10 16 0 14 7 11 14 -7z m51 -14 c10 -11 16 -20 13
-20 -3 0 -13 9 -23 20 -10 11 -16 20 -13 20 3 0 13 -9 23 -20z m263 -99 l20
-27 -23 1 c-13 0 -27 4 -31 8 -5 4 0 5 11 1 18 -7 19 -6 5 12 -8 10 -31 36
-52 57 -21 21 -38 41 -38 43 0 9 89 -69 108 -95z m-208 79 c0 -5 -2 -10 -4
-10 -3 0 -8 5 -11 10 -3 6 -1 10 4 10 6 0 11 -4 11 -10z m266 -15 c9 -8 11
-15 5 -15 -5 0 -13 5 -16 10 -4 6 -11 7 -17 4 -7 -4 -8 -2 -4 4 9 16 14 15 32
-3z m-311 -13 c-3 -3 -11 0 -18 7 -9 10 -8 11 6 5 10 -3 15 -9 12 -12z m148
-26 c4 -10 1 -13 -9 -9 -15 6 -19 23 -5 23 5 0 11 -7 14 -14z m37 4 c0 -5 -2
-10 -4 -10 -3 0 -8 5 -11 10 -3 6 -1 10 4 10 6 0 11 -4 11 -10z m179 -35 c0
-5 -6 -1 -14 9 -8 11 -15 24 -15 30 0 5 7 1 15 -10 8 -10 14 -23 14 -29z
m-239 5 c0 -5 -2 -10 -4 -10 -3 0 -8 5 -11 10 -3 6 -1 10 4 10 6 0 11 -4 11
-10z m80 0 c0 -5 -5 -10 -11 -10 -5 0 -7 -5 -3 -12 4 -7 3 -8 -4 -4 -6 4 -9
13 -5 21 6 17 23 20 23 5z m-45 -28 c-3 -3 -11 0 -18 7 -9 10 -8 11 6 5 10 -3
15 -9 12 -12z m276 1 c13 -15 12 -15 -8 -4 -24 12 -29 21 -14 21 5 0 15 -7 22
-17z m-206 -33 c10 -11 16 -20 13 -20 -3 0 -13 9 -23 20 -10 11 -16 20 -13 20
3 0 13 -9 23 -20z m35 10 c0 -5 -2 -10 -4 -10 -3 0 -8 5 -11 10 -3 6 -1 10 4
10 6 0 11 -4 11 -10z m52 -16 c16 -20 23 -23 29 -12 7 11 11 10 18 -2 5 -8 8
-17 5 -21 -2 -4 15 -27 38 -51 56 -58 82 -91 44 -58 -40 35 -86 81 -86 85 0 3
-19 22 -42 44 -24 22 -39 41 -34 41 4 0 17 -12 28 -26z m158 6 c0 -5 -2 -10
-4 -10 -3 0 -8 5 -11 10 -3 6 -1 10 4 10 6 0 11 -4 11 -10z m-270 -20 c0 -5
-2 -10 -4 -10 -3 0 -8 5 -11 10 -3 6 -1 10 4 10 6 0 11 -4 11 -10z m80 1 c0
-5 -7 -11 -14 -14 -10 -4 -13 -1 -9 9 6 15 23 19 23 5z m-125 -29 c-3 -3 -11
0 -18 7 -9 10 -8 11 6 5 10 -3 15 -9 12 -12z m160 0 c-3 -3 -11 0 -18 7 -9 10
-8 11 6 5 10 -3 15 -9 12 -12z m224 9 c10 -7 7 -9 -12 -8 -14 1 -23 5 -20 10
6 9 15 9 32 -2z m-364 -31 c3 -5 1 -10 -4 -10 -6 0 -11 5 -11 10 0 6 2 10 4
10 3 0 8 -4 11 -10z m50 -10 c10 -11 16 -20 13 -20 -3 0 -13 9 -23 20 -10 11
-16 20 -13 20 3 0 13 -9 23 -20z m76 3 c13 -16 12 -17 -3 -4 -10 7 -18 15 -18
17 0 8 8 3 21 -13z m139 -25 c0 -17 -15 -7 -27 18 -12 26 -12 26 7 9 11 -10
20 -22 20 -27z m28 22 c7 -11 9 -20 4 -20 -4 0 -13 9 -20 20 -7 11 -9 20 -4
20 4 0 13 -9 20 -20z m117 0 c-3 -5 1 -11 7 -13 10 -4 10 -6 1 -6 -7 -1 -17 8
-23 19 -9 16 -8 18 5 14 8 -3 13 -10 10 -14z m-305 -20 c0 -5 -2 -10 -4 -10
-3 0 -8 5 -11 10 -3 6 -1 10 4 10 6 0 11 -4 11 -10z m390 -22 c0 -5 7 -8 15
-8 8 0 15 -4 15 -10 0 -5 9 -10 20 -10 26 0 26 -15 -1 -17 -11 -1 -23 5 -26
13 -3 8 -11 14 -17 14 -7 0 -23 11 -36 25 l-23 25 26 -13 c15 -6 27 -15 27
-19z m-418 -22 c9 -18 8 -19 -3 -6 -8 8 -21 20 -29 27 -13 11 -13 12 3 7 10
-4 22 -16 29 -28z m143 16 c-3 -3 -11 0 -18 7 -9 10 -8 11 6 5 10 -3 15 -9 12
-12z m111 -29 c23 -26 46 -44 50 -40 4 4 -3 16 -16 27 -13 11 -20 23 -16 28 4
4 18 -6 31 -23 26 -32 17 -50 -19 -39 -20 7 -16 -5 12 -38 27 -32 7 -19 -29
18 -23 24 -28 33 -15 28 18 -7 18 -4 -4 27 -13 19 -31 39 -40 46 -8 7 -11 13
-6 13 4 0 28 -21 52 -47z m-421 26 c11 -16 1 -19 -13 -3 -7 8 -8 14 -3 14 5 0
13 -5 16 -11z m216 -26 c13 -16 12 -17 -3 -4 -17 13 -22 21 -14 21 2 0 10 -8
17 -17z m84 -3 c10 -11 16 -20 13 -20 -3 0 -13 9 -23 20 -10 11 -16 20 -13 20
3 0 13 -9 23 -20z m35 10 c0 -5 -2 -10 -4 -10 -3 0 -8 5 -11 10 -3 6 -1 10 4
10 6 0 11 -4 11 -10z m160 0 c0 -5 -2 -10 -4 -10 -3 0 -8 5 -11 10 -3 6 -1 10
4 10 6 0 11 -4 11 -10z m-450 -15 c0 -8 -4 -15 -10 -15 -5 0 -7 7 -4 15 4 8 8
15 10 15 2 0 4 -7 4 -15z m70 -15 c0 -5 -2 -10 -4 -10 -3 0 -8 5 -11 10 -3 6
-1 10 4 10 6 0 11 -4 11 -10z m160 0 c0 -5 -2 -10 -4 -10 -3 0 -8 5 -11 10 -3
6 -1 10 4 10 6 0 11 -4 11 -10z m80 0 c0 -5 -2 -10 -4 -10 -3 0 -8 5 -11 10
-3 6 -1 10 4 10 6 0 11 -4 11 -10z m160 0 c0 -5 -2 -10 -4 -10 -3 0 -8 5 -11
10 -3 6 -1 10 4 10 6 0 11 -4 11 -10z m80 6 c0 -2 -8 -10 -17 -17 -16 -13 -17
-12 -4 4 13 16 21 21 21 13z m123 -19 c38 -18 47 -27 24 -27 -7 0 -29 12 -48
26 -19 15 -29 24 -24 22 6 -2 27 -12 48 -21z m-488 -15 c-3 -3 -11 0 -18 7 -9
10 -8 11 6 5 10 -3 15 -9 12 -12z m336 -14 c16 -18 29 -37 29 -43 0 -5 -7 -1
-15 9 -8 11 -18 17 -22 13 -3 -4 1 -15 10 -25 16 -18 16 -19 -10 -17 -16 2
-37 6 -47 10 -15 6 -17 5 -11 -5 5 -8 4 -11 -3 -6 -12 7 -5 36 8 36 4 0 13 -7
20 -15 23 -28 32 -15 10 15 -12 17 -17 30 -11 30 6 0 11 -4 11 -10 0 -5 5 -10
10 -10 16 0 12 22 -7 36 -10 7 -14 14 -10 14 4 0 21 -15 38 -32z m-190 -15
c13 -16 12 -17 -3 -4 -10 7 -18 15 -18 17 0 8 8 3 21 -13z m438 -9 c2 -2 -8
-4 -22 -4 -18 0 -27 5 -27 15 0 13 4 14 23 4 12 -6 24 -13 26 -15z m-599 -26
c0 -6 -6 -5 -15 2 -8 7 -15 14 -15 16 0 2 7 1 15 -2 8 -4 15 -11 15 -16z m30
-49 c0 -5 -4 -9 -10 -9 -5 0 -10 7 -10 16 0 8 5 12 10 9 6 -3 10 -10 10 -16z
m230 -11 c0 -12 -6 -9 -26 13 -19 22 -19 22 4 8 12 -8 22 -17 22 -21z m28 11
c19 -30 8 -34 -12 -4 -9 14 -13 25 -9 25 5 0 14 -9 21 -21z m37 1 c10 -11 16
-20 13 -20 -3 0 -13 9 -23 20 -10 11 -16 20 -13 20 3 0 13 -9 23 -20z m80 0
c10 -11 16 -20 13 -20 -3 0 -13 9 -23 20 -10 11 -16 20 -13 20 3 0 13 -9 23
-20z m160 0 c10 -11 14 -20 9 -20 -5 0 -15 9 -22 20 -7 11 -11 20 -9 20 2 0
12 -9 22 -20z m-498 -16 c-3 -3 -12 -4 -19 -1 -8 3 -5 6 6 6 11 1 17 -2 13 -5z
m393 -4 c0 -5 -2 -10 -4 -10 -3 0 -8 5 -11 10 -3 6 -1 10 4 10 6 0 11 -4 11
-10z m226 -2 c3 -4 -1 -5 -10 -4 -8 1 -18 5 -22 8 -3 4 1 5 10 4 8 -1 18 -5
22 -8z m-400 -20 c4 -7 4 -10 -1 -6 -4 4 -15 2 -24 -5 -14 -11 -14 -10 -2 6
16 20 18 21 27 5z m49 -6 c-3 -3 -11 0 -18 7 -9 10 -8 11 6 5 10 -3 15 -9 12
-12z m160 0 c-3 -3 -11 0 -18 7 -9 10 -8 11 6 5 10 -3 15 -9 12 -12z m-380 -2
c3 -5 1 -10 -4 -10 -6 0 -11 5 -11 10 0 6 2 10 4 10 3 0 8 -4 11 -10z m50 -28
c-3 -3 -11 0 -18 7 -9 10 -8 11 6 5 10 -3 15 -9 12 -12z m195 8 c0 -5 -2 -10
-4 -10 -3 0 -8 5 -11 10 -3 6 -1 10 4 10 6 0 11 -4 11 -10z m45 -10 c10 -11
16 -20 13 -20 -3 0 -13 9 -23 20 -10 11 -16 20 -13 20 3 0 13 -9 23 -20z m83
0 c7 -11 11 -20 9 -20 -2 0 -12 9 -22 20 -10 11 -14 20 -9 20 5 0 15 -9 22
-20z m-288 -14 c0 -11 -19 -15 -25 -6 -3 5 1 10 9 10 9 0 16 -2 16 -4z m260
-6 c0 -5 -2 -10 -4 -10 -3 0 -8 5 -11 10 -3 6 -1 10 4 10 6 0 11 -4 11 -10z
m-45 -28 c-3 -3 -11 0 -18 7 -9 10 -8 11 6 5 10 -3 15 -9 12 -12z m248 -87
c32 -31 57 -59 54 -61 -10 -10 -36 10 -47 36 -7 16 -19 31 -27 34 -11 4 -9 -3
7 -29 12 -19 19 -35 16 -35 -2 0 -30 25 -61 55 -32 30 -59 55 -61 55 -2 0 -4
-7 -4 -15 0 -8 -5 -15 -11 -15 -5 0 -7 -5 -3 -12 4 -6 3 -8 -4 -5 -5 4 -8 17
-4 29 3 14 1 19 -6 14 -8 -5 -10 -1 -5 10 4 11 8 13 11 6 6 -18 22 -14 22 6 1
12 10 6 35 -23 18 -22 37 -36 41 -32 4 4 2 7 -4 7 -7 0 -12 6 -12 13 0 7 -9
23 -19 34 -11 12 -17 24 -14 27 4 3 14 -5 22 -18 9 -13 42 -49 74 -81z m-313
80 c7 -8 9 -15 6 -15 -4 0 -14 7 -22 15 -9 8 -11 15 -6 15 5 0 15 -7 22 -15z
m-65 -4 c-9 -8 -36 -10 -30 -2 2 4 11 8 20 8 8 0 13 -3 10 -6z m210 -1 c3 -5
1 -10 -4 -10 -6 0 -11 5 -11 10 0 6 2 10 4 10 3 0 8 -4 11 -10z m-162 -20 c19
-23 21 -30 8 -30 -5 0 -13 9 -16 20 -4 11 -11 18 -16 15 -5 -4 -9 -1 -9 4 0
17 14 13 33 -9z m127 10 c0 -5 -2 -10 -4 -10 -3 0 -8 5 -11 10 -3 6 -1 10 4
10 6 0 11 -4 11 -10z m-80 -30 c0 -5 -2 -10 -4 -10 -3 0 -8 5 -11 10 -3 6 -1
10 4 10 6 0 11 -4 11 -10z m215 -41 c14 -22 -3 -18 -26 7 -23 25 -23 26 -2 15
12 -6 25 -16 28 -22z m-85 6 c7 -8 9 -15 6 -15 -4 0 -14 7 -22 15 -9 8 -11 15
-6 15 5 0 15 -7 22 -15z m-22 -23 c12 -12 18 -22 14 -22 -5 0 -17 9 -27 20
-10 12 -25 18 -32 16 -7 -3 -15 -1 -18 4 -11 17 43 2 63 -18z m78 3 c9 -8 11
-15 6 -15 -5 0 -15 7 -22 15 -7 8 -9 15 -6 15 4 0 14 -7 22 -15z m-10 -36 c19
-22 19 -22 -3 -10 -24 12 -39 31 -25 31 5 0 17 -10 28 -21z m64 13 c0 -13 48
-33 52 -22 2 6 16 -1 32 -15 29 -24 29 -26 10 -40 -23 -17 -34 -19 -34 -4 0 6
-7 9 -15 5 -8 -3 -15 -1 -15 4 0 6 -7 10 -15 10 -8 0 -15 5 -15 10 0 14 13 13
28 -2 6 -6 14 -9 17 -6 6 6 1 11 -45 48 -14 10 -19 19 -12 20 6 0 12 -4 12 -8z
m-13 -38 c-3 -3 -12 -4 -19 -1 -8 3 -5 6 6 6 11 1 17 -2 13 -5z m173 -77 c0
-7 -50 1 -60 10 -2 2 2 8 9 13 14 8 51 -8 51 -23z"/>
<path d="M3380 8328 c0 -2 9 -11 20 -21 11 -9 20 -13 20 -7 0 5 -9 14 -20 20
-11 6 -20 9 -20 8z"/>
<path d="M3236 8065 c4 -8 13 -15 21 -15 13 0 13 3 3 15 -7 8 -16 15 -21 15
-5 0 -6 -7 -3 -15z"/>
<path d="M3230 8035 c0 -2 19 -23 41 -45 38 -38 69 -47 69 -20 0 6 -4 8 -10 5
-12 -7 -50 12 -50 25 0 5 7 7 16 3 14 -5 13 -3 -2 15 -21 26 -28 28 -21 8 4
-10 1 -13 -9 -9 -7 3 -14 9 -14 14 0 5 -4 9 -10 9 -5 0 -10 -2 -10 -5z"/>
<path d="M3428 8003 c7 -3 16 -2 19 1 4 3 -2 6 -13 5 -11 0 -14 -3 -6 -6z"/>
<path d="M3365 7990 c24 -11 51 -13 41 -3 -4 4 -19 8 -34 10 -23 2 -24 1 -7
-7z"/>
<path d="M2790 7874 c0 -4 20 -26 44 -49 34 -32 46 -39 50 -28 9 23 7 30 -4
13 -8 -13 -10 -13 -10 1 0 9 -13 22 -30 29 -16 7 -30 19 -30 26 0 8 -4 14 -10
14 -5 0 -10 -3 -10 -6z"/>
<path d="M2870 7870 c0 -5 5 -10 10 -10 6 0 10 5 10 10 0 6 -4 10 -10 10 -5 0
-10 -4 -10 -10z"/>
<path d="M2810 7819 c0 -10 24 -39 33 -39 3 0 0 11 -6 25 -12 25 -27 33 -27
14z"/>
<path d="M2900 7800 c-6 -11 -8 -20 -5 -20 3 0 1 -6 -6 -12 -13 -14 -71 -20
-63 -7 3 5 -3 9 -12 9 -16 0 -16 -1 -1 -18 10 -10 14 -22 10 -25 -3 -4 1 -7
10 -7 10 0 17 7 17 16 0 8 5 12 11 9 5 -4 18 0 27 8 9 9 29 19 45 22 36 9 42
20 11 23 -15 1 -22 -2 -19 -8 3 -6 1 -10 -4 -10 -14 0 -14 13 1 28 9 9 9 12 0
12 -6 0 -16 -9 -22 -20z"/>
<path d="M2650 7732 c0 -9 25 -33 48 -46 19 -11 14 0 -12 28 -24 27 -36 32
-36 18z"/>
<path d="M2621 7623 c-18 -20 -6 -29 14 -10 8 9 12 18 8 20 -5 3 -14 -2 -22
-10z"/>
<path d="M1836 6785 c4 -8 8 -15 10 -15 2 0 4 7 4 15 0 8 -4 15 -10 15 -5 0
-7 -7 -4 -15z"/>
<path d="M2006 6204 c-4 -9 -4 -19 -1 -22 3 -3 5 0 5 8 0 10 3 10 15 0 21 -17
31 -5 12 15 -20 19 -23 19 -31 -1z"/>
<path d="M2050 6134 c0 -8 5 -12 10 -9 6 3 10 10 10 16 0 5 -4 9 -10 9 -5 0
-10 -7 -10 -16z"/>
<path d="M2070 6111 c0 -6 5 -13 10 -16 6 -3 10 1 10 9 0 9 -4 16 -10 16 -5 0
-10 -4 -10 -9z"/>
<path d="M2964 5334 c3 -9 6 -18 6 -20 0 -2 7 -4 15 -4 19 0 19 7 1 26 -19 19
-30 18 -22 -2z"/>
<path d="M2810 5603 c1 -14 30 -47 36 -41 6 7 -17 48 -28 48 -5 0 -8 -3 -8 -7z"/>
<path d="M2877 5594 c-4 -4 -7 -12 -7 -17 0 -6 3 -7 7 -4 3 4 17 -5 30 -19 29
-32 30 -18 0 19 -12 16 -26 25 -30 21z"/>
<path d="M2930 5580 c0 -5 5 -10 10 -10 6 0 10 5 10 10 0 6 -4 10 -10 10 -5 0
-10 -4 -10 -10z"/>
<path d="M3010 5581 c0 -6 5 -13 10 -16 6 -3 10 1 10 9 0 9 -4 16 -10 16 -5 0
-10 -4 -10 -9z"/>
<path d="M3060 5561 c0 -5 7 -12 16 -15 14 -5 15 -4 4 9 -14 17 -20 19 -20 6z"/>
<path d="M3123 5562 c-8 -5 -9 -13 -3 -22 8 -13 10 -12 10 3 0 22 4 22 36 -8
15 -14 22 -25 15 -25 -6 0 -11 -4 -11 -10 0 -21 19 -8 28 20 10 28 -1 54 -12
28 -3 -9 -8 -8 -16 5 -12 18 -28 21 -47 9z"/>
<path d="M3210 5526 c0 -2 7 -7 16 -10 8 -3 12 -2 9 4 -6 10 -25 14 -25 6z"/>
<path d="M3010 5501 c0 -5 5 -13 10 -16 6 -3 10 -2 10 4 0 5 -4 13 -10 16 -5
3 -10 2 -10 -4z"/>
<path d="M3310 5506 c0 -2 7 -7 16 -10 8 -3 12 -2 9 4 -6 10 -25 14 -25 6z"/>
<path d="M3356 5467 c3 -10 9 -15 12 -12 3 3 0 11 -7 18 -10 9 -11 8 -5 -6z"/>
<path d="M3050 5446 c0 -2 7 -7 16 -10 8 -3 12 -2 9 4 -6 10 -25 14 -25 6z"/>
<path d="M3104 5443 c4 -7 2 -13 -3 -13 -21 0 -11 -20 30 -60 45 -43 54 -47
62 -26 3 8 -16 34 -45 62 -28 27 -48 43 -44 37z m80 -91 c-4 -6 -49 21 -61 37
-29 37 -10 41 25 5 21 -21 37 -40 36 -42z"/>
<path d="M3023 5433 c-15 -5 -17 -23 -4 -23 5 0 11 7 15 15 3 8 4 15 3 14 -1
0 -8 -3 -14 -6z"/>
<path d="M3175 5420 c-3 -5 -1 -10 4 -10 6 0 11 5 11 10 0 6 -2 10 -4 10 -3 0
-8 -4 -11 -10z"/>
<path d="M3065 5397 c10 -15 20 -25 23 -22 3 3 -5 16 -17 28 l-23 22 17 -28z"/>
<path d="M3090 5340 c0 -5 5 -10 11 -10 5 0 7 5 4 10 -3 6 -8 10 -11 10 -2 0
-4 -4 -4 -10z"/>
<path d="M3245 5320 c10 -11 20 -20 23 -20 3 0 -3 9 -13 20 -10 11 -20 20 -23
20 -3 0 3 -9 13 -20z"/>
<path d="M3215 5300 c3 -5 8 -10 11 -10 2 0 4 5 4 10 0 6 -5 10 -11 10 -5 0
-7 -4 -4 -10z"/>
<path d="M3290 5286 c0 -2 7 -7 16 -10 8 -3 12 -2 9 4 -6 10 -25 14 -25 6z"/>
<path d="M3270 5230 c0 -7 -7 -10 -15 -6 -8 3 -15 1 -15 -4 0 -12 20 -13 39
-1 9 6 10 11 2 15 -6 4 -11 2 -11 -4z"/>
<path d="M3150 5210 c0 -5 7 -10 15 -10 8 0 38 -10 67 -23 145 -64 177 -72
186 -48 3 10 0 12 -12 8 -9 -4 -24 -3 -34 2 -37 19 -78 35 -101 38 -14 2 -30
11 -36 20 -7 9 -17 13 -23 9 -6 -3 -13 -2 -17 4 -8 13 -45 13 -45 0z"/>
<path d="M3430 5100 c8 -5 24 -10 35 -10 17 0 17 2 5 10 -8 5 -24 10 -35 10
-17 0 -17 -2 -5 -10z"/>
<path d="M3521 3993 c4 -715 10 -1105 17 -1138 27 -124 32 -144 47 -186 58
-154 137 -286 235 -392 93 -100 156 -142 485 -322 163 -90 253 -139 390 -216
192 -108 313 -167 395 -191 96 -28 292 -35 397 -14 145 30 167 41 767 385 126
72 230 131 231 131 2 0 77 43 167 96 148 88 217 127 318 180 19 11 37 21 40
25 3 3 30 18 60 33 30 16 84 47 120 68 l65 40 45 -23 c25 -13 82 -45 128 -71
46 -27 87 -48 90 -48 4 0 33 -16 65 -35 287 -173 669 -357 693 -333 3 3 6 15
7 25 2 27 24 20 111 -30 l69 -41 102 1 c156 2 291 46 490 161 28 16 68 39 90
52 22 12 69 39 105 60 36 20 90 50 120 66 48 26 208 119 280 163 14 8 53 30
88 49 35 18 101 55 148 82 46 26 97 54 114 62 16 7 30 16 30 20 0 5 4 8 9 8 6
0 53 26 107 58 145 86 174 103 260 151 200 111 326 210 446 348 93 109 200
265 241 352 16 36 39 85 50 109 10 24 22 42 26 40 62 -31 146 -68 153 -68 4 0
17 -4 28 -10 11 -5 28 -14 39 -19 10 -5 40 -12 67 -15 46 -5 47 -5 14 5 -19 6
-46 15 -60 21 -14 5 -26 8 -26 6 -1 -1 -10 4 -20 13 -11 9 -41 25 -69 35 -77
29 -200 156 -251 259 l-39 80 -355 17 c-523 25 -1238 66 -1455 84 -182 14
-433 35 -835 69 -102 9 -199 17 -217 18 l-31 2 -5 -840 c-4 -932 -1 -1018 50
-1115 7 -14 13 -28 13 -33 0 -4 11 -25 25 -47 30 -48 36 -84 15 -86 -40 -3
-41 -4 -18 -26 35 -34 34 -48 -3 -38 -53 16 -112 56 -170 117 -99 104 -161
218 -201 373 -21 83 -22 100 -25 893 l-4 807 25 0 c14 0 28 -4 31 -10 3 -5 16
-15 27 -21 18 -10 20 -9 15 5 -6 14 -3 15 13 6 15 -8 20 -8 20 1 0 7 9 4 21
-7 16 -14 23 -15 26 -7 3 9 10 10 23 3 12 -6 20 -6 22 0 2 5 13 11 25 13 36 5
39 17 5 18 -18 1 -35 2 -39 3 -11 3 -163 19 -188 20 -11 1 -25 4 -31 8 -7 4
-61 12 -120 18 -196 18 -578 64 -749 90 -109 17 -194 28 -270 35 -38 3 -158
19 -265 36 -107 16 -253 38 -325 49 -71 11 -177 29 -235 39 -58 11 -148 27
-200 36 -328 58 -989 200 -1275 274 -137 35 -204 54 -455 128 -82 24 -329 104
-360 117 -13 6 -14 -117 -9 -1081z"/>
<path d="M16604 4835 c-10 -26 5 -460 16 -463 5 -2 10 -10 10 -18 0 -8 4 -14
10 -14 6 0 6 9 2 23 -5 12 -7 33 -6 47 2 14 4 49 5 78 2 35 5 48 11 38 5 -8 6
-29 3 -47 -3 -18 -1 -37 7 -46 9 -12 9 -16 -3 -24 -8 -5 -9 -9 -3 -9 6 0 9
-10 7 -23 -3 -15 2 -31 13 -42 17 -17 17 -17 -6 -11 -21 6 -22 5 -8 -4 10 -6
23 -21 30 -33 10 -20 10 -21 -6 -8 -24 20 -29 8 -8 -20 11 -13 17 -30 14 -37
-5 -15 24 -49 53 -63 18 -9 19 -9 3 4 -24 19 -23 30 2 22 11 -4 20 -2 20 4 0
6 -4 11 -10 11 -5 0 -10 5 -10 10 0 19 19 10 41 -21 l22 -31 -24 7 -24 8 25
-21 c21 -18 23 -23 10 -31 -8 -6 -11 -13 -7 -18 5 -4 12 -1 17 7 7 11 11 11
24 1 23 -19 20 -5 -5 20 -26 26 -16 39 12 14 15 -14 22 -16 28 -7 7 12 10 9
50 -41 20 -26 -4 -21 -30 6 l-21 22 12 -24 c11 -21 10 -23 -4 -18 -11 4 -15 3
-11 -4 4 -5 15 -7 25 -4 12 4 26 -2 39 -16 37 -40 23 -54 -16 -17 -13 12 -23
16 -23 10 0 -7 4 -12 8 -12 5 0 15 -11 22 -25 15 -28 30 -33 30 -9 0 8 5 12
10 9 6 -4 8 -10 6 -14 -3 -3 4 -7 14 -7 16 0 16 3 -6 25 -13 13 -24 30 -24 37
0 8 -5 14 -12 14 -6 0 -8 3 -4 7 4 5 20 -8 36 -27 16 -19 32 -31 36 -27 5 4 4
11 -1 15 -6 4 -17 16 -25 26 -14 18 -13 19 4 13 15 -6 14 -3 -5 17 -26 27 -40
27 -18 -1 12 -15 12 -16 -4 -10 -10 4 -21 7 -23 7 -2 0 -4 5 -4 11 0 12 -60
69 -72 69 -5 0 -8 7 -8 15 0 8 -4 15 -10 15 -5 0 -10 6 -10 14 0 8 -7 17 -16
20 -24 9 -28 7 -14 -9 22 -26 6 -25 -19 1 -15 16 -18 22 -7 18 19 -7 21 6 4
26 -7 8 -1 5 13 -8 14 -12 29 -22 35 -22 5 0 2 4 -6 10 -8 5 -11 12 -8 15 4 4
23 -5 42 -20 35 -27 46 -45 26 -45 -5 0 -10 6 -10 14 0 12 -20 26 -37 26 -8 0
51 -68 80 -91 18 -14 31 -18 35 -12 4 7 22 -5 43 -28 20 -21 31 -40 26 -42
-12 -4 13 -47 27 -47 6 0 5 5 -2 12 -7 7 -12 19 -12 28 0 9 11 2 30 -20 16
-19 30 -29 30 -21 0 15 -57 71 -72 71 -4 0 -8 5 -8 11 0 12 -60 69 -72 69 -5
0 -8 5 -8 10 0 6 -11 22 -24 37 -13 14 -22 33 -19 42 2 10 -8 29 -23 44 -19
20 -22 26 -9 21 20 -8 16 3 -14 41 -9 11 -2 7 16 -8 22 -21 32 -25 36 -15 2 7
8 9 13 4 5 -5 4 -11 -4 -13 -9 -4 -5 -12 13 -29 14 -13 28 -24 31 -24 11 0 2
24 -13 36 -10 7 -14 14 -9 14 4 0 23 -17 42 -37 19 -20 37 -33 41 -29 4 4 1
11 -7 16 -8 5 -11 12 -7 16 4 4 15 -3 26 -14 19 -23 31 -28 31 -14 0 19 -42
53 -60 47 -10 -3 -21 -1 -25 4 -4 7 1 8 12 4 16 -6 16 -5 4 10 -29 36 10 15
54 -29 46 -47 78 -55 35 -9 -13 14 -19 25 -14 25 6 0 20 -11 31 -24 22 -24 25
-56 9 -68 -6 -4 -4 -13 4 -22 21 -26 2 -32 -20 -6 -11 13 -20 18 -20 11 0 -12
85 -99 155 -159 l40 -35 -40 40 c-22 21 -53 56 -69 77 -24 31 -25 36 -8 27 11
-6 29 -22 40 -36 12 -14 26 -23 34 -20 8 3 21 -1 28 -10 16 -19 25 -19 45 1 9
9 19 13 23 9 4 -4 1 -10 -6 -12 -8 -3 -4 -12 13 -25 14 -11 29 -17 32 -14 4 3
-2 13 -13 21 -10 8 -15 15 -10 15 4 0 26 -19 47 -41 22 -23 39 -36 39 -30 0 7
-9 21 -20 33 -11 12 -18 24 -15 26 3 3 30 -20 60 -51 31 -31 61 -57 67 -57 6
0 5 7 -3 17 -12 15 -12 16 2 11 9 -4 22 -1 28 5 8 8 17 4 34 -18 12 -16 39
-46 60 -67 20 -20 37 -42 37 -49 0 -6 -28 17 -62 50 -33 34 -63 59 -66 56 -3
-3 9 -18 26 -34 18 -18 26 -32 19 -34 -7 -2 -8 -8 -4 -13 4 -5 11 -3 15 3 5 7
19 -3 41 -29 30 -35 31 -39 10 -28 -13 7 -29 20 -36 29 -7 9 -13 11 -13 6 0
-6 6 -17 13 -24 10 -12 9 -13 -7 -7 -20 7 -20 7 -1 -14 16 -18 17 -23 5 -30
-12 -7 -12 -11 1 -26 12 -16 12 -17 -4 -11 -10 4 -16 3 -12 -2 3 -5 -1 -11 -7
-14 -7 -2 -10 -8 -6 -12 4 -4 14 0 23 9 22 22 30 20 51 -11 l17 -28 -26 18
c-15 10 -27 13 -27 7 0 -5 3 -10 8 -10 4 0 15 -12 26 -26 18 -26 18 -26 -2
-15 -26 14 -43 14 -20 0 10 -5 23 -19 29 -30 9 -19 9 -19 -9 -10 -11 6 -22 16
-25 23 -3 9 -8 10 -13 3 -5 -5 -8 -9 -5 -8 2 1 16 -11 31 -27 20 -22 26 -38
26 -69 -1 -23 4 -41 9 -41 6 0 4 -4 -4 -9 -11 -7 -10 -13 4 -35 11 -17 13 -26
6 -26 -7 0 -10 -4 -7 -9 4 -5 1 -11 -5 -13 -8 -3 -7 -12 6 -31 10 -16 13 -27
6 -27 -7 0 -6 -9 4 -24 13 -19 13 -25 3 -28 -10 -4 -10 -9 2 -23 14 -17 13
-18 -3 -12 -10 4 -16 3 -12 -2 3 -5 -1 -11 -7 -14 -7 -2 -9 -8 -5 -13 4 -5 12
-2 16 5 7 10 10 10 16 1 4 -7 2 -16 -6 -20 -10 -7 -10 -12 2 -26 12 -16 12
-17 -4 -11 -16 6 -16 5 -1 -21 14 -24 15 -25 0 -8 -9 11 -19 16 -23 13 -4 -4
-1 -13 5 -19 19 -19 14 -30 -10 -23 -22 6 -22 6 2 -16 16 -14 19 -20 8 -16
-10 4 -26 10 -35 13 -17 5 -17 5 -1 -6 17 -10 44 -50 34 -50 -2 0 -12 7 -21
17 -13 12 -19 13 -24 4 -6 -9 -11 -8 -21 4 -16 19 -31 20 -24 0 4 -8 1 -15 -5
-15 -6 0 -11 5 -11 10 0 6 -5 10 -10 10 -6 0 -3 -12 7 -27 14 -22 19 -24 21
-10 2 9 7 17 10 17 11 -1 45 -51 38 -57 -8 -9 -38 6 -32 16 3 5 -6 9 -21 9
-15 0 -29 5 -31 11 -4 13 -22 15 -22 3 0 -9 50 -37 62 -34 3 1 26 -17 50 -39
24 -24 33 -36 20 -29 -13 6 -26 18 -29 26 -3 8 -13 14 -22 13 -29 -3 -42 1
-36 10 3 5 -12 15 -32 22 -21 6 -40 15 -43 18 -3 3 -22 15 -42 25 -21 10 -35
23 -32 27 6 11 -4 10 -31 0 -16 -6 -3 -16 70 -56 50 -26 106 -57 125 -69 19
-12 46 -27 60 -34 14 -7 45 -23 69 -37 24 -14 45 -25 47 -25 3 0 3 -27 3 684
1 579 -1 641 -16 658 -9 10 -20 18 -24 18 -4 0 -43 21 -86 46 -43 26 -103 60
-133 77 -52 28 -268 148 -355 197 -22 13 -60 34 -85 48 -25 14 -57 33 -72 43
-14 11 -29 19 -34 19 -4 0 -41 20 -83 44 -43 24 -86 46 -96 48 -11 1 -34 18
-51 36 -17 17 -38 32 -47 32 -9 0 -19 5 -22 10 -9 15 -35 12 -41 -5z m151 -77
c5 4 5 2 2 -4 -9 -16 -46 -24 -53 -12 -9 14 18 29 32 18 6 -6 15 -6 19 -2z
m343 -398 c21 -23 32 -30 32 -19 0 9 -12 29 -27 44 -20 20 -22 25 -8 17 11 -6
29 -24 40 -41 11 -16 29 -35 40 -41 18 -9 17 -9 -5 -4 -23 6 -24 6 -10 -12 38
-50 43 -55 51 -42 4 7 11 9 16 5 4 -5 1 -12 -7 -17 -15 -10 -69 26 -69 48 -1
6 -4 12 -8 12 -10 0 -73 56 -73 64 0 3 -13 19 -28 34 -24 23 -25 24 -2 7 14
-10 40 -35 58 -55z m-108 60 c0 -5 -2 -10 -4 -10 -3 0 -8 5 -11 10 -3 6 -1 10
4 10 6 0 11 -4 11 -10z m80 0 c0 -5 -2 -10 -4 -10 -3 0 -8 5 -11 10 -3 6 -1
10 4 10 6 0 11 -4 11 -10z m-125 -28 c-3 -3 -11 0 -18 7 -9 10 -8 11 6 5 10
-3 15 -9 12 -12z m101 -13 c3 -6 1 -15 -6 -19 -7 -4 -9 -13 -5 -20 6 -9 9 -9
15 0 6 9 17 5 44 -15 20 -15 36 -32 36 -39 0 -6 -6 -4 -13 5 -17 22 -55 41
-67 34 -12 -7 -63 45 -54 54 4 3 9 0 11 -6 3 -7 9 -13 14 -13 15 0 10 22 -8
37 -16 13 -16 13 4 3 12 -5 25 -15 29 -21z m128 -14 c23 -34 17 -32 -24 12
-22 23 -27 32 -14 25 12 -6 29 -23 38 -37z m-243 -2 c13 -16 12 -17 -3 -4 -10
7 -18 15 -18 17 0 8 8 3 21 -13z m-77 -78 c17 -25 16 -25 -4 -13 -11 7 -20 18
-20 25 0 19 6 16 24 -12z m397 -2 c13 -16 12 -17 -3 -4 -10 7 -18 15 -18 17 0
8 8 3 21 -13z m-101 -20 c0 -5 14 -16 30 -25 17 -9 30 -23 30 -29 0 -7 -9 -3
-20 9 -25 26 -49 30 -29 5 40 -50 43 -52 50 -41 5 7 16 4 34 -11 15 -11 23
-21 17 -21 -6 0 -14 5 -17 10 -3 6 -13 10 -20 10 -9 0 -2 -12 17 -30 17 -17
29 -32 26 -35 -5 -6 -118 104 -118 115 0 5 -9 12 -20 15 -11 3 -20 11 -20 17
0 6 6 6 15 -2 9 -7 18 -10 22 -6 3 3 1 6 -5 6 -7 0 -12 5 -12 10 0 6 5 10 10
10 6 0 10 -3 10 -7z m132 -47 c9 -18 8 -19 -3 -6 -8 8 -21 20 -29 27 -13 11
-13 12 3 7 10 -4 22 -16 29 -28z m-152 -7 c0 -5 -4 -9 -10 -9 -5 0 -10 7 -10
16 0 8 5 12 10 9 6 -3 10 -10 10 -16z m134 -14 c13 -18 22 -22 27 -14 5 9 15
5 36 -11 19 -15 21 -21 8 -15 -11 4 -27 8 -35 9 -27 3 -87 56 -64 56 5 0 18
-11 28 -25z m108 -14 c5 16 16 8 88 -64 31 -31 54 -46 62 -41 9 6 9 9 -2 12
-20 6 -53 42 -46 49 3 4 15 -4 26 -17 11 -13 20 -20 20 -16 0 4 7 0 16 -8 27
-28 36 -17 13 17 l-22 32 32 -33 c18 -18 36 -30 41 -27 5 3 11 1 15 -4 3 -6
-6 -8 -22 -5 -21 3 -24 2 -13 -5 8 -6 11 -13 7 -17 -4 -4 -16 1 -27 11 -27 25
-37 12 -11 -14 12 -12 21 -23 21 -26 0 -3 9 -15 20 -27 22 -24 26 -38 10 -38
-5 0 -10 5 -10 11 0 5 -13 24 -30 42 -16 18 -30 37 -30 42 0 13 -20 -17 -20
-30 0 -5 5 -3 11 5 8 13 10 12 7 -4 -4 -28 -53 -30 -78 -3 -11 11 -20 26 -20
32 0 14 -48 38 -60 30 -12 -7 -60 39 -60 56 1 8 14 -2 30 -21 17 -19 30 -29
30 -22 0 21 17 13 65 -33 26 -25 50 -43 54 -39 3 4 0 9 -6 11 -22 8 -14 25 7
18 29 -9 25 10 -5 23 -33 15 -38 15 -29 0 4 -7 -3 -4 -16 7 -38 32 -50 43 -50
49 0 3 -17 22 -38 43 -21 21 -26 28 -11 15 19 -17 28 -20 31 -11z m43 19 c10
-11 16 -20 13 -20 -3 0 -13 9 -23 20 -10 11 -16 20 -13 20 3 0 13 -9 23 -20z
m-491 -25 c28 -28 27 -30 -9 -13 -14 6 -25 17 -25 25 0 18 6 17 34 -12z m-77
-5 c14 -11 23 -20 20 -20 -14 0 -57 24 -57 32 0 13 10 10 37 -12z m303 10 c0
-5 -2 -10 -4 -10 -3 0 -8 5 -11 10 -3 6 -1 10 4 10 6 0 11 -4 11 -10z m58 -48
c2 -7 -1 -12 -7 -12 -6 0 -11 5 -11 11 0 7 -8 18 -17 26 -16 13 -15 13 6 1 14
-8 27 -20 29 -26z m390 18 c-12 -19 -28 -27 -28 -14 0 6 30 33 38 34 1 0 -3
-9 -10 -20z m-228 -20 c0 -5 -2 -10 -4 -10 -3 0 -8 5 -11 10 -3 6 -1 10 4 10
6 0 11 -4 11 -10z m231 -97 c-12 -20 -14 -14 -5 12 4 9 9 14 11 11 3 -2 0 -13
-6 -23z m52 13 c4 -10 1 -13 -9 -9 -15 6 -19 23 -5 23 5 0 11 -7 14 -14z m-7
-37 c19 -22 19 -22 -3 -10 -27 14 -45 14 -21 0 17 -9 44 -49 34 -49 -13 0 -54
55 -49 66 7 19 17 17 39 -7z m0 -80 c19 -21 19 -21 -9 -8 -15 7 -27 16 -27 21
0 14 16 9 36 -13z m-6 -109 c7 -14 7 -20 0 -20 -5 0 -10 -7 -10 -15 0 -8 -4
-15 -10 -15 -5 0 -10 7 -10 15 0 8 5 15 12 15 9 0 9 3 0 12 -14 14 -16 28 -2
28 5 0 14 -9 20 -20z m74 -46 c3 -8 2 -12 -4 -9 -6 3 -10 10 -10 16 0 14 7 11
14 -7z m4 -149 c-3 -3 -9 2 -12 12 -6 14 -5 15 5 6 7 -7 10 -15 7 -18z m-5
-36 c4 -16 3 -18 -9 -8 -7 6 -11 15 -8 20 8 13 11 11 17 -12z m3 -136 c0 -78
-2 -90 -15 -86 -13 4 -13 3 0 -6 13 -9 16 -25 15 -73 -2 -35 2 -69 7 -75 11
-14 6 -16 -17 -7 -19 7 -21 31 -3 37 9 3 9 7 -2 20 -11 14 -11 17 0 18 10 0
11 2 2 6 -15 6 -17 33 -3 33 6 0 4 10 -5 23 -13 20 -13 26 0 44 12 17 12 23 1
39 -8 10 -12 24 -9 31 3 7 -1 21 -8 31 -11 14 -11 15 1 5 23 -21 33 -15 18 10
-16 24 -13 50 6 44 7 -2 11 -35 12 -94z m4 -273 c7 -13 7 -20 1 -20 -6 0 -15
9 -21 20 -7 13 -7 20 -1 20 6 0 15 -9 21 -20z m-3 -80 c0 -32 -4 -49 -11 -47
-6 3 -10 10 -8 17 1 7 3 27 4 46 2 54 16 39 15 -16z m-77 -45 c14 -16 10 -18
-14 -9 -9 3 -16 10 -16 15 0 14 16 11 30 -6z"/>
<path d="M17409 4131 c39 -42 52 -45 32 -7 -11 19 -49 46 -65 46 -2 0 13 -18
33 -39z"/>
<path d="M14778 4353 c-819 -2 -1488 -6 -1488 -11 0 -4 84 -8 188 -9 103 -1
215 -4 249 -6 34 -2 60 -1 58 3 -2 4 14 4 37 0 23 -5 48 -6 55 -3 7 3 21 -1
30 -8 12 -10 15 -10 9 -1 -9 15 -1 15 26 1 11 -6 18 -7 15 -2 -3 5 22 9 56 10
139 3 887 5 1597 5 415 0 800 1 855 3 63 2 104 0 113 -7 9 -8 10 -13 2 -18 -7
-4 -12 -52 -14 -123 -1 -74 1 -114 8 -110 5 4 7 -1 3 -12 -4 -9 -3 -23 2 -29
6 -6 9 -20 7 -30 -2 -18 -39 -19 -1078 -22 -906 -2 -1079 -1 -1102 11 -15 8
-24 10 -21 6 8 -14 -22 -17 -163 -15 -95 1 -137 6 -149 15 -14 12 -16 12 -8 0
6 -11 4 -13 -8 -8 -10 4 -24 10 -34 14 -10 4 -14 2 -10 -4 7 -12 -43 -10 -63
2 -9 5 -11 4 -6 -3 5 -8 -2 -12 -19 -12 -14 0 -24 4 -21 9 4 5 -5 4 -18 -2
-74 -35 -37 -36 1361 -37 1341 0 1364 0 1358 19 -3 10 -7 57 -10 103 -2 45 -6
110 -8 143 -5 57 4 92 26 106 5 4 6 12 3 18 -5 8 -61 10 -179 9 -95 -2 -841
-4 -1659 -5z m-878 -373 c0 -5 -5 -10 -11 -10 -5 0 -7 5 -4 10 3 6 8 10 11 10
2 0 4 -4 4 -10z"/>
<path d="M13660 4305 c-7 -9 -8 -15 -2 -15 5 0 12 7 16 15 3 8 4 15 2 15 -2 0
-9 -7 -16 -15z"/>
<path d="M13979 4310 c-7 -5 -10 -13 -5 -17 5 -4 11 -2 13 5 4 10 8 10 19 1 8
-7 16 -10 19 -8 9 10 -32 27 -46 19z"/>
<path d="M15653 4290 c23 -30 37 -37 37 -20 0 6 -4 10 -10 10 -5 0 -10 6 -10
14 0 7 -9 16 -20 19 -19 5 -19 4 3 -23z"/>
<path d="M15695 4310 c-14 -5 -12 -11 12 -42 28 -37 43 -47 43 -28 0 6 -4 10
-10 10 -5 0 -10 6 -10 14 0 8 -6 16 -12 19 -7 2 -9 8 -5 13 4 4 23 -8 42 -29
19 -20 38 -37 42 -37 4 0 1 6 -8 13 -9 7 -22 23 -29 37 -13 24 -12 24 5 10 13
-10 19 -11 22 -4 2 7 13 10 23 7 12 -3 20 0 20 8 0 8 6 5 15 -7 12 -15 16 -16
24 -5 7 11 13 9 30 -8 11 -11 24 -21 28 -21 4 0 2 5 -5 12 -7 7 -12 19 -12 27
0 11 9 6 28 -14 15 -17 36 -37 47 -45 l20 -15 -20 25 c-47 59 -57 63 -169 64
-57 1 -112 -1 -121 -4z"/>
<path d="M16221 4312 c-6 -2 -11 -8 -11 -14 0 -6 8 -7 17 -4 11 5 24 -2 39
-21 12 -15 25 -25 29 -22 3 4 -1 14 -10 22 -17 18 -19 27 -5 27 5 0 20 -16 33
-35 13 -19 26 -32 30 -29 3 3 -3 15 -14 27 -10 11 -19 26 -19 33 0 11 -67 23
-89 16z"/>
<path d="M16890 4290 c17 -23 20 -35 12 -38 -8 -2 -2 -12 14 -24 21 -17 28
-18 34 -7 6 9 -2 26 -24 53 -40 49 -68 61 -36 16z m50 -50 c8 -5 11 -10 5 -10
-5 0 -17 5 -25 10 -8 5 -10 10 -5 10 6 0 17 -5 25 -10z"/>
<path d="M13890 4300 c0 -5 5 -10 11 -10 5 0 7 5 4 10 -3 6 -8 10 -11 10 -2 0
-4 -4 -4 -10z"/>
<path d="M14050 4300 c0 -5 5 -10 11 -10 5 0 7 5 4 10 -3 6 -8 10 -11 10 -2 0
-4 -4 -4 -10z"/>
<path d="M14210 4300 c0 -5 5 -10 11 -10 5 0 7 5 4 10 -3 6 -8 10 -11 10 -2 0
-4 -4 -4 -10z"/>
<path d="M15250 4300 c0 -5 5 -10 10 -10 6 0 10 5 10 10 0 6 -4 10 -10 10 -5
0 -10 -4 -10 -10z"/>
<path d="M15410 4300 c0 -5 5 -10 11 -10 5 0 7 5 4 10 -3 6 -8 10 -11 10 -2 0
-4 -4 -4 -10z"/>
<path d="M15490 4300 c0 -5 5 -10 11 -10 5 0 7 5 4 10 -3 6 -8 10 -11 10 -2 0
-4 -4 -4 -10z"/>
<path d="M15539 4286 c14 -15 26 -26 28 -26 9 0 -24 40 -37 45 -8 4 -4 -5 9
-19z"/>
<path d="M15565 4300 c3 -5 10 -10 16 -10 5 0 9 5 9 10 0 6 -7 10 -16 10 -8 0
-12 -4 -9 -10z"/>
<path d="M15619 4286 c14 -15 26 -26 28 -26 9 0 -24 40 -37 45 -8 4 -4 -5 9
-19z"/>
<path d="M15970 4300 c0 -5 5 -10 10 -10 6 0 10 5 10 10 0 6 -4 10 -10 10 -5
0 -10 -4 -10 -10z"/>
<path d="M16016 4287 c18 -26 34 -35 34 -19 0 4 -13 16 -27 26 l-27 20 20 -27z"/>
<path d="M16045 4300 c3 -5 10 -10 16 -10 5 0 9 5 9 10 0 6 -7 10 -16 10 -8 0
-12 -4 -9 -10z"/>
<path d="M16125 4300 c3 -5 10 -10 16 -10 5 0 9 5 9 10 0 6 -7 10 -16 10 -8 0
-12 -4 -9 -10z"/>
<path d="M16166 4298 c16 -26 40 -50 59 -59 18 -9 19 -9 3 4 -10 8 -18 18 -18
22 0 8 -39 45 -47 45 -2 0 -1 -5 3 -12z"/>
<path d="M16370 4300 c0 -5 5 -10 10 -10 6 0 10 5 10 10 0 6 -4 10 -10 10 -5
0 -10 -4 -10 -10z"/>
<path d="M16450 4300 c0 -5 5 -10 11 -10 5 0 7 5 4 10 -3 6 -8 10 -11 10 -2 0
-4 -4 -4 -10z"/>
<path d="M13940 4293 c0 -6 8 -17 18 -24 16 -13 16 -13 2 6 -8 11 -16 22 -17
24 -2 2 -3 0 -3 -6z"/>
<path d="M15375 4290 c3 -5 8 -10 11 -10 2 0 4 5 4 10 0 6 -5 10 -11 10 -5 0
-7 -4 -4 -10z"/>
<path d="M16111 4269 c20 -29 21 -31 3 -25 -10 3 -26 1 -34 -5 -12 -8 -11 -9
6 -4 13 3 28 0 37 -10 20 -19 33 -20 17 0 -20 24 4 17 28 -8 23 -24 29 -47 13
-47 -5 0 -12 8 -15 17 -6 15 -8 15 -16 3 -7 -12 -14 -10 -36 10 l-27 25 18
-28 c21 -33 58 -57 48 -31 -5 14 -2 14 23 -2 15 -11 25 -13 21 -6 -5 7 -3 12
5 12 8 0 21 -6 29 -12 7 -7 -3 5 -23 27 -41 44 -48 61 -20 51 15 -5 15 -4 2 7
-8 7 -21 19 -29 27 -11 13 -12 12 -2 -7 17 -33 -3 -28 -32 7 -34 39 -44 39
-16 -1z"/>
<path d="M16330 4297 c0 -10 41 -49 46 -45 2 3 -7 15 -21 28 -14 13 -25 20
-25 17z"/>
<path d="M16422 4280 c7 -11 16 -20 20 -20 5 0 3 9 -4 20 -7 11 -16 20 -20 20
-5 0 -3 -9 4 -20z"/>
<path d="M13860 4286 c0 -2 8 -10 18 -17 15 -13 16 -12 3 4 -13 16 -21 21 -21
13z"/>
<path d="M16632 4270 c0 -14 2 -19 5 -12 2 6 2 18 0 25 -3 6 -5 1 -5 -13z"/>
<path d="M15310 4270 c0 -5 5 -10 11 -10 5 0 7 5 4 10 -3 6 -8 10 -11 10 -2 0
-4 -4 -4 -10z"/>
<path d="M15350 4270 c0 -5 5 -10 11 -10 5 0 7 5 4 10 -3 6 -8 10 -11 10 -2 0
-4 -4 -4 -10z"/>
<path d="M15515 4270 c3 -5 8 -10 11 -10 2 0 4 5 4 10 0 6 -5 10 -11 10 -5 0
-7 -4 -4 -10z"/>
<path d="M15790 4277 c0 -11 111 -120 116 -114 3 2 -9 17 -26 33 -33 32 -39
50 -14 40 11 -4 8 2 -7 18 -25 26 -41 27 -19 1 19 -23 0 -18 -27 7 -13 12 -23
18 -23 15z"/>
<path d="M15870 4270 c0 -5 5 -10 10 -10 6 0 10 5 10 10 0 6 -4 10 -10 10 -5
0 -10 -4 -10 -10z"/>
<path d="M15990 4270 c0 -5 12 -17 28 -27 15 -10 30 -22 34 -27 4 -6 10 -7 14
-4 4 4 -7 15 -25 25 -17 10 -31 24 -31 31 0 6 -4 12 -10 12 -5 0 -10 -4 -10
-10z"/>
<path d="M16070 4270 c0 -5 5 -10 11 -10 5 0 7 5 4 10 -3 6 -8 10 -11 10 -2 0
-4 -4 -4 -10z"/>
<path d="M16236 4267 c4 -10 16 -22 28 -29 18 -9 19 -8 6 3 -8 8 -20 21 -27
29 -11 13 -12 13 -7 -3z"/>
<path d="M16395 4270 c3 -5 8 -10 11 -10 2 0 4 5 4 10 0 6 -5 10 -11 10 -5 0
-7 -4 -4 -10z"/>
<path d="M16952 4268 c2 -6 15 -18 29 -26 21 -12 22 -12 7 1 -10 8 -18 19 -18
26 0 6 -5 11 -11 11 -6 0 -9 -5 -7 -12z"/>
<path d="M15530 4246 c0 -2 7 -7 16 -10 8 -3 12 -2 9 4 -6 10 -25 14 -25 6z"/>
<path d="M15610 4246 c0 -2 7 -7 16 -10 8 -3 12 -2 9 4 -6 10 -25 14 -25 6z"/>
<path d="M15650 4246 c0 -2 7 -7 16 -10 8 -3 12 -2 9 4 -6 10 -25 14 -25 6z"/>
<path d="M15690 4239 c0 -5 5 -7 10 -4 6 3 10 8 10 11 0 2 -4 4 -10 4 -5 0
-10 -5 -10 -11z"/>
<path d="M15930 4246 c0 -2 7 -7 16 -10 8 -3 12 -2 9 4 -6 10 -25 14 -25 6z"/>
<path d="M16410 4246 c0 -2 7 -7 16 -10 8 -3 12 -2 9 4 -6 10 -25 14 -25 6z"/>
<path d="M16641 4241 c-9 -6 -10 -11 -2 -15 6 -4 11 -2 11 4 0 7 7 10 15 6 8
-3 15 -1 15 4 0 12 -20 13 -39 1z"/>
<path d="M16303 4233 c-15 -5 -17 -23 -4 -23 5 0 11 7 15 15 3 8 4 15 3 14 -1
0 -8 -3 -14 -6z"/>
<path d="M13970 4220 c0 -5 5 -10 11 -10 5 0 7 5 4 10 -3 6 -8 10 -11 10 -2 0
-4 -4 -4 -10z"/>
<path d="M14210 4220 c0 -5 5 -10 11 -10 5 0 7 5 4 10 -3 6 -8 10 -11 10 -2 0
-4 -4 -4 -10z"/>
<path d="M15250 4220 c0 -5 5 -10 11 -10 5 0 7 5 4 10 -3 6 -8 10 -11 10 -2 0
-4 -4 -4 -10z"/>
<path d="M15570 4220 c0 -5 5 -10 11 -10 5 0 7 5 4 10 -3 6 -8 10 -11 10 -2 0
-4 -4 -4 -10z"/>
<path d="M15650 4220 c0 -5 5 -10 11 -10 5 0 7 5 4 10 -3 6 -8 10 -11 10 -2 0
-4 -4 -4 -10z"/>
<path d="M15810 4220 c0 -5 5 -10 11 -10 5 0 7 5 4 10 -3 6 -8 10 -11 10 -2 0
-4 -4 -4 -10z"/>
<path d="M15890 4220 c0 -5 5 -10 11 -10 5 0 7 5 4 10 -3 6 -8 10 -11 10 -2 0
-4 -4 -4 -10z"/>
<path d="M15970 4220 c0 -5 5 -10 11 -10 5 0 7 5 4 10 -3 6 -8 10 -11 10 -2 0
-4 -4 -4 -10z"/>
<path d="M16210 4220 c0 -5 5 -10 11 -10 5 0 7 5 4 10 -3 6 -8 10 -11 10 -2 0
-4 -4 -4 -10z"/>
<path d="M17010 4220 c0 -5 5 -10 11 -10 5 0 7 5 4 10 -3 6 -8 10 -11 10 -2 0
-4 -4 -4 -10z"/>
<path d="M15549 4193 l21 -31 -35 2 c-19 2 -32 0 -30 -5 3 -4 -1 -9 -7 -12 -8
-2 -9 -8 -4 -13 5 -5 11 -4 13 3 2 7 11 9 20 6 11 -4 14 -2 9 5 -10 17 9 15
24 -3 7 -8 17 -15 22 -15 6 0 6 6 -1 14 -9 11 -6 13 21 11 48 -4 48 -4 48 -15
0 -6 9 -20 20 -32 26 -28 26 -14 -1 23 -31 45 -5 34 35 -13 19 -24 37 -40 40
-37 4 3 -8 21 -26 40 -18 19 -32 37 -30 42 1 4 -1 6 -5 6 -21 -3 -33 2 -33 15
0 8 -7 16 -15 20 -13 5 -13 2 1 -19 15 -23 15 -23 -20 -21 -23 2 -43 13 -61
32 l-27 29 21 -32z"/>
<path d="M15710 4216 c0 -11 30 -39 36 -34 2 3 -5 13 -16 23 -11 10 -20 15
-20 11z"/>
<path d="M15792 4190 c12 -16 26 -30 32 -30 5 0 -3 14 -19 30 -16 17 -30 30
-32 30 -2 0 6 -13 19 -30z"/>
<path d="M15939 4201 c14 -26 31 -36 31 -19 0 7 -9 19 -21 26 -19 12 -19 11
-10 -7z"/>
<path d="M16025 4200 c10 -11 20 -20 23 -20 3 0 -3 9 -13 20 -10 11 -20 20
-23 20 -3 0 3 -9 13 -20z"/>
<path d="M16269 4191 c12 -17 28 -31 34 -31 8 0 7 -3 -2 -9 -11 -7 -9 -16 11
-45 14 -20 27 -33 31 -30 3 3 -3 15 -14 27 -25 27 -24 42 3 61 12 9 18 19 14
23 -4 4 -12 0 -17 -9 -10 -18 -39 -14 -39 6 0 6 -10 17 -21 25 l-22 13 22 -31z"/>
<path d="M16361 4203 c7 -12 15 -20 18 -17 3 2 -3 12 -13 22 -17 16 -18 16 -5
-5z"/>
<path d="M16402 4196 c-9 -21 -7 -25 16 -35 24 -10 25 -10 10 2 -25 20 -22 30
5 21 22 -7 22 -6 3 15 -11 11 -20 21 -21 21 -1 0 -7 -11 -13 -24z"/>
<path d="M15675 4199 c-4 -6 -5 -12 -2 -15 2 -3 7 2 10 11 7 17 1 20 -8 4z"/>
<path d="M16630 4198 c0 -9 5 -20 10 -23 13 -8 13 5 0 25 -8 13 -10 13 -10 -2z"/>
<path d="M16980 4206 c0 -2 8 -10 18 -17 15 -13 16 -12 3 4 -13 16 -21 21 -21
13z"/>
<path d="M15830 4195 c0 -5 14 -22 32 -37 18 -14 30 -29 26 -33 -3 -4 -16 3
-28 15 -11 11 -25 18 -30 15 -5 -3 -20 -1 -32 6 l-23 11 23 -23 c16 -17 25
-21 30 -12 5 8 16 1 35 -22 15 -19 33 -35 39 -35 7 0 6 5 -2 15 -7 9 -10 18
-6 22 3 4 13 -2 21 -13 8 -10 15 -14 15 -7 0 6 -4 15 -10 18 -5 3 -10 14 -10
22 0 14 4 13 20 -5 11 -12 20 -25 20 -31 0 -9 30 -24 36 -18 2 2 -4 12 -14 23
-9 11 -24 28 -32 39 -14 17 -13 18 5 12 19 -7 19 -6 3 7 -10 7 -18 18 -18 25
0 6 -4 11 -10 11 -14 0 -13 -17 1 -26 8 -5 6 -10 -5 -16 -18 -10 -53 5 -73 31
-7 9 -13 12 -13 6z"/>
<path d="M16230 4190 c0 -5 5 -10 11 -10 5 0 7 5 4 10 -3 6 -8 10 -11 10 -2 0
-4 -4 -4 -10z"/>
<path d="M16950 4190 c0 -5 5 -10 11 -10 5 0 7 5 4 10 -3 6 -8 10 -11 10 -2 0
-4 -4 -4 -10z"/>
<path d="M17039 4183 c7 -14 7 -23 1 -25 -6 -2 5 -21 24 -43 19 -22 37 -37 40
-34 3 3 -2 14 -12 25 -9 11 -24 28 -32 39 -14 17 -13 18 5 12 17 -6 18 -5 5 6
-8 7 -21 19 -29 27 -11 13 -12 12 -2 -7z"/>
<path d="M13920 4186 c0 -14 114 -118 118 -108 2 8 9 9 22 2 10 -5 25 -7 33
-5 8 4 27 -10 47 -35 18 -22 37 -40 42 -40 5 0 2 7 -6 16 -15 15 -18 22 -20
54 -1 9 -11 15 -28 15 -31 1 -60 31 -54 57 2 11 -1 15 -10 11 -8 -3 -14 0 -14
7 0 6 -5 8 -10 5 -6 -4 2 -21 20 -43 16 -20 27 -38 25 -41 -8 -7 -80 72 -77
84 2 6 0 7 -4 2 -4 -4 -16 0 -26 10 -32 29 -19 3 17 -33 35 -35 44 -54 25 -54
-5 0 -10 7 -10 15 0 8 -4 15 -10 15 -5 0 -10 6 -10 14 0 8 -9 18 -20 21 -11 3
-27 13 -35 21 -8 9 -15 13 -15 10z"/>
<path d="M14015 4180 c3 -5 8 -10 11 -10 2 0 4 5 4 10 0 6 -5 10 -11 10 -5 0
-7 -4 -4 -10z"/>
<path d="M15695 4180 c3 -5 8 -10 11 -10 2 0 4 5 4 10 0 6 -5 10 -11 10 -5 0
-7 -4 -4 -10z"/>
<path d="M16687 4174 c6 -15 23 -19 23 -5 0 5 -7 11 -14 14 -10 4 -13 1 -9 -9z"/>
<path d="M14090 4166 c0 -2 7 -7 16 -10 8 -3 12 -2 9 4 -6 10 -25 14 -25 6z"/>
<path d="M16090 4166 c0 -2 7 -7 16 -10 8 -3 12 -2 9 4 -6 10 -25 14 -25 6z"/>
<path d="M16250 4166 c0 -2 7 -7 16 -10 8 -3 12 -2 9 4 -6 10 -25 14 -25 6z"/>
<path d="M16970 4166 c0 -2 7 -7 16 -10 8 -3 12 -2 9 4 -6 10 -25 14 -25 6z"/>
<path d="M15741 4151 c-12 -8 -10 -15 11 -44 l26 -34 -26 4 c-15 1 -38 4 -51
6 -13 2 -37 16 -53 32 -15 16 -31 25 -35 20 -5 -4 -2 -10 5 -12 6 -3 12 -11
12 -18 0 -24 -27 -23 -55 1 -29 24 -35 28 -35 19 0 -7 117 -125 125 -125 3 0
1 9 -5 20 -6 11 -7 20 -3 20 5 0 14 -9 21 -20 7 -11 18 -20 25 -19 9 0 9 2 0
6 -7 2 -13 10 -13 17 0 8 -12 25 -26 40 -15 14 -23 26 -19 26 4 0 22 -17 41
-37 19 -20 37 -33 41 -29 4 4 3 10 -2 14 -6 4 -17 16 -25 26 -14 18 -14 19 7
8 12 -7 28 -20 35 -30 7 -10 22 -19 33 -20 11 0 31 -3 45 -4 14 -2 28 1 32 6
4 6 13 5 22 -4 25 -20 32 -3 10 22 -19 22 -19 23 1 8 11 -8 26 -23 33 -32 7
-10 19 -18 25 -17 9 0 9 2 0 6 -21 8 -14 25 7 18 21 -7 29 10 8 18 -7 2 -10 7
-7 11 4 4 19 -7 35 -24 16 -16 33 -30 39 -30 7 0 7 3 0 8 -18 13 -36 52 -24
52 5 0 8 4 4 9 -3 5 0 13 6 16 16 11 23 -3 9 -19 -10 -13 -9 -19 4 -32 22 -21
33 -10 15 13 -13 17 -13 17 6 3 11 -8 23 -19 27 -25 4 -5 10 -6 14 -2 4 4 2
13 -4 19 -7 7 -12 17 -12 22 0 6 11 -2 25 -19 20 -25 26 -28 34 -15 9 13 12
12 26 -5 18 -22 18 -24 -2 35 -3 8 8 0 24 -17 31 -35 46 -43 37 -18 -4 8 -2
15 4 15 6 0 12 -6 15 -12 2 -7 8 -10 12 -5 5 4 -2 18 -15 32 -13 14 -19 25
-12 25 6 0 20 -13 32 -30 12 -16 29 -30 38 -30 13 0 10 6 -12 25 -16 14 -26
28 -22 33 4 4 20 -7 36 -25 18 -20 31 -27 34 -20 2 7 5 4 5 -5 1 -15 21 -28
21 -14 0 8 -42 76 -47 76 -2 0 -1 -4 2 -10 9 -14 -17 -12 -37 4 -20 14 -24 36
-8 36 6 0 10 -4 10 -10 0 -5 5 -10 12 -10 6 0 4 8 -7 20 -15 17 -19 17 -32 4
-12 -12 -13 -18 -3 -29 25 -30 -4 -14 -32 17 -24 27 -31 30 -38 18 -8 -13 -11
-12 -24 5 -9 11 -16 16 -16 12 0 -5 9 -21 20 -35 18 -22 19 -27 6 -34 -17 -9
-66 10 -66 25 0 6 -3 7 -7 3 -4 -4 6 -18 22 -31 17 -13 27 -26 23 -30 -3 -4
-16 3 -28 15 -11 11 -25 18 -31 15 -5 -4 -18 4 -28 17 l-19 23 -19 -24 c-16
-20 -23 -22 -41 -12 -24 13 -35 14 -28 3 2 -4 -7 -7 -22 -6 -40 2 -39 2 -62
26 -11 12 -20 17 -20 10 0 -6 9 -17 21 -25 19 -14 19 -15 -13 -12 -18 2 -36 3
-40 4 -4 1 -16 11 -28 23 -21 23 -28 54 -8 42 7 -4 8 -3 4 4 -9 14 -7 14 -25
3z m465 -68 c-8 -8 -36 10 -36 25 0 13 3 12 20 -3 11 -10 18 -20 16 -22z m-12
-9 c15 -6 23 -34 10 -34 -7 0 -34 27 -34 34 0 8 5 7 24 0z m-424 -25 c0 -6 -4
-7 -10 -4 -5 3 -10 11 -10 16 0 6 5 7 10 4 6 -3 10 -11 10 -16z m59 0 c5 8 11
9 15 3 7 -12 -19 -23 -39 -16 -8 4 -15 14 -15 23 1 13 3 13 16 -4 12 -16 16
-17 23 -6z m101 1 c0 -5 -2 -10 -4 -10 -3 0 -8 5 -11 10 -3 6 -1 10 4 10 6 0
11 -4 11 -10z"/>
<path d="M16383 4153 c-15 -5 -17 -23 -4 -23 5 0 11 7 15 15 3 8 4 15 3 14 -1
0 -8 -3 -14 -6z"/>
<path d="M16635 4150 c3 -5 8 -10 11 -10 2 0 4 5 4 10 0 6 -5 10 -11 10 -5 0
-7 -4 -4 -10z"/>
<path d="M16703 4153 c-7 -2 -13 -9 -13 -15 0 -6 7 -8 15 -5 8 4 17 2 20 -3 4
-6 1 -10 -5 -10 -7 0 -10 -7 -6 -15 3 -8 0 -15 -6 -15 -6 0 -3 -9 6 -19 16
-18 16 -20 0 -40 -26 -30 -26 -56 -1 -77 12 -10 16 -12 10 -4 -7 8 -13 20 -13
28 0 12 3 12 17 1 14 -12 15 -12 9 0 -5 8 -3 17 5 23 10 7 7 7 -8 3 -27 -7
-29 0 -8 22 13 12 18 13 33 2 9 -7 7 -2 -5 12 -27 30 -29 43 -5 35 16 -6 16
-5 0 8 -24 18 -23 29 2 21 26 -8 25 -1 -2 30 -22 26 -25 27 -45 18z"/>
<path d="M13890 4140 c0 -5 5 -10 11 -10 5 0 7 5 4 10 -3 6 -8 10 -11 10 -2 0
-4 -4 -4 -10z"/>
<path d="M14130 4140 c0 -5 5 -10 11 -10 5 0 7 5 4 10 -3 6 -8 10 -11 10 -2 0
-4 -4 -4 -10z"/>
<path d="M14210 4140 c0 -5 5 -10 11 -10 5 0 7 5 4 10 -3 6 -8 10 -11 10 -2 0
-4 -4 -4 -10z"/>
<path d="M14290 4144 c0 -15 79 -94 94 -94 2 0 6 6 9 14 3 8 -10 28 -30 47
l-36 34 22 -32 c12 -18 18 -33 12 -33 -11 0 -25 14 -55 55 -9 11 -16 15 -16 9z"/>
<path d="M14370 4140 c0 -5 5 -10 11 -10 5 0 7 5 4 10 -3 6 -8 10 -11 10 -2 0
-4 -4 -4 -10z"/>
<path d="M15971 4145 c0 -5 6 -19 14 -29 8 -11 15 -15 15 -10 0 6 -7 19 -15
30 -8 10 -14 15 -14 9z"/>
<path d="M16210 4140 c0 -5 5 -10 11 -10 5 0 7 5 4 10 -3 6 -8 10 -11 10 -2 0
-4 -4 -4 -10z"/>
<path d="M16770 4140 c0 -5 5 -10 10 -10 6 0 10 5 10 10 0 6 -4 10 -10 10 -5
0 -10 -4 -10 -10z"/>
<path d="M17010 4140 c0 -5 5 -10 11 -10 5 0 7 5 4 10 -3 6 -8 10 -11 10 -2 0
-4 -4 -4 -10z"/>
<path d="M17090 4144 c0 -3 9 -19 20 -34 17 -24 18 -29 4 -34 -18 -7 -53 10
-71 33 -7 9 -13 11 -13 5 0 -7 16 -24 36 -39 27 -21 38 -24 44 -15 6 10 10 9
16 -1 5 -8 18 -21 29 -29 19 -14 19 -14 4 5 -30 38 -34 49 -13 41 17 -6 16 -5
-3 13 -12 11 -24 29 -28 41 -6 18 -25 29 -25 14z"/>
<path d="M13923 4125 c-8 -9 -9 -16 -3 -20 6 -3 10 -1 10 4 0 17 14 13 27 -8
11 -17 8 -18 -50 -16 -49 2 -57 0 -39 -8 12 -5 22 -14 22 -19 0 -4 5 -8 11 -8
8 0 8 4 0 14 -9 11 -6 13 21 11 49 -4 48 -4 48 -18 0 -8 9 -22 20 -32 17 -16
20 -16 20 -2 0 9 -5 19 -11 22 -6 4 -8 12 -6 19 4 11 -44 77 -54 76 -2 -1 -10
-7 -16 -15z"/>
<path d="M14250 4135 c0 -4 13 -21 30 -36 16 -16 27 -29 24 -29 -12 0 -50 24
-61 39 -7 9 -13 12 -13 8 0 -5 23 -30 50 -57 28 -27 50 -42 50 -34 0 8 -4 14
-10 14 -5 0 -10 8 -10 18 0 12 7 8 26 -16 14 -18 30 -30 35 -26 5 3 -14 28
-43 55 -69 65 -78 73 -78 64z"/>
<path d="M15165 4120 c10 -11 20 -20 23 -20 3 0 -3 9 -13 20 -10 11 -20 20
-23 20 -3 0 3 -9 13 -20z"/>
<path d="M16042 4120 c13 -20 28 -27 28 -12 0 4 -9 13 -20 20 -19 12 -20 11
-8 -8z"/>
<path d="M16090 4132 c0 -4 10 -13 23 -21 22 -14 22 -14 3 8 -20 22 -26 25
-26 13z"/>
<path d="M16330 4135 c0 -3 9 -14 20 -25 22 -22 26 -14 6 13 -13 16 -26 23
-26 12z"/>
<path d="M16410 4130 c0 -5 5 -10 11 -10 5 0 7 5 4 10 -3 6 -8 10 -11 10 -2 0
-4 -4 -4 -10z"/>
<path d="M16660 4125 c0 -8 4 -15 10 -15 5 0 7 7 4 15 -4 8 -8 15 -10 15 -2 0
-4 -7 -4 -15z"/>
<path d="M14195 4108 c19 -30 6 -38 -19 -12 -9 8 -16 13 -16 10 0 -3 20 -26
45 -50 25 -25 45 -41 45 -36 0 5 -4 12 -10 15 -5 3 -10 14 -10 23 0 11 9 5 28
-18 16 -19 31 -29 35 -23 3 5 -10 23 -30 39 -20 16 -48 40 -61 54 l-24 25 17
-27z"/>
<path d="M14660 4126 c0 -2 8 -10 18 -17 15 -13 16 -12 3 4 -13 16 -21 21 -21
13z"/>
<path d="M14986 4115 c4 -8 11 -15 16 -15 6 0 5 6 -2 15 -7 8 -14 15 -16 15
-2 0 -1 -7 2 -15z"/>
<path d="M15790 4110 c13 -23 20 -26 20 -6 0 8 -7 16 -15 20 -13 4 -14 2 -5
-14z"/>
<path d="M16630 4116 c0 -8 5 -18 10 -21 6 -3 10 1 10 9 0 8 -4 18 -10 21 -5
3 -10 -1 -10 -9z"/>
<path d="M15590 4111 c0 -5 5 -13 10 -16 6 -3 10 -2 10 4 0 5 -4 13 -10 16 -5
3 -10 2 -10 -4z"/>
<path d="M16390 4113 c0 -12 28 -38 34 -32 2 2 -5 13 -15 23 -11 11 -19 15
-19 9z"/>
<path d="M14924 4095 c5 -13 2 -16 -11 -11 -15 6 -15 4 2 -14 22 -24 43 -27
24 -3 -12 15 -12 16 4 10 22 -8 22 -5 -5 17 -19 17 -20 17 -14 1z"/>
<path d="M15121 4088 c-10 -18 -11 -20 0 -10 16 15 43 16 33 0 -4 -7 -3 -8 5
-4 9 6 9 11 0 22 -16 19 -22 18 -38 -8z"/>
<path d="M15280 4101 c0 -6 10 -16 23 -22 12 -7 26 -17 30 -23 5 -7 6 -3 3 8
-5 14 -2 17 11 12 15 -6 15 -4 -2 14 -22 24 -29 26 -21 5 7 -20 -8 -19 -28 1
-9 8 -16 11 -16 5z"/>
<path d="M15483 4097 c6 -15 3 -17 -16 -12 -21 6 -21 5 -2 -6 28 -17 45 -42
40 -56 -2 -7 2 -10 11 -6 16 6 19 23 4 23 -5 0 -10 6 -10 14 0 8 -6 17 -12 19
-10 4 -10 6 -1 6 7 1 20 -10 29 -24 9 -14 30 -35 45 -46 24 -17 28 -18 22 -3
-6 15 -4 15 23 -1 16 -10 21 -11 12 -2 -10 8 -18 19 -18 26 0 6 -4 11 -10 11
-5 0 -10 6 -10 13 0 17 -45 38 -64 31 -7 -3 -22 3 -32 13 -17 17 -18 17 -11 0z
m104 -73 c-8 -8 -37 21 -37 38 0 7 9 4 22 -9 12 -13 19 -25 15 -29z"/>
<path d="M16440 4101 c0 -5 7 -12 16 -15 14 -5 15 -4 4 9 -14 17 -20 19 -20 6z"/>
<path d="M14410 4086 c0 -2 7 -7 16 -10 8 -3 12 -2 9 4 -6 10 -25 14 -25 6z"/>
<path d="M14570 4086 c0 -2 7 -7 16 -10 8 -3 12 -2 9 4 -6 10 -25 14 -25 6z"/>
<path d="M14650 4086 c0 -2 7 -7 16 -10 8 -3 12 -2 9 4 -6 10 -25 14 -25 6z"/>
<path d="M15024 4082 c4 -7 2 -12 -3 -12 -6 0 -11 -4 -11 -10 0 -15 17 -12 23
5 4 8 1 17 -5 21 -7 4 -8 3 -4 -4z"/>
<path d="M15050 4086 c0 -2 7 -7 16 -10 8 -3 12 -2 9 4 -6 10 -25 14 -25 6z"/>
<path d="M15230 4078 c9 -7 25 -26 38 -42 26 -33 30 -27 6 10 -9 14 -26 29
-38 35 -18 9 -19 8 -6 -3z"/>
<path d="M15370 4080 c0 -5 5 -10 10 -10 6 0 10 5 10 10 0 6 -4 10 -10 10 -5
0 -10 -4 -10 -10z"/>
<path d="M16784 4081 c4 -5 0 -11 -6 -14 -8 -2 -9 -8 -4 -13 5 -5 11 -3 13 4
4 10 14 6 37 -15 29 -26 29 -25 -3 10 -34 35 -49 47 -37 28z"/>
<path d="M16810 4086 c0 -2 7 -7 16 -10 8 -3 12 -2 9 4 -6 10 -25 14 -25 6z"/>
<path d="M17260 4041 c27 -28 53 -51 57 -51 4 0 0 7 -9 14 -10 7 -18 18 -18
25 0 6 -4 11 -10 11 -5 0 -10 8 -10 18 0 13 6 10 24 -13 13 -16 27 -27 31 -23
11 11 -34 53 -58 54 -12 1 -30 4 -39 9 -10 4 5 -16 32 -44z"/>
<path d="M16635 4070 c3 -5 8 -10 11 -10 2 0 4 5 4 10 0 6 -5 10 -11 10 -5 0
-7 -4 -4 -10z"/>
<path d="M14010 4058 c0 -18 27 -44 37 -34 4 4 -3 16 -15 29 -18 17 -22 18
-22 5z"/>
<path d="M14050 4067 c0 -5 9 -20 20 -34 16 -21 20 -22 20 -8 0 17 1 17 20 0
28 -25 35 -13 10 16 -17 20 -21 22 -29 9 -9 -13 -12 -12 -25 5 -9 11 -16 16
-16 12z"/>
<path d="M14610 4061 c0 -5 5 -13 10 -16 6 -3 10 -2 10 4 0 5 -4 13 -10 16 -5
3 -10 2 -10 -4z"/>
<path d="M14690 4060 c0 -5 5 -10 11 -10 5 0 7 5 4 10 -3 6 -8 10 -11 10 -2 0
-4 -4 -4 -10z"/>
<path d="M14850 4060 c0 -5 5 -10 11 -10 5 0 7 5 4 10 -3 6 -8 10 -11 10 -2 0
-4 -4 -4 -10z"/>
<path d="M15170 4067 c0 -5 9 -20 20 -34 11 -14 20 -22 20 -17 -1 12 -39 61
-40 51z"/>
<path d="M16450 4060 c0 -5 5 -10 11 -10 5 0 7 5 4 10 -3 6 -8 10 -11 10 -2 0
-4 -4 -4 -10z"/>
<path d="M16850 4060 c0 -5 5 -10 11 -10 5 0 7 5 4 10 -3 6 -8 10 -11 10 -2 0
-4 -4 -4 -10z"/>
<path d="M17170 4060 c0 -5 5 -10 11 -10 5 0 7 5 4 10 -3 6 -8 10 -11 10 -2 0
-4 -4 -4 -10z"/>
<path d="M13930 4052 c0 -10 22 -32 32 -32 15 0 8 15 -12 28 -11 7 -20 9 -20
4z"/>
<path d="M14170 4055 c0 -3 9 -15 20 -27 17 -18 20 -19 20 -5 0 9 -9 21 -20
27 -11 6 -20 8 -20 5z"/>
<path d="M14402 4044 c-11 -12 -11 -18 -2 -29 7 -8 18 -15 24 -15 6 0 4 4 -4
10 -8 5 -11 12 -7 16 3 4 13 1 22 -6 20 -17 21 6 1 26 -18 17 -18 17 -34 -2z"/>
<path d="M14650 4055 c0 -9 34 -45 43 -45 10 0 -25 49 -35 50 -5 0 -8 -2 -8
-5z"/>
<path d="M15050 4050 c0 -5 5 -10 11 -10 5 0 7 5 4 10 -3 6 -8 10 -11 10 -2 0
-4 -4 -4 -10z"/>
<path d="M15305 4040 c10 -11 20 -18 23 -16 5 6 -23 36 -34 36 -4 0 1 -9 11
-20z"/>
<path d="M15407 4035 c18 -25 43 -33 43 -14 0 5 -4 8 -8 5 -5 -3 -15 4 -22 15
-8 10 -18 19 -23 19 -4 0 0 -11 10 -25z"/>
<path d="M15450 4050 c0 -5 5 -10 11 -10 5 0 7 5 4 10 -3 6 -8 10 -11 10 -2 0
-4 -4 -4 -10z"/>
<path d="M16350 4054 c0 -7 27 -34 34 -34 4 0 1 9 -6 20 -12 19 -28 27 -28 14z"/>
<path d="M16424 4041 c20 -22 26 -25 26 -13 0 4 -10 13 -22 21 -23 14 -23 14
-4 -8z"/>
<path d="M14585 4034 c9 -9 19 -13 23 -10 3 4 0 11 -8 16 -24 15 -33 11 -15
-6z"/>
<path d="M14902 4038 c5 -15 28 -23 28 -10 0 5 -7 13 -16 16 -10 4 -14 1 -12
-6z"/>
<path d="M14961 4041 c-12 -8 -12 -12 -2 -25 8 -9 19 -16 25 -16 6 0 4 4 -4
10 -8 5 -11 12 -7 16 4 4 13 2 19 -4 20 -20 32 -13 13 8 -20 23 -24 23 -44 11z"/>
<path d="M13910 4030 c0 -5 5 -10 11 -10 5 0 7 5 4 10 -3 6 -8 10 -11 10 -2 0
-4 -4 -4 -10z"/>
<path d="M14710 4030 c0 -5 5 -10 11 -10 5 0 7 5 4 10 -3 6 -8 10 -11 10 -2 0
-4 -4 -4 -10z"/>
<path d="M14880 4020 c6 -11 15 -20 20 -20 6 0 2 9 -7 20 -10 11 -19 20 -21
20 -1 0 2 -9 8 -20z"/>
<path d="M15030 4030 c0 -5 5 -10 11 -10 5 0 7 5 4 10 -3 6 -8 10 -11 10 -2 0
-4 -4 -4 -10z"/>
<path d="M17352 4031 c2 -8 15 -21 29 -30 19 -11 21 -12 9 0 -8 8 -20 21 -28
29 -11 12 -13 12 -10 1z"/>
<path d="M14835 4020 c3 -5 8 -10 11 -10 2 0 4 5 4 10 0 6 -5 10 -11 10 -5 0
-7 -4 -4 -10z"/>
<path d="M15235 4020 c3 -5 8 -10 11 -10 2 0 4 5 4 10 0 6 -5 10 -11 10 -5 0
-7 -4 -4 -10z"/>
<path d="M15370 4020 c0 -5 5 -10 10 -10 6 0 10 5 10 10 0 6 -4 10 -10 10 -5
0 -10 -4 -10 -10z"/>
<path d="M15475 4020 c3 -5 8 -10 11 -10 2 0 4 5 4 10 0 6 -5 10 -11 10 -5 0
-7 -4 -4 -10z"/>
<path d="M16635 4020 c3 -5 8 -10 11 -10 2 0 4 5 4 10 0 6 -5 10 -11 10 -5 0
-7 -4 -4 -10z"/>
<path d="M11286 4012 c-15 -24 80 -270 118 -307 12 -11 53 -41 91 -67 84 -55
157 -73 261 -64 136 11 217 42 429 161 61 34 142 79 180 100 39 21 77 44 86
51 8 8 21 14 27 14 7 0 12 4 12 8 0 5 19 18 43 30 24 12 52 32 63 44 10 12 13
18 5 13 -13 -7 -552 -8 -616 -1 -16 2 -172 7 -345 11 -173 3 -322 8 -332 11
-9 3 -19 1 -22 -4z"/>
<path d="M16890 3999 c0 -5 5 -7 10 -4 6 3 10 8 10 11 0 2 -4 4 -10 4 -5 0
-10 -5 -10 -11z"/>
<path d="M17050 4006 c0 -2 7 -7 16 -10 8 -3 12 -2 9 4 -6 10 -25 14 -25 6z"/>
<path d="M17130 3999 c0 -5 5 -7 10 -4 6 3 10 8 10 11 0 2 -4 4 -10 4 -5 0
-10 -5 -10 -11z"/>
<path d="M17175 4000 c-3 -5 -1 -10 4 -10 6 0 11 5 11 10 0 6 -2 10 -4 10 -3
0 -8 -4 -11 -10z"/>
<path d="M17210 4006 c0 -2 7 -7 16 -10 8 -3 12 -2 9 4 -6 10 -25 14 -25 6z"/>
<path d="M12628 3993 c7 -3 16 -2 19 1 4 3 -2 6 -13 5 -11 0 -14 -3 -6 -6z"/>
<path d="M12668 3993 c7 -3 16 -2 19 1 4 3 -2 6 -13 5 -11 0 -14 -3 -6 -6z"/>
<path d="M12748 3993 c7 -3 16 -2 19 1 4 3 -2 6 -13 5 -11 0 -14 -3 -6 -6z"/>
<path d="M13740 3990 c-9 -6 -10 -10 -3 -10 6 0 15 5 18 10 8 12 4 12 -15 0z"/>
<path d="M13823 3993 c-15 -5 -17 -23 -4 -23 5 0 11 7 15 15 3 8 4 15 3 14 -1
0 -8 -3 -14 -6z"/>
<path d="M16850 3980 c0 -5 5 -10 11 -10 5 0 7 5 4 10 -3 6 -8 10 -11 10 -2 0
-4 -4 -4 -10z"/>
<path d="M17090 3980 c0 -5 5 -10 11 -10 5 0 7 5 4 10 -3 6 -8 10 -11 10 -2 0
-4 -4 -4 -10z"/>
<path d="M17250 3980 c0 -5 5 -10 11 -10 5 0 7 5 4 10 -3 6 -8 10 -11 10 -2 0
-4 -4 -4 -10z"/>
<path d="M17330 3980 c0 -5 5 -10 11 -10 5 0 7 5 4 10 -3 6 -8 10 -11 10 -2 0
-4 -4 -4 -10z"/>
<path d="M17410 3980 c0 -5 5 -10 11 -10 5 0 7 5 4 10 -3 6 -8 10 -11 10 -2 0
-4 -4 -4 -10z"/>
<path d="M16925 3960 c10 -11 20 -20 22 -20 2 0 -2 9 -9 20 -7 11 -17 20 -22
20 -5 0 -1 -9 9 -20z"/>
<path d="M17150 3976 c0 -2 8 -10 18 -17 15 -13 16 -12 3 4 -13 16 -21 21 -21
13z"/>
<path d="M17305 3960 c10 -11 20 -20 23 -20 3 0 -3 9 -13 20 -10 11 -20 20
-23 20 -3 0 3 -9 13 -20z"/>
<path d="M17385 3960 c10 -11 20 -20 22 -20 2 0 -2 9 -9 20 -7 11 -17 20 -22
20 -5 0 -1 -9 9 -20z"/>
<path d="M17465 3960 c10 -11 20 -20 23 -20 3 0 -3 9 -13 20 -10 11 -20 20
-23 20 -3 0 3 -9 13 -20z"/>
<path d="M16820 3966 c0 -2 8 -10 18 -17 15 -13 16 -12 3 4 -13 16 -21 21 -21
13z"/>
<path d="M16980 3966 c0 -2 8 -10 18 -17 15 -13 16 -12 3 4 -13 16 -21 21 -21
13z"/>
<path d="M16625 3950 c3 -5 1 -10 -5 -10 -7 0 -10 -65 -8 -211 l3 -211 40 -24
c22 -13 47 -27 55 -30 8 -4 29 -17 45 -28 17 -12 44 -28 60 -36 17 -8 54 -29
83 -47 29 -18 58 -33 66 -33 7 0 19 -7 26 -15 7 -9 33 -25 56 -35 24 -11 46
-24 49 -30 3 -5 14 -10 23 -10 9 0 28 -9 42 -20 14 -11 32 -19 40 -19 11 0 11
2 2 6 -9 4 -10 8 -2 18 8 10 8 15 -1 21 -8 4 -9 3 -5 -4 15 -24 -19 -11 -53
21 -20 17 -27 22 -17 10 11 -13 16 -23 13 -23 -11 0 -80 50 -93 68 -7 9 -14
12 -14 7 0 -6 6 -17 13 -25 10 -12 9 -12 -8 0 -11 8 -33 25 -49 39 -16 15 -26
20 -22 14 4 -8 -5 -6 -22 4 -17 10 -28 22 -26 28 2 5 -8 11 -22 12 -14 0 -31
7 -38 13 -8 10 -8 11 2 6 23 -13 12 12 -13 28 -30 20 -46 21 -19 1 10 -8 14
-15 9 -15 -17 0 -34 21 -28 36 3 9 -2 14 -17 14 -13 0 -30 8 -39 18 -15 17
-86 62 -98 62 -3 0 0 -7 7 -15 10 -12 9 -15 -7 -15 -19 0 -19 9 -18 220 0 121
-3 220 -8 220 -4 0 -5 -4 -2 -10z"/>
<path d="M16895 3940 c3 -5 8 -10 11 -10 2 0 4 5 4 10 0 6 -5 10 -11 10 -5 0
-7 -4 -4 -10z"/>
<path d="M17135 3940 c3 -5 8 -10 11 -10 2 0 4 5 4 10 0 6 -5 10 -11 10 -5 0
-7 -4 -4 -10z"/>
<path d="M16970 3919 c0 -5 5 -7 10 -4 6 3 10 8 10 11 0 2 -4 4 -10 4 -5 0
-10 -5 -10 -11z"/>
<path d="M17106 3918 c3 -5 10 -6 15 -3 13 9 11 12 -6 12 -8 0 -12 -4 -9 -9z"/>
<path d="M17495 3920 c-3 -5 -1 -10 4 -10 6 0 11 5 11 10 0 6 -2 10 -4 10 -3
0 -8 -4 -11 -10z"/>
<path d="M17530 3926 c0 -2 7 -7 16 -10 8 -3 12 -2 9 4 -6 10 -25 14 -25 6z"/>
<path d="M16686 3895 c4 -8 2 -15 -3 -15 -5 0 -8 -18 -6 -41 2 -27 0 -38 -8
-33 -8 5 -8 1 0 -14 6 -12 19 -26 29 -32 15 -9 14 -10 -5 -5 -29 8 -29 2 1
-30 l24 -26 -3 35 c-2 20 -7 41 -11 47 -5 9 -2 10 9 6 14 -5 15 -3 5 13 -9 14
-9 22 3 36 8 10 9 15 2 11 -7 -5 -17 1 -24 14 -10 19 -9 21 5 16 14 -6 15 -3
6 13 -12 23 -32 27 -24 5z"/>
<path d="M16930 3900 c0 -5 5 -10 11 -10 5 0 7 5 4 10 -3 6 -8 10 -11 10 -2 0
-4 -4 -4 -10z"/>
<path d="M17380 3886 c0 -2 8 -10 18 -17 15 -13 16 -12 3 4 -13 16 -21 21 -21
13z"/>
<path d="M17570 3820 c0 -5 5 -10 11 -10 5 0 7 5 4 10 -3 6 -8 10 -11 10 -2 0
-4 -4 -4 -10z"/>
<path d="M17390 3816 c0 -2 8 -10 18 -17 15 -13 16 -12 3 4 -13 16 -21 21 -21
13z"/>
<path d="M17540 3806 c0 -2 8 -10 18 -17 15 -13 16 -12 3 4 -13 16 -21 21 -21
13z"/>
<path d="M17530 3766 c0 -2 7 -7 16 -10 8 -3 12 -2 9 4 -6 10 -25 14 -25 6z"/>
<path d="M16670 3710 c6 -10 18 -24 28 -29 24 -14 6 -14 -21 1 -20 10 -21 10
-8 -6 9 -10 11 -20 5 -24 -5 -4 -9 -17 -10 -28 0 -16 4 -21 15 -17 12 4 12 1
-2 -10 -16 -14 -16 -16 -2 -31 16 -15 35 -20 63 -17 15 2 16 -16 0 -21 -7 -3
-6 -7 5 -11 9 -3 17 -2 17 4 0 6 9 5 23 -2 17 -10 14 -3 -13 29 -19 22 -40 41
-46 41 -16 1 -24 38 -15 64 6 15 2 30 -12 49 -24 32 -43 38 -27 8z"/>
<path d="M17540 3726 c0 -2 8 -10 18 -17 15 -13 16 -12 3 4 -13 16 -21 21 -21
13z"/>
<path d="M17575 3680 c-3 -5 -1 -10 4 -10 6 0 11 5 11 10 0 6 -2 10 -4 10 -3
0 -8 -4 -11 -10z"/>
<path d="M16712 3631 c2 -8 15 -21 29 -30 19 -11 21 -12 9 0 -8 8 -20 21 -28
29 -11 12 -13 12 -10 1z"/>
<path d="M16800 3541 c0 -6 4 -13 10 -16 6 -3 7 1 4 9 -7 18 -14 21 -14 7z"/>
<path d="M16945 3360 c3 -5 8 -10 11 -10 2 0 4 5 4 10 0 6 -5 10 -11 10 -5 0
-7 -4 -4 -10z"/>
<path d="M16970 3366 c0 -2 7 -7 16 -10 8 -3 12 -2 9 4 -6 10 -25 14 -25 6z"/>
<path d="M17650 3340 c0 -5 5 -10 10 -10 6 0 10 5 10 10 0 6 -4 10 -10 10 -5
0 -10 -4 -10 -10z"/>
<path d="M17220 3180 c0 -5 5 -10 10 -10 6 0 10 5 10 10 0 6 -4 10 -10 10 -5
0 -10 -4 -10 -10z"/>
<path d="M17270 3160 c-9 -6 -10 -10 -3 -10 6 0 15 5 18 10 8 12 4 12 -15 0z"/>
<path d="M17290 3142 c0 -9 44 -32 58 -32 9 1 -41 39 -50 40 -5 0 -8 -4 -8 -8z"/>
</g>
</svg>
