<?xml version="1.0" encoding="UTF-8"?>
<!DOCTYPE svg PUBLIC "-//W3C//DTD SVG 1.1//EN" "http://www.w3.org/Graphics/SVG/1.1/DTD/svg11.dtd">
<svg xmlns="http://www.w3.org/2000/svg" xmlns:xlink="http://www.w3.org/1999/xlink" version="1.1" width="440px" height="90px" viewBox="-0.5 -0.5 440 90" style="background-color: rgb(255, 255, 255);"><defs/><g><rect x="0" y="0" width="440" height="90" fill="rgb(255, 255, 255)" stroke="none" pointer-events="all"/><rect x="20" y="70" width="20" height="10" fill="#0d0d0d" stroke="none" pointer-events="all"/><rect x="10" y="40" width="10" height="30" fill="#0d0d0d" stroke="none" pointer-events="all"/><rect x="20" y="30" width="20" height="10" fill="#0d0d0d" stroke="none" pointer-events="all"/><rect x="40" y="40" width="10" height="10" fill="#0d0d0d" stroke="none" pointer-events="all"/><rect x="40" y="60" width="10" height="10" fill="#0d0d0d" stroke="none" pointer-events="all"/><rect x="50" y="10" width="10" height="70" fill="#0d0d0d" stroke="none" pointer-events="all"/><rect x="80" y="70" width="20" height="10" fill="#0d0d0d" stroke="none" pointer-events="all"/><rect x="70" y="40" width="10" height="30" fill="#0d0d0d" stroke="none" pointer-events="all"/><rect x="80" y="30" width="20" height="10" fill="#0d0d0d" stroke="none" pointer-events="all"/><rect x="100" y="40" width="10" height="10" fill="#0d0d0d" stroke="none" pointer-events="all"/><rect x="100" y="60" width="10" height="10" fill="#0d0d0d" stroke="none" pointer-events="all"/><rect x="110" y="30" width="10" height="50" fill="#0d0d0d" stroke="none" pointer-events="all"/><rect x="140" y="10" width="10" height="70" fill="#0d0d0d" stroke="none" pointer-events="all"/><rect x="130" y="30" width="30" height="10" fill="#0d0d0d" stroke="none" pointer-events="all"/><rect x="180" y="70" width="20" height="10" fill="#0d0d0d" stroke="none" pointer-events="all"/><rect x="180" y="30" width="20" height="10" fill="#0d0d0d" stroke="none" pointer-events="all"/><rect x="200" y="40" width="10" height="10" fill="#0d0d0d" stroke="none" pointer-events="all"/><rect x="200" y="60" width="10" height="10" fill="#0d0d0d" stroke="none" pointer-events="all"/><rect x="210" y="30" width="10" height="50" fill="#0d0d0d" stroke="none" pointer-events="all"/><rect x="170" y="40" width="10" height="30" fill="#0d0d0d" stroke="none" pointer-events="all"/><rect x="140" y="70" width="20" height="10" fill="#0d0d0d" stroke="none" pointer-events="all"/><rect x="240" y="10" width="10" height="70" fill="#0d0d0d" stroke="none" pointer-events="all"/><rect x="270" y="30" width="10" height="50" fill="#0d0d0d" stroke="none" pointer-events="all"/><rect x="230" y="30" width="30" height="10" fill="#0d0d0d" stroke="none" pointer-events="all"/><rect x="240" y="10" width="20" height="10" fill="#0d0d0d" stroke="none" pointer-events="all"/><rect x="270" y="10" width="10" height="10" fill="#0d0d0d" stroke="none" pointer-events="all"/><rect x="290" y="10" width="10" height="70" fill="#0d0d0d" stroke="none" pointer-events="all"/><rect x="310" y="10" width="10" height="70" fill="#0d0d0d" stroke="none" pointer-events="all"/><rect x="340" y="50" width="40" height="10" fill="#0d0d0d" stroke="none" pointer-events="all"/><rect x="330" y="40" width="10" height="30" fill="#0d0d0d" stroke="none" pointer-events="all"/><rect x="340" y="70" width="40" height="10" fill="#0d0d0d" stroke="none" pointer-events="all"/><rect x="340" y="30" width="30" height="10" fill="#0d0d0d" stroke="none" pointer-events="all"/><rect x="370" y="40" width="10" height="10" fill="#0d0d0d" stroke="none" pointer-events="all"/><rect x="390" y="30" width="10" height="50" fill="#0d0d0d" stroke="none" pointer-events="all"/><rect x="400" y="50" width="10" height="10" fill="#0d0d0d" stroke="none" pointer-events="all"/><rect x="410" y="40" width="10" height="10" fill="#0d0d0d" stroke="none" pointer-events="all"/><rect x="419" y="30" width="10" height="10" fill="#0d0d0d" stroke="none" pointer-events="all"/></g></svg>