<svg id="alliance-auth-svg-sprite" width="0" height="0" display="none" xmlns="http://www.w3.org/2000/svg">
    <defs>
        <!-- Alliance Auth Logo -->
        <symbol id="aa-logo" xmlns="http://www.w3.org/2000/svg" viewBox="0 0 256 256">
            <g transform="translate(41.953499,36.607802)">
                <path style="display:inline;fill:#e14852;stroke-width:0.32" d="M 131.07236,159.67687 C 109.26615,147.02458 91.302022,136.55002 91.152067,136.40007 l -0.272649,-0.27265 23.786292,-13.82371 c 13.08247,-7.60304 23.9186,-13.82025 24.08029,-13.81602 l 0.294,0.008 15.93273,36.83413 c 8.763,20.25877 15.891,36.95054 15.84,37.09283 l -0.0927,0.25869 z" />
                <path style="display:inline;fill:#436195;stroke-width:0.32" d="m 1.28,182.46369 c 0,-0.16969 17.354495,-40.46543 38.565546,-89.546103 L 78.411088,3.68 C 79.919052,1.4903841 82.294641,0.02199886 86.08,0.01224344 89.865359,0.00248802 92.288,1.4677954 93.674477,3.5158445 l 21.668143,50.1206965 21.66814,50.120699 -0.26538,0.23285 C 136.59942,104.11816 106.528,121.61441 69.92,142.87065 33.312,164.12688 2.892,181.80046 2.32,182.14527 l -1.04,0.62693 z" />
            </g>
        </symbol>

        <!-- Loading Spinner -->
        <symbol id="aa-loading-spinner" xmlns="http://www.w3.org/2000/svg" stroke="currentColor" viewBox="0 0 24 24">
            <g>
                <circle cx="12" cy="12" r="10" fill="none" stroke-width="1" stroke-linecap="round">
                    <animate attributeName="stroke-dasharray" dur="1.5s" calcMode="spline" values="0 150;42 150;42 150;42 150" keyTimes="0;0.475;0.95;1" keySplines="0.42,0,0.58,1;0.42,0,0.58,1;0.42,0,0.58,1" repeatCount="indefinite" />
                    <animate attributeName="stroke-dashoffset" dur="1.5s" calcMode="spline" values="0;-16;-59;-59" keyTimes="0;0.475;0.95;1" keySplines="0.42,0,0.58,1;0.42,0,0.58,1;0.42,0,0.58,1" repeatCount="indefinite" />
                </circle>
                <animateTransform attributeName="transform" type="rotate" dur="2s" values="0 12 12;360 12 12" repeatCount="indefinite" />
            </g>
        </symbol>

        <!-- Mumble Logo -->
        <symbol id="aa-mumble-logo" xmlns="http://www.w3.org/2000/svg" viewBox="0 0 400 400">
            <defs>
                <radialGradient id="c" cx="206.64" cy="214.43" r="190.25" gradientTransform="matrix(.97267 .016175 -.016656 .97474 9.2188 2.0744)" gradientUnits="userSpaceOnUse">
                    <stop stop-opacity="0" offset="0" />
                    <stop stop-opacity=".019608" offset=".81721" />
                    <stop stop-opacity=".1451" offset=".89931" />
                    <stop stop-opacity=".20784" offset=".91199" />
                    <stop stop-opacity=".25098" offset=".95598" />
                    <stop stop-opacity=".33333" offset="1" />
                </radialGradient>
            </defs>
            <g transform="translate(0 -652.36)">
                <path transform="matrix(1.0811 0 0 1.1043 -22.438 617.98)" d="m385.62 214.43c0 96.124-80.133 174.05-178.98 174.05-98.849 0-178.98-77.924-178.98-174.05s80.133-174.05 178.98-174.05c98.849 0 178.98 77.924 178.98 174.05z" fill="#1a1a1a" stroke="#000" stroke-linejoin="round" stroke-width="4.576" />
                <path transform="matrix(1.0706 0 0 1.101 -22.082 583.62)" d="m385.62 214.43c0 96.124-80.133 174.05-178.98 174.05-98.849 0-178.98-77.924-178.98-174.05s80.133-174.05 178.98-174.05c98.849 0 178.98 77.924 178.98 174.05z" opacity="0" />
                <path transform="matrix(1.0423 0 0 1.0695 -13.736 622.74)" d="m385.62 214.43c0 96.124-80.133 174.05-178.98 174.05-98.849 0-178.98-77.924-178.98-174.05s80.133-174.05 178.98-174.05c98.849 0 178.98 77.924 178.98 174.05z" fill="#fff" opacity=".9" />
                <path transform="matrix(1.0641 0 0 1.0787 -20.794 620.64)" d="m385.62 214.43c0 96.124-80.133 174.05-178.98 174.05-98.849 0-178.98-77.924-178.98-174.05s80.133-174.05 178.98-174.05c98.849 0 178.98 77.924 178.98 174.05z" fill="#fff" stroke="#333" stroke-linejoin="round" stroke-width="1.4127" />
                <path transform="matrix(1.0857 0 0 1.109 -24.345 616.21)" d="m385.62 214.43c0 96.124-80.133 174.05-178.98 174.05-98.849 0-178.98-77.924-178.98-174.05s80.133-174.05 178.98-174.05c98.849 0 178.98 77.924 178.98 174.05z" fill="none" stroke="#000" stroke-linejoin="round" stroke-width="1.8304" />
            </g>
            <g>
                <path transform="matrix(1.0765 0 0 1.1009 -20.514 -34.696)" d="m385.62 214.43a178.98 174.05 0 1 1-357.96 0 178.98 174.05 0 1 1 357.96 0z" fill="url(#c)" opacity=".75" />
            </g>
            <g fill-rule="evenodd">
                <path transform="matrix(1.05 0 0 1.05 -5.3555 .50955)" d="m152.41 31.61c-24.652-0.61541-49.623 15.705-55.853 40.126-1.4511 5.9204-2.0429 11.533-2.1475 17.251v63.623h25c0.0881-22.382-0.12668-44.644 0.1701-67.072 0.76858-14.243 11.773-29.258 27.049-29.084 0.11203 22.669-0.22918 45.351 0.18004 68.011 1.3028 18.426 18.762 33.676 37.243 32.114 11.546-0.2802 23.178 0.67313 34.648-0.72475 17.466-3.2744 29.553-21.063 27.929-38.449v-60.857c15.888-1.1603 27.938 14.263 28.642 29.084 0.29501 22.427 0.0825 44.692 0.1701 67.072h25v-67.5c-0.81797-7.2761-1.9718-16.18-5.9149-23.198-10.229-20.751-34.153-31.948-56.717-30.261-6.591-0.83713-13.681 3.6197-15.487 9.8666 0.10876 26.739 0.18577 53.486-0.015 80.22-0.75343 11.2-11.79 19.764-22.805 18.342-7.7921 0.33854-16.594 0.0136-21.908-6.6817-7.1623-7.5704-4.7632-18.405-5.1836-27.812 0.0193-21.719-0.0713-43.418 0.1249-65.1-3.2593-6.5913-10.503-9.9936-17.679-8.9119l-1.1877-0.01641-1.2582-0.04042h2.5e-4z" stroke="#fff" />
                <path d="m107.27 156.26v177.84c-35.128-3.8535-62.737-42.188-62.737-88.922 0-46.734 27.609-85.068 62.737-88.922z" fill="url(#l)" opacity=".9666" />
            </g>
            <g fill-rule="evenodd" stroke="#fff">
                <path transform="matrix(1.05 0 0 1.05 -5.3555 .50955)" d="m290.42 313.16c-0.69916-7e-3 -3.3105-0.57507-3.9404-0.16697 0 0-1.0356 3.0168-4.6042 5.6725-3.1327 2.3314-6.1076 4.5662-9.2946 6.6625-2.8616 1.8823-5.9328 3.9177-8.8098 5.3024-2.264 1.0896-4.114 1.2482-4.114 1.2482h-32.22c-2.0127 0-3.6618 1.5872-3.6618 3.5625v0.875c0 1.9753 1.649 3.5938 3.6618 3.5938h33.879c0.77968 0 3.5971-0.82022 5.2725-1.5553 4.1768-1.8326 6.899-4.166 11.71-7.0274 5.1144-3.2712 14.573-10.886 14.573-10.886 1.6797-1.0883 2.1278-3.289 1.0189-4.9375l-0.47763-0.75c-0.69304-1.0303-1.8278-1.5824-2.9931-1.5938z" />
                <path transform="matrix(1.05 0 0 1.05 -5.3555 .50955)" d="m288.25 148.44v169.38c33.455-3.67 59.75-40.179 59.75-84.688s-26.295-81.018-59.75-84.688z" opacity=".9666" />
                <path transform="matrix(1.05 0 0 1.05 -5.3555 .50955)" d="m106.22 149.34v169.38c-33.455-3.67-59.75-40.179-59.75-84.688s26.295-81.018 59.75-84.688z" opacity=".9666" />
                <path transform="matrix(1.3048 0 0 1.2146 -20.461 -43.8)" d="m194.74 325.86a22.13 13.831 0 1 1-44.26 0 22.13 13.831 0 1 1 44.26 0z" opacity=".9666" />
                <rect transform="matrix(1.0433 0 0 1.05 -4.6563 .094873)" x="274.72" y="146.09" width="13.329" height="171.95" rx="3.8877" ry="3.5401" opacity=".9666" stroke-width="1.0538" />
                <rect transform="matrix(1.0433 0 0 1.05 -3.8348 .094873)" x="106.56" y="147.08" width="13.063" height="171.96" rx="3.8101" ry="3.5403" opacity=".9666" stroke-width="1.0432" />
            </g>
            <g>
                <rect x="131.64" y="188.83" width="140.83" height="111.89" fill-rule="evenodd" />
                <path transform="matrix(1.1007 0 0 2.0001 -23.812 -190.28)" d="m189.84 226.69c-4e-5 2.3125-0.43754 4.3438-1.3125 6.0938-0.87504 1.75-2.0521 3.1979-3.5312 4.3438-1.75 1.375-3.6719 2.3542-5.7656 2.9375-2.0938 0.58334-4.7552 0.875-7.9844 0.875h-18.625v-46.531h16.438c3.4166 5e-5 6.0052 0.13026 7.7656 0.39063 1.7604 0.26046 3.4114 0.80734 4.9531 1.6406 1.6666 0.89588 2.9114 2.0938 3.7344 3.5938 0.82288 1.5 1.2343 3.2292 1.2344 5.1875-4e-5 2.2709-0.56775 4.2917-1.7031 6.0625-1.1354 1.7709-2.7032 3.073-4.7031 3.9062v0.25c2.875 0.6042 5.177 1.8386 6.9062 3.7031 1.7291 1.8646 2.5937 4.3802 2.5938 7.5469zm-14.969-19.125c-3e-5 -0.74996-0.19274-1.5208-0.57813-2.3125-0.38544-0.79163-0.9844-1.3645-1.7969-1.7188-0.77086-0.33329-1.6823-0.51558-2.7344-0.54687-1.0521-0.0312-2.6198-0.0468-4.7031-0.0469h-0.8125v9.8438h1.4688c2 3e-5 3.401-0.0208 4.2031-0.0625 0.80207-0.0416 1.6302-0.26038 2.4844-0.65625 0.93747-0.43747 1.5833-1.0416 1.9375-1.8125 0.35414-0.7708 0.53122-1.6666 0.53125-2.6875zm2.9375 18.906c-3e-5 -1.4375-0.2917-2.5625-0.875-3.375-0.58336-0.81248-1.4584-1.4271-2.625-1.8438-0.70836-0.27081-1.6823-0.42185-2.9219-0.45312-1.2396-0.0312-2.9011-0.0469-4.9844-0.0469h-2.1562v11.656h0.625c3.0416 1e-5 5.1458-0.0208 6.3125-0.0625 1.1666-0.0416 2.3541-0.3229 3.5625-0.84375 1.0625-0.45832 1.8385-1.1302 2.3281-2.0156 0.48956-0.88541 0.73435-1.8906 0.73438-3.0156z" fill="url(#f)" />
                <path transform="matrix(1.1007 0 0 2.0001 -28.291 -190.6)" d="m189.84 226.69c-4e-5 2.3125-0.43754 4.3438-1.3125 6.0938-0.87504 1.75-2.0521 3.1979-3.5312 4.3438-1.75 1.375-3.6719 2.3542-5.7656 2.9375-2.0938 0.58334-4.7552 0.875-7.9844 0.875h-18.625v-46.531h16.438c3.4166 5e-5 6.0052 0.13026 7.7656 0.39063 1.7604 0.26046 3.4114 0.80734 4.9531 1.6406 1.6666 0.89588 2.9114 2.0938 3.7344 3.5938 0.82288 1.5 1.2343 3.2292 1.2344 5.1875-4e-5 2.2709-0.56775 4.2917-1.7031 6.0625-1.1354 1.7709-2.7032 3.073-4.7031 3.9062v0.25c2.875 0.6042 5.177 1.8386 6.9062 3.7031 1.7291 1.8646 2.5937 4.3802 2.5938 7.5469zm-14.969-19.125c-3e-5 -0.74996-0.19274-1.5208-0.57813-2.3125-0.38544-0.79163-0.9844-1.3645-1.7969-1.7188-0.77086-0.33329-1.6823-0.51558-2.7344-0.54687-1.0521-0.0312-2.6198-0.0468-4.7031-0.0469h-0.8125v9.8438h1.4688c2 3e-5 3.401-0.0208 4.2031-0.0625 0.80207-0.0416 1.6302-0.26038 2.4844-0.65625 0.93747-0.43747 1.5833-1.0416 1.9375-1.8125 0.35414-0.7708 0.53122-1.6666 0.53125-2.6875zm2.9375 18.906c-3e-5 -1.4375-0.2917-2.5625-0.875-3.375-0.58336-0.81248-1.4584-1.4271-2.625-1.8438-0.70836-0.27081-1.6823-0.42185-2.9219-0.45312-1.2396-0.0312-2.9011-0.0469-4.9844-0.0469h-2.1562v11.656h0.625c3.0416 1e-5 5.1458-0.0208 6.3125-0.0625 1.1666-0.0416 2.3541-0.3229 3.5625-0.84375 1.0625-0.45832 1.8385-1.1302 2.3281-2.0156 0.48956-0.88541 0.73435-1.8906 0.73438-3.0156z" fill="#fff" />
                <path transform="matrix(1.1007 0 0 2.0001 -23.812 -190.28)" d="m227.56 240.94h-31.062v-46.531h11.688v37.656h19.375z" fill="url(#e)" />
                <path d="m187.31 197.56v94.531h14.125 0.0625 21.375v-19.25h-21.375v-75.281h-14.188z" fill="#fff" />
                <path transform="matrix(1.1007 0 0 2.0001 -23.812 -190.28)" d="m233.12 240.94v-46.531h31.469v8.875h-19.844v8.1562h18.281v8.875h-18.281v11.75h19.844v8.875z" fill="url(#d)" />
                <path d="m227.81 197.5v94.531h14.188 21.375v-19.25h-21.375v-22.281h19.656v-18.656h-19.656v-15.094h21.375v-19.25h-21.375-0.0625-14.125z" fill="#fff" />
            </g>
            <g fill-rule="evenodd">
                <path d="m155.37 33.01c-25.884-0.64618-52.104 16.49-58.645 42.133-1.5237 6.2165-2.1451 12.11-2.2549 18.114v66.804h26.25c0.0925-23.501-0.13301-46.876 0.17861-70.426 0.807-14.955 12.362-30.721 28.401-30.539 0.11763 23.802-0.24064 47.619 0.18905 71.412 1.368 19.347 19.7 35.36 39.106 33.72 12.123-0.29421 24.336 0.70678 36.38-0.76099 18.339-3.4381 31.031-22.116 29.325-40.372v-63.9c16.682-1.2183 29.334 14.976 30.074 30.539 0.30976 23.549 0.0866 46.927 0.17861 70.426h26.25v-70.875c-0.85887-7.6399-2.0704-16.989-6.2106-24.358-10.74-21.789-35.861-33.545-59.553-31.774-6.9206-0.87899-14.366 3.8007-16.261 10.36 0.1142 28.075 0.19506 56.161-0.0157 84.231-0.7911 11.76-12.38 20.752-23.945 19.259-8.1817 0.35546-17.423 0.0143-23.004-7.0158-7.5204-7.949-5.0013-19.326-5.4428-29.202 0.0203-22.805-0.0749-45.589 0.13115-68.355-3.4223-6.9208-11.028-10.493-18.563-9.3575l-1.2471-0.01723-1.3211-0.04244h2.6e-4z" fill="url(#i)" />
                <path d="m154.53 34.269c-31.655 0-56.169 21.233-59.981 48.759h26.972c3.6448-12.426 13.114-21.517 24.511-22.575 0.74035-0.69976 1.772-1.1484 2.9203-1.1484h26.611l0.0984-15.619s-2.3784-3.7253-4.2984-5.4797c-2.1754-1.9877-5.1118-3.4283-8.0062-3.7406-2.4252-0.26165-5.1996-0.04115-8.8266-0.19688z" fill="url(#j)" />
                <path transform="matrix(1.3048 0 0 1.2146 -20.434 -43.907)" d="m194.74 325.86a22.13 13.831 0 1 1-44.26 0 22.13 13.831 0 1 1 44.26 0z" fill="url(#b)" opacity=".9666" />
                <path d="m298.66 157.26v177.84c35.128-3.8535 62.738-42.188 62.738-88.922 0-46.734-27.609-85.068-62.738-88.922z" fill="url(#k)" opacity=".9666" />
                <path d="m247.97 33.422c31.655 0 56.169 21.233 59.981 48.759h-26.972c-3.6448-12.426-13.114-21.517-24.511-22.575-0.74036-0.69976-1.772-1.1484-2.9203-1.1484h-26.611l-0.0984-15.619s2.3784-3.7253 4.2984-5.4797c2.1754-1.9877 5.1118-3.4283 8.0062-3.7406 2.4252-0.26165 5.1996-0.04115 8.8266-0.19688z" fill="url(#h)" />
                <path d="m107.92 156.15v177.84c-35.128-3.8535-62.737-42.188-62.737-88.922 0-46.734 27.609-85.068 62.737-88.922z" fill="url(#g)" opacity=".9666" />
            </g>
        </symbol>
    </defs>
</svg>
