<?xml version="1.0" encoding="UTF-8" standalone="no"?>
<!-- Generator: Adobe Illustrator 19.2.1, SVG Export Plug-In . SVG Version: 6.00 Build 0)  -->

<svg
   version="1.1"
   id="Layer_1"
   x="0px"
   y="0px"
   viewBox="0 0 20 20"
   style="enable-background:new 0 0 20 20;"
   xml:space="preserve"
   sodipodi:docname="plone_spinner.svg"
   inkscape:version="1.2.1 (9c6d41e410, 2022-07-14)"
   xmlns:inkscape="http://www.inkscape.org/namespaces/inkscape"
   xmlns:sodipodi="http://sodipodi.sourceforge.net/DTD/sodipodi-0.dtd"
   xmlns="http://www.w3.org/2000/svg"
   xmlns:svg="http://www.w3.org/2000/svg"><defs
   id="defs90" /><sodipodi:namedview
   id="namedview88"
   pagecolor="#ffffff"
   bordercolor="#000000"
   borderopacity="0.25"
   inkscape:showpageshadow="2"
   inkscape:pageopacity="0.0"
   inkscape:pagecheckerboard="0"
   inkscape:deskcolor="#d1d1d1"
   showgrid="false"
   inkscape:zoom="30.797036"
   inkscape:cx="11.981673"
   inkscape:cy="11.868025"
   inkscape:window-width="3440"
   inkscape:window-height="1371"
   inkscape:window-x="0"
   inkscape:window-y="32"
   inkscape:window-maximized="1"
   inkscape:current-layer="g2070" />
<style
   type="text/css"
   id="style63">
	.st0{fill:none;}
	.st1{fill:#F48220;}
	.st2{fill:#FFFFFF;}
</style>
<g
   id="g73">
	<circle
   class="st0"
   cx="10"
   cy="10"
   r="10"
   id="circle65" />
	<g
   id="g71"
   style="fill:#f1f1f1;fill-opacity:1">
		<g
   id="g69"
   style="fill:#f1f1f1;fill-opacity:1">
			<circle
   class="st1"
   cx="10"
   cy="10"
   r="10"
   id="circle67"
   style="fill:#f1f1f1;fill-opacity:1" />
		</g>
	</g>
<g
   id="g2070"
   transform="matrix(0.53755738,0,0,0.53755738,0.86161631,0.85165809)"><path
     d="m 16.977523,0.24095147 c -9.2629169,0 -16.73280045,7.51449143 -16.73280045,16.77740253 0,9.262912 7.46988355,16.777403 16.73280045,16.777403 9.262917,0 16.777413,-7.514491 16.777413,-16.777403 0,-9.2629111 -7.514496,-16.77740253 -16.777413,-16.77740253 z m 0,4.14972823 c 6.966927,0 12.627682,5.6607523 12.627682,12.6276743 0,6.966923 -5.660755,12.583053 -12.627682,12.583053 -6.966937,0 -12.5830596,-5.61613 -12.5830596,-12.583053 0,-6.966922 5.6161226,-12.6276743 12.5830596,-12.6276743 z"
     style="color:#000000;fill:#000000;fill-opacity:0.0833333;stroke:#565656;stroke-width:0.5;stroke-opacity:0.196078"
     id="path2058" /><path
     d="M 31.677259,17.003529 A 14.680208,14.680199 0 0 1 20.796571,31.183505"
     style="fill:none;stroke:#006c9d;stroke-width:4.49068339;stroke-linecap:round;stroke-opacity:1;stroke-dasharray:none"
     id="path2060" /></g></g>


</svg>
