<?xml version="1.0" encoding="UTF-8" standalone="no"?>
<!-- Created with Inkscape (http://www.inkscape.org/) -->

<svg
   xmlns:dc="http://purl.org/dc/elements/1.1/"
   xmlns:cc="http://creativecommons.org/ns#"
   xmlns:rdf="http://www.w3.org/1999/02/22-rdf-syntax-ns#"
   xmlns:svg="http://www.w3.org/2000/svg"
   xmlns="http://www.w3.org/2000/svg"
   xmlns:sodipodi="http://sodipodi.sourceforge.net/DTD/sodipodi-0.dtd"
   xmlns:inkscape="http://www.inkscape.org/namespaces/inkscape"
   width="100%"
   height="100%"
   viewBox="0 0 99.999997 99.999997"
   id="svg6928"
   version="1.1"
   inkscape:version="0.91 r13725"
   sodipodi:docname="wikipedia_button.svg">
  <defs
     id="defs6930" />
  <sodipodi:namedview
     id="base"
     pagecolor="#838383"
     bordercolor="#666666"
     borderopacity="1.0"
     inkscape:pageopacity="0"
     inkscape:pageshadow="2"
     inkscape:zoom="5.12"
     inkscape:cx="68.631442"
     inkscape:cy="32.529149"
     inkscape:document-units="px"
     inkscape:current-layer="layer1"
     showgrid="false"
     fit-margin-top="0"
     fit-margin-left="0"
     fit-margin-right="0"
     fit-margin-bottom="0"
     inkscape:window-width="1920"
     inkscape:window-height="1016"
     inkscape:window-x="0"
     inkscape:window-y="27"
     inkscape:window-maximized="1"
     inkscape:showpageshadow="false" />
  <metadata
     id="metadata6933">
    <rdf:RDF>
      <cc:Work
         rdf:about="">
        <dc:format>image/svg+xml</dc:format>
        <dc:type
           rdf:resource="http://purl.org/dc/dcmitype/StillImage" />
        <dc:title></dc:title>
      </cc:Work>
    </rdf:RDF>
  </metadata>
  <g
     inkscape:label="Layer 1"
     inkscape:groupmode="layer"
     id="layer1"
     transform="translate(-384.28571,-505.21936)">
    <circle
       style="opacity:1;fill:#ffffff;fill-opacity:1;stroke:#000000;stroke-width:0.99009901;stroke-linecap:round;stroke-linejoin:miter;stroke-miterlimit:4;stroke-dasharray:none;stroke-dashoffset:0;stroke-opacity:0.55208333"
       id="path4136-5"
       cx="434.28571"
       cy="555.21936"
       r="49.504951" />
    <path
       inkscape:connector-curvature="0"
       d="m 422.09291,581.84782 2.94194,0 9.82251,-19.05494 8.08052,19.05494 2.83235,0 16.78763,-38.6249 c 0.94107,-2.16685 2.77557,-3.46807 4.72522,-3.7627 l 0,-2.30039 -13.57448,0 0,2.30119 c 1.80114,0.40065 3.71307,1.07568 4.56321,2.97653 l -12.32687,28.43311 c -2.2284,-4.73911 -4.51318,-9.91779 -6.69392,-15.08576 2.25083,-4.782 4.0891,-9.2237 6.85037,-13.58878 1.61436,-2.56829 4.23404,-2.62865 5.5841,-2.75492 l 0,-2.28121 -14.42979,0 0,2.28121 c 1.80035,0.002 5.54678,0.16193 3.87627,3.67257 l -4.1848,8.79884 -4.43257,-9.78756 c -0.69008,-1.52399 0.65041,-2.53931 2.8387,-2.6603 l -0.0161,-2.30277 -16.23966,0 0,2.28121 c 1.93488,0.0636 4.66288,0.0532 5.66986,1.69373 3.10078,5.69607 5.17392,11.61292 8.00071,17.42058 l -7.31495,13.67891 -12.2951,-28.26317 c -1.38549,-3.18495 1.90378,-4.211 4.04065,-4.47704 l -0.024,-2.33458 -17.31495,0 0,2.28121 c 2.3908,0.7905 5.4749,4.3472 6.33577,6.14715 6.46799,13.52843 9.72481,22.59846 15.89857,36.26031 z"
       id="path4"
       style="display:inline;fill:#000000;fill-opacity:1" />
  </g>
</svg>
