<svg width="770" height="147" xmlns="http://www.w3.org/2000/svg" xmlns:xlink="http://www.w3.org/1999/xlink" xml:space="preserve" overflow="hidden"><defs><clipPath id="clip0"><rect x="106" y="2222" width="770" height="147"/></clipPath></defs><g clip-path="url(#clip0)" transform="translate(-106 -2222)"><path d="M178.509 2284.45C171.331 2284.45 167.32 2277.66 167.32 2265.38 167.32 2252.91 171.331 2246.3 178.509 2246.3 185.688 2246.3 189.699 2253 189.699 2265.38 189.685 2277.84 185.675 2284.45 178.509 2284.45M178.509 2241.18C163.871 2241.18 155.77 2252.07 155.77 2265.38 155.77 2278.68 163.885 2289.57 178.509 2289.57 193.148 2289.57 201.249 2278.68 201.249 2265.38 201.249 2252.06 193.134 2241.18 178.509 2241.18M280.175 2241.18C273.277 2241.18 269.454 2244.16 267.315 2247.97L266.754 2247.97 266.754 2242.11 255.751 2242.11 255.751 2288.64 266.754 2288.64 266.754 2258.57C266.754 2251.68 270.296 2247.68 275.978 2247.68 281.472 2247.68 283.905 2251.31 283.905 2256.79L283.905 2288.61 294.907 2288.61 294.907 2256.71C294.894 2247.13 289.867 2241.18 280.175 2241.18M319.866 2241.18C309.706 2241.18 302.059 2245.46 302.059 2254.58 302.059 2262.31 307.366 2266.48 313.342 2267.98L322.66 2270.3C327.606 2271.52 329.839 2273.28 329.839 2277.19 329.839 2281.94 326.483 2284.64 320.614 2284.64 314.278 2284.64 311.016 2281.57 309.987 2273.84L300.107 2276.63C300.669 2284.64 308.128 2289.56 319.398 2289.56 331.977 2289.56 338.782 2283.7 338.782 2274.4 338.782 2265.66 332.726 2262.03 326.389 2260.44L317.446 2258.21C312.968 2257.09 311.016 2255.05 311.016 2252.07 311.016 2248.35 314.184 2246.12 318.943 2246.12 324.531 2246.12 327.98 2249.19 328.448 2255.05L337.766 2252.26C336.643 2245.73 330.213 2241.18 319.866 2241.18M366.093 2284.45C358.914 2284.45 354.904 2277.66 354.904 2265.38 354.904 2252.91 358.914 2246.3 366.093 2246.3 373.272 2246.3 377.283 2253 377.283 2265.38 377.269 2277.84 373.272 2284.45 366.093 2284.45M366.093 2241.18C351.455 2241.18 343.354 2252.07 343.354 2265.38 343.354 2278.68 351.468 2289.57 366.093 2289.57 380.732 2289.57 388.833 2278.68 388.833 2265.38 388.833 2252.06 380.718 2241.18 366.093 2241.18M419.767 2241.18C412.869 2241.18 409.046 2244.16 406.907 2247.97L406.345 2247.97 406.345 2242.11 395.343 2242.11 395.343 2288.64 406.345 2288.64 406.345 2258.57C406.345 2251.68 409.888 2247.68 415.569 2247.68 421.064 2247.68 423.497 2251.31 423.497 2256.79L423.497 2288.61 434.499 2288.61 434.499 2256.71C434.499 2247.13 429.459 2241.18 419.767 2241.18M583.127 2284.45C575.949 2284.45 571.938 2277.66 571.938 2265.38 571.938 2252.91 575.949 2246.3 583.127 2246.3 590.306 2246.3 594.317 2253 594.317 2265.38 594.317 2277.84 590.306 2284.45 583.127 2284.45M583.127 2241.18C568.489 2241.18 560.388 2252.07 560.388 2265.38 560.388 2278.68 568.503 2289.57 583.127 2289.57 597.766 2289.57 605.867 2278.68 605.867 2265.38 605.867 2252.06 597.766 2241.18 583.127 2241.18M684.793 2241.18C677.895 2241.18 674.072 2244.16 671.933 2247.97L671.371 2247.97 671.371 2242.11 660.369 2242.11 660.369 2288.64 671.371 2288.64 671.371 2258.57C671.371 2251.68 674.914 2247.68 680.596 2247.68 686.09 2247.68 688.523 2251.31 688.523 2256.79L688.523 2288.61 699.525 2288.61 699.525 2256.71C699.525 2247.13 694.485 2241.18 684.793 2241.18M724.497 2241.18C714.337 2241.18 706.69 2245.46 706.69 2254.58 706.69 2262.31 711.998 2266.48 717.973 2267.98L727.291 2270.3C732.224 2271.52 734.47 2273.28 734.47 2277.19 734.47 2281.94 731.114 2284.64 725.246 2284.64 718.909 2284.64 715.647 2281.57 714.618 2273.84L704.739 2276.63C705.3 2284.64 712.76 2289.56 724.029 2289.56 736.609 2289.56 743.413 2283.7 743.413 2274.4 743.413 2265.66 737.357 2262.03 731.021 2260.44L722.077 2258.21C717.599 2257.09 715.647 2255.05 715.647 2252.07 715.647 2248.35 718.816 2246.12 723.575 2246.12 729.163 2246.12 732.612 2249.19 733.079 2255.05L742.397 2252.26C741.274 2245.73 734.844 2241.18 724.497 2241.18M770.711 2284.45C763.532 2284.45 759.522 2277.66 759.522 2265.38 759.522 2252.91 763.532 2246.3 770.711 2246.3 777.89 2246.3 781.9 2253 781.9 2265.38 781.9 2277.84 777.89 2284.45 770.711 2284.45M770.711 2241.18C756.073 2241.18 747.972 2252.07 747.972 2265.38 747.972 2278.68 756.086 2289.57 770.711 2289.57 785.35 2289.57 793.451 2278.68 793.451 2265.38 793.451 2252.06 785.35 2241.18 770.711 2241.18M824.385 2241.18C817.487 2241.18 813.664 2244.16 811.525 2247.97L810.963 2247.97 810.963 2242.11 799.961 2242.11 799.961 2288.64 810.963 2288.64 810.963 2258.57C810.963 2251.68 814.506 2247.68 820.187 2247.68 825.682 2247.68 828.115 2251.31 828.115 2256.79L828.115 2288.61 839.117 2288.61 839.117 2256.71C839.117 2247.13 834.09 2241.18 824.385 2241.18M149.246 2223.49 137.683 2223.49 137.683 2271.6C137.683 2279.42 134.702 2284.06 127.616 2284.06 120.625 2284.06 117.55 2279.14 117.55 2270.66L117.55 2261.73 106 2264.63 106 2268.63C106 2280.82 112.056 2290.13 127.63 2290.13 143.19 2290.13 149.246 2280.83 149.246 2268.63L149.246 2223.49M218.761 2223.49 207.759 2223.49 207.759 2288.63 218.761 2288.63 218.761 2258.57C218.761 2251.68 222.304 2247.68 227.986 2247.68 233.48 2247.68 235.913 2251.31 235.913 2256.79L235.913 2288.61 246.902 2288.61 246.902 2256.71C246.902 2247.13 241.862 2241.18 232.17 2241.18 225.272 2241.18 221.448 2244.16 219.309 2247.97L218.748 2247.97 218.748 2223.49M553.864 2223.49 542.314 2223.49 542.314 2271.6C542.314 2279.42 539.333 2284.06 532.248 2284.06 525.256 2284.06 522.181 2279.14 522.181 2270.66L522.181 2261.73 510.631 2264.62 510.631 2268.62C510.631 2280.81 516.687 2290.12 532.261 2290.12 547.822 2290.12 553.878 2280.82 553.878 2268.62L553.878 2223.49M623.379 2223.49 612.377 2223.49 612.377 2288.63 623.379 2288.63 623.379 2258.57C623.379 2251.68 626.922 2247.68 632.603 2247.68 638.098 2247.68 640.531 2251.31 640.531 2256.79L640.531 2288.61 651.533 2288.61 651.533 2256.71C651.533 2247.13 646.507 2241.18 636.801 2241.18 629.903 2241.18 626.08 2244.16 623.941 2247.97L623.379 2247.97 623.379 2223.49M470.74 2283.33C461.797 2283.33 456.289 2276.07 456.289 2268.34 456.289 2263.49 458.428 2259.04 461.971 2256.53L483.039 2279.51C479.136 2281.83 474.751 2283.33 470.74 2283.33M491.247 2271.88 472.986 2251.78C476.248 2250.47 479.416 2250.01 482.023 2250.01 489.576 2250.01 494.228 2254.39 494.228 2261.92 494.228 2265.27 493.293 2268.71 491.247 2271.88M470.46 2249.08 466.449 2244.61C462.906 2240.7 461.877 2238.28 461.877 2235.4 461.877 2230.01 465.326 2226.94 470.727 2226.94 476.221 2226.94 479.483 2230.1 479.483 2235.87 479.51 2241.18 476.89 2246.2 470.46 2249.08M471.021 2222C458.161 2222 451.824 2229.17 451.824 2238.1 451.824 2242.93 453.87 2247.77 459.284 2253.63L459.377 2253.82C450.247 2258.2 446.049 2265.27 446.049 2272.52 446.049 2282.1 453.415 2290.11 464.778 2290.11 471.302 2290.11 478.948 2287.41 485.846 2282.57L491.434 2288.61 506.073 2288.61 506.073 2288.16 494.148 2275.04C499.188 2269.09 502.076 2262.57 502.076 2256.89 502.076 2249.81 497.316 2245.08 489.87 2245.08 485.953 2245.08 481.569 2246.2 478.681 2247.31L478.494 2246.93C485.579 2243.11 488.56 2239.58 488.56 2234.65 488.547 2227.59 482.21 2222 471.021 2222M308.783 2321.54 300.856 2321.54 288.932 2359.14 276.913 2321.54 268.705 2321.54 283.892 2368.07 293.584 2368.07 308.783 2321.54M406.158 2321.54 398.418 2321.54 398.418 2368.07 406.158 2368.07 406.158 2321.54ZM453.682 2321.54 445.755 2321.54 433.83 2359.14 421.812 2321.54 413.618 2321.54 428.804 2368.07 438.496 2368.07 453.682 2321.54M712.84 2321.54 705.1 2321.54 705.1 2368.07 712.84 2368.07 712.84 2321.54ZM779.374 2321.54 771.634 2321.54 771.634 2368.07 779.374 2368.07 779.374 2321.54ZM150.262 2320.61C143.645 2320.61 139.073 2323.77 137.215 2328.71L137.215 2321.54 129.475 2321.54 129.475 2368.07 137.215 2368.07 137.215 2337.45C137.215 2330.94 140.477 2326.56 147.375 2326.56 154.179 2326.56 157.441 2330.94 157.441 2337.45L157.441 2368.07 165.181 2368.07 165.181 2335.87C165.181 2327.12 159.687 2320.61 150.262 2320.61M197.145 2320.61C190.528 2320.61 185.956 2323.77 184.097 2328.71L184.097 2321.54 176.357 2321.54 176.357 2368.07 184.097 2368.07 184.097 2337.45C184.097 2330.94 187.359 2326.56 194.257 2326.56 201.062 2326.56 204.324 2330.94 204.324 2337.45L204.324 2368.07 212.064 2368.07 212.064 2335.87C212.051 2327.12 206.556 2320.61 197.145 2320.61M243.172 2362.39C235.338 2362.39 229.937 2356.81 229.937 2344.8 229.937 2332.71 235.244 2327.21 243.172 2327.21 251.006 2327.21 256.406 2332.7 256.406 2344.8 256.406 2356.8 251.193 2362.39 243.172 2362.39M243.546 2320.61C229.563 2320.61 221.836 2330.84 221.836 2345.36 221.836 2360.06 229.763 2369 242.811 2369 256.888 2369 264.534 2358.76 264.534 2344.24 264.521 2329.53 256.687 2320.61 243.546 2320.61M332.445 2363.41C327.138 2363.41 323.502 2360.43 323.502 2355.23 323.502 2350.85 326.015 2348.71 331.336 2347.41L337.017 2346C340.56 2345.16 342.512 2344.6 343.26 2343.96L343.26 2352.98C343.26 2359.87 338.501 2363.41 332.445 2363.41M334.878 2320.61C323.596 2320.61 316.604 2327.4 316.056 2335.5L323.235 2336.99C323.609 2331.04 327.245 2326.57 334.33 2326.57 340.292 2326.57 343.274 2329.83 343.274 2335.22L343.274 2335.5C343.274 2337.73 342.619 2338.66 340.573 2339.22L327.151 2342.57C319.973 2344.44 315.775 2349.18 315.775 2355.79 315.775 2364.17 322.018 2369 330.32 2369 337.311 2369 341.977 2365.65 343.274 2360.99 343.461 2365.37 343.835 2367.23 344.209 2368.07L352.137 2368.07C351.295 2365.65 350.92 2362.3 350.92 2358.39L350.92 2334.75C350.907 2326.01 344.838 2320.61 334.878 2320.61M466.168 2339.77C467.198 2331.59 471.382 2326.93 478.748 2326.93 485.739 2326.93 489.844 2331.12 490.031 2339.77L466.168 2339.77M478.748 2320.61C466.449 2320.61 457.867 2329.25 457.867 2345.18 457.867 2360.43 465.794 2369 478.748 2369 489.376 2369 496.087 2362.95 497.758 2353.84L490.672 2351.98C489.456 2359.8 485.272 2362.5 479.483 2362.5 470.259 2362.5 466.155 2355.71 465.874 2345.28L497.838 2345.28 497.838 2342.68C497.865 2326.37 489.001 2320.61 478.748 2320.61M613.219 2339.77C614.249 2331.59 618.433 2326.93 625.799 2326.93 632.791 2326.93 636.895 2331.12 637.082 2339.77L613.219 2339.77M625.799 2320.61C613.5 2320.61 604.918 2329.25 604.918 2345.18 604.918 2360.43 612.845 2369 625.799 2369 636.427 2369 643.138 2362.95 644.809 2353.84L637.724 2351.98C636.507 2359.8 632.323 2362.5 626.534 2362.5 617.31 2362.5 613.206 2355.71 612.925 2345.28L644.889 2345.28 644.889 2342.68C644.916 2326.37 636.052 2320.61 625.799 2320.61M744.055 2320.61C731.288 2320.61 722.612 2329.53 722.612 2345.27 722.612 2360.71 731.088 2369 743.681 2369 755.057 2369 761.487 2362.02 762.784 2352.44L755.418 2350.66C754.108 2359.4 750.391 2362.39 744.229 2362.39 735.285 2362.39 730.713 2355.88 730.713 2344.71 730.713 2333.08 735.553 2327.21 743.854 2327.21 749.723 2327.21 754.014 2330.09 755.405 2338.38L762.77 2336.62C761.487 2327.12 755.057 2320.61 744.055 2320.61M811.337 2320.61C804.72 2320.61 800.148 2323.77 798.29 2328.71L798.29 2321.54 790.55 2321.54 790.55 2368.07 798.29 2368.07 798.29 2337.45C798.29 2330.94 801.552 2326.56 808.45 2326.56 815.254 2326.56 818.516 2330.94 818.516 2337.45L818.516 2368.07 826.256 2368.07 826.256 2335.87C826.256 2327.12 820.749 2320.61 811.337 2320.61M844.33 2339.77C845.36 2331.59 849.544 2326.93 856.91 2326.93 863.901 2326.93 868.006 2331.12 868.193 2339.77L844.33 2339.77M856.91 2320.61C844.611 2320.61 836.029 2329.25 836.029 2345.18 836.029 2360.43 843.956 2369 856.91 2369 867.538 2369 874.249 2362.95 875.92 2353.84L868.834 2351.98C867.618 2359.8 863.434 2362.5 857.645 2362.5 848.421 2362.5 844.317 2355.71 844.036 2345.28L876 2345.28 876 2342.68C876.013 2326.37 867.163 2320.61 856.91 2320.61M375.972 2308.51 368.232 2310.37 368.232 2321.54 359.289 2321.54 359.289 2327.49 368.232 2327.49 368.232 2355.96C368.232 2363.59 371.868 2368.99 380.999 2368.99 385.571 2368.99 389.474 2367.49 390.972 2366.1L388.833 2360.52C388.833 2360.52 386.039 2362.47 382.028 2362.47 377.831 2362.47 375.972 2359.96 375.972 2354.75L375.972 2327.49 389.769 2327.49 389.769 2321.54 375.972 2321.54 375.972 2308.51M117.376 2302.92 109.262 2302.92 109.262 2368.05 117.376 2368.05 117.376 2302.92ZM594.223 2302.92 581.924 2302.92 562.634 2355.4 543.25 2302.92 530.39 2302.92 530.39 2368.05 538.504 2368.05 538.504 2311.96 559.292 2368.07 565.535 2368.07 586.135 2311.86 586.135 2368.07 594.236 2368.07 594.236 2302.92M673.604 2362.39C665.957 2362.39 660.837 2356.91 660.837 2344.8 660.837 2332.62 665.971 2327.21 673.604 2327.21 681.251 2327.21 686.371 2332.6 686.371 2344.8 686.371 2356.89 681.251 2362.39 673.604 2362.39M693.924 2302.92 686.184 2302.92 686.184 2330.47C684.499 2325.34 680.408 2320.61 672.294 2320.61 661.853 2320.61 652.723 2328.8 652.723 2345.08 652.723 2361.55 661.853 2369 671.639 2369 679.005 2369 684.406 2364.72 686.184 2358.67L686.184 2362.21C686.184 2364.34 686.371 2366.68 686.651 2368.07L694.485 2368.07C694.111 2365.84 693.924 2362.58 693.924 2358.39L693.924 2302.92M402.335 2301.53C399.26 2301.53 396.84 2303.95 396.84 2307.02 396.84 2310.09 399.26 2312.41 402.335 2312.41 405.409 2312.41 407.736 2310.09 407.736 2307.02 407.749 2303.95 405.409 2301.53 402.335 2301.53M709.017 2301.53C705.942 2301.53 703.522 2303.95 703.522 2307.02 703.522 2310.09 705.942 2312.41 709.017 2312.41 712.091 2312.41 714.417 2310.09 714.417 2307.02 714.431 2303.95 712.091 2301.53 709.017 2301.53M775.551 2301.53C772.476 2301.53 770.056 2303.95 770.056 2307.02 770.056 2310.09 772.476 2312.41 775.551 2312.41 778.625 2312.41 780.951 2310.09 780.951 2307.02 780.965 2303.95 778.625 2301.53 775.551 2301.53" fill="#EB1700" fill-rule="evenodd"/></g></svg>