<svg xmlns="http://www.w3.org/2000/svg" xmlns:xlink="http://www.w3.org/1999/xlink" xmlns:inkscape="http://www.inkscape.org/namespaces/inkscape" version="1.1" width="454.364" height="83.4" viewBox="0 0 454.364 83.4">
<style>
   @media (prefers-color-scheme: light) { :root { --color: #000000; } }
   @media (prefers-color-scheme: dark) { :root { --color: #DDDDDD; } }
</style>
<defs>
<path id="font_1_11" d="M.71598818 0V.0309906H.69200137C.61499026 .0309906 .61299136 .041992189 .61299136 .07797241V.6046448C.61299136 .640625 .61499026 .6516113 .69200137 .6516113H.71598818V.6826172C.68099978 .6796112 .6069946 .6796112 .56900027 .6796112 .5309906 .6796112 .45599366 .6796112 .42099 .6826172V.6516113H.44499208C.5219879 .6516113 .5239868 .640625 .5239868 .6046448V.37083436H.22499085V.6046448C.22499085 .640625 .22698975 .6516113 .3039856 .6516113H.32798768V.6826172C.29299928 .6796112 .21899414 .6796112 .18099976 .6796112 .14299011 .6796112 .067993167 .6796112 .032989503 .6826172V.6516113H.056991579C.13398743 .6516113 .13598633 .640625 .13598633 .6046448V.07797241C.13598633 .041992189 .13398743 .0309906 .056991579 .0309906H.032989503V0C.067993167 .0029907227 .14199829 .0029907227 .17999268 .0029907227 .21798706 .0029907227 .29299928 .0029907227 .32798768 0V.0309906H.3039856C.22698975 .0309906 .22499085 .041992189 .22499085 .07797241V.33984376H.5239868V.07797241C.5239868 .041992189 .5219879 .0309906 .44499208 .0309906H.42099V0C.45599366 .0029907227 .5299988 .0029907227 .56799319 .0029907227 .60598757 .0029907227 .68099978 .0029907227 .71598818 0Z"/>
<path id="font_1_2" d="M.48298646 .08912659V.14511109H.45799256V.08912659C.45799256 .03112793 .43299867 .025131226 .42199708 .025131226 .3889923 .025131226 .3849945 .070129398 .3849945 .07511902V.27508546C.3849945 .31707765 .3849945 .3560791 .34899903 .39312745 .30999757 .43223573 .2599945 .4482422 .21199036 .4482422 .12998963 .4482422 .06098938 .40115357 .06098938 .335083 .06098938 .30508424 .08099365 .28808595 .10699463 .28808595 .1349945 .28808595 .15299988 .30807496 .15299988 .33407594 .15299988 .3460846 .147995 .37908937 .101989749 .38008119 .1289978 .41519166 .17799378 .426239 .20999146 .426239 .25898744 .426239 .31599427 .38710023 .31599427 .29808045V.26107789C.2649994 .25808717 .19499207 .25508119 .13198853 .22509766 .056991579 .19110108 .03199768 .13911438 .03199768 .09512329 .03199768 .014251709 .1289978-.0107421879 .19198609-.0107421879 .2579956-.0107421879 .3039856 .029251099 .32299806 .07624817 .32699586 .036132814 .35398866-.005859375 .40098573-.005859375 .42199708-.005859375 .48298646 .008132935 .48298646 .08912659M.31599427 .14013672C.31599427 .04525757 .24398804 .011245728 .19898987 .011245728 .1499939 .011245728 .10899353 .04624939 .10899353 .09625244 .10899353 .15124512 .15098572 .23425293 .31599427 .24024964V.14013672Z"/>
<path id="font_1_26" d="M.40098573 .18684387H.37599183C.36698915 .06895447 .34599305 .024993897 .22999573 .024993897H.11199951L.3899994 .40066529C.39898683 .4116516 .39898683 .4136505 .39898683 .41766358 .39898683 .43066407 .3909912 .43066407 .37298585 .43066407H.052993776L.041992189 .2697754H.066986087C.07299805 .37168885 .09199524 .4086609 .20199585 .4086609H.31599427L.036987306 .031982423C.027999878 .020996094 .027999878 .018997193 .027999878 .01399231 .027999878 0 .034988405 0 .053985597 0H.38398744L.40098573 .18684387Z"/>
<path id="font_1_19" d="M.3639984 .38137818C.3639984 .41337586 .33299256 .4423828 .2899933 .4423828 .21699524 .4423828 .18099976 .37538148 .16699219 .3323822V.4423828L.027999878 .43066407V.3996582C.09799194 .3996582 .10598755 .39266969 .10598755 .34370423V.07595825C.10598755 .0309906 .09498596 .0309906 .027999878 .0309906V0L.14199829 .0029907227C.18199158 .0029907227 .22898865 .0029907227 .2689972 0V.0309906H.24798584C.17399597 .0309906 .17199707 .04197693 .17199707 .07795715V.23181153C.17199707 .33137513 .21398926 .42037965 .2899933 .42037965 .29699708 .42037965 .29899598 .42037965 .30099488 .41937257 .2979889 .41838075 .27799989 .40637208 .27799989 .3803711 .27799989 .35237123 .29899598 .33737184 .32099916 .33737184 .33898927 .33737184 .3639984 .3493805 .3639984 .38137818Z"/>
<path id="font_1_6" d="M.5269928 0V.0309906C.45700074 .0309906 .44898988 .038009645 .44898988 .0871582V.69433596L.30499269 .6826172V.6516113C.375 .6516113 .3829956 .64463809 .3829956 .59580996V.38035584C.35398866 .41636659 .31098939 .4423828 .25698854 .4423828 .13899231 .4423828 .033996583 .3443451 .033996583 .21531677 .033996583 .088272098 .13198853-.0107421879 .24598694-.0107421879 .30999757-.0107421879 .35499574 .023254395 .37998963 .055267335V-.0107421879L.5269928 0M.37998963 .117996219C.37998963 .099990848 .37998963 .09799194 .36898805 .08099365 .33898927 .033218385 .2939911 .011245728 .25099183 .011245728 .20599365 .011245728 .16999817 .037216188 .1459961 .075164798 .11999512 .1161499 .116989139 .17320252 .116989139 .21421814 .116989139 .25125123 .11898804 .31129457 .147995 .35632325 .16899109 .38734437 .20698548 .42037965 .26098634 .42037965 .29599 .42037965 .33799745 .405365 .36898805 .3603363 .37998963 .34332276 .37998963 .34132386 .37998963 .32330323V.117996219Z"/>
<path id="font_1_20" d="M.49899293 .18579102C.49899293 .2858429 .43299867 .36791993 .34899903 .38793946L.22099304 .4189453C.15899658 .43388368 .11999512 .48773194 .11999512 .5458069 .11999512 .61595156 .17399597 .677063 .2519989 .677063 .4189911 .677063 .44099427 .5127411 .44699098 .46777345 .44799806 .461792 .44799806 .45581056 .45899964 .45581056 .47200013 .45581056 .47200013 .46080018 .47200013 .47973634V.68107607C.47200013 .69807437 .47200013 .7050781 .46099855 .7050781 .45399476 .7050781 .45298768 .70407107 .44599916 .69207766L.41099549 .63497927C.3809967 .66404727 .33999635 .7050781 .25099183 .7050781 .13999939 .7050781 .055999757 .61694338 .055999757 .5107422 .055999757 .42790223 .10899353 .35490418 .18699646 .32788087 .19799805 .32388307 .24899292 .3118744 .31900025 .29486085 .34599305 .28785707 .37599183 .280838 .4039917 .24382019 .4249878 .2177887 .43499757 .18478394 .43499757 .1517334 .43499757 .0806427 .3849945 .008529663 .30099488 .008529663 .27198792 .008529663 .19599915 .013534546 .14299011 .06260681 .084991458 .11668396 .08198547 .18078614 .08099365 .21679688 .07998657 .22679138 .07199097 .22679138 .068984989 .22679138 .055999757 .22679138 .055999757 .2197876 .055999757 .20178223V.0015258789C.055999757-.015472412 .055999757-.022460938 .066986087-.022460938 .07398987-.022460938 .07499695-.020462037 .08198547-.009475708 .08198547-.009475708 .084991458-.0054626467 .117996219 .047592164 .14898682 .013534546 .21299744-.022460938 .3019867-.022460938 .4189911-.022460938 .49899293 .07562256 .49899293 .18579102Z"/>
<path id="font_1_22" d="M.33198548 .12385559V.18066406H.30699159V.12585449C.30699159 .052108766 .2769928 .014251709 .23999024 .014251709 .17298889 .014251709 .17298889 .10491943 .17298889 .12187195V.3996582H.31599427V.43066407H.17298889V.6142578H.147995C.14698792 .5324249 .116989139 .42565919 .018997193 .42166139V.3996582H.10398865V.12408447C.10398865 .0012512207 .19699097-.0107421879 .23298645-.0107421879 .3039856-.0107421879 .33198548 .060180665 .33198548 .12408447V.12385559Z"/>
<path id="font_1_17" d="M.6239929 .4967041C.6239929 .59465029 .5249939 .6826172 .3880005 .6826172H.034988405V.6516113H.05899048C.13598633 .6516113 .13798523 .64060977 .13798523 .6046295V.07795715C.13798523 .041992189 .13598633 .0309906 .05899048 .0309906H.034988405V0C.069992069 .0029907227 .14399719 .0029907227 .18199158 .0029907227 .21998596 .0029907227 .29499818 .0029907227 .32998658 0V.0309906H.30599977C.22898865 .0309906 .22698975 .041992189 .22698975 .07795715V.3157959H.3959961C.5159912 .3157959 .6239929 .39675904 .6239929 .4967041M.5209961 .4967041C.5209961 .4497223 .5209961 .34179688 .3619995 .34179688H.22399903V.6116333C.22399903 .64460757 .22599793 .6516113 .272995 .6516113H.3619995C.5209961 .6516113 .5209961 .54566958 .5209961 .4967041Z"/>
<path id="font_1_13" d="M.25498963 0V.0309906C.18798828 .0309906 .1769867 .0309906 .1769867 .07601929V.69433596L.032989503 .6826172V.6516113C.102996829 .6516113 .11099243 .64460757 .11099243 .5956421V.07595825C.11099243 .0309906 .099990848 .0309906 .032989503 .0309906V0L.14399719 .0029907227 .25498963 0Z"/>
<path id="font_1_8" d="M.4149933 .11933899C.4149933 .12934876 .40699769 .13134766 .4019928 .13134766 .3929901 .13134766 .3909912 .12535095 .3889923 .11734009 .35398866 .014251709 .2639923 .014251709 .2539978 .014251709 .20399475 .014251709 .1639862 .044281007 .14099121 .08131409 .11099243 .12934876 .11099243 .19540406 .11099243 .23144531H.3899994C.4119873 .23144531 .4149933 .23144531 .4149933 .2524414 .4149933 .35131837 .36099244 .4482422 .23599243 .4482422 .11999512 .4482422 .027999878 .34532167 .027999878 .22042847 .027999878 .08631897 .1329956-.0107421879 .24798584-.0107421879 .36999513-.0107421879 .4149933 .10032654 .4149933 .11933899M.34899903 .2524414H.11199951C.117996219 .40126039 .20199585 .426239 .23599243 .426239 .33898927 .426239 .34899903 .2913971 .34899903 .2524414Z"/>
<path id="font_1_4" d="M.5209961 .2163086C.5209961 .34335328 .4229889 .4423828 .30899049 .4423828 .23098755 .4423828 .18798828 .39537049 .17199707 .3773651V.69433596L.027999878 .68333438V.6523285C.09799194 .6523285 .10598755 .6453247 .10598755 .596344V.00024414063H.1309967L.16699219 .06227112C.18199158 .039260866 .22399903-.0107421879 .2979889-.0107421879 .4169922-.0107421879 .5209961 .08728027 .5209961 .2163086M.43798829 .21731568C.43798829 .18029785 .43598939 .120285037 .40699769 .07527161 .38598634 .044265748 .34799195 .011245728 .2939911 .011245728 .24899292 .011260986 .21299744 .03526306 .18899536 .072265628 .1749878 .09326172 .1749878 .09625244 .1749878 .11425781V.32034303C.1749878 .3393402 .1749878 .3403473 .18598938 .35635377 .22499085 .41236878 .27999879 .42037965 .3039856 .42037965 .34899903 .42037965 .3849945 .3943634 .40899659 .35635377 .43499757 .31533814 .43798829 .25831605 .43798829 .21730042V.21731568Z"/>
<path id="font_1_15" d="M.47099305 .21424866C.47099305 .34223939 .37098695 .4482422 .25 .4482422 .125 .4482422 .027999878 .3392334 .027999878 .21424866 .027999878 .085250858 .13198853-.0107421879 .24899292-.0107421879 .36999513-.0107421879 .47099305 .087249759 .47099305 .21424866M.3880005 .22224427C.3880005 .18624878 .3880005 .13224793 .3659973 .08824158 .34399415 .04324341 .2999878 .014251709 .25 .014251709 .20698548 .014251709 .16299439 .035247804 .13598633 .08125305 .11099243 .12524414 .11099243 .18624878 .11099243 .22224427 .11099243 .26124574 .11099243 .31523133 .1349945 .35923768 .1619873 .40522767 .20899964 .426239 .24899292 .426239 .29299928 .426239 .33599855 .40423585 .3619995 .36123658 .3880005 .3182373 .3880005 .26023866 .3880005 .22224427Z"/>
<path id="font_1_5" d="M.4149933 .119140628C.4149933 .12911988 .40499879 .12911988 .4019928 .12911988 .3929901 .12911988 .3909912 .12512207 .3889923 .119140628 .3600006 .026229859 .29499818 .014251709 .2579956 .014251709 .20498657 .014251709 .116989139 .0572052 .116989139 .21801758 .116989139 .38093568 .19898987 .42323304 .2519989 .42323304 .26098634 .42323304 .32398988 .42222596 .35899354 .38594056 .31799317 .38293458 .31199647 .3529358 .31199647 .3399353 .31199647 .31393434 .32998658 .2939453 .35798646 .2939453 .38398744 .2939453 .4039917 .3109436 .4039917 .34094239 .4039917 .40911866 .32798768 .4482422 .25099183 .4482422 .12599182 .4482422 .033996583 .3399353 .033996583 .21601868 .033996583 .08816528 .1329956-.0107421879 .24899292-.0107421879 .3829956-.0107421879 .4149933 .10914612 .4149933 .119140628Z"/>
<path id="font_1_12" d="M.5109863 0V.0309906C.47399903 .0309906 .45199586 .0309906 .4139862 .0839386L.2869873 .26278688C.28599549 .26478578 .2809906 .2707672 .2809906 .2737732 .2809906 .277771 .35198976 .33770753 .3619995 .34570313 .4249878 .39666749 .46699525 .39865113 .48799134 .3996582V.43066407C.45899964 .42765809 .44599916 .42765809 .41799928 .42765809 .38198854 .42765809 .31999208 .42965699 .30599977 .43066407V.3996582C.32499696 .39865113 .33499146 .3876648 .33499146 .37467958 .33499146 .3547058 .32099916 .3427124 .31298829 .33570863L.17199707 .21382141V.69433596L.027999878 .6826172V.6516113C.09799194 .6516113 .10598755 .64460757 .10598755 .5956421V.07595825C.10598755 .0309906 .09498596 .0309906 .027999878 .0309906V0L.13699341 .0029907227 .24699402 0V.0309906C.17999268 .0309906 .16899109 .0309906 .16899109 .07595825V.17889405L.23298645 .23387146C.30999757 .12792969 .35198976 .07196045 .35198976 .053985597 .35198976 .034988405 .33499146 .0309906 .31599427 .0309906V0L.42399598 .0029907227C.45298768 .0029907227 .48199464 .0019989014 .5109863 0Z"/>
<path id="font_1_21" d="M.3600006 .12823487C.3600006 .18122864 .32998658 .21122742 .31799317 .22323609 .2849884 .25523377 .24598694 .26322938 .20399475 .27124024 .147995 .28224183 .08099365 .29522706 .08099365 .35324098 .08099365 .38822938 .10699463 .42922975 .19299317 .42922975 .30299378 .42922975 .30799867 .3392334 .30999757 .30822755 .31098939 .2992401 .32199098 .2992401 .32199098 .2992401 .33499146 .2992401 .33499146 .30422975 .33499146 .32322694V.4242401C.33499146 .4412384 .33499146 .4482422 .32398988 .4482422 .31900025 .4482422 .31698609 .4482422 .3039856 .43623353 .30099488 .43223573 .29100038 .42323304 .2869873 .42022706 .24899292 .4482422 .20799256 .4482422 .19299317 .4482422 .070999149 .4482422 .032989503 .38124085 .032989503 .3252411 .032989503 .29023744 .04899597 .26223756 .07598877 .24023438 .10798645 .2142334 .13598633 .2082367 .20799256 .19422913 .22999573 .19021607 .31199647 .17422486 .31199647 .10221863 .31199647 .051223756 .2769928 .011245728 .19898987 .011245728 .114990238 .011245728 .07899475 .068222049 .05999756 .1532135 .056991579 .16621399 .055999757 .17021179 .04598999 .17021179 .032989503 .17021179 .032989503 .16322327 .032989503 .1452179V.013214111C.032989503-.003753662 .032989503-.0107421879 .04399109-.0107421879 .04899597-.0107421879 .049987794-.009750366 .068984989 .009246826 .070999149 .011245728 .070999149 .013214111 .08898926 .032226564 .1329956-.009750366 .17799378-.0107421879 .19898987-.0107421879 .31399537-.0107421879 .3600006 .05621338 .3600006 .1282196V.12823487Z"/>
<path id="font_1_3" d="M.651001 .18289185C.651001 .26983644 .56900027 .34480287 .45799256 .35679627 .5549927 .3757782 .6239929 .43974305 .6239929 .51368716 .6239929 .6006317 .5319977 .6826172 .4019928 .6826172H.035995485V.6516113H.05999756C.13699341 .6516113 .13899231 .64060977 .13899231 .6046295V.07795715C.13899231 .041992189 .13699341 .0309906 .05999756 .0309906H.035995485V0H.42799378C.5609894-.0002593994 .651001 .08874512 .651001 .18273926V.18289185M.5269928 .5136719C.5269928 .44970704 .47799684 .36573792 .36698915 .36573792H.22200012V.6116333C.22200012 .64460757 .22399903 .6516113 .2709961 .6516113H.394989C.49198915 .65174868 .5269928 .56674197 .5269928 .51374819V.5136719M.5509949 .18386841C.5509949 .1129303 .49899293 .0309906 .3959961 .0309906H.2709961C.22399903 .0309906 .22200012 .037994386 .22200012 .07095337V.34375H.4099884C.5089874 .34399415 .5509949 .25099183 .5509949 .18399048V.18386841Z"/>
<path id="font_1_16" d="M.4189911 0V.0309906H.3869934C.29699708 .0309906 .2939911 .041992189 .2939911 .07902527V.64012148C.2939911 .6640167 .2939911 .6660156 .2709961 .6660156 .20899964 .60227969 .12098694 .60227969 .08898926 .60227969V.57128909C.10899353 .57128909 .16799927 .57128909 .21998596 .5972748V.07902527C.21998596 .042999269 .21699524 .0309906 .1269989 .0309906H.09498596V0C.12998963 .0029907227 .21699524 .0029907227 .25698854 .0029907227 .29699708 .0029907227 .38398744 .0029907227 .4189911 0Z"/>
<path id="font_1_24" d="M.44898988 .17396546H.42399598C.4189911 .14398194 .4119873 .099990848 .4019928 .084991458 .394989 .07699585 .32899476 .07699585 .30699159 .07699585H.1269989L.23298645 .17996216C.3889923 .31803895 .44898988 .37210084 .44898988 .47216798 .44898988 .5860901 .35899354 .6660156 .23699951 .6660156 .12399292 .6660156 .049987794 .57411196 .049987794 .48516847 .049987794 .4291687 .099990848 .4291687 .102996829 .4291687 .11999512 .4291687 .15499878 .44117738 .15499878 .48217774 .15499878 .5081787 .13699341 .5341797 .101989749 .5341797 .09399414 .5341797 .09199524 .5341797 .08898926 .5331726 .11199951 .59806826 .1659851 .63500979 .22399903 .63500979 .31498719 .63500979 .35798646 .5541382 .35798646 .47216798 .35798646 .39196778 .30799867 .31297303 .25299073 .25097657L.06098938 .036987306C.049987794 .025985718 .049987794 .023986817 .049987794 0H.42099L.44898988 .17396546Z"/>
<path id="font_1_23" d="M.45700074 .17037964C.45700074 .252594 .3939972 .33088685 .2899933 .35191346 .37199403 .37893678 .42999269 .4490509 .42999269 .52809146 .42999269 .6100464 .34199525 .6660156 .24598694 .6660156 .14498902 .6660156 .068984989 .60606387 .068984989 .53009036 .068984989 .49710084 .09098816 .47808839 .11999512 .47808839 .15098572 .47808839 .17098999 .50009158 .17098999 .5290985 .17098999 .57910159 .12399292 .57910159 .10899353 .57910159 .13999939 .62802127 .20599365 .64100649 .24198914 .64100649 .2829895 .64100649 .33799745 .6190338 .33799745 .5290985 .33799745 .51708987 .33599855 .45906068 .30999757 .4149933 .27999879 .36691285 .24598694 .36390687 .22099304 .36291505 .21299744 .36190797 .18899536 .35990907 .18199158 .35990907 .17399597 .35890199 .16699219 .35791017 .16699219 .3479004 .16699219 .33691407 .17399597 .33691407 .19099427 .33691407H.23498535C.31698609 .33691407 .35398866 .2686615 .35398866 .17037964 .35398866 .034469606 .2849884 .0055389406 .24099732 .0055389406 .19799805 .0055389406 .12298584 .022491456 .08799744 .08137512 .12298584 .07637024 .1539917 .09837341 .1539917 .1363678 .1539917 .17237854 .1269989 .19238281 .09799194 .19238281 .07398987 .19238281 .041992189 .17837525 .041992189 .1343689 .041992189 .043441774 .1349945-.022460938 .24398804-.022460938 .3659973-.022460938 .45700074 .06838989 .45700074 .17037964Z"/>
<path id="font_1_9" d="M.47099305 .16503906V.19602967H.37098695V.6507721C.37098695 .6707611 .37098695 .6767578 .35499574 .6767578 .34599305 .6767578 .34298707 .6767578 .33499146 .6647644L.027999878 .19602967V.16503906H.2939911V.07800293C.2939911 .041992189 .2919922 .0309906 .21798706 .0309906H.19699097V0C.23799134 .0029907227 .2899933 .0029907227 .33198548 .0029907227 .37399293 .0029907227 .4269867 .0029907227 .46798707 0V.0309906H.44699098C.37298585 .0309906 .37098695 .041992189 .37098695 .07800293V.16503906H.47099305M.2999878 .19602967H.055999757L.2999878 .56881716V.19602967Z"/>
<path id="font_1_10" d="M.7350006 .24145508V.27246095L.61299136 .26945497C.57299807 .26945497 .48799134 .26945497 .45199586 .27246095V.24145508H.48399354C.57398989 .24145508 .57699587 .23045349 .57699587 .19346619V.12948609C.57699587 .017532349 .44999696 .008529663 .42199708 .008529663 .35699464 .008529663 .15899658 .043518068 .15899658 .34155274 .15899658 .6410217 .35598756 .67407229 .41600038 .67407229 .522995 .67407229 .6139984 .5839386 .6339874 .43670655 .6359863 .42268373 .6359863 .41967774 .6499939 .41967774 .66600039 .41967774 .66600039 .42268373 .66600039 .44371034V.68107607C.66600039 .69807437 .66600039 .7050781 .6549988 .7050781 .651001 .7050781 .6469879 .7050781 .6389923 .69306948L.58898928 .61898806C.5569916 .6510315 .5029907 .7050781 .4039917 .7050781 .21798706 .7050781 .055999757 .546875 .055999757 .34155274 .055999757 .13648987 .21598816-.022460938 .4059906-.022460938 .47898866-.022460938 .5589905 .0035247803 .59298709 .06251526 .60598757 .040527345 .6459961 .0005340576 .6569977 .0005340576 .66600039 .0005340576 .66600039 .008529663 .66600039 .023529053V.19746399C.66600039 .2364502 .66999819 .24145508 .7350006 .24145508Z"/>
<path id="font_1_25" d="M.5349884 0V.0309906C.46499635 .0309906 .45700074 .037994386 .45700074 .08705139V.4423828L.30999757 .43066407V.3996582C.37998963 .3996582 .3880005 .39266969 .3880005 .34373475V.16601563C.3880005 .07910156 .33999635 .011245728 .2669983 .011245728 .18299866 .011245728 .1789856 .058135988 .1789856 .11009216V.4423828L.03199768 .43066407V.3996582C.10998535 .3996582 .10998535 .39666749 .10998535 .3078003V.15802002C.10998535 .080093387 .10998535-.0107421879 .2619934-.0107421879 .31799317-.0107421879 .3619995 .017242432 .3909912 .07910156V-.0107421879L.5349884 0Z"/>
<path id="font_1_18" d="M.5209961 .21636963C.5209961 .34336854 .42399598 .4423828 .31199647 .4423828 .23399353 .4423828 .19198609 .39837647 .17199707 .3763733V.4423828L.027999878 .43066407V.3996582C.09899902 .3996582 .10598755 .3936615 .10598755 .34973146V-.117996219C.10598755-.16308594 .09498596-.16308594 .027999878-.16308594V-.1940918L.13999939-.19110108 .25299073-.1940918V-.16308594C.18598938-.16308594 .1749878-.16308594 .1749878-.117996219V.050186159 .059173585C.17999268 .04319763 .22200012-.0107421879 .2979889-.0107421879 .4169922-.0107421879 .5209961 .087127689 .5209961 .21594239V.21636963M.43798829 .21594239C.43798829 .09512329 .36799623 .011245728 .2939911 .011245728 .2539978 .011245728 .21598816 .031219483 .18899536 .07215881 .1749878 .09312439 .1749878 .09411621 .1749878 .114089969V.33674623C.20399475 .38838197 .25299073 .41737367 .3039856 .41737367 .3769989 .41737367 .43798829 .32937623 .43798829 .21636963V.21594239Z"/>
<path id="font_1_1" d="M.71699526 0V.0309906H.69898989C.6389923 .0309906 .625 .037979127 .6139984 .07095337L.397995 .6958008C.3929901 .7088165 .3909912 .7158203 .375 .7158203 .35899354 .7158203 .35598756 .70980837 .35099793 .6958008L.14399719 .09791565C.12599182 .04698181 .085998538 .03199768 .03199768 .0309906V0L.13398743 .0029907227 .24899292 0V.0309906C.19898987 .0309906 .17399597 .05596924 .17399597 .0819397 .17399597 .08493042 .1749878 .09492493 .17599488 .09692383L.22200012 .2277832H.46899415L.5219879 .07495117C.522995 .07095337 .5249939 .064956668 .5249939 .060958864 .5249939 .0309906 .46899415 .0309906 .44198609 .0309906V0C.47799684 .0029907227 .5479889 .0029907227 .58599856 .0029907227L.71699526 0M.45799256 .25878907H.23298645L.34498597 .58380129 .45799256 .25878907Z"/>
<path id="font_1_27" d="M.24699402 0V.0309906C.18099976 .0309906 .1769867 .035995485 .1769867 .075042728V.4423828L.036987306 .43066407V.3996582C.101989749 .3996582 .11099243 .3936615 .11099243 .3447113V.07595825C.11099243 .0309906 .099990848 .0309906 .032989503 .0309906V0L.14299011 .0029907227C.17799378 .0029907227 .21299744 .0009918213 .24699402 0M.19198609 .6042175C.19198609 .6312256 .16899109 .65722659 .13899231 .65722659 .10499573 .65722659 .084991458 .6292114 .084991458 .6042175 .084991458 .57722476 .10798645 .55122378 .13798523 .55122378 .17199707 .55122378 .19198609 .57922366 .19198609 .6042175Z"/>
<path id="font_1_7" d="M.6519928 .2579193H.6269989C.60198977 .10397339 .57899478 .0309906 .40699769 .0309906H.27398683C.22698975 .0309906 .22499085 .037994386 .22499085 .07098389V.33789063H.31498719C.4119873 .33789063 .4229889 .30589295 .4229889 .220932H.44799806V.48606874H.4229889C.4229889 .39994813 .4119873 .36888124 .31498719 .36888124H.22499085V.6087799C.22499085 .6416931 .22698975 .64868167 .27398683 .64868167H.40299989C.55599978 .64868167 .58299258 .59381106 .598999 .45507813H.6239929L.59599307 .6796875H.032989503V.64868167H.056991579C.13398743 .64868167 .13598633 .6377106 .13598633 .6017914V.07797241C.13598633 .041992189 .13398743 .0309906 .056991579 .0309906H.032989503V0H.6100006L.6519928 .2579193Z"/>
<path id="font_1_14" d="M.5349884 0V.0309906C.48298646 .0309906 .45799256 .0309906 .45700074 .061019899V.25221253C.45700074 .3383026 .45700074 .36932374 .42599488 .405365 .4119873 .42237855 .3789978 .4423828 .32099916 .4423828 .24798584 .4423828 .20098877 .39935304 .17298889 .33729554V.4423828L.03199768 .43066407V.3996582C.101989749 .3996582 .10998535 .39266969 .10998535 .34370423V.07595825C.10998535 .0309906 .09899902 .0309906 .03199768 .0309906V0L.14498902 .0029907227 .25698854 0V.0309906C.18998719 .0309906 .1789856 .0309906 .1789856 .07595825V.25978089C.1789856 .36431886 .25 .42037965 .31399537 .42037965 .3769989 .42037965 .3880005 .36631776 .3880005 .30926515V.076034549C.3880005 .0309906 .3769989 .0309906 .30999757 .0309906V0L.4229889 .0029907227 .5349884 0Z"/>
</defs>
<path transform="matrix(1,0,0,-1,.199,48.787004)" stroke-width=".79701" stroke-linecap="butt" stroke-miterlimit="10" stroke-linejoin="miter" fill="none" stroke="#fff200" d="M196.06159-34.21536V34.21536H307.8413V-34.21536ZM307.8413 34.21536"/>
<path transform="matrix(1,0,0,-1,.199,48.787004)" stroke-width=".79701" stroke-linecap="butt" stroke-miterlimit="10" stroke-linejoin="miter" fill="none" stroke="#ff8000" d="M312.09336-17.2073V17.2073H417.01167V-17.2073ZM417.01167 17.2073"/>
<path transform="matrix(1,0,0,-1,.199,48.787004)" d="M38.4195 14.17339H.85039C.38072 14.17339 0 13.79266 0 13.323V-13.323C0-13.79266 .38072-14.17339 .85039-14.17339H38.4195C38.88916-14.17339 39.2699-13.79266 39.2699-13.323V13.323C39.2699 13.79266 38.88916 14.17339 38.4195 14.17339ZM0-14.17339" fill="#ff6666"/>
<path transform="matrix(1,0,0,-1,.199,48.787004)" stroke-width=".3985" stroke-linecap="butt" stroke-miterlimit="10" stroke-linejoin="miter" fill="none" stroke="#262626" d="M38.4195 14.17339H.85039C.38072 14.17339 0 13.79266 0 13.323V-13.323C0-13.79266 .38072-14.17339 .85039-14.17339H38.4195C38.88916-14.17339 39.2699-13.79266 39.2699-13.323V13.323C39.2699 13.79266 38.88916 14.17339 38.4195 14.17339ZM0-14.17339"/>
<use data-text="H" xlink:href="#font_1_11" transform="matrix(9.96264,0,0,-9.96264,4.184,52.218004)"/>
<use data-text="a" xlink:href="#font_1_2" transform="matrix(9.96264,0,0,-9.96264,11.655981,52.218004)"/>
<use data-text="z" xlink:href="#font_1_26" transform="matrix(9.96264,0,0,-9.96264,16.6373,52.218004)"/>
<use data-text="a" xlink:href="#font_1_2" transform="matrix(9.96264,0,0,-9.96264,21.070675,52.218004)"/>
<use data-text="r" xlink:href="#font_1_19" transform="matrix(9.96264,0,0,-9.96264,26.051995,52.218004)"/>
<use data-text="d" xlink:href="#font_1_6" transform="matrix(9.96264,0,0,-9.96264,29.95735,52.218004)"/>
<path transform="matrix(1,0,0,-1,.199,48.787004)" d="M82.73045 14.17339H54.29369C53.82402 14.17339 53.4433 13.79266 53.4433 13.323V-13.323C53.4433-13.79266 53.82402-14.17339 54.29369-14.17339H82.73045C83.20012-14.17339 83.58086-13.79266 83.58086-13.323V13.323C83.58086 13.79266 83.20012 14.17339 82.73045 14.17339ZM53.4433-14.17339" fill="#8888ff"/>
<path transform="matrix(1,0,0,-1,.199,48.787004)" stroke-width=".3985" stroke-linecap="butt" stroke-miterlimit="10" stroke-linejoin="miter" fill="none" stroke="#262626" d="M82.73045 14.17339H54.29369C53.82402 14.17339 53.4433 13.79266 53.4433 13.323V-13.323C53.4433-13.79266 53.82402-14.17339 54.29369-14.17339H82.73045C83.20012-14.17339 83.58086-13.79266 83.58086-13.323V13.323C83.58086 13.79266 83.20012 14.17339 82.73045 14.17339ZM53.4433-14.17339"/>
<use data-text="S" xlink:href="#font_1_20" transform="matrix(9.96264,0,0,-9.96264,57.627004,52.218004)"/>
<use data-text="t" xlink:href="#font_1_22" transform="matrix(9.96264,0,0,-9.96264,63.166234,52.218004)"/>
<use data-text="a" xlink:href="#font_1_2" transform="matrix(9.96264,0,0,-9.96264,67.0417,52.218004)"/>
<use data-text="r" xlink:href="#font_1_19" transform="matrix(9.96264,0,0,-9.96264,72.023029,52.218004)"/>
<use data-text="t" xlink:href="#font_1_22" transform="matrix(9.96264,0,0,-9.96264,75.928379,52.218004)"/>
<path transform="matrix(1,0,0,-1,.199,48.787004)" stroke-width=".79701" stroke-linecap="butt" stroke-miterlimit="10" stroke-linejoin="miter" fill="none" stroke="var(--color)" d="M39.2699 0H46.35658 48.7808"/>
<path transform="matrix(1,0,0,-1,48.9798,48.787004)" d="M4.66248 0C3.28098 .25902 1.0361 1.0361-.51805 1.94269V-1.94269C1.0361-1.0361 3.28098-.25902 4.66248 0" fill="var(--color)"/>
<path transform="matrix(1,0,0,-1,98.351,31.779)" d="M78.943 14.17339H9.3545C8.88484 14.17339 8.50412 13.79266 8.50412 13.323V-13.323C8.50412-13.79266 8.88484-14.17339 9.3545-14.17339H78.943C79.41266-14.17339 79.7934-13.79266 79.7934-13.323V13.323C79.7934 13.79266 79.41266 14.17339 78.943 14.17339ZM8.50412-14.17339" fill="#7f807f"/>
<path transform="matrix(1,0,0,-1,98.351,31.779)" stroke-width=".3985" stroke-linecap="butt" stroke-miterlimit="10" stroke-linejoin="miter" fill="none" stroke="#262626" d="M78.943 14.17339H9.3545C8.88484 14.17339 8.50412 13.79266 8.50412 13.323V-13.323C8.50412-13.79266 8.88484-14.17339 9.3545-14.17339H78.943C79.41266-14.17339 79.7934-13.79266 79.7934-13.323V13.323C79.7934 13.79266 79.41266 14.17339 78.943 14.17339ZM8.50412-14.17339"/>
<use data-text="P" xlink:href="#font_1_17" transform="matrix(9.96264,0,0,-9.96264,110.84,35.209997)"/>
<use data-text="a" xlink:href="#font_1_2" transform="matrix(9.96264,0,0,-9.96264,117.35557,35.209997)"/>
<use data-text="r" xlink:href="#font_1_19" transform="matrix(9.96264,0,0,-9.96264,122.33689,35.209997)"/>
<use data-text="a" xlink:href="#font_1_2" transform="matrix(9.96264,0,0,-9.96264,126.24225,35.209997)"/>
<use data-text="l" xlink:href="#font_1_13" transform="matrix(9.96264,0,0,-9.96264,131.22357,35.209997)"/>
<use data-text="l" xlink:href="#font_1_13" transform="matrix(9.96264,0,0,-9.96264,133.99318,35.209997)"/>
<use data-text="e" xlink:href="#font_1_8" transform="matrix(9.96264,0,0,-9.96264,136.76279,35.209997)"/>
<use data-text="l" xlink:href="#font_1_13" transform="matrix(9.96264,0,0,-9.96264,141.19617,35.209997)"/>
<use data-text="b" xlink:href="#font_1_4" transform="matrix(9.96264,0,0,-9.96264,147.27338,35.209997)"/>
<use data-text="l" xlink:href="#font_1_13" transform="matrix(9.96264,0,0,-9.96264,152.8126,35.209997)"/>
<use data-text="o" xlink:href="#font_1_15" transform="matrix(9.96264,0,0,-9.96264,155.58222,35.209997)"/>
<use data-text="c" xlink:href="#font_1_5" transform="matrix(9.96264,0,0,-9.96264,160.8425,35.209997)"/>
<use data-text="k" xlink:href="#font_1_12" transform="matrix(9.96264,0,0,-9.96264,165.00688,35.209997)"/>
<use data-text="s" xlink:href="#font_1_21" transform="matrix(9.96264,0,0,-9.96264,170.26715,35.209997)"/>
<path transform="matrix(1,0,0,-1,98.351,31.779)" stroke-width=".79701" stroke-linecap="butt" stroke-miterlimit="10" stroke-linejoin="miter" fill="none" stroke="var(--color)" d="M0 0V0H3.84164"/>
<path transform="matrix(1,0,0,-1,102.192638,31.779)" d="M4.66248 0C3.28098 .25902 1.0361 1.0361-.51805 1.94269V-1.94269C1.0361-1.0361 3.28098-.25902 4.66248 0" fill="var(--color)"/>
<path transform="matrix(1,0,0,-1,98.351,31.779)" d="M78.943-19.8427H9.3545C8.88484-19.8427 8.50412-20.22343 8.50412-20.6931V-47.3391C8.50412-47.80876 8.88484-48.18948 9.3545-48.18948H78.943C79.41266-48.18948 79.7934-47.80876 79.7934-47.3391V-20.6931C79.7934-20.22343 79.41266-19.8427 78.943-19.8427ZM8.50412-48.18948" fill="#7f807f"/>
<path transform="matrix(1,0,0,-1,98.351,31.779)" stroke-width=".3985" stroke-linecap="butt" stroke-miterlimit="10" stroke-linejoin="miter" fill="none" stroke="#262626" d="M78.943-19.8427H9.3545C8.88484-19.8427 8.50412-20.22343 8.50412-20.6931V-47.3391C8.50412-47.80876 8.88484-48.18948 9.3545-48.18948H78.943C79.41266-48.18948 79.7934-47.80876 79.7934-47.3391V-20.6931C79.7934-20.22343 79.41266-19.8427 78.943-19.8427ZM8.50412-48.18948"/>
<use data-text="P" xlink:href="#font_1_17" transform="matrix(9.96264,0,0,-9.96264,110.84,69.226)"/>
<use data-text="a" xlink:href="#font_1_2" transform="matrix(9.96264,0,0,-9.96264,117.35557,69.226)"/>
<use data-text="r" xlink:href="#font_1_19" transform="matrix(9.96264,0,0,-9.96264,122.33689,69.226)"/>
<use data-text="a" xlink:href="#font_1_2" transform="matrix(9.96264,0,0,-9.96264,126.24225,69.226)"/>
<use data-text="l" xlink:href="#font_1_13" transform="matrix(9.96264,0,0,-9.96264,131.22357,69.226)"/>
<use data-text="l" xlink:href="#font_1_13" transform="matrix(9.96264,0,0,-9.96264,133.99318,69.226)"/>
<use data-text="e" xlink:href="#font_1_8" transform="matrix(9.96264,0,0,-9.96264,136.76279,69.226)"/>
<use data-text="l" xlink:href="#font_1_13" transform="matrix(9.96264,0,0,-9.96264,141.19617,69.226)"/>
<use data-text="b" xlink:href="#font_1_4" transform="matrix(9.96264,0,0,-9.96264,147.27338,69.226)"/>
<use data-text="l" xlink:href="#font_1_13" transform="matrix(9.96264,0,0,-9.96264,152.8126,69.226)"/>
<use data-text="o" xlink:href="#font_1_15" transform="matrix(9.96264,0,0,-9.96264,155.58222,69.226)"/>
<use data-text="c" xlink:href="#font_1_5" transform="matrix(9.96264,0,0,-9.96264,160.8425,69.226)"/>
<use data-text="k" xlink:href="#font_1_12" transform="matrix(9.96264,0,0,-9.96264,165.00688,69.226)"/>
<use data-text="s" xlink:href="#font_1_21" transform="matrix(9.96264,0,0,-9.96264,170.26715,69.226)"/>
<path transform="matrix(1,0,0,-1,98.351,31.779)" stroke-width=".79701" stroke-linecap="butt" stroke-miterlimit="10" stroke-linejoin="miter" fill="none" stroke="var(--color)" d="M0 0V0-34.0161H3.84164"/>
<path transform="matrix(1,0,0,-1,102.192638,65.795108)" d="M4.66248 0C3.28098 .25902 1.0361 1.0361-.51805 1.94269V-1.94269C1.0361-1.0361 3.28098-.25902 4.66248 0" fill="var(--color)"/>
<path transform="matrix(1,0,0,-1,98.351,31.779)" stroke-width=".79701" stroke-linecap="butt" stroke-miterlimit="10" stroke-linejoin="miter" fill="none" stroke="var(--color)" d="M79.7934 0H86.1716V-34.0161H79.7934"/>
<path transform="matrix(1,0,0,-1,.199,48.787004)" stroke-width=".79701" stroke-linecap="butt" stroke-miterlimit="10" stroke-linejoin="miter" fill="none" stroke="var(--color)" d="M83.58086 0H97.75424"/>
<path transform="matrix(1,0,0,-1,208.19499,31.779002)" d="M39.91382 14.17339H.85039C.38072 14.17339 0 13.79266 0 13.323V-13.323C0-13.79266 .38072-14.17339 .85039-14.17339H39.91382C40.38348-14.17339 40.76422-13.79266 40.76422-13.323V13.323C40.76422 13.79266 40.38348 14.17339 39.91382 14.17339ZM0-14.17339" fill="#fff799"/>
<path transform="matrix(1,0,0,-1,208.19499,31.779002)" stroke-width=".3985" stroke-linecap="butt" stroke-miterlimit="10" stroke-linejoin="miter" fill="none" stroke="#262626" d="M39.91382 14.17339H.85039C.38072 14.17339 0 13.79266 0 13.323V-13.323C0-13.79266 .38072-14.17339 .85039-14.17339H39.91382C40.38348-14.17339 40.76422-13.79266 40.76422-13.323V13.323C40.76422 13.79266 40.38348 14.17339 39.91382 14.17339ZM0-14.17339"/>
<use data-text="B" xlink:href="#font_1_3" transform="matrix(9.96264,0,0,-9.96264,212.18,35.210004)"/>
<use data-text="l" xlink:href="#font_1_13" transform="matrix(9.96264,0,0,-9.96264,219.23354,35.210004)"/>
<use data-text="o" xlink:href="#font_1_15" transform="matrix(9.96264,0,0,-9.96264,222.00315,35.210004)"/>
<use data-text="c" xlink:href="#font_1_5" transform="matrix(9.96264,0,0,-9.96264,227.25347,35.210004)"/>
<use data-text="k" xlink:href="#font_1_12" transform="matrix(9.96264,0,0,-9.96264,231.41785,35.210004)"/>
<use data-text="1" xlink:href="#font_1_16" transform="matrix(9.96264,0,0,-9.96264,239.99568,35.210004)"/>
<path transform="matrix(1,0,0,-1,208.19499,31.779002)" d="M89.18217 14.17339H50.11874C49.64908 14.17339 49.26834 13.79266 49.26834 13.323V-13.323C49.26834-13.79266 49.64908-14.17339 50.11874-14.17339H89.18217C89.65184-14.17339 90.03256-13.79266 90.03256-13.323V13.323C90.03256 13.79266 89.65184 14.17339 89.18217 14.17339ZM49.26834-14.17339" fill="#fff799"/>
<path transform="matrix(1,0,0,-1,208.19499,31.779002)" stroke-width=".3985" stroke-linecap="butt" stroke-miterlimit="10" stroke-linejoin="miter" fill="none" stroke="#262626" d="M89.18217 14.17339H50.11874C49.64908 14.17339 49.26834 13.79266 49.26834 13.323V-13.323C49.26834-13.79266 49.64908-14.17339 50.11874-14.17339H89.18217C89.65184-14.17339 90.03256-13.79266 90.03256-13.323V13.323C90.03256 13.79266 89.65184 14.17339 89.18217 14.17339ZM49.26834-14.17339"/>
<use data-text="B" xlink:href="#font_1_3" transform="matrix(9.96264,0,0,-9.96264,261.447,35.210004)"/>
<use data-text="l" xlink:href="#font_1_13" transform="matrix(9.96264,0,0,-9.96264,268.50056,35.210004)"/>
<use data-text="o" xlink:href="#font_1_15" transform="matrix(9.96264,0,0,-9.96264,271.27018,35.210004)"/>
<use data-text="c" xlink:href="#font_1_5" transform="matrix(9.96264,0,0,-9.96264,276.52049,35.210004)"/>
<use data-text="k" xlink:href="#font_1_12" transform="matrix(9.96264,0,0,-9.96264,280.68489,35.210004)"/>
<use data-text="2" xlink:href="#font_1_24" transform="matrix(9.96264,0,0,-9.96264,289.26274,35.210004)"/>
<path transform="matrix(1,0,0,-1,208.19499,31.779002)" stroke-width=".79701" stroke-linecap="butt" stroke-miterlimit="10" stroke-linejoin="miter" fill="none" stroke="var(--color)" d="M40.76422 0V0H44.60587"/>
<path transform="matrix(1,0,0,-1,252.80086,31.779002)" d="M4.66248 0C3.28098 .25902 1.0361 1.0361-.51805 1.94269V-1.94269C1.0361-1.0361 3.28098-.25902 4.66248 0" fill="var(--color)"/>
<path transform="matrix(1,0,0,-1,199.491,31.779)" stroke-width=".79701" stroke-linecap="butt" stroke-miterlimit="10" stroke-linejoin="miter" fill="none" stroke="var(--color)" d="M0 0V0H4.0409"/>
<path transform="matrix(1,0,0,-1,203.53189,31.779)" d="M4.66248 0C3.28098 .25902 1.0361 1.0361-.51805 1.94269V-1.94269C1.0361-1.0361 3.28098-.25902 4.66248 0" fill="var(--color)"/>
<path transform="matrix(1,0,0,-1,208.19499,65.794)" d="M39.91382 14.17339H.85039C.38072 14.17339 0 13.79266 0 13.323V-13.323C0-13.79266 .38072-14.17339 .85039-14.17339H39.91382C40.38348-14.17339 40.76422-13.79266 40.76422-13.323V13.323C40.76422 13.79266 40.38348 14.17339 39.91382 14.17339ZM0-14.17339" fill="#fff799"/>
<path transform="matrix(1,0,0,-1,208.19499,65.794)" stroke-width=".3985" stroke-linecap="butt" stroke-miterlimit="10" stroke-linejoin="miter" fill="none" stroke="#262626" d="M39.91382 14.17339H.85039C.38072 14.17339 0 13.79266 0 13.323V-13.323C0-13.79266 .38072-14.17339 .85039-14.17339H39.91382C40.38348-14.17339 40.76422-13.79266 40.76422-13.323V13.323C40.76422 13.79266 40.38348 14.17339 39.91382 14.17339ZM0-14.17339"/>
<use data-text="B" xlink:href="#font_1_3" transform="matrix(9.96264,0,0,-9.96264,212.18,69.226)"/>
<use data-text="l" xlink:href="#font_1_13" transform="matrix(9.96264,0,0,-9.96264,219.23354,69.226)"/>
<use data-text="o" xlink:href="#font_1_15" transform="matrix(9.96264,0,0,-9.96264,222.00315,69.226)"/>
<use data-text="c" xlink:href="#font_1_5" transform="matrix(9.96264,0,0,-9.96264,227.25347,69.226)"/>
<use data-text="k" xlink:href="#font_1_12" transform="matrix(9.96264,0,0,-9.96264,231.41785,69.226)"/>
<use data-text="3" xlink:href="#font_1_23" transform="matrix(9.96264,0,0,-9.96264,239.99568,69.226)"/>
<path transform="matrix(1,0,0,-1,208.19499,65.794)" d="M89.18217 14.17339H50.11874C49.64908 14.17339 49.26834 13.79266 49.26834 13.323V-13.323C49.26834-13.79266 49.64908-14.17339 50.11874-14.17339H89.18217C89.65184-14.17339 90.03256-13.79266 90.03256-13.323V13.323C90.03256 13.79266 89.65184 14.17339 89.18217 14.17339ZM49.26834-14.17339" fill="#fff799"/>
<path transform="matrix(1,0,0,-1,208.19499,65.794)" stroke-width=".3985" stroke-linecap="butt" stroke-miterlimit="10" stroke-linejoin="miter" fill="none" stroke="#262626" d="M89.18217 14.17339H50.11874C49.64908 14.17339 49.26834 13.79266 49.26834 13.323V-13.323C49.26834-13.79266 49.64908-14.17339 50.11874-14.17339H89.18217C89.65184-14.17339 90.03256-13.79266 90.03256-13.323V13.323C90.03256 13.79266 89.65184 14.17339 89.18217 14.17339ZM49.26834-14.17339"/>
<use data-text="B" xlink:href="#font_1_3" transform="matrix(9.96264,0,0,-9.96264,261.447,69.226)"/>
<use data-text="l" xlink:href="#font_1_13" transform="matrix(9.96264,0,0,-9.96264,268.50056,69.226)"/>
<use data-text="o" xlink:href="#font_1_15" transform="matrix(9.96264,0,0,-9.96264,271.27018,69.226)"/>
<use data-text="c" xlink:href="#font_1_5" transform="matrix(9.96264,0,0,-9.96264,276.52049,69.226)"/>
<use data-text="k" xlink:href="#font_1_12" transform="matrix(9.96264,0,0,-9.96264,280.68489,69.226)"/>
<use data-text="4" xlink:href="#font_1_9" transform="matrix(9.96264,0,0,-9.96264,289.26274,69.226)"/>
<path transform="matrix(1,0,0,-1,208.19499,65.794)" stroke-width=".79701" stroke-linecap="butt" stroke-miterlimit="10" stroke-linejoin="miter" fill="none" stroke="var(--color)" d="M40.76422 0V0H44.60587"/>
<path transform="matrix(1,0,0,-1,252.80086,65.794)" d="M4.66248 0C3.28098 .25902 1.0361 1.0361-.51805 1.94269V-1.94269C1.0361-1.0361 3.28098-.25902 4.66248 0" fill="var(--color)"/>
<path transform="matrix(1,0,0,-1,199.491,31.779)" stroke-width=".79701" stroke-linecap="butt" stroke-miterlimit="10" stroke-linejoin="miter" fill="none" stroke="var(--color)" d="M0 0V0-34.0161H4.0409"/>
<path transform="matrix(1,0,0,-1,203.53189,65.795108)" d="M4.66248 0C3.28098 .25902 1.0361 1.0361-.51805 1.94269V-1.94269C1.0361-1.0361 3.28098-.25902 4.66248 0" fill="var(--color)"/>
<path transform="matrix(1,0,0,-1,199.491,31.779)" stroke-width=".79701" stroke-linecap="butt" stroke-miterlimit="10" stroke-linejoin="miter" fill="none" stroke="var(--color)" d="M98.93518 0H105.31339V-34.0161H98.93518"/>
<path transform="matrix(1,0,0,-1,.199,48.787004)" stroke-width=".79701" stroke-linecap="butt" stroke-miterlimit="10" stroke-linejoin="miter" fill="none" stroke="var(--color)" d="M184.72286 0H198.89624"/>
<path transform="matrix(1,0,0,-1,.199,48.787004)" d="M196.06159 34.21536V48.38876H307.8413V34.21536ZM307.8413 48.38876" fill="#fff799"/>
<path transform="matrix(1,0,0,-1,.199,48.787004)" stroke-width=".79701" stroke-linecap="butt" stroke-miterlimit="10" stroke-linejoin="miter" fill="none" stroke="#fff200" d="M196.06159 34.21536V48.38876H307.8413V34.21536ZM307.8413 48.38876"/>
<use data-text="G" xlink:href="#font_1_10" transform="matrix(9.96264,0,0,-9.96264,238.26201,9.948006)"/>
<use data-text="r" xlink:href="#font_1_19" transform="matrix(9.96264,0,0,-9.96264,246.08269,9.948006)"/>
<use data-text="o" xlink:href="#font_1_15" transform="matrix(9.96264,0,0,-9.96264,249.98804,9.948006)"/>
<use data-text="u" xlink:href="#font_1_25" transform="matrix(9.96264,0,0,-9.96264,254.96936,9.948006)"/>
<use data-text="p" xlink:href="#font_1_18" transform="matrix(9.96264,0,0,-9.96264,260.5086,9.948006)"/>
<path transform="matrix(1,0,0,-1,319.574,48.787004)" d="M42.40451 14.17339H.85039C.38072 14.17339 0 13.79266 0 13.323V-13.323C0-13.79266 .38072-14.17339 .85039-14.17339H42.40451C42.87418-14.17339 43.25491-13.79266 43.25491-13.323V13.323C43.25491 13.79266 42.87418 14.17339 42.40451 14.17339ZM0-14.17339" fill="#ffbf80"/>
<path transform="matrix(1,0,0,-1,319.574,48.787004)" stroke-width=".3985" stroke-linecap="butt" stroke-miterlimit="10" stroke-linejoin="miter" fill="none" stroke="#262626" d="M42.40451 14.17339H.85039C.38072 14.17339 0 13.79266 0 13.323V-13.323C0-13.79266 .38072-14.17339 .85039-14.17339H42.40451C42.87418-14.17339 43.25491-13.79266 43.25491-13.323V13.323C43.25491 13.79266 42.87418 14.17339 42.40451 14.17339ZM0-14.17339"/>
<use data-text="B" xlink:href="#font_1_3" transform="matrix(9.96264,0,0,-9.96264,323.559,52.218004)"/>
<use data-text="l" xlink:href="#font_1_13" transform="matrix(9.96264,0,0,-9.96264,330.61256,52.218004)"/>
<use data-text="o" xlink:href="#font_1_15" transform="matrix(9.96264,0,0,-9.96264,333.38218,52.218004)"/>
<use data-text="c" xlink:href="#font_1_5" transform="matrix(9.96264,0,0,-9.96264,338.63249,52.218004)"/>
<use data-text="k" xlink:href="#font_1_12" transform="matrix(9.96264,0,0,-9.96264,342.79689,52.218004)"/>
<use data-text="A" xlink:href="#font_1_1" transform="matrix(9.96264,0,0,-9.96264,351.37474,52.218004)"/>
<path transform="matrix(1,0,0,-1,319.574,48.787004)" d="M93.74808 14.17339H52.60944C52.13977 14.17339 51.75903 13.79266 51.75903 13.323V-13.323C51.75903-13.79266 52.13977-14.17339 52.60944-14.17339H93.74808C94.21774-14.17339 94.59848-13.79266 94.59848-13.323V13.323C94.59848 13.79266 94.21774 14.17339 93.74808 14.17339ZM51.75903-14.17339" fill="#ffbf80"/>
<path transform="matrix(1,0,0,-1,319.574,48.787004)" stroke-width=".3985" stroke-linecap="butt" stroke-miterlimit="10" stroke-linejoin="miter" fill="none" stroke="#262626" d="M93.74808 14.17339H52.60944C52.13977 14.17339 51.75903 13.79266 51.75903 13.323V-13.323C51.75903-13.79266 52.13977-14.17339 52.60944-14.17339H93.74808C94.21774-14.17339 94.59848-13.79266 94.59848-13.323V13.323C94.59848 13.79266 94.21774 14.17339 93.74808 14.17339ZM51.75903-14.17339"/>
<use data-text="B" xlink:href="#font_1_3" transform="matrix(9.96264,0,0,-9.96264,375.318,52.218004)"/>
<use data-text="l" xlink:href="#font_1_13" transform="matrix(9.96264,0,0,-9.96264,382.37156,52.218004)"/>
<use data-text="o" xlink:href="#font_1_15" transform="matrix(9.96264,0,0,-9.96264,385.14118,52.218004)"/>
<use data-text="c" xlink:href="#font_1_5" transform="matrix(9.96264,0,0,-9.96264,390.39149,52.218004)"/>
<use data-text="k" xlink:href="#font_1_12" transform="matrix(9.96264,0,0,-9.96264,394.55589,52.218004)"/>
<use data-text="B" xlink:href="#font_1_3" transform="matrix(9.96264,0,0,-9.96264,403.13374,52.218004)"/>
<path transform="matrix(1,0,0,-1,319.574,48.787004)" stroke-width=".79701" stroke-linecap="butt" stroke-miterlimit="10" stroke-linejoin="miter" fill="none" stroke="var(--color)" d="M43.25491 0H50.3416 47.09656"/>
<path transform="matrix(1,0,0,-1,366.67057,48.787004)" d="M4.66248 0C3.28098 .25902 1.0361 1.0361-.51805 1.94269V-1.94269C1.0361-1.0361 3.28098-.25902 4.66248 0" fill="var(--color)"/>
<path transform="matrix(1,0,0,-1,.199,48.787004)" stroke-width=".79701" stroke-linecap="butt" stroke-miterlimit="10" stroke-linejoin="miter" fill="none" stroke="var(--color)" d="M305.00666 0H312.09333 314.7168"/>
<path transform="matrix(1,0,0,-1,314.9158,48.787004)" d="M4.66248 0C3.28098 .25902 1.0361 1.0361-.51805 1.94269V-1.94269C1.0361-1.0361 3.28098-.25902 4.66248 0" fill="var(--color)"/>
<path transform="matrix(1,0,0,-1,.199,48.787004)" d="M312.09336 17.2073V31.3807H417.01167V17.2073ZM417.01167 31.3807" fill="#ffbf80"/>
<path transform="matrix(1,0,0,-1,.199,48.787004)" stroke-width=".79701" stroke-linecap="butt" stroke-miterlimit="10" stroke-linejoin="miter" fill="none" stroke="#ff8000" d="M312.09336 17.2073V31.3807H417.01167V17.2073ZM417.01167 31.3807"/>
<use data-text="S" xlink:href="#font_1_20" transform="matrix(9.96264,0,0,-9.96264,354.378,27.924)"/>
<use data-text="e" xlink:href="#font_1_8" transform="matrix(9.96264,0,0,-9.96264,359.9172,27.924)"/>
<use data-text="r" xlink:href="#font_1_19" transform="matrix(9.96264,0,0,-9.96264,364.3506,27.924)"/>
<use data-text="i" xlink:href="#font_1_27" transform="matrix(9.96264,0,0,-9.96264,368.25596,27.924)"/>
<use data-text="e" xlink:href="#font_1_8" transform="matrix(9.96264,0,0,-9.96264,371.02558,27.924)"/>
<use data-text="s" xlink:href="#font_1_21" transform="matrix(9.96264,0,0,-9.96264,375.45896,27.924)"/>
<path transform="matrix(1,0,0,-1,.199,48.787004)" d="M453.12077 14.17339H429.00157C428.5319 14.17339 428.15119 13.79266 428.15119 13.323V-13.323C428.15119-13.79266 428.5319-14.17339 429.00157-14.17339H453.12077C453.59043-14.17339 453.97117-13.79266 453.97117-13.323V13.323C453.97117 13.79266 453.59043 14.17339 453.12077 14.17339ZM428.15119-14.17339" fill="#80ff80"/>
<path transform="matrix(1,0,0,-1,.199,48.787004)" stroke-width=".3985" stroke-linecap="butt" stroke-miterlimit="10" stroke-linejoin="miter" fill="none" stroke="#262626" d="M453.12077 14.17339H429.00157C428.5319 14.17339 428.15119 13.79266 428.15119 13.323V-13.323C428.15119-13.79266 428.5319-14.17339 429.00157-14.17339H453.12077C453.59043-14.17339 453.97117-13.79266 453.97117-13.323V13.323C453.97117 13.79266 453.59043 14.17339 453.12077 14.17339ZM428.15119-14.17339"/>
<use data-text="E" xlink:href="#font_1_7" transform="matrix(9.96264,0,0,-9.96264,432.33003,52.218004)"/>
<use data-text="n" xlink:href="#font_1_14" transform="matrix(9.96264,0,0,-9.96264,439.11457,52.218004)"/>
<use data-text="d" xlink:href="#font_1_6" transform="matrix(9.96264,0,0,-9.96264,444.65379,52.218004)"/>
<path transform="matrix(1,0,0,-1,.199,48.787004)" stroke-width=".79701" stroke-linecap="butt" stroke-miterlimit="10" stroke-linejoin="miter" fill="none" stroke="var(--color)" d="M413.97779 0H421.06449 423.4887"/>
<path transform="matrix(1,0,0,-1,423.6877,48.787004)" d="M4.66248 0C3.28098 .25902 1.0361 1.0361-.51805 1.94269V-1.94269C1.0361-1.0361 3.28098-.25902 4.66248 0" fill="var(--color)"/>
</svg>
