<svg xmlns="http://www.w3.org/2000/svg" xmlns:xlink="http://www.w3.org/1999/xlink" xmlns:inkscape="http://www.inkscape.org/namespaces/inkscape" version="1.1" width="882.131" height="117.416" viewBox="0 0 882.131 117.416">
<style>
   @media (prefers-color-scheme: light) { :root { --color: #000000; } }
   @media (prefers-color-scheme: dark) { :root { --color: #DDDDDD; } }
</style>
<defs>
<path id="font_1_8" d="M.59599307 .51504519C.59498599 .6582031 .49699403 .74121096 .32899476 .74121096 .16899109 .74121096 .069992069 .65919497 .069992069 .52705386 .069992069 .43795777 .116989139 .38189698 .21299744 .35687257L.3939972 .30882264C.48599244 .2848053 .5279999 .24775696 .5279999 .19070435 .5279999 .1516571 .5069885 .11161804 .47599793 .08958435 .44699098 .06956482 .40098573 .058547975 .34199525 .058547975 .2630005 .058547975 .20899964 .07757568 .17399597 .11961365 .14698792 .1516571 .1349945 .18669129 .13598633 .23173523H.04798889C.04899597 .16467285 .06199646 .12062073 .09098816 .080581668 .14099121 .012557983 .22499085-.0234375 .33599855-.0234375 .4229889-.0234375 .49398805-.0034484864 .54100039 .032562257 .58999636 .07156372 .62098696 .13664246 .62098696 .19970703 .62098696 .28981019 .5649872 .35588075 .46598817 .38290406L.2829895 .43196107C.19499207 .4559784 .16299439 .4840088 .16299439 .5400696 .16299439 .614151 .22799683 .663208 .32598878 .663208 .44198609 .663208 .5069885 .6101532 .5079956 .51504519H.59599307Z"/>
<path id="font_1_23" d="M.2539978 .52441409H.16799927V.66841128H.084991458V.52441409H.01399231V.45640565H.084991458V.059570314C.084991458 .0065612795 .12098694-.0234375 .18598938-.0234375 .20599365-.0234375 .22599793-.021438599 .2539978-.016448975V.05355835C.24299622 .05055237 .22999573 .049560548 .21398926 .049560548 .17799378 .049560548 .16799927 .059570314 .16799927 .09664917V.45640565H.2539978V.52441409Z"/>
<path id="font_1_9" d="M.5349884 .048553468C.526001 .046554567 .5219879 .046554567 .5169983 .046554567 .48799134 .046554567 .47200013 .061569215 .47200013 .08760071V.39598084C.47200013 .48905946 .4039917 .5390625 .2749939 .5390625 .19898987 .5390625 .13598633 .5170593 .100997928 .47805787 .07699585 .45103456 .066986087 .42100526 .06498718 .36894227H.14898682C.1559906 .43301393 .19400025 .4620514 .27198792 .4620514 .34700013 .4620514 .3889923 .434021 .3889923 .3839569V.36193849C.3889923 .32688905 .36799623 .3118744 .3019867 .30386354 .18399048 .28884889 .1659851 .28483583 .13398743 .27182008 .07299805 .24679566 .041992189 .19973755 .041992189 .13165283 .041992189 .03656006 .10798645-.0234375 .21398926-.0234375 .27999879-.0234375 .33299256-.00044250489 .3919983 .05355835 .397995 .0005493164 .42399598-.0234375 .47799684-.0234375 .49499513-.0234375 .5079956-.021438599 .5349884-.014450073V.048553468M.3889923 .16468811C.3889923 .13665772 .3809967 .119644168 .35598756 .09661865 .32199098 .06556702 .2809906 .049560548 .23199463 .049560548 .16699219 .049560548 .1289978 .080596927 .1289978 .13365174 .1289978 .1887207 .1659851 .2167511 .25498963 .22976685 .34298707 .24179077 .36099244 .24578858 .3889923 .25880433V.16468811Z"/>
<path id="font_1_21" d="M.068984989 .52441409V0H.15299988V.27220155C.15299988 .34727479 .17199707 .39631654 .21199036 .42533876 .23799134 .4443512 .2630005 .45036317 .32099916 .45135499V.5364075C.30699159 .5380554 .2999878 .5390625 .2889862 .5390625 .23498535 .5390625 .19400025 .50704959 .1459961 .42904664V.52441409H.068984989Z"/>
<path id="font_1_3" d="M.07899475 0H.4079895C.47698976 0 .5279999 .018997193 .5669861 .06098938 .6029968 .09899902 .6230011 .15100098 .6230011 .20799256 .6230011 .29600526 .58299258 .34899903 .48999024 .3849945 .55599978 .41600038 .59098818 .46987916 .59098818 .5437317 .59098818 .59661868 .57099917 .6435089 .5329895 .6775055 .49499513 .71250918 .44499208 .7285156 .375 .7285156H.07899475V0M.17199707 .4149933V.6465149H.35198976C.4039917 .6465149 .43299867 .63952639 .45799256 .6205597 .48399354 .6006012 .49798585 .57066348 .49798585 .53074648 .49798585 .49183656 .48399354 .46090699 .45799256 .4409485 .43299867 .4219818 .4039917 .4149933 .35198976 .4149933H.17199707M.17199707 .08198547V.3330078H.39898683C.44400025 .3330078 .47399903 .32200624 .49598695 .29800416 .5179901 .2749939 .5299988 .24299622 .5299988 .20700073 .5299988 .17199707 .5179901 .13999939 .49598695 .116989139 .47399903 .09298706 .44400025 .08198547 .39898683 .08198547H.17199707Z"/>
<path id="font_1_16" d="M.1519928 .7285156H.067993167V0H.1519928V.7285156Z"/>
<path id="font_1_19" d="M.27198792 .5390625C.125 .5390625 .035995485 .434021 .035995485 .25779725 .035995485 .081588748 .12399292-.0234375 .272995-.0234375 .41999818-.0234375 .5099945 .081588748 .5099945 .25379945 .5099945 .43502809 .4229889 .5390625 .27198792 .5390625M.272995 .4620514C.36698915 .4620514 .4229889 .384964 .4229889 .25480653 .4229889 .13165283 .36499024 .05355835 .272995 .05355835 .17999268 .05355835 .12298584 .13064575 .12298584 .25779725 .12298584 .3839569 .17999268 .4620514 .272995 .4620514Z"/>
<path id="font_1_10" d="M.47099305 .34791566C.46699525 .39897157 .45599366 .4320221 .43598939 .46105958 .3999939 .51005557 .33699037 .5390625 .2639923 .5390625 .12298584 .5390625 .0309906 .4270172 .0309906 .25279237 .0309906 .08358765 .12098694-.0234375 .2630005-.0234375 .3880005-.0234375 .46699525 .05155945 .47698976 .17970276H.3929901C.3789978 .09561157 .33599855 .05355835 .2649994 .05355835 .17298889 .05355835 .117996219 .12864685 .117996219 .25279237 .117996219 .3839569 .17199707 .4620514 .2630005 .4620514 .33299256 .4620514 .3769989 .42100526 .3869934 .34791566H.47099305Z"/>
<path id="font_1_15" d="M.14099121 .7285156H.057998659V0H.14099121V.20385742L.22200012 .28381349 .39898683 0H.5019989L.28799439 .34277345 .46998597 .52363589H.36299134L.14099121 .30178834V.7285156Z"/>
<path id="font_1_6" d="M.70899966 .38476563H.40499879V.3027649H.6269989V.28274537C.6269989 .15263367 .5309906 .058547975 .397995 .058547975 .32398988 .058547975 .25698854 .08557129 .21398926 .13261414 .1659851 .18466187 .13699341 .27172853 .13699341 .36175538 .13699341 .5410156 .23899842 .6592102 .3929901 .6592102 .5039978 .6592102 .58399966 .6021118 .60398867 .5079651H.69898989C.6729889 .6562042 .5609894 .74121096 .3939972 .74121096 .30499269 .74121096 .23298645 .7182007 .17599488 .6712036 .09199524 .60110476 .04399109 .4879303 .04399109 .3567505 .04399109 .13261414 .18099976-.0234375 .37799073-.0234375 .47698976-.0234375 .55599978 .013549805 .6269989 .09259033L.6499939-.0044403078H.70899966V.38476563Z"/>
<path id="font_1_24" d="M.48199464-.00044250489V.52441409H.39898683V.22688294C.39898683 .11968994 .34298707 .049560548 .2559967 .049560548 .18998719 .049560548 .147995 .08963013 .147995 .15275574V.52441409H.06498718V.11968994C.06498718 .032562257 .12998963-.0234375 .23199463-.0234375 .30899049-.0234375 .35798646 .0035552979 .40699769 .07260132V-.00044250489H.48199464Z"/>
<path id="font_1_20" d="M.053985597-.21824646H.13798523V.05455017C.18199158 .0005493164 .23098755-.0234375 .29899598-.0234375 .43399049-.0234375 .522995 .08558655 .522995 .25279237 .522995 .4290161 .43699647 .5390625 .2979889 .5390625 .22698975 .5390625 .16999817 .50704959 .1309967 .44503785V.52404788H.053985597V-.21824646M.28399659 .46105958C.37599183 .46105958 .43598939 .3799591 .43598939 .25480653 .43598939 .13565064 .375 .05455017 .28399659 .05455017 .19599915 .05455017 .13798523 .13465882 .13798523 .25779725 .13798523 .38095094 .19599915 .46105958 .28399659 .46105958Z"/>
<path id="font_1_25" d="M.55400088 0 .70799258 .52441409H.6139984L.5099945 .11607361 .40699769 .52441409H.30499269L.20498657 .11607361 .09799194 .52441409H.005996704L.1579895 0H.2519989L.35299684 .41133119 .45899964 0H.55400088Z"/>
<path id="font_1_14" d="M.1499939 .5235901H.066986087V0H.1499939V.5235901M.1499939 .7285156H.06599426V.62350466H.1499939V.7285156Z"/>
<path id="font_1_13" d="M.069992069 .7285156V0H.15299988V.28903199C.15299988 .39604188 .20899964 .4660492 .29499818 .4660492 .32199098 .4660492 .34899903 .4570465 .36898805 .44204713 .3929901 .42504884 .40299989 .40003968 .40299989 .3630371V0H.48599244V.39604188C.48599244 .48405458 .4229889 .5390625 .32099916 .5390625 .24699402 .5390625 .20199585 .51605227 .15299988 .45205689V.7285156H.069992069Z"/>
<path id="font_1_12" d="M.5130005 .23374939C.5130005 .31376649 .5069885 .36186219 .49198915 .40093995 .45799256 .48706056 .37799073 .5390625 .27999879 .5390625 .13398743 .5390625 .039993287 .4269867 .039993287 .25474549 .039993287 .08258057 .1309967-.0234375 .27799989-.0234375 .397995-.0234375 .48098756 .044555665 .5019989 .15867615H.41799928C.394989 .08959961 .34799195 .05355835 .2809906 .05355835 .22799683 .05355835 .18299866 .07757568 .15499878 .12162781 .1349945 .1516571 .12799073 .18170166 .1269989 .23374939H.5130005M.1289978 .3017578C.13598633 .39894105 .19499207 .4620514 .2789917 .4620514 .36099244 .4620514 .42399598 .3939209 .42399598 .30775453 .42399598 .30575563 .42399598 .3037567 .4229889 .3017578H.1289978Z"/>
<path id="font_1_22" d="M.43798829 .37794496C.43699647 .48104859 .36898805 .5390625 .24798584 .5390625 .12599182 .5390625 .04699707 .47605897 .04699707 .37895204 .04699707 .29685975 .08898926 .25779725 .21299744 .22776795L.29100038 .20874024C.34899903 .19473267 .37199403 .17370606 .37199403 .13565064 .37199403 .08659363 .32299806 .05355835 .25 .05355835 .20498657 .05355835 .16699219 .0665741 .1459961 .08859253 .1329956 .10362244 .1269989 .118637088 .12199402 .15568543H.033996583C.037994386 .034561159 .10598755-.0234375 .24299622-.0234375 .375-.0234375 .45899964 .041549684 .45899964 .14266968 .45899964 .22076416 .4149933 .2638092 .31098939 .28884889L.23098755 .30786134C.16299439 .32388307 .13398743 .34591676 .13398743 .3829651 .13398743 .431015 .1769867 .4620514 .24499512 .4620514 .31199647 .4620514 .34799195 .43301393 .34999085 .37794496H.43798829Z"/>
<path id="font_1_17" d="M.069992069 .52441409V0H.1539917V.32925416C.1539917 .40504457 .20899964 .4660492 .2769928 .4660492 .33898927 .4660492 .37399293 .4280548 .37399293 .3610382V0H.45799256V.32904054C.45799256 .40504457 .5130005 .4660492 .58099368 .4660492 .6419983 .4660492 .6779938 .42704774 .6779938 .3610382V0H.7619934V.3930359C.7619934 .48706056 .70799258 .5390625 .6100006 .5390625 .5399933 .5390625 .49798585 .51805117 .44898988 .4590454 .41799928 .5150604 .37599183 .5390625 .30799867 .5390625 .23799134 .5390625 .19198609 .5130615 .14698792 .45005799V.52441409H.069992069Z"/>
<path id="font_1_26" d="M.2919922 .27120973 .46798707 .52441409H.37399293L.24798584 .33425904 .12199402 .52441409H.026992798L.20199585 .26719667 .016998291 0H.11199951L.24499512 .20114136 .37599183 0H.47299195L.2919922 .27120973Z"/>
<path id="font_1_11" d="M.49499513 .7285156H.4119873V.4580536C.3769989 .51104739 .32099916 .5390625 .25099183 .5390625 .114990238 .5390625 .025985718 .43000794 .025985718 .26280213 .025985718 .08558655 .11299133-.0234375 .2539978-.0234375 .32598878-.0234375 .37599183 .0035552979 .42099 .068573V-.00044250489H.49499513V.7285156M.2649994 .46105958C.35499574 .46105958 .4119873 .38095094 .4119873 .25579835 .4119873 .13465882 .35398866 .05455017 .2659912 .05455017 .17399597 .05455017 .11299133 .13565064 .11299133 .25779725 .11299133 .3799591 .17399597 .46105958 .2649994 .46105958Z"/>
<path id="font_1_4" d="M.6619873 .5030365C.6329956 .663208 .54100039 .74121096 .3809967 .74121096 .2829895 .74121096 .20399475 .7102051 .1499939 .65019229 .083999637 .57810977 .04798889 .47399903 .04798889 .35588075 .04798889 .23574829 .084991458 .1326294 .1539917 .061553956 .20999146 .0035552979 .28199769-.0234375 .3769989-.0234375 .5549927-.0234375 .6549988 .0725708 .6769867 .2657776H.58099368C.57299807 .21572876 .5629883 .1816864 .5479889 .15264893 .5179901 .09259033 .45599366 .058547975 .37799073 .058547975 .23298645 .058547975 .14099121 .17468262 .14099121 .35687257 .14099121 .54408267 .22898865 .6592102 .36999513 .6592102 .42900086 .6592102 .48399354 .6411743 .5139923 .6131439 .54100039 .5881195 .55599978 .55708315 .5669861 .5030365H.6619873Z"/>
<path id="font_1_1" d="M.25898744 .5049896V0H.34700013V.70899966H.2889862C.2579956 .59999087 .23799134 .58499148 .101989749 .56799319V.5049896H.25898744Z"/>
<path id="font_1_2" d="M.5059967 .08699036H.1329956C.14199829 .14498902 .17399597 .18199158 .26098634 .23298645L.36099244 .2869873C.45999146 .34098817 .5109863 .4139862 .5109863 .50097659 .5109863 .5599823 .4869995 .614975 .44499208 .65296939 .40299989 .690979 .35099793 .7089844 .28399659 .7089844 .19400025 .7089844 .1269989 .67697146 .08799744 .6169739 .06298828 .5789795 .051986696 .53497317 .049987794 .46298219H.13798523C.14099121 .5109863 .14698792 .539978 .15899658 .562973 .18199158 .6059723 .22799683 .63197329 .2809906 .63197329 .36099244 .63197329 .42099 .5749817 .42099 .49897767 .42099 .4429779 .3880005 .394989 .32499696 .35897828L.23298645 .30699159C.084991458 .22299195 .041992189 .1559906 .033996583 0H.5059967V.08699036Z"/>
<path id="font_1_7" d="M.18399048 .30862428H.41299439C.46998597 .30862428 .5149994 .32562257 .55400088 .36061097 .59799197 .4006195 .61698916 .44758607 .61698916 .5145569 .61698916 .6515045 .5359955 .7285156 .3919983 .7285156H.09098816V0H.18399048V.30862428M.18399048 .390625V.6465149H.37799073C.46699525 .6465149 .519989 .598526 .519989 .51856997 .519989 .43859864 .46699525 .390625 .37799073 .390625H.18399048Z"/>
<path id="font_1_18" d="M.069992069 .52441409V0H.1539917V.2892151C.1539917 .39604188 .20999146 .4660492 .29599 .4660492 .3619995 .4660492 .4039917 .42604066 .4039917 .3630371V0H.4869995V.39604188C.4869995 .4830475 .42199708 .5390625 .32099916 .5390625 .24299622 .5390625 .19299317 .50904849 .14698792 .43605042V.52441409H.069992069Z"/>
<path id="font_1_5" d="M.18299866 .33203126H.5799866V.41401673H.18299866V.6465149H.59498599V.7285156H.08999634V0H.61299136V.08198547H.18299866V.33203126Z"/>
</defs>
<path transform="matrix(1,0,0,-1,.199,65.795)" stroke-width=".79701" stroke-linecap="butt" stroke-miterlimit="10" stroke-linejoin="miter" fill="none" stroke="#ff8000" d="M40.74832-51.2234V51.2234H135.2592V-51.2234ZM135.2592 51.2234"/>
<path transform="matrix(1,0,0,-1,.199,65.795)" stroke-width=".79701" stroke-linecap="butt" stroke-miterlimit="10" stroke-linejoin="miter" fill="none" stroke="#ff0000" d="M139.51125-34.21536V34.21536H238.0749V-34.21536ZM238.0749 34.21536"/>
<path transform="matrix(1,0,0,-1,.199,65.795)" stroke-width=".79701" stroke-linecap="butt" stroke-miterlimit="10" stroke-linejoin="miter" fill="none" stroke="#4169e1" d="M242.32695-51.2234V51.2234H438.03703V-51.2234ZM438.03703 51.2234"/>
<path transform="matrix(1,0,0,-1,.199,65.795)" stroke-width=".79701" stroke-linecap="butt" stroke-miterlimit="10" stroke-linejoin="miter" fill="none" stroke="#ff0000" d="M446.54109-51.2234V51.2234H622.3198V-51.2234ZM622.3198 51.2234"/>
<path transform="matrix(1,0,0,-1,.199,65.795)" stroke-width=".79701" stroke-linecap="butt" stroke-miterlimit="10" stroke-linejoin="miter" fill="none" stroke="#ff0000" d="M626.5719-20.44048V34.61386H844.911V-20.44048ZM844.911 34.61386"/>
<path transform="matrix(1,0,0,-1,.199,65.795)" d="M28.55919 14.17339H.85039C.38072 14.17339 0 13.79266 0 13.323V-13.323C0-13.79266 .38072-14.17339 .85039-14.17339H28.55919C29.02885-14.17339 29.40959-13.79266 29.40959-13.323V13.323C29.40959 13.79266 29.02885 14.17339 28.55919 14.17339ZM0-14.17339" fill="#b3b3ff"/>
<path transform="matrix(1,0,0,-1,.199,65.795)" stroke-width=".3985" stroke-linecap="butt" stroke-miterlimit="10" stroke-linejoin="miter" fill="none" stroke="#262626" d="M28.55919 14.17339H.85039C.38072 14.17339 0 13.79266 0 13.323V-13.323C0-13.79266 .38072-14.17339 .85039-14.17339H28.55919C29.02885-14.17339 29.40959-13.79266 29.40959-13.323V13.323C29.40959 13.79266 29.02885 14.17339 28.55919 14.17339ZM0-14.17339"/>
<use data-text="S" xlink:href="#font_1_8" transform="matrix(9.96264,0,0,-9.96264,4.184,69.356)"/>
<use data-text="t" xlink:href="#font_1_23" transform="matrix(9.96264,0,0,-9.96264,10.829082,69.356)"/>
<use data-text="a" xlink:href="#font_1_9" transform="matrix(9.96264,0,0,-9.96264,13.598696,69.356)"/>
<use data-text="r" xlink:href="#font_1_21" transform="matrix(9.96264,0,0,-9.96264,19.137925,69.356)"/>
<use data-text="t" xlink:href="#font_1_23" transform="matrix(9.96264,0,0,-9.96264,22.853989,69.356)"/>
<path transform="matrix(1,0,0,-1,52.883,31.779)" d="M31.2794 14.17339H.85039C.38072 14.17339 0 13.79266 0 13.323V-13.323C0-13.79266 .38072-14.17339 .85039-14.17339H31.2794C31.74907-14.17339 32.1298-13.79266 32.1298-13.323V13.323C32.1298 13.79266 31.74907 14.17339 31.2794 14.17339ZM0-14.17339" fill="#e5e6e5"/>
<path transform="matrix(1,0,0,-1,52.883,31.779)" stroke-width=".3985" stroke-linecap="butt" stroke-miterlimit="10" stroke-linejoin="miter" fill="none" stroke="#262626" d="M31.2794 14.17339H.85039C.38072 14.17339 0 13.79266 0 13.323V-13.323C0-13.79266 .38072-14.17339 .85039-14.17339H31.2794C31.74907-14.17339 32.1298-13.79266 32.1298-13.323V13.323C32.1298 13.79266 31.74907 14.17339 31.2794 14.17339ZM0-14.17339"/>
<use data-text="B" xlink:href="#font_1_3" transform="matrix(9.96264,0,0,-9.96264,56.868,35.271005)"/>
<use data-text="l" xlink:href="#font_1_16" transform="matrix(9.96264,0,0,-9.96264,63.51308,35.271005)"/>
<use data-text="o" xlink:href="#font_1_19" transform="matrix(9.96264,0,0,-9.96264,65.724788,35.271005)"/>
<use data-text="c" xlink:href="#font_1_10" transform="matrix(9.96264,0,0,-9.96264,71.264019,35.271005)"/>
<use data-text="k" xlink:href="#font_1_15" transform="matrix(9.96264,0,0,-9.96264,76.04609,35.271005)"/>
<path transform="matrix(1,0,0,-1,52.883,31.779)" d="M71.91333 14.17339H41.48431C41.01466 14.17339 40.63393 13.79266 40.63393 13.323V-13.323C40.63393-13.79266 41.01466-14.17339 41.48431-14.17339H71.91333C72.383-14.17339 72.76373-13.79266 72.76373-13.323V13.323C72.76373 13.79266 72.383 14.17339 71.91333 14.17339ZM40.63393-14.17339" fill="#e5e6e5"/>
<path transform="matrix(1,0,0,-1,52.883,31.779)" stroke-width=".3985" stroke-linecap="butt" stroke-miterlimit="10" stroke-linejoin="miter" fill="none" stroke="#262626" d="M71.91333 14.17339H41.48431C41.01466 14.17339 40.63393 13.79266 40.63393 13.323V-13.323C40.63393-13.79266 41.01466-14.17339 41.48431-14.17339H71.91333C72.383-14.17339 72.76373-13.79266 72.76373-13.323V13.323C72.76373 13.79266 72.383 14.17339 71.91333 14.17339ZM40.63393-14.17339"/>
<use data-text="B" xlink:href="#font_1_3" transform="matrix(9.96264,0,0,-9.96264,97.502,35.271005)"/>
<use data-text="l" xlink:href="#font_1_16" transform="matrix(9.96264,0,0,-9.96264,104.14708,35.271005)"/>
<use data-text="o" xlink:href="#font_1_19" transform="matrix(9.96264,0,0,-9.96264,106.35879,35.271005)"/>
<use data-text="c" xlink:href="#font_1_10" transform="matrix(9.96264,0,0,-9.96264,111.89802,35.271005)"/>
<use data-text="k" xlink:href="#font_1_15" transform="matrix(9.96264,0,0,-9.96264,116.68009,35.271005)"/>
<path transform="matrix(1,0,0,-1,52.883,31.779)" stroke-width=".79701" stroke-linecap="butt" stroke-miterlimit="10" stroke-linejoin="miter" fill="none" stroke="var(--color)" d="M32.1298 0V0H40.63393"/>
<path transform="matrix(1,0,0,-1,44.18,31.779)" stroke-width=".79701" stroke-linecap="butt" stroke-miterlimit="10" stroke-linejoin="miter" fill="none" stroke="var(--color)" d="M0 0V0H8.70337"/>
<path transform="matrix(1,0,0,-1,52.883,65.795)" d="M31.2794 14.17339H.85039C.38072 14.17339 0 13.79266 0 13.323V-13.323C0-13.79266 .38072-14.17339 .85039-14.17339H31.2794C31.74907-14.17339 32.1298-13.79266 32.1298-13.323V13.323C32.1298 13.79266 31.74907 14.17339 31.2794 14.17339ZM0-14.17339" fill="#e5e6e5"/>
<path transform="matrix(1,0,0,-1,52.883,65.795)" stroke-width=".3985" stroke-linecap="butt" stroke-miterlimit="10" stroke-linejoin="miter" fill="none" stroke="#262626" d="M31.2794 14.17339H.85039C.38072 14.17339 0 13.79266 0 13.323V-13.323C0-13.79266 .38072-14.17339 .85039-14.17339H31.2794C31.74907-14.17339 32.1298-13.79266 32.1298-13.323V13.323C32.1298 13.79266 31.74907 14.17339 31.2794 14.17339ZM0-14.17339"/>
<use data-text="B" xlink:href="#font_1_3" transform="matrix(9.96264,0,0,-9.96264,56.868,69.287)"/>
<use data-text="l" xlink:href="#font_1_16" transform="matrix(9.96264,0,0,-9.96264,63.51308,69.287)"/>
<use data-text="o" xlink:href="#font_1_19" transform="matrix(9.96264,0,0,-9.96264,65.724788,69.287)"/>
<use data-text="c" xlink:href="#font_1_10" transform="matrix(9.96264,0,0,-9.96264,71.264019,69.287)"/>
<use data-text="k" xlink:href="#font_1_15" transform="matrix(9.96264,0,0,-9.96264,76.04609,69.287)"/>
<path transform="matrix(1,0,0,-1,52.883,65.795)" d="M71.91333 14.17339H41.48431C41.01466 14.17339 40.63393 13.79266 40.63393 13.323V-13.323C40.63393-13.79266 41.01466-14.17339 41.48431-14.17339H71.91333C72.383-14.17339 72.76373-13.79266 72.76373-13.323V13.323C72.76373 13.79266 72.383 14.17339 71.91333 14.17339ZM40.63393-14.17339" fill="#e5e6e5"/>
<path transform="matrix(1,0,0,-1,52.883,65.795)" stroke-width=".3985" stroke-linecap="butt" stroke-miterlimit="10" stroke-linejoin="miter" fill="none" stroke="#262626" d="M71.91333 14.17339H41.48431C41.01466 14.17339 40.63393 13.79266 40.63393 13.323V-13.323C40.63393-13.79266 41.01466-14.17339 41.48431-14.17339H71.91333C72.383-14.17339 72.76373-13.79266 72.76373-13.323V13.323C72.76373 13.79266 72.383 14.17339 71.91333 14.17339ZM40.63393-14.17339"/>
<use data-text="B" xlink:href="#font_1_3" transform="matrix(9.96264,0,0,-9.96264,97.502,69.287)"/>
<use data-text="l" xlink:href="#font_1_16" transform="matrix(9.96264,0,0,-9.96264,104.14708,69.287)"/>
<use data-text="o" xlink:href="#font_1_19" transform="matrix(9.96264,0,0,-9.96264,106.35879,69.287)"/>
<use data-text="c" xlink:href="#font_1_10" transform="matrix(9.96264,0,0,-9.96264,111.89802,69.287)"/>
<use data-text="k" xlink:href="#font_1_15" transform="matrix(9.96264,0,0,-9.96264,116.68009,69.287)"/>
<path transform="matrix(1,0,0,-1,52.883,65.795)" stroke-width=".79701" stroke-linecap="butt" stroke-miterlimit="10" stroke-linejoin="miter" fill="none" stroke="var(--color)" d="M32.1298 0V0H40.63393"/>
<path transform="matrix(1,0,0,-1,44.18,31.779)" stroke-width=".79701" stroke-linecap="butt" stroke-miterlimit="10" stroke-linejoin="miter" fill="none" stroke="var(--color)" d="M0 0V0-34.0161H8.70337"/>
<path transform="matrix(1,0,0,-1,52.883,99.81)" d="M31.2794 14.17339H.85039C.38072 14.17339 0 13.79266 0 13.323V-13.323C0-13.79266 .38072-14.17339 .85039-14.17339H31.2794C31.74907-14.17339 32.1298-13.79266 32.1298-13.323V13.323C32.1298 13.79266 31.74907 14.17339 31.2794 14.17339ZM0-14.17339" fill="#e5e6e5"/>
<path transform="matrix(1,0,0,-1,52.883,99.81)" stroke-width=".3985" stroke-linecap="butt" stroke-miterlimit="10" stroke-linejoin="miter" fill="none" stroke="#262626" d="M31.2794 14.17339H.85039C.38072 14.17339 0 13.79266 0 13.323V-13.323C0-13.79266 .38072-14.17339 .85039-14.17339H31.2794C31.74907-14.17339 32.1298-13.79266 32.1298-13.323V13.323C32.1298 13.79266 31.74907 14.17339 31.2794 14.17339ZM0-14.17339"/>
<use data-text="B" xlink:href="#font_1_3" transform="matrix(9.96264,0,0,-9.96264,56.868,103.301998)"/>
<use data-text="l" xlink:href="#font_1_16" transform="matrix(9.96264,0,0,-9.96264,63.51308,103.301998)"/>
<use data-text="o" xlink:href="#font_1_19" transform="matrix(9.96264,0,0,-9.96264,65.724788,103.301998)"/>
<use data-text="c" xlink:href="#font_1_10" transform="matrix(9.96264,0,0,-9.96264,71.264019,103.301998)"/>
<use data-text="k" xlink:href="#font_1_15" transform="matrix(9.96264,0,0,-9.96264,76.04609,103.301998)"/>
<path transform="matrix(1,0,0,-1,52.883,99.81)" d="M71.91333 14.17339H41.48431C41.01466 14.17339 40.63393 13.79266 40.63393 13.323V-13.323C40.63393-13.79266 41.01466-14.17339 41.48431-14.17339H71.91333C72.383-14.17339 72.76373-13.79266 72.76373-13.323V13.323C72.76373 13.79266 72.383 14.17339 71.91333 14.17339ZM40.63393-14.17339" fill="#e5e6e5"/>
<path transform="matrix(1,0,0,-1,52.883,99.81)" stroke-width=".3985" stroke-linecap="butt" stroke-miterlimit="10" stroke-linejoin="miter" fill="none" stroke="#262626" d="M71.91333 14.17339H41.48431C41.01466 14.17339 40.63393 13.79266 40.63393 13.323V-13.323C40.63393-13.79266 41.01466-14.17339 41.48431-14.17339H71.91333C72.383-14.17339 72.76373-13.79266 72.76373-13.323V13.323C72.76373 13.79266 72.383 14.17339 71.91333 14.17339ZM40.63393-14.17339"/>
<use data-text="B" xlink:href="#font_1_3" transform="matrix(9.96264,0,0,-9.96264,97.502,103.301998)"/>
<use data-text="l" xlink:href="#font_1_16" transform="matrix(9.96264,0,0,-9.96264,104.14708,103.301998)"/>
<use data-text="o" xlink:href="#font_1_19" transform="matrix(9.96264,0,0,-9.96264,106.35879,103.301998)"/>
<use data-text="c" xlink:href="#font_1_10" transform="matrix(9.96264,0,0,-9.96264,111.89802,103.301998)"/>
<use data-text="k" xlink:href="#font_1_15" transform="matrix(9.96264,0,0,-9.96264,116.68009,103.301998)"/>
<path transform="matrix(1,0,0,-1,52.883,99.81)" stroke-width=".79701" stroke-linecap="butt" stroke-miterlimit="10" stroke-linejoin="miter" fill="none" stroke="var(--color)" d="M32.1298 0V0H40.63393"/>
<path transform="matrix(1,0,0,-1,44.18,31.779)" stroke-width=".79701" stroke-linecap="butt" stroke-miterlimit="10" stroke-linejoin="miter" fill="none" stroke="var(--color)" d="M0 0V0-68.0322H8.70337"/>
<path transform="matrix(1,0,0,-1,44.18,31.779)" stroke-width=".79701" stroke-linecap="butt" stroke-miterlimit="10" stroke-linejoin="miter" fill="none" stroke="var(--color)" d="M81.66634 0H88.04454V-34.0161H81.66634"/>
<path transform="matrix(1,0,0,-1,44.18,31.779)" stroke-width=".79701" stroke-linecap="butt" stroke-miterlimit="10" stroke-linejoin="miter" fill="none" stroke="var(--color)" d="M81.66634 0H88.04454V-68.0322H81.66634"/>
<path transform="matrix(1,0,0,-1,.199,65.795)" stroke-width=".79701" stroke-linecap="butt" stroke-miterlimit="10" stroke-linejoin="miter" fill="none" stroke="var(--color)" d="M29.40959 0H43.583"/>
<path transform="matrix(1,0,0,-1,.199,65.795)" d="M40.74832 51.2234V65.3968H135.2592V51.2234ZM135.2592 65.3968" fill="#ffbf80"/>
<path transform="matrix(1,0,0,-1,.199,65.795)" stroke-width=".79701" stroke-linecap="butt" stroke-miterlimit="10" stroke-linejoin="miter" fill="none" stroke="#ff8000" d="M40.74832 51.2234V65.3968H135.2592V51.2234ZM135.2592 65.3968"/>
<use data-text="G" xlink:href="#font_1_6" transform="matrix(9.96264,0,0,-9.96264,48.541,10.100998)"/>
<use data-text="r" xlink:href="#font_1_21" transform="matrix(9.96264,0,0,-9.96264,56.291936,10.100998)"/>
<use data-text="o" xlink:href="#font_1_19" transform="matrix(9.96264,0,0,-9.96264,59.609495,10.100998)"/>
<use data-text="u" xlink:href="#font_1_24" transform="matrix(9.96264,0,0,-9.96264,65.14872,10.100998)"/>
<use data-text="p" xlink:href="#font_1_20" transform="matrix(9.96264,0,0,-9.96264,70.68795,10.100998)"/>
<use data-text="w" xlink:href="#font_1_25" transform="matrix(9.96264,0,0,-9.96264,78.996799,10.100998)"/>
<use data-text="i" xlink:href="#font_1_14" transform="matrix(9.96264,0,0,-9.96264,86.18982,10.100998)"/>
<use data-text="t" xlink:href="#font_1_23" transform="matrix(9.96264,0,0,-9.96264,88.40153,10.100998)"/>
<use data-text="h" xlink:href="#font_1_13" transform="matrix(9.96264,0,0,-9.96264,91.17114,10.100998)"/>
<use data-text="S" xlink:href="#font_1_8" transform="matrix(9.96264,0,0,-9.96264,99.470027,10.100998)"/>
<use data-text="e" xlink:href="#font_1_12" transform="matrix(9.96264,0,0,-9.96264,106.115108,10.100998)"/>
<use data-text="r" xlink:href="#font_1_21" transform="matrix(9.96264,0,0,-9.96264,111.654338,10.100998)"/>
<use data-text="i" xlink:href="#font_1_14" transform="matrix(9.96264,0,0,-9.96264,115.12133,10.100998)"/>
<use data-text="e" xlink:href="#font_1_12" transform="matrix(9.96264,0,0,-9.96264,117.33304,10.100998)"/>
<use data-text="s" xlink:href="#font_1_22" transform="matrix(9.96264,0,0,-9.96264,122.87227,10.100998)"/>
<path transform="matrix(1,0,0,-1,146.995,65.795)" d="M31.2794 14.17339H.85039C.38072 14.17339 0 13.79266 0 13.323V-13.323C0-13.79266 .38072-14.17339 .85039-14.17339H31.2794C31.74907-14.17339 32.1298-13.79266 32.1298-13.323V13.323C32.1298 13.79266 31.74907 14.17339 31.2794 14.17339ZM0-14.17339" fill="#e5e6e5"/>
<path transform="matrix(1,0,0,-1,146.995,65.795)" stroke-width=".3985" stroke-linecap="butt" stroke-miterlimit="10" stroke-linejoin="miter" fill="none" stroke="#262626" d="M31.2794 14.17339H.85039C.38072 14.17339 0 13.79266 0 13.323V-13.323C0-13.79266 .38072-14.17339 .85039-14.17339H31.2794C31.74907-14.17339 32.1298-13.79266 32.1298-13.323V13.323C32.1298 13.79266 31.74907 14.17339 31.2794 14.17339ZM0-14.17339"/>
<use data-text="B" xlink:href="#font_1_3" transform="matrix(9.96264,0,0,-9.96264,150.98,69.287)"/>
<use data-text="l" xlink:href="#font_1_16" transform="matrix(9.96264,0,0,-9.96264,157.62508,69.287)"/>
<use data-text="o" xlink:href="#font_1_19" transform="matrix(9.96264,0,0,-9.96264,159.83678,69.287)"/>
<use data-text="c" xlink:href="#font_1_10" transform="matrix(9.96264,0,0,-9.96264,165.376,69.287)"/>
<use data-text="k" xlink:href="#font_1_15" transform="matrix(9.96264,0,0,-9.96264,170.15808,69.287)"/>
<path transform="matrix(1,0,0,-1,188.02599,48.786996)" d="M39.78352 14.17339H9.3545C8.88484 14.17339 8.50412 13.79266 8.50412 13.323V-13.323C8.50412-13.79266 8.88484-14.17339 9.3545-14.17339H39.78352C40.25319-14.17339 40.63393-13.79266 40.63393-13.323V13.323C40.63393 13.79266 40.25319 14.17339 39.78352 14.17339ZM8.50412-14.17339" fill="#e5e6e5"/>
<path transform="matrix(1,0,0,-1,188.02599,48.786996)" stroke-width=".3985" stroke-linecap="butt" stroke-miterlimit="10" stroke-linejoin="miter" fill="none" stroke="#262626" d="M39.78352 14.17339H9.3545C8.88484 14.17339 8.50412 13.79266 8.50412 13.323V-13.323C8.50412-13.79266 8.88484-14.17339 9.3545-14.17339H39.78352C40.25319-14.17339 40.63393-13.79266 40.63393-13.323V13.323C40.63393 13.79266 40.25319 14.17339 39.78352 14.17339ZM8.50412-14.17339"/>
<use data-text="B" xlink:href="#font_1_3" transform="matrix(9.96264,0,0,-9.96264,200.51599,52.279)"/>
<use data-text="l" xlink:href="#font_1_16" transform="matrix(9.96264,0,0,-9.96264,207.16107,52.279)"/>
<use data-text="o" xlink:href="#font_1_19" transform="matrix(9.96264,0,0,-9.96264,209.37277,52.279)"/>
<use data-text="c" xlink:href="#font_1_10" transform="matrix(9.96264,0,0,-9.96264,214.912,52.279)"/>
<use data-text="k" xlink:href="#font_1_15" transform="matrix(9.96264,0,0,-9.96264,219.69408,52.279)"/>
<path transform="matrix(1,0,0,-1,188.02599,48.786996)" stroke-width=".79701" stroke-linecap="butt" stroke-miterlimit="10" stroke-linejoin="miter" fill="none" stroke="var(--color)" d="M0 0V0H8.50412"/>
<path transform="matrix(1,0,0,-1,188.02599,48.786996)" d="M39.78352-19.8427H9.3545C8.88484-19.8427 8.50412-20.22343 8.50412-20.6931V-47.3391C8.50412-47.80876 8.88484-48.18948 9.3545-48.18948H39.78352C40.25319-48.18948 40.63393-47.80876 40.63393-47.3391V-20.6931C40.63393-20.22343 40.25319-19.8427 39.78352-19.8427ZM8.50412-48.18948" fill="#e5e6e5"/>
<path transform="matrix(1,0,0,-1,188.02599,48.786996)" stroke-width=".3985" stroke-linecap="butt" stroke-miterlimit="10" stroke-linejoin="miter" fill="none" stroke="#262626" d="M39.78352-19.8427H9.3545C8.88484-19.8427 8.50412-20.22343 8.50412-20.6931V-47.3391C8.50412-47.80876 8.88484-48.18948 9.3545-48.18948H39.78352C40.25319-48.18948 40.63393-47.80876 40.63393-47.3391V-20.6931C40.63393-20.22343 40.25319-19.8427 39.78352-19.8427ZM8.50412-48.18948"/>
<use data-text="B" xlink:href="#font_1_3" transform="matrix(9.96264,0,0,-9.96264,200.51599,86.29399)"/>
<use data-text="l" xlink:href="#font_1_16" transform="matrix(9.96264,0,0,-9.96264,207.16107,86.29399)"/>
<use data-text="o" xlink:href="#font_1_19" transform="matrix(9.96264,0,0,-9.96264,209.37277,86.29399)"/>
<use data-text="c" xlink:href="#font_1_10" transform="matrix(9.96264,0,0,-9.96264,214.912,86.29399)"/>
<use data-text="k" xlink:href="#font_1_15" transform="matrix(9.96264,0,0,-9.96264,219.69408,86.29399)"/>
<path transform="matrix(1,0,0,-1,188.02599,48.786996)" stroke-width=".79701" stroke-linecap="butt" stroke-miterlimit="10" stroke-linejoin="miter" fill="none" stroke="var(--color)" d="M0 0V0-34.0161H8.50412"/>
<path transform="matrix(1,0,0,-1,188.02599,48.786996)" stroke-width=".79701" stroke-linecap="butt" stroke-miterlimit="10" stroke-linejoin="miter" fill="none" stroke="var(--color)" d="M40.63393 0H47.01213V-34.0161H40.63393"/>
<path transform="matrix(1,0,0,-1,146.995,65.795)" stroke-width=".79701" stroke-linecap="butt" stroke-miterlimit="10" stroke-linejoin="miter" fill="none" stroke="var(--color)" d="M32.1298 0H40.63393"/>
<path transform="matrix(1,0,0,-1,.199,65.795)" stroke-width=".79701" stroke-linecap="butt" stroke-miterlimit="10" stroke-linejoin="miter" fill="none" stroke="var(--color)" d="M132.42453 0H139.51123 146.79718"/>
<path transform="matrix(1,0,0,-1,.199,65.795)" d="M139.51125 34.21536V48.38876H238.0749V34.21536ZM238.0749 48.38876" fill="#ff8080"/>
<path transform="matrix(1,0,0,-1,.199,65.795)" stroke-width=".79701" stroke-linecap="butt" stroke-miterlimit="10" stroke-linejoin="miter" fill="none" stroke="#ff0000" d="M139.51125 34.21536V48.38876H238.0749V34.21536ZM238.0749 48.38876"/>
<use data-text="S" xlink:href="#font_1_8" transform="matrix(9.96264,0,0,-9.96264,151.455,27.108002)"/>
<use data-text="e" xlink:href="#font_1_12" transform="matrix(9.96264,0,0,-9.96264,158.10009,27.108002)"/>
<use data-text="r" xlink:href="#font_1_21" transform="matrix(9.96264,0,0,-9.96264,163.63932,27.108002)"/>
<use data-text="i" xlink:href="#font_1_14" transform="matrix(9.96264,0,0,-9.96264,167.10633,27.108002)"/>
<use data-text="e" xlink:href="#font_1_12" transform="matrix(9.96264,0,0,-9.96264,169.31803,27.108002)"/>
<use data-text="s" xlink:href="#font_1_22" transform="matrix(9.96264,0,0,-9.96264,174.85726,27.108002)"/>
<use data-text="w" xlink:href="#font_1_25" transform="matrix(9.96264,0,0,-9.96264,182.60819,27.108002)"/>
<use data-text="i" xlink:href="#font_1_14" transform="matrix(9.96264,0,0,-9.96264,189.80121,27.108002)"/>
<use data-text="t" xlink:href="#font_1_23" transform="matrix(9.96264,0,0,-9.96264,192.01291,27.108002)"/>
<use data-text="h" xlink:href="#font_1_13" transform="matrix(9.96264,0,0,-9.96264,194.78252,27.108002)"/>
<use data-text="G" xlink:href="#font_1_6" transform="matrix(9.96264,0,0,-9.96264,203.08139,27.108002)"/>
<use data-text="r" xlink:href="#font_1_21" transform="matrix(9.96264,0,0,-9.96264,210.83232,27.108002)"/>
<use data-text="o" xlink:href="#font_1_19" transform="matrix(9.96264,0,0,-9.96264,214.14989,27.108002)"/>
<use data-text="u" xlink:href="#font_1_24" transform="matrix(9.96264,0,0,-9.96264,219.68912,27.108002)"/>
<use data-text="p" xlink:href="#font_1_20" transform="matrix(9.96264,0,0,-9.96264,225.22835,27.108002)"/>
<path transform="matrix(1,0,0,-1,250.008,48.786996)" d="M39.78352 14.17339H9.3545C8.88484 14.17339 8.50412 13.79266 8.50412 13.323V-13.323C8.50412-13.79266 8.88484-14.17339 9.3545-14.17339H39.78352C40.25319-14.17339 40.63393-13.79266 40.63393-13.323V13.323C40.63393 13.79266 40.25319 14.17339 39.78352 14.17339ZM8.50412-14.17339" fill="#e5e6e5"/>
<path transform="matrix(1,0,0,-1,250.008,48.786996)" stroke-width=".3985" stroke-linecap="butt" stroke-miterlimit="10" stroke-linejoin="miter" fill="none" stroke="#262626" d="M39.78352 14.17339H9.3545C8.88484 14.17339 8.50412 13.79266 8.50412 13.323V-13.323C8.50412-13.79266 8.88484-14.17339 9.3545-14.17339H39.78352C40.25319-14.17339 40.63393-13.79266 40.63393-13.323V13.323C40.63393 13.79266 40.25319 14.17339 39.78352 14.17339ZM8.50412-14.17339"/>
<use data-text="B" xlink:href="#font_1_3" transform="matrix(9.96264,0,0,-9.96264,262.497,52.279)"/>
<use data-text="l" xlink:href="#font_1_16" transform="matrix(9.96264,0,0,-9.96264,269.1421,52.279)"/>
<use data-text="o" xlink:href="#font_1_19" transform="matrix(9.96264,0,0,-9.96264,271.3538,52.279)"/>
<use data-text="c" xlink:href="#font_1_10" transform="matrix(9.96264,0,0,-9.96264,276.893,52.279)"/>
<use data-text="k" xlink:href="#font_1_15" transform="matrix(9.96264,0,0,-9.96264,281.67509,52.279)"/>
<path transform="matrix(1,0,0,-1,250.008,48.786996)" stroke-width=".79701" stroke-linecap="butt" stroke-miterlimit="10" stroke-linejoin="miter" fill="none" stroke="var(--color)" d="M0 0V0H8.50412"/>
<path transform="matrix(1,0,0,-1,250.008,48.786996)" d="M39.78352-19.8427H9.3545C8.88484-19.8427 8.50412-20.22343 8.50412-20.6931V-47.3391C8.50412-47.80876 8.88484-48.18948 9.3545-48.18948H39.78352C40.25319-48.18948 40.63393-47.80876 40.63393-47.3391V-20.6931C40.63393-20.22343 40.25319-19.8427 39.78352-19.8427ZM8.50412-48.18948" fill="#e5e6e5"/>
<path transform="matrix(1,0,0,-1,250.008,48.786996)" stroke-width=".3985" stroke-linecap="butt" stroke-miterlimit="10" stroke-linejoin="miter" fill="none" stroke="#262626" d="M39.78352-19.8427H9.3545C8.88484-19.8427 8.50412-20.22343 8.50412-20.6931V-47.3391C8.50412-47.80876 8.88484-48.18948 9.3545-48.18948H39.78352C40.25319-48.18948 40.63393-47.80876 40.63393-47.3391V-20.6931C40.63393-20.22343 40.25319-19.8427 39.78352-19.8427ZM8.50412-48.18948"/>
<use data-text="B" xlink:href="#font_1_3" transform="matrix(9.96264,0,0,-9.96264,262.497,86.29399)"/>
<use data-text="l" xlink:href="#font_1_16" transform="matrix(9.96264,0,0,-9.96264,269.1421,86.29399)"/>
<use data-text="o" xlink:href="#font_1_19" transform="matrix(9.96264,0,0,-9.96264,271.3538,86.29399)"/>
<use data-text="c" xlink:href="#font_1_10" transform="matrix(9.96264,0,0,-9.96264,276.893,86.29399)"/>
<use data-text="k" xlink:href="#font_1_15" transform="matrix(9.96264,0,0,-9.96264,281.67509,86.29399)"/>
<path transform="matrix(1,0,0,-1,250.008,48.786996)" stroke-width=".79701" stroke-linecap="butt" stroke-miterlimit="10" stroke-linejoin="miter" fill="none" stroke="var(--color)" d="M0 0V0-34.0161H8.50412"/>
<path transform="matrix(1,0,0,-1,250.008,48.786996)" stroke-width=".79701" stroke-linecap="butt" stroke-miterlimit="10" stroke-linejoin="miter" fill="none" stroke="var(--color)" d="M40.63393 0H47.01213V-34.0161H40.63393"/>
<path transform="matrix(1,0,0,-1,249.61,65.795)" d="M87.59265 14.17339H57.16364C56.69397 14.17339 56.31325 13.79266 56.31325 13.323V-13.323C56.31325-13.79266 56.69397-14.17339 57.16364-14.17339H87.59265C88.06232-14.17339 88.44305-13.79266 88.44305-13.323V13.323C88.44305 13.79266 88.06232 14.17339 87.59265 14.17339ZM56.31325-14.17339" fill="#e5e6e5"/>
<path transform="matrix(1,0,0,-1,249.61,65.795)" stroke-width=".3985" stroke-linecap="butt" stroke-miterlimit="10" stroke-linejoin="miter" fill="none" stroke="#262626" d="M87.59265 14.17339H57.16364C56.69397 14.17339 56.31325 13.79266 56.31325 13.323V-13.323C56.31325-13.79266 56.69397-14.17339 57.16364-14.17339H87.59265C88.06232-14.17339 88.44305-13.79266 88.44305-13.323V13.323C88.44305 13.79266 88.06232 14.17339 87.59265 14.17339ZM56.31325-14.17339"/>
<use data-text="B" xlink:href="#font_1_3" transform="matrix(9.96264,0,0,-9.96264,309.907,69.287)"/>
<use data-text="l" xlink:href="#font_1_16" transform="matrix(9.96264,0,0,-9.96264,316.5521,69.287)"/>
<use data-text="o" xlink:href="#font_1_19" transform="matrix(9.96264,0,0,-9.96264,318.7638,69.287)"/>
<use data-text="c" xlink:href="#font_1_10" transform="matrix(9.96264,0,0,-9.96264,324.303,69.287)"/>
<use data-text="k" xlink:href="#font_1_15" transform="matrix(9.96264,0,0,-9.96264,329.08509,69.287)"/>
<path transform="matrix(1,0,0,-1,249.61,65.795)" stroke-width=".79701" stroke-linecap="butt" stroke-miterlimit="10" stroke-linejoin="miter" fill="none" stroke="var(--color)" d="M47.80911 0H54.89581 56.31325"/>
<path transform="matrix(1,0,0,-1,355.657,31.779)" d="M31.2794 14.17339H.85039C.38072 14.17339 0 13.79266 0 13.323V-13.323C0-13.79266 .38072-14.17339 .85039-14.17339H31.2794C31.74907-14.17339 32.1298-13.79266 32.1298-13.323V13.323C32.1298 13.79266 31.74907 14.17339 31.2794 14.17339ZM0-14.17339" fill="#e5e6e5"/>
<path transform="matrix(1,0,0,-1,355.657,31.779)" stroke-width=".3985" stroke-linecap="butt" stroke-miterlimit="10" stroke-linejoin="miter" fill="none" stroke="#262626" d="M31.2794 14.17339H.85039C.38072 14.17339 0 13.79266 0 13.323V-13.323C0-13.79266 .38072-14.17339 .85039-14.17339H31.2794C31.74907-14.17339 32.1298-13.79266 32.1298-13.323V13.323C32.1298 13.79266 31.74907 14.17339 31.2794 14.17339ZM0-14.17339"/>
<use data-text="B" xlink:href="#font_1_3" transform="matrix(9.96264,0,0,-9.96264,359.642,35.271005)"/>
<use data-text="l" xlink:href="#font_1_16" transform="matrix(9.96264,0,0,-9.96264,366.28709,35.271005)"/>
<use data-text="o" xlink:href="#font_1_19" transform="matrix(9.96264,0,0,-9.96264,368.49879,35.271005)"/>
<use data-text="c" xlink:href="#font_1_10" transform="matrix(9.96264,0,0,-9.96264,374.038,35.271005)"/>
<use data-text="k" xlink:href="#font_1_15" transform="matrix(9.96264,0,0,-9.96264,378.82008,35.271005)"/>
<path transform="matrix(1,0,0,-1,355.657,31.779)" d="M71.91333 14.17339H41.48431C41.01466 14.17339 40.63393 13.79266 40.63393 13.323V-13.323C40.63393-13.79266 41.01466-14.17339 41.48431-14.17339H71.91333C72.383-14.17339 72.76373-13.79266 72.76373-13.323V13.323C72.76373 13.79266 72.383 14.17339 71.91333 14.17339ZM40.63393-14.17339" fill="#e5e6e5"/>
<path transform="matrix(1,0,0,-1,355.657,31.779)" stroke-width=".3985" stroke-linecap="butt" stroke-miterlimit="10" stroke-linejoin="miter" fill="none" stroke="#262626" d="M71.91333 14.17339H41.48431C41.01466 14.17339 40.63393 13.79266 40.63393 13.323V-13.323C40.63393-13.79266 41.01466-14.17339 41.48431-14.17339H71.91333C72.383-14.17339 72.76373-13.79266 72.76373-13.323V13.323C72.76373 13.79266 72.383 14.17339 71.91333 14.17339ZM40.63393-14.17339"/>
<use data-text="B" xlink:href="#font_1_3" transform="matrix(9.96264,0,0,-9.96264,400.276,35.271005)"/>
<use data-text="l" xlink:href="#font_1_16" transform="matrix(9.96264,0,0,-9.96264,406.92109,35.271005)"/>
<use data-text="o" xlink:href="#font_1_19" transform="matrix(9.96264,0,0,-9.96264,409.13279,35.271005)"/>
<use data-text="c" xlink:href="#font_1_10" transform="matrix(9.96264,0,0,-9.96264,414.672,35.271005)"/>
<use data-text="k" xlink:href="#font_1_15" transform="matrix(9.96264,0,0,-9.96264,419.45408,35.271005)"/>
<path transform="matrix(1,0,0,-1,355.657,31.779)" stroke-width=".79701" stroke-linecap="butt" stroke-miterlimit="10" stroke-linejoin="miter" fill="none" stroke="var(--color)" d="M32.1298 0V0H40.63393"/>
<path transform="matrix(1,0,0,-1,346.954,31.779)" stroke-width=".79701" stroke-linecap="butt" stroke-miterlimit="10" stroke-linejoin="miter" fill="none" stroke="var(--color)" d="M0 0V0H8.70337"/>
<path transform="matrix(1,0,0,-1,355.657,65.795)" d="M31.2794 14.17339H.85039C.38072 14.17339 0 13.79266 0 13.323V-13.323C0-13.79266 .38072-14.17339 .85039-14.17339H31.2794C31.74907-14.17339 32.1298-13.79266 32.1298-13.323V13.323C32.1298 13.79266 31.74907 14.17339 31.2794 14.17339ZM0-14.17339" fill="#e5e6e5"/>
<path transform="matrix(1,0,0,-1,355.657,65.795)" stroke-width=".3985" stroke-linecap="butt" stroke-miterlimit="10" stroke-linejoin="miter" fill="none" stroke="#262626" d="M31.2794 14.17339H.85039C.38072 14.17339 0 13.79266 0 13.323V-13.323C0-13.79266 .38072-14.17339 .85039-14.17339H31.2794C31.74907-14.17339 32.1298-13.79266 32.1298-13.323V13.323C32.1298 13.79266 31.74907 14.17339 31.2794 14.17339ZM0-14.17339"/>
<use data-text="B" xlink:href="#font_1_3" transform="matrix(9.96264,0,0,-9.96264,359.642,69.287)"/>
<use data-text="l" xlink:href="#font_1_16" transform="matrix(9.96264,0,0,-9.96264,366.28709,69.287)"/>
<use data-text="o" xlink:href="#font_1_19" transform="matrix(9.96264,0,0,-9.96264,368.49879,69.287)"/>
<use data-text="c" xlink:href="#font_1_10" transform="matrix(9.96264,0,0,-9.96264,374.038,69.287)"/>
<use data-text="k" xlink:href="#font_1_15" transform="matrix(9.96264,0,0,-9.96264,378.82008,69.287)"/>
<path transform="matrix(1,0,0,-1,355.657,65.795)" d="M71.91333 14.17339H41.48431C41.01466 14.17339 40.63393 13.79266 40.63393 13.323V-13.323C40.63393-13.79266 41.01466-14.17339 41.48431-14.17339H71.91333C72.383-14.17339 72.76373-13.79266 72.76373-13.323V13.323C72.76373 13.79266 72.383 14.17339 71.91333 14.17339ZM40.63393-14.17339" fill="#e5e6e5"/>
<path transform="matrix(1,0,0,-1,355.657,65.795)" stroke-width=".3985" stroke-linecap="butt" stroke-miterlimit="10" stroke-linejoin="miter" fill="none" stroke="#262626" d="M71.91333 14.17339H41.48431C41.01466 14.17339 40.63393 13.79266 40.63393 13.323V-13.323C40.63393-13.79266 41.01466-14.17339 41.48431-14.17339H71.91333C72.383-14.17339 72.76373-13.79266 72.76373-13.323V13.323C72.76373 13.79266 72.383 14.17339 71.91333 14.17339ZM40.63393-14.17339"/>
<use data-text="B" xlink:href="#font_1_3" transform="matrix(9.96264,0,0,-9.96264,400.276,69.287)"/>
<use data-text="l" xlink:href="#font_1_16" transform="matrix(9.96264,0,0,-9.96264,406.92109,69.287)"/>
<use data-text="o" xlink:href="#font_1_19" transform="matrix(9.96264,0,0,-9.96264,409.13279,69.287)"/>
<use data-text="c" xlink:href="#font_1_10" transform="matrix(9.96264,0,0,-9.96264,414.672,69.287)"/>
<use data-text="k" xlink:href="#font_1_15" transform="matrix(9.96264,0,0,-9.96264,419.45408,69.287)"/>
<path transform="matrix(1,0,0,-1,355.657,65.795)" stroke-width=".79701" stroke-linecap="butt" stroke-miterlimit="10" stroke-linejoin="miter" fill="none" stroke="var(--color)" d="M32.1298 0V0H40.63393"/>
<path transform="matrix(1,0,0,-1,346.954,31.779)" stroke-width=".79701" stroke-linecap="butt" stroke-miterlimit="10" stroke-linejoin="miter" fill="none" stroke="var(--color)" d="M0 0V0-34.0161H8.70337"/>
<path transform="matrix(1,0,0,-1,355.657,99.81)" d="M31.2794 14.17339H.85039C.38072 14.17339 0 13.79266 0 13.323V-13.323C0-13.79266 .38072-14.17339 .85039-14.17339H31.2794C31.74907-14.17339 32.1298-13.79266 32.1298-13.323V13.323C32.1298 13.79266 31.74907 14.17339 31.2794 14.17339ZM0-14.17339" fill="#e5e6e5"/>
<path transform="matrix(1,0,0,-1,355.657,99.81)" stroke-width=".3985" stroke-linecap="butt" stroke-miterlimit="10" stroke-linejoin="miter" fill="none" stroke="#262626" d="M31.2794 14.17339H.85039C.38072 14.17339 0 13.79266 0 13.323V-13.323C0-13.79266 .38072-14.17339 .85039-14.17339H31.2794C31.74907-14.17339 32.1298-13.79266 32.1298-13.323V13.323C32.1298 13.79266 31.74907 14.17339 31.2794 14.17339ZM0-14.17339"/>
<use data-text="B" xlink:href="#font_1_3" transform="matrix(9.96264,0,0,-9.96264,359.642,103.301998)"/>
<use data-text="l" xlink:href="#font_1_16" transform="matrix(9.96264,0,0,-9.96264,366.28709,103.301998)"/>
<use data-text="o" xlink:href="#font_1_19" transform="matrix(9.96264,0,0,-9.96264,368.49879,103.301998)"/>
<use data-text="c" xlink:href="#font_1_10" transform="matrix(9.96264,0,0,-9.96264,374.038,103.301998)"/>
<use data-text="k" xlink:href="#font_1_15" transform="matrix(9.96264,0,0,-9.96264,378.82008,103.301998)"/>
<path transform="matrix(1,0,0,-1,355.657,99.81)" d="M71.91333 14.17339H41.48431C41.01466 14.17339 40.63393 13.79266 40.63393 13.323V-13.323C40.63393-13.79266 41.01466-14.17339 41.48431-14.17339H71.91333C72.383-14.17339 72.76373-13.79266 72.76373-13.323V13.323C72.76373 13.79266 72.383 14.17339 71.91333 14.17339ZM40.63393-14.17339" fill="#e5e6e5"/>
<path transform="matrix(1,0,0,-1,355.657,99.81)" stroke-width=".3985" stroke-linecap="butt" stroke-miterlimit="10" stroke-linejoin="miter" fill="none" stroke="#262626" d="M71.91333 14.17339H41.48431C41.01466 14.17339 40.63393 13.79266 40.63393 13.323V-13.323C40.63393-13.79266 41.01466-14.17339 41.48431-14.17339H71.91333C72.383-14.17339 72.76373-13.79266 72.76373-13.323V13.323C72.76373 13.79266 72.383 14.17339 71.91333 14.17339ZM40.63393-14.17339"/>
<use data-text="B" xlink:href="#font_1_3" transform="matrix(9.96264,0,0,-9.96264,400.276,103.301998)"/>
<use data-text="l" xlink:href="#font_1_16" transform="matrix(9.96264,0,0,-9.96264,406.92109,103.301998)"/>
<use data-text="o" xlink:href="#font_1_19" transform="matrix(9.96264,0,0,-9.96264,409.13279,103.301998)"/>
<use data-text="c" xlink:href="#font_1_10" transform="matrix(9.96264,0,0,-9.96264,414.672,103.301998)"/>
<use data-text="k" xlink:href="#font_1_15" transform="matrix(9.96264,0,0,-9.96264,419.45408,103.301998)"/>
<path transform="matrix(1,0,0,-1,355.657,99.81)" stroke-width=".79701" stroke-linecap="butt" stroke-miterlimit="10" stroke-linejoin="miter" fill="none" stroke="var(--color)" d="M32.1298 0V0H40.63393"/>
<path transform="matrix(1,0,0,-1,346.954,31.779)" stroke-width=".79701" stroke-linecap="butt" stroke-miterlimit="10" stroke-linejoin="miter" fill="none" stroke="var(--color)" d="M0 0V0-68.0322H8.70337"/>
<path transform="matrix(1,0,0,-1,346.954,31.779)" stroke-width=".79701" stroke-linecap="butt" stroke-miterlimit="10" stroke-linejoin="miter" fill="none" stroke="var(--color)" d="M81.66634 0H88.04454V-34.0161H81.66634"/>
<path transform="matrix(1,0,0,-1,346.954,31.779)" stroke-width=".79701" stroke-linecap="butt" stroke-miterlimit="10" stroke-linejoin="miter" fill="none" stroke="var(--color)" d="M81.66634 0H88.04454V-68.0322H81.66634"/>
<path transform="matrix(1,0,0,-1,249.61,65.795)" stroke-width=".79701" stroke-linecap="butt" stroke-miterlimit="10" stroke-linejoin="miter" fill="none" stroke="var(--color)" d="M88.44305 0H96.94717"/>
<path transform="matrix(1,0,0,-1,.199,65.795)" stroke-width=".79701" stroke-linecap="butt" stroke-miterlimit="10" stroke-linejoin="miter" fill="none" stroke="var(--color)" d="M235.24024 0H242.32694 249.41364"/>
<path transform="matrix(1,0,0,-1,.199,65.795)" d="M242.32695 51.2234V65.3968H438.03703V51.2234ZM438.03703 65.3968" fill="#a0b4f0"/>
<path transform="matrix(1,0,0,-1,.199,65.795)" stroke-width=".79701" stroke-linecap="butt" stroke-miterlimit="10" stroke-linejoin="miter" fill="none" stroke="#4169e1" d="M242.32695 51.2234V65.3968H438.03703V51.2234ZM438.03703 65.3968"/>
<use data-text="S" xlink:href="#font_1_8" transform="matrix(9.96264,0,0,-9.96264,285.831,10.100998)"/>
<use data-text="e" xlink:href="#font_1_12" transform="matrix(9.96264,0,0,-9.96264,292.47608,10.100998)"/>
<use data-text="r" xlink:href="#font_1_21" transform="matrix(9.96264,0,0,-9.96264,298.0153,10.100998)"/>
<use data-text="i" xlink:href="#font_1_14" transform="matrix(9.96264,0,0,-9.96264,301.4823,10.100998)"/>
<use data-text="e" xlink:href="#font_1_12" transform="matrix(9.96264,0,0,-9.96264,303.694,10.100998)"/>
<use data-text="s" xlink:href="#font_1_22" transform="matrix(9.96264,0,0,-9.96264,309.23323,10.100998)"/>
<use data-text="w" xlink:href="#font_1_25" transform="matrix(9.96264,0,0,-9.96264,316.98417,10.100998)"/>
<use data-text="i" xlink:href="#font_1_14" transform="matrix(9.96264,0,0,-9.96264,324.1772,10.100998)"/>
<use data-text="t" xlink:href="#font_1_23" transform="matrix(9.96264,0,0,-9.96264,326.3889,10.100998)"/>
<use data-text="h" xlink:href="#font_1_13" transform="matrix(9.96264,0,0,-9.96264,329.1585,10.100998)"/>
<use data-text="m" xlink:href="#font_1_17" transform="matrix(9.96264,0,0,-9.96264,337.45738,10.100998)"/>
<use data-text="i" xlink:href="#font_1_14" transform="matrix(9.96264,0,0,-9.96264,345.75627,10.100998)"/>
<use data-text="x" xlink:href="#font_1_26" transform="matrix(9.96264,0,0,-9.96264,347.96797,10.100998)"/>
<use data-text="e" xlink:href="#font_1_12" transform="matrix(9.96264,0,0,-9.96264,352.66038,10.100998)"/>
<use data-text="d" xlink:href="#font_1_11" transform="matrix(9.96264,0,0,-9.96264,358.1996,10.100998)"/>
<use data-text="G" xlink:href="#font_1_6" transform="matrix(9.96264,0,0,-9.96264,366.49845,10.100998)"/>
<use data-text="r" xlink:href="#font_1_21" transform="matrix(9.96264,0,0,-9.96264,374.2494,10.100998)"/>
<use data-text="o" xlink:href="#font_1_19" transform="matrix(9.96264,0,0,-9.96264,377.56697,10.100998)"/>
<use data-text="u" xlink:href="#font_1_24" transform="matrix(9.96264,0,0,-9.96264,383.10618,10.100998)"/>
<use data-text="p" xlink:href="#font_1_20" transform="matrix(9.96264,0,0,-9.96264,388.6454,10.100998)"/>
<use data-text="s" xlink:href="#font_1_22" transform="matrix(9.96264,0,0,-9.96264,394.1846,10.100998)"/>
<path transform="matrix(1,0,0,-1,458.671,31.779)" d="M31.2794 14.17339H.85039C.38072 14.17339 0 13.79266 0 13.323V-13.323C0-13.79266 .38072-14.17339 .85039-14.17339H31.2794C31.74907-14.17339 32.1298-13.79266 32.1298-13.323V13.323C32.1298 13.79266 31.74907 14.17339 31.2794 14.17339ZM0-14.17339" fill="#e5e6e5"/>
<path transform="matrix(1,0,0,-1,458.671,31.779)" stroke-width=".3985" stroke-linecap="butt" stroke-miterlimit="10" stroke-linejoin="miter" fill="none" stroke="#262626" d="M31.2794 14.17339H.85039C.38072 14.17339 0 13.79266 0 13.323V-13.323C0-13.79266 .38072-14.17339 .85039-14.17339H31.2794C31.74907-14.17339 32.1298-13.79266 32.1298-13.323V13.323C32.1298 13.79266 31.74907 14.17339 31.2794 14.17339ZM0-14.17339"/>
<use data-text="B" xlink:href="#font_1_3" transform="matrix(9.96264,0,0,-9.96264,462.65599,35.271005)"/>
<use data-text="l" xlink:href="#font_1_16" transform="matrix(9.96264,0,0,-9.96264,469.30107,35.271005)"/>
<use data-text="o" xlink:href="#font_1_19" transform="matrix(9.96264,0,0,-9.96264,471.51277,35.271005)"/>
<use data-text="c" xlink:href="#font_1_10" transform="matrix(9.96264,0,0,-9.96264,477.05198,35.271005)"/>
<use data-text="k" xlink:href="#font_1_15" transform="matrix(9.96264,0,0,-9.96264,481.83406,35.271005)"/>
<path transform="matrix(1,0,0,-1,458.671,31.779)" d="M71.91333 14.17339H41.48431C41.01466 14.17339 40.63393 13.79266 40.63393 13.323V-13.323C40.63393-13.79266 41.01466-14.17339 41.48431-14.17339H71.91333C72.383-14.17339 72.76373-13.79266 72.76373-13.323V13.323C72.76373 13.79266 72.383 14.17339 71.91333 14.17339ZM40.63393-14.17339" fill="#e5e6e5"/>
<path transform="matrix(1,0,0,-1,458.671,31.779)" stroke-width=".3985" stroke-linecap="butt" stroke-miterlimit="10" stroke-linejoin="miter" fill="none" stroke="#262626" d="M71.91333 14.17339H41.48431C41.01466 14.17339 40.63393 13.79266 40.63393 13.323V-13.323C40.63393-13.79266 41.01466-14.17339 41.48431-14.17339H71.91333C72.383-14.17339 72.76373-13.79266 72.76373-13.323V13.323C72.76373 13.79266 72.383 14.17339 71.91333 14.17339ZM40.63393-14.17339"/>
<use data-text="B" xlink:href="#font_1_3" transform="matrix(9.96264,0,0,-9.96264,503.289,35.271005)"/>
<use data-text="l" xlink:href="#font_1_16" transform="matrix(9.96264,0,0,-9.96264,509.93409,35.271005)"/>
<use data-text="o" xlink:href="#font_1_19" transform="matrix(9.96264,0,0,-9.96264,512.1458,35.271005)"/>
<use data-text="c" xlink:href="#font_1_10" transform="matrix(9.96264,0,0,-9.96264,517.68508,35.271005)"/>
<use data-text="k" xlink:href="#font_1_15" transform="matrix(9.96264,0,0,-9.96264,522.4671,35.271005)"/>
<path transform="matrix(1,0,0,-1,458.671,31.779)" stroke-width=".79701" stroke-linecap="butt" stroke-miterlimit="10" stroke-linejoin="miter" fill="none" stroke="var(--color)" d="M32.1298 0V0H40.63393"/>
<path transform="matrix(1,0,0,-1,458.671,31.779)" d="M112.54726 14.17339H82.11826C81.64859 14.17339 81.26785 13.79266 81.26785 13.323V-13.323C81.26785-13.79266 81.64859-14.17339 82.11826-14.17339H112.54726C113.01692-14.17339 113.39766-13.79266 113.39766-13.323V13.323C113.39766 13.79266 113.01692 14.17339 112.54726 14.17339ZM81.26785-14.17339" fill="#e5e6e5"/>
<path transform="matrix(1,0,0,-1,458.671,31.779)" stroke-width=".3985" stroke-linecap="butt" stroke-miterlimit="10" stroke-linejoin="miter" fill="none" stroke="#262626" d="M112.54726 14.17339H82.11826C81.64859 14.17339 81.26785 13.79266 81.26785 13.323V-13.323C81.26785-13.79266 81.64859-14.17339 82.11826-14.17339H112.54726C113.01692-14.17339 113.39766-13.79266 113.39766-13.323V13.323C113.39766 13.79266 113.01692 14.17339 112.54726 14.17339ZM81.26785-14.17339"/>
<use data-text="B" xlink:href="#font_1_3" transform="matrix(9.96264,0,0,-9.96264,543.923,35.271005)"/>
<use data-text="l" xlink:href="#font_1_16" transform="matrix(9.96264,0,0,-9.96264,550.56808,35.271005)"/>
<use data-text="o" xlink:href="#font_1_19" transform="matrix(9.96264,0,0,-9.96264,552.7798,35.271005)"/>
<use data-text="c" xlink:href="#font_1_10" transform="matrix(9.96264,0,0,-9.96264,558.31906,35.271005)"/>
<use data-text="k" xlink:href="#font_1_15" transform="matrix(9.96264,0,0,-9.96264,563.1011,35.271005)"/>
<path transform="matrix(1,0,0,-1,458.671,31.779)" stroke-width=".79701" stroke-linecap="butt" stroke-miterlimit="10" stroke-linejoin="miter" fill="none" stroke="var(--color)" d="M72.76373 0V0H81.26785"/>
<path transform="matrix(1,0,0,-1,449.968,31.779)" stroke-width=".79701" stroke-linecap="butt" stroke-miterlimit="10" stroke-linejoin="miter" fill="none" stroke="var(--color)" d="M0 0V0H8.70337"/>
<path transform="matrix(1,0,0,-1,449.968,31.779)" d="M39.78352-19.8427H9.3545C8.88484-19.8427 8.50412-20.22343 8.50412-20.6931V-47.3391C8.50412-47.80876 8.88484-48.18948 9.3545-48.18948H39.78352C40.25319-48.18948 40.63393-47.80876 40.63393-47.3391V-20.6931C40.63393-20.22343 40.25319-19.8427 39.78352-19.8427ZM8.50412-48.18948" fill="#e5e6e5"/>
<path transform="matrix(1,0,0,-1,449.968,31.779)" stroke-width=".3985" stroke-linecap="butt" stroke-miterlimit="10" stroke-linejoin="miter" fill="none" stroke="#262626" d="M39.78352-19.8427H9.3545C8.88484-19.8427 8.50412-20.22343 8.50412-20.6931V-47.3391C8.50412-47.80876 8.88484-48.18948 9.3545-48.18948H39.78352C40.25319-48.18948 40.63393-47.80876 40.63393-47.3391V-20.6931C40.63393-20.22343 40.25319-19.8427 39.78352-19.8427ZM8.50412-48.18948"/>
<use data-text="B" xlink:href="#font_1_3" transform="matrix(9.96264,0,0,-9.96264,462.457,69.287)"/>
<use data-text="l" xlink:href="#font_1_16" transform="matrix(9.96264,0,0,-9.96264,469.10209,69.287)"/>
<use data-text="o" xlink:href="#font_1_19" transform="matrix(9.96264,0,0,-9.96264,471.31379,69.287)"/>
<use data-text="c" xlink:href="#font_1_10" transform="matrix(9.96264,0,0,-9.96264,476.853,69.287)"/>
<use data-text="k" xlink:href="#font_1_15" transform="matrix(9.96264,0,0,-9.96264,481.63508,69.287)"/>
<path transform="matrix(1,0,0,-1,449.968,31.779)" stroke-width=".79701" stroke-linecap="butt" stroke-miterlimit="10" stroke-linejoin="miter" fill="none" stroke="var(--color)" d="M0 0V0-34.0161H8.50412"/>
<path transform="matrix(1,0,0,-1,458.671,99.81)" d="M31.2794 14.17339H.85039C.38072 14.17339 0 13.79266 0 13.323V-13.323C0-13.79266 .38072-14.17339 .85039-14.17339H31.2794C31.74907-14.17339 32.1298-13.79266 32.1298-13.323V13.323C32.1298 13.79266 31.74907 14.17339 31.2794 14.17339ZM0-14.17339" fill="#e5e6e5"/>
<path transform="matrix(1,0,0,-1,458.671,99.81)" stroke-width=".3985" stroke-linecap="butt" stroke-miterlimit="10" stroke-linejoin="miter" fill="none" stroke="#262626" d="M31.2794 14.17339H.85039C.38072 14.17339 0 13.79266 0 13.323V-13.323C0-13.79266 .38072-14.17339 .85039-14.17339H31.2794C31.74907-14.17339 32.1298-13.79266 32.1298-13.323V13.323C32.1298 13.79266 31.74907 14.17339 31.2794 14.17339ZM0-14.17339"/>
<use data-text="B" xlink:href="#font_1_3" transform="matrix(9.96264,0,0,-9.96264,462.65599,103.301998)"/>
<use data-text="l" xlink:href="#font_1_16" transform="matrix(9.96264,0,0,-9.96264,469.30107,103.301998)"/>
<use data-text="o" xlink:href="#font_1_19" transform="matrix(9.96264,0,0,-9.96264,471.51277,103.301998)"/>
<use data-text="c" xlink:href="#font_1_10" transform="matrix(9.96264,0,0,-9.96264,477.05198,103.301998)"/>
<use data-text="k" xlink:href="#font_1_15" transform="matrix(9.96264,0,0,-9.96264,481.83406,103.301998)"/>
<path transform="matrix(1,0,0,-1,458.671,99.81)" d="M71.91333 14.17339H41.48431C41.01466 14.17339 40.63393 13.79266 40.63393 13.323V-13.323C40.63393-13.79266 41.01466-14.17339 41.48431-14.17339H71.91333C72.383-14.17339 72.76373-13.79266 72.76373-13.323V13.323C72.76373 13.79266 72.383 14.17339 71.91333 14.17339ZM40.63393-14.17339" fill="#e5e6e5"/>
<path transform="matrix(1,0,0,-1,458.671,99.81)" stroke-width=".3985" stroke-linecap="butt" stroke-miterlimit="10" stroke-linejoin="miter" fill="none" stroke="#262626" d="M71.91333 14.17339H41.48431C41.01466 14.17339 40.63393 13.79266 40.63393 13.323V-13.323C40.63393-13.79266 41.01466-14.17339 41.48431-14.17339H71.91333C72.383-14.17339 72.76373-13.79266 72.76373-13.323V13.323C72.76373 13.79266 72.383 14.17339 71.91333 14.17339ZM40.63393-14.17339"/>
<use data-text="B" xlink:href="#font_1_3" transform="matrix(9.96264,0,0,-9.96264,503.289,103.301998)"/>
<use data-text="l" xlink:href="#font_1_16" transform="matrix(9.96264,0,0,-9.96264,509.93409,103.301998)"/>
<use data-text="o" xlink:href="#font_1_19" transform="matrix(9.96264,0,0,-9.96264,512.1458,103.301998)"/>
<use data-text="c" xlink:href="#font_1_10" transform="matrix(9.96264,0,0,-9.96264,517.68508,103.301998)"/>
<use data-text="k" xlink:href="#font_1_15" transform="matrix(9.96264,0,0,-9.96264,522.4671,103.301998)"/>
<path transform="matrix(1,0,0,-1,458.671,99.81)" stroke-width=".79701" stroke-linecap="butt" stroke-miterlimit="10" stroke-linejoin="miter" fill="none" stroke="var(--color)" d="M32.1298 0V0H40.63393"/>
<path transform="matrix(1,0,0,-1,458.671,99.81)" d="M112.54726 14.17339H82.11826C81.64859 14.17339 81.26785 13.79266 81.26785 13.323V-13.323C81.26785-13.79266 81.64859-14.17339 82.11826-14.17339H112.54726C113.01692-14.17339 113.39766-13.79266 113.39766-13.323V13.323C113.39766 13.79266 113.01692 14.17339 112.54726 14.17339ZM81.26785-14.17339" fill="#e5e6e5"/>
<path transform="matrix(1,0,0,-1,458.671,99.81)" stroke-width=".3985" stroke-linecap="butt" stroke-miterlimit="10" stroke-linejoin="miter" fill="none" stroke="#262626" d="M112.54726 14.17339H82.11826C81.64859 14.17339 81.26785 13.79266 81.26785 13.323V-13.323C81.26785-13.79266 81.64859-14.17339 82.11826-14.17339H112.54726C113.01692-14.17339 113.39766-13.79266 113.39766-13.323V13.323C113.39766 13.79266 113.01692 14.17339 112.54726 14.17339ZM81.26785-14.17339"/>
<use data-text="B" xlink:href="#font_1_3" transform="matrix(9.96264,0,0,-9.96264,543.923,103.301998)"/>
<use data-text="l" xlink:href="#font_1_16" transform="matrix(9.96264,0,0,-9.96264,550.56808,103.301998)"/>
<use data-text="o" xlink:href="#font_1_19" transform="matrix(9.96264,0,0,-9.96264,552.7798,103.301998)"/>
<use data-text="c" xlink:href="#font_1_10" transform="matrix(9.96264,0,0,-9.96264,558.31906,103.301998)"/>
<use data-text="k" xlink:href="#font_1_15" transform="matrix(9.96264,0,0,-9.96264,563.1011,103.301998)"/>
<path transform="matrix(1,0,0,-1,458.671,99.81)" stroke-width=".79701" stroke-linecap="butt" stroke-miterlimit="10" stroke-linejoin="miter" fill="none" stroke="var(--color)" d="M72.76373 0V0H81.26785"/>
<path transform="matrix(1,0,0,-1,458.671,99.81)" d="M153.1812 14.17339H122.75218C122.28252 14.17339 121.90178 13.79266 121.90178 13.323V-13.323C121.90178-13.79266 122.28252-14.17339 122.75218-14.17339H153.1812C153.65087-14.17339 154.03159-13.79266 154.03159-13.323V13.323C154.03159 13.79266 153.65087 14.17339 153.1812 14.17339ZM121.90178-14.17339" fill="#e5e6e5"/>
<path transform="matrix(1,0,0,-1,458.671,99.81)" stroke-width=".3985" stroke-linecap="butt" stroke-miterlimit="10" stroke-linejoin="miter" fill="none" stroke="#262626" d="M153.1812 14.17339H122.75218C122.28252 14.17339 121.90178 13.79266 121.90178 13.323V-13.323C121.90178-13.79266 122.28252-14.17339 122.75218-14.17339H153.1812C153.65087-14.17339 154.03159-13.79266 154.03159-13.323V13.323C154.03159 13.79266 153.65087 14.17339 153.1812 14.17339ZM121.90178-14.17339"/>
<use data-text="B" xlink:href="#font_1_3" transform="matrix(9.96264,0,0,-9.96264,584.55599,103.301998)"/>
<use data-text="l" xlink:href="#font_1_16" transform="matrix(9.96264,0,0,-9.96264,591.20108,103.301998)"/>
<use data-text="o" xlink:href="#font_1_19" transform="matrix(9.96264,0,0,-9.96264,593.4128,103.301998)"/>
<use data-text="c" xlink:href="#font_1_10" transform="matrix(9.96264,0,0,-9.96264,598.952,103.301998)"/>
<use data-text="k" xlink:href="#font_1_15" transform="matrix(9.96264,0,0,-9.96264,603.7341,103.301998)"/>
<path transform="matrix(1,0,0,-1,458.671,99.81)" stroke-width=".79701" stroke-linecap="butt" stroke-miterlimit="10" stroke-linejoin="miter" fill="none" stroke="var(--color)" d="M113.39766 0V0H121.90178"/>
<path transform="matrix(1,0,0,-1,449.968,31.779)" stroke-width=".79701" stroke-linecap="butt" stroke-miterlimit="10" stroke-linejoin="miter" fill="none" stroke="var(--color)" d="M0 0V0-68.0322H8.70337"/>
<path transform="matrix(1,0,0,-1,449.968,31.779)" stroke-width=".79701" stroke-linecap="butt" stroke-miterlimit="10" stroke-linejoin="miter" fill="none" stroke="var(--color)" d="M162.9342-68.0322H169.31241V0H122.3003"/>
<path transform="matrix(1,0,0,-1,449.968,31.779)" stroke-width=".79701" stroke-linecap="butt" stroke-miterlimit="10" stroke-linejoin="miter" fill="none" stroke="var(--color)" d="M162.9342-68.0322H169.31241V-34.0161H40.63393"/>
<path transform="matrix(1,0,0,-1,.199,65.795)" stroke-width=".79701" stroke-linecap="butt" stroke-miterlimit="10" stroke-linejoin="miter" fill="none" stroke="var(--color)" d="M435.20237 0H449.37577"/>
<path transform="matrix(1,0,0,-1,.199,65.795)" d="M446.54109 51.2234V65.3968H622.3198V51.2234ZM622.3198 65.3968" fill="#ff8080"/>
<path transform="matrix(1,0,0,-1,.199,65.795)" stroke-width=".79701" stroke-linecap="butt" stroke-miterlimit="10" stroke-linejoin="miter" fill="none" stroke="#ff0000" d="M446.54109 51.2234V65.3968H622.3198V51.2234ZM622.3198 65.3968"/>
<use data-text="G" xlink:href="#font_1_6" transform="matrix(9.96264,0,0,-9.96264,480.44203,10.100998)"/>
<use data-text="r" xlink:href="#font_1_21" transform="matrix(9.96264,0,0,-9.96264,488.19297,10.100998)"/>
<use data-text="o" xlink:href="#font_1_19" transform="matrix(9.96264,0,0,-9.96264,491.51054,10.100998)"/>
<use data-text="u" xlink:href="#font_1_24" transform="matrix(9.96264,0,0,-9.96264,497.04975,10.100998)"/>
<use data-text="p" xlink:href="#font_1_20" transform="matrix(9.96264,0,0,-9.96264,502.58897,10.100998)"/>
<use data-text="w" xlink:href="#font_1_25" transform="matrix(9.96264,0,0,-9.96264,510.88783,10.100998)"/>
<use data-text="i" xlink:href="#font_1_14" transform="matrix(9.96264,0,0,-9.96264,518.0808,10.100998)"/>
<use data-text="t" xlink:href="#font_1_23" transform="matrix(9.96264,0,0,-9.96264,520.2926,10.100998)"/>
<use data-text="h" xlink:href="#font_1_13" transform="matrix(9.96264,0,0,-9.96264,523.06216,10.100998)"/>
<use data-text="m" xlink:href="#font_1_17" transform="matrix(9.96264,0,0,-9.96264,531.371,10.100998)"/>
<use data-text="i" xlink:href="#font_1_14" transform="matrix(9.96264,0,0,-9.96264,539.6699,10.100998)"/>
<use data-text="x" xlink:href="#font_1_26" transform="matrix(9.96264,0,0,-9.96264,541.8816,10.100998)"/>
<use data-text="e" xlink:href="#font_1_12" transform="matrix(9.96264,0,0,-9.96264,546.574,10.100998)"/>
<use data-text="d" xlink:href="#font_1_11" transform="matrix(9.96264,0,0,-9.96264,552.1133,10.100998)"/>
<use data-text="S" xlink:href="#font_1_8" transform="matrix(9.96264,0,0,-9.96264,560.4121,10.100998)"/>
<use data-text="e" xlink:href="#font_1_12" transform="matrix(9.96264,0,0,-9.96264,567.05728,10.100998)"/>
<use data-text="r" xlink:href="#font_1_21" transform="matrix(9.96264,0,0,-9.96264,572.59646,10.100998)"/>
<use data-text="i" xlink:href="#font_1_14" transform="matrix(9.96264,0,0,-9.96264,576.0635,10.100998)"/>
<use data-text="e" xlink:href="#font_1_12" transform="matrix(9.96264,0,0,-9.96264,578.27517,10.100998)"/>
<use data-text="s" xlink:href="#font_1_22" transform="matrix(9.96264,0,0,-9.96264,583.81448,10.100998)"/>
<path transform="matrix(1,0,0,-1,641.33499,65.795)" stroke-width=".79701" stroke-linecap="butt" stroke-miterlimit="10" stroke-linejoin="miter" fill="none" stroke="#fff200" d="M-7.08669-17.2073V17.2073H75.99689V-17.2073ZM75.99689 17.2073"/>
<path transform="matrix(1,0,0,-1,641.33499,65.795)" stroke-width=".79701" stroke-linecap="butt" stroke-miterlimit="10" stroke-linejoin="miter" fill="none" stroke="#ff8000" d="M80.04968-17.2073V17.2073H163.13327V-17.2073ZM163.13327 17.2073"/>
<path transform="matrix(1,0,0,-1,641.53396,65.795)" d="M31.2794 14.17339H.85039C.38072 14.17339 0 13.79266 0 13.323V-13.323C0-13.79266 .38072-14.17339 .85039-14.17339H31.2794C31.74907-14.17339 32.1298-13.79266 32.1298-13.323V13.323C32.1298 13.79266 31.74907 14.17339 31.2794 14.17339ZM0-14.17339" fill="#e5e6e5"/>
<path transform="matrix(1,0,0,-1,641.53396,65.795)" stroke-width=".3985" stroke-linecap="butt" stroke-miterlimit="10" stroke-linejoin="miter" fill="none" stroke="#262626" d="M31.2794 14.17339H.85039C.38072 14.17339 0 13.79266 0 13.323V-13.323C0-13.79266 .38072-14.17339 .85039-14.17339H31.2794C31.74907-14.17339 32.1298-13.79266 32.1298-13.323V13.323C32.1298 13.79266 31.74907 14.17339 31.2794 14.17339ZM0-14.17339"/>
<use data-text="B" xlink:href="#font_1_3" transform="matrix(9.96264,0,0,-9.96264,645.5189,69.287)"/>
<use data-text="l" xlink:href="#font_1_16" transform="matrix(9.96264,0,0,-9.96264,652.164,69.287)"/>
<use data-text="o" xlink:href="#font_1_19" transform="matrix(9.96264,0,0,-9.96264,654.37576,69.287)"/>
<use data-text="c" xlink:href="#font_1_10" transform="matrix(9.96264,0,0,-9.96264,659.915,69.287)"/>
<use data-text="k" xlink:href="#font_1_15" transform="matrix(9.96264,0,0,-9.96264,664.697,69.287)"/>
<path transform="matrix(1,0,0,-1,641.53396,65.795)" d="M71.91333 14.17339H41.48431C41.01466 14.17339 40.63393 13.79266 40.63393 13.323V-13.323C40.63393-13.79266 41.01466-14.17339 41.48431-14.17339H71.91333C72.383-14.17339 72.76373-13.79266 72.76373-13.323V13.323C72.76373 13.79266 72.383 14.17339 71.91333 14.17339ZM40.63393-14.17339" fill="#e5e6e5"/>
<path transform="matrix(1,0,0,-1,641.53396,65.795)" stroke-width=".3985" stroke-linecap="butt" stroke-miterlimit="10" stroke-linejoin="miter" fill="none" stroke="#262626" d="M71.91333 14.17339H41.48431C41.01466 14.17339 40.63393 13.79266 40.63393 13.323V-13.323C40.63393-13.79266 41.01466-14.17339 41.48431-14.17339H71.91333C72.383-14.17339 72.76373-13.79266 72.76373-13.323V13.323C72.76373 13.79266 72.383 14.17339 71.91333 14.17339ZM40.63393-14.17339"/>
<use data-text="B" xlink:href="#font_1_3" transform="matrix(9.96264,0,0,-9.96264,686.1519,69.287)"/>
<use data-text="l" xlink:href="#font_1_16" transform="matrix(9.96264,0,0,-9.96264,692.797,69.287)"/>
<use data-text="o" xlink:href="#font_1_19" transform="matrix(9.96264,0,0,-9.96264,695.0087,69.287)"/>
<use data-text="c" xlink:href="#font_1_10" transform="matrix(9.96264,0,0,-9.96264,700.548,69.287)"/>
<use data-text="k" xlink:href="#font_1_15" transform="matrix(9.96264,0,0,-9.96264,705.33,69.287)"/>
<path transform="matrix(1,0,0,-1,641.53396,65.795)" stroke-width=".79701" stroke-linecap="butt" stroke-miterlimit="10" stroke-linejoin="miter" fill="none" stroke="var(--color)" d="M32.1298 0H39.21649 40.63393"/>
<path transform="matrix(1,0,0,-1,641.33499,65.795)" d="M-7.08669 17.2073V31.3807H75.99689V17.2073ZM75.99689 31.3807" fill="#fff799"/>
<path transform="matrix(1,0,0,-1,641.33499,65.795)" stroke-width=".79701" stroke-linecap="butt" stroke-miterlimit="10" stroke-linejoin="miter" fill="none" stroke="#fff200" d="M-7.08669 17.2073V31.3807H75.99689V17.2073ZM75.99689 31.3807"/>
<use data-text="C" xlink:href="#font_1_4" transform="matrix(9.96264,0,0,-9.96264,662.41397,45.062997)"/>
<use data-text="h" xlink:href="#font_1_13" transform="matrix(9.96264,0,0,-9.96264,669.607,45.062997)"/>
<use data-text="i" xlink:href="#font_1_14" transform="matrix(9.96264,0,0,-9.96264,675.14627,45.062997)"/>
<use data-text="l" xlink:href="#font_1_16" transform="matrix(9.96264,0,0,-9.96264,677.358,45.062997)"/>
<use data-text="d" xlink:href="#font_1_11" transform="matrix(9.96264,0,0,-9.96264,679.5697,45.062997)"/>
<use data-text="1" xlink:href="#font_1_1" transform="matrix(9.96264,0,0,-9.96264,687.8686,45.062997)"/>
<path transform="matrix(1,0,0,-1,728.66897,65.795)" d="M31.2794 14.17339H.85039C.38072 14.17339 0 13.79266 0 13.323V-13.323C0-13.79266 .38072-14.17339 .85039-14.17339H31.2794C31.74907-14.17339 32.1298-13.79266 32.1298-13.323V13.323C32.1298 13.79266 31.74907 14.17339 31.2794 14.17339ZM0-14.17339" fill="#e5e6e5"/>
<path transform="matrix(1,0,0,-1,728.66897,65.795)" stroke-width=".3985" stroke-linecap="butt" stroke-miterlimit="10" stroke-linejoin="miter" fill="none" stroke="#262626" d="M31.2794 14.17339H.85039C.38072 14.17339 0 13.79266 0 13.323V-13.323C0-13.79266 .38072-14.17339 .85039-14.17339H31.2794C31.74907-14.17339 32.1298-13.79266 32.1298-13.323V13.323C32.1298 13.79266 31.74907 14.17339 31.2794 14.17339ZM0-14.17339"/>
<use data-text="B" xlink:href="#font_1_3" transform="matrix(9.96264,0,0,-9.96264,732.65396,69.287)"/>
<use data-text="l" xlink:href="#font_1_16" transform="matrix(9.96264,0,0,-9.96264,739.299,69.287)"/>
<use data-text="o" xlink:href="#font_1_19" transform="matrix(9.96264,0,0,-9.96264,741.51077,69.287)"/>
<use data-text="c" xlink:href="#font_1_10" transform="matrix(9.96264,0,0,-9.96264,747.05,69.287)"/>
<use data-text="k" xlink:href="#font_1_15" transform="matrix(9.96264,0,0,-9.96264,751.83206,69.287)"/>
<path transform="matrix(1,0,0,-1,728.66897,65.795)" d="M71.91333 14.17339H41.48431C41.01466 14.17339 40.63393 13.79266 40.63393 13.323V-13.323C40.63393-13.79266 41.01466-14.17339 41.48431-14.17339H71.91333C72.383-14.17339 72.76373-13.79266 72.76373-13.323V13.323C72.76373 13.79266 72.383 14.17339 71.91333 14.17339ZM40.63393-14.17339" fill="#e5e6e5"/>
<path transform="matrix(1,0,0,-1,728.66897,65.795)" stroke-width=".3985" stroke-linecap="butt" stroke-miterlimit="10" stroke-linejoin="miter" fill="none" stroke="#262626" d="M71.91333 14.17339H41.48431C41.01466 14.17339 40.63393 13.79266 40.63393 13.323V-13.323C40.63393-13.79266 41.01466-14.17339 41.48431-14.17339H71.91333C72.383-14.17339 72.76373-13.79266 72.76373-13.323V13.323C72.76373 13.79266 72.383 14.17339 71.91333 14.17339ZM40.63393-14.17339"/>
<use data-text="B" xlink:href="#font_1_3" transform="matrix(9.96264,0,0,-9.96264,773.28799,69.287)"/>
<use data-text="l" xlink:href="#font_1_16" transform="matrix(9.96264,0,0,-9.96264,779.93307,69.287)"/>
<use data-text="o" xlink:href="#font_1_19" transform="matrix(9.96264,0,0,-9.96264,782.1448,69.287)"/>
<use data-text="c" xlink:href="#font_1_10" transform="matrix(9.96264,0,0,-9.96264,787.684,69.287)"/>
<use data-text="k" xlink:href="#font_1_15" transform="matrix(9.96264,0,0,-9.96264,792.46609,69.287)"/>
<path transform="matrix(1,0,0,-1,728.66897,65.795)" stroke-width=".79701" stroke-linecap="butt" stroke-miterlimit="10" stroke-linejoin="miter" fill="none" stroke="var(--color)" d="M32.1298 0H39.21649 40.63393"/>
<path transform="matrix(1,0,0,-1,641.33499,65.795)" stroke-width=".79701" stroke-linecap="butt" stroke-miterlimit="10" stroke-linejoin="miter" fill="none" stroke="var(--color)" d="M72.96298 0H80.04967 87.33563"/>
<path transform="matrix(1,0,0,-1,641.33499,65.795)" d="M80.04968 17.2073V31.3807H163.13327V17.2073ZM163.13327 31.3807" fill="#ffbf80"/>
<path transform="matrix(1,0,0,-1,641.33499,65.795)" stroke-width=".79701" stroke-linecap="butt" stroke-miterlimit="10" stroke-linejoin="miter" fill="none" stroke="#ff8000" d="M80.04968 17.2073V31.3807H163.13327V17.2073ZM163.13327 31.3807"/>
<use data-text="C" xlink:href="#font_1_4" transform="matrix(9.96264,0,0,-9.96264,749.54898,45.062997)"/>
<use data-text="h" xlink:href="#font_1_13" transform="matrix(9.96264,0,0,-9.96264,756.742,45.062997)"/>
<use data-text="i" xlink:href="#font_1_14" transform="matrix(9.96264,0,0,-9.96264,762.28128,45.062997)"/>
<use data-text="l" xlink:href="#font_1_16" transform="matrix(9.96264,0,0,-9.96264,764.493,45.062997)"/>
<use data-text="d" xlink:href="#font_1_11" transform="matrix(9.96264,0,0,-9.96264,766.7047,45.062997)"/>
<use data-text="2" xlink:href="#font_1_2" transform="matrix(9.96264,0,0,-9.96264,775.01358,45.062997)"/>
<path transform="matrix(1,0,0,-1,641.33499,65.795)" d="M199.8829 14.17339H169.45389C168.98423 14.17339 168.6035 13.79266 168.6035 13.323V-13.323C168.6035-13.79266 168.98423-14.17339 169.45389-14.17339H199.8829C200.35257-14.17339 200.7333-13.79266 200.7333-13.323V13.323C200.7333 13.79266 200.35257 14.17339 199.8829 14.17339ZM168.6035-14.17339" fill="#e5e6e5"/>
<path transform="matrix(1,0,0,-1,641.33499,65.795)" stroke-width=".3985" stroke-linecap="butt" stroke-miterlimit="10" stroke-linejoin="miter" fill="none" stroke="#262626" d="M199.8829 14.17339H169.45389C168.98423 14.17339 168.6035 13.79266 168.6035 13.323V-13.323C168.6035-13.79266 168.98423-14.17339 169.45389-14.17339H199.8829C200.35257-14.17339 200.7333-13.79266 200.7333-13.323V13.323C200.7333 13.79266 200.35257 14.17339 199.8829 14.17339ZM168.6035-14.17339"/>
<use data-text="B" xlink:href="#font_1_3" transform="matrix(9.96264,0,0,-9.96264,813.92098,69.287)"/>
<use data-text="l" xlink:href="#font_1_16" transform="matrix(9.96264,0,0,-9.96264,820.56607,69.287)"/>
<use data-text="o" xlink:href="#font_1_19" transform="matrix(9.96264,0,0,-9.96264,822.7778,69.287)"/>
<use data-text="c" xlink:href="#font_1_10" transform="matrix(9.96264,0,0,-9.96264,828.317,69.287)"/>
<use data-text="k" xlink:href="#font_1_15" transform="matrix(9.96264,0,0,-9.96264,833.09909,69.287)"/>
<path transform="matrix(1,0,0,-1,641.33499,65.795)" stroke-width=".79701" stroke-linecap="butt" stroke-miterlimit="10" stroke-linejoin="miter" fill="none" stroke="var(--color)" d="M160.09937 0H167.18607 168.6035"/>
<path transform="matrix(1,0,0,-1,.199,65.795)" stroke-width=".79701" stroke-linecap="butt" stroke-miterlimit="10" stroke-linejoin="miter" fill="none" stroke="var(--color)" d="M619.48519 0H626.5719 641.1438"/>
<path transform="matrix(1,0,0,-1,.199,65.795)" d="M626.5719 34.61386V48.78726H844.911V34.61386ZM844.911 48.78726" fill="#ff8080"/>
<path transform="matrix(1,0,0,-1,.199,65.795)" stroke-width=".79701" stroke-linecap="butt" stroke-miterlimit="10" stroke-linejoin="miter" fill="none" stroke="#ff0000" d="M626.5719 34.61386V48.78726H844.911V34.61386ZM844.911 48.78726"/>
<use data-text="P" xlink:href="#font_1_7" transform="matrix(9.96264,0,0,-9.96264,708.837,27.586998)"/>
<use data-text="a" xlink:href="#font_1_9" transform="matrix(9.96264,0,0,-9.96264,715.08358,27.586998)"/>
<use data-text="r" xlink:href="#font_1_21" transform="matrix(9.96264,0,0,-9.96264,720.6228,27.586998)"/>
<use data-text="e" xlink:href="#font_1_12" transform="matrix(9.96264,0,0,-9.96264,723.94039,27.586998)"/>
<use data-text="n" xlink:href="#font_1_18" transform="matrix(9.96264,0,0,-9.96264,729.4796,27.586998)"/>
<use data-text="t" xlink:href="#font_1_23" transform="matrix(9.96264,0,0,-9.96264,735.01889,27.586998)"/>
<use data-text="s" xlink:href="#font_1_22" transform="matrix(9.96264,0,0,-9.96264,740.55807,27.586998)"/>
<use data-text="e" xlink:href="#font_1_12" transform="matrix(9.96264,0,0,-9.96264,745.53939,27.586998)"/>
<use data-text="r" xlink:href="#font_1_21" transform="matrix(9.96264,0,0,-9.96264,751.0786,27.586998)"/>
<use data-text="i" xlink:href="#font_1_14" transform="matrix(9.96264,0,0,-9.96264,754.53567,27.586998)"/>
<use data-text="e" xlink:href="#font_1_12" transform="matrix(9.96264,0,0,-9.96264,756.7474,27.586998)"/>
<use data-text="s" xlink:href="#font_1_22" transform="matrix(9.96264,0,0,-9.96264,762.2866,27.586998)"/>
<path transform="matrix(1,0,0,-1,.199,65.795)" d="M880.89389 14.17339H856.9009C856.4312 14.17339 856.0505 13.79266 856.0505 13.323V-13.323C856.0505-13.79266 856.4312-14.17339 856.9009-14.17339H880.89389C881.3635-14.17339 881.74429-13.79266 881.74429-13.323V13.323C881.74429 13.79266 881.3635 14.17339 880.89389 14.17339ZM856.0505-14.17339" fill="#80ff80"/>
<path transform="matrix(1,0,0,-1,.199,65.795)" stroke-width=".3985" stroke-linecap="butt" stroke-miterlimit="10" stroke-linejoin="miter" fill="none" stroke="#262626" d="M880.89389 14.17339H856.9009C856.4312 14.17339 856.0505 13.79266 856.0505 13.323V-13.323C856.0505-13.79266 856.4312-14.17339 856.9009-14.17339H880.89389C881.3635-14.17339 881.74429-13.79266 881.74429-13.323V13.323C881.74429 13.79266 881.3635 14.17339 880.89389 14.17339ZM856.0505-14.17339"/>
<use data-text="E" xlink:href="#font_1_5" transform="matrix(9.96264,0,0,-9.96264,860.224,69.287)"/>
<use data-text="n" xlink:href="#font_1_18" transform="matrix(9.96264,0,0,-9.96264,866.8691,69.287)"/>
<use data-text="d" xlink:href="#font_1_11" transform="matrix(9.96264,0,0,-9.96264,872.4083,69.287)"/>
<path transform="matrix(1,0,0,-1,.199,65.795)" stroke-width=".79701" stroke-linecap="butt" stroke-miterlimit="10" stroke-linejoin="miter" fill="none" stroke="var(--color)" d="M841.8771 0H848.96377 856.0505"/>
</svg>
