<svg xmlns="http://www.w3.org/2000/svg" xmlns:xlink="http://www.w3.org/1999/xlink" xmlns:inkscape="http://www.inkscape.org/namespaces/inkscape" version="1.1" width="170.819" height="62.761" viewBox="0 0 170.819 62.761">
<style>
   @media (prefers-color-scheme: light) { :root { --color: #000000; } }
   @media (prefers-color-scheme: dark) { :root { --color: #DDDDDD; } }
</style>
<defs>
<path id="font_1_3" d="M.59599307 .51504519C.59498599 .6582031 .49699403 .74121096 .32899476 .74121096 .16899109 .74121096 .069992069 .65919497 .069992069 .52705386 .069992069 .43795777 .116989139 .38189698 .21299744 .35687257L.3939972 .30882264C.48599244 .2848053 .5279999 .24775696 .5279999 .19070435 .5279999 .1516571 .5069885 .11161804 .47599793 .08958435 .44699098 .06956482 .40098573 .058547975 .34199525 .058547975 .2630005 .058547975 .20899964 .07757568 .17399597 .11961365 .14698792 .1516571 .1349945 .18669129 .13598633 .23173523H.04798889C.04899597 .16467285 .06199646 .12062073 .09098816 .080581668 .14099121 .012557983 .22499085-.0234375 .33599855-.0234375 .4229889-.0234375 .49398805-.0034484864 .54100039 .032562257 .58999636 .07156372 .62098696 .13664246 .62098696 .19970703 .62098696 .28981019 .5649872 .35588075 .46598817 .38290406L.2829895 .43196107C.19499207 .4559784 .16299439 .4840088 .16299439 .5400696 .16299439 .614151 .22799683 .663208 .32598878 .663208 .44198609 .663208 .5069885 .6101532 .5079956 .51504519H.59599307Z"/>
<path id="font_1_15" d="M.2539978 .52441409H.16799927V.66841128H.084991458V.52441409H.01399231V.45640565H.084991458V.059570314C.084991458 .0065612795 .12098694-.0234375 .18598938-.0234375 .20599365-.0234375 .22599793-.021438599 .2539978-.016448975V.05355835C.24299622 .05055237 .22999573 .049560548 .21398926 .049560548 .17799378 .049560548 .16799927 .059570314 .16799927 .09664917V.45640565H.2539978V.52441409Z"/>
<path id="font_1_4" d="M.5349884 .048553468C.526001 .046554567 .5219879 .046554567 .5169983 .046554567 .48799134 .046554567 .47200013 .061569215 .47200013 .08760071V.39598084C.47200013 .48905946 .4039917 .5390625 .2749939 .5390625 .19898987 .5390625 .13598633 .5170593 .100997928 .47805787 .07699585 .45103456 .066986087 .42100526 .06498718 .36894227H.14898682C.1559906 .43301393 .19400025 .4620514 .27198792 .4620514 .34700013 .4620514 .3889923 .434021 .3889923 .3839569V.36193849C.3889923 .32688905 .36799623 .3118744 .3019867 .30386354 .18399048 .28884889 .1659851 .28483583 .13398743 .27182008 .07299805 .24679566 .041992189 .19973755 .041992189 .13165283 .041992189 .03656006 .10798645-.0234375 .21398926-.0234375 .27999879-.0234375 .33299256-.00044250489 .3919983 .05355835 .397995 .0005493164 .42399598-.0234375 .47799684-.0234375 .49499513-.0234375 .5079956-.021438599 .5349884-.014450073V.048553468M.3889923 .16468811C.3889923 .13665772 .3809967 .119644168 .35598756 .09661865 .32199098 .06556702 .2809906 .049560548 .23199463 .049560548 .16699219 .049560548 .1289978 .080596927 .1289978 .13365174 .1289978 .1887207 .1659851 .2167511 .25498963 .22976685 .34298707 .24179077 .36099244 .24578858 .3889923 .25880433V.16468811Z"/>
<path id="font_1_13" d="M.068984989 .52441409V0H.15299988V.27220155C.15299988 .34727479 .17199707 .39631654 .21199036 .42533876 .23799134 .4443512 .2630005 .45036317 .32099916 .45135499V.5364075C.30699159 .5380554 .2999878 .5390625 .2889862 .5390625 .23498535 .5390625 .19400025 .50704959 .1459961 .42904664V.52441409H.068984989Z"/>
<path id="font_1_2" d="M.18399048 .30862428H.41299439C.46998597 .30862428 .5149994 .32562257 .55400088 .36061097 .59799197 .4006195 .61698916 .44758607 .61698916 .5145569 .61698916 .6515045 .5359955 .7285156 .3919983 .7285156H.09098816V0H.18399048V.30862428M.18399048 .390625V.6465149H.37799073C.46699525 .6465149 .519989 .598526 .519989 .51856997 .519989 .43859864 .46699525 .390625 .37799073 .390625H.18399048Z"/>
<path id="font_1_10" d="M.1519928 .7285156H.067993167V0H.1519928V.7285156Z"/>
<path id="font_1_8" d="M.5130005 .23374939C.5130005 .31376649 .5069885 .36186219 .49198915 .40093995 .45799256 .48706056 .37799073 .5390625 .27999879 .5390625 .13398743 .5390625 .039993287 .4269867 .039993287 .25474549 .039993287 .08258057 .1309967-.0234375 .27799989-.0234375 .397995-.0234375 .48098756 .044555665 .5019989 .15867615H.41799928C.394989 .08959961 .34799195 .05355835 .2809906 .05355835 .22799683 .05355835 .18299866 .07757568 .15499878 .12162781 .1349945 .1516571 .12799073 .18170166 .1269989 .23374939H.5130005M.1289978 .3017578C.13598633 .39894105 .19499207 .4620514 .2789917 .4620514 .36099244 .4620514 .42399598 .3939209 .42399598 .30775453 .42399598 .30575563 .42399598 .3037567 .4229889 .3017578H.1289978Z"/>
<path id="font_1_5" d="M.053985597 .7285156V-.00044250489H.1289978V.0665741C.16899109 .005554199 .22200012-.0234375 .29499818-.0234375 .43299867-.0234375 .522995 .08959961 .522995 .2638092 .522995 .434021 .43699647 .5390625 .29899598 .5390625 .22698975 .5390625 .17599488 .51205447 .13699341 .4530487V.7285156H.053985597M.2829895 .46105958C.37599183 .46105958 .43598939 .3799591 .43598939 .25480653 .43598939 .13565064 .37399293 .05455017 .2829895 .05455017 .19499207 .05455017 .13699341 .13465882 .13699341 .25779725 .13699341 .38095094 .19499207 .46105958 .2829895 .46105958Z"/>
<path id="font_1_12" d="M.27198792 .5390625C.125 .5390625 .035995485 .434021 .035995485 .25779725 .035995485 .081588748 .12399292-.0234375 .272995-.0234375 .41999818-.0234375 .5099945 .081588748 .5099945 .25379945 .5099945 .43502809 .4229889 .5390625 .27198792 .5390625M.272995 .4620514C.36698915 .4620514 .4229889 .384964 .4229889 .25480653 .4229889 .13165283 .36499024 .05355835 .272995 .05355835 .17999268 .05355835 .12298584 .13064575 .12298584 .25779725 .12298584 .3839569 .17999268 .4620514 .272995 .4620514Z"/>
<path id="font_1_6" d="M.47099305 .34791566C.46699525 .39897157 .45599366 .4320221 .43598939 .46105958 .3999939 .51005557 .33699037 .5390625 .2639923 .5390625 .12298584 .5390625 .0309906 .4270172 .0309906 .25279237 .0309906 .08358765 .12098694-.0234375 .2630005-.0234375 .3880005-.0234375 .46699525 .05155945 .47698976 .17970276H.3929901C.3789978 .09561157 .33599855 .05355835 .2649994 .05355835 .17298889 .05355835 .117996219 .12864685 .117996219 .25279237 .117996219 .3839569 .17199707 .4620514 .2630005 .4620514 .33299256 .4620514 .3769989 .42100526 .3869934 .34791566H.47099305Z"/>
<path id="font_1_9" d="M.14099121 .7285156H.057998659V0H.14099121V.20385742L.22200012 .28381349 .39898683 0H.5019989L.28799439 .34277345 .46998597 .52363589H.36299134L.14099121 .30178834V.7285156Z"/>
<path id="font_1_14" d="M.43798829 .37794496C.43699647 .48104859 .36898805 .5390625 .24798584 .5390625 .12599182 .5390625 .04699707 .47605897 .04699707 .37895204 .04699707 .29685975 .08898926 .25779725 .21299744 .22776795L.29100038 .20874024C.34899903 .19473267 .37199403 .17370606 .37199403 .13565064 .37199403 .08659363 .32299806 .05355835 .25 .05355835 .20498657 .05355835 .16699219 .0665741 .1459961 .08859253 .1329956 .10362244 .1269989 .118637088 .12199402 .15568543H.033996583C.037994386 .034561159 .10598755-.0234375 .24299622-.0234375 .375-.0234375 .45899964 .041549684 .45899964 .14266968 .45899964 .22076416 .4149933 .2638092 .31098939 .28884889L.23098755 .30786134C.16299439 .32388307 .13398743 .34591676 .13398743 .3829651 .13398743 .431015 .1769867 .4620514 .24499512 .4620514 .31199647 .4620514 .34799195 .43301393 .34999085 .37794496H.43798829Z"/>
<path id="font_1_1" d="M.18299866 .33203126H.5799866V.41401673H.18299866V.6465149H.59498599V.7285156H.08999634V0H.61299136V.08198547H.18299866V.33203126Z"/>
<path id="font_1_11" d="M.069992069 .52441409V0H.1539917V.2892151C.1539917 .39604188 .20999146 .4660492 .29599 .4660492 .3619995 .4660492 .4039917 .42604066 .4039917 .3630371V0H.4869995V.39604188C.4869995 .4830475 .42199708 .5390625 .32099916 .5390625 .24299622 .5390625 .19299317 .50904849 .14698792 .43605042V.52441409H.069992069Z"/>
<path id="font_1_7" d="M.49499513 .7285156H.4119873V.4580536C.3769989 .51104739 .32099916 .5390625 .25099183 .5390625 .114990238 .5390625 .025985718 .43000794 .025985718 .26280213 .025985718 .08558655 .11299133-.0234375 .2539978-.0234375 .32598878-.0234375 .37599183 .0035552979 .42099 .068573V-.00044250489H.49499513V.7285156M.2649994 .46105958C.35499574 .46105958 .4119873 .38095094 .4119873 .25579835 .4119873 .13465882 .35398866 .05455017 .2659912 .05455017 .17399597 .05455017 .11299133 .13565064 .11299133 .25779725 .11299133 .3799591 .17399597 .46105958 .2649994 .46105958Z"/>
</defs>
<path transform="matrix(1,0,0,-1,.199,31.381003)" d="M28.55919 14.17339H.85039C.38072 14.17339 0 13.79266 0 13.323V-13.323C0-13.79266 .38072-14.17339 .85039-14.17339H28.55919C29.02885-14.17339 29.40959-13.79266 29.40959-13.323V13.323C29.40959 13.79266 29.02885 14.17339 28.55919 14.17339ZM0-14.17339" fill="#b3b3ff"/>
<path transform="matrix(1,0,0,-1,.199,31.381003)" stroke-width=".3985" stroke-linecap="butt" stroke-miterlimit="10" stroke-linejoin="miter" fill="none" stroke="#262626" d="M28.55919 14.17339H.85039C.38072 14.17339 0 13.79266 0 13.323V-13.323C0-13.79266 .38072-14.17339 .85039-14.17339H28.55919C29.02885-14.17339 29.40959-13.79266 29.40959-13.323V13.323C29.40959 13.79266 29.02885 14.17339 28.55919 14.17339ZM0-14.17339"/>
<use data-text="S" xlink:href="#font_1_3" transform="matrix(9.96264,0,0,-9.96264,4.184,34.942)"/>
<use data-text="t" xlink:href="#font_1_15" transform="matrix(9.96264,0,0,-9.96264,10.829082,34.942)"/>
<use data-text="a" xlink:href="#font_1_4" transform="matrix(9.96264,0,0,-9.96264,13.598696,34.942)"/>
<use data-text="r" xlink:href="#font_1_13" transform="matrix(9.96264,0,0,-9.96264,19.137925,34.942)"/>
<use data-text="t" xlink:href="#font_1_15" transform="matrix(9.96264,0,0,-9.96264,22.853989,34.942)"/>
<path transform="matrix(1,0,0,-1,44.18,14.373001)" d="M78.9468 14.17339H9.3545C8.88484 14.17339 8.50412 13.79266 8.50412 13.323V-13.323C8.50412-13.79266 8.88484-14.17339 9.3545-14.17339H78.9468C79.41646-14.17339 79.7972-13.79266 79.7972-13.323V13.323C79.7972 13.79266 79.41646 14.17339 78.9468 14.17339ZM8.50412-14.17339" fill="#7f807f"/>
<path transform="matrix(1,0,0,-1,44.18,14.373001)" stroke-width=".3985" stroke-linecap="butt" stroke-miterlimit="10" stroke-linejoin="miter" fill="none" stroke="#262626" d="M78.9468 14.17339H9.3545C8.88484 14.17339 8.50412 13.79266 8.50412 13.323V-13.323C8.50412-13.79266 8.88484-14.17339 9.3545-14.17339H78.9468C79.41646-14.17339 79.7972-13.79266 79.7972-13.323V13.323C79.7972 13.79266 79.41646 14.17339 78.9468 14.17339ZM8.50412-14.17339"/>
<use data-text="P" xlink:href="#font_1_2" transform="matrix(9.96264,0,0,-9.96264,56.669,17.865002)"/>
<use data-text="a" xlink:href="#font_1_4" transform="matrix(9.96264,0,0,-9.96264,62.915575,17.865002)"/>
<use data-text="r" xlink:href="#font_1_13" transform="matrix(9.96264,0,0,-9.96264,68.4548,17.865002)"/>
<use data-text="a" xlink:href="#font_1_4" transform="matrix(9.96264,0,0,-9.96264,71.67274,17.865002)"/>
<use data-text="l" xlink:href="#font_1_10" transform="matrix(9.96264,0,0,-9.96264,77.21197,17.865002)"/>
<use data-text="l" xlink:href="#font_1_10" transform="matrix(9.96264,0,0,-9.96264,79.423679,17.865002)"/>
<use data-text="e" xlink:href="#font_1_8" transform="matrix(9.96264,0,0,-9.96264,81.63538,17.865002)"/>
<use data-text="l" xlink:href="#font_1_10" transform="matrix(9.96264,0,0,-9.96264,87.174617,17.865002)"/>
<use data-text="b" xlink:href="#font_1_5" transform="matrix(9.96264,0,0,-9.96264,92.15594,17.865002)"/>
<use data-text="l" xlink:href="#font_1_10" transform="matrix(9.96264,0,0,-9.96264,97.49592,17.865002)"/>
<use data-text="o" xlink:href="#font_1_12" transform="matrix(9.96264,0,0,-9.96264,99.70763,17.865002)"/>
<use data-text="c" xlink:href="#font_1_6" transform="matrix(9.96264,0,0,-9.96264,105.24686,17.865002)"/>
<use data-text="k" xlink:href="#font_1_9" transform="matrix(9.96264,0,0,-9.96264,110.02893,17.865002)"/>
<use data-text="s" xlink:href="#font_1_14" transform="matrix(9.96264,0,0,-9.96264,115.010257,17.865002)"/>
<path transform="matrix(1,0,0,-1,44.18,14.373001)" stroke-width=".79701" stroke-linecap="butt" stroke-miterlimit="10" stroke-linejoin="miter" fill="none" stroke="var(--color)" d="M0 0V0H8.50412"/>
<path transform="matrix(1,0,0,-1,44.18,14.373001)" d="M78.9468-19.8427H9.3545C8.88484-19.8427 8.50412-20.22343 8.50412-20.6931V-47.3391C8.50412-47.80876 8.88484-48.18948 9.3545-48.18948H78.9468C79.41646-48.18948 79.7972-47.80876 79.7972-47.3391V-20.6931C79.7972-20.22343 79.41646-19.8427 78.9468-19.8427ZM8.50412-48.18948" fill="#7f807f"/>
<path transform="matrix(1,0,0,-1,44.18,14.373001)" stroke-width=".3985" stroke-linecap="butt" stroke-miterlimit="10" stroke-linejoin="miter" fill="none" stroke="#262626" d="M78.9468-19.8427H9.3545C8.88484-19.8427 8.50412-20.22343 8.50412-20.6931V-47.3391C8.50412-47.80876 8.88484-48.18948 9.3545-48.18948H78.9468C79.41646-48.18948 79.7972-47.80876 79.7972-47.3391V-20.6931C79.7972-20.22343 79.41646-19.8427 78.9468-19.8427ZM8.50412-48.18948"/>
<use data-text="P" xlink:href="#font_1_2" transform="matrix(9.96264,0,0,-9.96264,56.669,51.88)"/>
<use data-text="a" xlink:href="#font_1_4" transform="matrix(9.96264,0,0,-9.96264,62.915575,51.88)"/>
<use data-text="r" xlink:href="#font_1_13" transform="matrix(9.96264,0,0,-9.96264,68.4548,51.88)"/>
<use data-text="a" xlink:href="#font_1_4" transform="matrix(9.96264,0,0,-9.96264,71.67274,51.88)"/>
<use data-text="l" xlink:href="#font_1_10" transform="matrix(9.96264,0,0,-9.96264,77.21197,51.88)"/>
<use data-text="l" xlink:href="#font_1_10" transform="matrix(9.96264,0,0,-9.96264,79.423679,51.88)"/>
<use data-text="e" xlink:href="#font_1_8" transform="matrix(9.96264,0,0,-9.96264,81.63538,51.88)"/>
<use data-text="l" xlink:href="#font_1_10" transform="matrix(9.96264,0,0,-9.96264,87.174617,51.88)"/>
<use data-text="b" xlink:href="#font_1_5" transform="matrix(9.96264,0,0,-9.96264,92.15594,51.88)"/>
<use data-text="l" xlink:href="#font_1_10" transform="matrix(9.96264,0,0,-9.96264,97.49592,51.88)"/>
<use data-text="o" xlink:href="#font_1_12" transform="matrix(9.96264,0,0,-9.96264,99.70763,51.88)"/>
<use data-text="c" xlink:href="#font_1_6" transform="matrix(9.96264,0,0,-9.96264,105.24686,51.88)"/>
<use data-text="k" xlink:href="#font_1_9" transform="matrix(9.96264,0,0,-9.96264,110.02893,51.88)"/>
<use data-text="s" xlink:href="#font_1_14" transform="matrix(9.96264,0,0,-9.96264,115.010257,51.88)"/>
<path transform="matrix(1,0,0,-1,44.18,14.373001)" stroke-width=".79701" stroke-linecap="butt" stroke-miterlimit="10" stroke-linejoin="miter" fill="none" stroke="var(--color)" d="M0 0V0-34.0161H8.50412"/>
<path transform="matrix(1,0,0,-1,44.18,14.373001)" stroke-width=".79701" stroke-linecap="butt" stroke-miterlimit="10" stroke-linejoin="miter" fill="none" stroke="var(--color)" d="M79.7972 0H86.1754V-34.0161H79.7972"/>
<path transform="matrix(1,0,0,-1,.199,31.381003)" stroke-width=".79701" stroke-linecap="butt" stroke-miterlimit="10" stroke-linejoin="miter" fill="none" stroke="var(--color)" d="M29.40959 0H43.583"/>
<path transform="matrix(1,0,0,-1,.199,31.381003)" d="M169.57216 14.17339H145.57918C145.10951 14.17339 144.72879 13.79266 144.72879 13.323V-13.323C144.72879-13.79266 145.10951-14.17339 145.57918-14.17339H169.57216C170.04183-14.17339 170.42256-13.79266 170.42256-13.323V13.323C170.42256 13.79266 170.04183 14.17339 169.57216 14.17339ZM144.72879-14.17339" fill="#80ff80"/>
<path transform="matrix(1,0,0,-1,.199,31.381003)" stroke-width=".3985" stroke-linecap="butt" stroke-miterlimit="10" stroke-linejoin="miter" fill="none" stroke="#262626" d="M169.57216 14.17339H145.57918C145.10951 14.17339 144.72879 13.79266 144.72879 13.323V-13.323C144.72879-13.79266 145.10951-14.17339 145.57918-14.17339H169.57216C170.04183-14.17339 170.42256-13.79266 170.42256-13.323V13.323C170.42256 13.79266 170.04183 14.17339 169.57216 14.17339ZM144.72879-14.17339"/>
<use data-text="E" xlink:href="#font_1_1" transform="matrix(9.96264,0,0,-9.96264,148.91101,34.873)"/>
<use data-text="n" xlink:href="#font_1_11" transform="matrix(9.96264,0,0,-9.96264,155.55609,34.873)"/>
<use data-text="d" xlink:href="#font_1_7" transform="matrix(9.96264,0,0,-9.96264,161.09532,34.873)"/>
<path transform="matrix(1,0,0,-1,.199,31.381003)" stroke-width=".79701" stroke-linecap="butt" stroke-miterlimit="10" stroke-linejoin="miter" fill="none" stroke="var(--color)" d="M130.55539 0H137.64208 144.72879"/>
</svg>
