<?xml version="1.0" encoding="UTF-8"?>
<svg id="Layer_1" data-name="Layer 1" xmlns="http://www.w3.org/2000/svg" viewBox="0 0 488.89 89.15">
    <defs>
        <style>
            .cls-1 {
            fill: #fff;
            }

            .cls-2 {
            fill: none;
            stroke: #fff;
            stroke-linecap: round;
            stroke-linejoin: round;
            stroke-width: 6.36px;
            }
        </style>
    </defs>
    <g>
        <path class="cls-2"
              d="m24.55,19.91v10.6c0,3.28,1.6,6.43,4.44,8.75l15.37,12.55c2.84,2.32,4.44,5.47,4.44,8.75v11.86"/>
        <path class="cls-2"
              d="m48.63,19.91v10.6c0,3.28-1.6,6.43-4.44,8.75l-15.37,12.55c-2.84,2.32-4.44,5.47-4.44,8.75v11.86"/>
        <path class="cls-2" d="m36.16,62.86l-9.35,10.51c-1.19,1.34-3.64,1.33-4.82-.01l-9.23-10.5"/>
        <path class="cls-2" d="m60.33,62.86l-9.35,10.51c-1.19,1.34-3.64,1.33-4.82-.01l-9.23-10.5"/>
    </g>
    <g>
        <path class="cls-1"
              d="m117.39,10.69h-4.97c-.99,0-1.6.62-1.6,1.6v21.55c-3.04-4.1-7.76-6.34-13.47-6.34-11.22,0-19.36,8.74-19.36,20.78s8.14,20.78,19.36,20.78c5.93,0,10.68-2.31,13.83-6.7l.11,4.15c0,1.02.56,1.6,1.53,1.6h4.58c.99,0,1.6-.62,1.6-1.6V12.29c0-.99-.61-1.6-1.6-1.6Zm-18.78,50.82c-7.47,0-12.68-5.44-12.68-13.23s5.21-13.23,12.68-13.23,12.36,5.47,12.36,13.31-4.97,13.15-12.36,13.15Z"/>
        <path class="cls-1"
              d="m147.69,27.5c-11.67,0-20.47,8.93-20.47,20.78s8.8,20.78,20.47,20.78,20.39-8.93,20.39-20.78-8.76-20.78-20.39-20.78Zm0,33.94c-7.37,0-12.52-5.41-12.52-13.15s5.15-13.23,12.52-13.23,12.52,5.56,12.52,13.23-5.27,13.15-12.52,13.15Z"/>
        <path class="cls-1"
              d="m233,28.45h-4.81c-.85,0-1.51.46-1.82,1.29l-9.32,28.34-9.7-28.36c-.3-.8-1-1.27-1.89-1.27h-5.13c-.88,0-1.59.48-1.89,1.28l-9.78,28.35-9.33-28.36c-.32-.84-.9-1.27-1.73-1.27h-4.89c-.74,0-1.1.29-1.28.54-.26.37-.28.87-.06,1.46l12.55,36.38h0c.3.81,1,1.28,1.89,1.28h5.29c.88,0,1.59-.48,1.89-1.28l9.87-28.4,9.95,28.41c.3.8,1,1.27,1.89,1.27h5.29c.88,0,1.59-.48,1.89-1.28l12.55-36.37c.26-.72.1-1.18-.08-1.44-.18-.26-.56-.57-1.34-.57Z"/>
        <path class="cls-1"
              d="m262.59,27.5c-5.16,0-9.41,2.09-12.12,5.92l-.16-3.29c0-1.13-.52-1.68-1.6-1.68h-4.66c-.99,0-1.6.61-1.6,1.6v36.46c0,.99.61,1.6,1.6,1.6h4.97c.97,0,1.53-.58,1.53-1.6v-21.62c0-5.98,3.83-9.84,9.76-9.84,5.55,0,8.73,3.59,8.73,9.84v21.62c0,1.02.56,1.6,1.53,1.6h4.97c.99,0,1.61-.62,1.61-1.6v-22.73c0-10.04-5.57-16.28-14.55-16.28Z"/>
        <path class="cls-1"
              d="m329.19,27.5c-5.45,0-9.59,2.33-12.05,6.77-2.19-4.43-6.08-6.77-11.31-6.77-4.49,0-8.1,1.83-10.53,5.31l-.1-2.68c0-1.13-.52-1.68-1.6-1.68h-4.66c-.99,0-1.6.61-1.6,1.6v36.46c0,.99.62,1.6,1.6,1.6h4.97c.97,0,1.53-.58,1.53-1.6v-21.94c0-6.05,2.9-9.52,7.94-9.52s7.55,3.38,7.55,9.52v21.94c0,.99.62,1.6,1.6,1.6h4.97c.97,0,1.53-.58,1.53-1.6v-21.94c0-5.87,3.13-9.52,8.18-9.52s7.31,3.2,7.31,9.52v21.94c0,1.02.56,1.6,1.53,1.6h4.97c.99,0,1.61-.62,1.61-1.6v-23.05c0-10.15-4.9-15.97-13.44-15.97Z"/>
        <path class="cls-1"
              d="m356.96,10.77c-2.63,0-4.76,2.14-4.76,4.76s2.14,4.76,4.76,4.76,4.68-2.09,4.68-4.76-2.06-4.76-4.68-4.76Z"/>
        <path class="cls-1"
              d="m359.41,28.45h-4.97c-.97,0-1.53.58-1.53,1.6v36.46c0,1.02.56,1.6,1.53,1.6h4.97c.99,0,1.61-.62,1.61-1.6V30.05c0-.99-.62-1.6-1.61-1.6Z"/>
        <path class="cls-1"
              d="m390.7,47.89l11.28-17.34c.44-.73.34-1.22.17-1.51-.12-.22-.45-.59-1.23-.59h-5.52c-.81,0-1.37.33-1.76,1.02l-7.78,12.42-7.77-12.41c-.41-.71-.97-1.04-1.78-1.04h-5.45c-.8,0-1.15.33-1.31.6-.16.28-.26.77.18,1.51l11.27,17.33-11.82,18.11v.02c-.45.74-.29,1.24-.16,1.48.13.23.47.62,1.29.62h5.45c.81,0,1.37-.33,1.77-1.02l8.34-13.29,8.33,13.28c.41.71.97,1.04,1.78,1.04h5.45c.89,0,1.24-.41,1.37-.65.12-.24.26-.75-.24-1.46l-11.82-18.11Z"/>
        <path class="cls-1"
              d="m426.41,27.5c-11.63,0-20.07,8.67-20.07,20.62s8.91,20.94,21.18,20.94c5.76,0,10.78-1.82,14.14-5.1.34-.3,1.38-1.2.4-2.32l-1.75-2.47c-.47-.58-1.22-.65-1.94-.17-3.14,2.23-6.28,3.22-10.21,3.22-7.58,0-12.7-4.04-13.79-10.84h27.04c3.11,0,3.74-1.94,3.74-5.08,0-9.35-6.43-18.81-18.73-18.81Zm0,7.08c6.38,0,10.8,4.11,11.38,10.52h-23.44c.94-6.51,5.51-10.52,12.06-10.52Z"/>
        <path class="cls-1"
              d="m473.56,28.37c-.86-.57-2.18-.87-3.83-.87-3.73,0-6.54,1.72-8.37,5.12l-.13-2.49c0-1.13-.52-1.68-1.6-1.68h-4.66c-.99,0-1.6.61-1.6,1.6v36.46c0,.99.62,1.6,1.6,1.6h4.97c.97,0,1.53-.58,1.53-1.6v-21.86c0-4.64,2.15-9.6,8.18-9.6.73,0,1.6.12,2.71.38.7.19,1.21.15,1.58-.13.32-.24.47-.62.47-1.14v-3.95c0-.83-.21-1.3-.85-1.84Z"/>
    </g>
</svg>