<svg xmlns="http://www.w3.org/2000/svg" xmlns:xlink="http://www.w3.org/1999/xlink" version="1.1" class="marks" width="844" height="673" viewBox="0 0 844 673"><rect width="844" height="673" fill="white"/><g fill="none" stroke-miterlimit="10" transform="translate(39,36)"><g class="mark-group role-frame root" role="graphics-object" aria-roledescription="group mark container"><g transform="translate(0,0)"><path class="background" aria-hidden="true" d="M0.5,0.5h800v600h-800Z" stroke="#ddd"/><g><g class="mark-group role-axis" role="graphics-symbol" aria-roledescription="axis" aria-label="X-axis titled 'Parser' for a discrete scale with 7 values: ryaml, yaml_rs, PyYAML (CSafeDumper), PyYAML (CDumper), ruamel.yaml, oyaml, PyYAML"><g transform="translate(0.5,600.5)"><path class="background" aria-hidden="true" d="M0,0h0v0h0Z" pointer-events="none"/><g><g class="mark-rule role-axis-tick" pointer-events="none"><line transform="translate(57,0)" x2="0" y2="5" stroke="#888" stroke-width="1" opacity="1"/><line transform="translate(171,0)" x2="0" y2="5" stroke="#888" stroke-width="1" opacity="1"/><line transform="translate(285,0)" x2="0" y2="5" stroke="#888" stroke-width="1" opacity="1"/><line transform="translate(400,0)" x2="0" y2="5" stroke="#888" stroke-width="1" opacity="1"/><line transform="translate(514,0)" x2="0" y2="5" stroke="#888" stroke-width="1" opacity="1"/><line transform="translate(628,0)" x2="0" y2="5" stroke="#888" stroke-width="1" opacity="1"/><line transform="translate(742,0)" x2="0" y2="5" stroke="#888" stroke-width="1" opacity="1"/></g><g class="mark-text role-axis-label" pointer-events="none"><text text-anchor="middle" transform="translate(56.642857142857096,15)" font-family="sans-serif" font-size="10px" fill="#000" opacity="1">ryaml</text><text text-anchor="middle" transform="translate(170.9285714285714,15)" font-family="sans-serif" font-size="10px" fill="#000" opacity="1">yaml_rs</text><text text-anchor="middle" transform="translate(285.21428571428567,15)" font-family="sans-serif" font-size="10px" fill="#000" opacity="1">PyYAML (CSafeDumper)</text><text text-anchor="middle" transform="translate(399.5,15)" font-family="sans-serif" font-size="10px" fill="#000" opacity="1">PyYAML (CDumper)</text><text text-anchor="middle" transform="translate(513.7857142857142,15)" font-family="sans-serif" font-size="10px" fill="#000" opacity="1">ruamel.yaml</text><text text-anchor="middle" transform="translate(628.0714285714286,15)" font-family="sans-serif" font-size="10px" fill="#000" opacity="1">oyaml</text><text text-anchor="middle" transform="translate(742.3571428571429,15)" font-family="sans-serif" font-size="10px" fill="#000" opacity="1">PyYAML</text></g><g class="mark-rule role-axis-domain" pointer-events="none"><line transform="translate(0,0)" x2="800" y2="0" stroke="#888" stroke-width="1" opacity="1"/></g><g class="mark-text role-axis-title" pointer-events="none"><text text-anchor="middle" transform="translate(400,30)" font-family="sans-serif" font-size="11px" font-weight="bold" fill="#000" opacity="1">Parser</text></g></g><path class="foreground" aria-hidden="true" d="" pointer-events="none" display="none"/></g></g><g class="mark-group role-axis" role="graphics-symbol" aria-roledescription="axis" aria-label="Y-axis titled 'Execution Time (seconds, lower=better)' for a linear scale with values from 0 to 13"><g transform="translate(0.5,0.5)"><path class="background" aria-hidden="true" d="M0,0h0v0h0Z" pointer-events="none"/><g><g class="mark-rule role-axis-tick" pointer-events="none"><line transform="translate(0,600)" x2="-5" y2="0" stroke="#888" stroke-width="1" opacity="1"/><line transform="translate(0,555)" x2="-5" y2="0" stroke="#888" stroke-width="1" opacity="1"/><line transform="translate(0,511)" x2="-5" y2="0" stroke="#888" stroke-width="1" opacity="1"/><line transform="translate(0,466)" x2="-5" y2="0" stroke="#888" stroke-width="1" opacity="1"/><line transform="translate(0,422)" x2="-5" y2="0" stroke="#888" stroke-width="1" opacity="1"/><line transform="translate(0,377)" x2="-5" y2="0" stroke="#888" stroke-width="1" opacity="1"/><line transform="translate(0,332)" x2="-5" y2="0" stroke="#888" stroke-width="1" opacity="1"/><line transform="translate(0,288)" x2="-5" y2="0" stroke="#888" stroke-width="1" opacity="1"/><line transform="translate(0,243)" x2="-5" y2="0" stroke="#888" stroke-width="1" opacity="1"/><line transform="translate(0,199)" x2="-5" y2="0" stroke="#888" stroke-width="1" opacity="1"/><line transform="translate(0,154)" x2="-5" y2="0" stroke="#888" stroke-width="1" opacity="1"/><line transform="translate(0,109)" x2="-5" y2="0" stroke="#888" stroke-width="1" opacity="1"/><line transform="translate(0,65)" x2="-5" y2="0" stroke="#888" stroke-width="1" opacity="1"/><line transform="translate(0,20)" x2="-5" y2="0" stroke="#888" stroke-width="1" opacity="1"/></g><g class="mark-text role-axis-label" pointer-events="none"><text text-anchor="end" transform="translate(-7,603)" font-family="sans-serif" font-size="10px" fill="#000" opacity="1">0</text><text text-anchor="end" transform="translate(-7,558.4074947659826)" font-family="sans-serif" font-size="10px" fill="#000" opacity="1">1</text><text text-anchor="end" transform="translate(-7,513.8149895319652)" font-family="sans-serif" font-size="10px" fill="#000" opacity="1">2</text><text text-anchor="end" transform="translate(-7,469.22248429794774)" font-family="sans-serif" font-size="10px" fill="#000" opacity="1">3</text><text text-anchor="end" transform="translate(-7,424.6299790639303)" font-family="sans-serif" font-size="10px" fill="#000" opacity="1">4</text><text text-anchor="end" transform="translate(-7,380.0374738299129)" font-family="sans-serif" font-size="10px" fill="#000" opacity="1">5</text><text text-anchor="end" transform="translate(-7,335.44496859589555)" font-family="sans-serif" font-size="10px" fill="#000" opacity="1">6</text><text text-anchor="end" transform="translate(-7,290.8524633618781)" font-family="sans-serif" font-size="10px" fill="#000" opacity="1">7</text><text text-anchor="end" transform="translate(-7,246.25995812786064)" font-family="sans-serif" font-size="10px" fill="#000" opacity="1">8</text><text text-anchor="end" transform="translate(-7,201.66745289384323)" font-family="sans-serif" font-size="10px" fill="#000" opacity="1">9</text><text text-anchor="end" transform="translate(-7,157.0749476598258)" font-family="sans-serif" font-size="10px" fill="#000" opacity="1">10</text><text text-anchor="end" transform="translate(-7,112.4824424258084)" font-family="sans-serif" font-size="10px" fill="#000" opacity="1">11</text><text text-anchor="end" transform="translate(-7,67.88993719179102)" font-family="sans-serif" font-size="10px" fill="#000" opacity="1">12</text><text text-anchor="end" transform="translate(-7,23.29743195777356)" font-family="sans-serif" font-size="10px" fill="#000" opacity="1">13</text></g><g class="mark-rule role-axis-domain" pointer-events="none"><line transform="translate(0,600)" x2="0" y2="-600" stroke="#888" stroke-width="1" opacity="1"/></g><g class="mark-text role-axis-title" pointer-events="none"><text text-anchor="middle" transform="translate(-22.123046875,300) rotate(-90) translate(0,-2)" font-family="sans-serif" font-size="11px" font-weight="bold" fill="#000" opacity="1">Execution Time (seconds, lower=better)</text></g></g><path class="foreground" aria-hidden="true" d="" pointer-events="none" display="none"/></g></g><g class="mark-group role-scope" role="graphics-object" aria-roledescription="group mark container"><g transform="translate(5.714285714285666,598.0854439634637)"><path class="background" aria-hidden="true" d="M0.9572780182681413,0L101.89986483887472,0C102.42820095977474,0,102.85714285714286,0.42894189736811233,102.85714285714286,0.9572780182681413L102.85714285714286,1.9145560365362826C102.85714285714286,1.9145560365362826,102.85714285714286,1.9145560365362826,102.85714285714286,1.9145560365362826L0,1.9145560365362826C0,1.9145560365362826,0,1.9145560365362826,0,1.9145560365362826L0,0.9572780182681413C0,0.42894189736811233,0.42894189736811233,0,0.9572780182681413,0Z"/><g clip-path="url(#clip9)"><g class="mark-group role-scope" role="graphics-object" aria-roledescription="group mark container"><g transform="translate(0,-598.0854439634637)"><path class="background" aria-hidden="true" d="M0,0h102.85714285714286v0h-102.85714285714286Z"/><g><g class="mark-rect role-mark layer_0_marks" role="graphics-object" aria-roledescription="rect mark container"><path aria-label="Parser: ryaml; Execution Time (seconds, lower=better): 0.0429344802784; parser: ryaml; Execution Time (s): 0.0429; Slowdown: 1.00" role="graphics-symbol" aria-roledescription="bar" d="M0,598.0854439634637h102.85714285714286v1.9145560365362826h-102.85714285714286Z" fill="#e6ab02"/></g></g><path class="foreground" aria-hidden="true" d="" display="none"/></g></g></g><path class="foreground" aria-hidden="true" d="" display="none"/></g><g transform="translate(119.99999999999996,597.7966697922574)"><path class="background" aria-hidden="true" d="M1.1016651038713121,0L101.75547775327155,0C102.36350327605886,0,102.85714285714286,0.49363958108399186,102.85714285714286,1.1016651038713121L102.85714285714286,2.2033302077426242C102.85714285714286,2.2033302077426242,102.85714285714286,2.2033302077426242,102.85714285714286,2.2033302077426242L0,2.2033302077426242C0,2.2033302077426242,0,2.2033302077426242,0,2.2033302077426242L0,1.1016651038713121C0,0.49363958108399186,0.49363958108399186,0,1.1016651038713121,0Z"/><g clip-path="url(#clip10)"><g class="mark-group role-scope" role="graphics-object" aria-roledescription="group mark container"><g transform="translate(0,-597.7966697922574)"><path class="background" aria-hidden="true" d="M0,0h102.85714285714286v0h-102.85714285714286Z"/><g><g class="mark-rect role-mark layer_0_marks" role="graphics-object" aria-roledescription="rect mark container"><path aria-label="Parser: yaml_rs; Execution Time (seconds, lower=better): 0.0494103257079; parser: yaml_rs; Execution Time (s): 0.0494; Slowdown: 1.15" role="graphics-symbol" aria-roledescription="bar" d="M0,597.7966697922574h102.85714285714286v2.2033302077426242h-102.85714285714286Z" fill="#a6761d"/></g></g><path class="foreground" aria-hidden="true" d="" display="none"/></g></g></g><path class="foreground" aria-hidden="true" d="" display="none"/></g><g transform="translate(234.28571428571425,591.1110508359698)"><path class="background" aria-hidden="true" d="M4.444474582015118,0L98.41266827512774,0C100.86564057292358,0,102.85714285714286,1.991502284219284,102.85714285714286,4.444474582015118L102.85714285714286,8.888949164030237C102.85714285714286,8.888949164030237,102.85714285714286,8.888949164030237,102.85714285714286,8.888949164030237L0,8.888949164030237C0,8.888949164030237,0,8.888949164030237,0,8.888949164030237L0,4.444474582015118C0,1.991502284219284,1.991502284219284,0,4.444474582015118,0Z"/><g clip-path="url(#clip11)"><g class="mark-group role-scope" role="graphics-object" aria-roledescription="group mark container"><g transform="translate(0,-591.1110508359698)"><path class="background" aria-hidden="true" d="M0,0h102.85714285714286v0h-102.85714285714286Z"/><g><g class="mark-rect role-mark layer_0_marks" role="graphics-object" aria-roledescription="rect mark container"><path aria-label="Parser: PyYAML (CSafeDumper); Execution Time (seconds, lower=better): 0.199337290367; parser: PyYAML (CSafeDumper); Execution Time (s): 0.1993; Slowdown: 4.64" role="graphics-symbol" aria-roledescription="bar" d="M0,591.1110508359698h102.85714285714286v8.888949164030237h-102.85714285714286Z" fill="#7570b3"/></g></g><path class="foreground" aria-hidden="true" d="" display="none"/></g></g></g><path class="foreground" aria-hidden="true" d="" display="none"/></g><g transform="translate(348.57142857142856,590.3780118951582)"><path class="background" aria-hidden="true" d="M4.810994052420881,0L98.04614880472198,0C100.70140870500434,0,102.85714285714286,2.155734152138522,102.85714285714286,4.810994052420881L102.85714285714286,9.621988104841762C102.85714285714286,9.621988104841762,102.85714285714286,9.621988104841762,102.85714285714286,9.621988104841762L0,9.621988104841762C0,9.621988104841762,0,9.621988104841762,0,9.621988104841762L0,4.810994052420881C0,2.155734152138522,2.155734152138522,0,4.810994052420881,0Z"/><g clip-path="url(#clip12)"><g class="mark-group role-scope" role="graphics-object" aria-roledescription="group mark container"><g transform="translate(0,-590.3780118951582)"><path class="background" aria-hidden="true" d="M0,0h102.85714285714286v0h-102.85714285714286Z"/><g><g class="mark-rect role-mark layer_0_marks" role="graphics-object" aria-roledescription="rect mark container"><path aria-label="Parser: PyYAML (CDumper); Execution Time (seconds, lower=better): 0.21577590347; parser: PyYAML (CDumper); Execution Time (s): 0.2158; Slowdown: 5.03" role="graphics-symbol" aria-roledescription="bar" d="M0,590.3780118951582h102.85714285714286v9.621988104841762h-102.85714285714286Z" fill="#d95f02"/></g></g><path class="foreground" aria-hidden="true" d="" display="none"/></g></g></g><path class="foreground" aria-hidden="true" d="" display="none"/></g><g transform="translate(462.85714285714283,589.1677460571555)"><path class="background" aria-hidden="true" d="M5.416126971422273,0L97.44101588572059,0C100.43025773581573,0,102.85714285714286,2.426885121327135,102.85714285714286,5.416126971422273L102.85714285714286,10.832253942844545C102.85714285714286,10.832253942844545,102.85714285714286,10.832253942844545,102.85714285714286,10.832253942844545L0,10.832253942844545C0,10.832253942844545,0,10.832253942844545,0,10.832253942844545L0,5.416126971422273C0,2.426885121327135,2.426885121327135,0,5.416126971422273,0Z"/><g clip-path="url(#clip13)"><g class="mark-group role-scope" role="graphics-object" aria-roledescription="group mark container"><g transform="translate(0,-589.1677460571555)"><path class="background" aria-hidden="true" d="M0,0h102.85714285714286v0h-102.85714285714286Z"/><g><g class="mark-rect role-mark layer_0_marks" role="graphics-object" aria-roledescription="rect mark container"><path aria-label="Parser: ruamel.yaml; Execution Time (seconds, lower=better): 0.242916469617; parser: ruamel.yaml; Execution Time (s): 0.2429; Slowdown: 5.66" role="graphics-symbol" aria-roledescription="bar" d="M0,589.1677460571555h102.85714285714286v10.832253942844545h-102.85714285714286Z" fill="#66a61e"/></g></g><path class="foreground" aria-hidden="true" d="" display="none"/></g></g></g><path class="foreground" aria-hidden="true" d="" display="none"/></g><g transform="translate(577.1428571428571,35.893443809844804)"><path class="background" aria-hidden="true" d="M6,0L96.85714285714286,0C100.16863300410687,0,102.85714285714286,2.688509853036,102.85714285714286,6L102.85714285714286,564.1065561901552C102.85714285714286,564.1065561901552,102.85714285714286,564.1065561901552,102.85714285714286,564.1065561901552L0,564.1065561901552C0,564.1065561901552,0,564.1065561901552,0,564.1065561901552L0,6C0,2.688509853036,2.688509853036,0,6,0Z"/><g clip-path="url(#clip14)"><g class="mark-group role-scope" role="graphics-object" aria-roledescription="group mark container"><g transform="translate(0,-35.893443809844804)"><path class="background" aria-hidden="true" d="M0,0h102.85714285714286v0h-102.85714285714286Z"/><g><g class="mark-rect role-mark layer_0_marks" role="graphics-object" aria-roledescription="rect mark container"><path aria-label="Parser: oyaml; Execution Time (seconds, lower=better): 12.650254863; parser: oyaml; Execution Time (s): 12.6503; Slowdown: 294.64" role="graphics-symbol" aria-roledescription="bar" d="M0,35.893443809844804h102.85714285714286v564.1065561901552h-102.85714285714286Z" fill="#e7298a"/></g></g><path class="foreground" aria-hidden="true" d="" display="none"/></g></g></g><path class="foreground" aria-hidden="true" d="" display="none"/></g><g transform="translate(691.4285714285714,23.076923076923062)"><path class="background" aria-hidden="true" d="M6,0L96.85714285714286,0C100.16863300410687,0,102.85714285714286,2.688509853036,102.85714285714286,6L102.85714285714286,576.9230769230769C102.85714285714286,576.9230769230769,102.85714285714286,576.9230769230769,102.85714285714286,576.9230769230769L0,576.9230769230769C0,576.9230769230769,0,576.9230769230769,0,576.9230769230769L0,6C0,2.688509853036,2.688509853036,0,6,0Z"/><g clip-path="url(#clip15)"><g class="mark-group role-scope" role="graphics-object" aria-roledescription="group mark container"><g transform="translate(0,-23.076923076923062)"><path class="background" aria-hidden="true" d="M0,0h102.85714285714286v0h-102.85714285714286Z"/><g><g class="mark-rect role-mark layer_0_marks" role="graphics-object" aria-roledescription="rect mark container"><path aria-label="Parser: PyYAML; Execution Time (seconds, lower=better): 12.937669097; parser: PyYAML; Execution Time (s): 12.9377; Slowdown: 301.34" role="graphics-symbol" aria-roledescription="bar" d="M0,23.076923076923062h102.85714285714286v576.9230769230769h-102.85714285714286Z" fill="#1b9e77"/></g></g><path class="foreground" aria-hidden="true" d="" display="none"/></g></g></g><path class="foreground" aria-hidden="true" d="" display="none"/></g></g><g class="mark-text role-mark layer_1_marks" role="graphics-object" aria-roledescription="text mark container"><text aria-label="Parser: ryaml; Execution Time (seconds, lower=better): 0.0429344802784; parser: ryaml; label: 0.0429s (x1.00); Execution Time (s): 0.0429; Slowdown: 1.00" role="graphics-symbol" aria-roledescription="text mark" text-anchor="middle" transform="translate(57.142857142857096,594.0854439634637)" font-family="sans-serif" font-size="9px" font-weight="bold" fill="#e6ab02">0.0429s (x1.00)</text><text aria-label="Parser: yaml_rs; Execution Time (seconds, lower=better): 0.0494103257079; parser: yaml_rs; label: 0.0494s (x1.15); Execution Time (s): 0.0494; Slowdown: 1.15" role="graphics-symbol" aria-roledescription="text mark" text-anchor="middle" transform="translate(171.4285714285714,593.7966697922574)" font-family="sans-serif" font-size="9px" font-weight="bold" fill="#a6761d">0.0494s (x1.15)</text><text aria-label="Parser: PyYAML (CSafeDumper); Execution Time (seconds, lower=better): 0.199337290367; parser: PyYAML (CSafeDumper); label: 0.1993s (x4.64); Execution Time (s): 0.1993; Slowdown: 4.64" role="graphics-symbol" aria-roledescription="text mark" text-anchor="middle" transform="translate(285.71428571428567,587.1110508359698)" font-family="sans-serif" font-size="9px" font-weight="bold" fill="#7570b3">0.1993s (x4.64)</text><text aria-label="Parser: PyYAML (CDumper); Execution Time (seconds, lower=better): 0.21577590347; parser: PyYAML (CDumper); label: 0.2158s (x5.03); Execution Time (s): 0.2158; Slowdown: 5.03" role="graphics-symbol" aria-roledescription="text mark" text-anchor="middle" transform="translate(400,586.3780118951582)" font-family="sans-serif" font-size="9px" font-weight="bold" fill="#d95f02">0.2158s (x5.03)</text><text aria-label="Parser: ruamel.yaml; Execution Time (seconds, lower=better): 0.242916469617; parser: ruamel.yaml; label: 0.2429s (x5.66); Execution Time (s): 0.2429; Slowdown: 5.66" role="graphics-symbol" aria-roledescription="text mark" text-anchor="middle" transform="translate(514.2857142857142,585.1677460571555)" font-family="sans-serif" font-size="9px" font-weight="bold" fill="#66a61e">0.2429s (x5.66)</text><text aria-label="Parser: oyaml; Execution Time (seconds, lower=better): 12.650254863; parser: oyaml; label: 12.6503s (x294.64); Execution Time (s): 12.6503; Slowdown: 294.64" role="graphics-symbol" aria-roledescription="text mark" text-anchor="middle" transform="translate(628.5714285714286,31.893443809844804)" font-family="sans-serif" font-size="9px" font-weight="bold" fill="#e7298a">12.6503s (x294.64)</text><text aria-label="Parser: PyYAML; Execution Time (seconds, lower=better): 12.937669097; parser: PyYAML; label: 12.9377s (x301.34); Execution Time (s): 12.9377; Slowdown: 301.34" role="graphics-symbol" aria-roledescription="text mark" text-anchor="middle" transform="translate(742.8571428571429,19.076923076923062)" font-family="sans-serif" font-size="9px" font-weight="bold" fill="#1b9e77">12.9377s (x301.34)</text></g><g class="mark-group role-title"><g transform="translate(400,-31)"><path class="background" aria-hidden="true" d="M0,0h0v0h0Z" pointer-events="none"/><g><g class="mark-text role-title-text" role="graphics-symbol" aria-roledescription="title" aria-label="Title text 'YAML parsers benchmark (dumps)'" pointer-events="none"><text text-anchor="middle" transform="translate(0,10)" font-family="sans-serif" font-size="13px" font-weight="bold" fill="#000" opacity="1">YAML parsers benchmark (dumps)</text></g><g class="mark-text role-title-subtitle" role="graphics-symbol" aria-roledescription="subtitle" aria-label="Subtitle text 'Python: 3.13.9 (Linux 6.8.0-58-generic) | CPU: AMD Ryzen 9 9950X 16-Core Processor'" pointer-events="none"><text text-anchor="middle" transform="translate(0,25)" font-family="sans-serif" font-size="12px" fill="#000" opacity="1">Python: 3.13.9 (Linux 6.8.0-58-generic) | CPU: AMD Ryzen 9 9950X 16-Core Processor</text></g></g><path class="foreground" aria-hidden="true" d="" pointer-events="none" display="none"/></g></g></g><path class="foreground" aria-hidden="true" d="" display="none"/></g></g></g><defs><clipPath id="clip9"><path d="M0.9572780182681413,0L101.89986483887472,0C102.42820095977474,0,102.85714285714286,0.42894189736811233,102.85714285714286,0.9572780182681413L102.85714285714286,1.9145560365362826C102.85714285714286,1.9145560365362826,102.85714285714286,1.9145560365362826,102.85714285714286,1.9145560365362826L0,1.9145560365362826C0,1.9145560365362826,0,1.9145560365362826,0,1.9145560365362826L0,0.9572780182681413C0,0.42894189736811233,0.42894189736811233,0,0.9572780182681413,0Z"/></clipPath><clipPath id="clip10"><path d="M1.1016651038713121,0L101.75547775327155,0C102.36350327605886,0,102.85714285714286,0.49363958108399186,102.85714285714286,1.1016651038713121L102.85714285714286,2.2033302077426242C102.85714285714286,2.2033302077426242,102.85714285714286,2.2033302077426242,102.85714285714286,2.2033302077426242L0,2.2033302077426242C0,2.2033302077426242,0,2.2033302077426242,0,2.2033302077426242L0,1.1016651038713121C0,0.49363958108399186,0.49363958108399186,0,1.1016651038713121,0Z"/></clipPath><clipPath id="clip11"><path d="M4.444474582015118,0L98.41266827512774,0C100.86564057292358,0,102.85714285714286,1.991502284219284,102.85714285714286,4.444474582015118L102.85714285714286,8.888949164030237C102.85714285714286,8.888949164030237,102.85714285714286,8.888949164030237,102.85714285714286,8.888949164030237L0,8.888949164030237C0,8.888949164030237,0,8.888949164030237,0,8.888949164030237L0,4.444474582015118C0,1.991502284219284,1.991502284219284,0,4.444474582015118,0Z"/></clipPath><clipPath id="clip12"><path d="M4.810994052420881,0L98.04614880472198,0C100.70140870500434,0,102.85714285714286,2.155734152138522,102.85714285714286,4.810994052420881L102.85714285714286,9.621988104841762C102.85714285714286,9.621988104841762,102.85714285714286,9.621988104841762,102.85714285714286,9.621988104841762L0,9.621988104841762C0,9.621988104841762,0,9.621988104841762,0,9.621988104841762L0,4.810994052420881C0,2.155734152138522,2.155734152138522,0,4.810994052420881,0Z"/></clipPath><clipPath id="clip13"><path d="M5.416126971422273,0L97.44101588572059,0C100.43025773581573,0,102.85714285714286,2.426885121327135,102.85714285714286,5.416126971422273L102.85714285714286,10.832253942844545C102.85714285714286,10.832253942844545,102.85714285714286,10.832253942844545,102.85714285714286,10.832253942844545L0,10.832253942844545C0,10.832253942844545,0,10.832253942844545,0,10.832253942844545L0,5.416126971422273C0,2.426885121327135,2.426885121327135,0,5.416126971422273,0Z"/></clipPath><clipPath id="clip14"><path d="M6,0L96.85714285714286,0C100.16863300410687,0,102.85714285714286,2.688509853036,102.85714285714286,6L102.85714285714286,564.1065561901552C102.85714285714286,564.1065561901552,102.85714285714286,564.1065561901552,102.85714285714286,564.1065561901552L0,564.1065561901552C0,564.1065561901552,0,564.1065561901552,0,564.1065561901552L0,6C0,2.688509853036,2.688509853036,0,6,0Z"/></clipPath><clipPath id="clip15"><path d="M6,0L96.85714285714286,0C100.16863300410687,0,102.85714285714286,2.688509853036,102.85714285714286,6L102.85714285714286,576.9230769230769C102.85714285714286,576.9230769230769,102.85714285714286,576.9230769230769,102.85714285714286,576.9230769230769L0,576.9230769230769C0,576.9230769230769,0,576.9230769230769,0,576.9230769230769L0,6C0,2.688509853036,2.688509853036,0,6,0Z"/></clipPath></defs></svg>