<svg xmlns="http://www.w3.org/2000/svg" xmlns:xlink="http://www.w3.org/1999/xlink" version="1.1" class="marks" width="844" height="673" viewBox="0 0 844 673"><rect width="844" height="673" fill="white"/><g fill="none" stroke-miterlimit="10" transform="translate(39,36)"><g class="mark-group role-frame root" role="graphics-object" aria-roledescription="group mark container"><g transform="translate(0,0)"><path class="background" aria-hidden="true" d="M0.5,0.5h800v600h-800Z" stroke="#ddd"/><g><g class="mark-group role-axis" role="graphics-symbol" aria-roledescription="axis" aria-label="X-axis titled 'Parser' for a discrete scale with 8 values: yaml_rs, yaml_rs (parse_dt=False), ryaml, PyYAML (CLoader), PyYAML (CSafeLoader), ending with PyYAML"><g transform="translate(0.5,600.5)"><path class="background" aria-hidden="true" d="M0,0h0v0h0Z" pointer-events="none"/><g><g class="mark-rule role-axis-tick" pointer-events="none"><line transform="translate(50,0)" x2="0" y2="5" stroke="#888" stroke-width="1" opacity="1"/><line transform="translate(150,0)" x2="0" y2="5" stroke="#888" stroke-width="1" opacity="1"/><line transform="translate(250,0)" x2="0" y2="5" stroke="#888" stroke-width="1" opacity="1"/><line transform="translate(350,0)" x2="0" y2="5" stroke="#888" stroke-width="1" opacity="1"/><line transform="translate(450,0)" x2="0" y2="5" stroke="#888" stroke-width="1" opacity="1"/><line transform="translate(550,0)" x2="0" y2="5" stroke="#888" stroke-width="1" opacity="1"/><line transform="translate(650,0)" x2="0" y2="5" stroke="#888" stroke-width="1" opacity="1"/><line transform="translate(750,0)" x2="0" y2="5" stroke="#888" stroke-width="1" opacity="1"/></g><g class="mark-text role-axis-label" pointer-events="none"><text text-anchor="middle" transform="translate(49.5,15)" font-family="sans-serif" font-size="10px" fill="#000" opacity="1">yaml_rs</text><text text-anchor="middle" transform="translate(149.5,15)" font-family="sans-serif" font-size="10px" fill="#000" opacity="1">yaml_rs (parse_dt=False)</text><text text-anchor="middle" transform="translate(249.5,15)" font-family="sans-serif" font-size="10px" fill="#000" opacity="1">ryaml</text><text text-anchor="middle" transform="translate(349.5,15)" font-family="sans-serif" font-size="10px" fill="#000" opacity="1">PyYAML (CLoader)</text><text text-anchor="middle" transform="translate(449.5,15)" font-family="sans-serif" font-size="10px" fill="#000" opacity="1">PyYAML (CSafeLoader)</text><text text-anchor="middle" transform="translate(549.5,15)" font-family="sans-serif" font-size="10px" fill="#000" opacity="1">ruamel.yaml</text><text text-anchor="middle" transform="translate(649.5,15)" font-family="sans-serif" font-size="10px" fill="#000" opacity="1">oyaml</text><text text-anchor="middle" transform="translate(749.5,15)" font-family="sans-serif" font-size="10px" fill="#000" opacity="1">PyYAML</text></g><g class="mark-rule role-axis-domain" pointer-events="none"><line transform="translate(0,0)" x2="800" y2="0" stroke="#888" stroke-width="1" opacity="1"/></g><g class="mark-text role-axis-title" pointer-events="none"><text text-anchor="middle" transform="translate(400,30)" font-family="sans-serif" font-size="11px" font-weight="bold" fill="#000" opacity="1">Parser</text></g></g><path class="foreground" aria-hidden="true" d="" pointer-events="none" display="none"/></g></g><g class="mark-group role-axis" role="graphics-symbol" aria-roledescription="axis" aria-label="Y-axis titled 'Execution Time (seconds, lower=better)' for a linear scale with values from 0 to 22"><g transform="translate(0.5,0.5)"><path class="background" aria-hidden="true" d="M0,0h0v0h0Z" pointer-events="none"/><g><g class="mark-rule role-axis-tick" pointer-events="none"><line transform="translate(0,600)" x2="-5" y2="0" stroke="#888" stroke-width="1" opacity="1"/><line transform="translate(0,546)" x2="-5" y2="0" stroke="#888" stroke-width="1" opacity="1"/><line transform="translate(0,493)" x2="-5" y2="0" stroke="#888" stroke-width="1" opacity="1"/><line transform="translate(0,439)" x2="-5" y2="0" stroke="#888" stroke-width="1" opacity="1"/><line transform="translate(0,385)" x2="-5" y2="0" stroke="#888" stroke-width="1" opacity="1"/><line transform="translate(0,331)" x2="-5" y2="0" stroke="#888" stroke-width="1" opacity="1"/><line transform="translate(0,278)" x2="-5" y2="0" stroke="#888" stroke-width="1" opacity="1"/><line transform="translate(0,224)" x2="-5" y2="0" stroke="#888" stroke-width="1" opacity="1"/><line transform="translate(0,170)" x2="-5" y2="0" stroke="#888" stroke-width="1" opacity="1"/><line transform="translate(0,116)" x2="-5" y2="0" stroke="#888" stroke-width="1" opacity="1"/><line transform="translate(0,63)" x2="-5" y2="0" stroke="#888" stroke-width="1" opacity="1"/><line transform="translate(0,9)" x2="-5" y2="0" stroke="#888" stroke-width="1" opacity="1"/></g><g class="mark-text role-axis-label" pointer-events="none"><text text-anchor="end" transform="translate(-7,603)" font-family="sans-serif" font-size="10px" fill="#000" opacity="1">0</text><text text-anchor="end" transform="translate(-7,549.258364831403)" font-family="sans-serif" font-size="10px" fill="#000" opacity="1">2</text><text text-anchor="end" transform="translate(-7,495.5167296628061)" font-family="sans-serif" font-size="10px" fill="#000" opacity="1">4</text><text text-anchor="end" transform="translate(-7,441.77509449420916)" font-family="sans-serif" font-size="10px" fill="#000" opacity="1">6</text><text text-anchor="end" transform="translate(-7,388.0334593256121)" font-family="sans-serif" font-size="10px" fill="#000" opacity="1">8</text><text text-anchor="end" transform="translate(-7,334.2918241570152)" font-family="sans-serif" font-size="10px" fill="#000" opacity="1">10</text><text text-anchor="end" transform="translate(-7,280.5501889884182)" font-family="sans-serif" font-size="10px" fill="#000" opacity="1">12</text><text text-anchor="end" transform="translate(-7,226.80855381982124)" font-family="sans-serif" font-size="10px" fill="#000" opacity="1">14</text><text text-anchor="end" transform="translate(-7,173.0669186512243)" font-family="sans-serif" font-size="10px" fill="#000" opacity="1">16</text><text text-anchor="end" transform="translate(-7,119.32528348262731)" font-family="sans-serif" font-size="10px" fill="#000" opacity="1">18</text><text text-anchor="end" transform="translate(-7,65.58364831403038)" font-family="sans-serif" font-size="10px" fill="#000" opacity="1">20</text><text text-anchor="end" transform="translate(-7,11.84201314543338)" font-family="sans-serif" font-size="10px" fill="#000" opacity="1">22</text></g><g class="mark-rule role-axis-domain" pointer-events="none"><line transform="translate(0,600)" x2="0" y2="-600" stroke="#888" stroke-width="1" opacity="1"/></g><g class="mark-text role-axis-title" pointer-events="none"><text text-anchor="middle" transform="translate(-22.123046875,300) rotate(-90) translate(0,-2)" font-family="sans-serif" font-size="11px" font-weight="bold" fill="#000" opacity="1">Execution Time (seconds, lower=better)</text></g></g><path class="foreground" aria-hidden="true" d="" pointer-events="none" display="none"/></g></g><g class="mark-group role-scope" role="graphics-object" aria-roledescription="group mark container"><g transform="translate(5,583.0443142917787)"><path class="background" aria-hidden="true" d="M6,0L84,0C87.311490146964,0,90,2.688509853036,90,6L90,16.955685708221267C90,16.955685708221267,90,16.955685708221267,90,16.955685708221267L0,16.955685708221267C0,16.955685708221267,0,16.955685708221267,0,16.955685708221267L0,6C0,2.688509853036,2.688509853036,0,6,0Z"/><g clip-path="url(#clip1)"><g class="mark-group role-scope" role="graphics-object" aria-roledescription="group mark container"><g transform="translate(0,-583.0443142917787)"><path class="background" aria-hidden="true" d="M0,0h90v0h-90Z"/><g><g class="mark-rect role-mark layer_0_marks" role="graphics-object" aria-roledescription="rect mark container"><path aria-label="Parser: yaml_rs; Execution Time (seconds, lower=better): 0.631007436042; parser: yaml_rs; Execution Time (s): 0.6310; Slowdown: 1.00" role="graphics-symbol" aria-roledescription="bar" d="M0,583.0443142917787h90v16.955685708221267h-90Z" fill="#a6761d"/></g></g><path class="foreground" aria-hidden="true" d="" display="none"/></g></g></g><path class="foreground" aria-hidden="true" d="" display="none"/></g><g transform="translate(105,582.2755302051631)"><path class="background" aria-hidden="true" d="M6,0L84,0C87.311490146964,0,90,2.688509853036,90,6L90,17.724469794836864C90,17.724469794836864,90,17.724469794836864,90,17.724469794836864L0,17.724469794836864C0,17.724469794836864,0,17.724469794836864,0,17.724469794836864L0,6C0,2.688509853036,2.688509853036,0,6,0Z"/><g clip-path="url(#clip2)"><g class="mark-group role-scope" role="graphics-object" aria-roledescription="group mark container"><g transform="translate(0,-582.2755302051631)"><path class="background" aria-hidden="true" d="M0,0h90v0h-90Z"/><g><g class="mark-rect role-mark layer_0_marks" role="graphics-object" aria-roledescription="rect mark container"><path aria-label="Parser: yaml_rs (parse_dt=False); Execution Time (seconds, lower=better): 0.659617808027; parser: yaml_rs (parse_dt=False); Execution Time (s): 0.6596; Slowdown: 1.05" role="graphics-symbol" aria-roledescription="bar" d="M0,582.2755302051631h90v17.724469794836864h-90Z" fill="#666666"/></g></g><path class="foreground" aria-hidden="true" d="" display="none"/></g></g></g><path class="foreground" aria-hidden="true" d="" display="none"/></g><g transform="translate(205,577.1463975911346)"><path class="background" aria-hidden="true" d="M6,0L84,0C87.311490146964,0,90,2.688509853036,90,6L90,22.853602408865413C90,22.853602408865413,90,22.853602408865413,90,22.853602408865413L0,22.853602408865413C0,22.853602408865413,0,22.853602408865413,0,22.853602408865413L0,6C0,2.688509853036,2.688509853036,0,6,0Z"/><g clip-path="url(#clip3)"><g class="mark-group role-scope" role="graphics-object" aria-roledescription="group mark container"><g transform="translate(0,-577.1463975911346)"><path class="background" aria-hidden="true" d="M0,0h90v0h-90Z"/><g><g class="mark-rect role-mark layer_0_marks" role="graphics-object" aria-roledescription="rect mark container"><path aria-label="Parser: ryaml; Execution Time (seconds, lower=better): 0.850498959965; parser: ryaml; Execution Time (s): 0.8505; Slowdown: 1.35" role="graphics-symbol" aria-roledescription="bar" d="M0,577.1463975911346h90v22.853602408865413h-90Z" fill="#e6ab02"/></g></g><path class="foreground" aria-hidden="true" d="" display="none"/></g></g></g><path class="foreground" aria-hidden="true" d="" display="none"/></g><g transform="translate(305,541.841035437013)"><path class="background" aria-hidden="true" d="M6,0L84,0C87.311490146964,0,90,2.688509853036,90,6L90,58.15896456298697C90,58.15896456298697,90,58.15896456298697,90,58.15896456298697L0,58.15896456298697C0,58.15896456298697,0,58.15896456298697,0,58.15896456298697L0,6C0,2.688509853036,2.688509853036,0,6,0Z"/><g clip-path="url(#clip4)"><g class="mark-group role-scope" role="graphics-object" aria-roledescription="group mark container"><g transform="translate(0,-541.841035437013)"><path class="background" aria-hidden="true" d="M0,0h90v0h-90Z"/><g><g class="mark-rect role-mark layer_0_marks" role="graphics-object" aria-roledescription="rect mark container"><path aria-label="Parser: PyYAML (CLoader); Execution Time (seconds, lower=better): 2.16439132827; parser: PyYAML (CLoader); Execution Time (s): 2.1644; Slowdown: 3.43" role="graphics-symbol" aria-roledescription="bar" d="M0,541.841035437013h90v58.15896456298697h-90Z" fill="#d95f02"/></g></g><path class="foreground" aria-hidden="true" d="" display="none"/></g></g></g><path class="foreground" aria-hidden="true" d="" display="none"/></g><g transform="translate(405,541.4367801234705)"><path class="background" aria-hidden="true" d="M6,0L84,0C87.311490146964,0,90,2.688509853036,90,6L90,58.5632198765295C90,58.5632198765295,90,58.5632198765295,90,58.5632198765295L0,58.5632198765295C0,58.5632198765295,0,58.5632198765295,0,58.5632198765295L0,6C0,2.688509853036,2.688509853036,0,6,0Z"/><g clip-path="url(#clip5)"><g class="mark-group role-scope" role="graphics-object" aria-roledescription="group mark container"><g transform="translate(0,-541.4367801234705)"><path class="background" aria-hidden="true" d="M0,0h90v0h-90Z"/><g><g class="mark-rect role-mark layer_0_marks" role="graphics-object" aria-roledescription="rect mark container"><path aria-label="Parser: PyYAML (CSafeLoader); Execution Time (seconds, lower=better): 2.17943572773; parser: PyYAML (CSafeLoader); Execution Time (s): 2.1794; Slowdown: 3.45" role="graphics-symbol" aria-roledescription="bar" d="M0,541.4367801234705h90v58.5632198765295h-90Z" fill="#7570b3"/></g></g><path class="foreground" aria-hidden="true" d="" display="none"/></g></g></g><path class="foreground" aria-hidden="true" d="" display="none"/></g><g transform="translate(505,483.7001992501322)"><path class="background" aria-hidden="true" d="M6,0L84,0C87.311490146964,0,90,2.688509853036,90,6L90,116.29980074986781C90,116.29980074986781,90,116.29980074986781,90,116.29980074986781L0,116.29980074986781C0,116.29980074986781,0,116.29980074986781,0,116.29980074986781L0,6C0,2.688509853036,2.688509853036,0,6,0Z"/><g clip-path="url(#clip6)"><g class="mark-group role-scope" role="graphics-object" aria-roledescription="group mark container"><g transform="translate(0,-483.7001992501322)"><path class="background" aria-hidden="true" d="M0,0h90v0h-90Z"/><g><g class="mark-rect role-mark layer_0_marks" role="graphics-object" aria-roledescription="rect mark container"><path aria-label="Parser: ruamel.yaml; Execution Time (seconds, lower=better): 4.32810800732; parser: ruamel.yaml; Execution Time (s): 4.3281; Slowdown: 6.86" role="graphics-symbol" aria-roledescription="bar" d="M0,483.7001992501322h90v116.29980074986781h-90Z" fill="#66a61e"/></g></g><path class="foreground" aria-hidden="true" d="" display="none"/></g></g></g><path class="foreground" aria-hidden="true" d="" display="none"/></g><g transform="translate(605,36.309442463137785)"><path class="background" aria-hidden="true" d="M6,0L84,0C87.311490146964,0,90,2.688509853036,90,6L90,563.6905575368622C90,563.6905575368622,90,563.6905575368622,90,563.6905575368622L0,563.6905575368622C0,563.6905575368622,0,563.6905575368622,0,563.6905575368622L0,6C0,2.688509853036,2.688509853036,0,6,0Z"/><g clip-path="url(#clip7)"><g class="mark-group role-scope" role="graphics-object" aria-roledescription="group mark container"><g transform="translate(0,-36.309442463137785)"><path class="background" aria-hidden="true" d="M0,0h90v0h-90Z"/><g><g class="mark-rect role-mark layer_0_marks" role="graphics-object" aria-roledescription="rect mark container"><path aria-label="Parser: oyaml; Execution Time (seconds, lower=better): 20.9777970383; parser: oyaml; Execution Time (s): 20.9778; Slowdown: 33.24" role="graphics-symbol" aria-roledescription="bar" d="M0,36.309442463137785h90v563.6905575368622h-90Z" fill="#e7298a"/></g></g><path class="foreground" aria-hidden="true" d="" display="none"/></g></g></g><path class="foreground" aria-hidden="true" d="" display="none"/></g><g transform="translate(705,23.07692307692313)"><path class="background" aria-hidden="true" d="M6,0L84,0C87.311490146964,0,90,2.688509853036,90,6L90,576.9230769230769C90,576.9230769230769,90,576.9230769230769,90,576.9230769230769L0,576.9230769230769C0,576.9230769230769,0,576.9230769230769,0,576.9230769230769L0,6C0,2.688509853036,2.688509853036,0,6,0Z"/><g clip-path="url(#clip8)"><g class="mark-group role-scope" role="graphics-object" aria-roledescription="group mark container"><g transform="translate(0,-23.07692307692313)"><path class="background" aria-hidden="true" d="M0,0h90v0h-90Z"/><g><g class="mark-rect role-mark layer_0_marks" role="graphics-object" aria-roledescription="rect mark container"><path aria-label="Parser: PyYAML; Execution Time (seconds, lower=better): 21.47024649; parser: PyYAML; Execution Time (s): 21.4702; Slowdown: 34.03" role="graphics-symbol" aria-roledescription="bar" d="M0,23.07692307692313h90v576.9230769230769h-90Z" fill="#1b9e77"/></g></g><path class="foreground" aria-hidden="true" d="" display="none"/></g></g></g><path class="foreground" aria-hidden="true" d="" display="none"/></g></g><g class="mark-text role-mark layer_1_marks" role="graphics-object" aria-roledescription="text mark container"><text aria-label="Parser: yaml_rs; Execution Time (seconds, lower=better): 0.631007436042; parser: yaml_rs; label: 0.6310s (x1.00); Execution Time (s): 0.6310; Slowdown: 1.00" role="graphics-symbol" aria-roledescription="text mark" text-anchor="middle" transform="translate(50,579.0443142917787)" font-family="sans-serif" font-size="9px" font-weight="bold" fill="#a6761d">0.6310s (x1.00)</text><text aria-label="Parser: yaml_rs (parse_dt=False); Execution Time (seconds, lower=better): 0.659617808027; parser: yaml_rs (parse_dt=False); label: 0.6596s (x1.05); Execution Time (s): 0.6596; Slowdown: 1.05" role="graphics-symbol" aria-roledescription="text mark" text-anchor="middle" transform="translate(150,578.2755302051631)" font-family="sans-serif" font-size="9px" font-weight="bold" fill="#666666">0.6596s (x1.05)</text><text aria-label="Parser: ryaml; Execution Time (seconds, lower=better): 0.850498959965; parser: ryaml; label: 0.8505s (x1.35); Execution Time (s): 0.8505; Slowdown: 1.35" role="graphics-symbol" aria-roledescription="text mark" text-anchor="middle" transform="translate(250,573.1463975911346)" font-family="sans-serif" font-size="9px" font-weight="bold" fill="#e6ab02">0.8505s (x1.35)</text><text aria-label="Parser: PyYAML (CLoader); Execution Time (seconds, lower=better): 2.16439132827; parser: PyYAML (CLoader); label: 2.1644s (x3.43); Execution Time (s): 2.1644; Slowdown: 3.43" role="graphics-symbol" aria-roledescription="text mark" text-anchor="middle" transform="translate(350,537.841035437013)" font-family="sans-serif" font-size="9px" font-weight="bold" fill="#d95f02">2.1644s (x3.43)</text><text aria-label="Parser: PyYAML (CSafeLoader); Execution Time (seconds, lower=better): 2.17943572773; parser: PyYAML (CSafeLoader); label: 2.1794s (x3.45); Execution Time (s): 2.1794; Slowdown: 3.45" role="graphics-symbol" aria-roledescription="text mark" text-anchor="middle" transform="translate(450,537.4367801234705)" font-family="sans-serif" font-size="9px" font-weight="bold" fill="#7570b3">2.1794s (x3.45)</text><text aria-label="Parser: ruamel.yaml; Execution Time (seconds, lower=better): 4.32810800732; parser: ruamel.yaml; label: 4.3281s (x6.86); Execution Time (s): 4.3281; Slowdown: 6.86" role="graphics-symbol" aria-roledescription="text mark" text-anchor="middle" transform="translate(550,479.7001992501322)" font-family="sans-serif" font-size="9px" font-weight="bold" fill="#66a61e">4.3281s (x6.86)</text><text aria-label="Parser: oyaml; Execution Time (seconds, lower=better): 20.9777970383; parser: oyaml; label: 20.9778s (x33.24); Execution Time (s): 20.9778; Slowdown: 33.24" role="graphics-symbol" aria-roledescription="text mark" text-anchor="middle" transform="translate(650,32.309442463137785)" font-family="sans-serif" font-size="9px" font-weight="bold" fill="#e7298a">20.9778s (x33.24)</text><text aria-label="Parser: PyYAML; Execution Time (seconds, lower=better): 21.47024649; parser: PyYAML; label: 21.4702s (x34.03); Execution Time (s): 21.4702; Slowdown: 34.03" role="graphics-symbol" aria-roledescription="text mark" text-anchor="middle" transform="translate(750,19.07692307692313)" font-family="sans-serif" font-size="9px" font-weight="bold" fill="#1b9e77">21.4702s (x34.03)</text></g><g class="mark-group role-title"><g transform="translate(400,-31)"><path class="background" aria-hidden="true" d="M0,0h0v0h0Z" pointer-events="none"/><g><g class="mark-text role-title-text" role="graphics-symbol" aria-roledescription="title" aria-label="Title text 'YAML parsers benchmark (loads)'" pointer-events="none"><text text-anchor="middle" transform="translate(0,10)" font-family="sans-serif" font-size="13px" font-weight="bold" fill="#000" opacity="1">YAML parsers benchmark (loads)</text></g><g class="mark-text role-title-subtitle" role="graphics-symbol" aria-roledescription="subtitle" aria-label="Subtitle text 'Python: 3.13.9 (Linux 6.8.0-58-generic) | CPU: AMD Ryzen 9 9950X 16-Core Processor'" pointer-events="none"><text text-anchor="middle" transform="translate(0,25)" font-family="sans-serif" font-size="12px" fill="#000" opacity="1">Python: 3.13.9 (Linux 6.8.0-58-generic) | CPU: AMD Ryzen 9 9950X 16-Core Processor</text></g></g><path class="foreground" aria-hidden="true" d="" pointer-events="none" display="none"/></g></g></g><path class="foreground" aria-hidden="true" d="" display="none"/></g></g></g><defs><clipPath id="clip1"><path d="M6,0L84,0C87.311490146964,0,90,2.688509853036,90,6L90,16.955685708221267C90,16.955685708221267,90,16.955685708221267,90,16.955685708221267L0,16.955685708221267C0,16.955685708221267,0,16.955685708221267,0,16.955685708221267L0,6C0,2.688509853036,2.688509853036,0,6,0Z"/></clipPath><clipPath id="clip2"><path d="M6,0L84,0C87.311490146964,0,90,2.688509853036,90,6L90,17.724469794836864C90,17.724469794836864,90,17.724469794836864,90,17.724469794836864L0,17.724469794836864C0,17.724469794836864,0,17.724469794836864,0,17.724469794836864L0,6C0,2.688509853036,2.688509853036,0,6,0Z"/></clipPath><clipPath id="clip3"><path d="M6,0L84,0C87.311490146964,0,90,2.688509853036,90,6L90,22.853602408865413C90,22.853602408865413,90,22.853602408865413,90,22.853602408865413L0,22.853602408865413C0,22.853602408865413,0,22.853602408865413,0,22.853602408865413L0,6C0,2.688509853036,2.688509853036,0,6,0Z"/></clipPath><clipPath id="clip4"><path d="M6,0L84,0C87.311490146964,0,90,2.688509853036,90,6L90,58.15896456298697C90,58.15896456298697,90,58.15896456298697,90,58.15896456298697L0,58.15896456298697C0,58.15896456298697,0,58.15896456298697,0,58.15896456298697L0,6C0,2.688509853036,2.688509853036,0,6,0Z"/></clipPath><clipPath id="clip5"><path d="M6,0L84,0C87.311490146964,0,90,2.688509853036,90,6L90,58.5632198765295C90,58.5632198765295,90,58.5632198765295,90,58.5632198765295L0,58.5632198765295C0,58.5632198765295,0,58.5632198765295,0,58.5632198765295L0,6C0,2.688509853036,2.688509853036,0,6,0Z"/></clipPath><clipPath id="clip6"><path d="M6,0L84,0C87.311490146964,0,90,2.688509853036,90,6L90,116.29980074986781C90,116.29980074986781,90,116.29980074986781,90,116.29980074986781L0,116.29980074986781C0,116.29980074986781,0,116.29980074986781,0,116.29980074986781L0,6C0,2.688509853036,2.688509853036,0,6,0Z"/></clipPath><clipPath id="clip7"><path d="M6,0L84,0C87.311490146964,0,90,2.688509853036,90,6L90,563.6905575368622C90,563.6905575368622,90,563.6905575368622,90,563.6905575368622L0,563.6905575368622C0,563.6905575368622,0,563.6905575368622,0,563.6905575368622L0,6C0,2.688509853036,2.688509853036,0,6,0Z"/></clipPath><clipPath id="clip8"><path d="M6,0L84,0C87.311490146964,0,90,2.688509853036,90,6L90,576.9230769230769C90,576.9230769230769,90,576.9230769230769,90,576.9230769230769L0,576.9230769230769C0,576.9230769230769,0,576.9230769230769,0,576.9230769230769L0,6C0,2.688509853036,2.688509853036,0,6,0Z"/></clipPath></defs></svg>