<?xml version="1.0" encoding="utf-8" ?>
<!--
 ~ SPDX-FileCopyrightText: Copyright DB InfraGO AG and the capellambse-context-diagrams contributors
 ~ SPDX-License-Identifier: Apache-2.0
 -->

<svg xmlns="http://www.w3.org/2000/svg" xmlns:ev="http://www.w3.org/2001/xml-events" xmlns:xlink="http://www.w3.org/1999/xlink" baseProfile="full" class="LogicalArchitectureBlank" font-family="'Open Sans','Segoe UI',Arial,sans-serif" font-size="10px" height="144" shape-rendering="geometricPrecision" version="1.1" viewBox="2 2 418 144" width="418">
  <defs>
    <symbol id="LogicalActorSymbol" stroke="#000" stroke-width="2" viewBox="0 0 79 79">
      <path d="M18 237h46v43H18z" fill="#dbe6f4" transform="translate(0 -218)"/>
      <path d="M12 247h11v8H12z" fill="#dbe6f4" transform="translate(0 -218)"/>
      <path d="M12 261h11v8H12z" fill="#dbe6f4" transform="translate(0 -218)"/>
      <g fill="#000" stroke-width="0.1" transform="scale(0.83010896,1.2046611)">
        <path d="m 31.063676,19.942628 h 3.754427 v 26.759494 h -3.754427 z m 1.877213,23.189107 h 15.312173 v 3.570387 H 32.940889 Z"/>
        <path d="m 60.32612,19.942628 h 3.202306 l 9.864572,26.759494 H 69.344107 L 61.927273,25.114167 54.51044,46.702122 H 50.461548 Z M 55.007349,37.260842 H 69.08645 v 3.570387 H 55.007349 Z"/>
      </g>
    </symbol>
    <linearGradient id="CustomGradient_DAFDFF_C6E6FF" x1="0" x2="0" y1="0" y2="1">
      <stop offset="0.0" stop-color="#DAFDFF" stop-opacity="1"/>
      <stop offset="1.0" stop-color="#C6E6FF" stop-opacity="1"/>
    </linearGradient>
    <symbol id="LogicalFunctionSymbol" viewBox="0 0 79 79">
      <linearGradient id="LF_green" x1="0" x2="1" y1="0" y2="0">
        <stop offset="0.0" stop-color="#6CB35B" stop-opacity="1"/>
        <stop offset="1.0" stop-color="#ffffff" stop-opacity="1"/>
      </linearGradient>
      <ellipse cx="39.5" cy="39.5" fill="url(#LF_green)" rx="26" ry="21" stroke="#000" stroke-width="2"/>
      <text fill="#000" font-family="'Open Sans','Segoe UI',Arial,sans-serif" font-size="25px" font-weight="bold" stroke="none" text-anchor="middle" x="40" y="50">LF</text>
    </symbol>
    <symbol id="LogicalHumanActorSymbol" stroke="#000" stroke-width="2" viewBox="0 0 79 79">
      <use transform="matrix(0.81762456,0,0,0.81762456,-2.5207584,0.47091696)" xlink:href="#StickFigureSymbol"/>
    </symbol>
    <symbol id="StickFigureSymbol" stroke="#000" stroke-width="2" viewBox="362.861 210.892 75 75">
      <g stroke="#000" stroke-width="2.4944" transform="matrix(1.0611338,0,0,1.0611338,-24.47665,-12.241673)">
        <line fill="none" x1="400.362" x2="400.362" y1="232.586" y2="257.534"/>
        <line fill="none" x1="400.83401" x2="388.423" y1="254.299" y2="275.009"/>
        <line fill="none" x1="400.25201" x2="413.97" y1="254.46001" y2="274.987"/>
        <line fill="none" x1="385.634" x2="415.703" y1="244.569" y2="244.49699"/>
        <ellipse cx="400.53201" cy="223.35899" fill="none" rx="9.2180004" ry="8.5080004"/>
      </g>
    </symbol>
    <linearGradient id="CustomGradient_C3E6FF_96B1DA" x1="0" x2="0" y1="0" y2="1">
      <stop offset="0.0" stop-color="#C3E6FF" stop-opacity="1"/>
      <stop offset="1.0" stop-color="#96B1DA" stop-opacity="1"/>
    </linearGradient>
    <symbol id="FunctionalExchangeSymbol" viewBox="0 0 40 30">
      <linearGradient id="FunctionalExchangeSymbol-gradient" x1="0" x2="1" y1="0" y2="1">
        <stop offset="0.0" stop-color="#4F7C45" stop-opacity="1"/>
        <stop offset="1.0" stop-color="#BCDDB4" stop-opacity="1"/>
      </linearGradient>
      <linearGradient id="FunctionalExchangeSymbol-gradientreverse" x1="0" x2="1" y1="0" y2="1">
        <stop offset="0.0" stop-color="#BCDDB4" stop-opacity="1"/>
        <stop offset="1.0" stop-color="#4F7C45" stop-opacity="1"/>
      </linearGradient>
      <g stroke="#000" stroke-width="2">
        <path d="M 36.190065,5.0377724 V 24.962228 H 26.17482 V 5.0377724 Z" fill="url(#FunctionalExchangeSymbol-gradientreverse)"/>
        <path d="m 14.372107,10 h 12.622435 c 0.926189,0.585267 1.836022,1.274509 2.268178,5 -0.208657,2.812473 -0.954601,4.503809 -2.273297,5 H 14.296948" fill="#61c34c"/>
        <path d="M 3.9464908,5.0048246 V 24.995175 H 10.87518 C 12.433713,24.159139 15.158267,20.291241 15.313795,15 15.498614,11.583142 14.059659,6.6240913 10.87518,5.0048246 c -2.2179509,0 -4.5908341,0 -6.9286892,0 z" fill="url(#FunctionalExchangeSymbol-gradient)"/>
      </g>
    </symbol>
    <symbol id="PortSymbol" viewBox="0 0 10 10">
      <path d="M0 0h10v10H0z"/>
      <path d="M5 1L1 9h8z" fill="#fff"/>
    </symbol>
  </defs>
  <rect fill="#fff" height="144" stroke="none" width="418" x="2" y="2"/>
  <g class="Box LogicalActor" id="3bdd4fa2-5646-44a1-9fa6-80c68433ddb7">
    <rect class="LogicalActor" fill="url(&quot;#CustomGradient_DAFDFF_C6E6FF&quot;)" height="124" stroke="#4A4A97" stroke-width="1" width="154" x="12.5" y="12.5"/>
    <text class="LogicalActor" dominant-baseline="middle" fill="#000000" text-anchor="middle" x="27" y="17">
      <tspan x="100.0" xml:space="preserve" y="27.857142857142858">Whomping Willow</tspan>
    </text>
    <use height="20" width="20" x="39.0" xlink:href="#LogicalActorSymbol" y="17.857142857142858"/>
  </g>
  <g class="Box LogicalFunction" id="7f2936ab-0b54-4e92-9f0c-85a9f0981959">
    <rect class="LogicalFunction" fill="#C5FFA6" height="77" stroke="#095C2E" stroke-width="1" width="127" x="25.5" y="47.5"/>
    <text class="LogicalFunction" dominant-baseline="middle" fill="#095C2E" text-anchor="middle" x="24" y="52">
      <tspan x="95.0" xml:space="preserve" y="60.85714285714286">defend the</tspan>
      <tspan x="95.0" xml:space="preserve" y="76.57142857142858">surrounding area</tspan>
      <tspan x="95.0" xml:space="preserve" y="92.2857142857143">against Intruders</tspan>
    </text>
    <use height="20" width="20" x="35.5" xlink:href="#LogicalFunctionSymbol" y="68.0"/>
  </g>
  <g class="Box LogicalHumanActor" id="ff7b8672-84db-4b93-9fea-22a410907fb1">
    <rect class="LogicalHumanActor" fill="url(&quot;#CustomGradient_C3E6FF_96B1DA&quot;)" height="84" stroke="#4A4A97" stroke-width="1" width="159" x="251.5" y="32.5"/>
    <text class="LogicalHumanActor" dominant-baseline="middle" fill="#4A4A97" text-anchor="middle" x="287" y="37">
      <tspan x="341.0" xml:space="preserve" y="47.85714285714286">R. Weasley</tspan>
    </text>
    <use height="20" width="20" x="296.5" xlink:href="#LogicalHumanActorSymbol" y="37.85714285714286"/>
  </g>
  <g class="Box LogicalFunction" id="edbd1ad4-31c0-4d53-b856-3ffa60e0e99b">
    <rect class="LogicalFunction" fill="#C5FFA6" height="37" stroke="#095C2E" stroke-width="1" width="132" x="265.5" y="66.5"/>
    <text class="LogicalFunction" dominant-baseline="middle" fill="#095C2E" text-anchor="middle" x="272" y="71">
      <tspan x="345.5" xml:space="preserve" y="77.71428571428571">break school rules</tspan>
    </text>
    <use height="20" width="20" x="284.0" xlink:href="#LogicalFunctionSymbol" y="67.71428571428571"/>
  </g>
  <g class="Edge FunctionalExchange" id="96a0cf4c-adfe-4490-92d1-bcf75ee77004">
    <path class="Edge" d="M 154.5 85.5 263.5 85.5" fill="none" stroke="#095C2E" stroke-width="2"/>
    <text class="Annotation" dominant-baseline="middle" fill="#095C2E" text-anchor="middle" x="165.5" y="88">
      <tspan x="220.0" xml:space="preserve" y="98.85714285714286">punish</tspan>
    </text>
    <use height="20" width="20" x="184.0" xlink:href="#FunctionalExchangeSymbol" y="88.85714285714286"/>
  </g>
  <g class="Box FOP" id="226878bc-3e4b-4236-ba72-996fc1d988c0">
    <use class="FOP" fill="#095C2E" height="10" stroke="#000000" stroke-width="0" transform="rotate(90 149.5 85.5)" width="10" x="144.5" xlink:href="#PortSymbol" y="80.5"/>
  </g>
  <g class="Box FIP" id="2178d219-e817-4a50-b451-74b19874a6bf">
    <use class="FIP" fill="#E08503" height="10" stroke="#000000" stroke-width="0" transform="rotate(90 268.5 85.5)" width="10" x="263.5" xlink:href="#PortSymbol" y="80.5"/>
  </g>
</svg>
