<?xml version="1.0" encoding="UTF-8" standalone="no"?>
<!-- Created with Inkscape (http://www.inkscape.org/) -->

<svg
   xmlns:dc="http://purl.org/dc/elements/1.1/"
   xmlns:cc="http://creativecommons.org/ns#"
   xmlns:rdf="http://www.w3.org/1999/02/22-rdf-syntax-ns#"
   xmlns:svg="http://www.w3.org/2000/svg"
   xmlns="http://www.w3.org/2000/svg"
   xmlns:sodipodi="http://sodipodi.sourceforge.net/DTD/sodipodi-0.dtd"
   xmlns:inkscape="http://www.inkscape.org/namespaces/inkscape"
   width="100%"
   height="100%"
   viewBox="0 0 99.999997 99.999997"
   id="svg10087"
   version="1.1"
   inkscape:version="0.91 r13725"
   sodipodi:docname="Animalia.svg">
  <defs
     id="defs10089" />
  <sodipodi:namedview
     id="base"
     pagecolor="#ffffff"
     bordercolor="#666666"
     borderopacity="1.0"
     inkscape:pageopacity="0.0"
     inkscape:pageshadow="2"
     inkscape:zoom="1.4"
     inkscape:cx="-100.69135"
     inkscape:cy="73.021407"
     inkscape:document-units="px"
     inkscape:current-layer="layer1"
     showgrid="false"
     fit-margin-top="0"
     fit-margin-left="0"
     fit-margin-right="0"
     fit-margin-bottom="0"
     inkscape:window-width="1920"
     inkscape:window-height="1016"
     inkscape:window-x="0"
     inkscape:window-y="27"
     inkscape:window-maximized="1" />
  <metadata
     id="metadata10092">
    <rdf:RDF>
      <cc:Work
         rdf:about="">
        <dc:format>image/svg+xml</dc:format>
        <dc:type
           rdf:resource="http://purl.org/dc/dcmitype/StillImage" />
        <dc:title></dc:title>
      </cc:Work>
    </rdf:RDF>
  </metadata>
  <g
     inkscape:label="Layer 1"
     inkscape:groupmode="layer"
     id="layer1"
     transform="translate(-367.14285,-490.93365)">
    <circle
       style="opacity:1;fill:#af9883;fill-opacity:1;stroke:none;stroke-width:10;stroke-linecap:round;stroke-linejoin:miter;stroke-miterlimit:4;stroke-dasharray:none;stroke-dashoffset:0;stroke-opacity:1"
       id="path4136-0-3-2"
       cx="417.14285"
       cy="540.93365"
       r="50" />
    <path
       style="display:inline;fill:#ffffff;fill-opacity:1;stroke:none"
       d="m 402.38329,559.22059 c 1.04452,4.52755 0.59525,7.46597 0.54804,9.9107 1.15541,0.22986 4.16258,1.74838 6.08481,3.68666 -4.62691,-3.14902 -5.47908,-2.85269 -6.07081,-2.92919 0.0701,1.32467 0.36722,2.88957 1.24519,4.20693 -0.10072,1.23612 -0.79646,2.70788 -1.40436,4.02107 0.75516,-0.20213 1.34671,-0.32448 3.89701,-1.89861 -0.42777,0.76106 -2.92685,2.15718 -4.30884,2.62052 -0.26115,0.65088 -0.44236,1.27519 -0.43938,1.84677 0.0101,1.99957 0.44385,4.02969 0.80691,5.45499 0.5939,-0.75841 4.65211,-3.70658 5.74731,-8.52649 1.48244,3.14528 -4.15015,7.44362 4.5383,-2.51224 3.88944,0.32726 6.86409,1.95427 9.71173,3.4982 0.0537,0.0289 -0.91707,1.86001 -0.23416,2.08312 1.48022,0.48358 5.36453,-0.44348 6.47693,-0.34867 0.84913,0.0723 3.62477,-5.02567 0.85875,-5.0778 -2.71941,-0.0512 -7.99913,-0.89167 -8.79676,-1.29315 -1.56366,-0.78705 0.98983,-2.3042 1.08386,-2.77181 1.85386,-8.2e-4 7.22509,0.92605 9.15741,0.0372 -0.72493,1.88908 -9.38284,6.26884 -12.21089,4.46065 -1.56881,-1.00304 5.3932,3.83044 5.48766,3.87866 0.37179,0.18983 0.74432,0.3731 1.11935,0.54667 2.30894,1.06862 4.71314,1.76977 7.62972,1.37119 1.18688,-0.16216 2.67807,-0.52469 3.95492,-0.93051 0.26786,-0.085 -1.45844,-3.40165 -1.93513,-7.48357 -0.28856,-2.47075 0.2194,-5.22191 0.93721,-7.7066 -0.19977,1.90835 -0.0149,5.03929 0.87011,8.21438 0.83955,3.01202 2.3703,6.12611 2.59705,6.02682 4.44422,-1.94595 8.54603,-5.11393 9.6987,-8.70258 -0.64578,-1.87042 -2.50684,-3.57602 -4.88875,-4.96492 -0.13371,-0.0779 -3.18181,0.50129 -4.88214,0.75186 -0.62172,0.0916 1.28621,0.77035 2.23148,1.55459 0.17899,0.14852 0.32347,0.3008 0.40973,0.4536 0.34919,0.61872 0.13933,1.05131 -0.12078,1.37369 -0.39797,0.49338 -1.21245,0.50117 -1.74999,0.0845 -0.96161,-0.74531 -0.2654,-2.14598 0.90972,-1.97222 1.3053,0.193 3.89198,1.38289 3.28278,0.56487 -0.19211,-0.25792 1.03339,-1.17398 0.5844,-2.15364 -0.3086,-0.67328 -2.35489,-1.55009 -2.38914,-1.56645 -3.47665,-1.66031 -7.60537,-2.68445 -10.69734,-2.70329 -0.0522,-1.66425 -1.46909,-2.64112 -2.37347,-2.93387 -0.3958,-0.12811 -2.44648,-0.24226 -4.41791,-0.31082 0.37664,0.55957 3.09813,2.2317 3.38548,3.42088 -1.51842,-2.35666 -3.33723,-2.3324 -3.9796,-3.49506 -1.39031,-0.0237 -2.84596,0.006 -4.05832,0.1303 0.28427,0.48309 3.64346,2.45638 4.46404,4.30342 -2.20049,-2.80582 -3.95831,-3.35204 -5.12826,-4.07728 -0.80444,0.17723 -1.74696,0.38287 -2.04724,0.73819 2.63823,1.41331 4.91832,3.6105 5.51843,4.27805 -4.44475,1.75936 -8.65507,4.22364 -11.00395,5.74113 -3.01195,-0.34538 -8.39546,-11.5449 -10.09987,-10.90112 z"
       id="path3862-4-2"
       inkscape:connector-curvature="0"
       sodipodi:nodetypes="ccccccccscccsssssccsssssscsscsssssssssscsccccccccccc"
       inkscape:export-filename="/home/tom/anymals_workspace/inkscape/TAXONFILTER/animals.png"
       inkscape:export-xdpi="32.556522"
       inkscape:export-ydpi="32.556522" />
    <g
       id="g5320"
       transform="matrix(-0.56671815,0,0,0.56671815,766.69277,385.9262)"
       style="display:inline;fill:#ffffff;fill-opacity:1"
       inkscape:export-filename="/home/tom/anymals_workspace/inkscape/TAXONFILTER/animals.png"
       inkscape:export-xdpi="32.556522"
       inkscape:export-ydpi="32.556522">
      <path
         inkscape:export-ydpi="20.347954"
         inkscape:export-xdpi="20.347954"
         inkscape:export-filename="/media/NAS/SiSol/pin_mammals.png"
         sodipodi:nodetypes="cccccccsscccccccccccccscccccccccccccccccccccccccccc"
         inkscape:connector-curvature="0"
         id="path3862-3-8-3"
         d="m 661.63246,250.50957 c 0.88775,-2.15554 3.35781,-3.40742 3.89758,-4.88147 -1.52256,-0.18067 -3.52064,-0.22467 -4.42845,-0.0832 -2.09034,2.40448 -3.56527,3.38133 -4.34787,5.01803 1.05147,-0.47583 1.93486,-1.0484 3.0887,-0.86479 -0.36196,1.98259 -0.89043,7.05518 -11.03774,8.33687 -6.77663,0.68007 -23.59851,1.45971 -26.76796,9.54401 -2.06417,-0.38051 -4.53014,-0.12068 -7.98922,2.81059 -2.00547,1.69945 -4.52508,6.25262 -5.45061,11.1677 -0.28631,1.52038 -1.80636,4.39373 -3.29786,5.90984 0.77845,0.38306 1.56292,-0.39521 2.13532,-0.12153 -1.0621,1.58287 -4.55385,3.81787 -5.22394,5.5784 0.58604,-0.26352 1.26475,-0.45063 2.15327,-0.83973 -0.79612,1.30229 -3.83847,2.43609 -6.25374,3.02282 3.4105,2.33151 8.57204,2.07037 11.24096,-1.33265 -0.0344,0.34367 0.58301,1.23755 0.47551,1.75742 1.5428,-0.006 3.16979,-5.00019 2.99385,-7.04324 1.2291,0.33922 1.47278,0.81307 2.29515,1.92786 0.55714,-0.75815 -0.0708,-5.90647 -0.4058,-6.93025 0.93608,0.3354 1.88672,0.8298 2.8409,1.09885 -0.71744,-1.1974 -1.35113,-5.76118 -1.36984,-9.09246 0.97498,-4.00954 3.78702,-4.27538 4.98441,-4.22176 -1.34403,3.93209 -0.22566,9.15178 0.71987,12.67218 0.25347,0.94374 -2.17911,9.48468 -2.82682,12.45912 2.00653,3.15957 5.98483,8.13163 6.627,11.41515 0.28382,-0.006 2.01334,0.30456 3.98762,0.3851 0.22943,-0.36754 1.42553,-2.87367 -1.02958,-3.58583 -0.68905,-1.49255 -3.63361,-4.47295 -4.98956,-7.96555 1.69218,-1.40706 3.10728,-8.21152 6.8052,-8.59175 9.3902,-2.82364 8.62695,-10.31623 10.36619,-13.44077 7.43229,3.68826 13.48818,5.51133 16.11419,4.3077 -0.69998,2.76625 -0.25261,5.7589 0.88065,7.89947 1.6281,2.02468 2.70627,5.08101 2.16683,9.61914 2.58889,2.86394 3.5861,9.80486 3.44724,11.20927 1.58446,-0.053 2.70567,0.11297 4.75967,-0.14416 0.31925,-0.39602 1.48589,-2.39274 -1.02071,-2.51439 -1.22091,-2.45077 -2.59794,-15.73575 -2.76291,-16.99872 1.66647,-2.18451 6.37019,-6.46817 6.71703,-7.95472 1.51154,-1.39391 1.84774,-5.0913 1.64337,-6.55431 0.22832,-3.33743 2.33898,1.15416 2.73026,1.64109 0.12465,-3.88934 -0.2643,-6.76234 -0.35944,-7.99371 1.0816,-1.22835 2.66254,-0.34003 3.68277,0.47091 0.15822,-3.67909 -2.17545,-7.44867 -2.35799,-7.83869 1.84727,0.66968 2.09996,0.77226 4.28195,2.05077 -0.43159,-2.2683 -1.79141,-6.28388 -5.0838,-8.78424 -0.46664,0.87035 -1.44062,1.55714 -2.49583,3.9464 -1.07705,-0.84816 -2.24527,-3.36613 -2.09133,-5.96359 -1.00278,0.67071 -2.33485,2.52061 -3.8263,4.54151 -0.2942,-0.70984 -0.18164,-4.13182 -0.48705,-5.6071 -1.29961,0.28645 -4.08109,0.67176 -5.56292,0.70283 z"
         style="display:inline;fill:#ffffff;fill-opacity:1;stroke:none" />
      <path
         inkscape:export-ydpi="20.347954"
         inkscape:export-xdpi="20.347954"
         inkscape:export-filename="/media/NAS/SiSol/pin_mammals.png"
         sodipodi:nodetypes="ccccscccccccccccccc"
         inkscape:connector-curvature="0"
         id="path3862-3-2-5"
         d="m 679.88507,254.37832 c -1.13948,-4.7946 0.83535,-9.79448 3.18822,-12.14092 3.88185,-2.86251 5.54639,-5.18352 3.89774,-6.80351 -2.83034,0.72466 -2.27078,1.67666 -6.49424,3.32316 1.85694,-2.04413 2.14117,-4.62393 3.3557,-6.9651 1.18877,-2.29157 0.83899,-4.16173 -0.56181,-5.27 -2.20038,2.25094 -7.69115,7.5709 -10.00396,9.67414 -2.88165,-0.21899 -1.82569,-0.18663 -5.33704,-0.17031 -1.44823,1.67529 -3.16476,3.6856 -4.74577,5.74009 0.84367,-0.086 1.08889,-0.57055 2.88027,-0.5727 -3.42055,1.65604 -6.81758,1.91788 -7.47195,3.46802 1.77635,0.3809 4.48445,0.55986 8.10075,0.44386 -0.50715,2.15993 -3.24419,3.41915 -4.28368,4.80943 0.87204,-0.006 3.06132,0.3218 5.02929,-0.93342 -0.10936,0.6735 0.76341,2.4061 0.38774,4.31823 1.0316,-0.33128 2.27982,-2.86207 4.71829,-2.98429 0.14679,0.98703 -1.25319,3.79516 0.58424,5.99375 0.496,-1.1937 0.99665,-2.55413 3.1611,-4.75362 2.34742,3.90192 3.59511,2.82319 3.59511,2.82319 z"
         style="display:inline;fill:#ffffff;fill-opacity:1;stroke:none" />
    </g>
    <g
       transform="matrix(0.53764486,0,0,0.53764486,400.19495,257.79283)"
       id="g6184-6-7"
       style="display:inline;fill:#ffffff;fill-opacity:1">
      <path
         inkscape:export-ydpi="20.341974"
         inkscape:export-xdpi="20.341974"
         inkscape:export-filename="/media/NAS/SiSol/pin_insects.png"
         style="display:inline;fill:#ffffff;fill-opacity:1;stroke:none"
         d="m 68.865634,486.12449 c -1.40032,-14.26108 15.81526,-3.48002 2.67093,1.77679 -0.20828,6.29099 -9.81966,16.36651 -13.64909,23.54008 -3.42288,6.412 -5.76928,5.04892 -2.40942,-1.44978 3.61616,-6.99445 7.58775,-21.67659 13.38758,-23.86709 z"
         id="path3090-3-2-9"
         inkscape:connector-curvature="0"
         sodipodi:nodetypes="ccssc" />
      <path
         inkscape:export-ydpi="20.341974"
         inkscape:export-xdpi="20.341974"
         inkscape:export-filename="/media/NAS/SiSol/pin_insects.png"
         sodipodi:nodetypes="sccsccsss"
         inkscape:connector-curvature="0"
         id="path3927-2-3-9-2"
         d="m 56.807644,459.01338 c 6.69774,4.11194 11.66118,19.64681 9.08793,28.72648 -1.32407,1.37105 -4.30364,4.27797 -5.14115,6.52104 -1.03594,3.17138 -15.06644,12.68824 -20.05556,22.1452 -1.85986,3.52542 -5.91273,-6.32555 -6.39529,-10.89098 -0.46186,-3.01293 -1.58145,-11.40234 8.35161,-13.20835 -1.79772,-1.43817 -10.26097,-5.58398 -8.45805,-10.12498 7.12543,-17.94674 5.45109,-28.82134 11.384,-29.44908 3.93054,-0.41588 7.98699,4.29182 11.22651,6.28067 z"
         style="display:inline;fill:#ffffff;fill-opacity:1;stroke:none" />
      <path
         inkscape:export-ydpi="20.341974"
         inkscape:export-xdpi="20.341974"
         inkscape:export-filename="/media/NAS/SiSol/pin_insects.png"
         style="display:inline;fill:#ffffff;fill-opacity:1;stroke:none"
         d="m 100.50923,485.18816 c -6.839986,-3.87071 -22.836316,-0.69498 -29.536116,5.95143 -0.55879,1.82226 -1.66047,5.83652 -3.21794,7.65509 -2.27375,2.44147 -3.81067,19.32529 -9.67131,28.26834 -2.18477,3.33386 8.39707,2.11238 12.62566,0.32494 2.86004,-1.05414 10.7432,-4.135 7.51587,-13.70116 2.1286,0.87703 9.85274,6.27628 12.95376,2.50071 12.255726,-14.9216 22.582096,-18.71986 20.259796,-24.21538 -1.53851,-3.64074 -7.6214,-4.91183 -10.92972,-6.78397 z"
         id="path3086-4-1-0"
         inkscape:connector-curvature="0"
         sodipodi:nodetypes="sccsccsss" />
    </g>
  </g>
</svg>
