<?xml version="1.0" encoding="UTF-8" standalone="no"?>
<!-- Created with Inkscape (http://www.inkscape.org/) -->

<svg
   xmlns:dc="http://purl.org/dc/elements/1.1/"
   xmlns:cc="http://creativecommons.org/ns#"
   xmlns:rdf="http://www.w3.org/1999/02/22-rdf-syntax-ns#"
   xmlns:svg="http://www.w3.org/2000/svg"
   xmlns="http://www.w3.org/2000/svg"
   xmlns:sodipodi="http://sodipodi.sourceforge.net/DTD/sodipodi-0.dtd"
   xmlns:inkscape="http://www.inkscape.org/namespaces/inkscape"
   width="100%"
   height="100%"
   viewBox="0 0 99.999997 99.999997"
   id="svg9399"
   version="1.1"
   inkscape:version="0.91 r13725"
   sodipodi:docname="Anura.svg">
  <defs
     id="defs9401" />
  <sodipodi:namedview
     id="base"
     pagecolor="#ffffff"
     bordercolor="#666666"
     borderopacity="1.0"
     inkscape:pageopacity="0.0"
     inkscape:pageshadow="2"
     inkscape:zoom="1.979899"
     inkscape:cx="-126.00399"
     inkscape:cy="33.326081"
     inkscape:document-units="px"
     inkscape:current-layer="layer1"
     showgrid="false"
     fit-margin-top="0"
     fit-margin-left="0"
     fit-margin-right="0"
     fit-margin-bottom="0"
     inkscape:window-width="1920"
     inkscape:window-height="1016"
     inkscape:window-x="0"
     inkscape:window-y="27"
     inkscape:window-maximized="1" />
  <metadata
     id="metadata9404">
    <rdf:RDF>
      <cc:Work
         rdf:about="">
        <dc:format>image/svg+xml</dc:format>
        <dc:type
           rdf:resource="http://purl.org/dc/dcmitype/StillImage" />
        <dc:title></dc:title>
      </cc:Work>
    </rdf:RDF>
  </metadata>
  <g
     inkscape:label="Layer 1"
     inkscape:groupmode="layer"
     id="layer1"
     transform="translate(-767.14288,-445.21936)">
    <circle
       style="opacity:1;fill:#d7d43a;fill-opacity:1;stroke:none;stroke-width:10;stroke-linecap:round;stroke-linejoin:miter;stroke-miterlimit:4;stroke-dasharray:none;stroke-dashoffset:0;stroke-opacity:1"
       id="path4136-0-3-6-2-7-0-9-3-6"
       cx="817.14288"
       cy="495.21936"
       r="50" />
    <path
       style="display:inline;fill:#ffffff;fill-opacity:1;stroke:none"
       d="m 808.07909,482.67295 c -3.82233,2.24032 -15.09349,6.23062 -18.90126,11.27859 -2.8651,3.79825 -3.40277,11.01382 -1.86658,12.9019 -0.92868,0.9199 -3.35933,2.21306 -3.36731,3.59146 -0.01,1.71232 0.69375,2.56156 1.03357,3.33751 0.8902,2.0327 2.52744,2.2473 7.9253,3.8407 3.38898,1.0004 7.31859,2.79501 10.87559,3.24166 0.35715,0.0449 7.35258,-2.25442 12.28637,-0.55907 2.982,1.02467 5.09542,4.59482 6.23852,5.58835 -0.85077,0.5348 0.64918,2.99181 2.58736,2.04007 1.93817,-0.95175 0.46725,-3.56124 -0.97773,-3.02207 -0.73066,-1.40434 -1.55299,-4.2244 -2.55221,-5.25923 1.39296,-1.39233 7.41881,-0.33028 10.30176,-0.0448 -0.65245,1.65548 2.63174,2.08333 3.58839,0.10006 0.95665,-1.98328 -2.09175,-4.24072 -2.96774,-2.49865 -2.35194,-1.66688 -8.21477,-1.82377 -9.49812,-2.35452 1.23082,-0.78437 4.88867,-0.41726 5.64902,-0.63393 0.35641,0.92088 3.24105,0.2729 1.93727,-1.55666 -1.30378,-1.82956 -3.21688,-0.24797 -2.95509,0.70553 -0.97097,-0.6048 -2.14903,-0.88563 -3.20975,-0.85532 -2.27286,0.0649 -5.49311,1.05548 -7.03375,2.07172 -0.93239,-0.28829 -1.83122,0.31366 -4.37102,0.40891 1.03653,-0.87922 0.85072,-1.57425 0.8011,-1.85919 -0.23838,-1.36886 -2.19414,-2.14328 -3.19932,-2.28621 0.0471,-0.0273 1.50725,-1.33093 1.14756,-1.09483 -0.10857,0.0713 -3.11167,0.29833 -3.48563,-0.0567 -0.37883,-0.35968 -1.60672,-6.9464 -5.50482,-7.72124 -4.37449,-0.86953 -6.8461,-2.43726 -12.81618,-1.52033 -0.46002,-2.63808 11.48317,-0.35929 13.79358,0.1823 2.92576,0.68578 5.54143,7.71541 5.4491,8.46258 -1.14993,3.50076 4.0943,0.78427 5.92194,-0.0221 2.06657,-0.98731 4.66404,-5.00161 5.67334,-6.46137 0.0732,1.08485 -0.25818,3.90361 0.33684,5.23894 1.7329,0.94167 6.43485,2.33903 11.23461,4.23539 2.16124,-1.82996 5.44591,0.40428 7.26282,1.72488 -0.78673,0.44054 0.55461,2.90783 2.04296,1.38662 1.48834,-1.52122 -0.66039,-2.51845 -1.36639,-2.12499 -0.92189,-0.86457 -0.65516,-2.5405 -2.3191,-3.31783 2.07457,-1.10428 2.96471,-1.19484 2.93145,-1.60719 0.7254,0.72609 2.59416,0.11452 1.81041,-1.49219 -0.78374,-1.60672 -2.65206,-0.4384 -2.33451,0.8166 -0.83046,-0.0696 -2.45291,0.89645 -3.42137,0.0199 -1.03734,-0.93887 -1.53801,-3.67781 -2.16228,-3.79798 1.53045,-4.15891 -4.17548,-1.25996 -0.63891,0.22819 -0.51719,0.75606 0.045,3.31013 -0.14771,4.0081 -1.4948,-1.43223 -5.79994,-3.60577 -8.63344,-4.30399 0.83577,-2.70977 5.10474,-8.40609 2.27882,-11.58742 1.35361,-1.6434 1.52468,-3.77974 2.11584,-6.83811 2.06328,-1.47265 4.20316,-3.65278 5.83583,-5.72762 0.04,-0.0508 0.86895,-1.11289 1.00762,-1.45807 0.33101,-0.82388 -5.0163,-3.22292 -5.05081,-2.17735 -0.0559,1.69294 -7.00262,4.41891 -7.57161,4.86725 -0.73568,0.57969 -1.35515,-6.55956 1.02079,-7.43172 1.10806,-0.40674 3.40259,-0.61484 4.28467,1.3759 0.15232,0.34378 1.69699,3.65266 0.99259,4.31678 -1.02253,0.96403 6.06572,-0.48643 6.09825,-0.53182 1.48739,-2.07583 2.33244,-3.89441 1.89785,-4.56851 -2.89812,-4.49533 -5.63596,-5.46722 -10.0547,-5.45015 -0.0374,-0.19951 -2.37145,-4.82687 -4.56686,-4.40628 -4.80949,0.92141 -3.36865,6.85113 -4.25997,7.33121 -7.23814,3.89852 -8.96614,9.91065 -11.12695,11.32624 z"
       id="path3862-8-9-8"
       inkscape:connector-curvature="0"
       sodipodi:nodetypes="cscsssssczccczccczcsccscssscscccccczccczcsccccccssssssssscsscc"
       inkscape:export-filename="/media/NAS/SiSol/pin_amphibiae.png"
       inkscape:export-xdpi="20.353357"
       inkscape:export-ydpi="20.353357" />
  </g>
</svg>
