<?xml version="1.0" encoding="UTF-8" standalone="no"?>
<!-- Created with Inkscape (http://www.inkscape.org/) -->

<svg
   xmlns:dc="http://purl.org/dc/elements/1.1/"
   xmlns:cc="http://creativecommons.org/ns#"
   xmlns:rdf="http://www.w3.org/1999/02/22-rdf-syntax-ns#"
   xmlns:svg="http://www.w3.org/2000/svg"
   xmlns="http://www.w3.org/2000/svg"
   xmlns:sodipodi="http://sodipodi.sourceforge.net/DTD/sodipodi-0.dtd"
   xmlns:inkscape="http://www.inkscape.org/namespaces/inkscape"
   width="100%"
   height="100%"
   viewBox="0 0 99.999997 99.999997"
   id="svg12102"
   version="1.1"
   inkscape:version="0.91 r13725"
   sodipodi:docname="Arachnida.svg">
  <defs
     id="defs12104" />
  <sodipodi:namedview
     id="base"
     pagecolor="#ffffff"
     bordercolor="#666666"
     borderopacity="1.0"
     inkscape:pageopacity="0.0"
     inkscape:pageshadow="2"
     inkscape:zoom="1.979899"
     inkscape:cx="-49.872493"
     inkscape:cy="29.849564"
     inkscape:document-units="px"
     inkscape:current-layer="layer1"
     showgrid="false"
     fit-margin-top="0"
     fit-margin-left="0"
     fit-margin-right="0"
     fit-margin-bottom="0"
     inkscape:window-width="1920"
     inkscape:window-height="1016"
     inkscape:window-x="0"
     inkscape:window-y="27"
     inkscape:window-maximized="1" />
  <metadata
     id="metadata12107">
    <rdf:RDF>
      <cc:Work
         rdf:about="">
        <dc:format>image/svg+xml</dc:format>
        <dc:type
           rdf:resource="http://purl.org/dc/dcmitype/StillImage" />
        <dc:title></dc:title>
      </cc:Work>
    </rdf:RDF>
  </metadata>
  <g
     inkscape:label="Layer 1"
     inkscape:groupmode="layer"
     id="layer1"
     transform="translate(-350,-333.79077)">
    <circle
       style="opacity:1;fill:#000000;fill-opacity:1;stroke:none;stroke-width:10;stroke-linecap:round;stroke-linejoin:miter;stroke-miterlimit:4;stroke-dasharray:none;stroke-dashoffset:0;stroke-opacity:1"
       id="path4136-0-3-6-2-7-0-9"
       cx="400"
       cy="383.79077"
       r="50" />
    <g
       id="g6051"
       transform="matrix(0.35243981,0.20237755,-0.20237755,0.35243981,603.82424,-289.36386)"
       style="display:inline;fill:#ffffff;fill-opacity:1">
      <path
         inkscape:export-ydpi="32.556522"
         inkscape:export-xdpi="32.556522"
         inkscape:export-filename="/home/tom/anymals_workspace/inkscape/TAXONFILTER/arthropods.png"
         sodipodi:nodetypes="cczcccccc"
         inkscape:connector-curvature="0"
         id="path4805-9"
         d="m 379.38783,1675.5869 c 5.45163,1.5562 13.07806,0.4522 18.63859,-1.474 8.97773,-14.5158 18.43924,-42.9995 -12.03145,-43.1688 -30.47069,-0.1693 -16.99855,33.4121 -6.60714,44.6428 z m 9.26924,-6.4225 c -0.3764,-0.056 -1.19447,0.077 -1.51421,0.01 -2.26195,-25.8346 -0.30812,-21.7256 -0.55733,-35.6089 0.95387,13.5637 3.13562,10.5846 2.07154,35.6009 z"
         style="display:inline;fill:#ffffff;fill-opacity:1;stroke:none" />
      <path
         inkscape:export-ydpi="32.556522"
         inkscape:export-xdpi="32.556522"
         inkscape:export-filename="/home/tom/anymals_workspace/inkscape/TAXONFILTER/arthropods.png"
         sodipodi:nodetypes="cccc"
         inkscape:connector-curvature="0"
         id="path4815-0"
         d="m 424.93525,1623.382 c 0.63543,1.0945 2.57695,2.4446 3.62733,2.6655 3.22752,-4.8651 10.9615,-19.6188 9.27475,-20.9214 -5.99852,6.4619 -8.25796,11.3129 -12.90208,18.2559 z"
         style="display:inline;fill:#ffffff;fill-opacity:1;stroke:none" />
      <path
         inkscape:export-ydpi="32.556522"
         inkscape:export-xdpi="32.556522"
         inkscape:export-filename="/home/tom/anymals_workspace/inkscape/TAXONFILTER/arthropods.png"
         sodipodi:nodetypes="ccccc"
         inkscape:connector-curvature="0"
         id="path4817-2"
         d="m 423.5462,1647.285 c -0.94684,-1.3329 -5.11441,-3.6569 -6.65305,-3.6149 2.26215,-2.9022 5.41981,-13.6035 5.84357,-17.0103 0.41141,-1.895 2.1444,1.7018 4.31811,2.0443 -0.20463,3.3736 -1.06369,15.1194 -3.50863,18.5809 z"
         style="display:inline;fill:#ffffff;fill-opacity:1;stroke:none" />
      <path
         inkscape:export-ydpi="32.556522"
         inkscape:export-xdpi="32.556522"
         inkscape:export-filename="/home/tom/anymals_workspace/inkscape/TAXONFILTER/arthropods.png"
         inkscape:transform-center-x="-2.424253"
         inkscape:transform-center-y="-1.7667565"
         sodipodi:nodetypes="ccccc"
         inkscape:connector-curvature="0"
         id="path4819-8-2"
         d="m 398.73108,1675.1266 c 6.73598,-6.048 17.7758,-22.9755 23.35338,-25.478 -0.63657,-1.4269 -4.52608,-3.5771 -5.81856,-3.7804 -3.44168,2.4982 -8.61528,14.8992 -13.48498,20.6543 0,0 -3.05487,6.9475 -4.04984,8.6041 z"
         style="display:inline;fill:#ffffff;fill-opacity:1;stroke:none" />
      <path
         sodipodi:nodetypes="csccccsccccc"
         inkscape:connector-curvature="0"
         id="path4805-9-4"
         d="m 377.3125,1675.4062 c -10.02492,2.7846 -12.19496,41.2636 -2.19496,41.2636 l 2.25,0 c 0.34143,-3.3036 7.36271,-4.0179 8.40625,0 1.094,-2.3214 3.60582,-2.7946 4.6875,0.062 0.32909,-3.75 7.498,-3.0092 7.875,-0.062 l 1.78125,0 c 10,0 7.88636,-38.3076 -1.71129,-41.1073 -5,5 -16.09375,4.8437 -21.09375,-0.1563 z m 23.23214,34.4688 c -4.91623,-2.4618 -21.49658,-5.3042 -26.78571,-0.9062 2.31577,-4.385 23.74918,-4.3637 26.78571,0.9062 z"
         style="display:inline;fill:#ffffff;fill-opacity:1;stroke:none" />
      <path
         inkscape:export-ydpi="32.556522"
         inkscape:export-xdpi="32.556522"
         inkscape:export-filename="/home/tom/anymals_workspace/inkscape/TAXONFILTER/arthropods.png"
         sodipodi:nodetypes="cccc"
         inkscape:connector-curvature="0"
         id="path4815-0-2"
         d="m 351.56291,1624.8814 c -0.96229,0.822 -3.24155,1.4523 -4.30577,1.3125 -1.43254,-5.6598 -3.95241,-22.668 -1.92926,-23.3379 3.51764,8.0849 4.15468,13.9356 6.23503,22.0254 z"
         style="display:inline;fill:#ffffff;fill-opacity:1;stroke:none" />
      <path
         inkscape:export-ydpi="32.556522"
         inkscape:export-xdpi="32.556522"
         inkscape:export-filename="/home/tom/anymals_workspace/inkscape/TAXONFILTER/arthropods.png"
         sodipodi:nodetypes="ccccc"
         inkscape:connector-curvature="0"
         id="path4817-2-2"
         d="m 351.44454,1647.8171 c 0.94684,-1.3329 5.11441,-3.6569 6.65305,-3.6149 -2.26215,-2.9022 -5.18473,-13.486 -5.60849,-16.8928 -1.54783,1.4511 -2.1444,1.7018 -4.31811,2.0443 0.20463,3.3736 0.82861,15.0019 3.27355,18.4634 z"
         style="display:inline;fill:#ffffff;fill-opacity:1;stroke:none" />
      <path
         inkscape:export-ydpi="32.556522"
         inkscape:export-xdpi="32.556522"
         inkscape:export-filename="/home/tom/anymals_workspace/inkscape/TAXONFILTER/arthropods.png"
         inkscape:transform-center-x="2.4242508"
         inkscape:transform-center-y="-1.7667565"
         sodipodi:nodetypes="ccccc"
         inkscape:connector-curvature="0"
         id="path4819-8-2-5"
         d="m 376.49474,1675.7762 c -6.73598,-6.048 -17.7758,-22.9755 -23.35338,-25.478 0.63657,-1.4269 4.52608,-3.5771 5.81856,-3.7804 3.44168,2.4982 8.61528,14.8992 13.48498,20.6543 0,0 3.05487,6.9475 4.04984,8.6041 z"
         style="display:inline;fill:#ffffff;fill-opacity:1;stroke:none" />
      <path
         inkscape:export-ydpi="32.556522"
         inkscape:export-xdpi="32.556522"
         inkscape:export-filename="/home/tom/anymals_workspace/inkscape/TAXONFILTER/arthropods.png"
         sodipodi:nodetypes="cccc"
         inkscape:connector-curvature="0"
         id="path4815-0-1"
         d="m 457.57599,1658.4506 c -0.25687,1.2393 0.28865,3.5403 0.92372,4.4056 5.65003,-1.4708 21.66057,-7.3602 21.27313,-9.4558 -8.7795,0.8115 -14.10528,2.9767 -22.19685,5.0502 z"
         style="display:inline;fill:#ffffff;fill-opacity:1;stroke:none" />
      <path
         inkscape:export-ydpi="32.556522"
         inkscape:export-xdpi="32.556522"
         inkscape:export-filename="/home/tom/anymals_workspace/inkscape/TAXONFILTER/arthropods.png"
         sodipodi:nodetypes="ccccc"
         inkscape:connector-curvature="0"
         id="path4817-2-7"
         d="m 439.62154,1675.9292 c 0.18395,-1.6246 -1.37003,-6.1363 -2.54421,-7.1315 3.62135,-0.6527 14.49185,-7.1761 17.08041,-9.4312 1.57073,-1.1371 0.46201,2.6984 1.85273,4.4037 -2.40317,2.3766 -12.25828,11.2116 -16.38893,12.159 z"
         style="display:inline;fill:#ffffff;fill-opacity:1;stroke:none" />
      <path
         inkscape:export-ydpi="32.556522"
         inkscape:export-xdpi="32.556522"
         inkscape:export-filename="/home/tom/anymals_workspace/inkscape/TAXONFILTER/arthropods.png"
         inkscape:transform-center-x="-1.770367"
         inkscape:transform-center-y="-1.6513193"
         sodipodi:nodetypes="ccccc"
         inkscape:connector-curvature="0"
         id="path4819-8-2-6"
         d="m 406.22602,1683.0161 c 9.05272,-0.011 23.22817,-8.1119 29.05255,-6.2549 0.47778,-1.4876 -0.98503,-5.6843 -1.81217,-6.698 -4.23046,-0.4352 -22.12785,6.187 -29.59494,7.2252 0,0 3.06453,4.2736 2.35456,5.7277 z"
         style="display:inline;fill:#ffffff;fill-opacity:1;stroke:none" />
      <path
         inkscape:export-ydpi="32.556522"
         inkscape:export-xdpi="32.556522"
         inkscape:export-filename="/home/tom/anymals_workspace/inkscape/TAXONFILTER/arthropods.png"
         sodipodi:nodetypes="cccc"
         inkscape:connector-curvature="0"
         id="path4815-0-1-2"
         d="m 316.4645,1660.6425 c 0.25687,1.2393 -0.28865,3.5403 -0.92372,4.4056 -5.65003,-1.4708 -21.42549,-7.3602 -21.03805,-9.4558 8.7795,0.8115 13.8702,2.9767 21.96177,5.0502 z"
         style="display:inline;fill:#ffffff;fill-opacity:1;stroke:none" />
      <path
         inkscape:export-ydpi="32.556522"
         inkscape:export-xdpi="32.556522"
         inkscape:export-filename="/home/tom/anymals_workspace/inkscape/TAXONFILTER/arthropods.png"
         sodipodi:nodetypes="ccccc"
         inkscape:connector-curvature="0"
         id="path4817-2-7-7"
         d="m 333.24356,1677.1808 c -0.18395,-1.6246 1.37003,-6.1363 2.54421,-7.1315 -3.62135,-0.6527 -13.08138,-6.2358 -15.66994,-8.4909 -1.57073,-1.1371 -0.46201,2.6984 -1.85273,4.4037 2.40317,2.3766 10.84781,10.2713 14.97846,11.2187 z"
         style="display:inline;fill:#ffffff;fill-opacity:1;stroke:none" />
      <path
         inkscape:export-ydpi="32.556522"
         inkscape:export-xdpi="32.556522"
         inkscape:export-filename="/home/tom/anymals_workspace/inkscape/TAXONFILTER/arthropods.png"
         inkscape:transform-center-x="1.7703642"
         inkscape:transform-center-y="-1.6513193"
         sodipodi:nodetypes="ccccc"
         inkscape:connector-curvature="0"
         id="path4819-8-2-6-4"
         d="m 367.46185,1685.0904 c -9.05272,-0.011 -25.69649,-8.6995 -31.52087,-6.8425 -0.47778,-1.4876 0.98503,-5.6843 1.81217,-6.698 4.23046,-0.4352 24.59617,6.7746 32.06326,7.8128 0,0 -3.06453,4.2736 -2.35456,5.7277 z"
         style="display:inline;fill:#ffffff;fill-opacity:1;stroke:none" />
      <path
         inkscape:export-ydpi="32.556522"
         inkscape:export-xdpi="32.556522"
         inkscape:export-filename="/home/tom/anymals_workspace/inkscape/TAXONFILTER/arthropods.png"
         sodipodi:nodetypes="cccc"
         inkscape:connector-curvature="0"
         id="path4815-0-1-5"
         d="m 444.76015,1726.0761 c -1.2514,0.1892 -3.22007,1.4995 -3.81115,2.3953 3.34028,4.7884 14.37453,17.7294 16.20542,16.6386 -3.80811,-7.9521 -7.64136,-12.1649 -12.39427,-19.0339 z"
         style="display:inline;fill:#ffffff;fill-opacity:1;stroke:none" />
      <path
         inkscape:export-ydpi="32.556522"
         inkscape:export-xdpi="32.556522"
         inkscape:export-filename="/home/tom/anymals_workspace/inkscape/TAXONFILTER/arthropods.png"
         sodipodi:nodetypes="ccccc"
         inkscape:connector-curvature="0"
         id="path4817-2-7-0"
         d="m 424.75895,1714.4303 c 1.62515,-0.179 5.59358,-6.5294 6.30523,-7.8943 1.43555,3.3882 8.69215,14.7126 11.46275,16.7399 1.45561,1.2811 -2.52998,1.0459 -3.88645,2.7786 -2.84819,-1.8197 -12.04615,-7.8044 -13.88153,-11.6242 z"
         style="display:inline;fill:#ffffff;fill-opacity:1;stroke:none" />
      <path
         inkscape:export-ydpi="32.556522"
         inkscape:export-xdpi="32.556522"
         inkscape:export-filename="/home/tom/anymals_workspace/inkscape/TAXONFILTER/arthropods.png"
         inkscape:transform-center-x="-2.514948"
         inkscape:transform-center-y="0.67073047"
         sodipodi:nodetypes="ccccc"
         inkscape:connector-curvature="0"
         id="path4819-8-2-6-6"
         d="m 407.96992,1697.5721 c 5.49075,7.1974 12.81357,9.1455 14.86281,14.905 1.47315,-0.5206 5.62348,-6.9046 5.92929,-8.1767 -2.21548,-3.6301 -15.88329,-8.8998 -21.23129,-14.2134 0,0 2.02629,7.1695 0.43919,7.4851 z"
         style="display:inline;fill:#ffffff;fill-opacity:1;stroke:none" />
      <path
         inkscape:export-ydpi="32.556522"
         inkscape:export-xdpi="32.556522"
         inkscape:export-filename="/home/tom/anymals_workspace/inkscape/TAXONFILTER/arthropods.png"
         sodipodi:nodetypes="cccc"
         inkscape:connector-curvature="0"
         id="path4815-0-1-5-9"
         d="m 329.90021,1725.9433 c 1.2514,0.1892 1.33944,2.91 3.81115,2.3953 -3.34028,4.7884 -14.02191,17.2593 -15.8528,16.1685 3.80811,-7.9521 7.28874,-11.6948 12.04165,-18.5638 z"
         style="display:inline;fill:#ffffff;fill-opacity:1;stroke:none" />
      <path
         inkscape:export-ydpi="32.556522"
         inkscape:export-xdpi="32.556522"
         inkscape:export-filename="/home/tom/anymals_workspace/inkscape/TAXONFILTER/arthropods.png"
         sodipodi:nodetypes="ccccc"
         inkscape:connector-curvature="0"
         id="path4817-2-7-0-7"
         d="m 351.31188,1712.4169 c -1.62515,-0.179 -5.59358,-6.5294 -6.30523,-7.8943 -1.43555,3.3882 -9.75,16.1231 -12.5206,18.1504 -1.45561,1.2811 2.52998,1.0459 3.88645,2.7786 2.84819,-1.8197 13.104,-9.2149 14.93938,-13.0347 z"
         style="display:inline;fill:#ffffff;fill-opacity:1;stroke:none" />
      <path
         inkscape:export-ydpi="32.556522"
         inkscape:export-xdpi="32.556522"
         inkscape:export-filename="/home/tom/anymals_workspace/inkscape/TAXONFILTER/arthropods.png"
         inkscape:transform-center-x="2.514948"
         inkscape:transform-center-y="0.67073047"
         sodipodi:nodetypes="ccccc"
         inkscape:connector-curvature="0"
         id="path4819-8-2-6-6-4"
         d="m 366.92552,1697.2042 c -5.49075,7.1974 -11.28556,7.5 -13.3348,13.2595 -1.47315,-0.5206 -5.62348,-6.9046 -5.92929,-8.1767 2.21548,-3.6301 14.35528,-7.2543 19.70328,-12.5679 0,0 -2.02629,7.1695 -0.43919,7.4851 z"
         style="display:inline;fill:#ffffff;fill-opacity:1;stroke:none" />
      <path
         inkscape:export-ydpi="32.556522"
         inkscape:export-xdpi="32.556522"
         inkscape:export-filename="/home/tom/anymals_workspace/inkscape/TAXONFILTER/arthropods.png"
         sodipodi:nodetypes="cccc"
         inkscape:connector-curvature="0"
         id="path4815-0-1-5-2"
         d="m 415.95385,1756.0489 c -0.88134,-0.9084 -3.09192,-1.7486 -4.16445,-1.7088 -1.95457,5.5014 -6.25063,22.3903 -4.29875,23.2459 4.25691,-7.7211 5.6368,-13.6769 8.4632,-21.5371 z"
         style="display:inline;fill:#ffffff;fill-opacity:1;stroke:none" />
      <path
         inkscape:export-ydpi="32.556522"
         inkscape:export-xdpi="32.556522"
         inkscape:export-filename="/home/tom/anymals_workspace/inkscape/TAXONFILTER/arthropods.png"
         sodipodi:nodetypes="ccccc"
         inkscape:connector-curvature="0"
         id="path4817-2-7-0-8"
         d="m 412.59369,1733.1601 c 1.18439,1.1271 8.59748,0.068 10.09969,-0.2679 -1.66466,3.2817 -5.92459,16.5539 -5.68868,19.9789 -0.0412,1.9386 -2.43043,-1.2601 -4.62947,-1.1804 -0.44465,-3.3504 -1.51888,-14.6653 0.21846,-18.5306 z"
         style="display:inline;fill:#ffffff;fill-opacity:1;stroke:none" />
      <path
         inkscape:export-ydpi="32.556522"
         inkscape:export-xdpi="32.556522"
         inkscape:export-filename="/home/tom/anymals_workspace/inkscape/TAXONFILTER/arthropods.png"
         inkscape:transform-center-x="-2.392053"
         inkscape:transform-center-y="0.44334577"
         sodipodi:nodetypes="cccccc"
         inkscape:connector-curvature="0"
         id="path4819-8-2-6-6-2"
         d="m 406.01294,1714.0621 c 2.2539,8.7676 6.70162,10.0532 6.34581,16.156 1.55959,0.094 9.2576,1.1342 10.03472,0.082 -0.37413,-5.469 -11.01359,-16.3258 -13.86972,-23.3028 0,0 -0.92612,7.3926 -2.51081,7.0651 z"
         style="display:inline;fill:#ffffff;fill-opacity:1;stroke:none" />
      <path
         inkscape:export-ydpi="32.556522"
         inkscape:export-xdpi="32.556522"
         inkscape:export-filename="/home/tom/anymals_workspace/inkscape/TAXONFILTER/arthropods.png"
         sodipodi:nodetypes="cccc"
         inkscape:connector-curvature="0"
         id="path4815-0-1-5-2-7"
         d="m 360.10967,1746.1449 c 0.61134,-1.1083 2.52304,-2.5004 3.56827,-2.7441 3.33292,4.7935 10.27145,16.1574 8.61338,17.4963 -6.13808,-6.3294 -7.38711,-7.9124 -12.18165,-14.7522 z"
         style="display:inline;fill:#ffffff;fill-opacity:1;stroke:none" />
      <path
         inkscape:export-ydpi="32.556522"
         inkscape:export-xdpi="32.556522"
         inkscape:export-filename="/home/tom/anymals_workspace/inkscape/TAXONFILTER/arthropods.png"
         sodipodi:nodetypes="ccccc"
         inkscape:connector-curvature="0"
         id="path4817-2-7-0-8-1"
         d="m 359.63038,1726.1283 c -1.28544,1.0103 -7.42912,1.9082 -8.89294,1.4321 1.34762,3.4241 7.99324,12.8599 7.43525,16.2474 -0.14188,1.9338 2.66474,-2.9192 4.84645,-2.6324 0.75876,-3.2935 -2.02383,-11.0351 -3.38876,-15.0471 z"
         style="display:inline;fill:#ffffff;fill-opacity:1;stroke:none" />
      <path
         inkscape:export-ydpi="32.556522"
         inkscape:export-xdpi="32.556522"
         inkscape:export-filename="/home/tom/anymals_workspace/inkscape/TAXONFILTER/arthropods.png"
         inkscape:transform-center-x="2.734432"
         inkscape:transform-center-y="0.29802426"
         sodipodi:nodetypes="cccccc"
         inkscape:connector-curvature="0"
         id="path4819-8-2-6-6-2-2"
         d="m 367.94157,1710.3522 c -3.07102,8.5159 -8.21451,6.748 -8.43605,12.8571 -1.5615,-0.053 -9.07077,2.9075 -9.74515,1.7866 0.88843,-5.4093 12.84648,-15.2374 16.34811,-21.9138 0,0 0.22454,7.447 1.83306,7.2704 z"
         style="display:inline;fill:#ffffff;fill-opacity:1;stroke:none" />
      <circle
         r="5.5558391"
         cy="1726.639"
         cx="374.89285"
         transform="matrix(0.66251722,0,0,0.4375287,133.03773,961.98847)"
         id="path5163"
         style="fill:#ffffff;fill-opacity:1;stroke:none" />
      <circle
         r="5.5558391"
         cy="1726.639"
         cx="374.89285"
         transform="matrix(0.66251722,0,0,0.4375287,145.82346,962.35448)"
         id="path5163-7"
         style="display:inline;fill:#ffffff;fill-opacity:1;stroke:none" />
      <circle
         r="5.5558391"
         cy="1726.639"
         cx="374.89285"
         transform="matrix(0.30667767,0,0,0.27682261,273.06444,1239.5681)"
         id="path5163-9"
         style="display:inline;fill:#ffffff;fill-opacity:1;stroke:none" />
      <circle
         r="5.5558391"
         cy="1726.639"
         cx="374.89285"
         transform="matrix(0.30667767,0,0,0.27682261,270.65373,1242.5144)"
         id="path5163-9-1"
         style="display:inline;fill:#ffffff;fill-opacity:1;stroke:none" />
      <circle
         r="5.5558391"
         cy="1726.639"
         cx="374.89285"
         transform="matrix(0.30667767,0,0,0.27682261,274.85016,1242.693)"
         id="path5163-9-9"
         style="display:inline;fill:#ffffff;fill-opacity:1;stroke:none" />
      <circle
         r="5.5558391"
         cy="1726.639"
         cx="374.89285"
         transform="matrix(0.49952497,0,0,0.27682261,187.64237,1241.5323)"
         id="path5163-9-0"
         style="display:inline;fill:#ffffff;fill-opacity:1;stroke:none" />
      <circle
         r="5.5558391"
         cy="1726.639"
         cx="374.89285"
         transform="matrix(0.49952497,0,0,0.27682261,213.44595,1241.2645)"
         id="path5163-9-0-6"
         style="display:inline;fill:#ffffff;fill-opacity:1;stroke:none" />
    </g>
  </g>
</svg>
