<?xml version="1.0" encoding="UTF-8" standalone="no"?>
<!-- Created with Inkscape (http://www.inkscape.org/) -->

<svg
   xmlns:dc="http://purl.org/dc/elements/1.1/"
   xmlns:cc="http://creativecommons.org/ns#"
   xmlns:rdf="http://www.w3.org/1999/02/22-rdf-syntax-ns#"
   xmlns:svg="http://www.w3.org/2000/svg"
   xmlns="http://www.w3.org/2000/svg"
   xmlns:sodipodi="http://sodipodi.sourceforge.net/DTD/sodipodi-0.dtd"
   xmlns:inkscape="http://www.inkscape.org/namespaces/inkscape"
   width="100%"
   height="100%"
   viewBox="0 0 99.999997 99.999997"
   id="svg4845"
   version="1.1"
   inkscape:version="0.91 r13725"
   sodipodi:docname="Chordata.svg">
  <defs
     id="defs4847" />
  <sodipodi:namedview
     id="base"
     pagecolor="#ffffff"
     bordercolor="#666666"
     borderopacity="1.0"
     inkscape:pageopacity="0.0"
     inkscape:pageshadow="2"
     inkscape:zoom="2.8"
     inkscape:cx="25.749174"
     inkscape:cy="10.441095"
     inkscape:document-units="px"
     inkscape:current-layer="layer1"
     showgrid="false"
     fit-margin-top="0"
     fit-margin-left="0"
     fit-margin-right="0"
     fit-margin-bottom="0"
     inkscape:window-width="1920"
     inkscape:window-height="1016"
     inkscape:window-x="0"
     inkscape:window-y="27"
     inkscape:window-maximized="1" />
  <metadata
     id="metadata4850">
    <rdf:RDF>
      <cc:Work
         rdf:about="">
        <dc:format>image/svg+xml</dc:format>
        <dc:type
           rdf:resource="http://purl.org/dc/dcmitype/StillImage" />
        <dc:title></dc:title>
      </cc:Work>
    </rdf:RDF>
  </metadata>
  <g
     inkscape:label="Layer 1"
     inkscape:groupmode="layer"
     id="layer1"
     transform="translate(-161.42857,-159.50507)">
    <circle
       style="opacity:1;fill:#c05252;fill-opacity:1;stroke:none;stroke-width:10;stroke-linecap:round;stroke-linejoin:miter;stroke-miterlimit:4;stroke-dasharray:none;stroke-dashoffset:0;stroke-opacity:1"
       id="path4136-0-3-6-2"
       cx="211.42857"
       cy="209.50507"
       r="50" />
    <path
       style="display:inline;fill:#ffffff;fill-opacity:1;stroke:none"
       d="m 220.48691,177.46051 1.98992,7.22532 c 0,0 -2.81415,-0.54133 -4.50102,-2.53478 -4.54282,-5.36843 -22.96408,0.88353 -28.59332,4.71422 -5.62924,3.83071 -8.70167,11.12859 -10.06807,17.81457 -0.69244,3.38823 0.38529,7.46269 0.40273,10.92089 0.04,7.93618 2.04474,18.89867 3.71926,22.67093 1.67451,3.77222 5.9342,8.01019 11.22886,9.00204 5.29468,0.99182 10.65092,0.16684 13.24247,-4.24044 2.59155,-4.40727 0.55533,-9.66465 -1.51613,-11.53682 -2.07145,-1.87216 -6.08625,-2.4977 -8.69407,-1.35031 -2.60783,1.14737 -4.44178,4.29512 -4.21675,6.84629 0.22502,2.55117 1.76128,5.20977 4.92743,5.78026 3.16615,0.57048 4.88943,-1.32139 5.44861,-2.86644 0.5592,-1.54504 -0.44511,-5.12139 -3.43499,-5.14064 -2.22165,-0.0143 -3.57092,2.58786 -2.60586,3.15071 0.99102,0.57798 0.8931,-1.08151 2.39265,-1.18448 1.4996,-0.10296 2.02267,1.33071 1.42138,2.67693 -0.60129,1.34619 -2.67559,1.15267 -3.60082,0.37903 -0.92523,-0.77361 -1.65074,-2.1726 -1.39769,-4.12199 0.25307,-1.94937 4.10844,-3.92031 6.3725,-2.34526 2.26407,1.57505 3.84231,5.23016 0.90021,8.59931 -2.94213,3.36916 -8.70182,0.85609 -11.44207,-1.11341 -2.74027,-1.96948 -3.79569,-4.45396 -4.19306,-9.78379 -0.39741,-5.32982 -0.23768,-8.73801 2.72431,-11.25255 1.44185,-1.22405 1.74126,-1.85761 2.60585,-2.46372 2.03911,-4.26708 4.17021,-9.04773 9.21524,-3.4113 -1.44172,3.9282 -1.95516,6.85513 -3.03902,9.58413 -3.85163,0.80414 -2.6993,4.09505 -1.93459,4.48079 1.03846,-2.92766 6.05061,-3.29437 6.38946,0.37402 1.88371,-0.37311 1.97004,-2.87917 -0.41749,-3.51127 1.79149,-3.26923 2.23365,-6.99369 3.53989,-9.11711 1.30624,-2.12342 3.74506,-4.4468 2.68708,-5.19817 2.04295,-1.04584 6.60228,-6.00569 7.98338,-6.68046 1.24462,0.0733 7.92144,6.41363 11.42704,10.1965 -0.25282,1.2912 -0.43368,3.72369 0.77983,5.77004 0.0391,-3.49537 2.26364,-8.13776 7.4568,-6.69586 -1.19616,-1.73563 -3.94426,-2.48816 -5.59458,-2.13495 -0.68891,-1.52289 -8.8181,-9.67197 -8.09931,-9.95479 2.53692,-0.99819 4.24043,-1.01865 4.24043,-1.01865 0,0 1.01378,1.62038 2.17944,1.84779 1.1657,0.2274 3.60082,-0.90021 3.60082,-0.90021 l 9.78379,0.40273 4.66685,-3.62451 c 0,0 -2.17004,-7.99793 -4.9985,-10.75507 -1.26823,-1.23625 -5.09326,-2.4874 -5.09326,-2.4874 0,0 -2.95376,-3.56627 -4.95112,-4.61947 -3.741,-1.97262 -12.93451,-2.39265 -12.93451,-2.39265 z m 18.45418,10.13914 c 2.17498,0 3.93247,1.75749 3.93247,3.93247 0,2.17498 -1.75749,3.93247 -3.93247,3.93247 -2.17498,0 -3.95616,-1.75749 -3.95616,-3.93247 0,-2.17498 1.78118,-3.93247 3.95616,-3.93247 z m -15.6825,7.17794 c 1.02654,-0.01 1.97207,0.0289 2.79537,0 -5.12577,1.29773 -8.50745,1.37263 -10.49448,4.35888 -0.0783,1.67672 1.04338,2.17957 1.91885,3.90879 -1.123,-1.35374 -4.22132,-4.03305 -3.90878,-4.92744 2.87603,-2.96605 6.60941,-3.31095 9.68904,-3.34023 z m -24.44247,4.73347 c 4.06015,0.50987 6.04921,1.72088 10.70928,9.63596 -13.45204,-17.26925 -23.25119,-1.36124 -17.4186,7.18809 -8.31035,-9.68896 1.102,-17.52821 6.70932,-16.82405 z"
       id="path5609"
       inkscape:connector-curvature="0"
       sodipodi:nodetypes="ccsssssssssssccssscssssssccccccsccccccscscccscscssssssccccssccs"
       inkscape:export-filename="/home/tom/anymals_workspace/inkscape/TAXONFILTER/chordates.png"
       inkscape:export-xdpi="32.556522"
       inkscape:export-ydpi="32.556522" />
    <g
       id="g4862"
       style="fill:#b3b3b3"
       transform="translate(469.28572,-166.47192)">
      <path
         inkscape:export-ydpi="32.556522"
         inkscape:export-xdpi="32.556522"
         inkscape:export-filename="/home/tom/anymals_workspace/inkscape/TAXONFILTER/chordates.png"
         sodipodi:nodetypes="ccccc"
         inkscape:connector-curvature="0"
         id="path4213"
         d="m -253.77025,347.64535 c 0.22118,2.47058 -0.55312,3.93371 -1.01526,5.55014 2.34639,-0.0255 4.69278,0.44095 7.03918,0.94757 0.83142,-0.6178 1.51195,-1.28589 0.74454,-2.43664 -3.16037,-0.0659 -5.02886,-2.57438 -6.76846,-4.06107 z"
         style="display:inline;fill:#b3b3b3;fill-opacity:1;stroke:none" />
      <path
         inkscape:export-ydpi="32.556522"
         inkscape:export-xdpi="32.556522"
         inkscape:export-filename="/home/tom/anymals_workspace/inkscape/TAXONFILTER/chordates.png"
         sodipodi:nodetypes="ccccc"
         inkscape:connector-curvature="0"
         id="path4154"
         d="m -266.03079,413.14425 c -4.34482,0.24331 -5.47474,0.66759 -8.11393,0.40547 -0.89648,-1.59735 -0.72172,-2.86509 0.7278,-3.74059 2.12242,1.17413 4.10459,1.01187 6.8368,0.38822 0.68271,0.2766 0.007,1.92097 0.54933,2.9469 z"
         style="display:inline;fill:#b3b3b3;fill-opacity:1;stroke:none" />
      <path
         inkscape:export-ydpi="32.556522"
         inkscape:export-xdpi="32.556522"
         inkscape:export-filename="/home/tom/anymals_workspace/inkscape/TAXONFILTER/chordates.png"
         sodipodi:nodetypes="ccccc"
         inkscape:connector-curvature="0"
         id="path4156"
         d="m -275.95059,408.69845 c -1.60436,-1.08828 -3.42564,-1.50762 -4.02594,-4.71127 -2.24653,-0.13605 -3.70483,0.60781 -4.69278,2.26973 1.74329,2.04079 4.3775,4.46244 7.45471,6.48963 -0.45301,-2.48082 0.22862,-3.42722 1.26401,-4.04809 z"
         style="display:inline;fill:#b3b3b3;fill-opacity:1;stroke:none" />
      <path
         inkscape:export-ydpi="32.556522"
         inkscape:export-xdpi="32.556522"
         inkscape:export-filename="/home/tom/anymals_workspace/inkscape/TAXONFILTER/chordates.png"
         sodipodi:nodetypes="ccccc"
         inkscape:connector-curvature="0"
         id="path4160"
         d="m -288.16767,391.22379 c 1.16304,3.01784 2.07931,6.5791 1.86328,11.40586 1.46237,-1.13076 2.98812,-2.13881 5.07429,-2.06212 -0.7235,-2.74439 -1.74042,-5.05214 -0.57052,-8.92 -2.59961,-1.93099 -4.46925,-1.12458 -6.36705,-0.42374 z"
         style="display:inline;fill:#b3b3b3;fill-opacity:1;stroke:none" />
      <path
         inkscape:export-ydpi="32.556522"
         inkscape:export-xdpi="32.556522"
         inkscape:export-filename="/home/tom/anymals_workspace/inkscape/TAXONFILTER/chordates.png"
         sodipodi:nodetypes="ccccc"
         inkscape:connector-curvature="0"
         id="path4168"
         d="m -288.89472,387.89475 c 2.25318,-0.50335 4.482,-1.2747 6.90864,0.13013 -0.96687,-3.84425 -1.50081,-6.81643 0.0955,-11.86714 -4.94794,-2.71328 -5.88829,-0.96859 -7.29408,-0.90805 0.92531,7.09561 2.48792,6.87527 0.2899,12.64506 z"
         style="display:inline;fill:#b3b3b3;fill-opacity:1;stroke:none" />
      <path
         inkscape:export-ydpi="32.556522"
         inkscape:export-xdpi="32.556522"
         inkscape:export-filename="/home/tom/anymals_workspace/inkscape/TAXONFILTER/chordates.png"
         sodipodi:nodetypes="ccccc"
         inkscape:connector-curvature="0"
         id="path4172"
         d="m -282.19077,372.03895 c -0.7849,-2.60593 -0.1925,-6.02888 2.88991,-8.02412 -3.38526,-4.23043 -4.65446,-5.08643 -5.71445,-4.19049 -1.60997,2.0189 -1.57212,8.72645 -3.7552,10.661 2.59067,0.12739 4.18596,0.49172 6.57974,1.55361 z"
         style="display:inline;fill:#b3b3b3;fill-opacity:1;stroke:none" />
      <path
         inkscape:export-ydpi="32.556522"
         inkscape:export-xdpi="32.556522"
         inkscape:export-filename="/home/tom/anymals_workspace/inkscape/TAXONFILTER/chordates.png"
         sodipodi:nodetypes="ccccc"
         inkscape:connector-curvature="0"
         id="path4180"
         d="m -282.1005,355.95105 c 2.16726,1.27738 3.40962,3.18641 4.91734,4.79356 2.34811,-2.25516 2.14988,-4.62258 6.90835,-4.34676 -0.35872,-2.05521 -1.309,-3.94691 -2.76302,-5.63912 -2.33879,1.32275 -7.74571,5.52565 -9.06267,5.19232 z"
         style="display:inline;fill:#b3b3b3;fill-opacity:1;stroke:none" />
      <path
         inkscape:export-ydpi="32.556522"
         inkscape:export-xdpi="32.556522"
         inkscape:export-filename="/home/tom/anymals_workspace/inkscape/TAXONFILTER/chordates.png"
         sodipodi:nodetypes="ccccc"
         inkscape:connector-curvature="0"
         id="path4184"
         d="m -268.96267,349.20036 c 0.92705,1.6278 2.03074,3.43672 2.47989,5.39961 2.39079,-2.31236 4.91577,-2.79072 8.43541,-1.57658 0.64273,-2.1765 0.42439,-3.95656 -0.19581,-5.77223 -6.70046,0.39122 -9.99782,2.13733 -10.71949,1.9492 z"
         style="display:inline;fill:#b3b3b3;fill-opacity:1;stroke:none" />
    </g>
  </g>
</svg>
