<?xml version="1.0" encoding="UTF-8" standalone="no"?>
<!-- Created with Inkscape (http://www.inkscape.org/) -->

<svg
   xmlns:dc="http://purl.org/dc/elements/1.1/"
   xmlns:cc="http://creativecommons.org/ns#"
   xmlns:rdf="http://www.w3.org/1999/02/22-rdf-syntax-ns#"
   xmlns:svg="http://www.w3.org/2000/svg"
   xmlns="http://www.w3.org/2000/svg"
   xmlns:sodipodi="http://sodipodi.sourceforge.net/DTD/sodipodi-0.dtd"
   xmlns:inkscape="http://www.inkscape.org/namespaces/inkscape"
   width="100%"
   height="100%"
   viewBox="0 0 99.999997 99.999997"
   id="svg11351"
   version="1.1"
   inkscape:version="0.91 r13725"
   sodipodi:docname="Fungi.svg">
  <defs
     id="defs11353" />
  <sodipodi:namedview
     id="base"
     pagecolor="#ffffff"
     bordercolor="#666666"
     borderopacity="1.0"
     inkscape:pageopacity="0.0"
     inkscape:pageshadow="2"
     inkscape:zoom="1.979899"
     inkscape:cx="-38.28398"
     inkscape:cy="2.9477661"
     inkscape:document-units="px"
     inkscape:current-layer="layer1"
     showgrid="false"
     fit-margin-top="0"
     fit-margin-left="0"
     fit-margin-right="0"
     fit-margin-bottom="0"
     inkscape:window-width="1920"
     inkscape:window-height="1016"
     inkscape:window-x="0"
     inkscape:window-y="27"
     inkscape:window-maximized="1" />
  <metadata
     id="metadata11356">
    <rdf:RDF>
      <cc:Work
         rdf:about="">
        <dc:format>image/svg+xml</dc:format>
        <dc:type
           rdf:resource="http://purl.org/dc/dcmitype/StillImage" />
        <dc:title></dc:title>
      </cc:Work>
    </rdf:RDF>
  </metadata>
  <g
     inkscape:label="Layer 1"
     inkscape:groupmode="layer"
     id="layer1"
     transform="translate(-270,-213.79077)">
    <circle
       style="opacity:1;fill:#3e894e;fill-opacity:1;stroke:none;stroke-width:10;stroke-linecap:round;stroke-linejoin:miter;stroke-miterlimit:4;stroke-dasharray:none;stroke-dashoffset:0;stroke-opacity:1"
       id="path4136-0-3-6-2-7-0-9-3"
       cx="320"
       cy="263.79077"
       r="50" />
    <g
       id="g5032"
       transform="translate(85.41842,-281.01541)">
      <path
         inkscape:export-ydpi="42.228168"
         inkscape:export-xdpi="42.228168"
         inkscape:export-filename="/home/tom/anymals_workspace/inkscape/TAXONFILTER/pin_fungi_50.png"
         sodipodi:nodetypes="ccccccc"
         inkscape:connector-curvature="0"
         id="path4007-2-2"
         d="m 226.32926,547.38552 c -0.91617,0.0923 -1.71252,2.34123 -2.77792,-0.25254 1.32577,3.93619 -2.44676,3.55168 0.18941,5.87152 3.40868,11.33893 14.61912,5.79261 19.95051,-0.12627 0.0796,-1.80984 -1.47569,-3.72433 -0.61462,-5.27718 -0.93992,1.10431 -1.81983,0.029 -2.79465,0.28955 0.52393,-6.3181 -10.57879,-7.1672 -13.95273,-0.50508 z"
         style="display:inline;fill:none;stroke:#ffffff;stroke-width:1.41732287;stroke-linecap:butt;stroke-linejoin:miter;stroke-miterlimit:4;stroke-dasharray:none;stroke-opacity:1" />
      <path
         inkscape:export-ydpi="42.228168"
         inkscape:export-xdpi="42.228168"
         inkscape:export-filename="/home/tom/anymals_workspace/inkscape/TAXONFILTER/pin_fungi_50.png"
         sodipodi:nodetypes="ccsccccccccscccsscccc"
         inkscape:connector-curvature="0"
         id="path3159-2-0"
         d="m 240.21304,548.13025 c 5.35464,-17.6314 19.65365,-2.892 23.38655,-6.69632 6.16781,-19.62996 -15.17673,-28.21855 -30.99617,-28.24143 -13.95834,-0.0201 -31.82154,3.31379 -25.4839,26.15558 6.24889,1.69722 25.07721,-8.55971 18.95068,8.38951 1.39878,-0.0375 2.09533,-0.87252 3.3527,-1.87474 -2.28995,3.54123 -0.038,1.53805 0.94753,1.56622 4.68247,-0.35388 2.8214,0.10903 5.20555,0.7327 1.3095,-0.41436 2.78511,-1.89851 3.37451,-1.86757 -2.814,2.84564 -0.0152,1.73228 1.26255,1.83605 z m -16.41417,4.72845 c -7.62616,17.68454 -7.23323,23.38355 9.01919,22.59694 16.16344,-0.78231 18.34859,-6.975 10.08658,-22.53631 -2.93301,0.88034 -3.87501,2.73487 -5.42256,-1.20017 -2.4745,4.65423 -3.89099,-5.17927 -8.62909,1.1726 -0.73387,-0.4111 -1.041,-2.0482 -1.70411,-1.78566 -0.55623,0.22022 -1.7346,3.20484 -1.65412,2.62809 0.2753,-1.97299 -1.17599,-1.34284 -1.69589,-0.87549 z m 39.79916,-14.77133 c -12.01829,-0.84111 -49.44424,-10.17916 -56.43497,0.96468 7.08488,-14.22999 25.29582,-6.07325 56.43497,-0.96468 z"
         style="display:inline;fill:#ffffff;fill-opacity:1;stroke:none" />
    </g>
  </g>
</svg>
