<?xml version="1.0" encoding="UTF-8" standalone="no"?>
<!-- Created with Inkscape (http://www.inkscape.org/) -->

<svg
   xmlns:dc="http://purl.org/dc/elements/1.1/"
   xmlns:cc="http://creativecommons.org/ns#"
   xmlns:rdf="http://www.w3.org/1999/02/22-rdf-syntax-ns#"
   xmlns:svg="http://www.w3.org/2000/svg"
   xmlns="http://www.w3.org/2000/svg"
   xmlns:sodipodi="http://sodipodi.sourceforge.net/DTD/sodipodi-0.dtd"
   xmlns:inkscape="http://www.inkscape.org/namespaces/inkscape"
   width="100%"
   height="100%"
   viewBox="0 0 99.999997 99.999997"
   id="svg5599"
   version="1.1"
   inkscape:version="0.91 r13725"
   sodipodi:docname="Mammalia.svg">
  <defs
     id="defs5601" />
  <sodipodi:namedview
     id="base"
     pagecolor="#ffffff"
     bordercolor="#666666"
     borderopacity="1.0"
     inkscape:pageopacity="0.0"
     inkscape:pageshadow="2"
     inkscape:zoom="1.979899"
     inkscape:cx="-28.272716"
     inkscape:cy="14.679849"
     inkscape:document-units="px"
     inkscape:current-layer="layer1"
     showgrid="false"
     fit-margin-top="0"
     fit-margin-left="0"
     fit-margin-right="0"
     fit-margin-bottom="0"
     inkscape:window-width="1920"
     inkscape:window-height="1016"
     inkscape:window-x="0"
     inkscape:window-y="27"
     inkscape:window-maximized="1" />
  <metadata
     id="metadata5604">
    <rdf:RDF>
      <cc:Work
         rdf:about="">
        <dc:format>image/svg+xml</dc:format>
        <dc:type
           rdf:resource="http://purl.org/dc/dcmitype/StillImage" />
        <dc:title></dc:title>
      </cc:Work>
    </rdf:RDF>
  </metadata>
  <g
     inkscape:label="Layer 1"
     inkscape:groupmode="layer"
     id="layer1"
     transform="translate(-227.14285,-288.07648)">
    <circle
       style="opacity:1;fill:#cc3d3d;fill-opacity:1;stroke:none;stroke-width:10;stroke-linecap:round;stroke-linejoin:miter;stroke-miterlimit:4;stroke-dasharray:none;stroke-dashoffset:0;stroke-opacity:1"
       id="path4136-0-3-6-2-7"
       cx="277.14285"
       cy="338.07648"
       r="50" />
    <g
       id="g4895"
       style="fill:#ffffff"
       transform="matrix(0.72792326,0,0,0.72792326,604.17897,-19.67776)">
      <path
         inkscape:export-ydpi="32.556522"
         inkscape:export-xdpi="32.556522"
         inkscape:export-filename="/home/tom/anymals_workspace/inkscape/TAXONFILTER/mammals.png"
         sodipodi:nodetypes="cccccccsscccccccccccccscccccccccccccccccccccccccccc"
         inkscape:connector-curvature="0"
         id="path3862-3-8"
         d="m -438.82377,471.84447 c 0.88775,-2.15554 3.35781,-3.40742 3.89758,-4.88147 -1.52256,-0.18067 -3.52064,-0.22467 -4.42845,-0.0832 -2.09034,2.40448 -3.56527,3.38133 -4.34787,5.01803 1.05147,-0.47583 1.93486,-1.0484 3.0887,-0.86479 -0.36196,1.98259 -0.89043,7.05518 -11.03774,8.33687 -6.77663,0.68007 -23.59851,1.45971 -26.76796,9.54401 -2.06417,-0.38051 -4.53014,-0.12068 -7.98922,2.81059 -2.00547,1.69945 -4.52508,6.25262 -5.45061,11.1677 -0.28631,1.52038 -1.80636,4.39373 -3.29786,5.90984 0.77845,0.38306 1.56292,-0.39521 2.13532,-0.12153 -1.0621,1.58287 -4.55385,3.81787 -5.22394,5.5784 0.58604,-0.26352 1.26475,-0.45063 2.15327,-0.83973 -0.79612,1.30229 -3.83847,2.43609 -6.25374,3.02282 3.4105,2.33151 8.57204,2.07037 11.24096,-1.33265 -0.0344,0.34367 0.58301,1.23755 0.47551,1.75742 1.5428,-0.006 3.16979,-5.00019 2.99385,-7.04324 1.2291,0.33922 1.47278,0.81307 2.29515,1.92786 0.55714,-0.75815 -0.0708,-5.90647 -0.4058,-6.93025 0.93608,0.3354 1.88672,0.8298 2.8409,1.09885 -0.71744,-1.1974 -1.35113,-5.76118 -1.36984,-9.09246 0.97498,-4.00954 3.78702,-4.27538 4.98441,-4.22176 -1.34403,3.93209 -0.22566,9.15178 0.71987,12.67218 0.25347,0.94374 -2.17911,9.48468 -2.82682,12.45912 2.00653,3.15957 5.98483,8.13162 6.627,11.41514 0.28382,-0.006 2.01334,0.30456 3.98762,0.3851 0.22943,-0.36754 1.42553,-2.87367 -1.02958,-3.58583 -0.68905,-1.49254 -3.63361,-4.47294 -4.98956,-7.96554 1.69218,-1.40706 3.10728,-8.21152 6.8052,-8.59175 9.3902,-2.82364 8.62695,-10.31623 10.36619,-13.44077 7.43229,3.68826 13.48818,5.51133 16.11419,4.3077 -0.69998,2.76625 -0.25261,5.7589 0.88065,7.89947 1.6281,2.02468 2.70627,5.08101 2.16683,9.61914 2.58889,2.86394 3.5861,9.80485 3.44724,11.20926 1.58446,-0.053 2.70567,0.11297 4.75967,-0.14416 0.31925,-0.39602 1.48589,-2.39274 -1.02071,-2.51439 -1.22091,-2.45076 -2.59794,-15.73574 -2.76291,-16.99871 1.66647,-2.18451 6.37019,-6.46817 6.71703,-7.95472 1.51154,-1.39391 1.84774,-5.0913 1.64337,-6.55431 0.22832,-3.33743 2.33898,1.15416 2.73026,1.64109 0.12465,-3.88934 -0.2643,-6.76234 -0.35944,-7.99371 1.0816,-1.22835 2.66254,-0.34003 3.68277,0.47091 0.15822,-3.67909 -2.17545,-7.44867 -2.35799,-7.83869 1.84727,0.66968 2.09996,0.77226 4.28195,2.05077 -0.43159,-2.2683 -1.79141,-6.28388 -5.0838,-8.78424 -0.46664,0.87035 -1.44062,1.55714 -2.49583,3.9464 -1.07705,-0.84816 -2.24527,-3.36613 -2.09133,-5.96359 -1.00278,0.67071 -2.33485,2.52061 -3.8263,4.54151 -0.2942,-0.70984 -0.18164,-4.13182 -0.48705,-5.6071 -1.29961,0.28645 -4.08109,0.67176 -5.56292,0.70283 z"
         style="display:inline;fill:#ffffff;fill-opacity:1;stroke:none" />
      <path
         inkscape:export-ydpi="32.556522"
         inkscape:export-xdpi="32.556522"
         inkscape:export-filename="/home/tom/anymals_workspace/inkscape/TAXONFILTER/mammals.png"
         sodipodi:nodetypes="ccccscccccccccccccc"
         inkscape:connector-curvature="0"
         id="path3862-3-2"
         d="m -420.57116,475.71322 c -1.13948,-4.7946 0.83535,-9.79448 3.18822,-12.14092 3.88185,-2.86251 5.54639,-5.18352 3.89774,-6.80351 -2.83034,0.72466 -2.27078,1.67666 -6.49424,3.32316 1.85694,-2.04413 2.14117,-4.62393 3.3557,-6.9651 1.18877,-2.29157 0.83899,-4.16173 -0.56181,-5.27 -2.20038,2.25094 -7.69115,7.5709 -10.00396,9.67414 -2.88165,-0.21899 -1.82569,-0.18663 -5.33704,-0.17031 -1.44823,1.67529 -3.16476,3.6856 -4.74577,5.74009 0.84367,-0.086 1.08889,-0.57055 2.88027,-0.5727 -3.42055,1.65604 -6.81758,1.91788 -7.47195,3.46802 1.77635,0.3809 4.48445,0.55986 8.10075,0.44386 -0.50715,2.15993 -3.24419,3.41915 -4.28368,4.80943 0.87204,-0.006 3.06132,0.3218 5.02929,-0.93342 -0.10936,0.6735 0.76341,2.4061 0.38774,4.31823 1.0316,-0.33128 2.27982,-2.86207 4.71829,-2.98429 0.14679,0.98703 -1.25319,3.79516 0.58424,5.99375 0.496,-1.1937 0.99665,-2.55413 3.1611,-4.75362 2.34742,3.90192 3.59511,2.82319 3.59511,2.82319 z"
         style="display:inline;fill:#ffffff;fill-opacity:1;stroke:none" />
    </g>
  </g>
</svg>
