<?xml version="1.0" encoding="UTF-8"?>
<svg width="1034px" height="765px" viewBox="0 0 1034 765" version="1.1" xmlns="http://www.w3.org/2000/svg" xmlns:xlink="http://www.w3.org/1999/xlink" style="background: #FFFFFF;">
    <title>pointblank_logo_small</title>
    <g id="Page-1" stroke="none" stroke-width="1" fill="none" fill-rule="evenodd">
        <g id="pb" transform="translate(251.520000, 190.360000)" fill="#3C0000" fill-rule="nonzero">
            <path d="M0,153.618812 C0,137.10066 3.68481848,125.156766 11.0544554,117.787129 C18.4240924,110.417492 30.3679868,106.732673 46.8861386,106.732673 L198.980198,106.732673 C215.49835,106.732673 227.442244,110.417492 234.811881,117.787129 C242.181518,125.156766 245.866337,137.10066 245.866337,153.618812 L245.866337,242.816832 C245.866337,259.334983 242.181518,271.278878 234.811881,278.648515 C227.442244,286.018152 215.49835,289.70297 198.980198,289.70297 L46.8861386,289.70297 C31.3844884,289.70297 19.8217822,286.272277 12.1980198,279.410891 L12.1980198,385 L0,385 L0,153.618812 Z M122.742574,221.851485 C116.389439,221.851485 110.925743,219.564356 106.351485,214.990099 C101.777228,210.415842 99.490099,204.825083 99.490099,198.217822 C99.490099,191.864686 101.777228,186.40099 106.351485,181.826733 C110.925743,177.252475 116.389439,174.965347 122.742574,174.965347 C129.349835,174.965347 134.940594,177.252475 139.514851,181.826733 C144.089109,186.40099 146.376238,191.864686 146.376238,198.217822 C146.376238,204.825083 144.089109,210.415842 139.514851,214.990099 C134.940594,219.564356 129.349835,221.851485 122.742574,221.851485 Z M200.123762,278.267327 C212.067657,278.267327 220.644389,275.662541 225.85396,270.45297 C231.063531,265.243399 233.668317,256.666667 233.668317,244.722772 L233.668317,151.712871 C233.668317,139.768977 231.063531,131.192244 225.85396,125.982673 C220.644389,120.773102 212.067657,118.168317 200.123762,118.168317 L45.7425743,118.168317 C33.7986799,118.168317 25.2219472,120.773102 20.0123762,125.982673 C14.8028053,131.192244 12.1980198,139.768977 12.1980198,151.712871 L12.1980198,244.722772 C12.1980198,256.666667 14.8028053,265.243399 20.0123762,270.45297 C25.2219472,275.662541 33.7986799,278.267327 45.7425743,278.267327 L200.123762,278.267327 Z" id="p"></path>
            <path d="M296.945545,0 L296.945545,117.024752 C304.569307,110.163366 316.132013,106.732673 331.633663,106.732673 L483.727723,106.732673 C500.245875,106.732673 512.189769,110.417492 519.559406,117.787129 C526.929043,125.156766 530.613861,137.10066 530.613861,153.618812 L530.613861,242.816832 C530.613861,259.334983 526.929043,271.278878 519.559406,278.648515 C512.189769,286.018152 500.245875,289.70297 483.727723,289.70297 L331.633663,289.70297 C315.115512,289.70297 303.171617,286.018152 295.80198,278.648515 C288.432343,271.278878 284.747525,259.334983 284.747525,242.816832 L284.747525,0 L296.945545,0 Z M407.490099,221.851485 C401.136964,221.851485 395.673267,219.564356 391.09901,214.990099 C386.524752,210.415842 384.237624,204.825083 384.237624,198.217822 C384.237624,191.864686 386.524752,186.40099 391.09901,181.826733 C395.673267,177.252475 401.136964,174.965347 407.490099,174.965347 C414.09736,174.965347 419.688119,177.252475 424.262376,181.826733 C428.836634,186.40099 431.123762,191.864686 431.123762,198.217822 C431.123762,204.825083 428.836634,210.415842 424.262376,214.990099 C419.688119,219.564356 414.09736,221.851485 407.490099,221.851485 Z M484.871287,278.267327 C496.815182,278.267327 505.391914,275.662541 510.601485,270.45297 C515.811056,265.243399 518.415842,256.666667 518.415842,244.722772 L518.415842,151.712871 C518.415842,139.768977 515.811056,131.192244 510.601485,125.982673 C505.391914,120.773102 496.815182,118.168317 484.871287,118.168317 L330.490099,118.168317 C318.546205,118.168317 309.969472,120.773102 304.759901,125.982673 C299.55033,131.192244 296.945545,139.768977 296.945545,151.712871 L296.945545,244.722772 C296.945545,256.666667 299.55033,265.243399 304.759901,270.45297 C309.969472,275.662541 318.546205,278.267327 330.490099,278.267327 L484.871287,278.267327 Z" id="b"></path>
        </g>
        <circle id="Oval" fill="#E20000" cx="374.604538" cy="388.75" r="16"></circle>
        <circle id="Oval-Copy-7" fill="#E20000" cx="659.246541" cy="388.747843" r="16"></circle>
    </g>
</svg>