<?xml version="1.0" encoding="UTF-8" standalone="no"?>
<!DOCTYPE svg PUBLIC "-//W3C//DTD SVG 1.1//EN"
 "http://www.w3.org/Graphics/SVG/1.1/DTD/svg11.dtd">
<!-- Generated by graphviz version 2.47.0 (0)
 -->
<!-- Title: g Pages: 1 -->
<svg width="1156pt" height="823pt"
 viewBox="0.00 0.00 1156.00 823.00" xmlns="http://www.w3.org/2000/svg" xmlns:xlink="http://www.w3.org/1999/xlink">
<g id="graph0" class="graph" transform="scale(1 1) rotate(0) translate(4 819)">
<title>g</title>
<polygon fill="white" stroke="transparent" points="-4,4 -4,-819 1152,-819 1152,4 -4,4"/>
<g id="clust2" class="cluster">
<title>cluster_content</title>
<path fill="#f2f2f2" stroke="gray" d="M971,-128C971,-128 1128,-128 1128,-128 1134,-128 1140,-134 1140,-140 1140,-140 1140,-423 1140,-423 1140,-429 1134,-435 1128,-435 1128,-435 971,-435 971,-435 965,-435 959,-429 959,-423 959,-423 959,-140 959,-140 959,-134 965,-128 971,-128"/>
<text text-anchor="start" x="1019" y="-420.8" font-family="Times,serif" font-weight="bold" font-size="14.00">content</text>
</g>
<g id="clust3" class="cluster">
<title>cluster_directory</title>
<path fill="#f2f2f2" stroke="gray" d="M685.5,-443C685.5,-443 1102.5,-443 1102.5,-443 1108.5,-443 1114.5,-449 1114.5,-455 1114.5,-455 1114.5,-572 1114.5,-572 1114.5,-578 1108.5,-584 1102.5,-584 1102.5,-584 685.5,-584 685.5,-584 679.5,-584 673.5,-578 673.5,-572 673.5,-572 673.5,-455 673.5,-455 673.5,-449 679.5,-443 685.5,-443"/>
<text text-anchor="start" x="851" y="-569.8" font-family="Times,serif" font-weight="bold" font-size="14.00">directories</text>
</g>
<g id="clust4" class="cluster">
<title>cluster_revision</title>
<path fill="#f2f2f2" stroke="gray" d="M356.5,-592C356.5,-592 927,-592 927,-592 933,-592 939,-598 939,-604 939,-604 939,-795 939,-795 939,-801 933,-807 927,-807 927,-807 356.5,-807 356.5,-807 350.5,-807 344.5,-801 344.5,-795 344.5,-795 344.5,-604 344.5,-604 344.5,-598 350.5,-592 356.5,-592"/>
<text text-anchor="start" x="605.75" y="-792.8" font-family="Times,serif" font-weight="bold" font-size="14.00">revisions</text>
</g>
<g id="clust5" class="cluster">
<title>cluster_release</title>
<path fill="#f2f2f2" stroke="gray" d="M311,-413C311,-413 570,-413 570,-413 576,-413 582,-419 582,-425 582,-425 582,-572 582,-572 582,-578 576,-584 570,-584 570,-584 311,-584 311,-584 305,-584 299,-578 299,-572 299,-572 299,-425 299,-425 299,-419 305,-413 311,-413"/>
<text text-anchor="start" x="407.5" y="-569.8" font-family="Times,serif" font-weight="bold" font-size="14.00">releases</text>
</g>
<g id="clust6" class="cluster">
<title>cluster_snapshots</title>
<path fill="#f2f2f2" stroke="gray" d="M61.5,-278C61.5,-278 495,-278 495,-278 501,-278 507,-284 507,-290 507,-290 507,-393 507,-393 507,-399 501,-405 495,-405 495,-405 61.5,-405 61.5,-405 55.5,-405 49.5,-399 49.5,-393 49.5,-393 49.5,-290 49.5,-290 49.5,-284 55.5,-278 61.5,-278"/>
<text text-anchor="start" x="237.75" y="-390.8" font-family="Times,serif" font-weight="bold" font-size="14.00">snapshots</text>
</g>
<g id="clust7" class="cluster">
<title>cluster_origins</title>
<path fill="#f2f2f2" stroke="gray" d="M20,-8C20,-8 497.5,-8 497.5,-8 503.5,-8 509.5,-14 509.5,-20 509.5,-20 509.5,-258 509.5,-258 509.5,-264 503.5,-270 497.5,-270 497.5,-270 20,-270 20,-270 14,-270 8,-264 8,-258 8,-258 8,-20 8,-20 8,-14 14,-8 20,-8"/>
<text text-anchor="start" x="230.75" y="-255.8" font-family="Times,serif" font-weight="bold" font-size="14.00">origins</text>
</g>
<!-- content -->
<g id="node1" class="node">
<title>content</title>
<text text-anchor="start" x="978.5" y="-387" font-family="Times,serif" font-size="10.00"> </text>
<polygon fill="#e5e5e5" stroke="transparent" points="984.5,-381 984.5,-398 1115.5,-398 1115.5,-381 984.5,-381"/>
<polygon fill="none" stroke="black" points="984.5,-381 984.5,-398 1115.5,-398 1115.5,-381 984.5,-381"/>
<text text-anchor="start" x="1027.5" y="-387" font-family="Times,serif" font-size="10.00"> content </text>
<text text-anchor="start" x="986.5" y="-371" font-family="Times,serif" font-size="10.00"> sha1 </text>
<text text-anchor="start" x="1054.5" y="-371" font-family="Times,serif" font-size="10.00"> string </text>
<text text-anchor="start" x="1095.5" y="-371" font-family="Times,serif" font-size="10.00"> </text>
<text text-anchor="start" x="1106.5" y="-371" font-family="Times,serif" font-size="10.00"> &#160;</text>
<text text-anchor="start" x="1117.5" y="-371" font-family="Times,serif" font-size="10.00"> </text>
<text text-anchor="start" x="986.5" y="-356" font-family="Times,serif" font-size="10.00"> sha1_git </text>
<text text-anchor="start" x="1054.5" y="-356" font-family="Times,serif" font-size="10.00"> string </text>
<text text-anchor="start" x="1095.5" y="-356" font-family="Times,serif" font-size="10.00"> &#160;</text>
<text text-anchor="start" x="1106.5" y="-356" font-family="Times,serif" font-size="10.00"> &#160;</text>
<text text-anchor="start" x="1117.5" y="-356" font-family="Times,serif" font-size="10.00"> </text>
<text text-anchor="start" x="986.5" y="-341" font-family="Times,serif" font-size="10.00"> sha256 </text>
<text text-anchor="start" x="1054.5" y="-341" font-family="Times,serif" font-size="10.00"> string </text>
<text text-anchor="start" x="1095.5" y="-341" font-family="Times,serif" font-size="10.00"> &#160;</text>
<text text-anchor="start" x="1106.5" y="-341" font-family="Times,serif" font-size="10.00"> &#160;</text>
<text text-anchor="start" x="1117.5" y="-341" font-family="Times,serif" font-size="10.00"> </text>
<text text-anchor="start" x="986.5" y="-326" font-family="Times,serif" font-size="10.00"> blake2s256 </text>
<text text-anchor="start" x="1054.5" y="-326" font-family="Times,serif" font-size="10.00"> string </text>
<text text-anchor="start" x="1095.5" y="-326" font-family="Times,serif" font-size="10.00"> &#160;</text>
<text text-anchor="start" x="1106.5" y="-326" font-family="Times,serif" font-size="10.00"> &#160;</text>
<text text-anchor="start" x="1117.5" y="-326" font-family="Times,serif" font-size="10.00"> </text>
<text text-anchor="start" x="986.5" y="-311" font-family="Times,serif" font-size="10.00"> length </text>
<text text-anchor="start" x="1054.5" y="-311" font-family="Times,serif" font-size="10.00"> bigint </text>
<text text-anchor="start" x="1095.5" y="-311" font-family="Times,serif" font-size="10.00"> &#160;</text>
<text text-anchor="start" x="1106.5" y="-311" font-family="Times,serif" font-size="10.00"> &#160;</text>
<text text-anchor="start" x="1117.5" y="-311" font-family="Times,serif" font-size="10.00"> </text>
<text text-anchor="start" x="986.5" y="-296" font-family="Times,serif" font-size="10.00"> status </text>
<text text-anchor="start" x="1054.5" y="-296" font-family="Times,serif" font-size="10.00"> string </text>
<text text-anchor="start" x="1095.5" y="-296" font-family="Times,serif" font-size="10.00"> &#160;</text>
<text text-anchor="start" x="1106.5" y="-296" font-family="Times,serif" font-size="10.00"> &#160;</text>
<text text-anchor="start" x="1117.5" y="-296" font-family="Times,serif" font-size="10.00"> </text>
<polygon fill="none" stroke="black" points="975,-290.5 975,-399.5 1124,-399.5 1124,-290.5 975,-290.5"/>
</g>
<!-- skipped_content -->
<g id="node2" class="node">
<title>skipped_content</title>
<text text-anchor="start" x="978.5" y="-252" font-family="Times,serif" font-size="10.00"> </text>
<polygon fill="#e5e5e5" stroke="transparent" points="984.5,-246 984.5,-263 1115.5,-263 1115.5,-246 984.5,-246"/>
<polygon fill="none" stroke="black" points="984.5,-246 984.5,-263 1115.5,-263 1115.5,-246 984.5,-246"/>
<text text-anchor="start" x="1004.5" y="-252" font-family="Times,serif" font-size="10.00"> skipped_content </text>
<text text-anchor="start" x="986.5" y="-236" font-family="Times,serif" font-size="10.00"> sha1 </text>
<text text-anchor="start" x="1054.5" y="-236" font-family="Times,serif" font-size="10.00"> string </text>
<text text-anchor="start" x="1095.5" y="-236" font-family="Times,serif" font-size="10.00"> &#160;</text>
<text text-anchor="start" x="1106.5" y="-236" font-family="Times,serif" font-size="10.00"> &#160;</text>
<text text-anchor="start" x="1117.5" y="-236" font-family="Times,serif" font-size="10.00"> </text>
<text text-anchor="start" x="986.5" y="-221" font-family="Times,serif" font-size="10.00"> sha1_git </text>
<text text-anchor="start" x="1054.5" y="-221" font-family="Times,serif" font-size="10.00"> string </text>
<text text-anchor="start" x="1095.5" y="-221" font-family="Times,serif" font-size="10.00"> &#160;</text>
<text text-anchor="start" x="1106.5" y="-221" font-family="Times,serif" font-size="10.00"> &#160;</text>
<text text-anchor="start" x="1117.5" y="-221" font-family="Times,serif" font-size="10.00"> </text>
<text text-anchor="start" x="986.5" y="-206" font-family="Times,serif" font-size="10.00"> sha256 </text>
<text text-anchor="start" x="1054.5" y="-206" font-family="Times,serif" font-size="10.00"> string </text>
<text text-anchor="start" x="1095.5" y="-206" font-family="Times,serif" font-size="10.00"> &#160;</text>
<text text-anchor="start" x="1106.5" y="-206" font-family="Times,serif" font-size="10.00"> &#160;</text>
<text text-anchor="start" x="1117.5" y="-206" font-family="Times,serif" font-size="10.00"> </text>
<text text-anchor="start" x="986.5" y="-191" font-family="Times,serif" font-size="10.00"> blake2s256 </text>
<text text-anchor="start" x="1054.5" y="-191" font-family="Times,serif" font-size="10.00"> string </text>
<text text-anchor="start" x="1095.5" y="-191" font-family="Times,serif" font-size="10.00"> &#160;</text>
<text text-anchor="start" x="1106.5" y="-191" font-family="Times,serif" font-size="10.00"> &#160;</text>
<text text-anchor="start" x="1117.5" y="-191" font-family="Times,serif" font-size="10.00"> </text>
<text text-anchor="start" x="986.5" y="-176" font-family="Times,serif" font-size="10.00"> length </text>
<text text-anchor="start" x="1054.5" y="-176" font-family="Times,serif" font-size="10.00"> bigint </text>
<text text-anchor="start" x="1095.5" y="-176" font-family="Times,serif" font-size="10.00"> &#160;</text>
<text text-anchor="start" x="1106.5" y="-176" font-family="Times,serif" font-size="10.00"> &#160;</text>
<text text-anchor="start" x="1117.5" y="-176" font-family="Times,serif" font-size="10.00"> </text>
<text text-anchor="start" x="986.5" y="-161" font-family="Times,serif" font-size="10.00"> status </text>
<text text-anchor="start" x="1054.5" y="-161" font-family="Times,serif" font-size="10.00"> string </text>
<text text-anchor="start" x="1095.5" y="-161" font-family="Times,serif" font-size="10.00"> &#160;</text>
<text text-anchor="start" x="1106.5" y="-161" font-family="Times,serif" font-size="10.00"> &#160;</text>
<text text-anchor="start" x="1117.5" y="-161" font-family="Times,serif" font-size="10.00"> </text>
<text text-anchor="start" x="986.5" y="-146" font-family="Times,serif" font-size="10.00"> reason </text>
<text text-anchor="start" x="1054.5" y="-146" font-family="Times,serif" font-size="10.00"> string </text>
<text text-anchor="start" x="1095.5" y="-146" font-family="Times,serif" font-size="10.00"> &#160;</text>
<text text-anchor="start" x="1106.5" y="-146" font-family="Times,serif" font-size="10.00"> &#160;</text>
<text text-anchor="start" x="1117.5" y="-146" font-family="Times,serif" font-size="10.00"> </text>
<polygon fill="none" stroke="black" points="975,-140 975,-264 1124,-264 1124,-140 975,-140"/>
</g>
<!-- directory -->
<g id="node3" class="node">
<title>directory</title>
<text text-anchor="start" x="1003.5" y="-537" font-family="Times,serif" font-size="10.00"> </text>
<polygon fill="#e5e5e5" stroke="transparent" points="1009.5,-531 1009.5,-548 1089.5,-548 1089.5,-531 1009.5,-531"/>
<polygon fill="none" stroke="black" points="1009.5,-531 1009.5,-548 1089.5,-548 1089.5,-531 1009.5,-531"/>
<text text-anchor="start" x="1023.5" y="-537" font-family="Times,serif" font-size="10.00"> directory </text>
<text text-anchor="start" x="1011.5" y="-521" font-family="Times,serif" font-size="10.00"> id </text>
<text text-anchor="start" x="1031.5" y="-521" font-family="Times,serif" font-size="10.00"> string </text>
<text text-anchor="start" x="1072.5" y="-521" font-family="Times,serif" font-size="10.00"> </text>
<text text-anchor="start" x="1080.5" y="-521" font-family="Times,serif" font-size="10.00"> &#160;</text>
<text text-anchor="start" x="1091.5" y="-521" font-family="Times,serif" font-size="10.00"> </text>
<polygon fill="none" stroke="black" points="1000.5,-515 1000.5,-549 1098.5,-549 1098.5,-515 1000.5,-515"/>
</g>
<!-- directory_entry -->
<g id="node4" class="node">
<title>directory_entry</title>
<text text-anchor="start" x="692.5" y="-537" font-family="Times,serif" font-size="10.00"> </text>
<polygon fill="#e5e5e5" stroke="transparent" points="698.5,-531 698.5,-548 842.5,-548 842.5,-531 698.5,-531"/>
<polygon fill="none" stroke="black" points="698.5,-531 698.5,-548 842.5,-548 842.5,-531 698.5,-531"/>
<text text-anchor="start" x="728" y="-537" font-family="Times,serif" font-size="10.00"> directory_entry </text>
<text text-anchor="start" x="700.5" y="-521" font-family="Times,serif" font-size="10.00"> directory_id </text>
<text text-anchor="start" x="771.5" y="-521" font-family="Times,serif" font-size="10.00"> string </text>
<text text-anchor="start" x="822.5" y="-521" font-family="Times,serif" font-size="10.00"> </text>
<text text-anchor="start" x="833.5" y="-521" font-family="Times,serif" font-size="10.00"> &#160;</text>
<text text-anchor="start" x="844.5" y="-521" font-family="Times,serif" font-size="10.00"> </text>
<text text-anchor="start" x="700.5" y="-506" font-family="Times,serif" font-size="10.00"> name </text>
<text text-anchor="start" x="771.5" y="-506" font-family="Times,serif" font-size="10.00"> binary </text>
<text text-anchor="start" x="822.5" y="-506" font-family="Times,serif" font-size="10.00"> &#160;</text>
<text text-anchor="start" x="833.5" y="-506" font-family="Times,serif" font-size="10.00"> &#160;</text>
<text text-anchor="start" x="844.5" y="-506" font-family="Times,serif" font-size="10.00"> </text>
<text text-anchor="start" x="700.5" y="-491" font-family="Times,serif" font-size="10.00"> type </text>
<text text-anchor="start" x="771.5" y="-491" font-family="Times,serif" font-size="10.00"> string </text>
<text text-anchor="start" x="822.5" y="-491" font-family="Times,serif" font-size="10.00"> &#160;</text>
<text text-anchor="start" x="833.5" y="-491" font-family="Times,serif" font-size="10.00"> &#160;</text>
<text text-anchor="start" x="844.5" y="-491" font-family="Times,serif" font-size="10.00"> </text>
<text text-anchor="start" x="700.5" y="-476" font-family="Times,serif" font-size="10.00"> target </text>
<text text-anchor="start" x="771.5" y="-476" font-family="Times,serif" font-size="10.00"> string </text>
<text text-anchor="start" x="822.5" y="-476" font-family="Times,serif" font-size="10.00"> &#160;</text>
<text text-anchor="start" x="833.5" y="-476" font-family="Times,serif" font-size="10.00"> &#160;</text>
<text text-anchor="start" x="844.5" y="-476" font-family="Times,serif" font-size="10.00"> </text>
<text text-anchor="start" x="700.5" y="-461" font-family="Times,serif" font-size="10.00"> perms </text>
<text text-anchor="start" x="771.5" y="-461" font-family="Times,serif" font-size="10.00"> smallint </text>
<text text-anchor="start" x="822.5" y="-461" font-family="Times,serif" font-size="10.00"> &#160;</text>
<text text-anchor="start" x="833.5" y="-461" font-family="Times,serif" font-size="10.00"> &#160;</text>
<text text-anchor="start" x="844.5" y="-461" font-family="Times,serif" font-size="10.00"> </text>
<polygon fill="none" stroke="black" points="689.5,-455 689.5,-549 851.5,-549 851.5,-455 689.5,-455"/>
</g>
<!-- directory_entry&#45;&gt;content -->
<g id="edge5" class="edge">
<title>directory_entry:rtcol4&#45;&gt;content:ltcol2</title>
<path fill="none" stroke="black" stroke-dasharray="5,2" d="M851.5,-478C924.3,-478 901.58,-369.89 965.43,-359.76"/>
<polygon fill="black" stroke="black" points="965.79,-363.24 975.5,-359 965.26,-356.26 965.79,-363.24"/>
</g>
<!-- directory_entry&#45;&gt;skipped_content -->
<g id="edge6" class="edge">
<title>directory_entry:rtcol4&#45;&gt;skipped_content:ltcol2</title>
<path fill="none" stroke="black" stroke-dasharray="5,2" d="M851.5,-478C973.57,-478 856.88,-238.18 965.42,-224.6"/>
<polygon fill="black" stroke="black" points="965.73,-228.09 975.5,-224 965.31,-221.1 965.73,-228.09"/>
</g>
<!-- directory_entry&#45;&gt;directory -->
<g id="edge3" class="edge">
<title>directory_entry:rtcol1&#45;&gt;directory:ltcol1</title>
<path fill="none" stroke="black" stroke-dasharray="5,2" d="M851.5,-524C914.23,-524 932.39,-523.1 990.42,-523.01"/>
<polygon fill="black" stroke="black" points="990.5,-526.51 1000.5,-523 990.5,-519.51 990.5,-526.51"/>
</g>
<!-- directory_entry&#45;&gt;directory -->
<g id="edge4" class="edge">
<title>directory_entry:rtcol4&#45;&gt;directory:ltcol1</title>
<path fill="none" stroke="black" stroke-dasharray="5,2" d="M851.5,-478C917.16,-478 930.09,-518.55 990.4,-522.66"/>
<polygon fill="black" stroke="black" points="990.39,-526.17 1000.5,-523 990.62,-519.17 990.39,-526.17"/>
</g>
<!-- revision -->
<g id="node9" class="node">
<title>revision</title>
<text text-anchor="start" x="621.5" y="-760" font-family="Times,serif" font-size="10.00"> </text>
<polygon fill="#e5e5e5" stroke="transparent" points="627.5,-754 627.5,-771 914.5,-771 914.5,-754 627.5,-754"/>
<polygon fill="none" stroke="black" points="627.5,-754 627.5,-771 914.5,-771 914.5,-754 627.5,-754"/>
<text text-anchor="start" x="747.5" y="-760" font-family="Times,serif" font-size="10.00"> revision </text>
<text text-anchor="start" x="629.5" y="-744" font-family="Times,serif" font-size="10.00"> id </text>
<text text-anchor="start" x="752.5" y="-744" font-family="Times,serif" font-size="10.00"> string </text>
<text text-anchor="start" x="894.5" y="-744" font-family="Times,serif" font-size="10.00"> </text>
<text text-anchor="start" x="905.5" y="-744" font-family="Times,serif" font-size="10.00"> &#160;</text>
<text text-anchor="start" x="916.5" y="-744" font-family="Times,serif" font-size="10.00"> </text>
<text text-anchor="start" x="629.5" y="-729" font-family="Times,serif" font-size="10.00"> date </text>
<text text-anchor="start" x="752.5" y="-729" font-family="Times,serif" font-size="10.00"> timestamp with time zone </text>
<text text-anchor="start" x="894.5" y="-729" font-family="Times,serif" font-size="10.00"> &#160;</text>
<text text-anchor="start" x="905.5" y="-729" font-family="Times,serif" font-size="10.00"> &#160;</text>
<text text-anchor="start" x="916.5" y="-729" font-family="Times,serif" font-size="10.00"> </text>
<text text-anchor="start" x="629.5" y="-714" font-family="Times,serif" font-size="10.00"> date_offset </text>
<text text-anchor="start" x="752.5" y="-714" font-family="Times,serif" font-size="10.00"> smallint </text>
<text text-anchor="start" x="894.5" y="-714" font-family="Times,serif" font-size="10.00"> &#160;</text>
<text text-anchor="start" x="905.5" y="-714" font-family="Times,serif" font-size="10.00"> &#160;</text>
<text text-anchor="start" x="916.5" y="-714" font-family="Times,serif" font-size="10.00"> </text>
<text text-anchor="start" x="629.5" y="-699" font-family="Times,serif" font-size="10.00"> committer_date </text>
<text text-anchor="start" x="752.5" y="-699" font-family="Times,serif" font-size="10.00"> timestamp with time zone </text>
<text text-anchor="start" x="894.5" y="-699" font-family="Times,serif" font-size="10.00"> &#160;</text>
<text text-anchor="start" x="905.5" y="-699" font-family="Times,serif" font-size="10.00"> &#160;</text>
<text text-anchor="start" x="916.5" y="-699" font-family="Times,serif" font-size="10.00"> </text>
<text text-anchor="start" x="629.5" y="-684" font-family="Times,serif" font-size="10.00"> committer_date_offset </text>
<text text-anchor="start" x="752.5" y="-684" font-family="Times,serif" font-size="10.00"> smallint </text>
<text text-anchor="start" x="894.5" y="-684" font-family="Times,serif" font-size="10.00"> &#160;</text>
<text text-anchor="start" x="905.5" y="-684" font-family="Times,serif" font-size="10.00"> &#160;</text>
<text text-anchor="start" x="916.5" y="-684" font-family="Times,serif" font-size="10.00"> </text>
<text text-anchor="start" x="629.5" y="-669" font-family="Times,serif" font-size="10.00"> type </text>
<text text-anchor="start" x="752.5" y="-669" font-family="Times,serif" font-size="10.00"> string </text>
<text text-anchor="start" x="894.5" y="-669" font-family="Times,serif" font-size="10.00"> &#160;</text>
<text text-anchor="start" x="905.5" y="-669" font-family="Times,serif" font-size="10.00"> &#160;</text>
<text text-anchor="start" x="916.5" y="-669" font-family="Times,serif" font-size="10.00"> </text>
<text text-anchor="start" x="629.5" y="-654" font-family="Times,serif" font-size="10.00"> directory </text>
<text text-anchor="start" x="752.5" y="-654" font-family="Times,serif" font-size="10.00"> string </text>
<text text-anchor="start" x="894.5" y="-654" font-family="Times,serif" font-size="10.00"> &#160;</text>
<text text-anchor="start" x="905.5" y="-654" font-family="Times,serif" font-size="10.00"> &#160;</text>
<text text-anchor="start" x="916.5" y="-654" font-family="Times,serif" font-size="10.00"> </text>
<text text-anchor="start" x="629.5" y="-639" font-family="Times,serif" font-size="10.00"> message </text>
<text text-anchor="start" x="752.5" y="-639" font-family="Times,serif" font-size="10.00"> binary </text>
<text text-anchor="start" x="894.5" y="-639" font-family="Times,serif" font-size="10.00"> &#160;</text>
<text text-anchor="start" x="905.5" y="-639" font-family="Times,serif" font-size="10.00"> &#160;</text>
<text text-anchor="start" x="916.5" y="-639" font-family="Times,serif" font-size="10.00"> </text>
<text text-anchor="start" x="629.5" y="-624" font-family="Times,serif" font-size="10.00"> author </text>
<text text-anchor="start" x="752.5" y="-624" font-family="Times,serif" font-size="10.00"> binary </text>
<text text-anchor="start" x="894.5" y="-624" font-family="Times,serif" font-size="10.00"> &#160;</text>
<text text-anchor="start" x="905.5" y="-624" font-family="Times,serif" font-size="10.00"> </text>
<text text-anchor="start" x="916.5" y="-624" font-family="Times,serif" font-size="10.00"> </text>
<text text-anchor="start" x="629.5" y="-609" font-family="Times,serif" font-size="10.00"> committer </text>
<text text-anchor="start" x="752.5" y="-609" font-family="Times,serif" font-size="10.00"> binary </text>
<text text-anchor="start" x="894.5" y="-609" font-family="Times,serif" font-size="10.00"> &#160;</text>
<text text-anchor="start" x="905.5" y="-609" font-family="Times,serif" font-size="10.00"> </text>
<text text-anchor="start" x="916.5" y="-609" font-family="Times,serif" font-size="10.00"> </text>
<polygon fill="none" stroke="black" points="618,-603.5 618,-772.5 923,-772.5 923,-603.5 618,-603.5"/>
</g>
<!-- directory_entry&#45;&gt;revision -->
<g id="edge7" class="edge">
<title>directory_entry:rtcol4&#45;&gt;revision:ltcol1</title>
<path fill="none" stroke="black" stroke-dasharray="5,2" d="M609.34,-742.9C588.64,-721.43 600.93,-622.03 619.5,-599.5 686.12,-518.69 783.62,-633.59 850.5,-553 871.79,-527.35 884.84,-478 851.5,-478"/>
<polygon fill="black" stroke="black" points="607.94,-746.11 618.5,-747 610.8,-739.72 607.94,-746.11"/>
</g>
<!-- origin -->
<g id="node5" class="node">
<title>origin</title>
<text text-anchor="start" x="390.5" y="-155" font-family="Times,serif" font-size="10.00"> </text>
<polygon fill="#e5e5e5" stroke="transparent" points="396.5,-149 396.5,-166 484.5,-166 484.5,-149 396.5,-149"/>
<polygon fill="none" stroke="black" points="396.5,-149 396.5,-166 484.5,-166 484.5,-149 396.5,-149"/>
<text text-anchor="start" x="422" y="-155" font-family="Times,serif" font-size="10.00"> origin </text>
<text text-anchor="start" x="398.5" y="-139" font-family="Times,serif" font-size="10.00"> url </text>
<text text-anchor="start" x="423.5" y="-139" font-family="Times,serif" font-size="10.00"> string </text>
<text text-anchor="start" x="464.5" y="-139" font-family="Times,serif" font-size="10.00"> &#160;</text>
<text text-anchor="start" x="475.5" y="-139" font-family="Times,serif" font-size="10.00"> &#160;</text>
<text text-anchor="start" x="486.5" y="-139" font-family="Times,serif" font-size="10.00"> </text>
<polygon fill="none" stroke="black" points="387.5,-133 387.5,-167 493.5,-167 493.5,-133 387.5,-133"/>
</g>
<!-- origin_visit -->
<g id="node6" class="node">
<title>origin_visit</title>
<text text-anchor="start" x="35.5" y="-87" font-family="Times,serif" font-size="10.00"> </text>
<polygon fill="#e5e5e5" stroke="transparent" points="41.5,-81 41.5,-98 246.5,-98 246.5,-81 41.5,-81"/>
<polygon fill="none" stroke="black" points="41.5,-81 41.5,-98 246.5,-98 246.5,-81 41.5,-81"/>
<text text-anchor="start" x="112.5" y="-87" font-family="Times,serif" font-size="10.00"> origin_visit </text>
<text text-anchor="start" x="43.5" y="-71" font-family="Times,serif" font-size="10.00"> origin </text>
<text text-anchor="start" x="84.5" y="-71" font-family="Times,serif" font-size="10.00"> string </text>
<text text-anchor="start" x="226.5" y="-71" font-family="Times,serif" font-size="10.00"> </text>
<text text-anchor="start" x="237.5" y="-71" font-family="Times,serif" font-size="10.00"> </text>
<text text-anchor="start" x="248.5" y="-71" font-family="Times,serif" font-size="10.00"> </text>
<text text-anchor="start" x="43.5" y="-56" font-family="Times,serif" font-size="10.00"> visit </text>
<text text-anchor="start" x="84.5" y="-56" font-family="Times,serif" font-size="10.00"> bigint </text>
<text text-anchor="start" x="226.5" y="-56" font-family="Times,serif" font-size="10.00"> </text>
<text text-anchor="start" x="237.5" y="-56" font-family="Times,serif" font-size="10.00"> &#160;</text>
<text text-anchor="start" x="248.5" y="-56" font-family="Times,serif" font-size="10.00"> </text>
<text text-anchor="start" x="43.5" y="-41" font-family="Times,serif" font-size="10.00"> date </text>
<text text-anchor="start" x="84.5" y="-41" font-family="Times,serif" font-size="10.00"> timestamp with time zone </text>
<text text-anchor="start" x="226.5" y="-41" font-family="Times,serif" font-size="10.00"> &#160;</text>
<text text-anchor="start" x="237.5" y="-41" font-family="Times,serif" font-size="10.00"> &#160;</text>
<text text-anchor="start" x="248.5" y="-41" font-family="Times,serif" font-size="10.00"> </text>
<text text-anchor="start" x="43.5" y="-26" font-family="Times,serif" font-size="10.00"> type </text>
<text text-anchor="start" x="84.5" y="-26" font-family="Times,serif" font-size="10.00"> string </text>
<text text-anchor="start" x="226.5" y="-26" font-family="Times,serif" font-size="10.00"> &#160;</text>
<text text-anchor="start" x="237.5" y="-26" font-family="Times,serif" font-size="10.00"> &#160;</text>
<text text-anchor="start" x="248.5" y="-26" font-family="Times,serif" font-size="10.00"> </text>
<polygon fill="none" stroke="black" points="32,-20.5 32,-99.5 255,-99.5 255,-20.5 32,-20.5"/>
</g>
<!-- origin_visit&#45;&gt;origin -->
<g id="edge11" class="edge">
<title>origin_visit:rtcol1&#45;&gt;origin:ltcol1</title>
<path fill="none" stroke="black" stroke-dasharray="5,2" d="M255.5,-74C317.69,-74 321.47,-133.87 377.27,-140.42"/>
<polygon fill="black" stroke="black" points="377.32,-143.93 387.5,-141 377.71,-136.94 377.32,-143.93"/>
</g>
<!-- origin_visit_status -->
<g id="node7" class="node">
<title>origin_visit_status</title>
<text text-anchor="start" x="27.5" y="-222" font-family="Times,serif" font-size="10.00"> </text>
<polygon fill="#e5e5e5" stroke="transparent" points="33.5,-216 33.5,-233 254.5,-233 254.5,-216 33.5,-216"/>
<polygon fill="none" stroke="black" points="33.5,-216 33.5,-233 254.5,-233 254.5,-216 33.5,-216"/>
<text text-anchor="start" x="94.5" y="-222" font-family="Times,serif" font-size="10.00"> origin_visit_status </text>
<text text-anchor="start" x="35.5" y="-206" font-family="Times,serif" font-size="10.00"> origin </text>
<text text-anchor="start" x="92.5" y="-206" font-family="Times,serif" font-size="10.00"> string </text>
<text text-anchor="start" x="234.5" y="-206" font-family="Times,serif" font-size="10.00"> </text>
<text text-anchor="start" x="245.5" y="-206" font-family="Times,serif" font-size="10.00"> </text>
<text text-anchor="start" x="256.5" y="-206" font-family="Times,serif" font-size="10.00"> </text>
<text text-anchor="start" x="35.5" y="-191" font-family="Times,serif" font-size="10.00"> visit </text>
<text text-anchor="start" x="92.5" y="-191" font-family="Times,serif" font-size="10.00"> bigint </text>
<text text-anchor="start" x="234.5" y="-191" font-family="Times,serif" font-size="10.00"> </text>
<text text-anchor="start" x="245.5" y="-191" font-family="Times,serif" font-size="10.00"> &#160;</text>
<text text-anchor="start" x="256.5" y="-191" font-family="Times,serif" font-size="10.00"> </text>
<text text-anchor="start" x="35.5" y="-176" font-family="Times,serif" font-size="10.00"> date </text>
<text text-anchor="start" x="92.5" y="-176" font-family="Times,serif" font-size="10.00"> timestamp with time zone </text>
<text text-anchor="start" x="234.5" y="-176" font-family="Times,serif" font-size="10.00"> &#160;</text>
<text text-anchor="start" x="245.5" y="-176" font-family="Times,serif" font-size="10.00"> &#160;</text>
<text text-anchor="start" x="256.5" y="-176" font-family="Times,serif" font-size="10.00"> </text>
<text text-anchor="start" x="35.5" y="-161" font-family="Times,serif" font-size="10.00"> type </text>
<text text-anchor="start" x="92.5" y="-161" font-family="Times,serif" font-size="10.00"> string </text>
<text text-anchor="start" x="234.5" y="-161" font-family="Times,serif" font-size="10.00"> &#160;</text>
<text text-anchor="start" x="245.5" y="-161" font-family="Times,serif" font-size="10.00"> &#160;</text>
<text text-anchor="start" x="256.5" y="-161" font-family="Times,serif" font-size="10.00"> </text>
<text text-anchor="start" x="35.5" y="-146" font-family="Times,serif" font-size="10.00"> snapshot </text>
<text text-anchor="start" x="92.5" y="-146" font-family="Times,serif" font-size="10.00"> string </text>
<text text-anchor="start" x="234.5" y="-146" font-family="Times,serif" font-size="10.00"> &#160;</text>
<text text-anchor="start" x="245.5" y="-146" font-family="Times,serif" font-size="10.00"> &#160;</text>
<text text-anchor="start" x="256.5" y="-146" font-family="Times,serif" font-size="10.00"> </text>
<text text-anchor="start" x="35.5" y="-131" font-family="Times,serif" font-size="10.00"> status </text>
<text text-anchor="start" x="92.5" y="-131" font-family="Times,serif" font-size="10.00"> string </text>
<text text-anchor="start" x="234.5" y="-131" font-family="Times,serif" font-size="10.00"> &#160;</text>
<text text-anchor="start" x="245.5" y="-131" font-family="Times,serif" font-size="10.00"> &#160;</text>
<text text-anchor="start" x="256.5" y="-131" font-family="Times,serif" font-size="10.00"> </text>
<polygon fill="none" stroke="black" points="24,-125.5 24,-234.5 263,-234.5 263,-125.5 24,-125.5"/>
</g>
<!-- origin_visit_status&#45;&gt;origin -->
<g id="edge12" class="edge">
<title>origin_visit_status:rtcol1&#45;&gt;origin:ltcol1</title>
<path fill="none" stroke="black" stroke-dasharray="5,2" d="M263.5,-209C322.79,-209 324.63,-148.48 377.42,-141.63"/>
<polygon fill="black" stroke="black" points="377.74,-145.12 387.5,-141 377.3,-138.13 377.74,-145.12"/>
</g>
<!-- snapshot -->
<g id="node11" class="node">
<title>snapshot</title>
<text text-anchor="start" x="393.5" y="-330" font-family="Times,serif" font-size="10.00"> </text>
<polygon fill="#e5e5e5" stroke="transparent" points="399.5,-324 399.5,-341 482.5,-341 482.5,-324 399.5,-324"/>
<polygon fill="none" stroke="black" points="399.5,-324 399.5,-341 482.5,-341 482.5,-324 399.5,-324"/>
<text text-anchor="start" x="414.5" y="-330" font-family="Times,serif" font-size="10.00"> snapshot </text>
<text text-anchor="start" x="401.5" y="-314" font-family="Times,serif" font-size="10.00"> id </text>
<text text-anchor="start" x="421.5" y="-314" font-family="Times,serif" font-size="10.00"> string </text>
<text text-anchor="start" x="462.5" y="-314" font-family="Times,serif" font-size="10.00"> &#160;</text>
<text text-anchor="start" x="473.5" y="-314" font-family="Times,serif" font-size="10.00"> &#160;</text>
<text text-anchor="start" x="484.5" y="-314" font-family="Times,serif" font-size="10.00"> </text>
<polygon fill="none" stroke="black" points="390,-308 390,-342 491,-342 491,-308 390,-308"/>
</g>
<!-- origin_visit_status&#45;&gt;snapshot -->
<g id="edge14" class="edge">
<title>origin_visit_status:rtcol5&#45;&gt;snapshot:ltcol1</title>
<path fill="none" stroke="black" stroke-dasharray="5,2" d="M263.5,-148C321.68,-148 259.2,-231.56 299,-274 327.31,-304.19 384.03,-269.92 393.99,-297.8"/>
<polygon fill="black" stroke="black" points="390.57,-298.62 395.5,-308 397.5,-297.59 390.57,-298.62"/>
</g>
<!-- release -->
<g id="node8" class="node">
<title>release</title>
<text text-anchor="start" x="318.5" y="-537" font-family="Times,serif" font-size="10.00"> </text>
<polygon fill="#e5e5e5" stroke="transparent" points="324.5,-531 324.5,-548 557.5,-548 557.5,-531 324.5,-531"/>
<polygon fill="none" stroke="black" points="324.5,-531 324.5,-548 557.5,-548 557.5,-531 324.5,-531"/>
<text text-anchor="start" x="419.5" y="-537" font-family="Times,serif" font-size="10.00"> release </text>
<text text-anchor="start" x="326.5" y="-521" font-family="Times,serif" font-size="10.00"> id </text>
<text text-anchor="start" x="395.5" y="-521" font-family="Times,serif" font-size="10.00"> string </text>
<text text-anchor="start" x="537.5" y="-521" font-family="Times,serif" font-size="10.00"> </text>
<text text-anchor="start" x="548.5" y="-521" font-family="Times,serif" font-size="10.00"> &#160;</text>
<text text-anchor="start" x="559.5" y="-521" font-family="Times,serif" font-size="10.00"> </text>
<text text-anchor="start" x="326.5" y="-506" font-family="Times,serif" font-size="10.00"> target </text>
<text text-anchor="start" x="395.5" y="-506" font-family="Times,serif" font-size="10.00"> string </text>
<text text-anchor="start" x="537.5" y="-506" font-family="Times,serif" font-size="10.00"> &#160;</text>
<text text-anchor="start" x="548.5" y="-506" font-family="Times,serif" font-size="10.00"> &#160;</text>
<text text-anchor="start" x="559.5" y="-506" font-family="Times,serif" font-size="10.00"> </text>
<text text-anchor="start" x="326.5" y="-491" font-family="Times,serif" font-size="10.00"> date </text>
<text text-anchor="start" x="395.5" y="-491" font-family="Times,serif" font-size="10.00"> timestamp with time zone </text>
<text text-anchor="start" x="537.5" y="-491" font-family="Times,serif" font-size="10.00"> &#160;</text>
<text text-anchor="start" x="548.5" y="-491" font-family="Times,serif" font-size="10.00"> &#160;</text>
<text text-anchor="start" x="559.5" y="-491" font-family="Times,serif" font-size="10.00"> </text>
<text text-anchor="start" x="326.5" y="-476" font-family="Times,serif" font-size="10.00"> date_offset </text>
<text text-anchor="start" x="395.5" y="-476" font-family="Times,serif" font-size="10.00"> smallint </text>
<text text-anchor="start" x="537.5" y="-476" font-family="Times,serif" font-size="10.00"> &#160;</text>
<text text-anchor="start" x="548.5" y="-476" font-family="Times,serif" font-size="10.00"> &#160;</text>
<text text-anchor="start" x="559.5" y="-476" font-family="Times,serif" font-size="10.00"> </text>
<text text-anchor="start" x="326.5" y="-461" font-family="Times,serif" font-size="10.00"> name </text>
<text text-anchor="start" x="395.5" y="-461" font-family="Times,serif" font-size="10.00"> binary </text>
<text text-anchor="start" x="537.5" y="-461" font-family="Times,serif" font-size="10.00"> &#160;</text>
<text text-anchor="start" x="548.5" y="-461" font-family="Times,serif" font-size="10.00"> &#160;</text>
<text text-anchor="start" x="559.5" y="-461" font-family="Times,serif" font-size="10.00"> </text>
<text text-anchor="start" x="326.5" y="-446" font-family="Times,serif" font-size="10.00"> author </text>
<text text-anchor="start" x="395.5" y="-446" font-family="Times,serif" font-size="10.00"> binary </text>
<text text-anchor="start" x="537.5" y="-446" font-family="Times,serif" font-size="10.00"> &#160;</text>
<text text-anchor="start" x="548.5" y="-446" font-family="Times,serif" font-size="10.00"> </text>
<text text-anchor="start" x="559.5" y="-446" font-family="Times,serif" font-size="10.00"> </text>
<text text-anchor="start" x="326.5" y="-431" font-family="Times,serif" font-size="10.00"> target_type </text>
<text text-anchor="start" x="395.5" y="-431" font-family="Times,serif" font-size="10.00"> string </text>
<text text-anchor="start" x="537.5" y="-431" font-family="Times,serif" font-size="10.00"> &#160;</text>
<text text-anchor="start" x="548.5" y="-431" font-family="Times,serif" font-size="10.00"> &#160;</text>
<text text-anchor="start" x="559.5" y="-431" font-family="Times,serif" font-size="10.00"> </text>
<polygon fill="none" stroke="black" points="315,-425 315,-549 566,-549 566,-425 315,-425"/>
</g>
<!-- release&#45;&gt;revision -->
<g id="edge8" class="edge">
<title>release:rtcol2&#45;&gt;revision:ltcol1</title>
<path fill="none" stroke="black" stroke-dasharray="5,2" d="M566.5,-509C616.83,-509 571.73,-714.71 608.64,-743.64"/>
<polygon fill="black" stroke="black" points="607.91,-747.08 618.5,-747 610.17,-740.46 607.91,-747.08"/>
</g>
<!-- revision&#45;&gt;directory -->
<g id="edge9" class="edge">
<title>revision:rtcol7&#45;&gt;directory:ltcol1</title>
<path fill="none" stroke="black" stroke-dasharray="5,2" d="M923.5,-656C988.07,-656 938.33,-537.15 990.4,-524.15"/>
<polygon fill="black" stroke="black" points="990.96,-527.61 1000.5,-523 990.17,-520.65 990.96,-527.61"/>
</g>
<!-- revision_history -->
<g id="node10" class="node">
<title>revision_history</title>
<text text-anchor="start" x="363.5" y="-760" font-family="Times,serif" font-size="10.00"> </text>
<polygon fill="#e5e5e5" stroke="transparent" points="369.5,-754 369.5,-771 511.5,-771 511.5,-754 369.5,-754"/>
<polygon fill="none" stroke="black" points="369.5,-754 369.5,-771 511.5,-771 511.5,-754 369.5,-754"/>
<text text-anchor="start" x="396.5" y="-760" font-family="Times,serif" font-size="10.00"> revision_history </text>
<text text-anchor="start" x="371.5" y="-744" font-family="Times,serif" font-size="10.00"> id </text>
<text text-anchor="start" x="444.5" y="-744" font-family="Times,serif" font-size="10.00"> string </text>
<text text-anchor="start" x="491.5" y="-744" font-family="Times,serif" font-size="10.00"> </text>
<text text-anchor="start" x="502.5" y="-744" font-family="Times,serif" font-size="10.00"> </text>
<text text-anchor="start" x="513.5" y="-744" font-family="Times,serif" font-size="10.00"> </text>
<text text-anchor="start" x="371.5" y="-729" font-family="Times,serif" font-size="10.00"> parent_id </text>
<text text-anchor="start" x="444.5" y="-729" font-family="Times,serif" font-size="10.00"> string </text>
<text text-anchor="start" x="491.5" y="-729" font-family="Times,serif" font-size="10.00"> &#160;</text>
<text text-anchor="start" x="502.5" y="-729" font-family="Times,serif" font-size="10.00"> &#160;</text>
<text text-anchor="start" x="513.5" y="-729" font-family="Times,serif" font-size="10.00"> </text>
<text text-anchor="start" x="371.5" y="-714" font-family="Times,serif" font-size="10.00"> parent_rank </text>
<text text-anchor="start" x="444.5" y="-714" font-family="Times,serif" font-size="10.00"> integer </text>
<text text-anchor="start" x="491.5" y="-714" font-family="Times,serif" font-size="10.00"> </text>
<text text-anchor="start" x="502.5" y="-714" font-family="Times,serif" font-size="10.00"> &#160;</text>
<text text-anchor="start" x="513.5" y="-714" font-family="Times,serif" font-size="10.00"> </text>
<polygon fill="none" stroke="black" points="360.5,-708 360.5,-772 520.5,-772 520.5,-708 360.5,-708"/>
</g>
<!-- revision_history&#45;&gt;revision -->
<g id="edge10" class="edge">
<title>revision_history:rtcol2&#45;&gt;revision:ltcol1</title>
<path fill="none" stroke="black" stroke-dasharray="5,2" d="M520.5,-731C561.01,-731 572.54,-744.48 608.3,-746.69"/>
<polygon fill="black" stroke="black" points="608.4,-750.2 618.5,-747 608.61,-743.2 608.4,-750.2"/>
</g>
<!-- revision_history&#45;&gt;revision -->
<g id="edge13" class="edge">
<title>revision_history:rtcol1&#45;&gt;revision:ltcol1</title>
<path fill="none" stroke="black" stroke-dasharray="5,2" d="M520.5,-747C560.48,-747 572.94,-747 608.4,-747"/>
<polygon fill="black" stroke="black" points="608.5,-750.5 618.5,-747 608.5,-743.5 608.5,-750.5"/>
</g>
<!-- snapshot_branch -->
<g id="node12" class="node">
<title>snapshot_branch</title>
<text text-anchor="start" x="68.5" y="-357" font-family="Times,serif" font-size="10.00"> </text>
<polygon fill="#e5e5e5" stroke="transparent" points="74.5,-351 74.5,-368 212.5,-368 212.5,-351 74.5,-351"/>
<polygon fill="none" stroke="black" points="74.5,-351 74.5,-368 212.5,-368 212.5,-351 74.5,-351"/>
<text text-anchor="start" x="96.5" y="-357" font-family="Times,serif" font-size="10.00"> snapshot_branch </text>
<text text-anchor="start" x="76.5" y="-341" font-family="Times,serif" font-size="10.00"> snapshot_id </text>
<text text-anchor="start" x="148.5" y="-341" font-family="Times,serif" font-size="10.00"> string </text>
<text text-anchor="start" x="192.5" y="-341" font-family="Times,serif" font-size="10.00"> </text>
<text text-anchor="start" x="203.5" y="-341" font-family="Times,serif" font-size="10.00"> &#160;</text>
<text text-anchor="start" x="214.5" y="-341" font-family="Times,serif" font-size="10.00"> </text>
<text text-anchor="start" x="76.5" y="-326" font-family="Times,serif" font-size="10.00"> name </text>
<text text-anchor="start" x="148.5" y="-326" font-family="Times,serif" font-size="10.00"> binary </text>
<text text-anchor="start" x="192.5" y="-326" font-family="Times,serif" font-size="10.00"> &#160;</text>
<text text-anchor="start" x="203.5" y="-326" font-family="Times,serif" font-size="10.00"> &#160;</text>
<text text-anchor="start" x="214.5" y="-326" font-family="Times,serif" font-size="10.00"> </text>
<text text-anchor="start" x="76.5" y="-311" font-family="Times,serif" font-size="10.00"> target </text>
<text text-anchor="start" x="148.5" y="-311" font-family="Times,serif" font-size="10.00"> string </text>
<text text-anchor="start" x="192.5" y="-311" font-family="Times,serif" font-size="10.00"> &#160;</text>
<text text-anchor="start" x="203.5" y="-311" font-family="Times,serif" font-size="10.00"> &#160;</text>
<text text-anchor="start" x="214.5" y="-311" font-family="Times,serif" font-size="10.00"> </text>
<text text-anchor="start" x="76.5" y="-296" font-family="Times,serif" font-size="10.00"> target_type </text>
<text text-anchor="start" x="148.5" y="-296" font-family="Times,serif" font-size="10.00"> string </text>
<text text-anchor="start" x="192.5" y="-296" font-family="Times,serif" font-size="10.00"> &#160;</text>
<text text-anchor="start" x="203.5" y="-296" font-family="Times,serif" font-size="10.00"> &#160;</text>
<text text-anchor="start" x="214.5" y="-296" font-family="Times,serif" font-size="10.00"> </text>
<polygon fill="none" stroke="black" points="65.5,-290.5 65.5,-369.5 221.5,-369.5 221.5,-290.5 65.5,-290.5"/>
</g>
<!-- snapshot_branch&#45;&gt;release -->
<g id="edge1" class="edge">
<title>snapshot_branch:rtcol3&#45;&gt;release:ltcol1</title>
<path fill="none" stroke="black" stroke-dasharray="5,2" d="M221.5,-313C320.55,-313 220.4,-509.42 305.45,-523.24"/>
<polygon fill="black" stroke="black" points="305.26,-526.73 315.5,-524 305.79,-519.75 305.26,-526.73"/>
</g>
<!-- snapshot_branch&#45;&gt;revision -->
<g id="edge2" class="edge">
<title>snapshot_branch:rtcol3&#45;&gt;revision:ltcol1</title>
<path fill="none" stroke="black" stroke-dasharray="5,2" d="M221.5,-313C260.68,-313 262.1,-341.84 299,-355 419.61,-398.01 495.2,-314.87 582,-409 630.71,-461.83 551.43,-719.96 608.58,-745.04"/>
<polygon fill="black" stroke="black" points="608.01,-748.49 618.5,-747 609.37,-741.63 608.01,-748.49"/>
</g>
<!-- snapshot_branch&#45;&gt;snapshot -->
<g id="edge15" class="edge">
<title>snapshot_branch:rtcol1&#45;&gt;snapshot:ltcol1</title>
<path fill="none" stroke="black" stroke-dasharray="5,2" d="M221.5,-344C294.07,-344 312.67,-318.56 380.17,-316.18"/>
<polygon fill="black" stroke="black" points="380.56,-319.67 390.5,-316 380.44,-312.67 380.56,-319.67"/>
</g>
</g>
</svg>
