<!--Generator: Adobe Illustrator 16.0.0, SVG Export Plug-In . SVG Version: 6.00 Build 0)--><svg xmlns="http://www.w3.org/2000/svg" xml:space="preserve" id="cog6" x="0" y="0" viewBox="0 0 96 96"><style>@keyframes spinning-cog4417{0%{transform:rotate(0deg)}to{transform:rotate(360deg)}}</style><path fill="currentColor" d="M87.27 48c0-.98-.076-1.942-.147-2.905 3.842-1.229 6.871-2.402 8.833-3.448l-.704-3.963c-2.202-.317-5.449-.391-9.479-.242a38.5 38.5 0 0 0-2.001-5.469c3.181-2.456 5.62-4.584 7.101-6.23l-2.027-3.484c-2.18.449-5.259 1.483-8.997 2.992a39.4 39.4 0 0 0-3.755-4.466c2.141-3.386 3.699-6.212 4.522-8.261L77.51 9.937c-1.888 1.159-4.417 3.169-7.399 5.845-1.611-1.092-3.325-2.036-5.095-2.884.848-3.917 1.339-7.107 1.406-9.316l-3.809-1.375c-1.379 1.735-3.068 4.493-4.956 8.035-1.879-.473-3.795-.852-5.771-1.045C51.335 5.245 50.7 2.092 50.004 0H45.95c-.695 2.092-1.331 5.245-1.883 9.196-1.976.193-3.892.572-5.77 1.045-1.888-3.542-3.577-6.3-4.956-8.035l-3.809 1.375c.066 2.208.559 5.399 1.406 9.316-1.771.848-3.484 1.792-5.095 2.884-2.983-2.676-5.512-4.687-7.4-5.845l-3.105 2.586c.824 2.049 2.382 4.875 4.523 8.261a39 39 0 0 0-3.755 4.466c-3.739-1.509-6.818-2.543-8.998-2.992l-2.026 3.484c1.48 1.646 3.919 3.774 7.101 6.23a38 38 0 0 0-2.001 5.469c-4.03-.148-7.277-.075-9.479.242L0 41.646c1.961 1.046 4.99 2.219 8.832 3.448-.071.964-.147 1.926-.147 2.906s.076 1.942.147 2.904C4.99 52.135 1.961 53.307 0 54.354l.703 3.963c2.202.317 5.449.391 9.479.242a38 38 0 0 0 2.001 5.469c-3.182 2.456-5.62 4.583-7.101 6.23l2.026 3.484c2.18-.449 5.259-1.483 8.998-2.992a39 39 0 0 0 3.755 4.465c-2.142 3.387-3.699 6.213-4.523 8.263l3.105 2.585c1.889-1.158 4.418-3.168 7.4-5.845 1.61 1.093 3.324 2.036 5.095 2.884-.848 3.917-1.34 7.107-1.406 9.315l3.809 1.376c1.379-1.734 3.068-4.492 4.956-8.035 1.878.474 3.794.853 5.77 1.046.552 3.952 1.188 7.104 1.883 9.196h4.054c.696-2.092 1.331-5.244 1.883-9.196 1.976-.193 3.892-.572 5.771-1.046 1.888 3.543 3.577 6.301 4.956 8.035l3.809-1.376c-.067-2.208-.559-5.398-1.406-9.315 1.77-.848 3.483-1.791 5.095-2.884 2.982 2.677 5.512 4.687 7.399 5.845l3.105-2.585c-.823-2.05-2.382-4.876-4.522-8.263a39.4 39.4 0 0 0 3.755-4.465c3.738 1.509 6.817 2.543 8.997 2.992l2.027-3.484c-1.48-1.647-3.92-3.774-7.101-6.23a38.5 38.5 0 0 0 2.001-5.469c4.029.148 7.276.075 9.479-.242l.704-3.963c-1.962-1.047-4.991-2.219-8.833-3.449.07-.963.147-1.925.147-2.905M62.938 24.666a6.076 6.076 0 0 1 8.548 0 5.97 5.97 0 0 1 0 8.485 6.074 6.074 0 0 1-8.548 0 5.97 5.97 0 0 1 0-8.485M47.978 15c3.339 0 6.045 2.687 6.045 6s-2.706 6-6.045 6-6.045-2.687-6.045-6 2.706-6 6.045-6m-23.51 9.666a6.077 6.077 0 0 1 8.549 0 5.97 5.97 0 0 1 0 8.485 6.076 6.076 0 0 1-8.549 0 5.97 5.97 0 0 1 0-8.485M14.729 48c0-3.314 2.706-6 6.045-6s6.045 2.686 6.045 6-2.706 6-6.045 6-6.045-2.686-6.045-6m18.288 23.334a6.076 6.076 0 0 1-8.549 0 5.97 5.97 0 0 1 0-8.484 6.076 6.076 0 0 1 8.549 0 5.967 5.967 0 0 1 0 8.484M47.978 81c-3.339 0-6.045-2.687-6.045-6s2.706-6 6.045-6 6.045 2.686 6.045 6c-.001 3.313-2.707 6-6.045 6m0-18c-8.347 0-15.113-6.716-15.113-15s6.767-15 15.113-15S63.09 39.716 63.09 48s-6.766 15-15.112 15m23.508 8.334a6.074 6.074 0 0 1-8.548 0 5.966 5.966 0 0 1 0-8.484 6.074 6.074 0 0 1 8.548 0 5.965 5.965 0 0 1 0 8.484M75.18 54c-3.338 0-6.045-2.686-6.045-6s2.707-6 6.045-6 6.045 2.686 6.045 6-2.706 6-6.045 6" style="animation:spinning-cog4417 1.3s infinite ease;transform-origin:50% 50%"/></svg>