<!--Generator: Adobe Illustrator 16.0.0, SVG Export Plug-In . SVG Version: 6.00 Build 0)--><svg xmlns="http://www.w3.org/2000/svg" xml:space="preserve" id="cog4" x="0" y="0" viewBox="0 0 96 96"><style>@keyframes spinning-cog4415{0%{transform:rotate(0deg)}to{transform:rotate(360deg)}}</style><path fill="currentColor" d="M87.311 48c0-.983-.076-1.947-.147-2.912 3.839-1.227 6.879-2.397 8.837-3.441l-.704-3.963c-2.198-.316-5.456-.385-9.481-.236a38 38 0 0 0-2.007-5.48c3.179-2.452 5.629-4.58 7.106-6.225l-2.027-3.484c-2.176.449-5.263 1.491-8.997 2.998a39 39 0 0 0-3.766-4.476c2.14-3.381 3.707-6.211 4.529-8.257l-3.106-2.586c-1.886 1.157-4.419 3.175-7.399 5.849-1.614-1.095-3.332-2.041-5.107-2.891.848-3.912 1.346-7.108 1.413-9.313l-3.811-1.375c-1.377 1.731-3.066 4.499-4.952 8.036-1.884-.475-3.805-.854-5.785-1.047-.553-3.948-1.184-7.109-1.88-9.197h-4.055c-.695 2.088-1.327 5.249-1.878 9.196-1.98.194-3.902.573-5.785 1.047-1.886-3.537-3.575-6.305-4.952-8.036l-3.811 1.375c.066 2.205.565 5.401 1.413 9.313-1.775.85-3.493 1.796-5.108 2.891-2.979-2.674-5.513-4.692-7.398-5.849l-3.106 2.586c.821 2.045 2.39 4.875 4.529 8.257a39.4 39.4 0 0 0-3.766 4.476c-3.734-1.507-6.821-2.549-8.997-2.998l-2.028 3.484c1.479 1.645 3.928 3.772 7.106 6.225a38.5 38.5 0 0 0-2.006 5.48c-4.026-.148-7.283-.08-9.481.236L0 41.646c1.958 1.044 4.998 2.215 8.837 3.441-.072.966-.149 1.93-.149 2.913s.076 1.947.148 2.912C4.998 52.139 1.958 53.309 0 54.354l.704 3.963c2.198.316 5.455.385 9.481.236a38.4 38.4 0 0 0 2.006 5.48c-3.179 2.452-5.628 4.58-7.106 6.225l2.028 3.484c2.176-.448 5.263-1.49 8.997-2.998a39 39 0 0 0 3.766 4.477c-2.141 3.381-3.708 6.211-4.529 8.257l3.106 2.585c1.886-1.156 4.419-3.176 7.398-5.849 1.615 1.095 3.333 2.04 5.108 2.891-.848 3.911-1.347 7.108-1.413 9.312l3.811 1.376c1.377-1.731 3.066-4.499 4.952-8.037 1.883.475 3.805.854 5.785 1.049.551 3.946 1.183 7.107 1.878 9.195h4.055c.695-2.088 1.327-5.249 1.878-9.195 1.98-.194 3.901-.574 5.785-1.049 1.885 3.538 3.575 6.306 4.952 8.037l3.811-1.376c-.067-2.204-.565-5.401-1.413-9.312 1.775-.851 3.493-1.796 5.108-2.891 2.979 2.673 5.513 4.692 7.398 5.849l3.106-2.585c-.822-2.046-2.39-4.876-4.529-8.257a39.4 39.4 0 0 0 3.766-4.477c3.734 1.508 6.821 2.55 8.997 2.998l2.027-3.484c-1.478-1.645-3.928-3.772-7.106-6.225a38.4 38.4 0 0 0 2.007-5.48c4.025.148 7.283.08 9.481-.236L96 54.354c-1.958-1.045-4.998-2.215-8.837-3.441.071-.966.148-1.931.148-2.913M51 18.244c0-1.694 1.556-2.959 3.22-2.641 7.429 1.418 13.966 5.33 18.723 10.829 1.105 1.278.778 3.255-.686 4.1l-.65.375c-1.096.633-2.449.339-3.28-.615-3.85-4.417-9.098-7.577-15.06-8.763C51.973 21.27 51 20.203 51 18.882zm-27.943 8.188c4.758-5.5 11.295-9.41 18.724-10.829 1.662-.318 3.219.947 3.219 2.641v.639c0 1.321-.973 2.388-2.268 2.646-5.961 1.186-11.21 4.347-15.059 8.764-.831.954-2.185 1.247-3.28.614l-.651-.375c-1.463-.845-1.79-2.822-.685-4.1m-1.854 33.576-.464.268a2.7 2.7 0 0 1-3.89-1.444 32.64 32.64 0 0 1 .001-21.663 2.698 2.698 0 0 1 3.89-1.444l.464.268c1.122.648 1.701 2 1.276 3.225C21.525 41.972 21 44.924 21 48s.525 6.028 1.479 8.783c.425 1.225-.154 2.576-1.276 3.225M45 77.756c0 1.693-1.557 2.959-3.22 2.642-7.429-1.419-13.966-5.33-18.724-10.829-1.104-1.278-.777-3.255.686-4.1l.651-.376c1.096-.632 2.449-.339 3.28.615 3.849 4.417 9.098 7.578 15.059 8.765C44.027 74.73 45 75.797 45 77.117zm3-12.662c-9.44 0-17.094-7.653-17.094-17.094S38.56 30.906 48 30.906 65.094 38.56 65.094 48 57.44 65.094 48 65.094m24.942 4.474c-4.757 5.499-11.294 9.41-18.723 10.829-1.663.318-3.219-.948-3.219-2.641v-.639c0-1.32.973-2.387 2.267-2.645 5.962-1.187 11.21-4.348 15.06-8.765.831-.954 2.185-1.247 3.28-.614l.651.375c1.463.845 1.79 2.822.684 4.1m6.207-10.737a2.697 2.697 0 0 1-3.889 1.444l-.464-.268c-1.122-.648-1.701-2-1.277-3.225C74.475 54.028 75 51.076 75 48s-.525-6.028-1.48-8.783c-.424-1.225.155-2.576 1.277-3.225l.464-.268a2.697 2.697 0 0 1 3.889 1.444 32.62 32.62 0 0 1-.001 21.663" style="animation:spinning-cog4415 1.3s infinite ease;transform-origin:50% 50%"/></svg>