<!--Generator: Adobe Illustrator 16.0.0, SVG Export Plug-In . SVG Version: 6.00 Build 0)--><svg xmlns="http://www.w3.org/2000/svg" xml:space="preserve" id="cog14" x="0" y="0" viewBox="0 0 96 96"><style>@keyframes spinning-cog4425{0%{transform:rotate(0deg)}to{transform:rotate(360deg)}}</style><path fill="currentColor" d="M48 30c-9.941 0-18 8.059-18 18s8.059 18 18 18 18-8.059 18-18-8.059-18-18-18m0 24a6 6 0 1 1 0-12 6 6 0 0 1 0 12m48-1.646v-8.707c-2.688-1.241-8.469-2.301-15.876-3.095a32.8 32.8 0 0 0-4.147-9.994c4.679-5.801 8.02-10.641 9.043-13.42l-6.157-6.157c-2.779 1.024-7.618 4.364-13.42 9.043a32.8 32.8 0 0 0-9.994-4.147C54.654 8.469 53.595 2.688 52.354 0h-8.707c-1.241 2.688-2.301 8.469-3.095 15.876a32.8 32.8 0 0 0-10.594 4.512c-3.86-2.893-7.97-5.85-12.821-9.407l-6.156 6.157c3.557 4.851 6.514 8.96 9.406 12.82a32.8 32.8 0 0 0-4.688 11.276C10.93 41.919 5.938 42.732 0 43.646v8.707c5.938.914 10.93 1.728 15.699 2.412a32.8 32.8 0 0 0 4.688 11.276c-2.893 3.86-5.85 7.97-9.406 12.821l6.156 6.156c4.852-3.558 8.961-6.514 12.821-9.406A32.8 32.8 0 0 0 41.234 80.3c.685 4.77 1.498 9.761 2.412 15.699h8.707c.914-5.938 1.728-10.93 2.412-15.699 3.854-.805 7.443-2.305 10.677-4.324 5.802 4.679 10.641 8.02 13.42 9.043l6.157-6.156c-1.023-2.78-4.364-7.619-9.043-13.421a32.8 32.8 0 0 0 4.147-9.994c7.408-.794 13.189-1.853 15.877-3.094M48 72c-13.255 0-24-10.745-24-24s10.745-24 24-24 24 10.745 24 24-10.745 24-24 24" style="animation:spinning-cog4425 1.3s infinite ease;transform-origin:50% 50%"/></svg>