<!--Generator: Adobe Illustrator 16.0.0, SVG Export Plug-In . SVG Version: 6.00 Build 0)--><svg xmlns="http://www.w3.org/2000/svg" xml:space="preserve" id="cog13" x="0" y="0" viewBox="0 0 96 96"><style>@keyframes spinning-cog4424{0%{transform:rotate(0deg)}to{transform:rotate(360deg)}}</style><path fill="currentColor" d="M96 52.354v-8.707c-2.684-1.239-8.48-2.291-15.873-3.083a32.7 32.7 0 0 0-4.156-10.017c4.67-5.79 8.026-10.636 9.049-13.41l-6.156-6.158c-2.774 1.022-7.62 4.379-13.41 9.049a32.8 32.8 0 0 0-10.016-4.157c-.793-7.394-1.845-13.189-3.084-15.874h-8.707c-1.239 2.685-2.292 8.48-3.084 15.874a32.8 32.8 0 0 0-10.607 4.516c-3.861-2.894-7.967-5.852-12.818-9.41l-6.156 6.158c3.557 4.851 6.515 8.957 9.408 12.818a32.8 32.8 0 0 0-4.689 11.281c-4.773.687-9.763 1.498-15.701 2.412v8.708c5.938.914 10.928 1.726 15.699 2.408a32.8 32.8 0 0 0 4.689 11.281c-2.894 3.861-5.852 7.969-9.408 12.819l6.156 6.156c4.852-3.557 8.958-6.515 12.818-9.408a32.8 32.8 0 0 0 11.282 4.689c.684 4.771 1.495 9.762 2.409 15.699h8.707c.914-5.938 1.726-10.928 2.408-15.699 3.859-.804 7.453-2.307 10.689-4.33 5.791 4.67 10.636 8.026 13.41 9.049l6.158-6.156c-1.022-2.774-4.381-7.621-9.05-13.411a32.7 32.7 0 0 0 4.156-10.016c7.397-.79 13.193-1.843 15.877-3.081M48 72c-13.255 0-24-10.745-24-24s10.745-24 24-24 24 10.745 24 24-10.745 24-24 24" style="animation:spinning-cog4424 1.3s infinite ease;transform-origin:50% 50%"/></svg>