<!--Generator: Adobe Illustrator 16.0.0, SVG Export Plug-In . SVG Version: 6.00 Build 0)--><svg xmlns="http://www.w3.org/2000/svg" xml:space="preserve" id="cog18" x="0" y="0" viewBox="0 0 96 96"><style>@keyframes spinning-cog4429{0%{transform:rotate(0deg)}to{transform:rotate(360deg)}}</style><path fill="currentColor" d="M96 52.354v-8.707c-3.77-1.74-13.591-3.127-25.494-3.918q-.336-.916-.741-1.796c7.856-8.976 13.82-16.9 15.255-20.795l-6.157-6.157c-3.895 1.435-11.819 7.398-20.795 15.255a24 24 0 0 0-1.797-.741C55.48 13.591 54.093 3.769 52.354 0h-8.707c-1.74 3.769-3.127 13.591-3.918 25.494q-1.066.393-2.083.88C31.36 21.246 25.29 16.958 17.138 10.98l-6.157 6.157c5.978 8.151 10.265 14.222 15.394 20.508a24 24 0 0 0-.99 2.384c-8.072.82-15.395 2.08-25.385 3.617v8.707c9.99 1.537 17.313 2.798 25.384 3.617q.433 1.224.99 2.384C21.245 64.64 16.958 70.71 10.98 78.862l6.157 6.157c8.151-5.979 14.222-10.266 20.508-15.394q1.159.557 2.384.99c.819 8.07 2.08 15.394 3.617 25.384h8.707c1.537-9.99 2.798-17.313 3.616-25.384a24 24 0 0 0 2.098-.853c8.976 7.857 16.9 13.821 20.795 15.256l6.157-6.157c-1.435-3.895-7.398-11.819-15.255-20.795q.406-.88.741-1.796C82.409 55.48 92.23 54.094 96 52.354" style="animation:spinning-cog4429 1.3s infinite ease;transform-origin:50% 50%"/></svg>