<!--Generator: Adobe Illustrator 16.0.0, SVG Export Plug-In . SVG Version: 6.00 Build 0)--><svg xmlns="http://www.w3.org/2000/svg" xml:space="preserve" id="cog20_new" x="0" y="0" viewBox="0 0 96 96"><style>@keyframes spinning-cog4431{0%{transform:rotate(0deg)}to{transform:rotate(360deg)}}</style><path fill="currentColor" d="M44.152 5.942h7.698c.772 1.692 1.379 4.604 1.96 8.603.115.76.224 1.578.318 2.404a30.6 30.6 0 0 1 8.842 3.261c.596-.565 1.197-1.123 1.765-1.638 2.979-2.678 5.462-4.596 7.112-5.386l5.848 4.82c-.481 1.796-1.972 4.712-4.05 8.153-.409.662-.845 1.367-1.299 2.07a31.8 31.8 0 0 1 4.691 8.248c.828-.033 1.647-.078 2.417-.093 1.169-.033 2.294-.054 3.345-.054 2.519 0 4.61.117 5.858.455l1.354 7.694c-1.649 1.163-5.322 2.482-9.636 3.886-.384.123-.811.247-1.214.379a32 32 0 0 1-1.849 10.039l.132.102c3.955 3.204 6.89 5.6 8.67 7.046l-3.867 6.567c-3.753-1.479-7.146-2.806-10.242-4.036-.051-.021-.089-.043-.145-.064a31.6 31.6 0 0 1-8.223 7c.003.053.015.109.027.163.658 3.311 1.285 6.602 2.064 10.612l-7.19 2.564c-1.939-3.573-3.511-6.427-5.093-9.392a2 2 0 0 1-.081-.151c-1.747.305-3.531.5-5.364.5-1.834 0-3.618-.195-5.363-.5a2 2 0 0 1-.082.151c-1.583 2.965-3.154 5.819-5.086 9.393l-7.199-2.564c.791-4.012 1.407-7.303 2.065-10.613q.02-.082.036-.163a31.6 31.6 0 0 1-8.231-7l-.139.064c-3.099 1.23-6.506 2.547-10.253 4.024L9.886 65.94c3.137-2.555 6.073-4.945 8.671-7.056.045-.031.089-.068.134-.102a32 32 0 0 1-1.851-10.039c-.403-.132-.829-.256-1.213-.379-4.307-1.403-7.969-2.975-9.616-4.138l1.283-7.271c1.45-.396 4.062-.604 7.142-.604.685 0 1.393.011 2.116.031.765.015 1.585.06 2.414.093a31.9 31.9 0 0 1 4.689-8.248 88 88 0 0 1-1.288-2.07c-2.088-3.44-3.541-6.394-4.025-8.189l5.812-4.784c1.663.79 4.135 2.708 7.112 5.386.568.515 1.17 1.073 1.774 1.638a30.5 30.5 0 0 1 8.832-3.261c.107-.827.205-1.644.318-2.404.584-3.997 1.19-6.909 1.962-8.601m0-6a6 6 0 0 0-5.458 3.508c-.876 1.918-1.553 4.576-2.212 8.729q-1.211.399-2.391.88c-3.085-2.689-5.442-4.381-7.363-5.293a6 6 0 0 0-6.387.787l-5.811 4.784a6 6 0 0 0-1.98 6.195c.693 2.57 2.403 5.847 3.944 8.488a38 38 0 0 0-1.332 2.337 59 59 0 0 0-.726-.004c-3.804 0-6.738.274-8.72.814a6 6 0 0 0-4.331 4.747L.102 43.185a6 6 0 0 0 2.448 5.943c2.204 1.556 5.757 3.018 8.632 4.055q.237 1.738.635 3.448l-5.72 4.656a6 6 0 0 0-1.378 7.701l3.862 6.546a6 6 0 0 0 7.368 2.533 1636 1636 0 0 1 4.812-1.887l1.803-.705q1.498 1.419 3.152 2.671l-.288 1.492c-.324 1.679-.664 3.442-1.045 5.373a6 6 0 0 0 3.873 6.813l7.199 2.564a6 6 0 0 0 7.292-2.798c.746-1.38 1.438-2.652 2.098-3.865l1.138-2.095a33 33 0 0 0 4.035 0l1.465 2.691c.564 1.035 1.154 2.118 1.783 3.276a6 6 0 0 0 5.274 3.139 6 6 0 0 0 2.015-.35l7.19-2.564a6 6 0 0 0 3.874-6.796l-.718-3.71-.614-3.171a37 37 0 0 0 3.147-2.668l2.999 1.18 3.614 1.421a6 6 0 0 0 7.369-2.537l3.867-6.567a6 6 0 0 0-1.387-7.702l-1.921-1.562c-1.062-.863-2.328-1.896-3.791-3.084q.393-1.694.63-3.416c4.521-1.546 6.971-2.642 8.653-3.828a6 6 0 0 0 2.451-5.942l-1.354-7.694a6 6 0 0 0-4.343-4.753c-1.697-.459-3.987-.663-7.425-.663-.611 0-1.261.006-1.961.019a38 38 0 0 0-1.323-2.323c2.115-3.614 3.419-6.392 3.975-8.466a6 6 0 0 0-1.979-6.184l-5.848-4.82a6 6 0 0 0-6.407-.782c-1.247.597-3.332 1.79-7.345 5.285a37 37 0 0 0-2.392-.88c-.654-4.137-1.332-6.802-2.212-8.729a6 6 0 0 0-5.458-3.508z" style="animation:spinning-cog4431 1.3s infinite ease;transform-origin:50% 50%"/><path fill="currentColor" d="M48.001 36C54.618 36 60 41.383 60 48c0 6.616-5.382 11.999-11.999 11.999S36 54.616 36 48s5.384-12 12.001-12M48 30c-9.94 0-18 8.059-18 18 0 9.94 8.06 18 18 18s18-8.06 18-18c0-9.941-8.06-18-18-18"/></svg>