<svg xmlns="http://www.w3.org/2000/svg" width="24" height="24" viewBox="0 0 24 24"><style>@keyframes spinner_rcyq{0%{transform:translate(12px,12px) scale(0);opacity:1}to{transform:translate(0,0) scale(1);opacity:0}}.spinner_l9ve{animation:spinner_rcyq 1.2s cubic-bezier(.52,.6,.25,.99) infinite}</style><path d="M12 1a11 11 0 1 0 11 11A11 11 0 0 0 12 1m0 20a9 9 0 1 1 9-9 9 9 0 0 1-9 9" class="spinner_l9ve" style="animation-delay:.4s" transform="matrix(0 0 0 0 12 12)"/><path d="M12 1a11 11 0 1 0 11 11A11 11 0 0 0 12 1m0 20a9 9 0 1 1 9-9 9 9 0 0 1-9 9" class="spinner_l9ve" style="animation-delay:.8s" transform="matrix(0 0 0 0 12 12)"/></svg>