# Blender v2.93.11 OBJ File: 'Move_Mo_urdf_robot_textures.blend'
# www.blender.org
mtllib MoveBotMaterial.mtl
o visual_0_L_sblade
v 0.014770 0.006129 -0.102777
v -0.006897 0.027641 -0.114990
v 0.013022 0.005771 -0.098862
v 0.031898 0.001960 -0.095005
v -0.015276 0.040477 -0.111795
v -0.003888 0.030159 -0.107454
v 0.004924 0.036376 -0.109251
v -0.024443 0.056977 -0.102982
v -0.024531 0.055074 -0.099422
v -0.005987 0.048865 -0.107747
v 0.056648 0.010332 -0.081235
v 0.053851 0.009465 -0.077830
v -0.013990 0.061423 -0.103100
v -0.031686 0.070954 -0.087252
v -0.020635 0.075254 -0.087212
v 0.006637 0.066787 -0.087370
v 0.055033 0.017770 -0.082080
v 0.026695 0.054260 -0.084843
v 0.035152 0.013493 -0.094044
v 0.020952 0.017560 -0.102210
v 0.082621 0.038261 -0.061571
v 0.042687 0.039371 -0.083045
v -0.021782 0.093230 -0.063049
v 0.080465 0.046599 -0.061492
v -0.038227 0.089807 -0.062047
v -0.032755 0.089104 -0.055045
v -0.039065 0.092071 -0.057591
v 0.047036 0.074498 -0.061692
v 0.085572 0.041854 -0.057390
v -0.021782 0.095899 -0.057878
v -0.040551 0.097933 -0.041355
v 0.083526 0.050855 -0.056666
v 0.089903 0.050662 -0.040402
v 0.002251 0.092342 -0.061539
v 0.066380 0.064900 -0.060760
v 0.002418 0.094428 -0.057742
v 0.087765 0.058151 -0.040288
v 0.068814 0.066974 -0.057070
v -0.034693 0.096054 -0.015508
v -0.021516 0.101957 -0.041393
v -0.041466 0.100694 -0.021061
v 0.022285 0.088656 -0.061614
v 0.092493 0.052797 -0.018989
v 0.049303 0.076704 -0.057491
v 0.023742 0.090872 -0.057169
v 0.073521 0.073031 -0.040592
v 0.084945 0.059353 -0.013066
v 0.090460 0.059974 -0.018863
v 0.003400 0.100357 -0.040757
v -0.041024 0.097995 -0.002747
v 0.028251 -0.010425 0.063546
v -0.020374 0.104921 -0.020581
v 0.054050 0.083721 -0.040388
v 0.000076 0.003996 0.091127
v 0.072614 0.029553 0.038544
v -0.011299 0.016329 0.096652
v 0.025240 0.096432 -0.040370
v 0.091597 0.049611 0.000684
v 0.036961 0.000713 0.063064
v 0.076815 0.076611 -0.019004
v -0.022077 0.101626 -0.001374
v 0.089243 0.057026 0.001492
v -0.023788 0.033147 0.089477
v 0.010989 0.009497 0.088174
v -0.038938 0.091594 0.017933
v 0.082142 0.041439 0.020081
v 0.005443 0.102824 -0.020211
v -0.032776 0.063133 0.057998
v -0.023688 0.034394 0.093818
v 0.000417 0.022832 0.094859
v 0.067828 0.033452 0.040764
v 0.086269 0.042569 0.021942
v 0.057861 0.086847 -0.019191
v 0.076744 0.075703 0.002657
v -0.032021 0.067570 0.061791
v -0.029096 0.055727 0.073752
v 0.027941 0.098499 -0.020062
v 0.084112 0.050241 0.023549
v 0.004304 0.099901 0.000603
v -0.012054 0.040231 0.092796
v -0.023373 0.094073 0.020608
v 0.046981 0.046913 0.049511
v -0.020277 0.062899 0.068535
v -0.022732 0.069666 0.061773
v 0.072368 0.069807 0.026134
v 0.005324 0.064663 0.058625
v -0.013843 0.068052 0.061292
v 0.033104 0.055288 0.055133
v 0.002734 0.092552 0.023806
v 0.057878 0.086735 0.002020
v 0.027387 0.096316 0.001121
v 0.054275 0.080366 0.025293
v 0.025575 0.089895 0.024565
v -0.033625 0.091770 0.006824
v 0.086209 0.057351 0.000080
v 0.002011 0.008178 0.087230
v 0.029403 -0.000421 0.062760
v -0.006578 0.020308 0.092718
v 0.029633 0.002246 -0.090310
v -0.015559 0.039445 -0.106872
v -0.030562 0.067676 -0.083350
v -0.037450 0.085181 -0.059538
v -0.038252 0.087147 -0.055815
v -0.040519 0.095499 -0.021280
v -0.038001 0.086333 0.016558
v 0.086694 0.051843 -0.019061
v -0.011952 0.016622 0.092160
v -0.002917 0.003815 0.085676
v 0.027102 -0.008547 0.060118
v -0.040299 0.093640 -0.040281
v -0.040789 0.093634 -0.003750
v -0.028749 0.053076 0.069649
v -0.007949 0.026936 -0.110213
v 0.068003 0.029934 0.033970
v 0.086062 0.048475 -0.000578
v 0.084936 0.049929 -0.039030
v 0.080921 0.041550 -0.054931
v 0.078507 0.038348 -0.058713
v 0.051806 0.015048 -0.076440
v 0.030039 0.007346 -0.089119
v 0.015228 0.010999 -0.096248
v -0.011415 0.041667 -0.104977
v -0.019351 0.056761 -0.097361
v -0.025800 0.069548 -0.082400
v -0.032542 0.087291 -0.058669
v -0.034593 0.094786 -0.039731
v -0.031111 0.080979 0.028572
v -0.023261 0.054701 0.068097
v 0.066807 0.041905 0.034802
v 0.079364 0.050784 0.020274
v 0.083465 0.058185 -0.030177
v 0.079778 0.050298 -0.049359
v 0.076834 0.045253 -0.057483
v -0.026610 0.066177 0.057939
v -0.018077 0.036060 0.090115
v -0.033414 0.094112 -0.039941
v -0.024387 0.087156 -0.055400
v -0.014967 0.079882 -0.065605
v -0.004043 0.069105 -0.071018
v 0.009777 0.056861 -0.074024
v 0.038553 0.042547 -0.071818
v 0.055775 0.039150 -0.067621
v -0.032810 0.094046 -0.011248
v -0.023979 0.092008 -0.014619
v -0.013266 0.090063 -0.019886
v -0.002769 0.086232 -0.025466
v 0.015680 0.078314 -0.034461
v 0.048209 0.061189 -0.047882
v 0.063951 0.052165 -0.050869
v -0.031499 0.086167 0.014271
v -0.024335 0.079646 0.022827
v -0.013283 0.075435 0.022246
v -0.003575 0.072875 0.017194
v 0.019089 0.072694 0.003241
v 0.055995 0.070375 -0.016253
v 0.071103 0.062224 -0.023638
v -0.028490 0.072414 0.037470
v -0.022737 0.059940 0.053628
v -0.011584 0.050934 0.055393
v -0.002578 0.046838 0.050404
v 0.022929 0.051264 0.032150
v 0.061336 0.059878 0.010650
v 0.075415 0.058884 0.000281
vt 0.037109 0.021484
vt 0.037109 0.021484
vt 0.037109 0.021484
vt 0.037109 0.021484
vt 0.037109 0.021484
vt 0.037109 0.021484
vt 0.037109 0.021484
vt 0.037109 0.021484
vt 0.037109 0.021484
vt 0.037109 0.021484
vt 0.037109 0.021484
vt 0.037109 0.021484
vt 0.037109 0.021484
vt 0.037109 0.021484
vt 0.037109 0.021484
vt 0.037109 0.021484
vt 0.037109 0.021484
vt 0.037109 0.021484
vt 0.037109 0.021484
vt 0.037109 0.021484
vt 0.037109 0.021484
vt 0.037109 0.021484
vt 0.037109 0.021484
vt 0.037109 0.021484
vt 0.037109 0.021484
vt 0.037109 0.021484
vt 0.037109 0.021484
vt 0.037109 0.021484
vt 0.037109 0.021484
vt 0.037109 0.021484
vt 0.037109 0.021484
vt 0.037109 0.021484
vt 0.037109 0.021484
vt 0.037109 0.021484
vt 0.037109 0.021484
vt 0.037109 0.021484
vt 0.037109 0.021484
vt 0.037109 0.021484
vt 0.037109 0.021484
vt 0.037109 0.021484
vt 0.037109 0.021484
vt 0.037109 0.021484
vt 0.037109 0.021484
vt 0.037109 0.021484
vt 0.037109 0.021484
vt 0.037109 0.021484
vt 0.037109 0.021484
vt 0.037109 0.021484
vt 0.037109 0.021484
vt 0.037109 0.021484
vt 0.037109 0.021484
vt 0.037109 0.021484
vt 0.037109 0.021484
vt 0.037109 0.021484
vt 0.037109 0.021484
vt 0.037109 0.021484
vt 0.037109 0.021484
vt 0.037109 0.021484
vt 0.037109 0.021484
vt 0.037109 0.021484
vt 0.037109 0.021484
vt 0.037109 0.021484
vt 0.037109 0.021484
vt 0.037109 0.021484
vt 0.037109 0.021484
vt 0.037109 0.021484
vt 0.037109 0.021484
vt 0.037109 0.021484
vt 0.037109 0.021484
vt 0.037109 0.021484
vt 0.037109 0.021484
vt 0.037109 0.021484
vt 0.037109 0.021484
vt 0.037109 0.021484
vt 0.037109 0.021484
vt 0.037109 0.021484
vt 0.037109 0.021484
vt 0.037109 0.021484
vt 0.037109 0.021484
vt 0.037109 0.021484
vt 0.037109 0.021484
vt 0.037109 0.021484
vt 0.037109 0.021484
vt 0.037109 0.021484
vt 0.037109 0.021484
vt 0.037109 0.021484
vt 0.037109 0.021484
vt 0.037109 0.021484
vt 0.037109 0.021484
vt 0.037109 0.021484
vt 0.037109 0.021484
vt 0.037109 0.021484
vt 0.037109 0.021484
vt 0.037109 0.021484
vt 0.037109 0.021484
vt 0.037109 0.021484
vt 0.037109 0.021484
vt 0.037109 0.021484
vt 0.037109 0.021484
vt 0.037109 0.021484
vt 0.037109 0.021484
vt 0.037109 0.021484
vt 0.037109 0.021484
vt 0.037109 0.021484
vt 0.037109 0.021484
vt 0.037109 0.021484
vt 0.037109 0.021484
vt 0.037109 0.021484
vt 0.037109 0.021484
vt 0.037109 0.021484
vt 0.037109 0.021484
vt 0.037109 0.021484
vt 0.037109 0.021484
vt 0.037109 0.021484
vt 0.037109 0.021484
vt 0.037109 0.021484
vt 0.037109 0.021484
vt 0.037109 0.021484
vt 0.037109 0.021484
vt 0.037109 0.021484
vt 0.037109 0.021484
vt 0.037109 0.021484
vt 0.037109 0.021484
vt 0.037109 0.021484
vt 0.037109 0.021484
vt 0.037109 0.021484
vt 0.037109 0.021484
vt 0.037109 0.021484
vt 0.037109 0.021484
vt 0.037109 0.021484
vt 0.037109 0.021484
vt 0.037109 0.021484
vt 0.037109 0.021484
vt 0.037109 0.021484
vt 0.037109 0.021484
vt 0.037109 0.021484
vt 0.037109 0.021484
vt 0.037109 0.021484
vt 0.037109 0.021484
vt 0.037109 0.021484
vt 0.037109 0.021484
vt 0.037109 0.021484
vt 0.037109 0.021484
vt 0.037109 0.021484
vt 0.037109 0.021484
vt 0.037109 0.021484
vt 0.037109 0.021484
vt 0.037109 0.021484
vt 0.037109 0.021484
vt 0.037109 0.021484
vt 0.037109 0.021484
vt 0.037109 0.021484
vt 0.037109 0.021484
vt 0.037109 0.021484
vt 0.037109 0.021484
vt 0.037109 0.021484
vt 0.037109 0.021484
vt 0.037109 0.021484
vt 0.037109 0.021484
vt 0.037109 0.021484
vt 0.037109 0.021484
vt 0.037109 0.021484
vt 0.037109 0.021484
vn -0.3172 -0.3467 -0.8827
vn -0.0470 -0.7079 -0.7047
vn -0.5866 -0.7162 0.3779
vn -0.7546 -0.5923 0.2822
vn 0.3961 0.2593 -0.8808
vn 0.4628 0.0562 -0.8846
vn -0.5631 -0.0710 -0.8233
vn -0.7126 -0.5677 0.4121
vn -0.2336 -0.8203 0.5220
vn 0.3170 -0.7638 -0.5622
vn 0.2139 0.4720 -0.8552
vn -0.6896 -0.6370 0.3444
vn -0.7223 0.1343 -0.6783
vn 0.0551 0.6213 -0.7816
vn 0.0393 -0.7487 0.6617
vn 0.6696 -0.6500 -0.3592
vn -0.8188 0.2755 -0.5035
vn -0.5741 -0.7276 0.3754
vn -0.0385 0.7429 -0.6683
vn 0.3168 0.6315 -0.7077
vn 0.4309 0.4516 -0.7813
vn -0.5630 -0.7491 0.3489
vn -0.8030 0.4193 -0.4234
vn -0.0103 -0.6631 0.7484
vn 0.8172 -0.4971 -0.2917
vn 0.4880 0.0522 -0.8713
vn 0.5077 0.1232 -0.8527
vn -0.0583 0.8311 -0.5530
vn 0.5844 0.2691 -0.7655
vn 0.4570 0.3144 -0.8320
vn 0.4374 0.4983 -0.7486
vn 0.1256 0.8137 -0.5675
vn -0.5829 -0.7700 0.2592
vn -0.8002 0.5040 -0.3250
vn 0.2762 0.7381 -0.6156
vn 0.3868 0.6054 -0.6955
vn -0.0714 0.9115 -0.4051
vn -0.6510 -0.7473 0.1330
vn -0.7913 0.5808 -0.1907
vn -0.2424 -0.7671 0.5940
vn 0.8806 -0.4518 -0.1426
vn 0.7443 0.4021 -0.5332
vn -0.0673 0.9685 -0.2398
vn 0.8975 -0.4388 -0.0433
vn -0.3977 -0.8470 0.3527
vn 0.1120 0.9073 -0.4053
vn 0.5158 0.6550 -0.5521
vn 0.8340 0.4738 -0.2827
vn -0.6365 -0.7713 0.0024
vn -0.7977 0.6031 -0.0009
vn 0.1221 0.9646 -0.2335
vn 0.2958 0.8540 -0.4279
vn 0.4041 0.7669 -0.4986
vn 0.8859 -0.4613 -0.0485
vn -0.5530 -0.8328 0.0264
vn -0.0582 0.9982 0.0096
vn 0.5848 0.7463 -0.3178
vn 0.8831 0.4676 -0.0389
vn -0.7936 0.5837 0.1717
vn 0.2848 0.9244 -0.2536
vn -0.2732 -0.5890 -0.7605
vn 0.2465 -0.9303 0.2716
vn -0.1317 -0.7208 0.6804
vn -0.7273 -0.4087 -0.5513
vn -0.5398 -0.7971 -0.2704
vn 0.8887 -0.4582 0.0132
vn -0.2120 -0.5248 -0.8244
vn 0.7809 -0.5728 0.2491
vn 0.4209 0.8560 -0.3002
vn 0.1259 0.9920 0.0049
vn -0.6763 -0.4405 -0.5904
vn -0.3923 -0.4076 0.8245
vn 0.8646 -0.4448 0.2336
vn -0.2782 -0.7521 -0.5973
vn 0.6409 0.7640 -0.0747
vn -0.0777 0.9694 0.2330
vn 0.8914 0.4079 0.1975
vn 0.6379 -0.1782 0.7491
vn 0.6357 0.0593 0.7696
vn -0.7755 0.5426 0.3225
vn -0.0899 0.9045 0.4168
vn -0.6684 -0.5639 -0.4850
vn -0.6871 0.0280 0.7260
vn 0.7734 0.3013 0.5576
vn 0.3537 0.1858 0.9167
vn 0.5363 -0.1347 0.8332
vn 0.2716 0.9619 -0.0321
vn -0.7263 -0.6420 -0.2453
vn -0.6210 -0.5657 -0.5425
vn -0.7341 0.4586 0.5007
vn -0.6201 -0.7451 -0.2454
vn -0.6523 -0.6645 -0.3646
vn 0.4216 0.9034 -0.0774
vn -0.7656 0.3368 0.5481
vn -0.6043 -0.6533 -0.4559
vn 0.6683 0.7210 0.1830
vn 0.0956 0.9699 0.2237
vn 0.1071 0.5309 0.8406
vn -0.0524 0.7905 0.6102
vn 0.0146 0.7182 0.6957
vn 0.0866 0.8893 0.4490
vn 0.2135 0.8496 0.4823
vn 0.2291 0.9549 0.1888
vn 0.6039 0.5548 0.5722
vn 0.5387 0.2819 0.7939
vn 0.1339 0.7803 0.6109
vn 0.4011 0.9010 0.1652
vn 0.2550 0.6958 0.6714
vn 0.3770 0.7576 0.5328
vn 0.4324 0.4958 0.7531
vn -0.3463 -0.8922 -0.2898
vn -0.3862 -0.8335 -0.3951
vn -0.6782 -0.7262 -0.1123
vn -0.4970 -0.2556 0.8292
vn -0.4642 -0.3540 0.8119
vn -0.4090 -0.2731 0.8707
vn -0.3730 -0.2729 0.8868
vn -0.3464 -0.5319 0.7727
vn -0.2257 -0.6796 0.6980
vn 0.0121 -0.7951 0.6063
vn 0.0179 -0.8593 0.5112
vn -0.2635 -0.8996 0.3481
vn -0.2748 -0.9446 0.1796
vn -0.3148 -0.9476 -0.0531
vn -0.4684 -0.7617 -0.4476
vn -0.3919 -0.7378 -0.5495
vn -0.1943 -0.5803 -0.7908
vn -0.4038 -0.2319 -0.8850
vn -0.5229 0.0382 -0.8515
vn -0.5849 -0.0122 -0.8109
vn -0.4375 -0.4099 -0.8003
vn -0.6953 -0.7179 -0.0320
vn -0.6148 -0.7555 0.2263
vn -0.4970 -0.7119 0.4961
vn -0.4140 -0.5546 0.7218
vn -0.5478 -0.8263 0.1303
vn -0.6155 -0.7796 -0.1156
vn -0.6713 -0.7031 -0.2342
vn -0.7237 -0.6329 -0.2751
vn -0.2505 -0.9084 0.3346
vn -0.3627 -0.9263 -0.1021
vn -0.3395 -0.8398 -0.4235
vn -0.6440 -0.6706 -0.3681
vn -0.3143 -0.8423 0.4378
vn -0.3824 -0.9228 -0.0464
vn -0.4328 -0.7987 -0.4180
vn -0.6062 -0.6572 -0.4477
vn -0.4520 -0.7411 0.4964
vn -0.4018 -0.9147 0.0434
vn -0.3947 -0.8198 -0.4149
vn -0.5608 -0.6276 -0.5399
vn -0.4338 -0.6572 0.6163
vn -0.3151 -0.9214 0.2273
vn -0.2621 -0.9149 -0.3069
vn -0.2744 -0.7178 -0.6398
vn -0.3778 -0.5522 0.7431
vn -0.3027 -0.8425 0.4455
vn -0.3026 -0.9520 -0.0469
vn -0.2087 -0.8487 -0.4859
vn -0.3341 -0.4822 0.8098
vn -0.2168 -0.8175 0.5336
vn -0.2767 -0.9497 0.1463
vn -0.2375 -0.9390 -0.2488
usemtl MoveBotMaterial
s 1
f 2/1/1 1/2/2 3/3/3 113/4/4
f 7/5/5 20/6/6 1/2/2 2/1/1
f 5/7/7 2/1/1 113/4/4 100/8/8
f 99/9/9 3/3/3 1/2/2 4/10/10
f 7/5/5 2/1/1 5/7/7 10/11/11
f 5/7/7 100/8/8 9/12/12 8/13/13
f 10/11/11 5/7/7 8/13/13 13/14/14
f 12/15/15 99/9/9 4/10/10 11/16/16
f 14/17/17 8/13/13 9/12/12 101/18/18
f 15/19/19 13/14/14 8/13/13 14/17/17
f 7/5/5 10/11/11 16/20/20 18/21/21
f 16/20/20 10/11/11 13/14/14 15/19/19
f 14/17/17 101/18/18 102/22/22 25/23/23
f 118/24/24 12/15/15 11/16/16 21/25/25
f 19/26/26 17/27/27 11/16/16 4/10/10
f 20/6/6 19/26/26 4/10/10 1/2/2
f 15/19/19 14/17/17 25/23/23 23/28/28
f 21/25/25 11/16/16 17/27/27 24/29/29
f 17/27/27 22/30/30 35/31/31 24/29/29
f 34/32/32 16/20/20 15/19/19 23/28/28
f 25/23/23 102/22/22 103/33/33 27/34/34
f 18/21/21 16/20/20 42/35/35 28/36/36
f 22/30/30 18/21/21 28/36/36 35/31/31
f 25/23/23 27/34/34 30/37/37 23/28/28
f 27/34/34 103/33/33 110/38/38 31/39/39
f 117/40/40 118/24/24 21/25/25 29/41/41
f 29/41/41 21/25/25 24/29/29
f 29/41/41 24/29/29 32/42/42
f 30/37/37 27/34/34 31/39/39 40/43/43
f 42/35/35 16/20/20 34/32/32
f 117/40/40 29/41/41 33/44/44 116/45/45
f 34/32/32 23/28/28 30/37/37 36/46/46
f 38/47/47 32/42/42 24/29/29 35/31/31
f 29/41/41 32/42/42 37/48/48 33/44/44
f 31/39/39 110/38/38 104/49/49 41/50/50
f 36/46/46 30/37/37 40/43/43 49/51/51
f 42/35/35 34/32/32 36/46/46 45/52/52
f 44/53/53 35/31/31 28/36/36
f 116/45/45 33/44/44 43/54/54 106/55/55
f 40/43/43 31/39/39 41/50/50 52/56/56
f 44/53/53 38/47/47 35/31/31
f 46/57/57 37/48/48 32/42/42 38/47/47
f 42/35/35 44/53/53 28/36/36
f 44/53/53 42/35/35 45/52/52
f 33/44/44 37/48/48 48/58/58 43/54/54
f 50/59/59 41/50/50 104/49/49
f 45/52/52 36/46/46 49/51/51 57/60/60
f 109/61/61 51/62/62 54/63/63 108/64/64
f 115/65/65 106/55/55 43/54/54 58/66/66
f 51/62/62 109/61/61 114/67/67 55/68/68
f 38/47/47 44/53/53 53/69/69 46/57/57
f 49/51/51 40/43/43 52/56/56 67/70/70
f 107/71/71 108/64/64 54/63/63 56/72/72
f 53/69/69 44/53/53 45/52/52 57/60/60
f 72/73/73 66/74/74 115/65/65 58/66/66
f 60/75/75 48/58/58 37/48/48 46/57/57
f 41/50/50 50/59/59 61/76/76 52/56/56
f 43/54/54 48/58/58 62/77/77 58/66/66
f 59/78/78 51/62/62 55/68/68 71/79/79
f 50/59/59 65/80/80 81/81/81 61/76/76
f 63/82/82 107/71/71 56/72/72 69/83/83
f 55/68/68 114/67/67 66/74/74 72/73/73
f 72/73/73 58/66/66 62/77/77 78/84/84
f 70/85/85 56/72/72 54/63/63 64/86/86
f 57/60/60 49/51/51 67/70/70 77/87/87
f 95/88/88 115/65/65 66/74/74 130/89/89
f 75/90/90 65/80/80 105/91/91 68/92/92
f 46/57/57 53/69/69 73/93/93 60/75/75
f 63/82/82 69/83/83 76/94/94 112/95/95
f 74/96/96 62/77/77 48/58/58 60/75/75
f 53/69/69 57/60/60 77/87/87 73/93/93
f 78/84/84 71/79/79 55/68/68 72/73/73
f 68/92/92 112/95/95 76/94/94 75/90/90
f 52/56/56 61/76/76 79/97/97 67/70/70
f 80/98/98 69/83/83 56/72/72 70/85/85
f 81/81/81 65/80/80 75/90/90 84/99/99
f 76/94/94 69/83/83 80/98/98 83/100/100
f 79/97/97 89/101/101 93/102/102 91/103/103
f 61/76/76 81/81/81 89/101/101 79/97/97
f 75/90/90 76/94/94 83/100/100 84/99/99
f 71/79/79 78/84/84 85/104/104 82/105/105
f 77/87/87 67/70/70 79/97/97 91/103/103
f 81/81/81 84/99/99 87/106/106 89/101/101
f 60/75/75 73/93/93 90/107/107 74/96/96
f 83/100/100 87/106/106 84/99/99
f 54/63/63 51/62/62 59/78/78 64/86/86
f 83/100/100 80/98/98 86/108/108 87/106/106
f 73/93/93 77/87/87 91/103/103 90/107/107
f 92/109/109 85/104/104 74/96/96 90/107/107
f 89/101/101 87/106/106 86/108/108 93/102/102
f 93/102/102 92/109/109 90/107/107 91/103/103
f 92/109/109 88/110/110 82/105/105 85/104/104
f 93/102/102 86/108/108 88/110/110 92/109/109
f 94/111/111 127/112/112 105/91/91 111/113/113
f 50/59/59 104/49/49 111/113/113
f 113/4/4 3/3/3 121/114/114 6/115/115
f 120/116/116 99/9/9 12/15/15 119/117/117
f 3/3/3 99/9/9 120/116/116 121/114/114
f 100/8/8 113/4/4 6/115/115 122/118/118
f 9/12/12 100/8/8 122/118/118 123/119/119
f 101/18/18 9/12/12 123/119/119 124/120/120
f 102/22/22 101/18/18 124/120/120 125/121/121
f 125/121/121 103/33/33 102/22/22
f 103/33/33 125/121/121 26/122/122
f 110/38/38 103/33/33 26/122/122 126/123/123
f 104/49/49 110/38/38 126/123/123 39/124/124
f 111/113/113 104/49/49 39/124/124 94/111/111
f 85/104/104 78/84/84 62/77/77 74/96/96
f 65/80/80 50/59/59 111/113/113 105/91/91
f 68/92/92 105/91/91 127/112/112 134/125/125
f 112/95/95 68/92/92 134/125/125 128/126/126
f 135/127/127 63/82/82 112/95/95 128/126/126
f 135/127/127 98/128/128 107/71/71 63/82/82
f 96/129/129 108/64/64 107/71/71 98/128/128
f 97/130/130 109/61/61 108/64/64 96/129/129
f 114/67/67 109/61/61 97/130/130 129/131/131
f 66/74/74 114/67/67 129/131/131 130/89/89
f 95/88/88 47/132/132 106/55/55 115/65/65
f 131/133/133 116/45/45 106/55/55 47/132/132
f 132/134/134 117/40/40 116/45/45 131/133/133
f 118/24/24 117/40/40 132/134/134 133/135/135
f 133/135/135 119/117/117 12/15/15 118/24/24
f 70/85/85 88/110/110 86/108/108 80/98/98
f 64/86/86 82/105/105 88/110/110 70/85/85
f 59/78/78 71/79/79 82/105/105 64/86/86
f 17/27/27 19/26/26 20/6/6 22/30/30
f 22/30/30 20/6/6 7/5/5 18/21/21
f 125/121/121 136/136/136 126/123/123 26/122/122
f 136/136/136 143/137/137 39/124/124 126/123/123
f 143/137/137 150/138/138 94/111/111 39/124/124
f 150/138/138 157/139/139 127/112/112 94/111/111
f 157/139/139 128/126/126 134/125/125 127/112/112
f 124/120/120 137/140/140 136/136/136 125/121/121
f 137/140/140 144/141/141 143/137/137 136/136/136
f 144/141/141 151/142/142 150/138/138 143/137/137
f 151/142/142 158/143/143 157/139/139 150/138/138
f 158/143/143 135/127/127 128/126/126 157/139/139
f 123/119/119 138/144/144 137/140/140 124/120/120
f 138/144/144 145/145/145 144/141/141 137/140/140
f 145/145/145 152/146/146 151/142/142 144/141/141
f 152/146/146 159/147/147 158/143/143 151/142/142
f 159/147/147 98/128/128 135/127/127 158/143/143
f 122/118/118 139/148/148 138/144/144 123/119/119
f 139/148/148 146/149/149 145/145/145 138/144/144
f 146/149/149 153/150/150 152/146/146 145/145/145
f 153/150/150 160/151/151 159/147/147 152/146/146
f 160/151/151 96/129/129 98/128/128 159/147/147
f 6/115/115 140/152/152 139/148/148 122/118/118
f 140/152/152 147/153/153 146/149/149 139/148/148
f 147/153/153 154/154/154 153/150/150 146/149/149
f 154/154/154 161/155/155 160/151/151 153/150/150
f 161/155/155 97/130/130 96/129/129 160/151/151
f 121/114/114 141/156/156 140/152/152 6/115/115
f 141/156/156 148/157/157 147/153/153 140/152/152
f 148/157/157 155/158/158 154/154/154 147/153/153
f 155/158/158 162/159/159 161/155/155 154/154/154
f 162/159/159 129/131/131 97/130/130 161/155/155
f 120/116/116 142/160/160 141/156/156 121/114/114
f 142/160/160 149/161/161 148/157/157 141/156/156
f 149/161/161 156/162/162 155/158/158 148/157/157
f 156/162/162 163/163/163 162/159/159 155/158/158
f 163/163/163 130/89/89 129/131/131 162/159/159
f 119/117/117 133/135/135 142/160/160 120/116/116
f 133/135/135 132/134/134 149/161/161 142/160/160
f 132/134/134 131/133/133 156/162/162 149/161/161
f 131/133/133 47/132/132 163/163/163 156/162/162
f 47/132/132 95/88/88 130/89/89 163/163/163
