<svg width="152" height="131" viewBox="0 0 152 131" fill="none" xmlns="http://www.w3.org/2000/svg">
<circle opacity="0.5" cx="75.8955" cy="63" r="63" fill="#F5F5F5"/>
<circle opacity="0.5" cx="76" cy="63" r="52" fill="#E6E6E6"/>
<g filter="url(#filter0_dd_3865_4883)">
<path d="M77.6 27C66.8273 27 57.2978 32.3233 51.4987 40.4829C49.605 40.0363 47.6301 39.8 45.6 39.8C31.4615 39.8 20 51.2615 20 65.4C20 79.5385 31.4615 91 45.6 91L109.6 91C121.971 91 132 80.9712 132 68.6C132 56.2288 121.971 46.2 109.6 46.2C108.721 46.2 107.854 46.2506 107.002 46.349C102.098 34.9677 90.7797 27 77.6 27Z" fill="#F9FAFB"/>
<ellipse cx="45.6" cy="65.4" rx="25.6" ry="25.6" fill="url(#paint0_linear_3865_4883)"/>
<circle cx="77.6001" cy="59" r="32" fill="url(#paint1_linear_3865_4883)"/>
<ellipse cx="109.6" cy="68.5999" rx="22.4" ry="22.4" fill="url(#paint2_linear_3865_4883)"/>
</g>
<circle cx="21" cy="30" r="5" fill="#F2F4F7"/>
<circle cx="18" cy="120" r="7" fill="#F2F4F7"/>
<circle cx="145" cy="46" r="7" fill="#F2F4F7"/>
<circle cx="134" cy="19" r="4" fill="#F2F4F7"/>
<rect x="50" y="71" width="52" height="50" rx="25" fill="#E6E6E6"/>
<path fill-rule="evenodd" clip-rule="evenodd" d="M83 97H77V103H75V97H69V95H75V89H77V95H83V97Z" fill="#666666"/>
<defs>
<filter id="filter0_dd_3865_4883" x="0" y="27" width="152" height="104" filterUnits="userSpaceOnUse" color-interpolation-filters="sRGB">
<feFlood flood-opacity="0" result="BackgroundImageFix"/>
<feColorMatrix in="SourceAlpha" type="matrix" values="0 0 0 0 0 0 0 0 0 0 0 0 0 0 0 0 0 0 127 0" result="hardAlpha"/>
<feMorphology radius="4" operator="erode" in="SourceAlpha" result="effect1_dropShadow_3865_4883"/>
<feOffset dy="8"/>
<feGaussianBlur stdDeviation="4"/>
<feColorMatrix type="matrix" values="0 0 0 0 0.0627451 0 0 0 0 0.0941176 0 0 0 0 0.156863 0 0 0 0.03 0"/>
<feBlend mode="normal" in2="BackgroundImageFix" result="effect1_dropShadow_3865_4883"/>
<feColorMatrix in="SourceAlpha" type="matrix" values="0 0 0 0 0 0 0 0 0 0 0 0 0 0 0 0 0 0 127 0" result="hardAlpha"/>
<feMorphology radius="4" operator="erode" in="SourceAlpha" result="effect2_dropShadow_3865_4883"/>
<feOffset dy="20"/>
<feGaussianBlur stdDeviation="12"/>
<feColorMatrix type="matrix" values="0 0 0 0 0.0627451 0 0 0 0 0.0941176 0 0 0 0 0.156863 0 0 0 0.08 0"/>
<feBlend mode="normal" in2="effect1_dropShadow_3865_4883" result="effect2_dropShadow_3865_4883"/>
<feBlend mode="normal" in="SourceGraphic" in2="effect2_dropShadow_3865_4883" result="shape"/>
</filter>
<linearGradient id="paint0_linear_3865_4883" x1="25.9429" y1="48.4858" x2="71.2" y2="91" gradientUnits="userSpaceOnUse">
<stop stop-color="#D0D5DD"/>
<stop offset="0.350715" stop-color="white" stop-opacity="0"/>
</linearGradient>
<linearGradient id="paint1_linear_3865_4883" x1="53.0287" y1="37.8571" x2="109.6" y2="91" gradientUnits="userSpaceOnUse">
<stop stop-color="#D0D5DD"/>
<stop offset="0.350715" stop-color="white" stop-opacity="0"/>
</linearGradient>
<linearGradient id="paint2_linear_3865_4883" x1="92.4002" y1="53.7999" x2="132" y2="90.9999" gradientUnits="userSpaceOnUse">
<stop stop-color="#D0D5DD"/>
<stop offset="0.350715" stop-color="white" stop-opacity="0"/>
</linearGradient>
</defs>
</svg>
