<svg xmlns="http://www.w3.org/2000/svg" version="1.1" width="500" height="500" viewBox="0 0 1000 1000">
<g id="color_1" fill="#ffffff" stroke="#ffffff" stroke-width="2.0" stroke-linejoin="round" vector-effect="non-scaling-stroke">
<path d="M735.00,775.00 L727.00,783.00 L723.00,798.00 L746.00,798.00 L746.00,793.00 L751.00,788.00 L764.00,786.00 L769.00,789.00 L771.00,800.00 L745.00,801.00 L727.00,809.00 L723.00,815.00 L725.00,840.00 L739.00,850.00 L760.00,850.00 L771.00,842.00 L775.00,848.00 L794.00,848.00 L794.00,791.00 L790.00,781.00 L782.00,773.00 L770.00,769.00 L749.00,769.00 L735.00,775.00 Z M773.00,815.00 L771.00,824.00 L758.00,833.00 L751.00,833.00 L744.00,826.00 L746.00,819.00 L751.00,816.00 L773.00,815.00 Z M597.00,775.00 L587.00,789.00 L587.00,798.00 L608.00,798.00 L610.00,791.00 L617.00,786.00 L630.00,788.00 L635.00,798.00 L630.00,801.00 L605.00,801.00 L587.00,811.00 L583.00,821.00 L587.00,840.00 L601.00,850.00 L622.00,850.00 L635.00,842.00 L639.00,848.00 L660.00,848.00 L660.00,833.00 L656.00,830.00 L654.00,783.00 L644.00,773.00 L632.00,769.00 L611.00,769.00 L597.00,775.00 Z M635.00,815.00 L633.00,824.00 L620.00,833.00 L613.00,833.00 L606.00,826.00 L608.00,819.00 L613.00,816.00 L635.00,815.00 Z M399.00,771.00 L399.00,848.00 L420.00,848.00 L420.00,801.00 L433.00,788.00 L442.00,788.00 L451.00,797.00 L451.00,848.00 L474.00,848.00 L474.00,793.00 L470.00,781.00 L462.00,773.00 L452.00,769.00 L435.00,769.00 L422.00,777.00 L420.00,771.00 L399.00,771.00 Z M370.00,771.00 L347.00,769.00 L337.00,773.00 L332.00,779.00 L330.00,771.00 L309.00,771.00 L309.00,848.00 L332.00,846.00 L332.00,799.00 L339.00,790.00 L345.00,788.00 L356.00,790.00 L363.00,801.00 L363.00,848.00 L384.00,848.00 L384.00,791.00 L380.00,781.00 L370.00,771.00 Z M235.00,775.00 L227.00,783.00 L225.00,798.00 L246.00,798.00 L246.00,793.00 L255.00,786.00 L268.00,788.00 L273.00,798.00 L233.00,805.00 L223.00,815.00 L225.00,840.00 L239.00,850.00 L260.00,850.00 L273.00,842.00 L277.00,848.00 L298.00,848.00 L298.00,833.00 L294.00,828.00 L294.00,787.00 L290.00,779.00 L272.00,769.00 L249.00,769.00 L235.00,775.00 Z M273.00,815.00 L273.00,822.00 L260.00,833.00 L251.00,833.00 L244.00,826.00 L251.00,816.00 L273.00,815.00 Z M572.00,739.00 L551.00,741.00 L550.00,775.00 L536.00,769.00 L515.00,769.00 L501.00,775.00 L493.00,783.00 L485.00,801.00 L485.00,818.00 L489.00,830.00 L499.00,842.00 L515.00,850.00 L536.00,850.00 L549.00,842.00 L553.00,848.00 L574.00,846.00 L572.00,739.00 Z M521.00,788.00 L538.00,788.00 L551.00,799.00 L551.00,818.00 L544.00,827.00 L536.00,831.00 L519.00,829.00 L510.00,818.00 L510.00,799.00 L521.00,788.00 Z M755.00,677.00 L755.00,698.00 L802.00,698.00 L802.00,677.00 L755.00,677.00 Z M667.00,651.00 L699.00,730.00 L688.00,745.00 L675.00,749.00 L675.00,770.00 L663.00,771.00 L663.00,790.00 L675.00,791.00 L677.00,838.00 L681.00,844.00 L693.00,850.00 L712.00,850.00 L714.00,829.00 L705.00,831.00 L698.00,826.00 L698.00,791.00 L714.00,790.00 L714.00,771.00 L699.00,771.00 L698.00,761.00 L704.00,760.00 L718.00,742.00 L752.00,651.00 L727.00,653.00 L715.00,692.00 L710.00,699.00 L692.00,651.00 L667.00,651.00 Z M201.00,651.00 L231.00,728.00 L258.00,728.00 L272.00,694.00 L272.00,687.00 L286.00,658.00 L286.00,651.00 L263.00,651.00 L246.00,699.00 L240.00,694.00 L226.00,651.00 L201.00,651.00 Z M615.00,649.00 L603.00,655.00 L591.00,669.00 L587.00,681.00 L587.00,700.00 L593.00,714.00 L603.00,724.00 L617.00,730.00 L638.00,730.00 L652.00,724.00 L662.00,714.00 L666.00,699.00 L645.00,697.00 L636.00,709.00 L625.00,711.00 L612.00,702.00 L612.00,677.00 L619.00,670.00 L634.00,668.00 L641.00,673.00 L645.00,682.00 L664.00,680.00 L664.00,669.00 L650.00,653.00 L642.00,649.00 L615.00,649.00 Z M503.00,651.00 L503.00,728.00 L524.00,728.00 L524.00,685.00 L526.00,677.00 L533.00,670.00 L548.00,670.00 L555.00,677.00 L555.00,728.00 L578.00,728.00 L578.00,673.00 L574.00,661.00 L558.00,649.00 L537.00,649.00 L526.00,657.00 L524.00,651.00 L503.00,651.00 Z M441.00,649.00 L431.00,653.00 L419.00,665.00 L413.00,679.00 L413.00,702.00 L421.00,718.00 L431.00,726.00 L443.00,730.00 L464.00,730.00 L478.00,724.00 L486.00,716.00 L490.00,703.00 L467.00,703.00 L460.00,711.00 L445.00,711.00 L438.00,704.00 L436.00,695.00 L492.00,694.00 L490.00,673.00 L482.00,659.00 L470.00,651.00 L441.00,649.00 Z M436.00,677.00 L447.00,666.00 L460.00,666.00 L469.00,675.00 L469.00,680.00 L437.00,681.00 L436.00,677.00 Z M305.00,653.00 L293.00,669.00 L293.00,678.00 L314.00,678.00 L319.00,668.00 L334.00,666.00 L341.00,673.00 L341.00,680.00 L313.00,681.00 L301.00,685.00 L289.00,701.00 L293.00,720.00 L309.00,730.00 L326.00,730.00 L341.00,722.00 L345.00,728.00 L366.00,728.00 L366.00,713.00 L362.00,710.00 L362.00,667.00 L356.00,657.00 L342.00,649.00 L315.00,649.00 L305.00,653.00 Z M314.00,708.00 L314.00,701.00 L319.00,696.00 L341.00,695.00 L341.00,702.00 L332.00,711.00 L321.00,713.00 L314.00,708.00 Z M379.00,621.00 L379.00,728.00 L402.00,728.00 L402.00,621.00 L379.00,621.00 Z M463.00,555.00 L453.00,561.00 L449.00,569.00 L449.00,580.00 L457.00,592.00 L476.00,594.00 L488.00,582.00 L488.00,567.00 L476.00,555.00 L463.00,555.00 Z M401.00,555.00 L389.00,567.00 L389.00,584.00 L395.00,592.00 L414.00,594.00 L426.00,582.00 L426.00,567.00 L414.00,555.00 L401.00,555.00 Z M339.00,555.00 L327.00,565.00 L325.00,578.00 L333.00,592.00 L352.00,594.00 L364.00,582.00 L364.00,567.00 L352.00,555.00 L339.00,555.00 Z M277.00,555.00 L267.00,561.00 L263.00,569.00 L263.00,578.00 L271.00,592.00 L290.00,594.00 L302.00,582.00 L302.00,567.00 L290.00,555.00 L277.00,555.00 Z M215.00,555.00 L203.00,565.00 L201.00,578.00 L209.00,592.00 L228.00,594.00 L240.00,582.00 L240.00,567.00 L228.00,555.00 L215.00,555.00 Z M395.00,495.00 L387.00,511.00 L391.00,524.00 L403.00,532.00 L418.00,530.00 L428.00,514.00 L424.00,499.00 L416.00,493.00 L395.00,495.00 Z M337.00,493.00 L329.00,499.00 L325.00,516.00 L335.00,530.00 L350.00,532.00 L358.00,528.00 L364.00,520.00 L364.00,503.00 L354.00,493.00 L337.00,493.00 Z M271.00,495.00 L263.00,509.00 L267.00,524.00 L279.00,532.00 L296.00,528.00 L302.00,520.00 L302.00,505.00 L298.00,497.00 L292.00,493.00 L271.00,495.00 Z M209.00,495.00 L201.00,507.00 L203.00,522.00 L217.00,532.00 L234.00,528.00 L240.00,520.00 L240.00,503.00 L230.00,493.00 L209.00,495.00 Z M401.00,431.00 L391.00,439.00 L387.00,447.00 L389.00,460.00 L401.00,470.00 L414.00,470.00 L426.00,458.00 L426.00,443.00 L414.00,431.00 L401.00,431.00 Z M339.00,431.00 L331.00,435.00 L327.00,441.00 L325.00,454.00 L335.00,468.00 L352.00,470.00 L364.00,458.00 L364.00,443.00 L352.00,431.00 L339.00,431.00 Z M269.00,435.00 L263.00,447.00 L265.00,460.00 L277.00,470.00 L294.00,468.00 L302.00,458.00 L300.00,439.00 L290.00,431.00 L277.00,431.00 L269.00,435.00 Z M215.00,431.00 L207.00,435.00 L203.00,441.00 L201.00,454.00 L207.00,466.00 L215.00,470.00 L228.00,470.00 L240.00,458.00 L240.00,443.00 L228.00,431.00 L215.00,431.00 Z M513.00,403.00 L513.00,414.00 L521.00,422.00 L614.00,422.00 L622.00,414.00 L622.00,401.00 L618.00,395.00 L519.00,395.00 L513.00,403.00 Z M401.00,369.00 L389.00,379.00 L389.00,398.00 L399.00,408.00 L416.00,408.00 L426.00,396.00 L426.00,381.00 L414.00,369.00 L401.00,369.00 Z M339.00,369.00 L327.00,379.00 L327.00,398.00 L337.00,408.00 L354.00,408.00 L364.00,396.00 L364.00,381.00 L352.00,369.00 L339.00,369.00 Z M277.00,369.00 L265.00,379.00 L263.00,392.00 L271.00,406.00 L290.00,408.00 L302.00,396.00 L302.00,381.00 L294.00,371.00 L277.00,369.00 Z M215.00,369.00 L203.00,379.00 L203.00,398.00 L213.00,408.00 L230.00,408.00 L240.00,398.00 L240.00,381.00 L228.00,369.00 L215.00,369.00 Z M665.00,367.00 L657.00,377.00 L657.00,384.00 L683.00,414.00 L661.00,435.00 L657.00,443.00 L659.00,454.00 L667.00,460.00 L678.00,460.00 L706.00,434.00 L729.00,458.00 L748.00,458.00 L752.00,454.00 L752.00,439.00 L726.00,413.00 L750.00,390.00 L750.00,371.00 L746.00,367.00 L731.00,367.00 L705.00,393.00 L682.00,369.00 L665.00,367.00 Z M397.00,309.00 L387.00,325.00 L391.00,340.00 L399.00,346.00 L416.00,346.00 L426.00,336.00 L424.00,315.00 L416.00,309.00 L397.00,309.00 Z M333.00,311.00 L327.00,319.00 L329.00,340.00 L337.00,346.00 L358.00,344.00 L364.00,336.00 L362.00,315.00 L354.00,309.00 L333.00,311.00 Z M273.00,309.00 L263.00,323.00 L267.00,340.00 L275.00,346.00 L292.00,346.00 L302.00,336.00 L300.00,315.00 L292.00,309.00 L273.00,309.00 Z M209.00,311.00 L203.00,317.00 L201.00,325.00 L205.00,340.00 L213.00,346.00 L234.00,344.00 L240.00,336.00 L238.00,315.00 L230.00,309.00 L209.00,311.00 Z M651.00,277.00 L653.00,290.00 L661.00,296.00 L752.00,296.00 L760.00,290.00 L760.00,273.00 L754.00,267.00 L659.00,267.00 L653.00,271.00 L651.00,277.00 Z M395.00,249.00 L389.00,257.00 L391.00,278.00 L403.00,286.00 L418.00,284.00 L426.00,274.00 L424.00,253.00 L416.00,247.00 L395.00,249.00 Z M333.00,249.00 L325.00,263.00 L329.00,278.00 L343.00,286.00 L358.00,282.00 L364.00,274.00 L362.00,253.00 L354.00,247.00 L333.00,249.00 Z M273.00,247.00 L263.00,263.00 L267.00,278.00 L279.00,286.00 L296.00,282.00 L302.00,274.00 L302.00,257.00 L292.00,247.00 L273.00,247.00 Z M211.00,247.00 L201.00,261.00 L205.00,278.00 L219.00,286.00 L234.00,282.00 L240.00,274.00 L240.00,257.00 L230.00,247.00 L211.00,247.00 Z M632.00,223.00 L626.00,219.00 L615.00,219.00 L609.00,223.00 L562.00,289.00 L554.00,284.00 L548.00,273.00 L534.00,259.00 L519.00,259.00 L515.00,263.00 L513.00,278.00 L553.00,328.00 L568.00,328.00 L604.00,284.00 L606.00,277.00 L634.00,242.00 L632.00,223.00 Z M465.00,191.00 L455.00,207.00 L449.00,231.00 L449.00,454.00 L453.00,474.00 L461.00,490.00 L481.00,510.00 L497.00,518.00 L524.00,520.00 L527.00,523.00 L525.00,568.00 L527.00,588.00 L531.00,594.00 L550.00,596.00 L623.00,526.00 L633.00,520.00 L764.00,520.00 L790.00,510.00 L810.00,492.00 L820.00,474.00 L824.00,458.00 L824.00,227.00 L814.00,199.00 L796.00,179.00 L764.00,165.00 L509.00,165.00 L483.00,175.00 L465.00,191.00 Z M484.00,215.00 L499.00,200.00 L513.00,194.00 L758.00,194.00 L776.00,202.00 L787.00,213.00 L795.00,235.00 L795.00,450.00 L793.00,462.00 L785.00,476.00 L768.00,489.00 L756.00,493.00 L615.00,493.00 L555.00,551.00 L554.00,497.00 L550.00,493.00 L517.00,493.00 L505.00,489.00 L486.00,474.00 L480.00,462.00 L478.00,231.00 L484.00,215.00 Z"/>
</g>
</svg>