<svg xmlns="http://www.w3.org/2000/svg"
     version="1.1"
     width="500"
     height="500"
     viewBox="440 160 440 440">
  <g fill="#ffffff"
     stroke="#ffffff"
     stroke-width="2"
     stroke-linejoin="round"
     vector-effect="non-scaling-stroke">

    <!-- Checkmark -->
    <path d="M632.00,223.00 L626.00,219.00 L615.00,219.00 L609.00,223.00 L562.00,289.00 L554.00,284.00 L548.00,273.00 L534.00,259.00 L519.00,259.00 L515.00,263.00 L513.00,278.00 L553.00,328.00 L568.00,328.00 L604.00,284.00 L606.00,277.00 L634.00,242.00 L632.00,223.00 Z"/>

    <!-- Dash (top) -->
    <path d="M651.00,277.00 L653.00,290.00 L661.00,296.00 L752.00,296.00 L760.00,290.00 L760.00,273.00 L754.00,267.00 L659.00,267.00 L653.00,271.00 L651.00,277.00 Z"/>

    <!-- Dash (bottom) -->
    <path d="M513.00,403.00 L513.00,414.00 L521.00,422.00 L614.00,422.00 L622.00,414.00 L622.00,401.00 L618.00,395.00 L519.00,395.00 L513.00,403.00 Z"/>

    <!-- X -->
    <path d="M665.00,367.00 L657.00,377.00 L657.00,384.00 L683.00,414.00 L661.00,435.00 L657.00,443.00 L659.00,454.00 L667.00,460.00 L678.00,460.00 L706.00,434.00 L729.00,458.00 L748.00,458.00 L752.00,454.00 L752.00,439.00 L726.00,413.00 L750.00,390.00 L750.00,371.00 L746.00,367.00 L731.00,367.00 L705.00,393.00 L682.00,369.00 L665.00,367.00 Z"/>

    <!-- Speech bubble -->
    <path d="M465.00,191.00 L455.00,207.00 L449.00,231.00 L449.00,454.00 L453.00,474.00 L461.00,490.00 L481.00,510.00 L497.00,518.00 L524.00,520.00 L527.00,523.00 L525.00,568.00 L527.00,588.00 L531.00,594.00 L550.00,596.00 L623.00,526.00 L633.00,520.00 L764.00,520.00 L790.00,510.00 L810.00,492.00 L820.00,474.00 L824.00,458.00 L824.00,227.00 L814.00,199.00 L796.00,179.00 L764.00,165.00 L509.00,165.00 L483.00,175.00 L465.00,191.00 Z
             M484.00,215.00 L499.00,200.00 L513.00,194.00 L758.00,194.00 L776.00,202.00 L787.00,213.00 L795.00,235.00 L795.00,450.00 L793.00,462.00 L785.00,476.00 L768.00,489.00 L756.00,493.00 L615.00,493.00 L555.00,551.00 L554.00,497.00 L550.00,493.00 L517.00,493.00 L505.00,489.00 L486.00,474.00 L480.00,462.00 L478.00,231.00 L484.00,215.00 Z"/>

  </g>
</svg>
