<?xml version="1.0" encoding="UTF-8" standalone="no"?>
<!DOCTYPE svg PUBLIC "-//W3C//DTD SVG 1.1//EN" "http://www.w3.org/Graphics/SVG/1.1/DTD/svg11.dtd">
<svg width="100%" height="100%" viewBox="0 0 977 977" version="1.1" xmlns="http://www.w3.org/2000/svg" xmlns:xlink="http://www.w3.org/1999/xlink" xml:space="preserve" xmlns:serif="http://www.serif.com/" style="fill-rule:evenodd;clip-rule:evenodd;stroke-linejoin:round;stroke-miterlimit:2;">
    <g transform="matrix(1,0,0,1,-2631.89,-626.734)">
        <g id="Artboard2" transform="matrix(0.937703,0,0,0.937703,1445.06,-276.2)">
            <rect x="1265.68" y="962.922" width="1041.63" height="1041.63" style="fill:none;"/>
            <g transform="matrix(1.06644,0,0,1.06644,-97.3259,-128.803)">
                <g transform="matrix(-1.04459,0,0,-0.790055,3589.84,2856.65)">
                    <path d="M1453.99,1298.39C1461.01,1289 1483.61,1268.15 1555.63,1246.12C1564.08,1243.54 1571.02,1241.62 1571.05,1241.6C1573.36,1240.58 1575.72,1239.72 1577.92,1238.34C1579.9,1237.1 1591.19,1230.01 1596.34,1211.57C1598.86,1202.59 1598.62,1194.76 1598.58,1193.27C1598.58,1193.26 1597.57,1183.73 1597.57,1183.73C1596.75,1180.69 1596.16,1177.54 1595.12,1174.62C1594.18,1172.01 1588.85,1157.07 1574.89,1150.26C1568.09,1146.94 1562.15,1147.25 1561.03,1147.31C1556.61,1147.55 1556.6,1147.62 1552.34,1149.18C1453.17,1185.61 1403.62,1224.81 1392.22,1276.29C1387.48,1297.67 1391.22,1313.35 1391.45,1314.47C1395.8,1335.73 1410.22,1366.84 1472.74,1412.45C1552.12,1470.36 1652.51,1510.49 1669.12,1517.21C1671.28,1518.09 1671.27,1518.16 1673.5,1518.52C1674.83,1518.74 1682.44,1519.98 1689.69,1512.68C1693.23,1509.13 1695.05,1504.98 1695.4,1504.19C1696.09,1502.62 1700.09,1493.54 1697.62,1481.65C1695.21,1470.01 1688.58,1464.95 1687.42,1464.07C1686.98,1463.73 1685.88,1462.89 1681.59,1460.78C1557.56,1399.54 1477.51,1334.35 1454.82,1299.69C1454.72,1299.54 1454.4,1299.06 1453.99,1298.39Z" style="fill:url(#_Linear1);"/>
                </g>
                <g transform="matrix(-1.15924,0,0,1.0663,3801.88,-123.136)">
                    <path d="M1449,1299.12C1450.59,1304.27 1460.64,1323.27 1500.08,1356.1C1524.47,1376.41 1582.87,1420.78 1683.84,1469.33C1685.69,1470.21 1685.71,1470.16 1687.39,1471.38C1688.4,1472.11 1694.14,1476.28 1695.8,1485.03C1696.62,1489.29 1695.99,1492.81 1695.88,1493.47C1695.1,1497.86 1693.18,1500.97 1692.82,1501.55C1692.15,1502.64 1688.31,1508.86 1680.26,1510.68C1676.34,1511.56 1673.12,1510.9 1672.51,1510.77C1671.18,1510.5 1669.92,1509.98 1668.64,1509.53C1667.56,1509.15 1656.9,1504.59 1655.88,1504.15C1537.36,1453.37 1438.54,1388.79 1405.98,1338C1392.86,1317.54 1392.02,1302.27 1393.35,1289.69C1398.24,1243.49 1441.21,1213.39 1473.78,1195.52C1502.64,1179.68 1533.86,1167.97 1553.08,1161.16C1558.99,1159.06 1564.93,1159.77 1565.96,1159.9C1579.14,1161.48 1586.33,1170.95 1587.58,1172.6C1588.94,1174.39 1590.15,1176.33 1591.16,1178.37C1591.16,1178.38 1593.67,1184.99 1593.67,1184.99C1594.08,1187.33 1594.7,1189.64 1594.9,1192.01C1595.07,1194.15 1596.07,1206.32 1587.58,1217.6C1583.44,1223.09 1578.71,1225.84 1577.82,1226.36C1573.65,1228.79 1573.55,1228.56 1568.99,1229.92C1551.35,1235.16 1484.93,1255.13 1458.04,1283.33C1449.48,1292.3 1449.13,1297.87 1449,1299.12Z" style="fill:url(#_Linear2);"/>
                </g>
                <g transform="matrix(1.15924,0,0,1.0663,-257.16,-119.884)">
                    <path d="M1449,1299.12C1450.59,1304.27 1460.64,1323.27 1500.08,1356.1C1524.47,1376.41 1582.87,1420.78 1683.84,1469.33C1685.69,1470.21 1685.71,1470.16 1687.39,1471.38C1688.4,1472.11 1694.14,1476.28 1695.8,1485.03C1696.62,1489.29 1695.99,1492.81 1695.88,1493.47C1695.1,1497.86 1693.18,1500.97 1692.82,1501.55C1692.15,1502.64 1688.31,1508.86 1680.26,1510.68C1676.34,1511.56 1673.12,1510.9 1672.51,1510.77C1671.18,1510.5 1669.92,1509.98 1668.64,1509.53C1667.56,1509.15 1656.9,1504.59 1655.88,1504.15C1537.36,1453.37 1438.54,1388.79 1405.98,1338C1392.86,1317.54 1392.02,1302.27 1393.35,1289.69C1398.24,1243.49 1441.21,1213.39 1473.78,1195.52C1502.64,1179.68 1533.86,1167.97 1553.08,1161.16C1558.99,1159.06 1564.93,1159.77 1565.96,1159.9C1579.14,1161.48 1586.33,1170.95 1587.58,1172.6C1588.94,1174.39 1590.15,1176.33 1591.16,1178.37C1591.16,1178.38 1593.67,1184.99 1593.67,1184.99C1594.08,1187.33 1594.7,1189.64 1594.9,1192.01C1595.07,1194.15 1596.07,1206.32 1587.58,1217.6C1583.44,1223.09 1578.71,1225.84 1577.82,1226.36C1573.65,1228.79 1573.55,1228.56 1568.99,1229.92C1551.35,1235.16 1484.93,1255.13 1458.04,1283.33C1449.48,1292.3 1449.13,1297.87 1449,1299.12Z" style="fill:url(#_Linear3);"/>
                </g>
                <g transform="matrix(1.04459,0,0,-0.790055,-43.8432,2856.39)">
                    <path d="M1453.99,1298.39C1461.01,1289 1483.61,1268.15 1555.63,1246.12C1564.08,1243.54 1571.02,1241.62 1571.05,1241.6C1573.36,1240.58 1575.72,1239.72 1577.92,1238.34C1579.9,1237.1 1591.19,1230.01 1596.34,1211.57C1598.86,1202.59 1598.62,1194.76 1598.58,1193.27C1598.58,1193.26 1597.57,1183.73 1597.57,1183.73C1596.75,1180.69 1596.16,1177.54 1595.12,1174.62C1594.18,1172.01 1588.85,1157.07 1574.89,1150.26C1568.09,1146.94 1562.15,1147.25 1561.03,1147.31C1556.61,1147.55 1556.6,1147.62 1552.34,1149.18C1453.17,1185.61 1403.62,1224.81 1392.22,1276.29C1387.48,1297.67 1391.22,1313.35 1391.45,1314.47C1395.8,1335.73 1410.22,1366.84 1472.74,1412.45C1552.12,1470.36 1652.51,1510.49 1669.12,1517.21C1671.28,1518.09 1671.27,1518.16 1673.5,1518.52C1674.83,1518.74 1682.44,1519.98 1689.69,1512.68C1693.23,1509.13 1695.05,1504.98 1695.4,1504.19C1696.09,1502.62 1700.09,1493.54 1697.62,1481.65C1695.21,1470.01 1688.58,1464.95 1687.42,1464.07C1686.98,1463.73 1685.88,1462.89 1681.59,1460.78C1557.56,1399.54 1477.51,1334.35 1454.82,1299.69C1454.72,1299.54 1454.4,1299.06 1453.99,1298.39Z" style="fill:url(#_Linear4);"/>
                </g>
                <g transform="matrix(2.45968,0,0,3.49194,-1532.56,-1320.81)">
                    <circle cx="1344.54" cy="829.289" r="50.405" style="fill:rgb(23,164,250);"/>
                </g>
                <g transform="matrix(1,0,0,0.753906,760.947,610.588)">
                    <path d="M1266.49,973.051C1297.33,1058.43 1315.27,1160.42 1315.27,1269.92C1315.27,1570.1 1180.48,1740.48 1014.47,1740.48C848.45,1740.48 713.665,1570.1 713.665,1269.92C713.665,1160.82 731.472,1059.17 762.112,973.979M762.112,973.979C815.772,824.783 908.792,614.675 1014.47,614.675C1119.92,614.675 1212.78,824.373 1266.49,973.051" style="fill:url(#_Linear5);"/>
                </g>
            </g>
        </g>
    </g>
    <defs>
        <linearGradient id="_Linear1" x1="0" y1="0" x2="1" y2="0" gradientUnits="userSpaceOnUse" gradientTransform="matrix(102.733,230.499,174.334,-135.83,1494.11,1205.42)"><stop offset="0" style="stop-color:rgb(151,212,180);stop-opacity:1"/><stop offset="1" style="stop-color:rgb(91,142,115);stop-opacity:1"/></linearGradient>
        <linearGradient id="_Linear2" x1="0" y1="0" x2="1" y2="0" gradientUnits="userSpaceOnUse" gradientTransform="matrix(119.222,256.177,-235.639,129.613,1485.48,1204.28)"><stop offset="0" style="stop-color:rgb(199,250,223);stop-opacity:1"/><stop offset="1" style="stop-color:rgb(154,177,165);stop-opacity:1"/></linearGradient>
        <linearGradient id="_Linear3" x1="0" y1="0" x2="1" y2="0" gradientUnits="userSpaceOnUse" gradientTransform="matrix(119.222,256.177,-235.639,129.613,1485.48,1204.28)"><stop offset="0" style="stop-color:rgb(199,250,223);stop-opacity:1"/><stop offset="1" style="stop-color:rgb(154,177,165);stop-opacity:1"/></linearGradient>
        <linearGradient id="_Linear4" x1="0" y1="0" x2="1" y2="0" gradientUnits="userSpaceOnUse" gradientTransform="matrix(102.733,230.499,174.334,-135.83,1494.11,1205.42)"><stop offset="0" style="stop-color:rgb(151,212,180);stop-opacity:1"/><stop offset="1" style="stop-color:rgb(91,142,115);stop-opacity:1"/></linearGradient>
        <linearGradient id="_Linear5" x1="0" y1="0" x2="1" y2="0" gradientUnits="userSpaceOnUse" gradientTransform="matrix(-8.12971,815.236,-614.612,-10.7834,1014.47,844.365)"><stop offset="0" style="stop-color:rgb(184,243,212);stop-opacity:0.81"/><stop offset="1" style="stop-color:rgb(65,144,102);stop-opacity:0.81"/></linearGradient>
    </defs>
</svg>
