<?xml version="1.0" encoding="UTF-8" standalone="no"?>
<!-- Uploaded to: SVG Repo, www.svgrepo.com, Generator: SVG Repo Mixer Tools -->

<svg
   height="800px"
   width="800px"
   version="1.1"
   id="Layer_1"
   viewBox="0 0 512 512"
   xml:space="preserve"
   sodipodi:docname="share-bluetooth.svg"
   inkscape:version="1.2.1 (9c6d41e410, 2022-07-14, custom)"
   xmlns:inkscape="http://www.inkscape.org/namespaces/inkscape"
   xmlns:sodipodi="http://sodipodi.sourceforge.net/DTD/sodipodi-0.dtd"
   xmlns="http://www.w3.org/2000/svg"
   xmlns:svg="http://www.w3.org/2000/svg"><defs
   id="defs11" /><sodipodi:namedview
   id="namedview9"
   pagecolor="#ffffff"
   bordercolor="#000000"
   borderopacity="0.25"
   inkscape:showpageshadow="2"
   inkscape:pageopacity="0.0"
   inkscape:pagecheckerboard="0"
   inkscape:deskcolor="#d1d1d1"
   showgrid="false"
   inkscape:zoom="0.95125"
   inkscape:cx="348.48883"
   inkscape:cy="399.47438"
   inkscape:window-width="1920"
   inkscape:window-height="989"
   inkscape:window-x="0"
   inkscape:window-y="0"
   inkscape:window-maximized="1"
   inkscape:current-layer="Layer_1" />
<path
   style="fill:#272727;fill-opacity:0.87841463;stroke-width:0.95545"
   d="m 19.90935,262.20153 c 0,135.41514 109.24286,245.16962 244.0163,245.16579 134.78109,0.004 244.02393,-109.75065 244.02393,-245.16579 0.009,-135.41511 -109.24284,-245.177261 -244.02393,-245.177261 -134.77344,0 -244.0163,109.765961 -244.0163,245.177261 z"
   id="path1019" /><path
   style="fill:#01234b;fill-opacity:1;stroke-width:0.967866"
   d="m 8.2263469,256.00581 c 0,136.85235 110.9232331,247.77171 247.7697831,247.76784 136.85429,0.004 247.77752,-110.91549 247.77752,-247.76784 C 503.78236,119.15345 392.85042,8.2263469 255.99613,8.2263469 119.14958,8.2263469 8.2263469,119.15732 8.2263469,256.00581 Z"
   id="path2" />
<path
   style="fill:#002e61;fill-opacity:1;stroke-width:0.962607"
   d="m 501.17758,301.02776 -0.58142,-0.53329 c -0.10973,-0.11359 -0.1569,-0.27242 -0.2753,-0.38023 0,0 -142.43889,-142.44948 -142.55729,-142.55729 L 264.01623,71.621171 c -2.28908,-2.082119 -5.60045,-2.647169 -8.42281,-1.387116 -2.83777,1.243688 -4.66865,4.05065 -4.66865,7.146394 V 238.23016 l -0.58815,-0.61318 c -0.0529,-0.0568 -78.30519,-78.25129 -78.36102,-78.30423 l -1.34862,-1.40445 c -2.99082,-3.12751 -7.94247,-3.21318 -11.04688,-0.2291 -3.11307,2.99082 -3.21221,7.93477 -0.2291,11.04688 l 86.53838,90.13949 -86.42286,86.42382 c -3.05147,3.0505 -3.05147,7.99541 0,11.04688 0.27241,0.27145 0.62184,0.38697 0.92121,0.61222 0.22429,0.29841 141.3627,141.67458 141.63511,141.94411 0.25702,0.25797 0.58334,0.37926 0.87116,0.57949 100.75416,-18.23371 180.12977,-97.66323 198.28358,-198.44433 z"
   id="path4" />
<path
   style="fill:#F6F6F6;"
   d="M265.376,258.1l93.751-93.751c1.569-1.562,2.426-3.701,2.378-5.913  c-0.048-2.211-0.998-4.311-2.631-5.809l-97.39-89.274c-2.378-2.163-5.818-2.75-8.75-1.442c-2.948,1.292-4.85,4.208-4.85,7.426  v170.55l-83.417-86.896c-3.107-3.249-8.251-3.337-11.476-0.238c-3.234,3.107-3.337,8.242-0.238,11.476l89.9,93.641l-89.78,89.78  c-3.17,3.17-3.17,8.306,0,11.476c3.17,3.17,8.306,3.17,11.476,0l83.535-83.535v167.071c0,3.147,1.823,6.016,4.676,7.347  c1.093,0.515,2.267,0.769,3.44,0.769c1.862,0,3.709-0.642,5.199-1.878l97.39-81.157c1.728-1.442,2.782-3.542,2.9-5.786  c0.127-2.251-0.689-4.446-2.243-6.071L265.376,258.1z M264.116,87.788l77.543,71.076l-77.543,77.543L264.116,87.788L264.116,87.788z   M264.116,425.338V280.228l77.386,80.619L264.116,425.338z"
   id="path6" />
</svg>
