<svg xmlns="http://www.w3.org/2000/svg" width="441" height="440"><path d="m24.308 73.612 2.568-.016c2.807-.013 5.614-.005 8.42.006q2.93-.003 5.857-.01 6.142-.005 12.286.017c5.24.017 10.48.007 15.72-.01 4.034-.012 8.068-.008 12.102 0q2.896.003 5.793-.008c2.707-.008 5.414.004 8.12.02l2.404-.018c7.34.084 12.508 2.047 17.847 7.353l1.481 1.534 1.601 1.612c1.674 1.69 3.333 3.392 4.993 5.095q1.668 1.686 3.34 3.37 1.628 1.648 3.254 3.298l1.48 1.504c2.701 2.773 5.288 5.613 7.817 8.543 3.581 4.124 7.38 7.98 11.265 11.817l2.14 2.128q3.349 3.33 6.704 6.653 4.425 4.387 8.844 8.781l2.011 1.986c3.784 3.764 7.348 7.646 10.835 11.685 5.552 6.282 11.594 12.14 17.5 18.087a1139 1139 0 0 1 5.012 5.095c2.414 2.469 4.844 4.92 7.278 7.37l2.258 2.326 2.114 2.106 1.847 1.871c1.712 1.416 1.712 1.416 3.71.947 2.39-.862 3.547-1.837 5.334-3.63l1.873-1.856 2.02-2.048 2.155-2.148c2.354-2.352 4.698-4.714 7.041-7.076l4.91-4.915q5.152-5.16 10.291-10.333 6.568-6.607 13.154-13.198 6.294-6.305 12.583-12.616l2.408-2.414q3.402-3.414 6.798-6.835l2.001-2.005a228 228 0 0 0 10.958-11.885c2.449-2.809 5.04-5.47 7.655-8.123l1.661-1.686q1.72-1.74 3.446-3.478a651 651 0 0 0 3.476-3.537 763 763 0 0 1 5.104-5.174l1.532-1.585c5.546-5.513 11.332-8.639 19.238-8.743l2.392.03 2.59-.017c2.799-.012 5.597.004 8.397.022q2.932 0 5.863-.005 6.124 0 12.247.034c5.237.029 10.474.026 15.71.013 4.03-.007 8.06.001 12.089.014q2.898.006 5.795 0c2.693-.002 5.385.014 8.078.036l2.423-.014c5.387.073 5.387.073 7.573 1.639 1.703 2.338 1.672 3.757 1.674 6.638l.023 3.052-.02 3.363.014 3.565c.01 3.272.006 6.542-.003 9.814-.007 3.525.004 7.05.012 10.576.013 6.91.01 13.818.002 20.727a9419 9419 0 0 0-.003 19.259l.003 4.863c.008 15.21-.002 30.422-.018 45.633q-.018 19.59.003 39.18a27277 27277 0 0 1 .01 50.313l-.001 2.408q-.003 8.413.009 16.826.013 10.249-.01 20.497-.013 5.232-.001 10.464c.008 3.776-.002 7.551-.017 11.327l.02 3.363-.023 3.052-.002 2.643c-.461 2.717-1.167 3.605-3.376 5.216-3.15.374-3.15.374-7.086.372l-2.174.011c-2.372.008-4.743-.005-7.115-.02q-2.472 0-4.943.002-5.18 0-10.36-.029c-4.429-.023-8.857-.023-13.286-.016-3.402.003-6.804-.004-10.207-.013q-2.45-.006-4.899-.004c-2.282 0-4.563-.012-6.844-.028l-3.936-.014C352 368 352 368 349 366c-.385-2.75-.385-2.75-.399-6.33l-.02-1.991c-.019-2.213-.016-4.426-.013-6.64l-.031-4.751c-.028-4.318-.037-8.635-.043-12.953-.01-4.537-.036-9.075-.06-13.613-.044-8.628-.072-17.256-.095-25.884-.027-9.713-.071-19.425-.117-29.138-.139-29.9-.252-59.8-.222-89.7-3.804 1.573-6.188 3.957-9.066 6.865l-1.505 1.513c-1.662 1.673-3.316 3.353-4.971 5.032q-1.786 1.802-3.574 3.602a5630 5630 0 0 0-7.687 7.763 5995 5995 0 0 1-12.167 12.263 19473 19473 0 0 0-34.598 34.872 7664 7664 0 0 1-19.114 19.255q-5.067 5.084-10.106 10.196-4.738 4.81-9.512 9.582a540 540 0 0 0-3.48 3.525 467 467 0 0 1-4.774 4.794l-2.69 2.715c-3.324 2.44-5.672 2.847-9.756 3.023-1.992-.996-1.992-.996-3.652-2.66l-2.027-1.97L207 293a932 932 0 0 0-2.864-2.796c-2.7-2.637-5.373-5.3-8.036-7.974a1997 1997 0 0 0-4.989-4.982l-3.24-3.244-1.471-1.466a147 147 0 0 1-7.503-8.143c-4.198-4.812-8.682-9.305-13.21-13.805l-4.174-4.168-4.448-4.432a9112 9112 0 0 1-9.307-9.283Q137.883 222.85 128 213a37876 37876 0 0 1-21.337-21.284q-4.614-4.605-9.234-9.205l-4.37-4.358a3299 3299 0 0 0-5.3-5.281c-4.223-4.223-8.265-8.525-12.16-13.051-2.398-2.73-4.961-5.269-7.563-7.803l-3.417-3.358c-.592-.58-1.183-1.16-1.793-1.756-3.179-3.117-6.342-6.25-9.508-9.38a3375 3375 0 0 0-12.048-11.856 1810 1810 0 0 1-9.789-9.656 575 575 0 0 0-3.716-3.643c-7.814-7.596-13.847-14.09-15.261-25.303l.058-3.504.004-3.558C13 77 13 77 14.008 75.337c3.18-2.134 6.597-1.753 10.3-1.725M15.143 199.558c4.405.682 6.518 3.415 9.564 6.52l2.003 1.982c2.219 2.202 4.42 4.42 6.621 6.64q2.377 2.37 4.756 4.734c4.31 4.293 8.606 8.6 12.898 12.912 4.488 4.504 8.988 8.996 13.487 13.49q11.331 11.326 22.637 22.676 11.636 11.679 23.304 23.324 14.056 14.03 28.086 28.088 5.36 5.37 10.732 10.73a4289 4289 0 0 1 12.617 12.65q2.316 2.326 4.643 4.643a1221 1221 0 0 1 6.31 6.34l1.88 1.854c5.344 5.45 5.344 5.45 5.319 9.859-2.793 2.793-4.494 2.254-8.408 2.26-.666.005-1.33.008-2.016.012-2.24.01-4.479.007-6.718.003q-2.403.007-4.804.015c-4.358.014-8.715.014-13.072.012q-5.45 0-10.9.008-12.855.016-25.71.006c-8.85-.006-17.7.006-26.55.027q-11.384.026-22.769.02c-4.537-.001-9.073.001-13.61.015q-6.398.019-12.797-.002-2.352-.004-4.703.009c-2.136.01-4.271.002-6.408-.01H17.91C15 368 15 368 13.115 366.888c-1.676-2.838-1.486-5.187-1.482-8.468l-.01-2.035c-.008-2.255.006-4.51.02-6.764q0-2.423-.006-4.844c-.005-4.388.009-8.776.026-13.165.015-4.585.014-9.17.015-13.756q.006-11.547.04-23.096c.03-9.895.04-19.79.044-29.684.004-8.493.017-16.985.03-25.478q.007-4.106.01-8.212.008-6.439.03-12.878.007-2.37.008-4.74.004-3.22.02-6.442l.009-3.65c.17-3.478.17-3.478 3.274-4.118"/></svg>
