<?xml version="1.0" encoding="UTF-8" standalone="no"?>
<!-- Created with Inkscape (http://www.inkscape.org/) -->

<svg
   width="300"
   height="60"
   viewBox="0 0 79.375 15.875"
   version="1.1"
   id="svg5"
   inkscape:version="1.2.2 (b0a8486541, 2022-12-01)"
   sodipodi:docname="audio_tuner_logo_dark.svg"
   xmlns:inkscape="http://www.inkscape.org/namespaces/inkscape"
   xmlns:sodipodi="http://sodipodi.sourceforge.net/DTD/sodipodi-0.dtd"
   xmlns:xlink="http://www.w3.org/1999/xlink"
   xmlns="http://www.w3.org/2000/svg"
   xmlns:svg="http://www.w3.org/2000/svg"
   xmlns:rdf="http://www.w3.org/1999/02/22-rdf-syntax-ns#"
   xmlns:cc="http://creativecommons.org/ns#"
   xmlns:dc="http://purl.org/dc/elements/1.1/">
  <sodipodi:namedview
     id="namedview7"
     pagecolor="#e3e3e3"
     bordercolor="#000000"
     borderopacity="0.25"
     inkscape:showpageshadow="2"
     inkscape:pageopacity="1"
     inkscape:pagecheckerboard="0"
     inkscape:deskcolor="#d1d1d1"
     inkscape:document-units="px"
     showgrid="false"
     inkscape:zoom="4.4195761"
     inkscape:cx="142.66074"
     inkscape:cy="42.085484"
     inkscape:window-width="1920"
     inkscape:window-height="1051"
     inkscape:window-x="0"
     inkscape:window-y="0"
     inkscape:window-maximized="1"
     inkscape:current-layer="layer1" />
  <defs
     id="defs2">
    <linearGradient
       inkscape:collect="always"
       id="linearGradient3283">
      <stop
         style="stop-color:#3b3b3b;stop-opacity:1;"
         offset="0"
         id="stop3279" />
      <stop
         style="stop-color:#3e3e3e;stop-opacity:0;"
         offset="1"
         id="stop3281" />
    </linearGradient>
    <linearGradient
       inkscape:collect="always"
       id="linearGradient1225">
      <stop
         style="stop-color:#5b5b5b;stop-opacity:0;"
         offset="0"
         id="stop1217" />
      <stop
         style="stop-color:#929292;stop-opacity:0.73423541;"
         offset="0.39614269"
         id="stop1219" />
      <stop
         style="stop-color:#a1a1a1;stop-opacity:0.69466323;"
         offset="0.62079048"
         id="stop1221" />
      <stop
         style="stop-color:#676767;stop-opacity:0;"
         offset="1"
         id="stop1223" />
    </linearGradient>
    <linearGradient
       inkscape:collect="always"
       id="linearGradient1111">
      <stop
         style="stop-color:#5b5b5b;stop-opacity:0;"
         offset="0"
         id="stop1107" />
      <stop
         style="stop-color:#000000;stop-opacity:0.79705811;"
         offset="0.39614269"
         id="stop1117" />
      <stop
         style="stop-color:#606060;stop-opacity:1;"
         offset="0.62079048"
         id="stop1115" />
      <stop
         style="stop-color:#676767;stop-opacity:0;"
         offset="1"
         id="stop1109" />
    </linearGradient>
    <linearGradient
       inkscape:collect="always"
       id="linearGradient1094">
      <stop
         style="stop-color:#808080;stop-opacity:0;"
         offset="0"
         id="stop1090" />
      <stop
         style="stop-color:#575757;stop-opacity:1;"
         offset="0.32210702"
         id="stop1100" />
      <stop
         style="stop-color:#323232;stop-opacity:1;"
         offset="0.63667715"
         id="stop1098" />
      <stop
         style="stop-color:#363636;stop-opacity:0;"
         offset="1"
         id="stop1092" />
    </linearGradient>
    <linearGradient
       inkscape:collect="always"
       id="linearGradient5043">
      <stop
         style="stop-color:#2c2c2c;stop-opacity:1;"
         offset="0"
         id="stop5039" />
      <stop
         style="stop-color:#2f2f2f;stop-opacity:1;"
         offset="0.12034267"
         id="stop5047" />
      <stop
         style="stop-color:#595959;stop-opacity:1;"
         offset="0.48693186"
         id="stop5049" />
      <stop
         style="stop-color:#a1a1a1;stop-opacity:1;"
         offset="1"
         id="stop5041" />
    </linearGradient>
    <linearGradient
       inkscape:collect="always"
       id="linearGradient4970">
      <stop
         style="stop-color:#424242;stop-opacity:1;"
         offset="0"
         id="stop4966" />
      <stop
         style="stop-color:#8b8b8b;stop-opacity:1;"
         offset="0.12904663"
         id="stop4974" />
      <stop
         style="stop-color:#3e3e3e;stop-opacity:1;"
         offset="0.75276953"
         id="stop4978" />
      <stop
         style="stop-color:#3b3b3b;stop-opacity:1;"
         offset="0.92680484"
         id="stop4976" />
      <stop
         style="stop-color:#737373;stop-opacity:1;"
         offset="1"
         id="stop4968" />
    </linearGradient>
    <linearGradient
       inkscape:collect="always"
       id="linearGradient4623">
      <stop
         style="stop-color:#ffffff;stop-opacity:1;"
         offset="0"
         id="stop4619" />
      <stop
         style="stop-color:#3d3d3d;stop-opacity:1;"
         offset="1"
         id="stop4621" />
    </linearGradient>
    <linearGradient
       inkscape:collect="always"
       id="linearGradient4610">
      <stop
         style="stop-color:#c8c8c8;stop-opacity:1;"
         offset="0"
         id="stop4606" />
      <stop
         style="stop-color:#2d2d2d;stop-opacity:1;"
         offset="1"
         id="stop4608" />
    </linearGradient>
    <linearGradient
       inkscape:collect="always"
       id="linearGradient4597">
      <stop
         style="stop-color:#a1a1a1;stop-opacity:1;"
         offset="0"
         id="stop4593" />
      <stop
         style="stop-color:#5a5a5a;stop-opacity:1;"
         offset="1"
         id="stop4595" />
    </linearGradient>
    <linearGradient
       inkscape:collect="always"
       id="linearGradient4582">
      <stop
         style="stop-color:#6f6f6f;stop-opacity:1;"
         offset="0"
         id="stop4578" />
      <stop
         style="stop-color:#212121;stop-opacity:1;"
         offset="1"
         id="stop4580" />
    </linearGradient>
    <linearGradient
       inkscape:collect="always"
       id="linearGradient4536">
      <stop
         style="stop-color:#9d9d9d;stop-opacity:1;"
         offset="0.47590241"
         id="stop4532" />
      <stop
         style="stop-color:#222222;stop-opacity:1;"
         offset="1"
         id="stop4534" />
    </linearGradient>
    <linearGradient
       inkscape:collect="always"
       id="linearGradient4497">
      <stop
         style="stop-color:#b2b2b2;stop-opacity:1;"
         offset="0"
         id="stop4493" />
      <stop
         style="stop-color:#252525;stop-opacity:1;"
         offset="1"
         id="stop4495" />
    </linearGradient>
    <linearGradient
       inkscape:collect="always"
       id="linearGradient4489">
      <stop
         style="stop-color:#6e6e6e;stop-opacity:1;"
         offset="0"
         id="stop4485" />
      <stop
         style="stop-color:#0b0b0b;stop-opacity:1;"
         offset="1"
         id="stop4487" />
    </linearGradient>
    <linearGradient
       inkscape:collect="always"
       id="linearGradient1934">
      <stop
         style="stop-color:#050505;stop-opacity:1;"
         offset="0"
         id="stop1930" />
      <stop
         style="stop-color:#ababab;stop-opacity:1;"
         offset="1"
         id="stop1932" />
    </linearGradient>
    <linearGradient
       inkscape:collect="always"
       id="linearGradient1924">
      <stop
         style="stop-color:#050505;stop-opacity:1;"
         offset="0.4561682"
         id="stop1920" />
      <stop
         style="stop-color:#6e6e6e;stop-opacity:1;"
         offset="1"
         id="stop1922" />
    </linearGradient>
    <radialGradient
       inkscape:collect="always"
       xlink:href="#linearGradient1924"
       id="radialGradient1926"
       cx="9.8023319"
       cy="7.8494029"
       fx="9.8023319"
       fy="7.8494029"
       r="2.5337028"
       gradientTransform="matrix(2.0139194,-0.28460575,0.15596731,1.1036516,-16.254599,1.9740403)"
       gradientUnits="userSpaceOnUse" />
    <radialGradient
       inkscape:collect="always"
       xlink:href="#linearGradient1934"
       id="radialGradient1936"
       cx="9.4277897"
       cy="4.9106226"
       fx="9.4277897"
       fy="4.9106226"
       r="2.5631959"
       gradientUnits="userSpaceOnUse"
       gradientTransform="matrix(2.6071414,-0.13403566,0.10739749,2.0890002,-20.677852,-4.6520686)" />
    <linearGradient
       inkscape:collect="always"
       xlink:href="#linearGradient4489"
       id="linearGradient4491"
       x1="13.106657"
       y1="8.9988375"
       x2="13.106497"
       y2="8.1330938"
       gradientUnits="userSpaceOnUse"
       gradientTransform="matrix(0.98142963,0,0,1,0.91418618,0)" />
    <linearGradient
       inkscape:collect="always"
       xlink:href="#linearGradient4497"
       id="linearGradient4499"
       x1="13.1621"
       y1="8.456192"
       x2="13.175138"
       y2="6.9013205"
       gradientUnits="userSpaceOnUse"
       gradientTransform="matrix(0.98142963,0,0,1,0.91418618,0)" />
    <radialGradient
       inkscape:collect="always"
       xlink:href="#linearGradient4536"
       id="radialGradient4538"
       cx="24.82457"
       cy="5.5144701"
       fx="24.82457"
       fy="5.5144701"
       r="3.6785997"
       gradientTransform="matrix(0.99999976,6.8974929e-4,-5.0161532e-4,0.72724278,0.00277205,1.4869887)"
       gradientUnits="userSpaceOnUse" />
    <linearGradient
       inkscape:collect="always"
       xlink:href="#linearGradient4582"
       id="linearGradient4584"
       x1="49.803478"
       y1="4.0338774"
       x2="49.690887"
       y2="2.1385024"
       gradientUnits="userSpaceOnUse" />
    <linearGradient
       inkscape:collect="always"
       xlink:href="#linearGradient4597"
       id="linearGradient4599"
       x1="52.408981"
       y1="2.5800672"
       x2="52.407661"
       y2="1.3595203"
       gradientUnits="userSpaceOnUse" />
    <linearGradient
       inkscape:collect="always"
       xlink:href="#linearGradient4610"
       id="linearGradient4612"
       x1="52.99641"
       y1="15.145782"
       x2="52.977627"
       y2="13.845318"
       gradientUnits="userSpaceOnUse" />
    <linearGradient
       inkscape:collect="always"
       xlink:href="#linearGradient4623"
       id="linearGradient4625"
       x1="53.706127"
       y1="15.636445"
       x2="53.612572"
       y2="12.138964"
       gradientUnits="userSpaceOnUse" />
    <linearGradient
       inkscape:collect="always"
       xlink:href="#linearGradient4970"
       id="linearGradient4972"
       x1="24.579706"
       y1="3.4829583"
       x2="24.489338"
       y2="13.683882"
       gradientUnits="userSpaceOnUse" />
    <linearGradient
       inkscape:collect="always"
       xlink:href="#linearGradient5043"
       id="linearGradient5045"
       x1="23.154257"
       y1="14.074724"
       x2="22.333536"
       y2="2.9098854"
       gradientUnits="userSpaceOnUse" />
    <linearGradient
       inkscape:collect="always"
       xlink:href="#linearGradient1094"
       id="linearGradient1096"
       x1="21.675835"
       y1="3.7035037"
       x2="25.747622"
       y2="3.7035037"
       gradientUnits="userSpaceOnUse" />
    <linearGradient
       inkscape:collect="always"
       xlink:href="#linearGradient1225"
       id="linearGradient1113"
       x1="20.841221"
       y1="6.0949669"
       x2="24.967453"
       y2="1.7660846"
       gradientUnits="userSpaceOnUse" />
    <linearGradient
       inkscape:collect="always"
       xlink:href="#linearGradient1111"
       id="linearGradient1121"
       gradientUnits="userSpaceOnUse"
       x1="23.475765"
       y1="3.4211302"
       x2="21.395861"
       y2="0.054917719" />
    <radialGradient
       inkscape:collect="always"
       xlink:href="#linearGradient3283"
       id="radialGradient3285"
       cx="23.547472"
       cy="12.740491"
       fx="23.547472"
       fy="12.740491"
       r="2.870338"
       gradientTransform="matrix(0.90023279,0.44536443,-0.11445492,0.23135229,3.7747693,-0.69852929)"
       gradientUnits="userSpaceOnUse" />
  </defs>
  <g
     inkscape:label="Layer 1"
     inkscape:groupmode="layer"
     id="layer1">
    <circle
       style="fill:url(#radialGradient1936);fill-opacity:1;stroke:none;stroke-width:0.304652"
       id="path217"
       cx="4.7624998"
       cy="7.9375"
       r="2.6458333" />
    <path
       id="path1406"
       style="fill:url(#radialGradient1926);fill-opacity:1;stroke:none;stroke-width:0.273114"
       d="M 7.4081989,7.9193634 C 6.2567955,9.1870184 5.2614475,9.3766776 4.2268531,9.2795968 3.4582389,9.2074736 2.7948393,8.9104355 2.177435,8.4975958 c 0.2635901,1.2168466 1.3399081,2.0852752 2.5849762,2.0856902 1.4612173,-2.5e-5 2.6457617,-1.1845692 2.6457877,-2.6457861 2e-5,-0.00605 2e-5,-0.01209 0,-0.018136 z"
       sodipodi:nodetypes="cscccc" />
    <path
       style="fill:#ffffff;fill-opacity:1;stroke:none;stroke-width:0.273114"
       d="M 3.0590738,6.5662773 C 3.0858171,6.4606117 3.478136,6.0609659 3.6093982,5.9542583 3.7442546,5.8446289 4.3518527,5.6858983 4.5730389,5.7259412 4.7369228,5.7556103 3.9872192,6.1077402 3.7894705,6.3075513 3.5943765,6.5046799 3.0590738,6.5662773 3.0590738,6.5662773 Z"
       id="path1952"
       sodipodi:nodetypes="csssc" />
    <path
       id="rect4363"
       style="fill:url(#linearGradient5045);fill-opacity:1;stroke:none;stroke-width:0.247283"
       d="m 19.314583,7.9375 c 0,-3.6531297 2.961454,-6.6144632 6.614582,-6.6144541 l 51.544517,1.293e-4 v 2.1166665 l -51.544517,1.292e-4 c -2.471321,6.2e-6 -4.47001,2.0227172 -4.47001,4.4975291 0,2.474812 1.998689,4.497523 4.47001,4.497529 l 51.544518,1.29e-4 v 2.116666 l -51.544518,1.3e-4 c -3.653128,9e-6 -6.614582,-2.961325 -6.614582,-6.614454 z"
       sodipodi:nodetypes="ssccsssccss" />
    <path
       id="path4960"
       style="fill:url(#linearGradient4972);fill-opacity:1;stroke:none;stroke-width:0.264583"
       d="m 23.839889,3.3739543 c -0.757711,0.2145842 -1.766928,0.4385119 -2.289783,1.346171 -0.522857,0.907659 -0.974303,2.1620967 -0.996839,3.0804322 -0.02254,0.9183358 -0.0079,1.6980712 0.553455,2.5140585 0.561395,0.815987 1.422199,2.105304 2.452047,2.471167 1.029849,0.365862 2.142426,1.242623 3.542936,1.41025 0.366084,0.04382 0.317391,-0.675831 0.04651,-1.761133 h -1.219047 c -2.471319,-6e-6 -4.470012,-2.02259 -4.470012,-4.4974 0,-1.7995629 1.057467,-3.3591553 2.584339,-4.0767537 C 23.915558,3.5528188 23.83989,3.3739543 23.83989,3.3739543 Z" />
    <path
       id="path4588"
       style="fill:url(#linearGradient4599);fill-opacity:1;stroke:none;stroke-width:0.264583"
       d="m 25.929167,1.3229167 c -1.592196,-4e-6 -3.052032,0.563254 -4.193026,1.5006836 0.564038,0.2218181 1.287163,0.4261818 1.952336,0.5937622 0.0037,-5.926e-4 0.01375,-0.00555 0.01602,-0.00517 0.532087,0.088662 2.635498,-0.2232422 2.635498,-0.2232422 l 51.13383,-0.031006 V 1.3234334 Z" />
    <path
       id="path4573"
       style="fill:url(#linearGradient4584);fill-opacity:1;stroke:none;stroke-width:0.264583"
       d="M 77.473824 2.6220622 C 76.679477 2.6655078 74.236933 2.7985232 73.334542 2.8406535 C 72.278755 2.8899446 69.4103 2.7677897 68.965816 2.7677897 C 68.521333 2.7677897 66.216656 2.788913 64.713879 2.725415 C 63.211101 2.6619171 60.799922 2.661853 60.234566 2.661853 C 59.669211 2.661853 54.145532 2.7590047 54.145532 2.7590047 C 54.145532 2.7590047 54.046889 2.7587733 53.503194 2.7796753 C 52.959501 2.8005778 46.670281 2.741392 46.416288 2.6990601 C 46.162297 2.6567281 46.289473 2.67783 45.061849 2.635498 C 43.834229 2.5931663 41.23822 2.9104167 41.15356 2.9104167 C 41.068896 2.9104167 41.005555 2.9103963 39.777934 2.8892293 C 38.550313 2.8680634 34.950356 2.6774633 33.977254 2.7832926 C 33.004155 2.8891225 30.437552 2.7905477 29.799731 2.8117147 C 29.161909 2.832881 29.800161 2.8113054 25.933301 2.9171346 L 26.014433 3.4401001 L 77.473824 3.4395833 L 77.473824 2.6220622 z " />
    <path
       id="path4527"
       style="fill:url(#radialGradient4538);fill-opacity:1;stroke:none;stroke-width:0.264583"
       d="m 25.844934,2.8938802 c -0.158571,0.0022 -0.337442,0.014574 -0.552421,0.040308 -0.823816,0.098613 -1.175389,0.2095025 -1.896737,0.6964905 -0.330841,0.2233532 -0.455243,0.6292241 -0.610087,1.1121847 0.807124,-0.8043538 1.917013,-1.3027598 3.143478,-1.3027629 H 28.50317 C 28.393739,3.4012165 28.302822,3.3715053 28.258223,3.3625854 28.108558,3.3326525 28.185794,3.2518735 27.123926,3.0633789 26.610647,2.972265 26.320648,2.8872794 25.844934,2.8938802 Z"
       sodipodi:nodetypes="ssscccsss" />
    <path
       id="path4614"
       style="fill:url(#linearGradient4625);fill-opacity:1;stroke:none;stroke-width:0.264583"
       d="M 22.406384 10.701156 C 22.467474 10.912401 22.578971 11.160875 22.870955 11.466484 C 23.419932 12.041077 25.167339 13.374105 26.0165 13.718026 C 26.865661 14.061947 26.888798 14.062191 26.888798 14.062191 L 28.816846 14.429093 L 77.473824 14.251843 L 77.473824 12.4349 L 25.929167 12.4349 C 24.496607 12.434896 23.224064 11.754578 22.406384 10.701156 z " />
    <path
       id="path4601"
       style="fill:url(#linearGradient4612);fill-opacity:1;stroke:none;stroke-width:0.264583"
       d="M 21.211108 12.571842 C 22.411255 13.793487 24.081322 14.552088 25.929167 14.552083 L 77.473824 14.551567 L 77.473824 13.82913 C 76.701358 13.812086 75.551923 13.796515 75.036764 13.848767 C 74.243205 13.92926 70.377073 13.869892 69.405066 13.806392 C 68.433057 13.742899 65.084242 13.841033 63.412667 13.862203 C 61.741093 13.883369 60.427058 13.792395 58.27913 13.750065 C 56.131202 13.707733 53.727816 13.922664 53.558488 13.922664 L 52.286214 13.922664 C 51.077217 13.922664 46.3335 13.939718 46.227669 13.939718 L 45.471643 13.939718 L 43.421122 13.939718 C 43.294124 13.939718 43.230956 13.918513 42.214994 13.897343 C 41.199032 13.876173 39.837727 13.939718 39.409481 13.939718 C 38.981232 13.939718 36.033785 13.906856 34.970475 13.876156 C 33.64826 13.837986 32.286768 14.105638 30.604333 14.065808 C 30.175272 14.055648 27.207861 14.197329 26.622664 14.121619 C 24.467333 13.842763 22.855552 13.344286 21.935612 12.940812 C 21.592029 12.790121 21.375827 12.674498 21.211108 12.571842 z " />
    <path
       id="rect2051"
       style="fill:url(#linearGradient4499);fill-opacity:1;stroke:none;stroke-width:0.125487"
       d="M 7.1546021 6.8791667 L 7.1546021 8.9958333 L 19.419486 8.9958333 C 19.632148 8.7740222 19.821143 8.5071219 19.831348 7.9561035 C 19.837842 7.6054394 19.641849 7.1438584 19.387964 6.8791667 L 7.1546021 6.8791667 z " />
    <path
       id="path4480"
       style="fill:url(#linearGradient4491);fill-opacity:1;stroke:none;stroke-width:0.262115"
       d="M 8.937439 8.136971 C 8.684088 8.1389429 8.4349697 8.147709 8.1540243 8.1710775 C 7.881972 8.1937065 7.4560192 8.1486881 7.3923136 8.1586751 C 7.3103818 8.1715201 7.2102645 8.1781186 7.1571859 8.1860636 L 7.1546021 8.9958333 L 19.419486 8.9958333 C 19.579633 8.8287967 19.726098 8.6362042 19.793107 8.3157715 C 19.385132 8.3097009 18.94117 8.2935375 18.564242 8.2635783 C 17.76534 8.2000805 15.86915 8.2604982 15.744775 8.281665 C 15.620401 8.302832 15.640809 8.281665 14.394987 8.281665 C 13.149162 8.281665 12.072611 8.1762248 11.242725 8.1550578 C 11.035254 8.1497678 10.738142 8.1477998 10.409701 8.1483398 C 9.7938718 8.1493523 9.3596905 8.1336845 8.937439 8.136971 z " />
    <path
       id="path1119"
       style="fill:url(#linearGradient1121);fill-opacity:1;stroke-width:0.264583"
       d="m 25.929167,1.3229167 c -2.925763,-7.3e-6 -5.406268,1.9004995 -6.278687,4.5335734 l 2.020549,0.7136515 c 0.53921,-1.6963306 2.053703,-2.9596824 3.883484,-3.1129883 l 1.061433,-2.1342366 z" />
    <g
       aria-label="Audio Tuner"
       id="text7054"
       style="font-size:8.58101px;font-family:'Latin Modern Roman Dunhill';-inkscape-font-specification:'Latin Modern Roman Dunhill, Normal';fill:#154016;stroke-width:0.715083;fill-opacity:1"
       transform="translate(-0.03702907,0.10730173)">
      <path
         d="m 31.176731,11.962473 v -0.266011 h -0.145877 c -0.540604,0 -0.617833,-0.07723 -0.686481,-0.351822 L 28.413646,3.6131503 c -0.03432,-0.1372961 -0.06007,-0.1802012 -0.180201,-0.1802012 -0.120135,0 -0.154459,0.025743 -0.188783,0.1802012 l -1.862079,7.4654787 c -0.06865,0.266011 -0.205944,0.617833 -0.901006,0.617833 v 0.266011 c 0.180201,-0.0086 0.523442,-0.02574 0.866682,-0.02574 l 0.986816,0.02574 v -0.266011 c -0.454793,-0.0086 -0.703643,-0.231688 -0.703643,-0.471956 0,-0.03432 0,-0.05149 0.03432,-0.180201 l 0.463374,-1.8706603 h 2.110928 l 0.532023,2.1366713 c 0.0086,0.05149 0.02574,0.111553 0.02574,0.111553 0,0.274593 -0.532022,0.274593 -0.76371,0.274593 v 0.266011 c 0.308917,-0.02574 0.901006,-0.02574 1.227085,-0.02574 z m -2.20532,-3.0548396 h -1.973632 l 0.986816,-3.9301025 z"
         id="path7174"
         style="fill:#154016;fill-opacity:1" />
      <path
         d="m 35.801897,11.962473 v -0.266011 c -0.600671,0 -0.669319,-0.06007 -0.669319,-0.480537 V 8.1696666 l -1.261409,0.094391 V 8.530069 c 0.600671,0 0.669319,0.060067 0.669319,0.4805365 v 1.5274195 c 0,0.746548 -0.411888,1.330057 -1.038302,1.330057 -0.720805,0 -0.755129,-0.403308 -0.755129,-0.84952 V 8.1696666 l -1.261408,0.094391 V 8.530069 c 0.669318,0 0.669318,0.025743 0.669318,0.7894529 v 1.2871511 c 0,0.669319 0,1.450191 1.304314,1.450191 0.480536,0 0.858101,-0.240268 1.098369,-0.755129 h 0.0086 v 0.755129 z"
         id="path7176"
         style="fill:#154016;fill-opacity:1" />
      <path
         d="m 40.504288,11.962473 v -0.266011 c -0.600671,0 -0.669319,-0.06007 -0.669319,-0.480537 V 3.6217313 l -1.235665,0.094391 v 0.2660113 c 0.60067,0 0.669318,0.060067 0.669318,0.4805366 v 4.239019 C 39.019773,8.3927728 38.65079,8.1696666 38.187415,8.1696666 c -1.012559,0 -1.913565,0.8409389 -1.913565,1.9478894 0,1.089788 0.840939,1.939308 1.819174,1.939308 0.549185,0 0.93533,-0.291754 1.149855,-0.566347 v 0.566347 z m -1.261409,-1.012559 c 0,0.154458 0,0.17162 -0.09439,0.317497 -0.25743,0.411889 -0.643575,0.600671 -1.012559,0.600671 -0.386145,0 -0.695062,-0.223106 -0.901006,-0.549185 -0.223106,-0.351821 -0.248849,-0.840939 -0.248849,-1.19276 0,-0.3174976 0.01716,-0.8323582 0.266011,-1.2185036 0.180201,-0.2660113 0.50628,-0.5491846 0.969654,-0.5491846 0.300336,0 0.660738,0.1287151 0.926749,0.5148606 0.09439,0.1458771 0.09439,0.1630392 0.09439,0.3174973 z"
         id="path7178"
         style="fill:#154016;fill-opacity:1" />
      <path
         d="m 42.872645,11.962473 v -0.266011 c -0.566347,0 -0.600671,-0.04291 -0.600671,-0.377565 V 8.1696666 l -1.201341,0.094391 V 8.530069 c 0.557766,0 0.634995,0.051486 0.634995,0.4719555 v 2.3082915 c 0,0.386146 -0.09439,0.386146 -0.669319,0.386146 v 0.266011 l 0.943911,-0.02574 c 0.300335,0 0.600671,0.01716 0.892425,0.02574 z M 42.40069,5.8184699 c 0,-0.2316873 -0.197364,-0.4547936 -0.454794,-0.4547936 -0.291754,0 -0.463374,0.2402683 -0.463374,0.4547936 0,0.2316872 0.197363,0.4547935 0.454793,0.4547935 0.291754,0 0.463375,-0.2402683 0.463375,-0.4547935 z"
         id="path7180"
         style="fill:#154016;fill-opacity:1" />
      <path
         d="m 47.18031,10.126137 c 0,-1.0983695 -0.858101,-2.0079565 -1.896403,-2.0079565 -1.072626,0 -1.904984,0.9353301 -1.904984,2.0079565 0,1.10695 0.892425,1.930727 1.896403,1.930727 1.038302,0 1.904984,-0.840939 1.904984,-1.930727 z m -0.712223,-0.06865 c 0,0.308916 0,0.772291 -0.188783,1.149855 -0.188782,0.386145 -0.566346,0.634995 -0.995397,0.634995 -0.368983,0 -0.746548,-0.180201 -0.978235,-0.574928 -0.214525,-0.377564 -0.214525,-0.901006 -0.214525,-1.209922 0,-0.3346597 0,-0.7980342 0.205944,-1.1755986 0.231687,-0.3947265 0.634995,-0.5749277 0.978235,-0.5749277 0.377565,0 0.746548,0.1887822 0.969654,0.5577657 0.223107,0.3689834 0.223107,0.866682 0.223107,1.1927606 z"
         id="path7182"
         style="fill:#154016;fill-opacity:1" />
      <path
         d="M 56.16463,5.6983357 56.001591,3.7676085 h -5.242997 l -0.163039,1.9307272 h 0.214525 c 0.120134,-1.3815426 0.248849,-1.6647159 1.544582,-1.6647159 0.154458,0 0.377564,0 0.463374,0.017162 0.180201,0.034324 0.180201,0.1287152 0.180201,0.3260784 v 6.9077128 c 0,0.291754 0,0.411889 -0.901006,0.411889 h -0.34324 v 0.266011 c 0.351821,-0.02574 1.227084,-0.02574 1.621811,-0.02574 0.394726,0 1.27857,0 1.630392,0.02574 v -0.266011 h -0.343241 c -0.901006,0 -0.901006,-0.120135 -0.901006,-0.411889 V 4.3768602 c 0,-0.1716202 0,-0.2917543 0.154458,-0.3260784 0.09439,-0.017162 0.326079,-0.017162 0.489118,-0.017162 1.295732,0 1.424448,0.2831733 1.544582,1.6647159 z"
         id="path7184"
         style="fill:#154016;fill-opacity:1" />
      <path
         d="m 60.360743,11.962473 v -0.266011 c -0.60067,0 -0.669318,-0.06007 -0.669318,-0.480537 V 8.1696666 l -1.261409,0.094391 V 8.530069 c 0.600671,0 0.669319,0.060067 0.669319,0.4805365 v 1.5274195 c 0,0.746548 -0.411888,1.330057 -1.038302,1.330057 -0.720805,0 -0.755129,-0.403308 -0.755129,-0.84952 V 8.1696666 l -1.261409,0.094391 V 8.530069 c 0.669319,0 0.669319,0.025743 0.669319,0.7894529 v 1.2871511 c 0,0.669319 0,1.450191 1.304314,1.450191 0.480536,0 0.858101,-0.240268 1.098369,-0.755129 h 0.0086 v 0.755129 z"
         id="path7186"
         style="fill:#154016;fill-opacity:1" />
      <path
         d="m 65.131782,11.962473 v -0.266011 c -0.446213,0 -0.660738,0 -0.669319,-0.257431 V 9.8000584 c 0,-0.7379668 0,-1.0039781 -0.266012,-1.3128945 -0.120134,-0.1458771 -0.403307,-0.3174973 -0.901006,-0.3174973 -0.626413,0 -1.029721,0.3689834 -1.261408,0.883844 h -0.0086 v -0.883844 l -1.209922,0.094391 V 8.530069 c 0.60067,0 0.669318,0.060067 0.669318,0.4805365 v 2.2997105 c 0,0.386146 -0.09439,0.386146 -0.669318,0.386146 v 0.266011 l 0.969654,-0.02574 0.961073,0.02574 v -0.266011 c -0.574928,0 -0.669319,0 -0.669319,-0.386146 V 9.7314104 c 0,-0.8924251 0.609252,-1.3729616 1.158436,-1.3729616 0.540604,0 0.634995,0.4633745 0.634995,0.9524921 v 1.9993751 c 0,0.386146 -0.09439,0.386146 -0.669319,0.386146 v 0.266011 l 0.969654,-0.02574 z"
         id="path7188"
         style="fill:#154016;fill-opacity:1" />
      <path
         d="m 68.873102,10.941333 c 0,-0.08581 -0.06865,-0.102972 -0.111553,-0.102972 -0.07723,0 -0.09439,0.05149 -0.111553,0.120134 -0.300335,0.883844 -1.072626,0.883844 -1.158436,0.883844 -0.429051,0 -0.772291,-0.257431 -0.969655,-0.574928 -0.25743,-0.411888 -0.25743,-0.978235 -0.25743,-1.2871514 h 2.394102 c 0.188782,0 0.214525,0 0.214525,-0.1802012 0,-0.8495199 -0.463374,-1.6818779 -1.536001,-1.6818779 -0.995397,0 -1.78485,0.883844 -1.78485,1.9564705 0,1.149855 0.901006,1.982213 1.887823,1.982213 1.046883,0 1.433028,-0.952492 1.433028,-1.115531 z M 68.306756,9.8000584 h -2.0337 c 0.05149,-1.2785704 0.772291,-1.4930957 1.064045,-1.4930957 0.883844,0 0.969655,1.1584363 0.969655,1.4930957 z"
         id="path7190"
         style="fill:#154016;fill-opacity:1" />
      <path
         d="m 72.245438,8.6931082 c 0,-0.2745924 -0.266012,-0.5234416 -0.634995,-0.5234416 -0.626414,0 -0.93533,0.5749276 -1.046883,0.918168 h -0.0086 v -0.918168 l -1.192761,0.094391 V 8.530069 c 0.600671,0 0.669319,0.060067 0.669319,0.4805365 v 2.2997105 c 0,0.386146 -0.09439,0.386146 -0.669319,0.386146 v 0.266011 l 0.978236,-0.02574 c 0.34324,0 0.746547,0 1.089788,0.02574 v -0.266011 h -0.180201 c -0.634995,0 -0.652157,-0.09439 -0.652157,-0.403308 V 9.9716786 c 0,-0.8495199 0.360402,-1.6132298 1.012559,-1.6132298 0.06007,0 0.07723,0 0.09439,0.00858 -0.02574,0.00858 -0.197363,0.1115531 -0.197363,0.3346594 0,0.2402682 0.180201,0.3689834 0.368983,0.3689834 0.154458,0 0.368984,-0.1029721 0.368984,-0.3775644 z"
         id="path7192"
         style="fill:#154016;fill-opacity:1" />
    </g>
    <path
       style="fill:url(#linearGradient1096);fill-opacity:1;stroke-width:0.264583"
       d="m 21.675835,4.5176215 c 0.514767,-0.6208762 1.023798,-1.0179396 2.005547,-1.261695 0.882827,-0.2191945 1.220738,-0.2891587 1.934866,-0.3663824 0,0 -1.263646,0.3905338 -1.9352,0.6583404 -0.689648,0.2750223 -2.005213,0.969737 -2.005213,0.969737 z"
       id="path238"
       sodipodi:nodetypes="cscsc" />
    <path
       id="path1102"
       style="fill:url(#linearGradient1113);fill-opacity:1;stroke-width:0.264583"
       d="m 25.929167,1.3229167 c -2.925763,-7.3e-6 -5.406268,1.9004995 -6.278687,4.5335734 l 2.020549,0.7136515 c 0.53921,-1.6963306 2.053703,-2.9596824 3.883484,-3.1129883 l 1.061433,-2.1342366 z" />
    <path
       style="fill:#ffffff;fill-opacity:1;stroke:none;stroke-width:0.344386"
       d="m 22.240267,2.868714 c 0.06069,-0.1353519 0.81823,-0.6120729 1.022615,-0.7181319 0.08519,-0.044204 1.001549,-0.605956 2.363779,-0.648484 1.094063,-0.034156 10.544144,0.028124 10.802689,0.047301 -0.252419,0.00307 -9.91846,-0.023299 -10.810359,0.106492 -0.472763,0.068798 -0.923722,0.1696106 -1.294321,0.306201 -0.701712,0.2586276 -0.814725,0.3907635 -0.947898,0.4324756 -0.349391,0.1094352 -1.136505,0.474147 -1.136505,0.4741463 z"
       id="path5183"
       sodipodi:nodetypes="csscsssc" />
    <path
       style="fill:#ffffff;stroke:none;stroke-width:0.264583"
       d="m 7.1549253,6.9677919 6.72e-5,0.1084954 3.5879645,-0.063148 z"
       id="path2616"
       sodipodi:nodetypes="cccc" />
    <path
       style="fill:url(#radialGradient3285);fill-opacity:1;stroke:none;stroke-width:0.264583"
       d="m 20.889512,11.806726 1.174295,-1.022547 c 0.465543,0.548526 1.149634,0.940819 1.875848,1.303 0.720859,0.300163 1.538783,0.474166 2.449709,0.527293 l 0.240824,1.844262 c -1.148332,-0.02225 -2.251697,-0.174029 -3.242313,-0.650575 -0.980392,-0.541239 -1.957558,-1.085231 -2.498363,-2.001433 z"
       id="path2774"
       sodipodi:nodetypes="ccccccc" />
    <path
       style="fill:#ffffff;stroke:none;stroke-width:0.339964"
       d="m 25.608845,12.581798 7.293078,-0.0086 c 0,0 -5.355757,0.08738 -6.737241,0.107688 -0.224434,0.0033 -0.555837,-0.09914 -0.555837,-0.09914 z"
       id="path2772"
       sodipodi:nodetypes="ccscc" />
  </g>
  <metadata
     id="metadata7272">
    <rdf:RDF>
      <cc:Work
         rdf:about="">
        <dc:creator>
          <cc:Agent>
            <dc:title>Jessie Blue Cassell</dc:title>
          </cc:Agent>
        </dc:creator>
      </cc:Work>
    </rdf:RDF>
  </metadata>
</svg>
