<?xml version="1.0" encoding="UTF-8" standalone="no"?>
<!-- Created with Inkscape (http://www.inkscape.org/) -->

<svg
   width="297mm"
   height="297mm"
   viewBox="0 0 297 297"
   version="1.1"
   xmlns="http://www.w3.org/2000/svg"
   xmlns:svg="http://www.w3.org/2000/svg">
  <g
       class="jp-icon3"
       fill="#616161">
      <path
         d="m 178.1328,187.99525 c -28.93792,1e-5 -53.63752,16.84236 -58.4078,39.82754 h -10.25762 a 4.701161,4.701161 135 0 0 -4.70116,4.70116 v 52.55825 a 5.6272026,5.6272026 45 0 0 5.6272,5.6272 h 135.48031 a 5.6272026,5.6272026 135 0 0 5.6272,-5.6272 v -52.55825 a 4.701161,4.701161 45 0 0 -4.70116,-4.70116 l -10.25916,0 c -4.77028,-22.98518 -29.46989,-39.82753 -58.40781,-39.82754 z" />
      <path
         d="m 143.2817,15.095203 a 17.199638,17.199638 0 0 0 -2.34405,0.250631 17.199638,17.199638 0 0 0 -8.39483,4.046781 L 79.878847,65.943264 a 17.197918,17.197918 0 0 0 -2.733683,3.073197 L 55.828118,65.492128 a 10.584392,10.584392 0 0 0 -9.20874,2.958993 L 22.672002,92.398497 a 10.583334,10.583334 0 0 0 0,14.966533 10.583334,10.583334 0 0 0 14.966529,0 L 57.742214,87.263927 78.878908,90.75622 a 17.197918,17.197918 0 0 0 0,5.17e-4 17.197918,17.197918 0 0 0 0.518315,0.515731 h 5.17e-4 l 3.494877,21.141342 -20.101616,20.10369 a 10.583334,10.583334 0 0 0 0,14.96704 10.583334,10.583334 0 0 0 14.967046,0 l 23.946863,-23.94737 a 10.584392,10.584392 0 0 0 2.95744,-9.20926 l -3.53777,-21.405414 a 17.197918,17.197918 0 0 0 1.53376,-1.207678 l 38.76559,-34.26561 43.55858,57.496232 -23.6585,109.2383 a 17.197918,17.197918 0 0 0 13.16819,20.44733 17.197918,17.197918 0 0 0 20.44939,-13.16819 l 25.33179,-116.96289 a 17.199638,17.199638 0 0 0 -3.09955,-14.0255 L 157.64258,21.894788 A 17.199638,17.199638 0 0 0 143.2817,15.095203 Z m 0.61753,4.748548 a 13.758333,13.361459 0 0 1 13.79244,13.317533 v 0.04393 A 13.758333,13.361459 0 0 1 143.94471,46.566668 13.758333,13.361459 0 0 1 130.175,33.22743 13.758333,13.361459 0 0 1 143.89923,19.843751 Z m 59.00209,78.052085 a 13.758333,13.361459 0 0 1 13.79244,13.317534 v 0.0439 a 13.758333,13.361459 0 0 1 -13.74697,13.36146 13.758333,13.361459 0 0 1 -13.7697,-13.33923 13.758333,13.361459 0 0 1 13.72423,-13.383684 z" />
      <path
         d="m 203.3075,84.232416 a 26.584653,26.584656 0 0 0 -26.58466,26.584654 26.584653,26.584656 0 0 0 26.58466,26.58466 26.584653,26.584656 0 0 0 26.58465,-26.58466 26.584653,26.584656 0 0 0 -26.58465,-26.584654 z m 0,14.953864 a 11.630786,11.630786 0 0 1 11.63078,11.63079 11.630786,11.630786 0 0 1 -11.63078,11.63079 11.630786,11.630786 0 0 1 -11.63079,-11.63079 11.630786,11.630786 0 0 1 11.63079,-11.63079 z" />
      <path
         d="M 144.08958,6.2906711 A 26.584653,26.584656 0 0 0 117.50492,32.875323 26.584653,26.584656 0 0 0 144.08958,59.459981 26.584653,26.584656 0 0 0 170.67423,32.875323 26.584653,26.584656 0 0 0 144.08958,6.2906711 Z m 0,14.9538619 a 11.630786,11.630786 0 0 1 11.63078,11.63079 11.630786,11.630786 0 0 1 -11.63078,11.63079 11.630786,11.630786 0 0 1 -11.63079,-11.63079 11.630786,11.630786 0 0 1 11.63079,-11.63079 z" />
  </g>
</svg>
