<svg width="151" height="33" viewBox="0 0 151 33" xmlns="http://www.w3.org/2000/svg" xmlns:xlink="http://www.w3.org/1999/xlink">
    <defs>
        <path id="zki0izotja" d="M0 0h12.851v14.11H0z"/>
        <path id="05k3jha6ic" d="M0 0h11.773v14.08H0z"/>
    </defs>
    <g fill="none" fill-rule="evenodd">
        <g fill="#000" fill-rule="nonzero">
            <path d="M16.435 0C7.358 0 0 7.387 0 16.5S7.358 33 16.435 33c9.077 0 16.436-7.387 16.436-16.5S25.512 0 16.435 0zm0 1.031c8.51 0 15.409 6.926 15.409 15.469s-6.899 15.469-15.409 15.469c-8.51 0-15.408-6.926-15.408-15.469S7.926 1.031 16.435 1.031z"/>
            <path d="M16.435 1.031 29.78 8.766v15.468L16.435 31.97 3.092 24.234V8.766L16.435 1.03zm0 1.191L4.118 9.361v14.277l12.317 7.139 12.317-7.139V9.361L16.435 2.222z"/>
            <path d="M10.786 12.89v3.093h11.299v-3.092h1.027v7.218h-1.027v-3.094h-11.3v3.094H9.76v-7.218z"/>
        </g>
        <path fill="#000" d="M84.12 9.44v14.09h10.768v-1.55h-9.085v-4.992h8.633V15.52h-8.633v-4.61h8.864V9.44zM100.468 16.968V10.91h4.29c1.824 0 3.167 1.207 3.167 3.019 0 1.832-1.383 3.04-3.167 3.04h-4.29zm4.29-7.548h-5.955v14.11h1.685v-5.173h4.03l4.044 5.173h1.764v-.242l-4.125-5.152c1.965-.483 3.349-2.013 3.349-4.187 0-2.556-1.905-4.529-4.792-4.529zM117.376 10.769h2.266V9.44h-6.216v1.329h2.266V22.18h-2.426v1.349h6.536V22.18h-2.426zM132.068 18.72c0 2.233-1.564 3.481-3.689 3.481-2.145 0-3.709-1.248-3.709-3.482V9.44h-1.684v9.3c0 3.16 2.346 4.97 5.393 4.97 3.027 0 5.333-1.81 5.333-4.97v-9.3h-1.644v9.28z"/>
        <g transform="translate(137.129 9.42)">
            <mask id="ws0g9z2f4b" fill="#fff">
                <use xlink:href="#zki0izotja"/>
            </mask>
            <path fill="#000" mask="url(#ws0g9z2f4b)" d="M12.21 0 6.436 7.87.662 0H0v14.11h1.684V3.944l4.611 6.36h.26l4.612-6.36v10.164h1.684V0z"/>
        </g>
        <g transform="translate(41.088 9.44)">
            <mask id="84p5t6538d" fill="#fff">
                <use xlink:href="#05k3jha6ic"/>
            </mask>
            <path fill="#000" mask="url(#84p5t6538d)" d="M10.09 14.08V7.484H1.663v6.598H0V0h1.663v5.934h8.427V0h1.683v14.08z"/>
        </g>
        <path d="M59.409 18.593h5.89l-2.945-6.578-2.945 6.578zm-.561 1.448-1.643 3.48h-1.743v-.22L61.994 9.38h.76l6.473 13.92v.221h-1.723l-1.643-3.48h-7.013zM73.472 22.013h7.677v1.508h-9.36V9.441h1.683z" fill="#000"/>
    </g>
</svg>
