<?xml version="1.0" encoding="UTF-8" standalone="no"?>
<!-- Created with Inkscape (http://www.inkscape.org/) -->

<svg
   xmlns:dc="http://purl.org/dc/elements/1.1/"
   xmlns:cc="http://creativecommons.org/ns#"
   xmlns:rdf="http://www.w3.org/1999/02/22-rdf-syntax-ns#"
   xmlns:svg="http://www.w3.org/2000/svg"
   xmlns="http://www.w3.org/2000/svg"
   xmlns:sodipodi="http://sodipodi.sourceforge.net/DTD/sodipodi-0.dtd"
   xmlns:inkscape="http://www.inkscape.org/namespaces/inkscape"
   width="100%"
   height="100%"
   viewBox="0 0 99.999997 99.999997"
   id="svg5548"
   version="1.1"
   inkscape:version="0.92.5 (2060ec1f9f, 2020-04-08)"
   sodipodi:docname="FactSheets.svg">
  <defs
     id="defs5550" />
  <sodipodi:namedview
     id="base"
     pagecolor="#ffffff"
     bordercolor="#666666"
     borderopacity="1.0"
     inkscape:pageopacity="0.0"
     inkscape:pageshadow="2"
     inkscape:zoom="3.959798"
     inkscape:cx="34.979742"
     inkscape:cy="39.94854"
     inkscape:document-units="px"
     inkscape:current-layer="layer1"
     showgrid="false"
     fit-margin-top="0"
     fit-margin-left="0"
     fit-margin-right="0"
     fit-margin-bottom="0"
     units="px"
     inkscape:window-width="1848"
     inkscape:window-height="1016"
     inkscape:window-x="72"
     inkscape:window-y="27"
     inkscape:window-maximized="1" />
  <metadata
     id="metadata5553">
    <rdf:RDF>
      <cc:Work
         rdf:about="">
        <dc:format>image/svg+xml</dc:format>
        <dc:type
           rdf:resource="http://purl.org/dc/dcmitype/StillImage" />
        <dc:title></dc:title>
      </cc:Work>
    </rdf:RDF>
  </metadata>
  <g
     inkscape:label="Layer 1"
     inkscape:groupmode="layer"
     id="layer1"
     transform="translate(-327.14285,-393.79077)">
    <circle
       style="opacity:1;fill:#8dd35f;fill-opacity:1;stroke:none;stroke-width:10;stroke-linecap:round;stroke-linejoin:miter;stroke-miterlimit:4;stroke-dasharray:none;stroke-dashoffset:0;stroke-opacity:1"
       id="path4136"
       cx="377.14285"
       cy="443.79077"
       r="50" />
    <path
       style="opacity:1;fill:#447821;fill-opacity:1;stroke:none;stroke-width:10;stroke-linecap:round;stroke-linejoin:miter;stroke-miterlimit:4;stroke-dasharray:none;stroke-dashoffset:0;stroke-opacity:1"
       d="m 343.05274,418.02936 h 65.40738 v 51.51778 h -28.12221 c -2.15878,3.044 -5.40426,3.5157 -7.58929,0 h -29.69588 z"
       id="rect4162"
       inkscape:connector-curvature="0"
       sodipodi:nodetypes="ccccccc" />
    <path
       style="opacity:1;fill:#ffffff;fill-opacity:1;stroke:none;stroke-width:10;stroke-linecap:round;stroke-linejoin:miter;stroke-miterlimit:4;stroke-dasharray:none;stroke-dashoffset:0;stroke-opacity:1"
       d="m 346.60623,416.00379 c 0,0 23.5094,-0.27201 24.60375,0 1.09435,0.27201 4.75783,1.55579 5.26249,3.91434 0.52658,-2.3641 4.68777,-3.74164 5.97158,-3.91434 1.28381,-0.1727 22.4626,0 22.4626,0 v 50.08901 c 0,0 -21.56129,-0.36199 -22.95987,0 -1.39858,0.36199 -4.5667,1.16875 -5.40149,4.46347 -0.85519,-3.65682 -4.44559,-4.13269 -6.07158,-4.46347 -1.62599,-0.33078 -23.86748,0 -23.86748,0 z"
       id="rect4164"
       inkscape:connector-curvature="0"
       sodipodi:nodetypes="czczcczczcc" />
    <path
       style="opacity:1;fill:#447821;fill-opacity:0.77604167;stroke:none;stroke-width:10;stroke-linecap:round;stroke-linejoin:miter;stroke-miterlimit:4;stroke-dasharray:none;stroke-dashoffset:0;stroke-opacity:1"
       d="m 346.65305,464.56421 h 23.49129 c 3.39608,-0.16915 5.82303,0.44677 6.5223,2.46225 1.02917,-2.63552 3.49213,-2.20778 5.63577,-2.46225 h 22.60372 v 1.47934 h -22.72125 c -3.97374,0.91915 -5.15104,2.75923 -5.63118,4.54321 -0.44441,-1.93653 -1.63244,-3.59298 -6.14499,-4.54321 h -23.75566 z"
       id="rect4168-9"
       inkscape:connector-curvature="0"
       sodipodi:nodetypes="ccccccccccc" />
    <g
       id="g4346"
       transform="translate(303.90934,238.02413)"
       style="fill:#000000;fill-opacity:0.48095238">
      <rect
         ry="0"
         y="188.54034"
         x="74.850639"
         height="1.3900517"
         width="23.034811"
         id="rect4168-1"
         style="opacity:1;fill:#000000;fill-opacity:0.48095238;stroke:none;stroke-width:10;stroke-linecap:round;stroke-linejoin:miter;stroke-miterlimit:4;stroke-dasharray:none;stroke-dashoffset:0;stroke-opacity:1" />
      <rect
         ry="0"
         y="193.51346"
         x="74.850639"
         height="1.3900517"
         width="23.034811"
         id="rect4168-3-2"
         style="opacity:1;fill:#000000;fill-opacity:0.48095238;stroke:none;stroke-width:10;stroke-linecap:round;stroke-linejoin:miter;stroke-miterlimit:4;stroke-dasharray:none;stroke-dashoffset:0;stroke-opacity:1" />
      <rect
         ry="0"
         y="198.48643"
         x="74.850639"
         height="1.3900517"
         width="23.034811"
         id="rect4168-6-7"
         style="opacity:1;fill:#000000;fill-opacity:0.48095238;stroke:none;stroke-width:10;stroke-linecap:round;stroke-linejoin:miter;stroke-miterlimit:4;stroke-dasharray:none;stroke-dashoffset:0;stroke-opacity:1" />
      <rect
         ry="0"
         y="203.45953"
         x="74.850639"
         height="1.3900517"
         width="23.034811"
         id="rect4168-7-0"
         style="opacity:1;fill:#000000;fill-opacity:0.48095238;stroke:none;stroke-width:10;stroke-linecap:round;stroke-linejoin:miter;stroke-miterlimit:4;stroke-dasharray:none;stroke-dashoffset:0;stroke-opacity:1" />
      <rect
         ry="0"
         y="208.43257"
         x="74.850639"
         height="1.3900517"
         width="23.034811"
         id="rect4168-5-9"
         style="opacity:1;fill:#000000;fill-opacity:0.48095238;stroke:none;stroke-width:10;stroke-linecap:round;stroke-linejoin:miter;stroke-miterlimit:4;stroke-dasharray:none;stroke-dashoffset:0;stroke-opacity:1" />
      <rect
         ry="0"
         y="213.40561"
         x="74.850639"
         height="1.3900517"
         width="23.034811"
         id="rect4168-35-3"
         style="opacity:1;fill:#000000;fill-opacity:0.48095238;stroke:none;stroke-width:10;stroke-linecap:round;stroke-linejoin:miter;stroke-miterlimit:4;stroke-dasharray:none;stroke-dashoffset:0;stroke-opacity:1" />
      <rect
         ry="0"
         y="218.37869"
         x="74.850639"
         height="1.3900517"
         width="23.034811"
         id="rect4168-62-6"
         style="opacity:1;fill:#000000;fill-opacity:0.48095238;stroke:none;stroke-width:10;stroke-linecap:round;stroke-linejoin:miter;stroke-miterlimit:4;stroke-dasharray:none;stroke-dashoffset:0;stroke-opacity:1" />
      <rect
         ry="0"
         y="183.56732"
         x="74.850639"
         height="1.3900517"
         width="23.034811"
         id="rect4168-1-6"
         style="opacity:1;fill:#000000;fill-opacity:0.48095238;stroke:none;stroke-width:10;stroke-linecap:round;stroke-linejoin:miter;stroke-miterlimit:4;stroke-dasharray:none;stroke-dashoffset:0;stroke-opacity:1" />
    </g>
    <text
       xml:space="preserve"
       style="font-style:normal;font-variant:normal;font-weight:normal;font-stretch:normal;line-height:0%;font-family:'08 Underground';-inkscape-font-specification:'08 Underground';letter-spacing:0px;word-spacing:0px;fill:#000000;fill-opacity:0.53333336;stroke:none;stroke-width:1px;stroke-linecap:butt;stroke-linejoin:miter;stroke-opacity:1;"
       x="357.57465"
       y="424.2381"
       id="text4303"><tspan
         sodipodi:role="line"
         id="tspan4305"
         x="357.57465"
         y="424.2381"
         style="font-style:normal;font-variant:normal;font-weight:normal;font-stretch:normal;font-size:9.25636673px;line-height:1.25;font-family:'Abyssinica SIL';-inkscape-font-specification:'Abyssinica SIL';fill:#000000;fill-opacity:0.53333336;">A</tspan></text>
    <path
       style="display:inline;fill:#5aa02c;fill-opacity:1;stroke:none;stroke-width:0.44725335"
       d="m 362.12036,457.62483 c 0.14074,-2.29878 0.29138,-4.28854 1.23008,-7.38529 -0.0127,-0.004 1.27545,-1.93115 1.38826,-2.23911 0.17179,-0.46905 -0.47696,-4.15221 -1.3201,-7.37907 -0.0244,-0.0932 1.32068,-1.01793 1.96978,-5.03069 -0.89666,2.98285 -2.25091,3.89514 -2.27976,3.78918 -0.39743,-1.45974 -0.85417,-2.62927 -1.18603,-3.27817 -1.15932,-2.26667 -3.2907,-5.0557 -5.43882,-6.75743 0.89265,0.72539 2.81399,3.41184 4.34003,7.17873 -0.47259,-0.42317 -1.25842,-0.73674 -3.08145,-1.03269 1.8182,0.57888 2.72713,1.47276 3.34783,2.02003 0.61631,1.6223 1.15315,3.37882 1.51077,5.17172 -0.23678,-0.15119 -3.66068,-1.35101 -4.59927,-1.05878 1.38152,0.37689 4.89682,2.10113 4.98138,2.15101 1.081,3.51688 1.57395,6.35861 0.67436,6.64165 -0.1233,0.0387 -0.53269,-0.27553 -0.53844,-0.27817 -7.42031,-3.39144 -7.6161,-15.96599 -8.94435,-22.30945 3.09255,-1.26138 6.99449,2.64359 9.05748,4.16503 4.4377,3.27287 5.81536,10.51432 1.1534,18.41453 -0.76936,2.21629 -0.42622,4.80338 -0.40818,7.28213 0.10218,0.59451 -2.16901,2.6261 -1.85697,-0.0652 z"
       id="path4622-7-3"
       inkscape:connector-curvature="0"
       sodipodi:nodetypes="ccsscsscccccccsscsccc"
       inkscape:export-filename="/home/tom/anymals_workspace/inkscape/TAXONFILTER/plants.png"
       inkscape:export-xdpi="32.556522"
       inkscape:export-ydpi="32.556522" />
  </g>
</svg>
