<?xml version="1.0" encoding="UTF-8" standalone="no"?>
<!-- Created with Inkscape (http://www.inkscape.org/) -->

<svg
   xmlns:dc="http://purl.org/dc/elements/1.1/"
   xmlns:cc="http://creativecommons.org/ns#"
   xmlns:rdf="http://www.w3.org/1999/02/22-rdf-syntax-ns#"
   xmlns:svg="http://www.w3.org/2000/svg"
   xmlns="http://www.w3.org/2000/svg"
   xmlns:sodipodi="http://sodipodi.sourceforge.net/DTD/sodipodi-0.dtd"
   xmlns:inkscape="http://www.inkscape.org/namespaces/inkscape"
   width="100%"
   height="100%"
   viewBox="0 0 99.999997 99.999997"
   id="svg5548"
   version="1.1"
   inkscape:version="0.92.3 (2405546, 2018-03-11)"
   sodipodi:docname="online_content.svg">
  <defs
     id="defs5550" />
  <sodipodi:namedview
     id="base"
     pagecolor="#ffffff"
     bordercolor="#666666"
     borderopacity="1.0"
     inkscape:pageopacity="0.0"
     inkscape:pageshadow="2"
     inkscape:zoom="3.959798"
     inkscape:cx="30.004902"
     inkscape:cy="40.958693"
     inkscape:document-units="px"
     inkscape:current-layer="layer1"
     showgrid="false"
     fit-margin-top="0"
     fit-margin-left="0"
     fit-margin-right="0"
     fit-margin-bottom="0"
     units="px"
     inkscape:window-width="1920"
     inkscape:window-height="1016"
     inkscape:window-x="0"
     inkscape:window-y="27"
     inkscape:window-maximized="1" />
  <metadata
     id="metadata5553">
    <rdf:RDF>
      <cc:Work
         rdf:about="">
        <dc:format>image/svg+xml</dc:format>
        <dc:type
           rdf:resource="http://purl.org/dc/dcmitype/StillImage" />
        <dc:title />
      </cc:Work>
    </rdf:RDF>
  </metadata>
  <g
     inkscape:label="Layer 1"
     inkscape:groupmode="layer"
     id="layer1"
     transform="translate(-327.14285,-393.79077)">
    <g
       id="g884">
      <path
         inkscape:connector-curvature="0"
         style="clip-rule:evenodd;fill:#fbfbfb;fill-opacity:1;fill-rule:evenodd;stroke:none;stroke-width:0.32565874"
         id="path8"
         d="m 377.19724,395.55517 c 26.61055,0 48.18283,21.57359 48.18283,48.29388 0,26.60665 -21.57196,48.17731 -48.18283,48.17731 -26.71933,0 -48.29161,-21.57034 -48.29161,-48.17731 3.3e-4,-26.72062 21.57228,-48.29388 48.29161,-48.29388 z" />
      <path
         inkscape:connector-curvature="0"
         style="clip-rule:evenodd;fill:#57b6ea;fill-opacity:1;fill-rule:evenodd;stroke-width:0.32565874"
         id="path12"
         d="m 416.07193,429.39796 c 0.32957,0.21754 0.65848,0.43833 0.87635,0.65587 0.32924,0 0.54841,0 0.87602,0 0,-0.55329 0,-1.09877 0,-1.64555 0.76758,0 1.64425,-0.10877 2.5206,-0.21754 0.76627,0.65588 1.64099,1.20754 2.40857,1.86309 0.54711,0 1.09389,0 1.63969,0 -0.43703,-1.53678 -0.98381,-3.07226 -1.53092,-4.48953 -0.43801,-0.3325 -0.76725,-0.7692 -1.09519,-1.09877 -0.10877,-0.54711 -0.10877,-1.09226 -0.21917,-1.63937 0,-0.21916 -0.10877,-0.43833 -0.21917,-0.55166 -0.43833,0.11333 -0.76627,0.3325 -1.20591,0.55166 -0.21591,0.98382 -0.43671,1.86017 -0.65425,2.84366 -0.65881,-0.65751 -1.31468,-1.42183 -1.97219,-2.07934 0,-0.66043 0,-1.31631 0,-1.97186 -0.6575,-0.43671 -1.31599,-0.98675 -1.86309,-1.53385 -0.21754,-0.21754 -0.54711,-0.43671 -0.76465,-0.65425 -0.65588,0 -1.42345,0 -2.08259,0 0.21917,0.54548 0.43997,1.20103 0.65881,1.86179 0.87635,0.54385 1.75302,0.98219 2.62611,1.4202 0.10877,0.21754 0.2208,0.33087 0.44094,0.55004 -0.22047,0.11039 -0.44094,0.11039 -0.54971,0.21916 0,0.54548 0,1.09226 0,1.5306 -0.43833,0.21917 -0.87634,0.33087 -1.31305,0.55167 -0.32794,-0.11496 -0.65751,-0.11496 -1.09715,-0.2208 -0.21754,-0.33087 -0.43671,-0.65718 -0.65587,-0.98675 0.65587,0 1.20591,0.10877 1.75302,0.10877 0.21917,-0.21754 0.32794,-0.43833 0.54873,-0.65587 -1.31631,-0.87961 -2.62937,-1.75433 -3.94405,-2.62774 -0.10877,-0.32957 -0.21754,-0.76758 -0.32794,-1.09715 -0.54711,0.43834 -0.98675,0.98512 -1.53385,1.42671 -0.54711,-0.11202 -1.09356,-0.21916 -1.6423,-0.32956 -0.76627,1.09226 -1.64099,2.08063 -2.40857,3.17484 -0.21917,0.43834 -0.32794,0.87505 -0.43997,1.20755 -0.54385,0.10584 -1.09388,0.10584 -1.64099,0.21754 -0.76628,0 -1.53353,0 -2.2998,0 -0.43671,-0.21754 -0.87342,-0.43834 -1.31469,-0.65881 -0.21754,-0.87505 -0.32956,-1.86016 -0.43508,-2.73488 0.10552,-0.43801 0.32631,-0.87635 0.43508,-1.31762 0.87798,-0.21754 1.64425,-0.32631 2.41151,-0.54711 0.87374,0.2208 1.64099,0.32957 2.51734,0.54711 0.10877,-0.43834 0.2208,-0.98512 0.32631,-1.42182 -0.32631,-0.10877 -0.76465,-0.21754 -1.09389,-0.21754 0.10877,-0.77084 0.2208,-1.53223 0.43834,-2.30143 0.76758,-0.1104 1.64262,-0.21917 2.5206,-0.32794 0.65587,-0.87635 1.20265,-1.7527 1.86146,-2.62937 0.54581,-0.10552 1.20266,-0.10552 1.86179,-0.2208 0.54711,0 1.09226,0.11528 1.641,0.2208 0.22079,0 0.43833,0 0.65587,0 -0.10877,-0.76139 -0.21754,-1.64262 -0.32631,-2.40727 -0.76757,0.21917 -1.42345,0.54548 -2.08096,0.76465 -0.21754,-0.54548 -0.54873,-1.09226 -0.76725,-1.74814 -0.32826,0 -0.7666,-0.1117 -1.20428,-0.1117 0,-0.43671 -0.10877,-0.87342 -0.21917,-1.31143 0.32956,-0.3325 0.65718,-0.66044 0.98512,-0.99 0.43833,-0.21754 0.76594,-0.32794 1.20558,-0.43671 -8.5417,-7.66568 -19.82056,-12.37568 -32.19397,-12.37568 -7.88485,0 -15.22194,1.86602 -21.68236,5.14834 0.87635,0 1.7514,0 2.73879,0 0.43671,0.55003 0.87407,1.20591 1.31306,1.74976 0.65751,0.11333 1.4228,0.11333 2.1894,0.2221 0.43997,-0.44127 0.87635,-0.87798 1.31469,-1.31631 0.32696,0.11333 0.65653,0.33119 0.98609,0.43833 -0.6588,0.65588 -1.20591,1.20592 -1.86081,1.8631 0,0 -2.51962,0 -2.41085,0 0.10942,0 0.22079,1.74976 0.22079,1.74976 1.09226,0 2.07999,-0.10421 3.0651,-0.10421 0.10943,-0.21917 0.2182,-0.55167 0.32697,-0.77246 0.76855,-0.10877 1.42475,-0.10877 2.19038,-0.21754 0,-0.32794 0.10877,-0.76465 0.21916,-1.20266 -0.43768,-0.1104 -0.87569,-0.1104 -1.31142,-0.21917 0.21754,-0.32794 0.32696,-0.76627 0.43573,-1.09714 0.32924,-0.10714 0.65653,-0.21754 0.98577,-0.32501 1.09486,0.10747 2.19103,0.10747 3.28589,0.21754 -0.54841,0.54385 -1.20754,1.09552 -1.75204,1.6423 0,0.43671 0.10877,0.87504 0.21819,1.31305 0.65946,0.10877 1.31371,0.10877 1.96958,0.2221 -0.10811,-0.77083 -0.10811,-1.53515 -0.10811,-2.30143 0.54613,-0.3325 1.20591,-0.6575 1.75139,-0.98674 1.09779,-0.10747 2.19038,-0.2208 3.2859,-0.32631 1.53287,0.65555 3.06607,1.42182 4.59993,2.079 0,0.54711 0,1.20103 0,1.75433 0.5471,0.10583 1.09388,0.32337 1.53189,0.4367 -0.21754,0.43671 -0.43801,0.87635 -0.76725,1.42183 -0.65587,0 -1.42182,0 -2.08031,0 -0.21819,0.43671 -0.43638,0.98512 -0.65555,1.53222 -1.5332,-0.32793 -3.17712,-0.76627 -4.81649,-1.09551 1.31306,-0.65425 2.51669,-1.31469 3.82975,-2.07608 -0.54646,-0.33249 -0.98512,-0.77246 -1.42183,-1.20884 -1.09486,0.1104 -2.19038,0.32794 -3.2859,0.43671 -0.11039,0.11202 -0.21982,0.22079 -0.32859,0.33412 v 0 0 c -0.32696,0.32501 -0.65652,0.65588 -0.98609,0.98056 -0.54874,0.1117 -1.09486,0.1117 -1.53288,0.1117 0.54841,3.39695 -0.6588,0.32631 -4.37913,1.53385 -3.61546,2.08064 -7.44749,4.48921 -0.21917,5.5818 0,3.94242 0.65653,3.61448 2.19038,0.4367 0.87505,-0.32305 1.74912,-0.65424 2.73651,-0.87341 0,-1.09552 0,-2.30111 0,-3.39532 0.43899,-0.32501 0.87505,-0.76628 1.42509,-1.09389 1.20265,0.21754 2.40792,0.54711 3.50246,0.76921 0,0.76139 -0.1104,1.53222 -0.21754,2.29817 0.32631,0 0.65652,0 0.98511,0 0.87505,-0.43671 1.7514,-0.87928 2.62872,-1.31761 0,0.98837 0,1.97349 0.10877,2.95861 0.65555,0.4367 1.20429,0.7692 1.86082,1.20754 0,0.54222 0,1.09226 0,1.74976 -0.65686,0.10877 -1.31469,0.32631 -1.86082,0.54678 0,0.21754 0.10877,0.43834 0.10877,0.65588 0.76595,0.32957 1.42248,0.66044 2.19038,0.98382 0,0.33412 0,0.77246 0,1.20754 -0.21917,0 -0.43833,0 -0.65587,0 v 0 c -0.98773,-0.3325 -1.86245,-0.55004 -2.84919,-0.87342 0,-0.33412 0,-0.55167 -0.10877,-0.87504 v 0 c 0.32859,-0.22048 0.5471,-0.3325 0.87634,-0.55167 0,-0.32924 0,-0.54711 0,-0.87635 -0.32956,0 -0.65652,-0.10877 -0.87634,-0.21754 -0.10942,0.32631 -0.10942,0.54678 -0.21819,0.76465 -0.54874,0.11007 -0.98577,0.22047 -1.53288,0.22047 -0.11105,0 -0.11105,0 -0.11105,0 0,0 0,0 0,0.10877 -0.21917,0 -0.43834,0 -0.54548,0 -0.22079,-0.21917 -0.32956,-0.54711 -0.43899,-0.87635 -0.21916,0 -0.32859,-0.10877 -0.5471,-0.21754 -0.32696,0 -0.65881,0 -1.09617,0 -0.10877,0.21754 -0.32859,0.32631 -0.43736,0.43801 0,0.32631 0,0.65588 0,0.87505 0.32859,0.11202 0.54776,0.21917 0.87505,0.3325 0.33184,0.10421 0.6588,0.10421 0.98674,0.10421 -0.10942,0.11365 -0.21917,0.11365 -0.21917,0.11365 -0.32696,0.32306 -0.54613,0.65718 -0.87537,0.98056 -0.1104,-0.21917 -0.21917,-0.32338 -0.32956,-0.54255 -0.32859,0 -0.54613,-0.11495 -0.87407,-0.11495 -0.65979,0.6575 -1.42509,1.31924 -2.18973,1.97349 0.10747,0.10877 0.21819,0.22079 0.32631,0.32794 -1.09649,0.54873 -2.18875,1.20754 -3.2859,1.75139 -0.98381,1.09714 -2.07933,2.19266 -3.06445,3.17615 -0.1104,0.55004 -0.1104,0.98837 -0.21917,1.42475 -0.98576,0.65881 -2.08063,1.42346 -3.06737,2.08096 -0.54679,0.43671 -0.98382,0.98382 -1.53288,1.53353 0,0.98675 0.10942,1.97056 0.10942,3.06445 -0.65653,-0.32924 -1.31306,-0.65588 -2.08096,-0.98512 0,-0.6575 0,-1.20266 0,-1.86016 -1.97121,0 -3.94079,0 -5.80324,0 -1.09486,0.54385 -2.07998,1.09389 -3.06673,1.64099 -0.4367,0.76628 -0.87406,1.53516 -1.31403,2.4102 -0.21819,0.65751 -0.43833,1.31306 -0.54775,1.86017 0.21819,0.65587 0.54775,1.31631 0.877,1.97479 0.76692,0.10421 1.53222,0.10421 2.41019,0.21754 1.20266,-0.7692 2.51669,-1.64425 3.72163,-2.52223 0.1104,0.43997 0.2208,0.87798 0.43997,1.31469 -0.43997,0.65588 -0.87961,1.42638 -1.20755,2.19103 0.98838,0.10877 1.97284,0.32924 2.84984,0.43671 0.10877,1.53353 0.21917,2.95568 0.32696,4.49116 1.31306,0.21917 2.62774,0.43671 3.94243,0.65718 4.05087,-4.59961 9.63364,-1.97349 13.14033,1.85853 0.10877,0 0.21917,0 0.21917,0.11366 6.35002,3.06445 1.85983,3.50115 7.77445,5.80226 1.53352,0 2.95698,0 4.37718,0 0.43996,0.65588 0.8796,1.42671 1.31631,2.08389 0.6575,0.21754 1.31306,0.43671 1.97219,0.65425 -0.10877,0.54873 -0.21754,1.20428 -0.43834,1.75139 -0.6575,0.87505 -1.42345,1.75139 -2.07933,2.73781 -0.2208,1.97056 -0.44127,3.94243 -0.65881,6.02143 -0.6575,0.43834 -1.20265,0.98675 -1.86179,1.42509 -0.98512,0 -1.97349,0 -2.84658,0 -0.32957,0.5471 -0.65685,1.09388 -0.9861,1.64262 0.22015,0.98381 0.43997,2.0777 0.65686,3.06738 -0.98512,1.3098 -2.07998,2.62481 -3.06445,4.05119 -0.32957,0.54548 -0.65816,1.20266 -0.98577,1.74977 -0.98609,0.55003 -1.97121,0.98837 -2.95633,1.42475 -0.65816,0.10747 -1.31306,0.2195 -1.97219,0.32664 0,0.33087 -0.1104,0.54971 -0.1104,0.87765 0.44127,0.10877 0.98838,0.2208 1.42443,0.32794 -0.10877,0.32956 -0.10877,0.6575 -0.21754,0.87504 -0.43736,0.43834 -0.76529,0.76921 -1.20689,1.20755 0.21917,0.32468 0.55004,0.6575 0.76921,0.98218 0.43736,0 0.98381,0 1.42117,0 0,0.3312 0,0.76921 -0.10811,1.09878 -0.1104,0.43508 -0.21917,0.76464 -0.32957,1.20233 0,0.21949 -0.10877,0.55003 -0.10877,0.87374 0.6575,0.65588 1.42345,1.20722 2.19103,1.86309 -0.11203,0.32957 -0.2208,0.65751 -0.32957,0.87635 -0.98381,0 -1.97186,0 -2.95567,0 -0.9861,-0.87635 -1.97219,-1.74976 -2.95731,-2.62611 -0.76628,-1.31599 -1.53385,-2.62904 -2.30078,-4.05087 0.1104,-1.20754 0.21917,-2.5206 0.32891,-3.83365 -0.54775,-0.76726 -1.20363,-1.53516 -1.75204,-2.29981 0.21819,-1.31142 0.43899,-2.62611 0.65653,-3.94242 -0.32696,-0.11007 -0.65653,-0.21884 -0.9861,-0.32957 0,-2.84821 0,-5.69512 0,-8.53877 0,0 -2.9534,-2.18973 -3.0651,-2.18973 -0.21754,0 -1.53352,-0.43996 -1.53352,-0.43996 -0.10877,-0.43834 -0.21754,-0.98512 -0.32794,-1.53223 -1.20526,-1.64099 -2.51669,-3.17778 -3.72261,-4.81714 0.10943,-0.55167 0.21917,-1.09389 0.32859,-1.64425 0.10942,-0.87635 0.10942,-1.86179 0.10942,-2.73782 0.87635,-0.6588 1.7514,-1.31468 2.62709,-1.86179 -0.10942,-1.09389 -0.21916,-2.07933 -0.32859,-3.06607 -1.3124,-0.10715 -2.51734,-0.2208 -3.83202,-0.32631 -0.9861,-1.09682 -1.97056,-2.30111 -2.95568,-3.39532 -0.76758,-0.21917 -1.42476,-0.43671 -2.19103,-0.65588 -0.43671,0 -0.87635,-0.11365 -1.31371,-0.22242 0,-0.43834 0.10942,-0.76628 0.10942,-1.20429 -0.54776,-0.10714 -1.09389,-0.21754 -1.75302,-0.21754 0,0.21754 0,0.43671 0,0.65588 -1.42182,-0.32631 -2.84593,-0.76758 -4.27101,-1.09552 -0.65653,-0.87342 -1.20168,-1.74814 -1.74977,-2.62937 0.2182,-0.43671 0.43802,-0.87341 0.65653,-1.3098 -0.87732,-1.42345 -1.86342,-2.74107 -2.73814,-4.05445 -0.10942,-0.98512 -0.33021,-1.97186 -0.43898,-2.95568 -0.43736,0 -0.7653,0 -1.20266,0 0.21754,0.98382 0.32859,1.97024 0.43736,2.84691 0.65718,0.98512 1.20428,1.96893 1.86146,2.95731 0,0.43833 -0.10942,0.76758 -0.21916,1.20591 -0.54776,-0.11202 -1.09617,-0.22079 -1.53353,-0.32956 -0.65751,-1.09389 -1.42443,-2.19136 -2.07998,-3.39532 0,-1.31469 0,-2.62481 0,-3.94243 -0.65653,-0.32631 -1.31469,-0.65587 -2.07999,-0.98511 0,-0.33087 0,-0.65588 0,-0.98675 -2.08161,5.47595 -3.28589,11.49771 -3.28589,17.74156 0,26.60665 21.57195,48.1773 48.2916,48.1773 15.43948,0 29.23699,-7.22441 37.99493,-18.50295 0,-0.54873 0,-1.09356 0,-1.53678 -0.65587,-0.87342 -1.20266,-1.74977 -1.85853,-2.62481 0,-1.31306 0,-2.62611 0,-3.9421 -0.55004,-0.54711 -0.98675,-0.98382 -1.42509,-1.42183 -0.11039,-0.55166 -0.11039,-1.09388 -0.21916,-1.75139 0.6575,-1.09877 1.31468,-2.30013 1.86504,-3.50734 -1.09714,-2.07933 -2.30012,-4.05283 -3.50604,-6.13216 0.21754,-1.4215 0.32631,-2.84658 0.43508,-4.15964 -1.09226,-0.10877 -2.07933,-0.21917 -3.17289,-0.32794 -0.32957,-0.43833 -0.76758,-0.8796 -1.09389,-1.20428 -0.76758,0 -1.42508,0 -2.19136,0 -0.11202,0.10551 -0.32956,0.32468 -0.5471,0.43996 -0.10877,0.21754 -0.32957,0.43671 -0.43834,0.54548 -17.63116,0 -9.09044,-17.84707 -2.95698,-21.24402 0.32794,0 0.65588,0.10747 1.09552,0.10747 0.65587,0 1.4215,0 2.19103,0 0.54385,-0.32501 1.09388,-0.65588 1.75139,-0.87635 1.86016,-0.21754 3.72163,-0.32338 5.58342,-0.43834 0,0.87798 0,1.86635 0,2.84984 1.42508,0.32859 2.95893,0.7653 4.38076,1.09943 z" />
      <circle
         r="48.371708"
         cy="443.79077"
         cx="377.14285"
         id="path874"
         style="opacity:1;fill:none;fill-opacity:1;stroke:#57b6ea;stroke-width:3.25658727;stroke-linecap:round;stroke-linejoin:round;stroke-miterlimit:4;stroke-dasharray:none;stroke-opacity:1" />
    </g>
  </g>
</svg>
