<svg viewBox="0 0 1000 480" xmlns="http://www.w3.org/2000/svg">
  <defs>
    <filter id="shadow" x="-5%" y="-5%" width="110%" height="110%">
      <feDropShadow dx="1" dy="1" stdDeviation="1" flood-opacity="0.08"/>
    </filter>
  </defs>
  
  <!-- Background -->
  <rect width="1000" height="480" fill="#ffffff"/>
  
  <!-- ==================== TEXT CLASSIFICATION (Left Panel) ==================== -->
  
  <!-- Code header -->
  <text x="245" y="25" text-anchor="middle" font-family="Consolas, monospace" font-size="12" fill="#333">BertForSequenceClassification(model_name)</text>
  
  <!-- Main container -->
  <rect x="20" y="40" width="450" height="420" rx="12" fill="#d5f5e3" stroke="#7dcea0" stroke-width="2"/>
  
  <!-- Title -->
  <text x="245" y="70" text-anchor="middle" font-family="Arial, sans-serif" font-size="15" font-weight="bold" fill="#1e8449">Text Classification</text>
  <text x="245" y="90" text-anchor="middle" font-family="Arial, sans-serif" font-size="11" fill="#27ae60" font-style="italic">Sequence-level prediction</text>
  
  <!-- Input Section -->
  <g transform="translate(60, 110)">
    <text x="175" y="0" text-anchor="middle" font-family="Arial, sans-serif" font-size="10" fill="#555">Input Tokens</text>
    
    <rect x="0" y="10" width="55" height="32" rx="6" fill="#fdebd0" stroke="#f5b041" stroke-width="1.5"/>
    <text x="27" y="30" text-anchor="middle" font-family="Consolas, monospace" font-size="9" fill="#9a7d0a">[CLS]</text>
    
    <rect x="65" y="10" width="55" height="32" rx="6" fill="#d6eaf8" stroke="#5dade2" stroke-width="1.5"/>
    <text x="92" y="30" text-anchor="middle" font-family="Consolas, monospace" font-size="9" fill="#1a5276">tok₁</text>
    
    <rect x="130" y="10" width="55" height="32" rx="6" fill="#d6eaf8" stroke="#5dade2" stroke-width="1.5"/>
    <text x="157" y="30" text-anchor="middle" font-family="Consolas, monospace" font-size="9" fill="#1a5276">tok₂</text>
    
    <rect x="195" y="10" width="55" height="32" rx="6" fill="#d6eaf8" stroke="#5dade2" stroke-width="1.5"/>
    <text x="222" y="30" text-anchor="middle" font-family="Consolas, monospace" font-size="9" fill="#1a5276">...</text>
    
    <rect x="260" y="10" width="55" height="32" rx="6" fill="#e8daef" stroke="#a569bd" stroke-width="1.5"/>
    <text x="287" y="30" text-anchor="middle" font-family="Consolas, monospace" font-size="9" fill="#6c3483">[SEP]</text>
  </g>
  
  <!-- Arrow -->
  <path d="M 245 160 L 245 180" stroke="#7f8c8d" stroke-width="1.5" fill="none"/>
  <polygon points="245,185 240,177 250,177" fill="#7f8c8d"/>
  
  <!-- BERT Body with neural network visualization -->
  <g transform="translate(60, 190)">
    <rect x="0" y="0" width="350" height="90" rx="10" fill="#abebc6" stroke="#58d68d" stroke-width="2"/>
    <text x="175" y="22" text-anchor="middle" font-family="Arial, sans-serif" font-size="12" font-weight="bold" fill="#1e8449">BERT Encoder</text>
    
    <!-- Neural network nodes (dashed = structure) -->
    <g transform="translate(80, 35)">
      <circle cx="0" cy="0" r="10" fill="none" stroke="#1e8449" stroke-width="1.5" stroke-dasharray="3,2"/>
      <circle cx="0" cy="30" r="10" fill="none" stroke="#1e8449" stroke-width="1.5" stroke-dasharray="3,2"/>
      <circle cx="60" cy="0" r="10" fill="none" stroke="#1e8449" stroke-width="1.5" stroke-dasharray="3,2"/>
      <circle cx="60" cy="15" r="10" fill="none" stroke="#1e8449" stroke-width="1.5" stroke-dasharray="3,2"/>
      <circle cx="60" cy="30" r="10" fill="none" stroke="#1e8449" stroke-width="1.5" stroke-dasharray="3,2"/>
      <circle cx="120" cy="8" r="10" fill="none" stroke="#1e8449" stroke-width="1.5" stroke-dasharray="3,2"/>
      <circle cx="120" cy="30" r="10" fill="none" stroke="#1e8449" stroke-width="1.5" stroke-dasharray="3,2"/>
      
      <!-- Connections -->
      <line x1="10" y1="0" x2="50" y2="0" stroke="#1e8449" stroke-width="1" stroke-dasharray="3,2"/>
      <line x1="10" y1="0" x2="50" y2="15" stroke="#1e8449" stroke-width="1" stroke-dasharray="3,2"/>
      <line x1="10" y1="30" x2="50" y2="15" stroke="#1e8449" stroke-width="1" stroke-dasharray="3,2"/>
      <line x1="10" y1="30" x2="50" y2="30" stroke="#1e8449" stroke-width="1" stroke-dasharray="3,2"/>
      <line x1="70" y1="0" x2="110" y2="8" stroke="#1e8449" stroke-width="1" stroke-dasharray="3,2"/>
      <line x1="70" y1="15" x2="110" y2="8" stroke="#1e8449" stroke-width="1" stroke-dasharray="3,2"/>
      <line x1="70" y1="30" x2="110" y2="30" stroke="#1e8449" stroke-width="1" stroke-dasharray="3,2"/>
    </g>
    
    <!-- Config box -->
    <rect x="205" y="35" width="130" height="45" rx="5" fill="#ffffff" stroke="#82e0aa" stroke-width="1"/>
    <text x="270" y="52" text-anchor="middle" font-family="Arial, sans-serif" font-size="9" fill="#1e8449">hidden_size: 768</text>
    <text x="270" y="65" text-anchor="middle" font-family="Arial, sans-serif" font-size="9" fill="#1e8449">num_layers: 12</text>
    <text x="270" y="78" text-anchor="middle" font-family="Arial, sans-serif" font-size="9" fill="#1e8449">attention_heads: 12</text>
  </g>
  
  <!-- Arrow -->
  <path d="M 245 285 L 245 305" stroke="#7f8c8d" stroke-width="1.5" fill="none"/>
  <polygon points="245,310 240,302 250,302" fill="#7f8c8d"/>
  
  <!-- [CLS] Extraction -->
  <g transform="translate(60, 315)">
    <text x="175" y="0" text-anchor="middle" font-family="Arial, sans-serif" font-size="10" fill="#555">Extract [CLS] Hidden State</text>
    
    <rect x="0" y="10" width="55" height="35" rx="6" fill="#fdebd0" stroke="#f5b041" stroke-width="2"/>
    <text x="27" y="25" text-anchor="middle" font-family="Arial, sans-serif" font-size="8" fill="#9a7d0a">h[CLS]</text>
    <text x="27" y="38" text-anchor="middle" font-family="Consolas, monospace" font-size="7" fill="#b7950b">[768]</text>
    
    <!-- Other tokens grayed out / dashed -->
    <rect x="65" y="10" width="55" height="35" rx="6" fill="none" stroke="#bdc3c7" stroke-width="1" stroke-dasharray="4,3"/>
    <text x="92" y="30" text-anchor="middle" font-family="Arial, sans-serif" font-size="9" fill="#bdc3c7">h₁</text>
    
    <rect x="130" y="10" width="55" height="35" rx="6" fill="none" stroke="#bdc3c7" stroke-width="1" stroke-dasharray="4,3"/>
    <text x="157" y="30" text-anchor="middle" font-family="Arial, sans-serif" font-size="9" fill="#bdc3c7">h₂</text>
    
    <rect x="195" y="10" width="55" height="35" rx="6" fill="none" stroke="#bdc3c7" stroke-width="1" stroke-dasharray="4,3"/>
    <text x="222" y="30" text-anchor="middle" font-family="Arial, sans-serif" font-size="9" fill="#bdc3c7">...</text>
    
    <rect x="260" y="10" width="55" height="35" rx="6" fill="none" stroke="#bdc3c7" stroke-width="1" stroke-dasharray="4,3"/>
    <text x="287" y="30" text-anchor="middle" font-family="Arial, sans-serif" font-size="9" fill="#bdc3c7">h[SEP]</text>
  </g>
  
  <!-- Arrow from [CLS] -->
  <path d="M 87 360 L 87 385" stroke="#f5b041" stroke-width="2" fill="none"/>
  <polygon points="87,390 82,382 92,382" fill="#f5b041"/>
  
  <!-- Classification Head -->
  <g transform="translate(30, 395)">
    <rect x="0" y="0" width="180" height="50" rx="8" fill="#fef9e7" stroke="#f4d03f" stroke-width="2"/>
    <text x="90" y="20" text-anchor="middle" font-family="Arial, sans-serif" font-size="11" font-weight="bold" fill="#9a7d0a">Classification Head</text>
    <text x="90" y="38" text-anchor="middle" font-family="Consolas, monospace" font-size="9" fill="#b7950b">Linear(768, num_labels)</text>
  </g>
  
  <!-- Output -->
  <g transform="translate(250, 395)">
    <rect x="0" y="0" width="180" height="50" rx="8" fill="#ffffff" stroke="#82e0aa" stroke-width="1.5"/>
    <text x="90" y="18" text-anchor="middle" font-family="Arial, sans-serif" font-size="10" fill="#1e8449">Output: Logits</text>
    <text x="90" y="38" text-anchor="middle" font-family="Consolas, monospace" font-size="9" fill="#27ae60">[batch, num_labels]</text>
  </g>
  
  <!-- ==================== QUESTION ANSWERING (Right Panel) ==================== -->
  
  <!-- Code header -->
  <text x="755" y="25" text-anchor="middle" font-family="Consolas, monospace" font-size="12" fill="#333">BertForQuestionAnswering(model_name)</text>
  
  <!-- Main container -->
  <rect x="530" y="40" width="450" height="420" rx="12" fill="#fef5e7" stroke="#f5b041" stroke-width="2"/>
  
  <!-- Title -->
  <text x="755" y="70" text-anchor="middle" font-family="Arial, sans-serif" font-size="15" font-weight="bold" fill="#9a7d0a">Question Answering</text>
  <text x="755" y="90" text-anchor="middle" font-family="Arial, sans-serif" font-size="11" fill="#b7950b" font-style="italic">Token-level start/end prediction</text>
  
  <!-- Input Section -->
  <g transform="translate(560, 110)">
    <text x="200" y="0" text-anchor="middle" font-family="Arial, sans-serif" font-size="10" fill="#555">Input: [CLS] Question [SEP] Context [SEP]</text>
    
    <rect x="0" y="10" width="45" height="32" rx="6" fill="#d5f5e3" stroke="#58d68d" stroke-width="1.5"/>
    <text x="22" y="30" text-anchor="middle" font-family="Consolas, monospace" font-size="8" fill="#1e8449">[CLS]</text>
    
    <rect x="50" y="10" width="55" height="32" rx="6" fill="#fadbd8" stroke="#ec7063" stroke-width="1.5"/>
    <text x="77" y="30" text-anchor="middle" font-family="Consolas, monospace" font-size="8" fill="#922b21">Where?</text>
    
    <rect x="110" y="10" width="45" height="32" rx="6" fill="#e8daef" stroke="#a569bd" stroke-width="1.5"/>
    <text x="132" y="30" text-anchor="middle" font-family="Consolas, monospace" font-size="8" fill="#6c3483">[SEP]</text>
    
    <rect x="160" y="10" width="50" height="32" rx="6" fill="#d6eaf8" stroke="#5dade2" stroke-width="1.5"/>
    <text x="185" y="30" text-anchor="middle" font-family="Consolas, monospace" font-size="8" fill="#1a5276">John</text>
    
    <rect x="215" y="10" width="50" height="32" rx="6" fill="#d6eaf8" stroke="#5dade2" stroke-width="1.5"/>
    <text x="240" y="30" text-anchor="middle" font-family="Consolas, monospace" font-size="8" fill="#1a5276">lives</text>
    
    <rect x="270" y="10" width="35" height="32" rx="6" fill="#d6eaf8" stroke="#5dade2" stroke-width="1.5"/>
    <text x="287" y="30" text-anchor="middle" font-family="Consolas, monospace" font-size="8" fill="#1a5276">in</text>
    
    <rect x="310" y="10" width="45" height="32" rx="6" fill="#abebc6" stroke="#27ae60" stroke-width="2"/>
    <text x="332" y="30" text-anchor="middle" font-family="Consolas, monospace" font-size="8" fill="#145a32">NYC</text>
    
    <rect x="360" y="10" width="40" height="32" rx="6" fill="#e8daef" stroke="#a569bd" stroke-width="1.5"/>
    <text x="380" y="30" text-anchor="middle" font-family="Consolas, monospace" font-size="7" fill="#6c3483">[SEP]</text>
  </g>
  
  <!-- Arrow -->
  <path d="M 755 160 L 755 180" stroke="#7f8c8d" stroke-width="1.5" fill="none"/>
  <polygon points="755,185 750,177 760,177" fill="#7f8c8d"/>
  
  <!-- BERT Body -->
  <g transform="translate(570, 190)">
    <rect x="0" y="0" width="350" height="90" rx="10" fill="#fdebd0" stroke="#f5b041" stroke-width="2"/>
    <text x="175" y="22" text-anchor="middle" font-family="Arial, sans-serif" font-size="12" font-weight="bold" fill="#9a7d0a">BERT Encoder</text>
    
    <!-- Neural network nodes (filled = values) -->
    <g transform="translate(80, 35)">
      <circle cx="0" cy="0" r="10" fill="#f5b041" stroke="#9a7d0a" stroke-width="1.5"/>
      <text x="0" y="4" text-anchor="middle" font-family="Arial, sans-serif" font-size="6" fill="#fff">0.3</text>
      <circle cx="0" cy="30" r="10" fill="#f5b041" stroke="#9a7d0a" stroke-width="1.5"/>
      <text x="0" y="34" text-anchor="middle" font-family="Arial, sans-serif" font-size="6" fill="#fff">-0.2</text>
      <circle cx="60" cy="0" r="10" fill="#f5b041" stroke="#9a7d0a" stroke-width="1.5"/>
      <text x="60" y="4" text-anchor="middle" font-family="Arial, sans-serif" font-size="6" fill="#fff">0.8</text>
      <circle cx="60" cy="15" r="10" fill="#f5b041" stroke="#9a7d0a" stroke-width="1.5"/>
      <text x="60" y="19" text-anchor="middle" font-family="Arial, sans-serif" font-size="6" fill="#fff">0.1</text>
      <circle cx="60" cy="30" r="10" fill="#f5b041" stroke="#9a7d0a" stroke-width="1.5"/>
      <text x="60" y="34" text-anchor="middle" font-family="Arial, sans-serif" font-size="6" fill="#fff">-0.5</text>
      <circle cx="120" cy="8" r="10" fill="#f5b041" stroke="#9a7d0a" stroke-width="1.5"/>
      <text x="120" y="12" text-anchor="middle" font-family="Arial, sans-serif" font-size="6" fill="#fff">0.6</text>
      <circle cx="120" cy="30" r="10" fill="#f5b041" stroke="#9a7d0a" stroke-width="1.5"/>
      <text x="120" y="34" text-anchor="middle" font-family="Arial, sans-serif" font-size="6" fill="#fff">0.4</text>
      
      <!-- Connections -->
      <line x1="10" y1="0" x2="50" y2="0" stroke="#9a7d0a" stroke-width="1"/>
      <line x1="10" y1="0" x2="50" y2="15" stroke="#9a7d0a" stroke-width="1"/>
      <line x1="10" y1="30" x2="50" y2="15" stroke="#9a7d0a" stroke-width="1"/>
      <line x1="10" y1="30" x2="50" y2="30" stroke="#9a7d0a" stroke-width="1"/>
      <line x1="70" y1="0" x2="110" y2="8" stroke="#9a7d0a" stroke-width="1"/>
      <line x1="70" y1="15" x2="110" y2="8" stroke="#9a7d0a" stroke-width="1"/>
      <line x1="70" y1="30" x2="110" y2="30" stroke="#9a7d0a" stroke-width="1"/>
    </g>
    
    <!-- Config box -->
    <rect x="205" y="35" width="130" height="45" rx="5" fill="#ffffff" stroke="#f7dc6f" stroke-width="1"/>
    <text x="270" y="52" text-anchor="middle" font-family="Arial, sans-serif" font-size="9" fill="#9a7d0a">hidden_size: 768</text>
    <text x="270" y="65" text-anchor="middle" font-family="Arial, sans-serif" font-size="9" fill="#9a7d0a">num_layers: 12</text>
    <text x="270" y="78" text-anchor="middle" font-family="Arial, sans-serif" font-size="9" fill="#9a7d0a">attention_heads: 12</text>
  </g>
  
  <!-- Arrow -->
  <path d="M 755 285 L 755 305" stroke="#7f8c8d" stroke-width="1.5" fill="none"/>
  <polygon points="755,310 750,302 760,302" fill="#7f8c8d"/>
  
  <!-- ALL Token Hidden States -->
  <g transform="translate(560, 315)">
    <text x="200" y="0" text-anchor="middle" font-family="Arial, sans-serif" font-size="10" fill="#555">All Token Hidden States (for span detection)</text>
    
    <rect x="0" y="10" width="40" height="35" rx="6" fill="none" stroke="#bdc3c7" stroke-width="1" stroke-dasharray="4,3"/>
    <text x="20" y="30" text-anchor="middle" font-family="Arial, sans-serif" font-size="7" fill="#bdc3c7">h[CLS]</text>
    
    <rect x="45" y="10" width="45" height="35" rx="6" fill="none" stroke="#bdc3c7" stroke-width="1" stroke-dasharray="4,3"/>
    <text x="67" y="30" text-anchor="middle" font-family="Arial, sans-serif" font-size="7" fill="#bdc3c7">h_q</text>
    
    <rect x="95" y="10" width="35" height="35" rx="6" fill="none" stroke="#bdc3c7" stroke-width="1" stroke-dasharray="4,3"/>
    <text x="112" y="30" text-anchor="middle" font-family="Arial, sans-serif" font-size="8" fill="#bdc3c7">...</text>
    
    <rect x="135" y="10" width="50" height="35" rx="6" fill="#d6eaf8" stroke="#5dade2" stroke-width="1.5"/>
    <text x="160" y="25" text-anchor="middle" font-family="Arial, sans-serif" font-size="7" fill="#1a5276">h_John</text>
    <text x="160" y="38" text-anchor="middle" font-family="Consolas, monospace" font-size="6" fill="#2e86c1">[768]</text>
    
    <rect x="190" y="10" width="50" height="35" rx="6" fill="#d6eaf8" stroke="#5dade2" stroke-width="1.5"/>
    <text x="215" y="25" text-anchor="middle" font-family="Arial, sans-serif" font-size="7" fill="#1a5276">h_lives</text>
    <text x="215" y="38" text-anchor="middle" font-family="Consolas, monospace" font-size="6" fill="#2e86c1">[768]</text>
    
    <rect x="245" y="10" width="40" height="35" rx="6" fill="#d6eaf8" stroke="#5dade2" stroke-width="1.5"/>
    <text x="265" y="25" text-anchor="middle" font-family="Arial, sans-serif" font-size="7" fill="#1a5276">h_in</text>
    <text x="265" y="38" text-anchor="middle" font-family="Consolas, monospace" font-size="6" fill="#2e86c1">[768]</text>
    
    <rect x="290" y="10" width="50" height="35" rx="6" fill="#abebc6" stroke="#27ae60" stroke-width="2"/>
    <text x="315" y="25" text-anchor="middle" font-family="Arial, sans-serif" font-size="7" fill="#145a32">h_NYC</text>
    <text x="315" y="38" text-anchor="middle" font-family="Consolas, monospace" font-size="6" fill="#1e8449">[768]</text>
    
    <rect x="345" y="10" width="45" height="35" rx="6" fill="none" stroke="#bdc3c7" stroke-width="1" stroke-dasharray="4,3"/>
    <text x="367" y="30" text-anchor="middle" font-family="Arial, sans-serif" font-size="7" fill="#bdc3c7">h[SEP]</text>
    
    <!-- Answer label -->
    <text x="315" y="58" text-anchor="middle" font-family="Arial, sans-serif" font-size="8" fill="#27ae60" font-weight="bold">↑ Answer</text>
  </g>
  
  <!-- Arrow -->
  <path d="M 755 360 L 755 385" stroke="#7f8c8d" stroke-width="1.5" fill="none"/>
  <polygon points="755,390 750,382 760,382" fill="#7f8c8d"/>
  
  <!-- QA Head -->
  <g transform="translate(570, 395)">
    <rect x="0" y="0" width="180" height="50" rx="8" fill="#fef9e7" stroke="#f4d03f" stroke-width="2"/>
    <text x="90" y="18" text-anchor="middle" font-family="Arial, sans-serif" font-size="11" font-weight="bold" fill="#9a7d0a">QA Head</text>
    <text x="90" y="38" text-anchor="middle" font-family="Consolas, monospace" font-size="9" fill="#b7950b">Linear(768, 2)</text>
  </g>
  
  <!-- Split outputs -->
  <g transform="translate(770, 395)">
    <rect x="0" y="0" width="95" height="24" rx="5" fill="#d5f5e3" stroke="#58d68d" stroke-width="1.5"/>
    <text x="47" y="16" text-anchor="middle" font-family="Arial, sans-serif" font-size="9" fill="#1e8449">Start [seq]</text>
    
    <rect x="105" y="0" width="95" height="24" rx="5" fill="#fadbd8" stroke="#ec7063" stroke-width="1.5"/>
    <text x="152" y="16" text-anchor="middle" font-family="Arial, sans-serif" font-size="9" fill="#922b21">End [seq]</text>
    
    <text x="100" y="45" text-anchor="middle" font-family="Arial, sans-serif" font-size="9" fill="#555">→ argmax for span</text>
  </g>
  
</svg>
