<?xml version="1.0" encoding="utf-8" standalone="no"?>
<!DOCTYPE svg PUBLIC "-//W3C//DTD SVG 1.1//EN"
  "http://www.w3.org/Graphics/SVG/1.1/DTD/svg11.dtd">
<svg xmlns:xlink="http://www.w3.org/1999/xlink" width="432pt" height="156.763125pt" viewBox="0 0 432 156.763125" xmlns="http://www.w3.org/2000/svg" version="1.1">
 <metadata>
  <rdf:RDF xmlns:dc="http://purl.org/dc/elements/1.1/" xmlns:cc="http://creativecommons.org/ns#" xmlns:rdf="http://www.w3.org/1999/02/22-rdf-syntax-ns#">
   <cc:Work>
    <dc:type rdf:resource="http://purl.org/dc/dcmitype/StillImage"/>
    <dc:date>2025-08-05T14:13:43.755182</dc:date>
    <dc:format>image/svg+xml</dc:format>
    <dc:creator>
     <cc:Agent>
      <dc:title>Matplotlib v3.10.3, https://matplotlib.org/</dc:title>
     </cc:Agent>
    </dc:creator>
   </cc:Work>
  </rdf:RDF>
 </metadata>
 <defs>
  <style type="text/css">*{stroke-linejoin: round; stroke-linecap: butt}</style>
 </defs>
 <g id="figure_1">
  <g id="patch_1">
   <path d="M 0 156.763125
L 432 156.763125
L 432 0
L 0 0
L 0 156.763125
z
" style="fill: none"/>
  </g>
  <g id="axes_1">
   <g id="patch_2">
    <path d="M 0 141.052813
L 432 141.052813
L 432 14.083312
L 0 14.083312
L 0 141.052813
z
" style="fill: none"/>
   </g>
   <g id="FillBetweenPolyCollection_1">
    <defs>
     <path id="m1552e320e0" d="M 198.90446 -15.710313
L 198.90446 -15.710313
L 198.960866 -15.710313
L 199.017271 -15.710313
L 199.073677 -15.710313
L 199.130082 -15.710313
L 199.186487 -15.710313
L 199.242893 -15.710313
L 199.299298 -15.710313
L 199.355704 -15.710313
L 199.412109 -15.710313
L 199.468514 -15.710313
L 199.52492 -15.710313
L 199.581325 -15.710313
L 199.637731 -15.710313
L 199.694136 -15.710313
L 199.750541 -15.710313
L 199.806947 -15.710313
L 199.863352 -15.710313
L 199.919758 -15.710313
L 199.976163 -15.710313
L 200.032569 -15.710313
L 200.088974 -15.710313
L 200.145379 -15.710313
L 200.201785 -15.710313
L 200.25819 -15.710313
L 200.314596 -15.710313
L 200.371001 -15.710313
L 200.427406 -15.710313
L 200.483812 -15.710313
L 200.540217 -15.710313
L 200.596623 -15.710313
L 200.653028 -15.710313
L 200.709434 -15.710313
L 200.765839 -15.710313
L 200.822244 -15.710313
L 200.87865 -15.710313
L 200.935055 -15.710313
L 200.991461 -15.710313
L 201.047866 -15.710313
L 201.104271 -15.710313
L 201.160677 -15.710313
L 201.217082 -15.710313
L 201.273488 -15.710313
L 201.329893 -15.710313
L 201.386298 -15.710313
L 201.442704 -15.710313
L 201.499109 -15.710313
L 201.555515 -15.710313
L 201.61192 -15.710313
L 201.668326 -15.710313
L 201.724731 -15.710313
L 201.781136 -15.710313
L 201.837542 -15.710313
L 201.893947 -15.710313
L 201.950353 -15.710313
L 202.006758 -15.710313
L 202.063163 -15.710313
L 202.119569 -15.710313
L 202.175974 -15.710313
L 202.23238 -15.710313
L 202.288785 -15.710313
L 202.345191 -15.710313
L 202.401596 -15.710313
L 202.458001 -15.710313
L 202.514407 -15.710313
L 202.570812 -15.710313
L 202.627218 -15.710313
L 202.683623 -15.710313
L 202.740028 -15.710313
L 202.796434 -15.710313
L 202.852839 -15.710313
L 202.909245 -15.710313
L 202.96565 -15.710313
L 203.022056 -15.710313
L 203.078461 -15.710313
L 203.134866 -15.710313
L 203.191272 -15.710313
L 203.247677 -15.710313
L 203.304083 -15.710313
L 203.360488 -15.710313
L 203.416893 -15.710313
L 203.473299 -15.710313
L 203.529704 -15.710313
L 203.58611 -15.710313
L 203.642515 -15.710313
L 203.69892 -15.710313
L 203.755326 -15.710313
L 203.811731 -15.710313
L 203.868137 -15.710313
L 203.924542 -15.710313
L 203.980948 -15.710313
L 204.037353 -15.710313
L 204.093758 -15.710313
L 204.150164 -15.710313
L 204.206569 -15.710313
L 204.262975 -15.710313
L 204.31938 -15.710313
L 204.375785 -15.710313
L 204.432191 -15.710313
L 204.488596 -15.710313
L 204.545002 -15.710313
L 204.601407 -15.710313
L 204.657813 -15.710313
L 204.714218 -15.710313
L 204.770623 -15.710313
L 204.827029 -15.710313
L 204.883434 -15.710313
L 204.93984 -15.710313
L 204.996245 -15.710313
L 205.05265 -15.710313
L 205.109056 -15.710313
L 205.165461 -15.710313
L 205.221867 -15.710313
L 205.278272 -15.710313
L 205.334677 -15.710313
L 205.391083 -15.710313
L 205.447488 -15.710313
L 205.503894 -15.710313
L 205.560299 -15.710313
L 205.616705 -15.710313
L 205.67311 -15.710313
L 205.729515 -15.710313
L 205.785921 -15.710313
L 205.842326 -15.710313
L 205.898732 -15.710313
L 205.955137 -15.710313
L 206.011542 -15.710313
L 206.067948 -15.710313
L 206.124353 -15.710313
L 206.180759 -15.710313
L 206.237164 -15.710313
L 206.29357 -15.710313
L 206.349975 -15.710313
L 206.40638 -15.710313
L 206.462786 -15.710313
L 206.519191 -15.710313
L 206.575597 -15.710313
L 206.632002 -15.710313
L 206.688407 -15.710313
L 206.744813 -15.710313
L 206.801218 -15.710313
L 206.857624 -15.710313
L 206.914029 -15.710313
L 206.970434 -15.710313
L 207.02684 -15.710313
L 207.083245 -15.710313
L 207.139651 -15.710313
L 207.196056 -15.710313
L 207.252462 -15.710313
L 207.308867 -15.710313
L 207.365272 -15.710313
L 207.421678 -15.710313
L 207.478083 -15.710313
L 207.534489 -15.710313
L 207.590894 -15.710313
L 207.647299 -15.710313
L 207.703705 -15.710313
L 207.76011 -15.710313
L 207.816516 -15.710313
L 207.872921 -15.710313
L 207.929327 -15.710313
L 207.985732 -15.710313
L 208.042137 -15.710313
L 208.098543 -15.710313
L 208.154948 -15.710313
L 208.211354 -15.710313
L 208.267759 -15.710313
L 208.324164 -15.710313
L 208.38057 -15.710313
L 208.436975 -15.710313
L 208.493381 -15.710313
L 208.549786 -15.710313
L 208.606191 -15.710313
L 208.662597 -15.710313
L 208.719002 -15.710313
L 208.775408 -15.710313
L 208.831813 -15.710313
L 208.888219 -15.710313
L 208.944624 -15.710313
L 209.001029 -15.710313
L 209.057435 -15.710313
L 209.11384 -15.710313
L 209.170246 -15.710313
L 209.226651 -15.710313
L 209.283056 -15.710313
L 209.339462 -15.710313
L 209.395867 -15.710313
L 209.452273 -15.710313
L 209.508678 -15.710313
L 209.565084 -15.710313
L 209.621489 -15.710313
L 209.677894 -15.710313
L 209.7343 -15.710313
L 209.790705 -15.710313
L 209.847111 -15.710313
L 209.903516 -15.710313
L 209.959921 -15.710313
L 210.016327 -15.710313
L 210.072732 -15.710313
L 210.129138 -15.710313
L 210.185543 -15.710313
L 210.241948 -15.710313
L 210.298354 -15.710313
L 210.354759 -15.710313
L 210.411165 -15.710313
L 210.46757 -15.710313
L 210.523976 -15.710313
L 210.580381 -15.710313
L 210.636786 -15.710313
L 210.693192 -15.710313
L 210.749597 -15.710313
L 210.806003 -15.710313
L 210.862408 -15.710313
L 210.918813 -15.710313
L 210.975219 -15.710313
L 211.031624 -15.710313
L 211.08803 -15.710313
L 211.144435 -15.710313
L 211.200841 -15.710313
L 211.257246 -15.710313
L 211.313651 -15.710313
L 211.370057 -15.710313
L 211.426462 -15.710313
L 211.482868 -15.710313
L 211.539273 -15.710313
L 211.595678 -15.710313
L 211.652084 -15.710313
L 211.708489 -15.710313
L 211.764895 -15.710313
L 211.8213 -15.710313
L 211.877705 -15.710313
L 211.934111 -15.710313
L 211.990516 -15.710313
L 212.046922 -15.710313
L 212.103327 -15.710313
L 212.159733 -15.710313
L 212.216138 -15.710313
L 212.272543 -15.710313
L 212.328949 -15.710313
L 212.385354 -15.710313
L 212.44176 -15.710313
L 212.498165 -15.710313
L 212.55457 -15.710313
L 212.610976 -15.710313
L 212.667381 -15.710313
L 212.723787 -15.710313
L 212.780192 -15.710313
L 212.836598 -15.710313
L 212.893003 -15.710313
L 212.949408 -15.710313
L 213.005814 -15.710313
L 213.062219 -15.710313
L 213.118625 -15.710313
L 213.17503 -15.710313
L 213.231435 -15.710313
L 213.287841 -15.710313
L 213.344246 -15.710313
L 213.400652 -15.710313
L 213.457057 -15.710313
L 213.513462 -15.710313
L 213.569868 -15.710313
L 213.626273 -15.710313
L 213.682679 -15.710313
L 213.739084 -15.710313
L 213.79549 -15.710313
L 213.851895 -15.710313
L 213.9083 -15.710313
L 213.964706 -15.710313
L 214.021111 -15.710313
L 214.077517 -15.710313
L 214.133922 -15.710313
L 214.190327 -15.710313
L 214.246733 -15.710313
L 214.303138 -15.710313
L 214.359544 -15.710313
L 214.415949 -15.710313
L 214.472355 -15.710313
L 214.52876 -15.710313
L 214.585165 -15.710313
L 214.641571 -15.710313
L 214.697976 -15.710313
L 214.754382 -15.710313
L 214.810787 -15.710313
L 214.867192 -15.710313
L 214.923598 -15.710313
L 214.980003 -15.710313
L 215.036409 -15.710313
L 215.092814 -15.710313
L 215.149219 -15.710313
L 215.205625 -15.710313
L 215.26203 -15.710313
L 215.318436 -15.710313
L 215.374841 -15.710313
L 215.431247 -15.710313
L 215.487652 -15.710313
L 215.544057 -15.710313
L 215.600463 -15.710313
L 215.656868 -15.710313
L 215.713274 -15.710313
L 215.769679 -15.710313
L 215.826084 -15.710313
L 215.88249 -15.710313
L 215.938895 -15.710313
L 215.995301 -15.710313
L 216.051706 -15.710313
L 216.108112 -15.710313
L 216.164517 -15.710313
L 216.220922 -15.710313
L 216.277328 -15.710313
L 216.333733 -15.710313
L 216.390139 -15.710313
L 216.446544 -15.710313
L 216.502949 -15.710313
L 216.559355 -15.710313
L 216.61576 -15.710313
L 216.672166 -15.710313
L 216.728571 -15.710313
L 216.784976 -15.710313
L 216.841382 -15.710313
L 216.897787 -15.710313
L 216.954193 -15.710313
L 217.010598 -15.710313
L 217.067004 -15.710313
L 217.123409 -15.710313
L 217.179814 -15.710313
L 217.23622 -15.710313
L 217.292625 -15.710313
L 217.349031 -15.710313
L 217.405436 -15.710313
L 217.461841 -15.710313
L 217.518247 -15.710313
L 217.574652 -15.710313
L 217.631058 -15.710313
L 217.687463 -15.710313
L 217.743869 -15.710313
L 217.800274 -15.710313
L 217.856679 -15.710313
L 217.913085 -15.710313
L 217.96949 -15.710313
L 218.025896 -15.710313
L 218.082301 -15.710313
L 218.138706 -15.710313
L 218.195112 -15.710313
L 218.251517 -15.710313
L 218.307923 -15.710313
L 218.364328 -15.710313
L 218.420733 -15.710313
L 218.477139 -15.710313
L 218.533544 -15.710313
L 218.58995 -15.710313
L 218.646355 -15.710313
L 218.702761 -15.710313
L 218.759166 -15.710313
L 218.815571 -15.710313
L 218.871977 -15.710313
L 218.928382 -15.710313
L 218.984788 -15.710313
L 219.041193 -15.710313
L 219.097598 -15.710313
L 219.154004 -15.710313
L 219.210409 -15.710313
L 219.266815 -15.710313
L 219.32322 -15.710313
L 219.379626 -15.710313
L 219.436031 -15.710313
L 219.492436 -15.710313
L 219.548842 -15.710313
L 219.605247 -15.710313
L 219.661653 -15.710313
L 219.718058 -15.710313
L 219.774463 -15.710313
L 219.830869 -15.710313
L 219.887274 -15.710313
L 219.94368 -15.710313
L 220.000085 -15.710313
L 220.05649 -15.710313
L 220.112896 -15.710313
L 220.169301 -15.710313
L 220.225707 -15.710313
L 220.282112 -15.710313
L 220.338518 -15.710313
L 220.394923 -15.710313
L 220.451328 -15.710313
L 220.507734 -15.710313
L 220.564139 -15.710313
L 220.620545 -15.710313
L 220.67695 -15.710313
L 220.733355 -15.710313
L 220.789761 -15.710313
L 220.846166 -15.710313
L 220.902572 -15.710313
L 220.958977 -15.710313
L 221.015383 -15.710313
L 221.071788 -15.710313
L 221.128193 -15.710313
L 221.184599 -15.710313
L 221.241004 -15.710313
L 221.29741 -15.710313
L 221.353815 -15.710313
L 221.41022 -15.710313
L 221.41022 -15.710313
L 221.41022 -132.495983
L 221.353815 -132.52697
L 221.29741 -132.557956
L 221.241004 -132.588943
L 221.184599 -132.61993
L 221.128193 -132.650917
L 221.071788 -132.681904
L 221.015383 -132.71289
L 220.958977 -132.743877
L 220.902572 -132.774864
L 220.846166 -132.805851
L 220.789761 -132.836838
L 220.733355 -132.867824
L 220.67695 -132.898811
L 220.620545 -132.929798
L 220.564139 -132.960785
L 220.507734 -132.991772
L 220.451328 -133.022759
L 220.394923 -133.053745
L 220.338518 -133.084732
L 220.282112 -133.115719
L 220.225707 -133.146706
L 220.169301 -133.177693
L 220.112896 -133.208679
L 220.05649 -133.239666
L 220.000085 -133.270653
L 219.94368 -133.30164
L 219.887274 -133.332627
L 219.830869 -133.363614
L 219.774463 -133.3946
L 219.718058 -133.425587
L 219.661653 -133.456574
L 219.605247 -133.487561
L 219.548842 -133.518548
L 219.492436 -133.549534
L 219.436031 -133.580521
L 219.379626 -133.611508
L 219.32322 -133.642495
L 219.266815 -133.673482
L 219.210409 -133.700778
L 219.154004 -133.727227
L 219.097598 -133.753677
L 219.041193 -133.780126
L 218.984788 -133.806575
L 218.928382 -133.833024
L 218.871977 -133.859474
L 218.815571 -133.885923
L 218.759166 -133.912372
L 218.702761 -133.938821
L 218.646355 -133.96527
L 218.58995 -133.99172
L 218.533544 -134.018169
L 218.477139 -134.044618
L 218.420733 -134.071067
L 218.364328 -134.097516
L 218.307923 -134.123966
L 218.251517 -134.150415
L 218.195112 -134.176864
L 218.138706 -134.203313
L 218.082301 -134.229763
L 218.025896 -134.256212
L 217.96949 -134.282661
L 217.913085 -134.30911
L 217.856679 -134.335559
L 217.800274 -134.362009
L 217.743869 -134.388458
L 217.687463 -134.414907
L 217.631058 -134.441356
L 217.574652 -134.467806
L 217.518247 -134.494255
L 217.461841 -134.520704
L 217.405436 -134.547153
L 217.349031 -134.573602
L 217.292625 -134.600052
L 217.23622 -134.626501
L 217.179814 -134.65295
L 217.123409 -134.679399
L 217.067004 -134.705847
L 217.010598 -134.732294
L 216.954193 -134.75874
L 216.897787 -134.785186
L 216.841382 -134.811633
L 216.784976 -134.838079
L 216.728571 -134.864525
L 216.672166 -134.890971
L 216.61576 -134.917418
L 216.559355 -134.943864
L 216.502949 -134.97031
L 216.446544 -134.996756
L 216.390139 -135.023203
L 216.333733 -135.049649
L 216.277328 -135.076095
L 216.220922 -135.102541
L 216.164517 -135.128988
L 216.108112 -135.155434
L 216.051706 -135.18188
L 215.995301 -135.208327
L 215.938895 -135.234773
L 215.88249 -135.261219
L 215.826084 -135.287665
L 215.769679 -135.314112
L 215.713274 -135.340558
L 215.656868 -135.367004
L 215.600463 -135.39345
L 215.544057 -135.419897
L 215.487652 -135.446343
L 215.431247 -135.472789
L 215.374841 -135.499235
L 215.318436 -135.525682
L 215.26203 -135.552128
L 215.205625 -135.578574
L 215.149219 -135.60502
L 215.092814 -135.631467
L 215.036409 -135.657913
L 214.980003 -135.684359
L 214.923598 -135.710806
L 214.867192 -135.731724
L 214.810787 -135.75159
L 214.754382 -135.771456
L 214.697976 -135.791321
L 214.641571 -135.811187
L 214.585165 -135.831053
L 214.52876 -135.850919
L 214.472355 -135.870784
L 214.415949 -135.89065
L 214.359544 -135.910516
L 214.303138 -135.930382
L 214.246733 -135.950248
L 214.190327 -135.970113
L 214.133922 -135.989979
L 214.077517 -136.009845
L 214.021111 -136.029711
L 213.964706 -136.049576
L 213.9083 -136.069442
L 213.851895 -136.089308
L 213.79549 -136.109174
L 213.739084 -136.129039
L 213.682679 -136.148905
L 213.626273 -136.168771
L 213.569868 -136.188637
L 213.513462 -136.208502
L 213.457057 -136.228368
L 213.400652 -136.248234
L 213.344246 -136.2681
L 213.287841 -136.287965
L 213.231435 -136.307831
L 213.17503 -136.327697
L 213.118625 -136.347563
L 213.062219 -136.367428
L 213.005814 -136.387294
L 212.949408 -136.40716
L 212.893003 -136.427026
L 212.836598 -136.446892
L 212.780192 -136.466757
L 212.723787 -136.481017
L 212.667381 -136.48502
L 212.610976 -136.489022
L 212.55457 -136.493025
L 212.498165 -136.497027
L 212.44176 -136.50103
L 212.385354 -136.505032
L 212.328949 -136.509035
L 212.272543 -136.513037
L 212.216138 -136.51704
L 212.159733 -136.521042
L 212.103327 -136.525045
L 212.046922 -136.529047
L 211.990516 -136.53305
L 211.934111 -136.537052
L 211.877705 -136.541055
L 211.8213 -136.545057
L 211.764895 -136.54906
L 211.708489 -136.553062
L 211.652084 -136.557065
L 211.595678 -136.561067
L 211.539273 -136.56507
L 211.482868 -136.569072
L 211.426462 -136.573075
L 211.370057 -136.577077
L 211.313651 -136.58108
L 211.257246 -136.585082
L 211.200841 -136.589085
L 211.144435 -136.593087
L 211.08803 -136.59709
L 211.031624 -136.601092
L 210.975219 -136.605095
L 210.918813 -136.609097
L 210.862408 -136.6131
L 210.806003 -136.617102
L 210.749597 -136.621105
L 210.693192 -136.625107
L 210.636786 -136.62911
L 210.580381 -136.633112
L 210.523976 -136.625185
L 210.46757 -136.615424
L 210.411165 -136.605662
L 210.354759 -136.595901
L 210.298354 -136.586139
L 210.241948 -136.576378
L 210.185543 -136.566616
L 210.129138 -136.556855
L 210.072732 -136.547094
L 210.016327 -136.537332
L 209.959921 -136.527571
L 209.903516 -136.517809
L 209.847111 -136.508048
L 209.790705 -136.498286
L 209.7343 -136.488525
L 209.677894 -136.478763
L 209.621489 -136.469002
L 209.565084 -136.45924
L 209.508678 -136.449479
L 209.452273 -136.439718
L 209.395867 -136.429956
L 209.339462 -136.420195
L 209.283056 -136.410433
L 209.226651 -136.400672
L 209.170246 -136.39091
L 209.11384 -136.381149
L 209.057435 -136.371387
L 209.001029 -136.361626
L 208.944624 -136.351864
L 208.888219 -136.342103
L 208.831813 -136.332341
L 208.775408 -136.32258
L 208.719002 -136.312819
L 208.662597 -136.303057
L 208.606191 -136.293296
L 208.549786 -136.283534
L 208.493381 -136.273773
L 208.436975 -136.264011
L 208.38057 -136.251121
L 208.324164 -136.233129
L 208.267759 -136.215137
L 208.211354 -136.197145
L 208.154948 -136.179153
L 208.098543 -136.16116
L 208.042137 -136.143168
L 207.985732 -136.125176
L 207.929327 -136.107184
L 207.872921 -136.089192
L 207.816516 -136.071199
L 207.76011 -136.053207
L 207.703705 -136.035215
L 207.647299 -136.017223
L 207.590894 -135.999231
L 207.534489 -135.981239
L 207.478083 -135.963246
L 207.421678 -135.945254
L 207.365272 -135.927262
L 207.308867 -135.90927
L 207.252462 -135.891278
L 207.196056 -135.873286
L 207.139651 -135.855293
L 207.083245 -135.837301
L 207.02684 -135.819309
L 206.970434 -135.801317
L 206.914029 -135.783325
L 206.857624 -135.765332
L 206.801218 -135.74734
L 206.744813 -135.729348
L 206.688407 -135.711356
L 206.632002 -135.693364
L 206.575597 -135.675372
L 206.519191 -135.657379
L 206.462786 -135.639387
L 206.40638 -135.621395
L 206.349975 -135.603403
L 206.29357 -135.585411
L 206.237164 -135.567419
L 206.180759 -135.540624
L 206.124353 -135.512781
L 206.067948 -135.484938
L 206.011542 -135.457094
L 205.955137 -135.429251
L 205.898732 -135.401407
L 205.842326 -135.373564
L 205.785921 -135.34572
L 205.729515 -135.317877
L 205.67311 -135.290033
L 205.616705 -135.26219
L 205.560299 -135.234346
L 205.503894 -135.206503
L 205.447488 -135.178659
L 205.391083 -135.150816
L 205.334677 -135.122973
L 205.278272 -135.095129
L 205.221867 -135.067286
L 205.165461 -135.039442
L 205.109056 -135.011599
L 205.05265 -134.983755
L 204.996245 -134.955912
L 204.93984 -134.928068
L 204.883434 -134.900225
L 204.827029 -134.872381
L 204.770623 -134.844538
L 204.714218 -134.816694
L 204.657813 -134.788851
L 204.601407 -134.761008
L 204.545002 -134.733164
L 204.488596 -134.705321
L 204.432191 -134.677477
L 204.375785 -134.649634
L 204.31938 -134.62179
L 204.262975 -134.593947
L 204.206569 -134.566103
L 204.150164 -134.53826
L 204.093758 -134.510416
L 204.037353 -134.478162
L 203.980948 -134.439477
L 203.924542 -134.400793
L 203.868137 -134.362108
L 203.811731 -134.323423
L 203.755326 -134.284739
L 203.69892 -134.246054
L 203.642515 -134.207369
L 203.58611 -134.168684
L 203.529704 -134.13
L 203.473299 -134.091315
L 203.416893 -134.05263
L 203.360488 -134.013946
L 203.304083 -133.975261
L 203.247677 -133.936576
L 203.191272 -133.897891
L 203.134866 -133.859207
L 203.078461 -133.820522
L 203.022056 -133.781837
L 202.96565 -133.743153
L 202.909245 -133.704468
L 202.852839 -133.665783
L 202.796434 -133.627098
L 202.740028 -133.588414
L 202.683623 -133.549729
L 202.627218 -133.511044
L 202.570812 -133.472359
L 202.514407 -133.433675
L 202.458001 -133.39499
L 202.401596 -133.356305
L 202.345191 -133.317621
L 202.288785 -133.278936
L 202.23238 -133.240251
L 202.175974 -133.201566
L 202.119569 -133.162882
L 202.063163 -133.124197
L 202.006758 -133.085512
L 201.950353 -133.046828
L 201.893947 -133.008143
L 201.837542 -132.962438
L 201.781136 -132.916124
L 201.724731 -132.86981
L 201.668326 -132.823496
L 201.61192 -132.777182
L 201.555515 -132.730868
L 201.499109 -132.684554
L 201.442704 -132.63824
L 201.386298 -132.591926
L 201.329893 -132.545612
L 201.273488 -132.499298
L 201.217082 -132.452985
L 201.160677 -132.406671
L 201.104271 -132.360357
L 201.047866 -132.314043
L 200.991461 -132.267729
L 200.935055 -132.221415
L 200.87865 -132.175101
L 200.822244 -132.128787
L 200.765839 -132.082473
L 200.709434 -132.036159
L 200.653028 -131.989846
L 200.596623 -131.943532
L 200.540217 -131.897218
L 200.483812 -131.850904
L 200.427406 -131.80459
L 200.371001 -131.758276
L 200.314596 -131.711962
L 200.25819 -131.665648
L 200.201785 -131.619334
L 200.145379 -131.57302
L 200.088974 -131.526706
L 200.032569 -131.480393
L 199.976163 -131.434079
L 199.919758 -131.387765
L 199.863352 -131.341451
L 199.806947 -131.295137
L 199.750541 -131.248823
L 199.694136 -131.199739
L 199.637731 -131.147037
L 199.581325 -131.094335
L 199.52492 -131.041634
L 199.468514 -130.988932
L 199.412109 -130.93623
L 199.355704 -130.883528
L 199.299298 -130.830826
L 199.242893 -130.778124
L 199.186487 -130.725422
L 199.130082 -130.67272
L 199.073677 -130.620018
L 199.017271 -130.567316
L 198.960866 -130.514614
L 198.90446 -130.461913
z
"/>
    </defs>
    <g clip-path="url(#pf428261f78)">
     <use xlink:href="#m1552e320e0" x="0" y="156.763125" style="fill: #808080; fill-opacity: 0.5"/>
    </g>
   </g>
   <g id="FillBetweenPolyCollection_2">
    <defs>
     <path id="m21c1e8308d" d="M 0 -15.710313
L 0 -15.710313
L 0.498507 -15.710313
L 0.997015 -15.710313
L 1.495522 -15.710313
L 1.99403 -15.710313
L 2.492537 -15.710313
L 2.991045 -15.710313
L 3.489552 -15.710313
L 3.988059 -15.710313
L 4.486567 -15.710313
L 4.985074 -15.710313
L 5.483582 -15.710313
L 5.982089 -15.710313
L 6.480596 -15.710313
L 6.979104 -15.710313
L 7.477611 -15.710313
L 7.976119 -15.710313
L 8.474626 -15.710313
L 8.973134 -15.710313
L 9.471641 -15.710313
L 9.970148 -15.710313
L 10.468656 -15.710313
L 10.967163 -15.710313
L 11.465671 -15.710313
L 11.964178 -15.710313
L 12.462685 -15.710313
L 12.961193 -15.710313
L 13.4597 -15.710313
L 13.958208 -15.710313
L 14.456715 -15.710313
L 14.955223 -15.710313
L 15.45373 -15.710313
L 15.952237 -15.710313
L 16.450745 -15.710313
L 16.949252 -15.710313
L 17.44776 -15.710313
L 17.946267 -15.710313
L 18.444775 -15.710313
L 18.943282 -15.710313
L 19.441789 -15.710313
L 19.940297 -15.710313
L 20.438804 -15.710313
L 20.937312 -15.710313
L 21.435819 -15.710313
L 21.934326 -15.710313
L 22.432834 -15.710313
L 22.931341 -15.710313
L 23.429849 -15.710313
L 23.928356 -15.710313
L 24.426864 -15.710313
L 24.925371 -15.710313
L 25.423878 -15.710313
L 25.922386 -15.710313
L 26.420893 -15.710313
L 26.919401 -15.710313
L 27.417908 -15.710313
L 27.916415 -15.710313
L 28.414923 -15.710313
L 28.91343 -15.710313
L 29.411938 -15.710313
L 29.910445 -15.710313
L 30.408953 -15.710313
L 30.90746 -15.710313
L 31.405967 -15.710313
L 31.904475 -15.710313
L 32.402982 -15.710313
L 32.90149 -15.710313
L 33.399997 -15.710313
L 33.898505 -15.710313
L 34.397012 -15.710313
L 34.895519 -15.710313
L 35.394027 -15.710313
L 35.892534 -15.710313
L 36.391042 -15.710313
L 36.889549 -15.710313
L 37.388056 -15.710313
L 37.886564 -15.710313
L 38.385071 -15.710313
L 38.883579 -15.710313
L 39.382086 -15.710313
L 39.880594 -15.710313
L 40.379101 -15.710313
L 40.877608 -15.710313
L 41.376116 -15.710313
L 41.874623 -15.710313
L 42.373131 -15.710313
L 42.871638 -15.710313
L 43.370145 -15.710313
L 43.868653 -15.710313
L 44.36716 -15.710313
L 44.865668 -15.710313
L 45.364175 -15.710313
L 45.862683 -15.710313
L 46.36119 -15.710313
L 46.859697 -15.710313
L 47.358205 -15.710313
L 47.856712 -15.710313
L 48.35522 -15.710313
L 48.853727 -15.710313
L 49.352235 -15.710313
L 49.850742 -15.710313
L 50.349249 -15.710313
L 50.847757 -15.710313
L 51.346264 -15.710313
L 51.844772 -15.710313
L 52.343279 -15.710313
L 52.841786 -15.710313
L 53.340294 -15.710313
L 53.838801 -15.710313
L 54.337309 -15.710313
L 54.835816 -15.710313
L 55.334324 -15.710313
L 55.832831 -15.710313
L 56.331338 -15.710313
L 56.829846 -15.710313
L 57.328353 -15.710313
L 57.826861 -15.710313
L 58.325368 -15.710313
L 58.823875 -15.710313
L 59.322383 -15.710313
L 59.82089 -15.710313
L 60.319398 -15.710313
L 60.817905 -15.710313
L 61.316413 -15.710313
L 61.81492 -15.710313
L 62.313427 -15.710313
L 62.811935 -15.710313
L 63.310442 -15.710313
L 63.80895 -15.710313
L 64.307457 -15.710313
L 64.805965 -15.710313
L 65.304472 -15.710313
L 65.802979 -15.710313
L 66.301487 -15.710313
L 66.799994 -15.710313
L 67.298502 -15.710313
L 67.797009 -15.710313
L 68.295516 -15.710313
L 68.794024 -15.710313
L 69.292531 -15.710313
L 69.791039 -15.710313
L 70.289546 -15.710313
L 70.788054 -15.710313
L 71.286561 -15.710313
L 71.785068 -15.710313
L 72.283576 -15.710313
L 72.782083 -15.710313
L 73.280591 -15.710313
L 73.779098 -15.710313
L 74.277605 -15.710313
L 74.776113 -15.710313
L 75.27462 -15.710313
L 75.773128 -15.710313
L 76.271635 -15.710313
L 76.770143 -15.710313
L 77.26865 -15.710313
L 77.767157 -15.710313
L 78.265665 -15.710313
L 78.764172 -15.710313
L 79.26268 -15.710313
L 79.761187 -15.710313
L 80.259695 -15.710313
L 80.758202 -15.710313
L 81.256709 -15.710313
L 81.755217 -15.710313
L 82.253724 -15.710313
L 82.752232 -15.710313
L 83.250739 -15.710313
L 83.749246 -15.710313
L 84.247754 -15.710313
L 84.746261 -15.710313
L 85.244769 -15.710313
L 85.743276 -15.710313
L 86.241784 -15.710313
L 86.740291 -15.710313
L 87.238798 -15.710313
L 87.737306 -15.710313
L 88.235813 -15.710313
L 88.734321 -15.710313
L 89.232828 -15.710313
L 89.731335 -15.710313
L 90.229843 -15.710313
L 90.72835 -15.710313
L 91.226858 -15.710313
L 91.725365 -15.710313
L 92.223873 -15.710313
L 92.72238 -15.710313
L 93.220887 -15.710313
L 93.719395 -15.710313
L 94.217902 -15.710313
L 94.71641 -15.710313
L 95.214917 -15.710313
L 95.713424 -15.710313
L 96.211932 -15.710313
L 96.710439 -15.710313
L 97.208947 -15.710313
L 97.707454 -15.710313
L 98.205962 -15.710313
L 98.704469 -15.710313
L 99.202976 -15.710313
L 99.701484 -15.710313
L 100.199991 -15.710313
L 100.698499 -15.710313
L 101.197006 -15.710313
L 101.695514 -15.710313
L 102.194021 -15.710313
L 102.692528 -15.710313
L 103.191036 -15.710313
L 103.689543 -15.710313
L 104.188051 -15.710313
L 104.686558 -15.710313
L 105.185065 -15.710313
L 105.683573 -15.710313
L 106.18208 -15.710313
L 106.680588 -15.710313
L 107.179095 -15.710313
L 107.677603 -15.710313
L 108.17611 -15.710313
L 108.674617 -15.710313
L 109.173125 -15.710313
L 109.671632 -15.710313
L 110.17014 -15.710313
L 110.668647 -15.710313
L 111.167154 -15.710313
L 111.665662 -15.710313
L 112.164169 -15.710313
L 112.662677 -15.710313
L 113.161184 -15.710313
L 113.659692 -15.710313
L 114.158199 -15.710313
L 114.656706 -15.710313
L 115.155214 -15.710313
L 115.653721 -15.710313
L 116.152229 -15.710313
L 116.650736 -15.710313
L 117.149244 -15.710313
L 117.647751 -15.710313
L 118.146258 -15.710313
L 118.644766 -15.710313
L 119.143273 -15.710313
L 119.641781 -15.710313
L 120.140288 -15.710313
L 120.638795 -15.710313
L 121.137303 -15.710313
L 121.63581 -15.710313
L 122.134318 -15.710313
L 122.632825 -15.710313
L 123.131333 -15.710313
L 123.62984 -15.710313
L 124.128347 -15.710313
L 124.626855 -15.710313
L 125.125362 -15.710313
L 125.62387 -15.710313
L 126.122377 -15.710313
L 126.620884 -15.710313
L 127.119392 -15.710313
L 127.617899 -15.710313
L 128.116407 -15.710313
L 128.614914 -15.710313
L 129.113422 -15.710313
L 129.611929 -15.710313
L 130.110436 -15.710313
L 130.608944 -15.710313
L 131.107451 -15.710313
L 131.605959 -15.710313
L 132.104466 -15.710313
L 132.602974 -15.710313
L 133.101481 -15.710313
L 133.599988 -15.710313
L 134.098496 -15.710313
L 134.597003 -15.710313
L 135.095511 -15.710313
L 135.594018 -15.710313
L 136.092525 -15.710313
L 136.591033 -15.710313
L 137.08954 -15.710313
L 137.588048 -15.710313
L 138.086555 -15.710313
L 138.585063 -15.710313
L 139.08357 -15.710313
L 139.582077 -15.710313
L 140.080585 -15.710313
L 140.579092 -15.710313
L 141.0776 -15.710313
L 141.576107 -15.710313
L 142.074614 -15.710313
L 142.573122 -15.710313
L 143.071629 -15.710313
L 143.570137 -15.710313
L 144.068644 -15.710313
L 144.567152 -15.710313
L 145.065659 -15.710313
L 145.564166 -15.710313
L 146.062674 -15.710313
L 146.561181 -15.710313
L 147.059689 -15.710313
L 147.558196 -15.710313
L 148.056704 -15.710313
L 148.555211 -15.710313
L 149.053718 -15.710313
L 149.552226 -15.710313
L 150.050733 -15.710313
L 150.549241 -15.710313
L 151.047748 -15.710313
L 151.546255 -15.710313
L 152.044763 -15.710313
L 152.54327 -15.710313
L 153.041778 -15.710313
L 153.540285 -15.710313
L 154.038793 -15.710313
L 154.5373 -15.710313
L 155.035807 -15.710313
L 155.534315 -15.710313
L 156.032822 -15.710313
L 156.53133 -15.710313
L 157.029837 -15.710313
L 157.528344 -15.710313
L 158.026852 -15.710313
L 158.525359 -15.710313
L 159.023867 -15.710313
L 159.522374 -15.710313
L 160.020882 -15.710313
L 160.519389 -15.710313
L 161.017896 -15.710313
L 161.516404 -15.710313
L 162.014911 -15.710313
L 162.513419 -15.710313
L 163.011926 -15.710313
L 163.510434 -15.710313
L 164.008941 -15.710313
L 164.507448 -15.710313
L 165.005956 -15.710313
L 165.504463 -15.710313
L 166.002971 -15.710313
L 166.501478 -15.710313
L 166.999985 -15.710313
L 167.498493 -15.710313
L 167.997 -15.710313
L 168.495508 -15.710313
L 168.994015 -15.710313
L 169.492523 -15.710313
L 169.99103 -15.710313
L 170.489537 -15.710313
L 170.988045 -15.710313
L 171.486552 -15.710313
L 171.98506 -15.710313
L 172.483567 -15.710313
L 172.982074 -15.710313
L 173.480582 -15.710313
L 173.979089 -15.710313
L 174.477597 -15.710313
L 174.976104 -15.710313
L 175.474612 -15.710313
L 175.973119 -15.710313
L 176.471626 -15.710313
L 176.970134 -15.710313
L 177.468641 -15.710313
L 177.967149 -15.710313
L 178.465656 -15.710313
L 178.964164 -15.710313
L 179.462671 -15.710313
L 179.961178 -15.710313
L 180.459686 -15.710313
L 180.958193 -15.710313
L 181.456701 -15.710313
L 181.955208 -15.710313
L 182.453715 -15.710313
L 182.952223 -15.710313
L 183.45073 -15.710313
L 183.949238 -15.710313
L 184.447745 -15.710313
L 184.946253 -15.710313
L 185.44476 -15.710313
L 185.943267 -15.710313
L 186.441775 -15.710313
L 186.940282 -15.710313
L 187.43879 -15.710313
L 187.937297 -15.710313
L 188.435804 -15.710313
L 188.934312 -15.710313
L 189.432819 -15.710313
L 189.931327 -15.710313
L 190.429834 -15.710313
L 190.928342 -15.710313
L 191.426849 -15.710313
L 191.925356 -15.710313
L 192.423864 -15.710313
L 192.922371 -15.710313
L 193.420879 -15.710313
L 193.919386 -15.710313
L 194.417894 -15.710313
L 194.916401 -15.710313
L 195.414908 -15.710313
L 195.913416 -15.710313
L 196.411923 -15.710313
L 196.910431 -15.710313
L 197.408938 -15.710313
L 197.907445 -15.710313
L 198.405953 -15.710313
L 198.90446 -15.710313
L 198.90446 -15.710313
L 198.90446 -130.461913
L 198.405953 -129.996136
L 197.907445 -129.53036
L 197.408938 -129.043494
L 196.910431 -128.501971
L 196.411923 -127.960449
L 195.913416 -127.418926
L 195.414908 -126.877404
L 194.916401 -126.278589
L 194.417894 -125.675044
L 193.919386 -125.071498
L 193.420879 -124.467953
L 192.922371 -123.866369
L 192.423864 -123.266272
L 191.925356 -122.666175
L 191.426849 -122.066077
L 190.928342 -121.465869
L 190.429834 -120.865255
L 189.931327 -120.264641
L 189.432819 -119.664026
L 188.934312 -119.063412
L 188.435804 -118.382416
L 187.937297 -117.688291
L 187.43879 -116.994167
L 186.940282 -116.300042
L 186.441775 -115.547811
L 185.943267 -114.738599
L 185.44476 -113.929387
L 184.946253 -113.120174
L 184.447745 -112.306687
L 183.949238 -111.469012
L 183.45073 -110.631337
L 182.952223 -109.793662
L 182.453715 -108.955987
L 181.955208 -108.133983
L 181.456701 -107.316008
L 180.958193 -106.498034
L 180.459686 -105.680059
L 179.961178 -104.847744
L 179.462671 -103.997233
L 178.964164 -103.146721
L 178.465656 -102.29621
L 177.967149 -101.439619
L 177.468641 -100.518453
L 176.970134 -99.597287
L 176.471626 -98.676121
L 175.973119 -97.754955
L 175.474612 -96.818857
L 174.976104 -95.877275
L 174.477597 -94.935692
L 173.979089 -93.994109
L 173.480582 -93.060536
L 172.982074 -92.140217
L 172.483567 -91.219898
L 171.98506 -90.299579
L 171.486552 -89.379101
L 170.988045 -88.451527
L 170.489537 -87.523952
L 169.99103 -86.596377
L 169.492523 -85.668802
L 168.994015 -84.733248
L 168.495508 -83.793715
L 167.997 -82.854182
L 167.498493 -81.914649
L 166.999985 -80.981484
L 166.501478 -80.062328
L 166.002971 -79.143173
L 165.504463 -78.224017
L 165.005956 -77.304861
L 164.507448 -76.411986
L 164.008941 -75.520269
L 163.510434 -74.628551
L 163.011926 -73.736834
L 162.513419 -72.862859
L 162.014911 -72.000559
L 161.516404 -71.13826
L 161.017896 -70.275961
L 160.519389 -69.417275
L 160.020882 -68.56952
L 159.522374 -67.721765
L 159.023867 -66.87401
L 158.525359 -66.026255
L 158.026852 -65.157679
L 157.528344 -64.286627
L 157.029837 -63.415574
L 156.53133 -62.544522
L 156.032822 -61.667677
L 155.534315 -60.785877
L 155.035807 -59.904078
L 154.5373 -59.022279
L 154.038793 -58.150718
L 153.540285 -57.324479
L 153.041778 -56.498241
L 152.54327 -55.672002
L 152.044763 -54.845764
L 151.546255 -54.093816
L 151.047748 -53.357131
L 150.549241 -52.620445
L 150.050733 -51.88376
L 149.552226 -51.176875
L 149.053718 -50.502946
L 148.555211 -49.829017
L 148.056704 -49.155088
L 147.558196 -48.484577
L 147.059689 -47.839094
L 146.561181 -47.193611
L 146.062674 -46.548128
L 145.564166 -45.902644
L 145.065659 -45.272092
L 144.567152 -44.646116
L 144.068644 -44.020139
L 143.570137 -43.394163
L 143.071629 -42.780763
L 142.573122 -42.185409
L 142.074614 -41.590054
L 141.576107 -40.9947
L 141.0776 -40.402172
L 140.579092 -39.857272
L 140.080585 -39.312371
L 139.582077 -38.767471
L 139.08357 -38.222571
L 138.585063 -37.718419
L 138.086555 -37.23162
L 137.588048 -36.744822
L 137.08954 -36.258024
L 136.591033 -35.787141
L 136.092525 -35.34626
L 135.594018 -34.905379
L 135.095511 -34.464499
L 134.597003 -34.023618
L 134.098496 -33.619487
L 133.599988 -33.215657
L 133.101481 -32.811826
L 132.602974 -32.407996
L 132.104466 -32.028977
L 131.605959 -31.664087
L 131.107451 -31.299197
L 130.608944 -30.934306
L 130.110436 -30.578318
L 129.611929 -30.24494
L 129.113422 -29.911562
L 128.614914 -29.578184
L 128.116407 -29.244806
L 127.617899 -28.925883
L 127.119392 -28.608085
L 126.620884 -28.290288
L 126.122377 -27.97249
L 125.62387 -27.658175
L 125.125362 -27.346454
L 124.626855 -27.034733
L 124.128347 -26.723012
L 123.62984 -26.413096
L 123.131333 -26.109644
L 122.632825 -25.806191
L 122.134318 -25.502739
L 121.63581 -25.199287
L 121.137303 -24.91474
L 120.638795 -24.633178
L 120.140288 -24.351616
L 119.641781 -24.070054
L 119.143273 -23.805366
L 118.644766 -23.556961
L 118.146258 -23.308555
L 117.647751 -23.060149
L 117.149244 -22.817369
L 116.650736 -22.605439
L 116.152229 -22.393508
L 115.653721 -22.181578
L 115.155214 -21.969647
L 114.656706 -21.788097
L 114.158199 -21.614164
L 113.659692 -21.440232
L 113.161184 -21.266299
L 112.662677 -21.104275
L 112.164169 -20.957115
L 111.665662 -20.809954
L 111.167154 -20.662794
L 110.668647 -20.51618
L 110.17014 -20.375084
L 109.671632 -20.233989
L 109.173125 -20.092893
L 108.674617 -19.951797
L 108.17611 -19.814481
L 107.677603 -19.678524
L 107.179095 -19.542567
L 106.680588 -19.406611
L 106.18208 -19.279656
L 105.683573 -19.167345
L 105.185065 -19.055034
L 104.686558 -18.942723
L 104.188051 -18.83116
L 103.689543 -18.74761
L 103.191036 -18.664059
L 102.692528 -18.580509
L 102.194021 -18.496959
L 101.695514 -18.422107
L 101.197006 -18.351515
L 100.698499 -18.280922
L 100.199991 -18.21033
L 99.701484 -18.138813
L 99.202976 -18.065299
L 98.704469 -17.991786
L 98.205962 -17.918273
L 97.707454 -17.844759
L 97.208947 -17.766897
L 96.710439 -17.688862
L 96.211932 -17.610827
L 95.713424 -17.532792
L 95.214917 -17.459747
L 94.71641 -17.389931
L 94.217902 -17.320114
L 93.719395 -17.250298
L 93.220887 -17.184736
L 92.72238 -17.13177
L 92.223873 -17.078804
L 91.725365 -17.025838
L 91.226858 -16.972872
L 90.72835 -16.929155
L 90.229843 -16.886491
L 89.731335 -16.843827
L 89.232828 -16.801163
L 88.734321 -16.761012
L 88.235813 -16.722975
L 87.737306 -16.684938
L 87.238798 -16.646901
L 86.740291 -16.610082
L 86.241784 -16.578508
L 85.743276 -16.546934
L 85.244769 -16.51536
L 84.746261 -16.483786
L 84.247754 -16.457781
L 83.749246 -16.432886
L 83.250739 -16.407992
L 82.752232 -16.383098
L 82.253724 -16.360312
L 81.755217 -16.339819
L 81.256709 -16.319327
L 80.758202 -16.298834
L 80.259695 -16.278821
L 79.761187 -16.262185
L 79.26268 -16.24555
L 78.764172 -16.228915
L 78.265665 -16.212279
L 77.767157 -16.198207
L 77.26865 -16.184902
L 76.770143 -16.171597
L 76.271635 -16.158292
L 75.773128 -16.145248
L 75.27462 -16.132571
L 74.776113 -16.119894
L 74.277605 -16.107218
L 73.779098 -16.094512
L 73.280591 -16.081355
L 72.782083 -16.068198
L 72.283576 -16.055041
L 71.785068 -16.041884
L 71.286561 -16.029001
L 70.788054 -16.016234
L 70.289546 -16.003467
L 69.791039 -15.990699
L 69.292531 -15.978011
L 68.794024 -15.965468
L 68.295516 -15.952926
L 67.797009 -15.940383
L 67.298502 -15.92784
L 66.799994 -15.916304
L 66.301487 -15.904773
L 65.802979 -15.893241
L 65.304472 -15.881709
L 64.805965 -15.872605
L 64.307457 -15.864858
L 63.80895 -15.857111
L 63.310442 -15.849365
L 62.811935 -15.842874
L 62.313427 -15.83951
L 61.81492 -15.836145
L 61.316413 -15.832781
L 60.817905 -15.829417
L 60.319398 -15.82698
L 59.82089 -15.824611
L 59.322383 -15.822242
L 58.823875 -15.819874
L 58.325368 -15.816216
L 57.826861 -15.811614
L 57.328353 -15.807013
L 56.829846 -15.802411
L 56.331338 -15.797428
L 55.832831 -15.791109
L 55.334324 -15.78479
L 54.835816 -15.778471
L 54.337309 -15.772153
L 53.838801 -15.766634
L 53.340294 -15.761238
L 52.841786 -15.755842
L 52.343279 -15.750445
L 51.844772 -15.746199
L 51.346264 -15.743044
L 50.847757 -15.739889
L 50.349249 -15.736734
L 49.850742 -15.733837
L 49.352235 -15.732313
L 48.853727 -15.730788
L 48.35522 -15.729263
L 47.856712 -15.727738
L 47.358205 -15.726746
L 46.859697 -15.725883
L 46.36119 -15.725021
L 45.862683 -15.724158
L 45.364175 -15.72339
L 44.865668 -15.722737
L 44.36716 -15.722084
L 43.868653 -15.721431
L 43.370145 -15.720799
L 42.871638 -15.720362
L 42.373131 -15.719925
L 41.874623 -15.719488
L 41.376116 -15.719051
L 40.877608 -15.71875
L 40.379101 -15.718498
L 39.880594 -15.718246
L 39.382086 -15.717993
L 38.883579 -15.717688
L 38.385071 -15.717298
L 37.886564 -15.716907
L 37.388056 -15.716517
L 36.889549 -15.716121
L 36.391042 -15.715531
L 35.892534 -15.71494
L 35.394027 -15.71435
L 34.895519 -15.71376
L 34.397012 -15.713249
L 33.898505 -15.712775
L 33.399997 -15.712302
L 32.90149 -15.711828
L 32.402982 -15.711439
L 31.904475 -15.711229
L 31.405967 -15.711019
L 30.90746 -15.710809
L 30.408953 -15.710598
L 29.910445 -15.710539
L 29.411938 -15.710484
L 28.91343 -15.710429
L 28.414923 -15.710375
L 27.916415 -15.710348
L 27.417908 -15.71034
L 26.919401 -15.710331
L 26.420893 -15.710323
L 25.922386 -15.710316
L 25.423878 -15.710315
L 24.925371 -15.710314
L 24.426864 -15.710314
L 23.928356 -15.710313
L 23.429849 -15.710313
L 22.931341 -15.710313
L 22.432834 -15.710313
L 21.934326 -15.710313
L 21.435819 -15.710313
L 20.937312 -15.710313
L 20.438804 -15.710313
L 19.940297 -15.710313
L 19.441789 -15.710313
L 18.943282 -15.710313
L 18.444775 -15.710313
L 17.946267 -15.710313
L 17.44776 -15.710313
L 16.949252 -15.710313
L 16.450745 -15.710313
L 15.952237 -15.710313
L 15.45373 -15.710313
L 14.955223 -15.710313
L 14.456715 -15.710313
L 13.958208 -15.710313
L 13.4597 -15.710313
L 12.961193 -15.710313
L 12.462685 -15.710313
L 11.964178 -15.710313
L 11.465671 -15.710313
L 10.967163 -15.710313
L 10.468656 -15.710313
L 9.970148 -15.710313
L 9.471641 -15.710313
L 8.973134 -15.710313
L 8.474626 -15.710313
L 7.976119 -15.710313
L 7.477611 -15.710313
L 6.979104 -15.710313
L 6.480596 -15.710313
L 5.982089 -15.710313
L 5.483582 -15.710313
L 4.985074 -15.710313
L 4.486567 -15.710313
L 3.988059 -15.710313
L 3.489552 -15.710313
L 2.991045 -15.710313
L 2.492537 -15.710313
L 1.99403 -15.710313
L 1.495522 -15.710313
L 0.997015 -15.710313
L 0.498507 -15.710313
L 0 -15.710313
z
"/>
    </defs>
    <g clip-path="url(#pf428261f78)">
     <use xlink:href="#m21c1e8308d" x="0" y="156.763125" style="fill: #ff0000; fill-opacity: 0.5"/>
    </g>
   </g>
   <g id="FillBetweenPolyCollection_3">
    <defs>
     <path id="m3374623abe" d="M 221.41022 -15.710313
L 221.41022 -15.710313
L 221.938014 -15.710313
L 222.465808 -15.710313
L 222.993602 -15.710313
L 223.521396 -15.710313
L 224.04919 -15.710313
L 224.576984 -15.710313
L 225.104778 -15.710313
L 225.632572 -15.710313
L 226.160366 -15.710313
L 226.68816 -15.710313
L 227.215954 -15.710313
L 227.743748 -15.710313
L 228.271542 -15.710313
L 228.799336 -15.710313
L 229.327129 -15.710313
L 229.854923 -15.710313
L 230.382717 -15.710313
L 230.910511 -15.710313
L 231.438305 -15.710313
L 231.966099 -15.710313
L 232.493893 -15.710313
L 233.021687 -15.710313
L 233.549481 -15.710313
L 234.077275 -15.710313
L 234.605069 -15.710313
L 235.132863 -15.710313
L 235.660657 -15.710313
L 236.188451 -15.710313
L 236.716245 -15.710313
L 237.244038 -15.710313
L 237.771832 -15.710313
L 238.299626 -15.710313
L 238.82742 -15.710313
L 239.355214 -15.710313
L 239.883008 -15.710313
L 240.410802 -15.710313
L 240.938596 -15.710313
L 241.46639 -15.710313
L 241.994184 -15.710313
L 242.521978 -15.710313
L 243.049772 -15.710313
L 243.577566 -15.710313
L 244.10536 -15.710313
L 244.633154 -15.710313
L 245.160947 -15.710313
L 245.688741 -15.710313
L 246.216535 -15.710313
L 246.744329 -15.710313
L 247.272123 -15.710313
L 247.799917 -15.710313
L 248.327711 -15.710313
L 248.855505 -15.710313
L 249.383299 -15.710313
L 249.911093 -15.710313
L 250.438887 -15.710313
L 250.966681 -15.710313
L 251.494475 -15.710313
L 252.022269 -15.710313
L 252.550063 -15.710313
L 253.077856 -15.710313
L 253.60565 -15.710313
L 254.133444 -15.710313
L 254.661238 -15.710313
L 255.189032 -15.710313
L 255.716826 -15.710313
L 256.24462 -15.710313
L 256.772414 -15.710313
L 257.300208 -15.710313
L 257.828002 -15.710313
L 258.355796 -15.710313
L 258.88359 -15.710313
L 259.411384 -15.710313
L 259.939178 -15.710313
L 260.466972 -15.710313
L 260.994765 -15.710313
L 261.522559 -15.710313
L 262.050353 -15.710313
L 262.578147 -15.710313
L 263.105941 -15.710313
L 263.633735 -15.710313
L 264.161529 -15.710313
L 264.689323 -15.710313
L 265.217117 -15.710313
L 265.744911 -15.710313
L 266.272705 -15.710313
L 266.800499 -15.710313
L 267.328293 -15.710313
L 267.856087 -15.710313
L 268.383881 -15.710313
L 268.911674 -15.710313
L 269.439468 -15.710313
L 269.967262 -15.710313
L 270.495056 -15.710313
L 271.02285 -15.710313
L 271.550644 -15.710313
L 272.078438 -15.710313
L 272.606232 -15.710313
L 273.134026 -15.710313
L 273.66182 -15.710313
L 274.189614 -15.710313
L 274.717408 -15.710313
L 275.245202 -15.710313
L 275.772996 -15.710313
L 276.30079 -15.710313
L 276.828583 -15.710313
L 277.356377 -15.710313
L 277.884171 -15.710313
L 278.411965 -15.710313
L 278.939759 -15.710313
L 279.467553 -15.710313
L 279.995347 -15.710313
L 280.523141 -15.710313
L 281.050935 -15.710313
L 281.578729 -15.710313
L 282.106523 -15.710313
L 282.634317 -15.710313
L 283.162111 -15.710313
L 283.689905 -15.710313
L 284.217699 -15.710313
L 284.745492 -15.710313
L 285.273286 -15.710313
L 285.80108 -15.710313
L 286.328874 -15.710313
L 286.856668 -15.710313
L 287.384462 -15.710313
L 287.912256 -15.710313
L 288.44005 -15.710313
L 288.967844 -15.710313
L 289.495638 -15.710313
L 290.023432 -15.710313
L 290.551226 -15.710313
L 291.07902 -15.710313
L 291.606814 -15.710313
L 292.134608 -15.710313
L 292.662401 -15.710313
L 293.190195 -15.710313
L 293.717989 -15.710313
L 294.245783 -15.710313
L 294.773577 -15.710313
L 295.301371 -15.710313
L 295.829165 -15.710313
L 296.356959 -15.710313
L 296.884753 -15.710313
L 297.412547 -15.710313
L 297.940341 -15.710313
L 298.468135 -15.710313
L 298.995929 -15.710313
L 299.523723 -15.710313
L 300.051517 -15.710313
L 300.57931 -15.710313
L 301.107104 -15.710313
L 301.634898 -15.710313
L 302.162692 -15.710313
L 302.690486 -15.710313
L 303.21828 -15.710313
L 303.746074 -15.710313
L 304.273868 -15.710313
L 304.801662 -15.710313
L 305.329456 -15.710313
L 305.85725 -15.710313
L 306.385044 -15.710313
L 306.912838 -15.710313
L 307.440632 -15.710313
L 307.968426 -15.710313
L 308.49622 -15.710313
L 309.024013 -15.710313
L 309.551807 -15.710313
L 310.079601 -15.710313
L 310.607395 -15.710313
L 311.135189 -15.710313
L 311.662983 -15.710313
L 312.190777 -15.710313
L 312.718571 -15.710313
L 313.246365 -15.710313
L 313.774159 -15.710313
L 314.301953 -15.710313
L 314.829747 -15.710313
L 315.357541 -15.710313
L 315.885335 -15.710313
L 316.413129 -15.710313
L 316.940922 -15.710313
L 317.468716 -15.710313
L 317.99651 -15.710313
L 318.524304 -15.710313
L 319.052098 -15.710313
L 319.579892 -15.710313
L 320.107686 -15.710313
L 320.63548 -15.710313
L 321.163274 -15.710313
L 321.691068 -15.710313
L 322.218862 -15.710313
L 322.746656 -15.710313
L 323.27445 -15.710313
L 323.802244 -15.710313
L 324.330038 -15.710313
L 324.857831 -15.710313
L 325.385625 -15.710313
L 325.913419 -15.710313
L 326.441213 -15.710313
L 326.969007 -15.710313
L 327.496801 -15.710313
L 328.024595 -15.710313
L 328.552389 -15.710313
L 329.080183 -15.710313
L 329.607977 -15.710313
L 330.135771 -15.710313
L 330.663565 -15.710313
L 331.191359 -15.710313
L 331.719153 -15.710313
L 332.246947 -15.710313
L 332.77474 -15.710313
L 333.302534 -15.710313
L 333.830328 -15.710313
L 334.358122 -15.710313
L 334.885916 -15.710313
L 335.41371 -15.710313
L 335.941504 -15.710313
L 336.469298 -15.710313
L 336.997092 -15.710313
L 337.524886 -15.710313
L 338.05268 -15.710313
L 338.580474 -15.710313
L 339.108268 -15.710313
L 339.636062 -15.710313
L 340.163856 -15.710313
L 340.691649 -15.710313
L 341.219443 -15.710313
L 341.747237 -15.710313
L 342.275031 -15.710313
L 342.802825 -15.710313
L 343.330619 -15.710313
L 343.858413 -15.710313
L 344.386207 -15.710313
L 344.914001 -15.710313
L 345.441795 -15.710313
L 345.969589 -15.710313
L 346.497383 -15.710313
L 347.025177 -15.710313
L 347.552971 -15.710313
L 348.080765 -15.710313
L 348.608558 -15.710313
L 349.136352 -15.710313
L 349.664146 -15.710313
L 350.19194 -15.710313
L 350.719734 -15.710313
L 351.247528 -15.710313
L 351.775322 -15.710313
L 352.303116 -15.710313
L 352.83091 -15.710313
L 353.358704 -15.710313
L 353.886498 -15.710313
L 354.414292 -15.710313
L 354.942086 -15.710313
L 355.46988 -15.710313
L 355.997674 -15.710313
L 356.525467 -15.710313
L 357.053261 -15.710313
L 357.581055 -15.710313
L 358.108849 -15.710313
L 358.636643 -15.710313
L 359.164437 -15.710313
L 359.692231 -15.710313
L 360.220025 -15.710313
L 360.747819 -15.710313
L 361.275613 -15.710313
L 361.803407 -15.710313
L 362.331201 -15.710313
L 362.858995 -15.710313
L 363.386789 -15.710313
L 363.914583 -15.710313
L 364.442376 -15.710313
L 364.97017 -15.710313
L 365.497964 -15.710313
L 366.025758 -15.710313
L 366.553552 -15.710313
L 367.081346 -15.710313
L 367.60914 -15.710313
L 368.136934 -15.710313
L 368.664728 -15.710313
L 369.192522 -15.710313
L 369.720316 -15.710313
L 370.24811 -15.710313
L 370.775904 -15.710313
L 371.303698 -15.710313
L 371.831492 -15.710313
L 372.359285 -15.710313
L 372.887079 -15.710313
L 373.414873 -15.710313
L 373.942667 -15.710313
L 374.470461 -15.710313
L 374.998255 -15.710313
L 375.526049 -15.710313
L 376.053843 -15.710313
L 376.581637 -15.710313
L 377.109431 -15.710313
L 377.637225 -15.710313
L 378.165019 -15.710313
L 378.692813 -15.710313
L 379.220607 -15.710313
L 379.748401 -15.710313
L 380.276194 -15.710313
L 380.803988 -15.710313
L 381.331782 -15.710313
L 381.859576 -15.710313
L 382.38737 -15.710313
L 382.915164 -15.710313
L 383.442958 -15.710313
L 383.970752 -15.710313
L 384.498546 -15.710313
L 385.02634 -15.710313
L 385.554134 -15.710313
L 386.081928 -15.710313
L 386.609722 -15.710313
L 387.137516 -15.710313
L 387.66531 -15.710313
L 388.193103 -15.710313
L 388.720897 -15.710313
L 389.248691 -15.710313
L 389.776485 -15.710313
L 390.304279 -15.710313
L 390.832073 -15.710313
L 391.359867 -15.710313
L 391.887661 -15.710313
L 392.415455 -15.710313
L 392.943249 -15.710313
L 393.471043 -15.710313
L 393.998837 -15.710313
L 394.526631 -15.710313
L 395.054425 -15.710313
L 395.582219 -15.710313
L 396.110013 -15.710313
L 396.637806 -15.710313
L 397.1656 -15.710313
L 397.693394 -15.710313
L 398.221188 -15.710313
L 398.748982 -15.710313
L 399.276776 -15.710313
L 399.80457 -15.710313
L 400.332364 -15.710313
L 400.860158 -15.710313
L 401.387952 -15.710313
L 401.915746 -15.710313
L 402.44354 -15.710313
L 402.971334 -15.710313
L 403.499128 -15.710313
L 404.026922 -15.710313
L 404.554715 -15.710313
L 405.082509 -15.710313
L 405.610303 -15.710313
L 406.138097 -15.710313
L 406.665891 -15.710313
L 407.193685 -15.710313
L 407.721479 -15.710313
L 408.249273 -15.710313
L 408.777067 -15.710313
L 409.304861 -15.710313
L 409.832655 -15.710313
L 410.360449 -15.710313
L 410.888243 -15.710313
L 411.416037 -15.710313
L 411.943831 -15.710313
L 412.471624 -15.710313
L 412.999418 -15.710313
L 413.527212 -15.710313
L 414.055006 -15.710313
L 414.5828 -15.710313
L 415.110594 -15.710313
L 415.638388 -15.710313
L 416.166182 -15.710313
L 416.693976 -15.710313
L 417.22177 -15.710313
L 417.749564 -15.710313
L 418.277358 -15.710313
L 418.805152 -15.710313
L 419.332946 -15.710313
L 419.86074 -15.710313
L 420.388533 -15.710313
L 420.916327 -15.710313
L 421.444121 -15.710313
L 421.971915 -15.710313
L 422.499709 -15.710313
L 423.027503 -15.710313
L 423.555297 -15.710313
L 424.083091 -15.710313
L 424.610885 -15.710313
L 425.138679 -15.710313
L 425.666473 -15.710313
L 426.194267 -15.710313
L 426.722061 -15.710313
L 427.249855 -15.710313
L 427.777649 -15.710313
L 428.305442 -15.710313
L 428.833236 -15.710313
L 429.36103 -15.710313
L 429.888824 -15.710313
L 430.416618 -15.710313
L 430.944412 -15.710313
L 431.472206 -15.710313
L 432 -15.710313
L 432 -15.710313
L 432 -15.710313
L 431.472206 -15.710313
L 430.944412 -15.710313
L 430.416618 -15.710313
L 429.888824 -15.710313
L 429.36103 -15.710313
L 428.833236 -15.710313
L 428.305442 -15.710313
L 427.777649 -15.710313
L 427.249855 -15.710313
L 426.722061 -15.710313
L 426.194267 -15.710313
L 425.666473 -15.710313
L 425.138679 -15.710313
L 424.610885 -15.710313
L 424.083091 -15.710313
L 423.555297 -15.710313
L 423.027503 -15.710313
L 422.499709 -15.710313
L 421.971915 -15.710313
L 421.444121 -15.710313
L 420.916327 -15.710313
L 420.388533 -15.710313
L 419.86074 -15.710313
L 419.332946 -15.710313
L 418.805152 -15.710313
L 418.277358 -15.710313
L 417.749564 -15.710313
L 417.22177 -15.710313
L 416.693976 -15.710313
L 416.166182 -15.710313
L 415.638388 -15.710313
L 415.110594 -15.710313
L 414.5828 -15.710313
L 414.055006 -15.710313
L 413.527212 -15.710313
L 412.999418 -15.710313
L 412.471624 -15.710313
L 411.943831 -15.710313
L 411.416037 -15.710313
L 410.888243 -15.710313
L 410.360449 -15.710313
L 409.832655 -15.710313
L 409.304861 -15.710313
L 408.777067 -15.710313
L 408.249273 -15.710313
L 407.721479 -15.710313
L 407.193685 -15.710314
L 406.665891 -15.710315
L 406.138097 -15.710316
L 405.610303 -15.710322
L 405.082509 -15.710331
L 404.554715 -15.71034
L 404.026922 -15.710349
L 403.499128 -15.710384
L 402.971334 -15.710442
L 402.44354 -15.710499
L 401.915746 -15.710557
L 401.387952 -15.710683
L 400.860158 -15.710903
L 400.332364 -15.711124
L 399.80457 -15.711345
L 399.276776 -15.711645
L 398.748982 -15.712129
L 398.221188 -15.712613
L 397.693394 -15.713097
L 397.1656 -15.71359
L 396.637806 -15.714117
L 396.110013 -15.714645
L 395.582219 -15.715172
L 395.054425 -15.715665
L 394.526631 -15.71574
L 393.998837 -15.715814
L 393.471043 -15.715889
L 392.943249 -15.715964
L 392.415455 -15.715522
L 391.887661 -15.715061
L 391.359867 -15.714599
L 390.832073 -15.714138
L 390.304279 -15.713617
L 389.776485 -15.713085
L 389.248691 -15.712553
L 388.720897 -15.71202
L 388.193103 -15.711674
L 387.66531 -15.711392
L 387.137516 -15.711111
L 386.609722 -15.71083
L 386.081928 -15.710672
L 385.554134 -15.710589
L 385.02634 -15.710506
L 384.498546 -15.710423
L 383.970752 -15.710377
L 383.442958 -15.710367
L 382.915164 -15.710357
L 382.38737 -15.710347
L 381.859576 -15.710355
L 381.331782 -15.710389
L 380.803988 -15.710423
L 380.276194 -15.710457
L 379.748401 -15.710527
L 379.220607 -15.710687
L 378.692813 -15.710847
L 378.165019 -15.711007
L 377.637225 -15.711214
L 377.109431 -15.711642
L 376.581637 -15.712071
L 376.053843 -15.712499
L 375.526049 -15.712941
L 374.998255 -15.713601
L 374.470461 -15.71426
L 373.942667 -15.71492
L 373.414873 -15.715579
L 372.887079 -15.716139
L 372.359285 -15.716692
L 371.831492 -15.717245
L 371.303698 -15.717799
L 370.775904 -15.718071
L 370.24811 -15.718288
L 369.720316 -15.718504
L 369.192522 -15.718721
L 368.664728 -15.718742
L 368.136934 -15.718687
L 367.60914 -15.718632
L 367.081346 -15.718577
L 366.553552 -15.718503
L 366.025758 -15.718416
L 365.497964 -15.71833
L 364.97017 -15.718243
L 364.442376 -15.718547
L 363.914583 -15.719251
L 363.386789 -15.719954
L 362.858995 -15.720657
L 362.331201 -15.722131
L 361.803407 -15.724853
L 361.275613 -15.727575
L 360.747819 -15.730297
L 360.220025 -15.733603
L 359.692231 -15.7385
L 359.164437 -15.743398
L 358.636643 -15.748296
L 358.108849 -15.753227
L 357.581055 -15.758342
L 357.053261 -15.763458
L 356.525467 -15.768573
L 355.997674 -15.773595
L 355.46988 -15.776523
L 354.942086 -15.779452
L 354.414292 -15.78238
L 353.886498 -15.785308
L 353.358704 -15.78629
L 352.83091 -15.787125
L 352.303116 -15.787959
L 351.775322 -15.788794
L 351.247528 -15.789355
L 350.719734 -15.789856
L 350.19194 -15.790356
L 349.664146 -15.790856
L 349.136352 -15.792199
L 348.608558 -15.793898
L 348.080765 -15.795597
L 347.552971 -15.797296
L 347.025177 -15.801713
L 346.497383 -15.808016
L 345.969589 -15.81432
L 345.441795 -15.820624
L 344.914001 -15.830866
L 344.386207 -15.845423
L 343.858413 -15.859981
L 343.330619 -15.874538
L 342.802825 -15.891229
L 342.275031 -15.911647
L 341.747237 -15.932064
L 341.219443 -15.952481
L 340.691649 -15.972829
L 340.163856 -15.992966
L 339.636062 -16.013104
L 339.108268 -16.033242
L 338.580474 -16.052946
L 338.05268 -16.069933
L 337.524886 -16.086921
L 336.997092 -16.103908
L 336.469298 -16.120816
L 335.941504 -16.134597
L 335.41371 -16.148379
L 334.885916 -16.162161
L 334.358122 -16.175942
L 333.830328 -16.188949
L 333.302534 -16.201881
L 332.77474 -16.214812
L 332.246947 -16.227744
L 331.719153 -16.246109
L 331.191359 -16.265843
L 330.663565 -16.285578
L 330.135771 -16.305313
L 329.607977 -16.334995
L 329.080183 -16.36924
L 328.552389 -16.403484
L 328.024595 -16.437729
L 327.496801 -16.47915
L 326.969007 -16.525929
L 326.441213 -16.572708
L 325.913419 -16.619487
L 325.385625 -16.668225
L 324.857831 -16.719266
L 324.330038 -16.770308
L 323.802244 -16.82135
L 323.27445 -16.87336
L 322.746656 -16.927196
L 322.218862 -16.981032
L 321.691068 -17.034869
L 321.163274 -17.091214
L 320.63548 -17.155801
L 320.107686 -17.220389
L 319.579892 -17.284976
L 319.052098 -17.351841
L 318.524304 -17.435363
L 317.99651 -17.518886
L 317.468716 -17.602408
L 316.940922 -17.686066
L 316.413129 -17.788363
L 315.885335 -17.89066
L 315.357541 -17.992957
L 314.829747 -18.095254
L 314.301953 -18.207357
L 313.774159 -18.320621
L 313.246365 -18.433886
L 312.718571 -18.54715
L 312.190777 -18.663623
L 311.662983 -18.780996
L 311.135189 -18.898369
L 310.607395 -19.015742
L 310.079601 -19.136367
L 309.551807 -19.258609
L 309.024013 -19.380851
L 308.49622 -19.503093
L 307.968426 -19.634467
L 307.440632 -19.773167
L 306.912838 -19.911866
L 306.385044 -20.050565
L 305.85725 -20.203432
L 305.329456 -20.374197
L 304.801662 -20.544961
L 304.273868 -20.715726
L 303.746074 -20.899032
L 303.21828 -21.107943
L 302.690486 -21.316853
L 302.162692 -21.525764
L 301.634898 -21.74191
L 301.107104 -21.984361
L 300.57931 -22.226812
L 300.051517 -22.469263
L 299.523723 -22.714122
L 298.995929 -22.980044
L 298.468135 -23.245966
L 297.940341 -23.511888
L 297.412547 -23.77781
L 296.884753 -24.064895
L 296.356959 -24.352204
L 295.829165 -24.639513
L 295.301371 -24.926821
L 294.773577 -25.25016
L 294.245783 -25.578576
L 293.717989 -25.906992
L 293.190195 -26.235408
L 292.662401 -26.608818
L 292.134608 -26.996172
L 291.606814 -27.383526
L 291.07902 -27.770879
L 290.551226 -28.186831
L 290.023432 -28.618158
L 289.495638 -29.049485
L 288.967844 -29.480812
L 288.44005 -29.924486
L 287.912256 -30.378794
L 287.384462 -30.833102
L 286.856668 -31.287409
L 286.328874 -31.754827
L 285.80108 -32.24004
L 285.273286 -32.725253
L 284.745492 -33.210466
L 284.217699 -33.708852
L 283.689905 -34.236404
L 283.162111 -34.763956
L 282.634317 -35.291508
L 282.106523 -35.825408
L 281.578729 -36.385012
L 281.050935 -36.944616
L 280.523141 -37.50422
L 279.995347 -38.065835
L 279.467553 -38.649103
L 278.939759 -39.23237
L 278.411965 -39.815637
L 277.884171 -40.398905
L 277.356377 -41.011277
L 276.828583 -41.624491
L 276.30079 -42.237705
L 275.772996 -42.850919
L 275.245202 -43.505039
L 274.717408 -44.165883
L 274.189614 -44.826727
L 273.66182 -45.48757
L 273.134026 -46.210727
L 272.606232 -46.955127
L 272.078438 -47.699527
L 271.550644 -48.443927
L 271.02285 -49.249466
L 270.495056 -50.0905
L 269.967262 -50.931533
L 269.439468 -51.772567
L 268.911674 -52.63711
L 268.383881 -53.523388
L 267.856087 -54.409666
L 267.328293 -55.295944
L 266.800499 -56.177424
L 266.272705 -57.051899
L 265.744911 -57.926375
L 265.217117 -58.80085
L 264.689323 -59.673426
L 264.161529 -60.541429
L 263.633735 -61.409432
L 263.105941 -62.277436
L 262.578147 -63.15092
L 262.050353 -64.049304
L 261.522559 -64.947688
L 260.994765 -65.846072
L 260.466972 -66.747357
L 259.939178 -67.688822
L 259.411384 -68.630288
L 258.88359 -69.571753
L 258.355796 -70.513218
L 257.828002 -71.486589
L 257.300208 -72.461489
L 256.772414 -73.436389
L 256.24462 -74.411289
L 255.716826 -75.402683
L 255.189032 -76.39719
L 254.661238 -77.391698
L 254.133444 -78.386205
L 253.60565 -79.392358
L 253.077856 -80.40286
L 252.550063 -81.413362
L 252.022269 -82.423863
L 251.494475 -83.457291
L 250.966681 -84.505067
L 250.438887 -85.552843
L 249.911093 -86.600619
L 249.383299 -87.667766
L 248.855505 -88.75413
L 248.327711 -89.840494
L 247.799917 -90.926858
L 247.272123 -92.003824
L 246.744329 -93.066025
L 246.216535 -94.128225
L 245.688741 -95.190425
L 245.160947 -96.232005
L 244.633154 -97.219452
L 244.10536 -98.206899
L 243.577566 -99.194346
L 243.049772 -100.173593
L 242.521978 -101.110655
L 241.994184 -102.047718
L 241.46639 -102.984781
L 240.938596 -103.921249
L 240.410802 -104.846332
L 239.883008 -105.771416
L 239.355214 -106.696499
L 238.82742 -107.621582
L 238.299626 -108.546414
L 237.771832 -109.471229
L 237.244038 -110.396044
L 236.716245 -111.320859
L 236.188451 -112.252168
L 235.660657 -113.184868
L 235.132863 -114.117568
L 234.605069 -115.050268
L 234.077275 -115.978841
L 233.549481 -116.905732
L 233.021687 -117.832623
L 232.493893 -118.759514
L 231.966099 -119.651677
L 231.438305 -120.520438
L 230.910511 -121.389198
L 230.382717 -122.257959
L 229.854923 -123.080225
L 229.327129 -123.852989
L 228.799336 -124.625752
L 228.271542 -125.398516
L 227.743748 -126.131308
L 227.215954 -126.796407
L 226.68816 -127.461506
L 226.160366 -128.126605
L 225.632572 -128.759162
L 225.104778 -129.298225
L 224.576984 -129.837287
L 224.04919 -130.37635
L 223.521396 -130.895383
L 222.993602 -131.296423
L 222.465808 -131.697463
L 221.938014 -132.098503
L 221.41022 -132.495983
z
"/>
    </defs>
    <g clip-path="url(#pf428261f78)">
     <use xlink:href="#m3374623abe" x="0" y="156.763125" style="fill: #008000; fill-opacity: 0.5"/>
    </g>
   </g>
   <g id="LineCollection_1">
    <path d="M 198.90446 141.052813
L 198.90446 26.301212
" clip-path="url(#pf428261f78)" style="fill: none; stroke: #000000; stroke-width: 1.5"/>
   </g>
   <g id="LineCollection_2">
    <path d="M 221.41022 141.052813
L 221.41022 24.267142
" clip-path="url(#pf428261f78)" style="fill: none; stroke: #000000; stroke-width: 1.5"/>
   </g>
   <g id="LineCollection_3">
    <path d="M 209.837264 141.052813
L 209.837264 20.256781
" clip-path="url(#pf428261f78)" style="fill: none; stroke-dasharray: 5.55,2.4; stroke-dashoffset: 0; stroke: #000000; stroke-width: 1.5"/>
   </g>
   <g id="matplotlib.axis_1">
    <g id="xtick_1">
     <g id="line2d_1">
      <defs>
       <path id="m407f328d17" d="M 0 0
L 0 3.5
" style="stroke: #000000; stroke-width: 0.8"/>
      </defs>
      <g>
       <use xlink:href="#m407f328d17" x="41.364139" y="141.052813" style="stroke: #000000; stroke-width: 0.8"/>
      </g>
     </g>
     <g id="text_1">
      <!-- 0.15 -->
      <g transform="translate(27.573749 154.891406) scale(0.09 -0.09)">
       <defs>
        <path id="DejaVuSans-2212" d="M 678 2272
L 4684 2272
L 4684 1741
L 678 1741
L 678 2272
z
" transform="scale(0.015625)"/>
        <path id="DejaVuSans-30" d="M 2034 4250
Q 1547 4250 1301 3770
Q 1056 3291 1056 2328
Q 1056 1369 1301 889
Q 1547 409 2034 409
Q 2525 409 2770 889
Q 3016 1369 3016 2328
Q 3016 3291 2770 3770
Q 2525 4250 2034 4250
z
M 2034 4750
Q 2819 4750 3233 4129
Q 3647 3509 3647 2328
Q 3647 1150 3233 529
Q 2819 -91 2034 -91
Q 1250 -91 836 529
Q 422 1150 422 2328
Q 422 3509 836 4129
Q 1250 4750 2034 4750
z
" transform="scale(0.015625)"/>
        <path id="DejaVuSans-2e" d="M 684 794
L 1344 794
L 1344 0
L 684 0
L 684 794
z
" transform="scale(0.015625)"/>
        <path id="DejaVuSans-31" d="M 794 531
L 1825 531
L 1825 4091
L 703 3866
L 703 4441
L 1819 4666
L 2450 4666
L 2450 531
L 3481 531
L 3481 0
L 794 0
L 794 531
z
" transform="scale(0.015625)"/>
        <path id="DejaVuSans-35" d="M 691 4666
L 3169 4666
L 3169 4134
L 1269 4134
L 1269 2991
Q 1406 3038 1543 3061
Q 1681 3084 1819 3084
Q 2600 3084 3056 2656
Q 3513 2228 3513 1497
Q 3513 744 3044 326
Q 2575 -91 1722 -91
Q 1428 -91 1123 -41
Q 819 9 494 109
L 494 744
Q 775 591 1075 516
Q 1375 441 1709 441
Q 2250 441 2565 725
Q 2881 1009 2881 1497
Q 2881 1984 2565 2268
Q 2250 2553 1709 2553
Q 1456 2553 1204 2497
Q 953 2441 691 2322
L 691 4666
z
" transform="scale(0.015625)"/>
       </defs>
       <use xlink:href="#DejaVuSans-2212"/>
       <use xlink:href="#DejaVuSans-30" transform="translate(83.789062 0)"/>
       <use xlink:href="#DejaVuSans-2e" transform="translate(147.412109 0)"/>
       <use xlink:href="#DejaVuSans-31" transform="translate(179.199219 0)"/>
       <use xlink:href="#DejaVuSans-35" transform="translate(242.822266 0)"/>
      </g>
     </g>
    </g>
    <g id="xtick_2">
     <g id="line2d_2">
      <g>
       <use xlink:href="#m407f328d17" x="97.62854" y="141.052813" style="stroke: #000000; stroke-width: 0.8"/>
      </g>
     </g>
     <g id="text_2">
      <!-- 0.10 -->
      <g transform="translate(83.838149 154.891406) scale(0.09 -0.09)">
       <use xlink:href="#DejaVuSans-2212"/>
       <use xlink:href="#DejaVuSans-30" transform="translate(83.789062 0)"/>
       <use xlink:href="#DejaVuSans-2e" transform="translate(147.412109 0)"/>
       <use xlink:href="#DejaVuSans-31" transform="translate(179.199219 0)"/>
       <use xlink:href="#DejaVuSans-30" transform="translate(242.822266 0)"/>
      </g>
     </g>
    </g>
    <g id="xtick_3">
     <g id="line2d_3">
      <g>
       <use xlink:href="#m407f328d17" x="153.89294" y="141.052813" style="stroke: #000000; stroke-width: 0.8"/>
      </g>
     </g>
     <g id="text_3">
      <!-- 0.05 -->
      <g transform="translate(140.102549 154.891406) scale(0.09 -0.09)">
       <use xlink:href="#DejaVuSans-2212"/>
       <use xlink:href="#DejaVuSans-30" transform="translate(83.789062 0)"/>
       <use xlink:href="#DejaVuSans-2e" transform="translate(147.412109 0)"/>
       <use xlink:href="#DejaVuSans-30" transform="translate(179.199219 0)"/>
       <use xlink:href="#DejaVuSans-35" transform="translate(242.822266 0)"/>
      </g>
     </g>
    </g>
    <g id="xtick_4">
     <g id="line2d_4">
      <g>
       <use xlink:href="#m407f328d17" x="210.15734" y="141.052813" style="stroke: #000000; stroke-width: 0.8"/>
      </g>
     </g>
     <g id="text_4">
      <!-- 0.00 -->
      <g transform="translate(200.137809 154.891406) scale(0.09 -0.09)">
       <use xlink:href="#DejaVuSans-30"/>
       <use xlink:href="#DejaVuSans-2e" transform="translate(63.623047 0)"/>
       <use xlink:href="#DejaVuSans-30" transform="translate(95.410156 0)"/>
       <use xlink:href="#DejaVuSans-30" transform="translate(159.033203 0)"/>
      </g>
     </g>
    </g>
    <g id="xtick_5">
     <g id="line2d_5">
      <g>
       <use xlink:href="#m407f328d17" x="266.421741" y="141.052813" style="stroke: #000000; stroke-width: 0.8"/>
      </g>
     </g>
     <g id="text_5">
      <!-- 0.05 -->
      <g transform="translate(256.402209 154.891406) scale(0.09 -0.09)">
       <use xlink:href="#DejaVuSans-30"/>
       <use xlink:href="#DejaVuSans-2e" transform="translate(63.623047 0)"/>
       <use xlink:href="#DejaVuSans-30" transform="translate(95.410156 0)"/>
       <use xlink:href="#DejaVuSans-35" transform="translate(159.033203 0)"/>
      </g>
     </g>
    </g>
    <g id="xtick_6">
     <g id="line2d_6">
      <g>
       <use xlink:href="#m407f328d17" x="322.686141" y="141.052813" style="stroke: #000000; stroke-width: 0.8"/>
      </g>
     </g>
     <g id="text_6">
      <!-- 0.10 -->
      <g transform="translate(312.66661 154.891406) scale(0.09 -0.09)">
       <use xlink:href="#DejaVuSans-30"/>
       <use xlink:href="#DejaVuSans-2e" transform="translate(63.623047 0)"/>
       <use xlink:href="#DejaVuSans-31" transform="translate(95.410156 0)"/>
       <use xlink:href="#DejaVuSans-30" transform="translate(159.033203 0)"/>
      </g>
     </g>
    </g>
    <g id="xtick_7">
     <g id="line2d_7">
      <g>
       <use xlink:href="#m407f328d17" x="378.950541" y="141.052813" style="stroke: #000000; stroke-width: 0.8"/>
      </g>
     </g>
     <g id="text_7">
      <!-- 0.15 -->
      <g transform="translate(368.93101 154.891406) scale(0.09 -0.09)">
       <use xlink:href="#DejaVuSans-30"/>
       <use xlink:href="#DejaVuSans-2e" transform="translate(63.623047 0)"/>
       <use xlink:href="#DejaVuSans-31" transform="translate(95.410156 0)"/>
       <use xlink:href="#DejaVuSans-35" transform="translate(159.033203 0)"/>
      </g>
     </g>
    </g>
   </g>
   <g id="matplotlib.axis_2"/>
   <g id="line2d_8">
    <path d="M 0 141.052813
L 58.613065 140.944253
L 67.296482 140.835336
L 82.492462 140.392999
L 89.005025 139.981458
L 93.346734 139.565018
L 102.030151 138.293631
L 104.201005 137.929794
L 108.542714 136.848662
L 112.884422 135.59339
L 115.055276 134.835964
L 117.226131 133.913069
L 119.396985 132.831335
L 123.738693 130.283767
L 130.251256 126.090634
L 132.422111 124.501643
L 134.592965 122.743079
L 136.763819 120.823171
L 138.934673 118.703307
L 141.105528 116.330426
L 145.447236 111.011886
L 149.788945 105.266231
L 151.959799 102.058182
L 154.130653 98.460155
L 160.643216 87.135272
L 164.984925 79.497042
L 175.839196 59.255639
L 178.01005 55.244231
L 184.522613 44.330632
L 186.693467 40.806749
L 188.864322 37.784039
L 195.376884 29.927026
L 197.547739 27.568854
L 199.718593 25.540535
L 201.889447 23.758068
L 204.060302 22.269224
L 206.231156 21.197623
L 208.40201 20.505165
L 210.572864 20.129479
L 212.743719 20.283522
L 214.914573 21.048088
L 219.256281 23.083857
L 221.427136 24.276435
L 223.59799 25.925941
L 225.768844 28.143144
L 227.939698 30.878745
L 230.110553 34.057177
L 232.281407 37.630452
L 243.135678 56.742054
L 245.306533 60.803494
L 253.98995 78.106537
L 258.331658 86.206851
L 262.673367 93.774283
L 271.356784 108.045778
L 273.527638 111.107548
L 275.698492 113.825645
L 280.040201 118.746858
L 284.38191 123.218409
L 288.723618 127.082725
L 290.894472 128.856804
L 293.065327 130.450018
L 295.236181 131.800817
L 299.577889 134.076294
L 301.748744 135.073512
L 303.919598 135.932777
L 306.090452 136.635144
L 310.432161 137.708414
L 316.944724 139.077796
L 321.286432 139.686982
L 327.798995 140.310759
L 332.140704 140.532778
L 353.849246 140.97761
L 386.41206 141.052401
L 432 141.052813
L 432 141.052813
" clip-path="url(#pf428261f78)" style="fill: none; stroke: #000000; stroke-width: 1.5; stroke-linecap: square"/>
   </g>
   <g id="PathCollection_1">
    <defs>
     <path id="m6f99a398ae" d="M -0 4.242641
L 4.242641 0
L 0 -4.242641
L -4.242641 -0
z
" style="stroke: #000000"/>
    </defs>
    <g>
     <use xlink:href="#m6f99a398ae" x="210.15734" y="141.052813" style="stroke: #000000"/>
    </g>
   </g>
   <g id="patch_3">
    <path d="M 0 141.052813
L 432 141.052813
" style="fill: none; stroke: #000000; stroke-width: 0.8; stroke-linejoin: miter; stroke-linecap: square"/>
   </g>
   <g id="LineCollection_4">
    <path d="M 0 141.052813
L 432 141.052813
" style="fill: none; stroke: #000000"/>
   </g>
   <g id="LineCollection_5">
    <path d="M 0 141.052813
L 0 132.826735
" style="fill: none; stroke: #000000"/>
   </g>
   <g id="LineCollection_6">
    <path d="M 432 141.052813
L 432 132.826735
" style="fill: none; stroke: #000000"/>
   </g>
   <g id="text_8">
    <!-- $p_{sig}^{+}$ -->
    <g style="fill: #008000" transform="translate(319.19011 7.47) scale(0.09 -0.09)">
     <defs>
      <path id="DejaVuSans-Oblique-70" d="M 3175 2156
Q 3175 2616 2975 2859
Q 2775 3103 2400 3103
Q 2144 3103 1911 2972
Q 1678 2841 1497 2591
Q 1319 2344 1212 1994
Q 1106 1644 1106 1300
Q 1106 863 1306 627
Q 1506 391 1875 391
Q 2147 391 2380 519
Q 2613 647 2778 891
Q 2956 1147 3065 1494
Q 3175 1841 3175 2156
z
M 1394 2969
Q 1625 3272 1939 3428
Q 2253 3584 2638 3584
Q 3175 3584 3472 3232
Q 3769 2881 3769 2247
Q 3769 1728 3584 1258
Q 3400 788 3053 416
Q 2822 169 2531 39
Q 2241 -91 1919 -91
Q 1547 -91 1294 64
Q 1041 219 916 525
L 556 -1331
L -19 -1331
L 922 3500
L 1497 3500
L 1394 2969
z
" transform="scale(0.015625)"/>
      <path id="DejaVuSans-2b" d="M 2944 4013
L 2944 2272
L 4684 2272
L 4684 1741
L 2944 1741
L 2944 0
L 2419 0
L 2419 1741
L 678 1741
L 678 2272
L 2419 2272
L 2419 4013
L 2944 4013
z
" transform="scale(0.015625)"/>
      <path id="DejaVuSans-Oblique-73" d="M 3200 3397
L 3091 2853
Q 2863 2978 2609 3040
Q 2356 3103 2088 3103
Q 1634 3103 1373 2948
Q 1113 2794 1113 2528
Q 1113 2219 1719 2053
Q 1766 2041 1788 2034
L 1972 1978
Q 2547 1819 2739 1644
Q 2931 1469 2931 1166
Q 2931 609 2489 259
Q 2047 -91 1331 -91
Q 1053 -91 747 -37
Q 441 16 72 128
L 184 722
Q 500 559 806 475
Q 1113 391 1394 391
Q 1816 391 2080 572
Q 2344 753 2344 1031
Q 2344 1331 1650 1516
L 1591 1531
L 1394 1581
Q 956 1697 753 1886
Q 550 2075 550 2369
Q 550 2928 970 3256
Q 1391 3584 2113 3584
Q 2397 3584 2667 3537
Q 2938 3491 3200 3397
z
" transform="scale(0.015625)"/>
      <path id="DejaVuSans-Oblique-69" d="M 1172 4863
L 1747 4863
L 1606 4134
L 1031 4134
L 1172 4863
z
M 909 3500
L 1484 3500
L 800 0
L 225 0
L 909 3500
z
" transform="scale(0.015625)"/>
      <path id="DejaVuSans-Oblique-67" d="M 3816 3500
L 3219 434
Q 3047 -456 2561 -893
Q 2075 -1331 1253 -1331
Q 950 -1331 690 -1286
Q 431 -1241 206 -1147
L 313 -588
Q 525 -725 762 -790
Q 1000 -856 1269 -856
Q 1816 -856 2167 -557
Q 2519 -259 2631 300
L 2681 563
Q 2441 288 2122 144
Q 1803 0 1434 0
Q 903 0 598 351
Q 294 703 294 1319
Q 294 1803 478 2267
Q 663 2731 997 3091
Q 1219 3328 1514 3456
Q 1809 3584 2131 3584
Q 2484 3584 2746 3420
Q 3009 3256 3138 2956
L 3238 3500
L 3816 3500
z
M 2950 2216
Q 2950 2641 2750 2872
Q 2550 3103 2181 3103
Q 1953 3103 1747 3012
Q 1541 2922 1394 2759
Q 1156 2491 1023 2127
Q 891 1763 891 1375
Q 891 944 1092 712
Q 1294 481 1672 481
Q 2219 481 2584 976
Q 2950 1472 2950 2216
z
" transform="scale(0.015625)"/>
     </defs>
     <use xlink:href="#DejaVuSans-Oblique-70" transform="translate(0 0.7625)"/>
     <use xlink:href="#DejaVuSans-2b" transform="translate(68.126458 39.107813) scale(0.7)"/>
     <use xlink:href="#DejaVuSans-Oblique-73" transform="translate(63.476562 -26.58125) scale(0.7)"/>
     <use xlink:href="#DejaVuSans-Oblique-69" transform="translate(99.946289 -26.58125) scale(0.7)"/>
     <use xlink:href="#DejaVuSans-Oblique-67" transform="translate(119.394531 -26.58125) scale(0.7)"/>
    </g>
    <!-- 38.08% -->
    <g style="fill: #008000" transform="translate(309.546751 19.456312) scale(0.09 -0.09)">
     <defs>
      <path id="DejaVuSans-33" d="M 2597 2516
Q 3050 2419 3304 2112
Q 3559 1806 3559 1356
Q 3559 666 3084 287
Q 2609 -91 1734 -91
Q 1441 -91 1130 -33
Q 819 25 488 141
L 488 750
Q 750 597 1062 519
Q 1375 441 1716 441
Q 2309 441 2620 675
Q 2931 909 2931 1356
Q 2931 1769 2642 2001
Q 2353 2234 1838 2234
L 1294 2234
L 1294 2753
L 1863 2753
Q 2328 2753 2575 2939
Q 2822 3125 2822 3475
Q 2822 3834 2567 4026
Q 2313 4219 1838 4219
Q 1578 4219 1281 4162
Q 984 4106 628 3988
L 628 4550
Q 988 4650 1302 4700
Q 1616 4750 1894 4750
Q 2613 4750 3031 4423
Q 3450 4097 3450 3541
Q 3450 3153 3228 2886
Q 3006 2619 2597 2516
z
" transform="scale(0.015625)"/>
      <path id="DejaVuSans-38" d="M 2034 2216
Q 1584 2216 1326 1975
Q 1069 1734 1069 1313
Q 1069 891 1326 650
Q 1584 409 2034 409
Q 2484 409 2743 651
Q 3003 894 3003 1313
Q 3003 1734 2745 1975
Q 2488 2216 2034 2216
z
M 1403 2484
Q 997 2584 770 2862
Q 544 3141 544 3541
Q 544 4100 942 4425
Q 1341 4750 2034 4750
Q 2731 4750 3128 4425
Q 3525 4100 3525 3541
Q 3525 3141 3298 2862
Q 3072 2584 2669 2484
Q 3125 2378 3379 2068
Q 3634 1759 3634 1313
Q 3634 634 3220 271
Q 2806 -91 2034 -91
Q 1263 -91 848 271
Q 434 634 434 1313
Q 434 1759 690 2068
Q 947 2378 1403 2484
z
M 1172 3481
Q 1172 3119 1398 2916
Q 1625 2713 2034 2713
Q 2441 2713 2670 2916
Q 2900 3119 2900 3481
Q 2900 3844 2670 4047
Q 2441 4250 2034 4250
Q 1625 4250 1398 4047
Q 1172 3844 1172 3481
z
" transform="scale(0.015625)"/>
      <path id="DejaVuSans-25" d="M 4653 2053
Q 4381 2053 4226 1822
Q 4072 1591 4072 1178
Q 4072 772 4226 539
Q 4381 306 4653 306
Q 4919 306 5073 539
Q 5228 772 5228 1178
Q 5228 1588 5073 1820
Q 4919 2053 4653 2053
z
M 4653 2450
Q 5147 2450 5437 2106
Q 5728 1763 5728 1178
Q 5728 594 5436 251
Q 5144 -91 4653 -91
Q 4153 -91 3862 251
Q 3572 594 3572 1178
Q 3572 1766 3864 2108
Q 4156 2450 4653 2450
z
M 1428 4353
Q 1159 4353 1004 4120
Q 850 3888 850 3481
Q 850 3069 1003 2837
Q 1156 2606 1428 2606
Q 1700 2606 1854 2837
Q 2009 3069 2009 3481
Q 2009 3884 1853 4118
Q 1697 4353 1428 4353
z
M 4250 4750
L 4750 4750
L 1831 -91
L 1331 -91
L 4250 4750
z
M 1428 4750
Q 1922 4750 2215 4408
Q 2509 4066 2509 3481
Q 2509 2891 2217 2550
Q 1925 2209 1428 2209
Q 931 2209 642 2551
Q 353 2894 353 3481
Q 353 4063 643 4406
Q 934 4750 1428 4750
z
" transform="scale(0.015625)"/>
     </defs>
     <use xlink:href="#DejaVuSans-33"/>
     <use xlink:href="#DejaVuSans-38" transform="translate(63.623047 0)"/>
     <use xlink:href="#DejaVuSans-2e" transform="translate(127.246094 0)"/>
     <use xlink:href="#DejaVuSans-30" transform="translate(159.033203 0)"/>
     <use xlink:href="#DejaVuSans-38" transform="translate(222.65625 0)"/>
     <use xlink:href="#DejaVuSans-25" transform="translate(286.279297 0)"/>
    </g>
    <!--  -->
    <g style="fill: #008000" transform="translate(326.70511 29.534344) scale(0.09 -0.09)"/>
   </g>
   <g id="text_9">
    <!-- $p_{sig}^{-}$ -->
    <g style="fill: #ff0000" transform="translate(103.19011 6.615) scale(0.09 -0.09)">
     <use xlink:href="#DejaVuSans-Oblique-70" transform="translate(0 0.804688)"/>
     <use xlink:href="#DejaVuSans-2212" transform="translate(68.126458 39.15) scale(0.7)"/>
     <use xlink:href="#DejaVuSans-Oblique-73" transform="translate(63.476562 -26.539062) scale(0.7)"/>
     <use xlink:href="#DejaVuSans-Oblique-69" transform="translate(99.946289 -26.539062) scale(0.7)"/>
     <use xlink:href="#DejaVuSans-Oblique-67" transform="translate(119.394531 -26.539062) scale(0.7)"/>
    </g>
    <!-- 38.88% -->
    <g style="fill: #ff0000" transform="translate(93.546751 18.601313) scale(0.09 -0.09)">
     <use xlink:href="#DejaVuSans-33"/>
     <use xlink:href="#DejaVuSans-38" transform="translate(63.623047 0)"/>
     <use xlink:href="#DejaVuSans-2e" transform="translate(127.246094 0)"/>
     <use xlink:href="#DejaVuSans-38" transform="translate(159.033203 0)"/>
     <use xlink:href="#DejaVuSans-38" transform="translate(222.65625 0)"/>
     <use xlink:href="#DejaVuSans-25" transform="translate(286.279297 0)"/>
    </g>
    <!--  -->
    <g style="fill: #ff0000" transform="translate(110.70511 28.679344) scale(0.09 -0.09)"/>
   </g>
   <g id="text_10">
    <!-- $p_{ROPE}$ -->
    <g style="fill: #808080" transform="translate(198.59234 8.090156) scale(0.09 -0.09)">
     <defs>
      <path id="DejaVuSans-Oblique-52" d="M 1613 4147
L 1294 2491
L 2106 2491
Q 2584 2491 2879 2755
Q 3175 3019 3175 3444
Q 3175 3784 2976 3965
Q 2778 4147 2406 4147
L 1613 4147
z
M 2772 2241
Q 2972 2194 3105 2009
Q 3238 1825 3413 1275
L 3809 0
L 3144 0
L 2778 1197
Q 2638 1659 2453 1815
Q 2269 1972 1888 1972
L 1191 1972
L 806 0
L 172 0
L 1081 4666
L 2503 4666
Q 3150 4666 3495 4373
Q 3841 4081 3841 3531
Q 3841 3044 3547 2687
Q 3253 2331 2772 2241
z
" transform="scale(0.015625)"/>
      <path id="DejaVuSans-Oblique-4f" d="M 2919 4238
Q 2400 4238 2003 3986
Q 1606 3734 1313 3219
Q 1125 2891 1026 2522
Q 928 2153 928 1778
Q 928 1128 1239 775
Q 1550 422 2119 422
Q 2631 422 3032 676
Q 3434 931 3719 1434
Q 3909 1772 4009 2142
Q 4109 2513 4109 2881
Q 4109 3528 3796 3883
Q 3484 4238 2919 4238
z
M 2100 -91
Q 1241 -91 748 418
Q 256 928 256 1813
Q 256 2319 448 2847
Q 641 3375 978 3788
Q 1375 4272 1862 4511
Q 2350 4750 2938 4750
Q 3794 4750 4287 4245
Q 4781 3741 4781 2869
Q 4781 2331 4593 1812
Q 4406 1294 4056 872
Q 3656 384 3173 146
Q 2691 -91 2100 -91
z
" transform="scale(0.015625)"/>
      <path id="DejaVuSans-Oblique-50" d="M 1081 4666
L 2541 4666
Q 3178 4666 3512 4369
Q 3847 4072 3847 3500
Q 3847 2731 3353 2303
Q 2859 1875 1966 1875
L 1172 1875
L 806 0
L 172 0
L 1081 4666
z
M 1613 4147
L 1275 2394
L 2069 2394
Q 2606 2394 2893 2669
Q 3181 2944 3181 3456
Q 3181 3784 2986 3965
Q 2791 4147 2438 4147
L 1613 4147
z
" transform="scale(0.015625)"/>
      <path id="DejaVuSans-Oblique-45" d="M 1081 4666
L 4031 4666
L 3928 4134
L 1606 4134
L 1338 2753
L 3566 2753
L 3463 2222
L 1234 2222
L 909 531
L 3284 531
L 3181 0
L 172 0
L 1081 4666
z
" transform="scale(0.015625)"/>
     </defs>
     <use xlink:href="#DejaVuSans-Oblique-70"/>
     <use xlink:href="#DejaVuSans-Oblique-52" transform="translate(63.476562 -16.40625) scale(0.7)"/>
     <use xlink:href="#DejaVuSans-Oblique-4f" transform="translate(112.114258 -16.40625) scale(0.7)"/>
     <use xlink:href="#DejaVuSans-Oblique-50" transform="translate(167.211914 -16.40625) scale(0.7)"/>
     <use xlink:href="#DejaVuSans-Oblique-45" transform="translate(209.423828 -16.40625) scale(0.7)"/>
    </g>
    <!-- 23.04% -->
    <g style="fill: #808080" transform="translate(192.998981 18.186469) scale(0.09 -0.09)">
     <defs>
      <path id="DejaVuSans-32" d="M 1228 531
L 3431 531
L 3431 0
L 469 0
L 469 531
Q 828 903 1448 1529
Q 2069 2156 2228 2338
Q 2531 2678 2651 2914
Q 2772 3150 2772 3378
Q 2772 3750 2511 3984
Q 2250 4219 1831 4219
Q 1534 4219 1204 4116
Q 875 4013 500 3803
L 500 4441
Q 881 4594 1212 4672
Q 1544 4750 1819 4750
Q 2544 4750 2975 4387
Q 3406 4025 3406 3419
Q 3406 3131 3298 2873
Q 3191 2616 2906 2266
Q 2828 2175 2409 1742
Q 1991 1309 1228 531
z
" transform="scale(0.015625)"/>
      <path id="DejaVuSans-34" d="M 2419 4116
L 825 1625
L 2419 1625
L 2419 4116
z
M 2253 4666
L 3047 4666
L 3047 1625
L 3713 1625
L 3713 1100
L 3047 1100
L 3047 0
L 2419 0
L 2419 1100
L 313 1100
L 313 1709
L 2253 4666
z
" transform="scale(0.015625)"/>
     </defs>
     <use xlink:href="#DejaVuSans-32"/>
     <use xlink:href="#DejaVuSans-33" transform="translate(63.623047 0)"/>
     <use xlink:href="#DejaVuSans-2e" transform="translate(127.246094 0)"/>
     <use xlink:href="#DejaVuSans-30" transform="translate(159.033203 0)"/>
     <use xlink:href="#DejaVuSans-34" transform="translate(222.65625 0)"/>
     <use xlink:href="#DejaVuSans-25" transform="translate(286.279297 0)"/>
    </g>
    <!--  -->
    <g style="fill: #808080" transform="translate(210.15734 28.2645) scale(0.09 -0.09)"/>
   </g>
  </g>
 </g>
 <defs>
  <clipPath id="pf428261f78">
   <rect x="0" y="14.083313" width="432" height="126.9695"/>
  </clipPath>
 </defs>
</svg>
