<?xml version="1.0" encoding="utf-8" standalone="no"?>
<!DOCTYPE svg PUBLIC "-//W3C//DTD SVG 1.1//EN"
  "http://www.w3.org/Graphics/SVG/1.1/DTD/svg11.dtd">
<svg xmlns:xlink="http://www.w3.org/1999/xlink" width="265.959073pt" height="121.998125pt" viewBox="0 0 265.959073 121.998125" xmlns="http://www.w3.org/2000/svg" version="1.1">
 <metadata>
  <rdf:RDF xmlns:dc="http://purl.org/dc/elements/1.1/" xmlns:cc="http://creativecommons.org/ns#" xmlns:rdf="http://www.w3.org/1999/02/22-rdf-syntax-ns#">
   <cc:Work>
    <dc:type rdf:resource="http://purl.org/dc/dcmitype/StillImage"/>
    <dc:date>2025-08-05T10:23:05.100816</dc:date>
    <dc:format>image/svg+xml</dc:format>
    <dc:creator>
     <cc:Agent>
      <dc:title>Matplotlib v3.10.3, https://matplotlib.org/</dc:title>
     </cc:Agent>
    </dc:creator>
   </cc:Work>
  </rdf:RDF>
 </metadata>
 <defs>
  <style type="text/css">*{stroke-linejoin: round; stroke-linecap: butt}</style>
 </defs>
 <g id="figure_1">
  <g id="patch_1">
   <path d="M 0 121.998125
L 265.959073 121.998125
L 265.959073 0
L 0 0
L 0 121.998125
z
" style="fill: none"/>
  </g>
  <g id="axes_1">
   <g id="patch_2">
    <path d="M 0 105.32
L 261.251496 105.32
L 261.251496 -0
L 0 -0
L 0 105.32
z
" style="fill: none"/>
   </g>
   <g id="FillBetweenPolyCollection_1">
    <defs>
     <path id="ma4fdb7932e" d="M 77.706282 -16.678125
L 77.706282 -16.678125
L 78.568946 -16.678125
L 79.43161 -16.678125
L 80.294274 -16.678125
L 81.156938 -16.678125
L 82.019602 -16.678125
L 82.882266 -16.678125
L 83.74493 -16.678125
L 84.607594 -16.678125
L 85.470258 -16.678125
L 86.332922 -16.678125
L 87.195586 -16.678125
L 88.05825 -16.678125
L 88.920914 -16.678125
L 89.783579 -16.678125
L 90.646243 -16.678125
L 91.508907 -16.678125
L 92.371571 -16.678125
L 93.234235 -16.678125
L 94.096899 -16.678125
L 94.959563 -16.678125
L 95.822227 -16.678125
L 96.684891 -16.678125
L 97.547555 -16.678125
L 98.410219 -16.678125
L 99.272883 -16.678125
L 100.135547 -16.678125
L 100.998211 -16.678125
L 101.860875 -16.678125
L 102.723539 -16.678125
L 103.586203 -16.678125
L 104.448867 -16.678125
L 105.311531 -16.678125
L 106.174195 -16.678125
L 107.03686 -16.678125
L 107.899524 -16.678125
L 108.762188 -16.678128
L 109.624852 -16.678194
L 110.487516 -16.678756
L 111.35018 -16.680717
L 112.212844 -16.683102
L 113.075508 -16.68378
L 113.938172 -16.685744
L 114.800836 -16.690726
L 115.6635 -16.6954
L 116.526164 -16.701215
L 117.388828 -16.706272
L 118.251492 -16.705872
L 119.114156 -16.710377
L 119.97682 -16.719701
L 120.839484 -16.724657
L 121.702148 -16.727754
L 122.564812 -16.742561
L 123.427476 -16.765966
L 124.290141 -16.786196
L 125.152805 -16.81227
L 126.015469 -16.843899
L 126.878133 -16.884763
L 127.740797 -16.955808
L 128.603461 -17.034678
L 129.466125 -17.106858
L 130.328789 -17.225701
L 131.191453 -17.409918
L 132.054117 -17.620064
L 132.916781 -17.86152
L 133.779445 -18.123292
L 134.642109 -18.409813
L 135.504773 -18.737885
L 136.367437 -19.08991
L 137.230101 -19.527171
L 138.092765 -20.129735
L 138.955429 -20.909941
L 139.818093 -21.82442
L 140.680757 -22.767874
L 141.543422 -23.703354
L 142.406086 -24.79226
L 143.26875 -26.158295
L 144.131414 -27.73672
L 144.994078 -29.4932
L 145.856742 -31.407118
L 146.719406 -33.506504
L 147.58207 -35.780464
L 148.444734 -38.190772
L 149.307398 -40.888097
L 150.170062 -43.965055
L 151.032726 -47.42206
L 151.89539 -51.213477
L 152.758054 -55.133621
L 153.620718 -58.920222
L 154.483382 -62.672106
L 155.346046 -66.847828
L 156.20871 -71.684586
L 157.071374 -76.5045
L 157.934038 -80.603415
L 158.796703 -84.427069
L 159.659367 -88.148467
L 160.522031 -91.695034
L 161.384695 -95.808713
L 162.247359 -100.333602
L 163.110023 -104.154716
L 163.972687 -107.159082
L 164.835351 -109.938446
L 165.698015 -112.369069
L 166.560679 -114.186232
L 167.423343 -115.569265
L 168.286007 -116.487477
L 169.148671 -116.94135
L 170.011335 -116.982887
L 170.873999 -116.358253
L 171.736663 -114.957535
L 172.599327 -113.034888
L 173.461991 -110.683293
L 174.324655 -107.965808
L 175.187319 -104.942165
L 176.049984 -101.387056
L 176.912648 -97.46621
L 177.775312 -93.167678
L 178.637976 -88.483825
L 179.50064 -83.315217
L 180.363304 -78.320495
L 181.225968 -74.242824
L 182.088632 -70.341186
L 182.951296 -66.066227
L 183.81396 -61.606226
L 184.676624 -57.119591
L 185.539288 -52.711398
L 186.401952 -48.597473
L 187.264616 -44.948556
L 188.12728 -41.84376
L 188.989944 -39.093251
L 189.852608 -36.229101
L 190.715272 -33.390112
L 191.577936 -30.954899
L 192.4406 -28.82678
L 193.303265 -26.868505
L 194.165929 -25.200672
L 195.028593 -23.832799
L 195.891257 -22.701375
L 196.753921 -21.716578
L 197.616585 -20.782387
L 198.479249 -19.983944
L 199.341913 -19.354932
L 200.204577 -18.780964
L 201.067241 -18.258246
L 201.929905 -17.856136
L 202.792569 -17.544876
L 203.655233 -17.336815
L 204.517897 -17.228975
L 205.380561 -17.122199
L 206.243225 -16.999862
L 207.105889 -16.91529
L 207.968553 -16.880287
L 208.831217 -16.856466
L 209.693881 -16.810727
L 210.556546 -16.756476
L 211.41921 -16.717682
L 212.281874 -16.705647
L 213.144538 -16.708072
L 214.007202 -16.711498
L 214.869866 -16.70564
L 215.73253 -16.690527
L 216.595194 -16.680812
L 217.457858 -16.678395
L 218.320522 -16.678137
L 219.183186 -16.678125
L 220.04585 -16.678125
L 220.908514 -16.678125
L 221.771178 -16.678125
L 222.633842 -16.678125
L 223.496506 -16.678125
L 224.35917 -16.678125
L 225.221834 -16.678125
L 226.084498 -16.678125
L 226.947162 -16.678125
L 227.809827 -16.678125
L 228.672491 -16.678125
L 229.535155 -16.678125
L 230.397819 -16.678125
L 231.260483 -16.678125
L 232.123147 -16.678125
L 232.985811 -16.678125
L 233.848475 -16.678125
L 234.711139 -16.678125
L 235.573803 -16.678125
L 236.436467 -16.678125
L 237.299131 -16.678125
L 238.161795 -16.678125
L 239.024459 -16.678125
L 239.887123 -16.678125
L 240.749787 -16.678125
L 241.612451 -16.678125
L 242.475115 -16.678125
L 243.337779 -16.678125
L 244.200443 -16.678125
L 245.063108 -16.678125
L 245.925772 -16.678125
L 246.788436 -16.678125
L 247.6511 -16.678125
L 248.513764 -16.678125
L 249.376428 -16.678125
L 249.376428 -16.678125
L 249.376428 -16.678125
L 248.513764 -16.678125
L 247.6511 -16.678125
L 246.788436 -16.678125
L 245.925772 -16.678125
L 245.063108 -16.678125
L 244.200443 -16.678125
L 243.337779 -16.678125
L 242.475115 -16.678125
L 241.612451 -16.678125
L 240.749787 -16.678125
L 239.887123 -16.678125
L 239.024459 -16.678125
L 238.161795 -16.678125
L 237.299131 -16.678125
L 236.436467 -16.678125
L 235.573803 -16.678125
L 234.711139 -16.678125
L 233.848475 -16.678125
L 232.985811 -16.678125
L 232.123147 -16.678125
L 231.260483 -16.678125
L 230.397819 -16.678125
L 229.535155 -16.678125
L 228.672491 -16.678125
L 227.809827 -16.678125
L 226.947162 -16.678125
L 226.084498 -16.678125
L 225.221834 -16.678125
L 224.35917 -16.678125
L 223.496506 -16.678125
L 222.633842 -16.678125
L 221.771178 -16.678125
L 220.908514 -16.678125
L 220.04585 -16.678125
L 219.183186 -16.678125
L 218.320522 -16.678125
L 217.457858 -16.678125
L 216.595194 -16.678125
L 215.73253 -16.678125
L 214.869866 -16.678125
L 214.007202 -16.678125
L 213.144538 -16.678125
L 212.281874 -16.678125
L 211.41921 -16.678125
L 210.556546 -16.678125
L 209.693881 -16.678125
L 208.831217 -16.678125
L 207.968553 -16.678125
L 207.105889 -16.678125
L 206.243225 -16.678125
L 205.380561 -16.678125
L 204.517897 -16.678125
L 203.655233 -16.678125
L 202.792569 -16.678125
L 201.929905 -16.678125
L 201.067241 -16.678125
L 200.204577 -16.678125
L 199.341913 -16.678125
L 198.479249 -16.678125
L 197.616585 -16.678125
L 196.753921 -16.678125
L 195.891257 -16.678125
L 195.028593 -16.678125
L 194.165929 -16.678125
L 193.303265 -16.678125
L 192.4406 -16.678125
L 191.577936 -16.678125
L 190.715272 -16.678125
L 189.852608 -16.678125
L 188.989944 -16.678125
L 188.12728 -16.678125
L 187.264616 -16.678125
L 186.401952 -16.678125
L 185.539288 -16.678125
L 184.676624 -16.678125
L 183.81396 -16.678125
L 182.951296 -16.678125
L 182.088632 -16.678125
L 181.225968 -16.678125
L 180.363304 -16.678125
L 179.50064 -16.678125
L 178.637976 -16.678125
L 177.775312 -16.678125
L 176.912648 -16.678125
L 176.049984 -16.678125
L 175.187319 -16.678125
L 174.324655 -16.678125
L 173.461991 -16.678125
L 172.599327 -16.678125
L 171.736663 -16.678125
L 170.873999 -16.678125
L 170.011335 -16.678125
L 169.148671 -16.678125
L 168.286007 -16.678125
L 167.423343 -16.678125
L 166.560679 -16.678125
L 165.698015 -16.678125
L 164.835351 -16.678125
L 163.972687 -16.678125
L 163.110023 -16.678125
L 162.247359 -16.678125
L 161.384695 -16.678125
L 160.522031 -16.678125
L 159.659367 -16.678125
L 158.796703 -16.678125
L 157.934038 -16.678125
L 157.071374 -16.678125
L 156.20871 -16.678125
L 155.346046 -16.678125
L 154.483382 -16.678125
L 153.620718 -16.678125
L 152.758054 -16.678125
L 151.89539 -16.678125
L 151.032726 -16.678125
L 150.170062 -16.678125
L 149.307398 -16.678125
L 148.444734 -16.678125
L 147.58207 -16.678125
L 146.719406 -16.678125
L 145.856742 -16.678125
L 144.994078 -16.678125
L 144.131414 -16.678125
L 143.26875 -16.678125
L 142.406086 -16.678125
L 141.543422 -16.678125
L 140.680757 -16.678125
L 139.818093 -16.678125
L 138.955429 -16.678125
L 138.092765 -16.678125
L 137.230101 -16.678125
L 136.367437 -16.678125
L 135.504773 -16.678125
L 134.642109 -16.678125
L 133.779445 -16.678125
L 132.916781 -16.678125
L 132.054117 -16.678125
L 131.191453 -16.678125
L 130.328789 -16.678125
L 129.466125 -16.678125
L 128.603461 -16.678125
L 127.740797 -16.678125
L 126.878133 -16.678125
L 126.015469 -16.678125
L 125.152805 -16.678125
L 124.290141 -16.678125
L 123.427476 -16.678125
L 122.564812 -16.678125
L 121.702148 -16.678125
L 120.839484 -16.678125
L 119.97682 -16.678125
L 119.114156 -16.678125
L 118.251492 -16.678125
L 117.388828 -16.678125
L 116.526164 -16.678125
L 115.6635 -16.678125
L 114.800836 -16.678125
L 113.938172 -16.678125
L 113.075508 -16.678125
L 112.212844 -16.678125
L 111.35018 -16.678125
L 110.487516 -16.678125
L 109.624852 -16.678125
L 108.762188 -16.678125
L 107.899524 -16.678125
L 107.03686 -16.678125
L 106.174195 -16.678125
L 105.311531 -16.678125
L 104.448867 -16.678125
L 103.586203 -16.678125
L 102.723539 -16.678125
L 101.860875 -16.678125
L 100.998211 -16.678125
L 100.135547 -16.678125
L 99.272883 -16.678125
L 98.410219 -16.678125
L 97.547555 -16.678125
L 96.684891 -16.678125
L 95.822227 -16.678125
L 94.959563 -16.678125
L 94.096899 -16.678125
L 93.234235 -16.678125
L 92.371571 -16.678125
L 91.508907 -16.678125
L 90.646243 -16.678125
L 89.783579 -16.678125
L 88.920914 -16.678125
L 88.05825 -16.678125
L 87.195586 -16.678125
L 86.332922 -16.678125
L 85.470258 -16.678125
L 84.607594 -16.678125
L 83.74493 -16.678125
L 82.882266 -16.678125
L 82.019602 -16.678125
L 81.156938 -16.678125
L 80.294274 -16.678125
L 79.43161 -16.678125
L 78.568946 -16.678125
L 77.706282 -16.678125
z
" style="stroke: #1f77b4; stroke-opacity: 0.5"/>
    </defs>
    <g clip-path="url(#p27b3275a41)">
     <use xlink:href="#ma4fdb7932e" x="0" y="121.998125" style="fill: #1f77b4; fill-opacity: 0.5; stroke: #1f77b4; stroke-opacity: 0.5"/>
    </g>
   </g>
   <g id="FillBetweenPolyCollection_2">
    <defs>
     <path id="mb23ff3dfae" d="M 11.875068 -16.678125
L 11.875068 -16.678125
L 12.822679 -16.678125
L 13.770291 -16.678125
L 14.717902 -16.678125
L 15.665513 -16.678125
L 16.613125 -16.678125
L 17.560736 -16.678125
L 18.508347 -16.678125
L 19.455958 -16.678125
L 20.40357 -16.678125
L 21.351181 -16.678125
L 22.298792 -16.678125
L 23.246404 -16.678125
L 24.194015 -16.678125
L 25.141626 -16.678125
L 26.089238 -16.678125
L 27.036849 -16.678125
L 27.98446 -16.678125
L 28.932071 -16.678125
L 29.879683 -16.678125
L 30.827294 -16.678125
L 31.774905 -16.678125
L 32.722517 -16.678125
L 33.670128 -16.678125
L 34.617739 -16.678125
L 35.565351 -16.678125
L 36.512962 -16.678125
L 37.460573 -16.678125
L 38.408184 -16.678125
L 39.355796 -16.678125
L 40.303407 -16.678125
L 41.251018 -16.678125
L 42.19863 -16.678125
L 43.146241 -16.678125
L 44.093852 -16.678125
L 45.041464 -16.678133
L 45.989075 -16.678272
L 46.936686 -16.679212
L 47.884297 -16.68153
L 48.831909 -16.682651
L 49.77952 -16.681008
L 50.727131 -16.681595
L 51.674743 -16.688122
L 52.622354 -16.69407
L 53.569965 -16.693934
L 54.517577 -16.697691
L 55.465188 -16.705611
L 56.412799 -16.704056
L 57.36041 -16.704013
L 58.308022 -16.719541
L 59.255633 -16.740067
L 60.203244 -16.765836
L 61.150856 -16.801597
L 62.098467 -16.850667
L 63.046078 -16.927693
L 63.99369 -17.022654
L 64.941301 -17.11714
L 65.888912 -17.233468
L 66.836524 -17.403067
L 67.784135 -17.629189
L 68.731746 -17.90645
L 69.679357 -18.20083
L 70.626969 -18.516007
L 71.57458 -18.893914
L 72.522191 -19.405417
L 73.469803 -20.128948
L 74.417414 -21.001695
L 75.365025 -21.921228
L 76.312637 -22.877966
L 77.260248 -23.928171
L 78.207859 -25.183416
L 79.15547 -26.789504
L 80.103082 -28.669218
L 81.050693 -30.662585
L 81.998304 -32.800346
L 82.945916 -35.184566
L 83.893527 -37.886637
L 84.841138 -40.922431
L 85.78875 -44.358338
L 86.736361 -47.999454
L 87.683972 -51.66181
L 88.631583 -55.256321
L 89.579195 -59.038015
L 90.526806 -63.53943
L 91.474417 -68.414196
L 92.422029 -73.091131
L 93.36964 -77.533169
L 94.317251 -81.731965
L 95.264863 -85.749551
L 96.212474 -89.948374
L 97.160085 -94.340126
L 98.107696 -98.059197
L 99.055308 -100.992376
L 100.002919 -103.698135
L 100.95053 -106.250693
L 101.898142 -108.27232
L 102.845753 -109.367028
L 103.793364 -110.290864
L 104.740976 -111.223869
L 105.688587 -111.46149
L 106.636198 -111.056972
L 107.583809 -110.17266
L 108.531421 -108.30931
L 109.479032 -105.471778
L 110.426643 -102.234023
L 111.374255 -98.797852
L 112.321866 -95.506199
L 113.269477 -92.264665
L 114.217089 -88.444559
L 115.1647 -83.900996
L 116.112311 -79.394566
L 117.059923 -75.264096
L 118.007534 -71.021689
L 118.955145 -66.626215
L 119.902756 -62.298822
L 120.850368 -58.119561
L 121.797979 -54.292288
L 122.74559 -50.707384
L 123.693202 -47.170815
L 124.640813 -43.925101
L 125.588424 -40.886759
L 126.536036 -37.845798
L 127.483647 -34.937457
L 128.431258 -32.286204
L 129.378869 -30.013338
L 130.326481 -28.270616
L 131.274092 -26.81234
L 132.221703 -25.344766
L 133.169315 -23.847568
L 134.116926 -22.541496
L 135.064537 -21.585674
L 136.012149 -20.779879
L 136.95976 -20.005267
L 137.907371 -19.384536
L 138.854982 -18.932095
L 139.802594 -18.543473
L 140.750205 -18.209724
L 141.697816 -17.934513
L 142.645428 -17.654211
L 143.593039 -17.398041
L 144.54065 -17.213405
L 145.488262 -17.086322
L 146.435873 -16.995738
L 147.383484 -16.934477
L 148.331095 -16.88065
L 149.278707 -16.822041
L 150.226318 -16.783676
L 151.173929 -16.766488
L 152.121541 -16.740043
L 153.069152 -16.711859
L 154.016763 -16.698264
L 154.964375 -16.693433
L 155.911986 -16.689622
L 156.859597 -16.685991
L 157.807209 -16.684255
L 158.75482 -16.682597
L 159.702431 -16.679958
L 160.650042 -16.678927
L 161.597654 -16.680824
L 162.545265 -16.684976
L 163.492876 -16.686443
L 164.440488 -16.682947
L 165.388099 -16.679435
L 166.33571 -16.678286
L 167.283322 -16.678134
L 168.230933 -16.678125
L 169.178544 -16.678125
L 170.126155 -16.678125
L 171.073767 -16.678125
L 172.021378 -16.678125
L 172.968989 -16.678125
L 173.916601 -16.678125
L 174.864212 -16.678125
L 175.811823 -16.678125
L 176.759435 -16.678125
L 177.707046 -16.678125
L 178.654657 -16.678125
L 179.602268 -16.678125
L 180.54988 -16.678125
L 181.497491 -16.678125
L 182.445102 -16.678125
L 183.392714 -16.678125
L 184.340325 -16.678125
L 185.287936 -16.678125
L 186.235548 -16.678125
L 187.183159 -16.678125
L 188.13077 -16.678125
L 189.078381 -16.678125
L 190.025993 -16.678125
L 190.973604 -16.678125
L 191.921215 -16.678125
L 192.868827 -16.678125
L 193.816438 -16.678125
L 194.764049 -16.678125
L 195.711661 -16.678125
L 196.659272 -16.678125
L 197.606883 -16.678125
L 198.554494 -16.678125
L 199.502106 -16.678125
L 200.449717 -16.678125
L 200.449717 -16.678125
L 200.449717 -16.678125
L 199.502106 -16.678125
L 198.554494 -16.678125
L 197.606883 -16.678125
L 196.659272 -16.678125
L 195.711661 -16.678125
L 194.764049 -16.678125
L 193.816438 -16.678125
L 192.868827 -16.678125
L 191.921215 -16.678125
L 190.973604 -16.678125
L 190.025993 -16.678125
L 189.078381 -16.678125
L 188.13077 -16.678125
L 187.183159 -16.678125
L 186.235548 -16.678125
L 185.287936 -16.678125
L 184.340325 -16.678125
L 183.392714 -16.678125
L 182.445102 -16.678125
L 181.497491 -16.678125
L 180.54988 -16.678125
L 179.602268 -16.678125
L 178.654657 -16.678125
L 177.707046 -16.678125
L 176.759435 -16.678125
L 175.811823 -16.678125
L 174.864212 -16.678125
L 173.916601 -16.678125
L 172.968989 -16.678125
L 172.021378 -16.678125
L 171.073767 -16.678125
L 170.126155 -16.678125
L 169.178544 -16.678125
L 168.230933 -16.678125
L 167.283322 -16.678125
L 166.33571 -16.678125
L 165.388099 -16.678125
L 164.440488 -16.678125
L 163.492876 -16.678125
L 162.545265 -16.678125
L 161.597654 -16.678125
L 160.650042 -16.678125
L 159.702431 -16.678125
L 158.75482 -16.678125
L 157.807209 -16.678125
L 156.859597 -16.678125
L 155.911986 -16.678125
L 154.964375 -16.678125
L 154.016763 -16.678125
L 153.069152 -16.678125
L 152.121541 -16.678125
L 151.173929 -16.678125
L 150.226318 -16.678125
L 149.278707 -16.678125
L 148.331095 -16.678125
L 147.383484 -16.678125
L 146.435873 -16.678125
L 145.488262 -16.678125
L 144.54065 -16.678125
L 143.593039 -16.678125
L 142.645428 -16.678125
L 141.697816 -16.678125
L 140.750205 -16.678125
L 139.802594 -16.678125
L 138.854982 -16.678125
L 137.907371 -16.678125
L 136.95976 -16.678125
L 136.012149 -16.678125
L 135.064537 -16.678125
L 134.116926 -16.678125
L 133.169315 -16.678125
L 132.221703 -16.678125
L 131.274092 -16.678125
L 130.326481 -16.678125
L 129.378869 -16.678125
L 128.431258 -16.678125
L 127.483647 -16.678125
L 126.536036 -16.678125
L 125.588424 -16.678125
L 124.640813 -16.678125
L 123.693202 -16.678125
L 122.74559 -16.678125
L 121.797979 -16.678125
L 120.850368 -16.678125
L 119.902756 -16.678125
L 118.955145 -16.678125
L 118.007534 -16.678125
L 117.059923 -16.678125
L 116.112311 -16.678125
L 115.1647 -16.678125
L 114.217089 -16.678125
L 113.269477 -16.678125
L 112.321866 -16.678125
L 111.374255 -16.678125
L 110.426643 -16.678125
L 109.479032 -16.678125
L 108.531421 -16.678125
L 107.583809 -16.678125
L 106.636198 -16.678125
L 105.688587 -16.678125
L 104.740976 -16.678125
L 103.793364 -16.678125
L 102.845753 -16.678125
L 101.898142 -16.678125
L 100.95053 -16.678125
L 100.002919 -16.678125
L 99.055308 -16.678125
L 98.107696 -16.678125
L 97.160085 -16.678125
L 96.212474 -16.678125
L 95.264863 -16.678125
L 94.317251 -16.678125
L 93.36964 -16.678125
L 92.422029 -16.678125
L 91.474417 -16.678125
L 90.526806 -16.678125
L 89.579195 -16.678125
L 88.631583 -16.678125
L 87.683972 -16.678125
L 86.736361 -16.678125
L 85.78875 -16.678125
L 84.841138 -16.678125
L 83.893527 -16.678125
L 82.945916 -16.678125
L 81.998304 -16.678125
L 81.050693 -16.678125
L 80.103082 -16.678125
L 79.15547 -16.678125
L 78.207859 -16.678125
L 77.260248 -16.678125
L 76.312637 -16.678125
L 75.365025 -16.678125
L 74.417414 -16.678125
L 73.469803 -16.678125
L 72.522191 -16.678125
L 71.57458 -16.678125
L 70.626969 -16.678125
L 69.679357 -16.678125
L 68.731746 -16.678125
L 67.784135 -16.678125
L 66.836524 -16.678125
L 65.888912 -16.678125
L 64.941301 -16.678125
L 63.99369 -16.678125
L 63.046078 -16.678125
L 62.098467 -16.678125
L 61.150856 -16.678125
L 60.203244 -16.678125
L 59.255633 -16.678125
L 58.308022 -16.678125
L 57.36041 -16.678125
L 56.412799 -16.678125
L 55.465188 -16.678125
L 54.517577 -16.678125
L 53.569965 -16.678125
L 52.622354 -16.678125
L 51.674743 -16.678125
L 50.727131 -16.678125
L 49.77952 -16.678125
L 48.831909 -16.678125
L 47.884297 -16.678125
L 46.936686 -16.678125
L 45.989075 -16.678125
L 45.041464 -16.678125
L 44.093852 -16.678125
L 43.146241 -16.678125
L 42.19863 -16.678125
L 41.251018 -16.678125
L 40.303407 -16.678125
L 39.355796 -16.678125
L 38.408184 -16.678125
L 37.460573 -16.678125
L 36.512962 -16.678125
L 35.565351 -16.678125
L 34.617739 -16.678125
L 33.670128 -16.678125
L 32.722517 -16.678125
L 31.774905 -16.678125
L 30.827294 -16.678125
L 29.879683 -16.678125
L 28.932071 -16.678125
L 27.98446 -16.678125
L 27.036849 -16.678125
L 26.089238 -16.678125
L 25.141626 -16.678125
L 24.194015 -16.678125
L 23.246404 -16.678125
L 22.298792 -16.678125
L 21.351181 -16.678125
L 20.40357 -16.678125
L 19.455958 -16.678125
L 18.508347 -16.678125
L 17.560736 -16.678125
L 16.613125 -16.678125
L 15.665513 -16.678125
L 14.717902 -16.678125
L 13.770291 -16.678125
L 12.822679 -16.678125
L 11.875068 -16.678125
z
" style="stroke: #ff7f0e; stroke-opacity: 0.5"/>
    </defs>
    <g clip-path="url(#p27b3275a41)">
     <use xlink:href="#mb23ff3dfae" x="0" y="121.998125" style="fill: #ff7f0e; fill-opacity: 0.5; stroke: #ff7f0e; stroke-opacity: 0.5"/>
    </g>
   </g>
   <g id="matplotlib.axis_1">
    <g id="xtick_1">
     <g id="line2d_1">
      <defs>
       <path id="m315623ce5f" d="M 0 0
L 0 3.5
" style="stroke: #000000; stroke-width: 0.8"/>
      </defs>
      <g>
       <use xlink:href="#m315623ce5f" x="29.318589" y="105.32" style="stroke: #000000; stroke-width: 0.8"/>
      </g>
     </g>
     <g id="text_1">
      <!-- 0.3 -->
      <g transform="translate(21.367026 119.918437) scale(0.1 -0.1)">
       <defs>
        <path id="DejaVuSans-30" d="M 2034 4250
Q 1547 4250 1301 3770
Q 1056 3291 1056 2328
Q 1056 1369 1301 889
Q 1547 409 2034 409
Q 2525 409 2770 889
Q 3016 1369 3016 2328
Q 3016 3291 2770 3770
Q 2525 4250 2034 4250
z
M 2034 4750
Q 2819 4750 3233 4129
Q 3647 3509 3647 2328
Q 3647 1150 3233 529
Q 2819 -91 2034 -91
Q 1250 -91 836 529
Q 422 1150 422 2328
Q 422 3509 836 4129
Q 1250 4750 2034 4750
z
" transform="scale(0.015625)"/>
        <path id="DejaVuSans-2e" d="M 684 794
L 1344 794
L 1344 0
L 684 0
L 684 794
z
" transform="scale(0.015625)"/>
        <path id="DejaVuSans-33" d="M 2597 2516
Q 3050 2419 3304 2112
Q 3559 1806 3559 1356
Q 3559 666 3084 287
Q 2609 -91 1734 -91
Q 1441 -91 1130 -33
Q 819 25 488 141
L 488 750
Q 750 597 1062 519
Q 1375 441 1716 441
Q 2309 441 2620 675
Q 2931 909 2931 1356
Q 2931 1769 2642 2001
Q 2353 2234 1838 2234
L 1294 2234
L 1294 2753
L 1863 2753
Q 2328 2753 2575 2939
Q 2822 3125 2822 3475
Q 2822 3834 2567 4026
Q 2313 4219 1838 4219
Q 1578 4219 1281 4162
Q 984 4106 628 3988
L 628 4550
Q 988 4650 1302 4700
Q 1616 4750 1894 4750
Q 2613 4750 3031 4423
Q 3450 4097 3450 3541
Q 3450 3153 3228 2886
Q 3006 2619 2597 2516
z
" transform="scale(0.015625)"/>
       </defs>
       <use xlink:href="#DejaVuSans-30"/>
       <use xlink:href="#DejaVuSans-2e" transform="translate(63.623047 0)"/>
       <use xlink:href="#DejaVuSans-33" transform="translate(95.410156 0)"/>
      </g>
     </g>
    </g>
    <g id="xtick_2">
     <g id="line2d_2">
      <g>
       <use xlink:href="#m315623ce5f" x="67.433409" y="105.32" style="stroke: #000000; stroke-width: 0.8"/>
      </g>
     </g>
     <g id="text_2">
      <!-- 0.4 -->
      <g transform="translate(59.481847 119.918437) scale(0.1 -0.1)">
       <defs>
        <path id="DejaVuSans-34" d="M 2419 4116
L 825 1625
L 2419 1625
L 2419 4116
z
M 2253 4666
L 3047 4666
L 3047 1625
L 3713 1625
L 3713 1100
L 3047 1100
L 3047 0
L 2419 0
L 2419 1100
L 313 1100
L 313 1709
L 2253 4666
z
" transform="scale(0.015625)"/>
       </defs>
       <use xlink:href="#DejaVuSans-30"/>
       <use xlink:href="#DejaVuSans-2e" transform="translate(63.623047 0)"/>
       <use xlink:href="#DejaVuSans-34" transform="translate(95.410156 0)"/>
      </g>
     </g>
    </g>
    <g id="xtick_3">
     <g id="line2d_3">
      <g>
       <use xlink:href="#m315623ce5f" x="105.548229" y="105.32" style="stroke: #000000; stroke-width: 0.8"/>
      </g>
     </g>
     <g id="text_3">
      <!-- 0.5 -->
      <g transform="translate(97.596667 119.918437) scale(0.1 -0.1)">
       <defs>
        <path id="DejaVuSans-35" d="M 691 4666
L 3169 4666
L 3169 4134
L 1269 4134
L 1269 2991
Q 1406 3038 1543 3061
Q 1681 3084 1819 3084
Q 2600 3084 3056 2656
Q 3513 2228 3513 1497
Q 3513 744 3044 326
Q 2575 -91 1722 -91
Q 1428 -91 1123 -41
Q 819 9 494 109
L 494 744
Q 775 591 1075 516
Q 1375 441 1709 441
Q 2250 441 2565 725
Q 2881 1009 2881 1497
Q 2881 1984 2565 2268
Q 2250 2553 1709 2553
Q 1456 2553 1204 2497
Q 953 2441 691 2322
L 691 4666
z
" transform="scale(0.015625)"/>
       </defs>
       <use xlink:href="#DejaVuSans-30"/>
       <use xlink:href="#DejaVuSans-2e" transform="translate(63.623047 0)"/>
       <use xlink:href="#DejaVuSans-35" transform="translate(95.410156 0)"/>
      </g>
     </g>
    </g>
    <g id="xtick_4">
     <g id="line2d_4">
      <g>
       <use xlink:href="#m315623ce5f" x="143.66305" y="105.32" style="stroke: #000000; stroke-width: 0.8"/>
      </g>
     </g>
     <g id="text_4">
      <!-- 0.6 -->
      <g transform="translate(135.711487 119.918437) scale(0.1 -0.1)">
       <defs>
        <path id="DejaVuSans-36" d="M 2113 2584
Q 1688 2584 1439 2293
Q 1191 2003 1191 1497
Q 1191 994 1439 701
Q 1688 409 2113 409
Q 2538 409 2786 701
Q 3034 994 3034 1497
Q 3034 2003 2786 2293
Q 2538 2584 2113 2584
z
M 3366 4563
L 3366 3988
Q 3128 4100 2886 4159
Q 2644 4219 2406 4219
Q 1781 4219 1451 3797
Q 1122 3375 1075 2522
Q 1259 2794 1537 2939
Q 1816 3084 2150 3084
Q 2853 3084 3261 2657
Q 3669 2231 3669 1497
Q 3669 778 3244 343
Q 2819 -91 2113 -91
Q 1303 -91 875 529
Q 447 1150 447 2328
Q 447 3434 972 4092
Q 1497 4750 2381 4750
Q 2619 4750 2861 4703
Q 3103 4656 3366 4563
z
" transform="scale(0.015625)"/>
       </defs>
       <use xlink:href="#DejaVuSans-30"/>
       <use xlink:href="#DejaVuSans-2e" transform="translate(63.623047 0)"/>
       <use xlink:href="#DejaVuSans-36" transform="translate(95.410156 0)"/>
      </g>
     </g>
    </g>
    <g id="xtick_5">
     <g id="line2d_5">
      <g>
       <use xlink:href="#m315623ce5f" x="181.77787" y="105.32" style="stroke: #000000; stroke-width: 0.8"/>
      </g>
     </g>
     <g id="text_5">
      <!-- 0.7 -->
      <g transform="translate(173.826308 119.918437) scale(0.1 -0.1)">
       <defs>
        <path id="DejaVuSans-37" d="M 525 4666
L 3525 4666
L 3525 4397
L 1831 0
L 1172 0
L 2766 4134
L 525 4134
L 525 4666
z
" transform="scale(0.015625)"/>
       </defs>
       <use xlink:href="#DejaVuSans-30"/>
       <use xlink:href="#DejaVuSans-2e" transform="translate(63.623047 0)"/>
       <use xlink:href="#DejaVuSans-37" transform="translate(95.410156 0)"/>
      </g>
     </g>
    </g>
    <g id="xtick_6">
     <g id="line2d_6">
      <g>
       <use xlink:href="#m315623ce5f" x="219.892691" y="105.32" style="stroke: #000000; stroke-width: 0.8"/>
      </g>
     </g>
     <g id="text_6">
      <!-- 0.8 -->
      <g transform="translate(211.941128 119.918437) scale(0.1 -0.1)">
       <defs>
        <path id="DejaVuSans-38" d="M 2034 2216
Q 1584 2216 1326 1975
Q 1069 1734 1069 1313
Q 1069 891 1326 650
Q 1584 409 2034 409
Q 2484 409 2743 651
Q 3003 894 3003 1313
Q 3003 1734 2745 1975
Q 2488 2216 2034 2216
z
M 1403 2484
Q 997 2584 770 2862
Q 544 3141 544 3541
Q 544 4100 942 4425
Q 1341 4750 2034 4750
Q 2731 4750 3128 4425
Q 3525 4100 3525 3541
Q 3525 3141 3298 2862
Q 3072 2584 2669 2484
Q 3125 2378 3379 2068
Q 3634 1759 3634 1313
Q 3634 634 3220 271
Q 2806 -91 2034 -91
Q 1263 -91 848 271
Q 434 634 434 1313
Q 434 1759 690 2068
Q 947 2378 1403 2484
z
M 1172 3481
Q 1172 3119 1398 2916
Q 1625 2713 2034 2713
Q 2441 2713 2670 2916
Q 2900 3119 2900 3481
Q 2900 3844 2670 4047
Q 2441 4250 2034 4250
Q 1625 4250 1398 4047
Q 1172 3844 1172 3481
z
" transform="scale(0.015625)"/>
       </defs>
       <use xlink:href="#DejaVuSans-30"/>
       <use xlink:href="#DejaVuSans-2e" transform="translate(63.623047 0)"/>
       <use xlink:href="#DejaVuSans-38" transform="translate(95.410156 0)"/>
      </g>
     </g>
    </g>
    <g id="xtick_7">
     <g id="line2d_7">
      <g>
       <use xlink:href="#m315623ce5f" x="258.007511" y="105.32" style="stroke: #000000; stroke-width: 0.8"/>
      </g>
     </g>
     <g id="text_7">
      <!-- 0.9 -->
      <g transform="translate(250.055948 119.918437) scale(0.1 -0.1)">
       <defs>
        <path id="DejaVuSans-39" d="M 703 97
L 703 672
Q 941 559 1184 500
Q 1428 441 1663 441
Q 2288 441 2617 861
Q 2947 1281 2994 2138
Q 2813 1869 2534 1725
Q 2256 1581 1919 1581
Q 1219 1581 811 2004
Q 403 2428 403 3163
Q 403 3881 828 4315
Q 1253 4750 1959 4750
Q 2769 4750 3195 4129
Q 3622 3509 3622 2328
Q 3622 1225 3098 567
Q 2575 -91 1691 -91
Q 1453 -91 1209 -44
Q 966 3 703 97
z
M 1959 2075
Q 2384 2075 2632 2365
Q 2881 2656 2881 3163
Q 2881 3666 2632 3958
Q 2384 4250 1959 4250
Q 1534 4250 1286 3958
Q 1038 3666 1038 3163
Q 1038 2656 1286 2365
Q 1534 2075 1959 2075
z
" transform="scale(0.015625)"/>
       </defs>
       <use xlink:href="#DejaVuSans-30"/>
       <use xlink:href="#DejaVuSans-2e" transform="translate(63.623047 0)"/>
       <use xlink:href="#DejaVuSans-39" transform="translate(95.410156 0)"/>
      </g>
     </g>
    </g>
   </g>
   <g id="matplotlib.axis_2"/>
   <g id="line2d_8">
    <path d="M 77.706282 105.32
L 124.290141 105.211929
L 127.740797 105.042317
L 130.328789 104.772424
L 132.916781 104.136605
L 135.504773 103.26024
L 137.230101 102.470954
L 138.092765 101.86839
L 139.818093 100.173705
L 142.406086 97.205865
L 143.26875 95.83983
L 144.994078 92.504925
L 146.719406 88.491621
L 148.444734 83.807353
L 149.307398 81.110028
L 151.032726 74.576065
L 155.346046 55.150297
L 157.071374 45.493625
L 158.796703 37.571056
L 161.384695 26.189412
L 162.247359 21.664523
L 163.110023 17.843409
L 164.835351 12.059679
L 165.698015 9.629056
L 166.560679 7.811893
L 167.423343 6.42886
L 168.286007 5.510648
L 169.148671 5.056775
L 170.011335 5.015238
L 170.873999 5.639872
L 171.736663 7.04059
L 172.599327 8.963237
L 173.461991 11.314832
L 175.187319 17.05596
L 176.912648 24.531915
L 178.637976 33.5143
L 180.363304 43.67763
L 183.81396 60.391899
L 186.401952 73.400652
L 187.264616 77.049569
L 188.989944 82.904874
L 190.715272 88.608013
L 192.4406 93.171345
L 193.303265 95.12962
L 194.165929 96.797453
L 195.028593 98.165326
L 196.753921 100.281547
L 198.479249 102.014181
L 200.204577 103.217161
L 201.929905 104.141989
L 203.655233 104.66131
L 207.968553 105.117838
L 219.183186 105.32
L 249.376428 105.32
L 249.376428 105.32
" clip-path="url(#p27b3275a41)" style="fill: none; stroke: #1f77b4; stroke-width: 1.5; stroke-linecap: square"/>
   </g>
   <g id="line2d_9">
    <path d="M 11.875068 105.32
L 60.203244 105.232289
L 63.046078 105.070432
L 66.836524 104.595058
L 68.731746 104.091675
L 71.57458 103.104211
L 72.522191 102.592708
L 73.469803 101.869177
L 76.312637 99.120159
L 77.260248 98.069954
L 78.207859 96.814709
L 79.15547 95.208621
L 81.050693 91.33554
L 82.945916 86.813559
L 84.841138 81.075694
L 86.736361 73.998671
L 89.579195 62.96011
L 91.474417 53.583929
L 93.36964 44.464956
L 98.107696 23.938928
L 100.002919 18.29999
L 100.95053 15.747432
L 101.898142 13.725805
L 102.845753 12.631097
L 104.740976 10.774256
L 105.688587 10.536635
L 106.636198 10.941153
L 107.583809 11.825465
L 108.531421 13.688815
L 109.479032 16.526347
L 113.269477 29.73346
L 114.217089 33.553566
L 117.059923 46.734029
L 121.797979 67.705837
L 124.640813 78.073024
L 127.483647 87.060668
L 128.431258 89.711921
L 129.378869 91.984787
L 130.326481 93.727509
L 134.116926 99.456629
L 136.012149 101.218246
L 136.95976 101.992858
L 137.907371 102.613589
L 139.802594 103.454652
L 142.645428 104.343914
L 144.54065 104.78472
L 147.383484 105.063648
L 153.069152 105.286266
L 162.545265 105.313149
L 200.449717 105.32
L 200.449717 105.32
" clip-path="url(#p27b3275a41)" style="fill: none; stroke: #ff7f0e; stroke-width: 1.5; stroke-linecap: square"/>
   </g>
   <g id="patch_3">
    <path d="M 0 105.32
L 261.251496 105.32
" style="fill: none; stroke: #000000; stroke-width: 0.8; stroke-linejoin: miter; stroke-linecap: square"/>
   </g>
   <g id="text_8">
    <!-- Random -->
    <g transform="translate(29.318589 20.730057) scale(0.12 -0.12)">
     <defs>
      <path id="DejaVuSans-52" d="M 2841 2188
Q 3044 2119 3236 1894
Q 3428 1669 3622 1275
L 4263 0
L 3584 0
L 2988 1197
Q 2756 1666 2539 1819
Q 2322 1972 1947 1972
L 1259 1972
L 1259 0
L 628 0
L 628 4666
L 2053 4666
Q 2853 4666 3247 4331
Q 3641 3997 3641 3322
Q 3641 2881 3436 2590
Q 3231 2300 2841 2188
z
M 1259 4147
L 1259 2491
L 2053 2491
Q 2509 2491 2742 2702
Q 2975 2913 2975 3322
Q 2975 3731 2742 3939
Q 2509 4147 2053 4147
L 1259 4147
z
" transform="scale(0.015625)"/>
      <path id="DejaVuSans-61" d="M 2194 1759
Q 1497 1759 1228 1600
Q 959 1441 959 1056
Q 959 750 1161 570
Q 1363 391 1709 391
Q 2188 391 2477 730
Q 2766 1069 2766 1631
L 2766 1759
L 2194 1759
z
M 3341 1997
L 3341 0
L 2766 0
L 2766 531
Q 2569 213 2275 61
Q 1981 -91 1556 -91
Q 1019 -91 701 211
Q 384 513 384 1019
Q 384 1609 779 1909
Q 1175 2209 1959 2209
L 2766 2209
L 2766 2266
Q 2766 2663 2505 2880
Q 2244 3097 1772 3097
Q 1472 3097 1187 3025
Q 903 2953 641 2809
L 641 3341
Q 956 3463 1253 3523
Q 1550 3584 1831 3584
Q 2591 3584 2966 3190
Q 3341 2797 3341 1997
z
" transform="scale(0.015625)"/>
      <path id="DejaVuSans-6e" d="M 3513 2113
L 3513 0
L 2938 0
L 2938 2094
Q 2938 2591 2744 2837
Q 2550 3084 2163 3084
Q 1697 3084 1428 2787
Q 1159 2491 1159 1978
L 1159 0
L 581 0
L 581 3500
L 1159 3500
L 1159 2956
Q 1366 3272 1645 3428
Q 1925 3584 2291 3584
Q 2894 3584 3203 3211
Q 3513 2838 3513 2113
z
" transform="scale(0.015625)"/>
      <path id="DejaVuSans-64" d="M 2906 2969
L 2906 4863
L 3481 4863
L 3481 0
L 2906 0
L 2906 525
Q 2725 213 2448 61
Q 2172 -91 1784 -91
Q 1150 -91 751 415
Q 353 922 353 1747
Q 353 2572 751 3078
Q 1150 3584 1784 3584
Q 2172 3584 2448 3432
Q 2725 3281 2906 2969
z
M 947 1747
Q 947 1113 1208 752
Q 1469 391 1925 391
Q 2381 391 2643 752
Q 2906 1113 2906 1747
Q 2906 2381 2643 2742
Q 2381 3103 1925 3103
Q 1469 3103 1208 2742
Q 947 2381 947 1747
z
" transform="scale(0.015625)"/>
      <path id="DejaVuSans-6f" d="M 1959 3097
Q 1497 3097 1228 2736
Q 959 2375 959 1747
Q 959 1119 1226 758
Q 1494 397 1959 397
Q 2419 397 2687 759
Q 2956 1122 2956 1747
Q 2956 2369 2687 2733
Q 2419 3097 1959 3097
z
M 1959 3584
Q 2709 3584 3137 3096
Q 3566 2609 3566 1747
Q 3566 888 3137 398
Q 2709 -91 1959 -91
Q 1206 -91 779 398
Q 353 888 353 1747
Q 353 2609 779 3096
Q 1206 3584 1959 3584
z
" transform="scale(0.015625)"/>
      <path id="DejaVuSans-6d" d="M 3328 2828
Q 3544 3216 3844 3400
Q 4144 3584 4550 3584
Q 5097 3584 5394 3201
Q 5691 2819 5691 2113
L 5691 0
L 5113 0
L 5113 2094
Q 5113 2597 4934 2840
Q 4756 3084 4391 3084
Q 3944 3084 3684 2787
Q 3425 2491 3425 1978
L 3425 0
L 2847 0
L 2847 2094
Q 2847 2600 2669 2842
Q 2491 3084 2119 3084
Q 1678 3084 1418 2786
Q 1159 2488 1159 1978
L 1159 0
L 581 0
L 581 3500
L 1159 3500
L 1159 2956
Q 1356 3278 1631 3431
Q 1906 3584 2284 3584
Q 2666 3584 2933 3390
Q 3200 3197 3328 2828
z
" transform="scale(0.015625)"/>
     </defs>
     <use xlink:href="#DejaVuSans-52"/>
     <use xlink:href="#DejaVuSans-61" transform="translate(67.232422 0)"/>
     <use xlink:href="#DejaVuSans-6e" transform="translate(128.511719 0)"/>
     <use xlink:href="#DejaVuSans-64" transform="translate(191.890625 0)"/>
     <use xlink:href="#DejaVuSans-6f" transform="translate(255.367188 0)"/>
     <use xlink:href="#DejaVuSans-6d" transform="translate(316.548828 0)"/>
    </g>
    <!-- $\binom{60~~60}{60~~60}$ -->
    <g transform="translate(29.318589 36.329682) scale(0.12 -0.12)">
     <defs>
      <path id="STIXSizeOneSym-Regular-28" d="M 2445 -858
L 2445 -1050
Q 1728 -371 1309 630
Q 890 1632 890 2886
Q 890 4122 1309 5136
Q 1728 6150 2445 6822
L 2445 6630
Q 1408 5363 1408 2886
Q 1408 410 2445 -858
z
" transform="scale(0.015625)"/>
      <path id="STIXSizeOneSym-Regular-29" d="M 550 6630
L 550 6822
Q 1267 6144 1686 5142
Q 2106 4141 2106 2886
Q 2106 1651 1686 636
Q 1267 -378 550 -1050
L 550 -858
Q 1587 410 1587 2886
Q 1587 5363 550 6630
z
" transform="scale(0.015625)"/>
     </defs>
     <use xlink:href="#STIXSizeOneSym-Regular-28" transform="translate(0 -22.50625) scale(1.064202)"/>
     <use xlink:href="#DejaVuSans-36" transform="translate(49.783493 39.046875) scale(0.7)"/>
     <use xlink:href="#DejaVuSans-30" transform="translate(94.319626 39.046875) scale(0.7)"/>
     <use xlink:href="#DejaVuSans-36" transform="translate(184.314288 39.046875) scale(0.7)"/>
     <use xlink:href="#DejaVuSans-30" transform="translate(228.850421 39.046875) scale(0.7)"/>
     <use xlink:href="#DejaVuSans-36" transform="translate(49.783493 -38.901563) scale(0.7)"/>
     <use xlink:href="#DejaVuSans-30" transform="translate(94.319626 -38.901563) scale(0.7)"/>
     <use xlink:href="#DejaVuSans-36" transform="translate(184.314288 -38.901563) scale(0.7)"/>
     <use xlink:href="#DejaVuSans-30" transform="translate(228.850421 -38.901563) scale(0.7)"/>
     <use xlink:href="#STIXSizeOneSym-Regular-29" transform="translate(285.886554 -22.50625) scale(1.064202)"/>
    </g>
   </g>
   <g id="text_9">
    <!-- Classifier -->
    <g transform="translate(200.83528 20.730057) scale(0.12 -0.12)">
     <defs>
      <path id="DejaVuSans-43" d="M 4122 4306
L 4122 3641
Q 3803 3938 3442 4084
Q 3081 4231 2675 4231
Q 1875 4231 1450 3742
Q 1025 3253 1025 2328
Q 1025 1406 1450 917
Q 1875 428 2675 428
Q 3081 428 3442 575
Q 3803 722 4122 1019
L 4122 359
Q 3791 134 3420 21
Q 3050 -91 2638 -91
Q 1578 -91 968 557
Q 359 1206 359 2328
Q 359 3453 968 4101
Q 1578 4750 2638 4750
Q 3056 4750 3426 4639
Q 3797 4528 4122 4306
z
" transform="scale(0.015625)"/>
      <path id="DejaVuSans-6c" d="M 603 4863
L 1178 4863
L 1178 0
L 603 0
L 603 4863
z
" transform="scale(0.015625)"/>
      <path id="DejaVuSans-73" d="M 2834 3397
L 2834 2853
Q 2591 2978 2328 3040
Q 2066 3103 1784 3103
Q 1356 3103 1142 2972
Q 928 2841 928 2578
Q 928 2378 1081 2264
Q 1234 2150 1697 2047
L 1894 2003
Q 2506 1872 2764 1633
Q 3022 1394 3022 966
Q 3022 478 2636 193
Q 2250 -91 1575 -91
Q 1294 -91 989 -36
Q 684 19 347 128
L 347 722
Q 666 556 975 473
Q 1284 391 1588 391
Q 1994 391 2212 530
Q 2431 669 2431 922
Q 2431 1156 2273 1281
Q 2116 1406 1581 1522
L 1381 1569
Q 847 1681 609 1914
Q 372 2147 372 2553
Q 372 3047 722 3315
Q 1072 3584 1716 3584
Q 2034 3584 2315 3537
Q 2597 3491 2834 3397
z
" transform="scale(0.015625)"/>
      <path id="DejaVuSans-69" d="M 603 3500
L 1178 3500
L 1178 0
L 603 0
L 603 3500
z
M 603 4863
L 1178 4863
L 1178 4134
L 603 4134
L 603 4863
z
" transform="scale(0.015625)"/>
      <path id="DejaVuSans-66" d="M 2375 4863
L 2375 4384
L 1825 4384
Q 1516 4384 1395 4259
Q 1275 4134 1275 3809
L 1275 3500
L 2222 3500
L 2222 3053
L 1275 3053
L 1275 0
L 697 0
L 697 3053
L 147 3053
L 147 3500
L 697 3500
L 697 3744
Q 697 4328 969 4595
Q 1241 4863 1831 4863
L 2375 4863
z
" transform="scale(0.015625)"/>
      <path id="DejaVuSans-65" d="M 3597 1894
L 3597 1613
L 953 1613
Q 991 1019 1311 708
Q 1631 397 2203 397
Q 2534 397 2845 478
Q 3156 559 3463 722
L 3463 178
Q 3153 47 2828 -22
Q 2503 -91 2169 -91
Q 1331 -91 842 396
Q 353 884 353 1716
Q 353 2575 817 3079
Q 1281 3584 2069 3584
Q 2775 3584 3186 3129
Q 3597 2675 3597 1894
z
M 3022 2063
Q 3016 2534 2758 2815
Q 2500 3097 2075 3097
Q 1594 3097 1305 2825
Q 1016 2553 972 2059
L 3022 2063
z
" transform="scale(0.015625)"/>
      <path id="DejaVuSans-72" d="M 2631 2963
Q 2534 3019 2420 3045
Q 2306 3072 2169 3072
Q 1681 3072 1420 2755
Q 1159 2438 1159 1844
L 1159 0
L 581 0
L 581 3500
L 1159 3500
L 1159 2956
Q 1341 3275 1631 3429
Q 1922 3584 2338 3584
Q 2397 3584 2469 3576
Q 2541 3569 2628 3553
L 2631 2963
z
" transform="scale(0.015625)"/>
     </defs>
     <use xlink:href="#DejaVuSans-43"/>
     <use xlink:href="#DejaVuSans-6c" transform="translate(69.824219 0)"/>
     <use xlink:href="#DejaVuSans-61" transform="translate(97.607422 0)"/>
     <use xlink:href="#DejaVuSans-73" transform="translate(158.886719 0)"/>
     <use xlink:href="#DejaVuSans-73" transform="translate(210.986328 0)"/>
     <use xlink:href="#DejaVuSans-69" transform="translate(263.085938 0)"/>
     <use xlink:href="#DejaVuSans-66" transform="translate(290.869141 0)"/>
     <use xlink:href="#DejaVuSans-69" transform="translate(326.074219 0)"/>
     <use xlink:href="#DejaVuSans-65" transform="translate(353.857422 0)"/>
     <use xlink:href="#DejaVuSans-72" transform="translate(415.380859 0)"/>
    </g>
    <!-- $\binom{80~~40}{40~~80}$ -->
    <g transform="translate(200.83528 36.329682) scale(0.12 -0.12)">
     <use xlink:href="#STIXSizeOneSym-Regular-28" transform="translate(0 -22.50625) scale(1.064202)"/>
     <use xlink:href="#DejaVuSans-38" transform="translate(49.783493 39.046875) scale(0.7)"/>
     <use xlink:href="#DejaVuSans-30" transform="translate(94.319626 39.046875) scale(0.7)"/>
     <use xlink:href="#DejaVuSans-34" transform="translate(184.314288 39.046875) scale(0.7)"/>
     <use xlink:href="#DejaVuSans-30" transform="translate(228.850421 39.046875) scale(0.7)"/>
     <use xlink:href="#DejaVuSans-34" transform="translate(49.783493 -38.901563) scale(0.7)"/>
     <use xlink:href="#DejaVuSans-30" transform="translate(94.319626 -38.901563) scale(0.7)"/>
     <use xlink:href="#DejaVuSans-38" transform="translate(184.314288 -38.901563) scale(0.7)"/>
     <use xlink:href="#DejaVuSans-30" transform="translate(228.850421 -38.901563) scale(0.7)"/>
     <use xlink:href="#STIXSizeOneSym-Regular-29" transform="translate(285.886554 -22.50625) scale(1.064202)"/>
    </g>
   </g>
  </g>
 </g>
 <defs>
  <clipPath id="p27b3275a41">
   <rect x="0" y="-0" width="261.251496" height="105.32"/>
  </clipPath>
 </defs>
</svg>
