<?xml version="1.0" encoding="UTF-8" standalone="no"?>
<!DOCTYPE svg PUBLIC "-//W3C//DTD SVG 1.1//EN" "http://www.w3.org/Graphics/SVG/1.1/DTD/svg11.dtd">
<svg width="50%" height="50%" viewBox="0 0 634 600" version="1.1" xmlns="http://www.w3.org/2000/svg" xmlns:xlink="http://www.w3.org/1999/xlink" xml:space="preserve" xmlns:serif="http://www.serif.com/" style="fill-rule:evenodd;clip-rule:evenodd;stroke-linejoin:round;stroke-miterlimit:2;">
    <g>
        <g transform="matrix(1,0,0,1.23236,0,24.0003)">
            <rect x="-233.312" y="-103.291" width="964.875" height="579.731" style="fill:white;"/>
        </g>
        <g transform="matrix(1,0,0,1,-157.607,14.1605)">
            <path d="M190.266,512.454L190.266,429.238L226.778,429.238C229.616,429.238 232.528,429.555 235.514,430.19C238.501,430.825 241.245,432.131 243.746,434.11C246.248,436.089 248.264,439.075 249.794,443.07C251.325,447.065 252.09,452.385 252.09,459.03C252.09,465.75 251.344,471.145 249.85,475.214C248.357,479.283 246.416,482.345 244.026,484.398C241.637,486.451 239.042,487.833 236.242,488.542C233.442,489.251 230.698,489.606 228.01,489.606C226.592,489.606 225.117,489.531 223.586,489.382C222.056,489.233 220.562,489.027 219.106,488.766C217.65,488.505 216.306,488.243 215.074,487.982C213.842,487.721 212.816,487.515 211.994,487.366L211.994,512.454L190.266,512.454ZM211.994,470.118L224.538,470.118C226.032,470.118 227.208,469.707 228.066,468.886C228.925,468.065 229.522,466.851 229.858,465.246C230.194,463.641 230.362,461.643 230.362,459.254C230.362,456.939 230.157,454.998 229.746,453.43C229.336,451.862 228.72,450.686 227.898,449.902C227.077,449.118 225.957,448.726 224.538,448.726L211.994,448.726L211.994,470.118Z" style="fill:rgb(3,20,38);fill-rule:nonzero;"/>
            <path d="M293.754,513.014C289.2,513.014 284.888,512.641 280.818,511.894C276.749,511.147 273.146,509.766 270.01,507.75C266.874,505.734 264.429,502.897 262.674,499.238C260.92,495.579 260.042,490.838 260.042,485.014L260.042,429.238L281.77,429.238L281.77,484.902C281.77,486.843 282.237,488.449 283.17,489.718C284.104,490.987 285.466,491.939 287.258,492.574C289.05,493.209 291.216,493.526 293.754,493.526C296.293,493.526 298.458,493.209 300.25,492.574C302.042,491.939 303.405,490.987 304.338,489.718C305.272,488.449 305.738,486.843 305.738,484.902L305.738,429.238L327.466,429.238L327.466,485.014C327.466,490.838 326.589,495.579 324.834,499.238C323.08,502.897 320.634,505.734 317.498,507.75C314.362,509.766 310.778,511.147 306.746,511.894C302.714,512.641 298.384,513.014 293.754,513.014Z" style="fill:rgb(3,20,38);fill-rule:nonzero;"/>
            <path d="M338.666,512.454L338.666,429.238L373.162,429.238C382.122,429.238 388.562,431.217 392.482,435.174C396.402,439.131 398.362,444.545 398.362,451.414C398.362,454.625 397.933,457.443 397.074,459.87C396.216,462.297 394.946,464.313 393.266,465.918C391.586,467.523 389.477,468.625 386.938,469.222C388.88,469.745 390.709,470.529 392.426,471.574C394.144,472.619 395.637,474.001 396.906,475.718C398.176,477.435 399.165,479.451 399.874,481.766C400.584,484.081 400.938,486.694 400.938,489.606C400.938,495.057 399.968,499.462 398.026,502.822C396.085,506.182 393.173,508.627 389.29,510.158C385.408,511.689 380.592,512.454 374.842,512.454L338.666,512.454ZM360.394,492.966L374.17,492.966C375.514,492.966 376.634,492.667 377.53,492.07C378.426,491.473 379.117,490.633 379.602,489.55C380.088,488.467 380.33,487.179 380.33,485.686C380.33,484.193 380.088,482.905 379.602,481.822C379.117,480.739 378.426,479.899 377.53,479.302C376.634,478.705 375.514,478.406 374.17,478.406L360.394,478.406L360.394,492.966ZM360.394,461.942L372.938,461.942C374.581,461.942 375.794,461.307 376.578,460.038C377.362,458.769 377.754,457.201 377.754,455.334C377.754,452.795 377.25,451.059 376.242,450.126C375.234,449.193 374.133,448.726 372.938,448.726L360.394,448.726L360.394,461.942Z" style="fill:rgb(3,20,38);fill-rule:nonzero;"/>
            <path d="M433.53,513.014C428.378,513.014 424.178,511.913 420.93,509.71C417.682,507.507 415.162,504.483 413.37,500.638C411.578,496.793 410.328,492.331 409.618,487.254C408.909,482.177 408.554,476.763 408.554,471.014C408.554,464.593 408.984,458.769 409.842,453.542C410.701,448.315 412.269,443.835 414.546,440.102C416.824,436.369 420.09,433.494 424.346,431.478C428.602,429.462 434.128,428.454 440.922,428.454C445.328,428.454 449.117,428.622 452.29,428.958C455.464,429.294 458.432,429.779 461.194,430.414C463.957,431.049 466.832,431.777 469.818,432.598L469.818,449.51C468.176,449.211 466.085,448.95 463.546,448.726C461.008,448.502 458.17,448.315 455.034,448.166C451.898,448.017 448.576,447.942 445.066,447.942C440.736,447.942 437.525,448.595 435.434,449.902C433.344,451.209 431.962,453.542 431.29,456.902C430.618,460.262 430.282,464.966 430.282,471.014C430.282,475.643 430.469,479.395 430.842,482.27C431.216,485.145 431.832,487.366 432.69,488.934C433.549,490.502 434.65,491.585 435.994,492.182C437.338,492.779 438.944,493.078 440.81,493.078C443.573,493.078 446.037,492.947 448.202,492.686C450.368,492.425 452.01,492.182 453.13,491.958L453.13,481.206L441.594,481.206L441.594,463.958C443.237,463.734 445.197,463.547 447.474,463.398C449.752,463.249 452.104,463.118 454.53,463.006C456.957,462.894 459.178,462.838 461.194,462.838C463.882,462.838 466.253,462.857 468.306,462.894C470.36,462.931 472.245,462.987 473.962,463.062L473.962,512.454L457.61,512.454L454.698,506.966C452.906,508.161 450.106,509.467 446.298,510.886C442.49,512.305 438.234,513.014 433.53,513.014Z" style="fill:rgb(3,20,38);fill-rule:nonzero;"/>
            <path d="M480.682,512.454L505.322,429.238L532.426,429.238L557.066,512.454L534.554,512.454L531.194,499.238L506.218,499.238L502.97,512.454L480.682,512.454ZM511.258,479.75L526.154,479.75L518.65,447.718L511.258,479.75Z" style="fill:rgb(3,20,38);fill-rule:nonzero;"/>
            <path d="M574.762,512.454L574.762,448.726L553.818,448.726L553.818,429.238L617.434,429.238L617.434,448.726L596.49,448.726L596.49,512.454L574.762,512.454Z" style="fill:rgb(3,20,38);fill-rule:nonzero;"/>
            <path d="M658.314,513.126C652.416,513.126 647.245,512.547 642.802,511.39C638.36,510.233 634.645,508.161 631.658,505.174C628.672,502.187 626.432,497.913 624.938,492.35C623.445,486.787 622.698,479.601 622.698,470.79C622.698,461.979 623.445,454.793 624.938,449.23C626.432,443.667 628.672,439.393 631.658,436.406C634.645,433.419 638.36,431.347 642.802,430.19C647.245,429.033 652.416,428.454 658.314,428.454C664.213,428.454 669.384,429.033 673.826,430.19C678.269,431.347 681.984,433.419 684.97,436.406C687.957,439.393 690.197,443.667 691.69,449.23C693.184,454.793 693.93,461.979 693.93,470.79C693.93,479.601 693.184,486.787 691.69,492.35C690.197,497.913 687.957,502.187 684.97,505.174C681.984,508.161 678.269,510.233 673.826,511.39C669.384,512.547 664.213,513.126 658.314,513.126ZM658.314,493.638C661.152,493.638 663.466,493.302 665.258,492.63C667.05,491.958 668.45,490.801 669.458,489.158C670.466,487.515 671.176,485.201 671.586,482.214C671.997,479.227 672.202,475.419 672.202,470.79C672.202,465.937 671.997,462.017 671.586,459.03C671.176,456.043 670.466,453.747 669.458,452.142C668.45,450.537 667.05,449.435 665.258,448.838C663.466,448.241 661.152,447.942 658.314,447.942C655.552,447.942 653.256,448.241 651.426,448.838C649.597,449.435 648.178,450.537 647.17,452.142C646.162,453.747 645.453,456.043 645.042,459.03C644.632,462.017 644.426,465.937 644.426,470.79C644.426,475.419 644.632,479.227 645.042,482.214C645.453,485.201 646.162,487.515 647.17,489.158C648.178,490.801 649.597,491.958 651.426,492.63C653.256,493.302 655.552,493.638 658.314,493.638Z" style="fill:rgb(3,20,38);fill-rule:nonzero;"/>
            <path d="M704.122,512.454L704.122,429.238L739.626,429.238C743.285,429.238 746.645,429.686 749.706,430.582C752.768,431.478 755.418,432.99 757.658,435.118C759.898,437.246 761.634,440.102 762.866,443.686C764.098,447.27 764.714,451.787 764.714,457.238C764.714,460.673 764.416,463.659 763.818,466.198C763.221,468.737 762.418,470.883 761.41,472.638C760.402,474.393 759.208,475.867 757.826,477.062C756.445,478.257 754.97,479.302 753.402,480.198L767.85,512.454L745.786,512.454L734.138,483.782L725.85,483.782L725.85,512.454L704.122,512.454ZM725.85,466.534L735.706,466.534C736.901,466.534 737.946,466.366 738.842,466.03C739.738,465.694 740.504,465.153 741.138,464.406C741.773,463.659 742.24,462.707 742.538,461.55C742.837,460.393 742.986,458.993 742.986,457.35C742.986,455.707 742.837,454.326 742.538,453.206C742.24,452.086 741.773,451.209 741.138,450.574C740.504,449.939 739.738,449.473 738.842,449.174C737.946,448.875 736.901,448.726 735.706,448.726L725.85,448.726L725.85,466.534Z" style="fill:rgb(3,20,38);fill-rule:nonzero;"/>
        </g>
        <path d="M337.44,417.85C322.82,420.33 304.81,419.76 295.04,416.51C287.62,414.05 281.12,409.22 277.41,403.43L274.07,398.21L257.29,392.69C232.76,384.62 217.81,380.43 201.23,376.97C157.84,367.94 119.6,364.05 73.98,364.01C58.99,364 55.97,363.74 52.98,362.18C48.8,359.98 45,353.18 45,347.88C45,343.8 47.94,340.6 55.03,336.99C58.57,335.18 58.88,334.63 60.5,327.28C61.45,323 62.6,318.79 63.06,317.92C63.95,316.23 86.02,296.13 88.52,294.73C90.23,293.77 113.4,289.56 122.62,288.52C128.33,287.88 129.08,287.48 134.02,282.48C139.2,277.24 139.27,277.07 137.63,274.81C128.81,262.66 126.94,259.37 127.46,257C127.79,255.52 133.55,249.14 141.54,241.41L155.07,228.32L149.55,219.34C142.08,207.2 141.79,205.34 146.53,200.09C150,196.25 166.19,184.9 177.25,178.54C179.93,177 181.99,175.09 181.98,174.15C181.97,173.24 181.08,169.12 180,165C178.92,160.88 178.03,155.2 178.02,152.39L178,147.27L183.75,144.71C186.91,143.3 191.86,141.73 194.75,141.21C195.15,141.14 195.53,141.07 195.88,141C197.65,140.67 198.75,140.46 199.33,140.91C200.27,141.64 199.89,144.08 198.89,150.47C198.77,151.25 198.64,152.1 198.5,153C197.69,158.23 197.03,162.84 197.02,163.27C197.01,163.69 198.57,164.78 200.5,165.7C202.43,166.62 204,167.88 204,168.49C204,169.11 199.78,173.93 194.62,179.2C173.1,201.18 160.89,227.27 152.48,269.26C152.16,270.84 151.86,272.26 151.6,273.55C150.25,280.04 149.62,283.04 150.84,284.43C151.89,285.62 154.31,285.61 158.81,285.59C159.84,285.58 160.99,285.58 162.25,285.58C200.18,285.85 240.9,298.58 274.17,320.57C284.95,327.7 290.24,332.16 303.16,344.97L318.96,360.65L324.62,354.24C331.95,345.94 350.29,331.06 362.16,323.77C367.3,320.62 372.03,317.69 372.68,317.27C373.91,316.47 376.77,301.44 375.87,300.54C375.59,300.26 371.57,300.73 366.93,301.59C350.24,304.67 318.45,304.37 313.13,301.08C312.45,300.66 318.1,300.03 325.69,299.69C347.49,298.7 355.24,297.03 393.86,284.93C429.33,273.83 434.3,272.92 464,272.06C486.24,271.43 488.96,271.16 493.44,269.15C496.16,267.93 499.83,265.84 501.59,264.5C505.64,261.41 510,252.76 510,247.83C510,244.62 509.54,243.81 506.91,242.45C504.07,240.98 503.48,240.99 499.69,242.51C497.43,243.41 493.89,245.67 491.84,247.52C487.06,251.85 482.93,252.6 475.43,250.5C461.21,246.52 458.08,246.03 447,246.08C440.67,246.11 431.54,246.69 426.69,247.38C421.85,248.07 417.7,248.32 417.46,247.94C417.23,247.56 418.33,245.46 419.91,243.28C422.81,239.29 426,233.62 426,232.49C426,231.96 406.93,232.91 406.24,233.48C406.09,233.59 407.41,236.93 409.15,240.88C411.04,245.15 411.96,248.42 411.41,248.93C409.14,251.06 373.23,255.27 353.27,255.75L333.04,256.23L326.19,249.61C319.15,242.81 317.2,242.04 312.53,244.17C310.25,245.21 309.62,245.01 306.9,242.42C305.21,240.81 302.25,237.35 300.31,234.72C296.22,229.17 295.36,229.41 292.08,237.03C290.91,239.76 289.36,242 288.64,242C286.32,242 278.28,236.04 274.76,231.72C269.59,225.36 266.49,219.5 262.65,208.86C258.95,198.62 256.57,193.47 255.13,192.58C253.5,191.57 244.21,195 238.94,198.54C236.07,200.47 233.52,201.85 233.27,201.6C231.29,199.62 239.49,190.68 247.09,186.55C253.48,183.07 264.77,182.67 269.81,185.74C273.85,188.2 273.01,189 266.4,189C261.55,189 258,190.63 258,192.85C258,194.19 262.45,198.49 269.71,205.81C275.6,211.73 278.72,213.94 286.23,217.48C301.61,224.73 314.24,227.46 340.13,229.14C359.22,230.38 389.98,229.51 420,226.89C434.8,225.59 455.68,226.31 462,228.33C464.48,229.12 470.1,231.59 474.5,233.82C484.95,239.11 489.73,240.78 497.62,238.05L503.7,235.95L508.1,238.46C510.52,239.84 513.53,240.98 514.78,240.99C518.59,241.01 526.55,236.34 530.48,231.79C536.61,224.67 538,221.06 537.98,212.29C537.96,201.87 537.1,200.67 533,205.35C531.24,207.35 529.39,208.74 528.9,208.44C526.57,207 528.57,196.99 532.25,191.71C534.66,188.25 534.04,185.26 529.96,180.6C526.64,176.82 519.8,174 513.96,174L510.28,174L511.36,178.05C512.24,181.34 512.17,182.28 511.02,182.99C510,183.62 509.13,183.1 507.94,181.14C507.03,179.64 504.77,177.15 502.93,175.6C499.69,172.87 499.3,172.79 490.54,173.23C481.5,173.68 479.11,174.35 460.5,181.56C452.85,184.53 448.91,185.12 448.31,183.37C448.09,182.75 449.61,181.25 451.68,180.02C455.26,177.91 455.36,177.73 453.53,176.4C451.48,174.9 436.7,174.57 432,175.92C425.4,177.81 424.08,173.68 430.31,170.64C433.96,168.86 434.04,168.71 432.39,166.88C430.52,164.81 422.22,162 417.99,162C416.53,162 415.05,161.72 414.71,161.38C413.76,160.42 416.73,157.9 419.77,157.09C422,156.5 422.74,155.47 423.8,151.43C426.27,142.1 423.61,128.08 417.74,119.42C413.13,112.62 410.09,110.71 403.1,110.2C398.22,109.85 396.15,110.24 391.34,112.44C386.12,114.83 379.98,119.43 380.01,120.94C380.02,121.25 381.82,122.36 384.03,123.42C391.88,127.18 404.37,140.28 407.86,148.42C409.03,151.16 409,151.25 407.31,149.95C406.31,149.19 403.02,146.27 400,143.45C386.7,131.08 372.97,125.21 352.05,122.94C347.35,122.42 341.81,121.74 339.75,121.42C335.22,120.7 335.06,121.55 338.63,127.2C340.07,129.49 341.88,132.97 342.64,134.93C343.89,138.11 343.36,137.74 337.81,131.5C322.72,114.53 313.67,107.59 301.06,103.29C293.38,100.67 282.25,100.29 274.39,102.38C259.34,106.39 245.87,119.02 235.36,138.99C231.75,145.84 229.36,146.65 228.49,141.31C227.65,136.15 225.04,128.86 223.31,126.86C222.08,125.44 222.16,124.79 223.94,121.86C225.07,120.01 225.99,117.47 226,116.2C226,113.39 223.33,108 221.94,108C221.31,108 221.03,104.7 221.21,99.31L221.5,90.62L228.5,86.98C232.35,84.97 245.18,78.14 257,71.8C268.83,65.46 281.76,58.57 285.76,56.48L293.01,52.69L309.76,55.37C331.55,58.86 360.91,62.95 368.5,63.56C379.62,64.45 370.82,62.18 343.15,57.02C328.49,54.28 311.42,51.09 305.21,49.92C293.13,47.65 290.87,47.81 285.17,51.36C283.15,52.62 276.33,56.37 270,59.7C242.98,73.93 238.37,76.41 236,77.98C234.62,78.9 231.07,80.89 228.11,82.41L222.72,85.17L223.37,81.91C223.73,80.11 224.13,78.55 224.26,78.44C224.39,78.33 240.08,70.31 259.13,60.62C281.01,49.48 294.85,43 296.73,43C298.37,43 312.04,45.28 327.11,48.07C342.17,50.85 367.1,55.37 382.5,58.1C397.9,60.83 410.94,63.2 411.48,63.36C412.87,63.78 411.29,64.69 374.23,84.83C366.28,89.15 366.02,89.4 367.47,91.41C368.29,92.56 371.07,97.32 373.65,102C376.22,106.68 378.45,110.66 378.6,110.85C378.75,111.04 380.36,110.06 382.19,108.67C387.88,104.33 395,101.75 401.5,101.66C409.5,101.55 414.08,103.28 419.33,108.39C429.08,117.86 433.55,131.11 432.45,147.25C431.96,154.4 432.1,157 432.95,157C433.59,157 436.5,159.25 439.41,162C443.84,166.19 445.32,167.01 448.6,167.06C450.74,167.09 454.93,167.89 457.91,168.82L463.32,170.52L471.91,167.51C480.02,164.68 481.36,164.51 496,164.51C523.83,164.49 533.98,169.41 542.42,187L546.5,195.5L546.5,209C546.5,220.8 546.22,223.1 544.29,227.28C541.11,234.17 532.24,243.04 525.13,246.44C519.83,248.97 519.1,249.69 518.51,252.89C516.83,262.07 506.56,272.97 495.93,276.85C490.3,278.9 486.24,279.36 463.14,280.54C448.64,281.28 436.59,282.08 436.34,282.32C436.1,282.56 436.92,284.84 438.15,287.38C439.03,289.19 439.53,290.37 440.42,291.06C442.03,292.32 444.94,291.93 453.83,290.74C454.36,290.66 454.92,290.59 455.5,290.51C474.64,287.95 506.61,288.81 532.91,292.59C538.64,293.41 543.82,294.37 544.41,294.71C545.01,295.06 551.41,300.26 558.62,306.27L571.75,317.2L577.2,334.97L582.85,338.14C590.86,342.63 592,343.82 592,347.69C592,352.31 589.86,356.92 586.06,360.5L582.87,363.5L555.68,364.17C485.88,365.91 436.79,374 379.15,393.26C366.75,397.4 363.49,398.88 362.22,400.94C359.26,405.75 352.5,412.17 347.94,414.51C345.43,415.79 340.7,417.3 337.44,417.85ZM309.76,385.6C321.54,388.13 328.55,386.73 339,379.76C349.65,372.65 378.02,359.07 394.65,353.12C428.73,340.91 462.71,334.67 503.5,333.11C520.42,332.46 559.68,333.23 562.79,334.26C564.05,334.68 564.21,333.1 563.51,327.1L562.83,321.22L551.25,310.36C538,297.94 540.51,298.87 515.06,296.92C497.07,295.54 469.22,296.25 454.88,298.44C434.14,301.61 409.54,308.7 392.78,316.34C364.86,329.06 333.41,354.35 319.98,374.87C318.47,377.18 318.43,377.16 312.78,369.35C307.02,361.37 293.38,347.42 282.5,338.36C257.33,317.39 222.12,302.19 185.5,296.48C168.72,293.86 136.77,293.37 118.43,295.45C93.29,298.31 95.51,297.41 83.76,309.59C73.09,320.65 73.36,320.17 71.34,331.86C70.77,335.12 70.84,335.2 73.63,334.62C75.21,334.29 85.08,333.57 95.56,333.02C117.29,331.87 155.28,333.15 171.5,335.56C199.39,339.72 226.84,346.72 247.73,355.02C267.89,363.03 296.25,377.36 301.76,382.33C303,383.45 306.6,384.92 309.76,385.6ZM304.37,400.22C308.36,401.64 311.84,401.98 320.01,401.76C329.37,401.52 331.17,401.16 336.51,398.49C341.37,396.07 342.87,394.71 344.45,391.3C346.29,387.35 347.12,386.78 358.95,381.42C420.43,353.59 511.46,339.9 577.17,348.62C581.9,349.24 582,349.2 582,346.58C582,342.57 577.17,341.06 559.09,339.45C529.9,336.84 496.91,337.91 464.27,342.52C426.53,347.85 391.32,358.34 362,372.96C345.77,381.06 343.82,382.38 340.94,387.2C337.44,393.05 331.67,395.24 319.5,395.32C305.68,395.41 296.9,392.04 294.71,385.82C293.49,382.37 275.46,372.42 256.16,364.54C212.66,346.78 165.48,338.04 113,338.01C86.95,338 60.05,340.37 54.75,343.15C53.77,343.67 53,345.21 53,346.67C53,349.19 53.14,349.25 57.68,348.63C80.04,345.57 126.34,345.47 151.5,348.44C197.9,353.91 236.46,363.58 270.56,378.29C288.06,385.83 289.93,386.95 292.03,391.07C294.32,395.55 297.14,397.64 304.37,400.22ZM312.91,178.69C306.29,180.72 293.35,181.19 287.5,179.62C280.48,177.73 278.49,176.84 268.46,171.09C263.58,168.29 258.8,166 257.85,166C254.7,166 254.9,164.14 258.4,160.95C261.87,157.8 262.02,157.34 263.59,145.75C264.19,141.24 264.11,141 261.86,141C259.06,140.99 250.194,136.54 250.194,134.93C250.194,134.14 251.339,133.16 254.769,134.06C258.951,135.157 263.61,136.16 265.5,134.93C268.81,132.76 269.63,131.36 265.5,129.86C263.58,129.17 262,128.26 262,127.84C262,126.26 272.84,123.74 281.66,123.26C290.64,122.78 290.96,122.84 298.63,126.53C304.76,129.48 308.11,132 314.19,138.25C321.89,146.18 330.31,158.26 331.43,163.01C331.75,164.38 331.59,166.17 331.06,166.98C330.25,168.23 329.65,168.04 327.3,165.79L324.5,163.11L321.883,166.356C318.683,170.166 317.1,172.67 318.93,171.54C319.44,171.23 320.149,171.336 320.459,171.836C321.509,173.536 317.33,177.33 312.91,178.69ZM362,117.28C365.98,117.99 369.62,118.05 370.26,117.4C371.08,116.58 364.82,103.04 361.19,97.79C354.22,87.71 342.54,79.79 330.38,76.91C322.39,75.02 304.69,75.53 294.46,77.94C284.49,80.29 272,84.86 272,86.16C272,86.62 274.1,87 276.67,87C279.23,87 281.02,87.32 280.63,87.7C279.56,88.78 287.92,90.97 293.16,90.98C296.09,90.99 300.17,92.05 304.16,93.84C307.65,95.4 311.72,96.98 313.22,97.35C314.72,97.72 317.73,99.72 319.91,101.8C327.48,109 332.5,112 336.98,112C339.26,112 342,111.53 343.07,110.96C344.4,110.25 345.61,110.25 346.96,110.98C348.04,111.56 350.32,112.19 352.02,112.39C353.71,112.59 356.09,113.67 357.3,114.79C358.51,115.91 360.62,117.03 362,117.28ZM207.32,126.02C203.86,129.69 203.22,129.73 202.82,126.32C202.5,123.67 202.27,123.59 181.59,119.31C161.74,115.2 156.91,113.64 158.71,111.93C159.67,111.01 210.53,84.83 211.36,84.83C211.68,84.83 212,86.81 212,89.03C212,92 211.54,93.21 210.25,93.61C205.87,94.98 179.57,110.36 180.86,110.79C181.36,110.95 188.29,107.79 196.27,103.77L210.77,96.45L211.36,101.37C211.86,105.62 211.6,106.68 209.47,109.22C206.61,112.62 206.23,117.46 208.57,120.79C210.04,122.9 209.97,123.21 207.32,126.02ZM288.59,175.95C293.28,177.12 306.16,176.59 308.69,175.11C310.25,174.21 310.08,174.06 307.5,174.02C299.38,173.91 289.86,166.17 286.93,157.3C284.88,151.08 287.24,141.78 292.26,136.28L294.29,134.06L291.58,133.03C283.87,130.1 274.12,135.09 270.42,143.87C268.36,148.77 268.6,158.3 270.9,162.79C273.97,168.76 281.1,174.07 288.59,175.95ZM493.15,209.52C492.31,210.36 490.6,209.97 487,208.09C485.08,207.09 481.7,205.94 479.51,205.54C476.72,205.04 474.38,203.63 471.76,200.87C465.31,194.08 467.69,189 477.32,189C483.03,189 487.75,191.04 490.37,194.63C492.11,197.01 494.24,208.43 493.15,209.52ZM349.94,246.25C351.13,248.86 352.43,251 352.85,251C354.62,251 365,237.99 365,235.77C365,235.35 360.49,235 354.99,235L344.97,235L346.38,238.25C347.16,240.04 348.76,243.64 349.94,246.25ZM294.22,156.44C297.22,158.55 298.94,158.4 301.69,155.83C305.88,151.89 303.85,146.11 298.25,146.03C292.88,145.96 289.97,153.47 294.22,156.44ZM233.77,155.19C233.13,157.1 231.3,157.22 230.6,155.4C229.78,153.27 230.45,152.58 232.54,153.38C233.43,153.72 233.99,154.54 233.77,155.19ZM259.41,294.5C261.2,297.23 261.1,297.7 259.15,295.75C258.46,295.06 257.4,294.5 256.78,294.5C256.17,294.5 255.48,293.94 255.25,293.25C254.49,290.98 257.74,291.95 259.41,294.5Z" style="fill:rgb(3,20,38);fill-rule:nonzero;"/>
        <path d="M261.03,294.73C258.97,292.45 257.71,290.91 257.61,290.54C259.72,291.19 266.33,292.13 272.62,292.81C278.82,293.49 284.76,293.92 285.66,293.58C286.89,293.1 282.79,291.32 272.67,287.92C235.82,275.56 218.53,261.28 212.57,238.28C211.11,232.64 210.83,226.55 211.64,220.61L211.65,220.59L211.65,220.55C211.69,220.29 211.73,220.03 211.77,219.76C211.78,219.69 211.79,219.61 211.8,219.53C212.43,215.62 213.53,211.79 215.08,208.22L215.09,208.21C215.1,208.19 215.11,208.16 215.12,208.14L215.14,208.08C215.72,206.77 216.36,205.49 217.05,204.25C217.33,203.77 217.58,203.3 217.81,202.86C220.93,197.66 225.77,192 227.2,192C227.64,192 228,195.12 228,198.94C228,202.91 228.47,206.17 229.1,206.56C229.2,206.62 229.34,206.63 229.51,206.59C229.64,206.85 229.77,207 229.92,207C230.38,207 231.97,205.48 233.57,203.53C233.85,203.25 234.12,202.97 234.4,202.67C234.37,202.71 234.34,202.75 234.31,202.78C229.6,209.01 229,210.72 229,217.8C229,224.93 230.9,232.91 234.09,239.17C236.89,244.67 246.19,254.23 253.78,259.42C267.1,268.52 289.46,275.58 314,278.42C321.26,279.26 345.98,277.91 358.33,276C365.39,274.91 377.32,272.63 384.83,270.94C432.78,260.13 442.03,259.31 473.25,263.1C484.07,264.41 495.09,263.57 499.76,261.07C500.72,260.56 502.29,259.9 503.25,259.6C504.21,259.31 505.76,257.47 506.69,255.53C507.61,253.59 508.74,252 509.19,252C509.22,252 509.26,251.99 509.29,251.97C507.89,256.65 504.65,262.16 501.59,264.5C499.83,265.84 496.16,267.93 493.44,269.15C488.96,271.16 486.24,271.43 464,272.06C434.3,272.92 429.33,273.83 393.86,284.93C355.24,297.03 347.49,298.7 325.69,299.69C318.1,300.03 312.45,300.66 313.13,301.08C318.45,304.37 350.24,304.67 366.93,301.59C371.57,300.73 375.59,300.26 375.87,300.54C376.39,301.06 375.67,306.23 374.72,310.7L374.71,310.77L374.69,310.87C374.67,310.97 374.65,311.06 374.63,311.15C374.58,311.37 374.53,311.58 374.49,311.8C373.85,314.63 373.15,316.96 372.68,317.26C372.4,317.44 371.34,318.11 369.81,319.06C367.83,320.29 365.06,321.99 362.16,323.77C358.66,325.92 354.58,328.74 350.4,331.85C347.62,333.9 344.81,336.06 342.08,338.25C347.75,333.6 353.5,329.24 357.77,326.5C364.33,322.29 365.97,319.87 363.93,317.42C362.9,316.17 360.48,316.03 349.1,316.59C330.21,317.5 322.04,316.12 296,307.63C281.12,302.78 277.68,304.17 285.03,312.08C292.73,320.36 301,334.45 301,339.28C301,340.6 302.35,342.92 304.08,344.56C305.77,346.18 309.68,350.58 312.77,354.35L313.51,355.24L303.16,344.97C300.63,342.46 298.39,340.27 296.35,338.32C289.76,331.52 285,326.14 285,325.4C285,321.4 280.01,314.49 268.69,302.84C266.07,299.82 263.11,296.67 261.03,294.73ZM179.19,308.82C170.95,308 161.81,307.67 148.5,307.51C128.04,307.28 125.27,307.38 135.5,308C150.44,308.9 162.34,309.92 172.92,311.3C155.8,309.36 125.21,308.55 110,309.77C103.68,310.27 98.13,310.36 97.68,309.97C95.55,308.12 120.5,306.76 147,307.27C161.07,307.54 170.67,307.94 179.19,308.82ZM478.92,310.52C486.09,309.94 493.7,309.53 502,309.27C526.77,308.48 524.41,307.19 498,307.08C497.5,307.08 497,307.07 496.5,307.07C509.84,306.97 523.3,307.3 528.48,308.05C537.69,309.38 539.99,311.45 531,310.32C521.89,309.17 496.33,309.38 478.92,310.52ZM391.5,345.05C403.72,340.21 416.14,336.18 428.8,332.94C405.84,338.93 382.44,347.8 365.7,357.19C359.76,360.51 354.66,363 354.37,362.7C353.21,361.54 368.55,352.91 384.03,345.34C369.1,352.78 364.12,356.46 376,351.43C380.67,349.44 387.65,346.57 391.5,345.05ZM286,351.91C282.43,348.72 277.93,345.4 272.79,342.1C278.69,345.81 284.21,349.68 289.17,353.63C292.85,356.57 296.17,359.47 296.54,360.06C298.19,362.73 295.74,361.31 285.99,353.93C279.85,349.28 272.95,344.86 265.46,340.74C271.29,343.87 276.7,347.11 281.5,350.37C285.9,353.36 289.73,355.84 290,355.87C290.27,355.91 288.48,354.13 286,351.91ZM354.91,351.17C356.02,350.43 357.18,349.68 358.37,348.93C354.52,351.4 350.86,353.97 347.38,356.62C342.78,360.13 338.79,363 338.51,363C336.21,363 342.6,356.69 348.14,353.5C348.74,353.15 351.17,351.55 354.31,349.43C351.23,351.59 348.71,353.43 347.5,354.43C342.25,358.8 345.9,357.19 354.91,351.17ZM321.25,166.99L322.19,165.87C324.27,163.61 324.94,163.39 325.38,164.55C326.43,167.27 326.13,167.73 322,169.77C320.14,170.69 318.58,171.27 318.16,171.22C318.53,170.43 319.58,168.98 321.25,166.99ZM563.7,328.82C563.27,327.78 562.25,327.62 559.04,326.9C556.61,326.35 553.97,325.86 551.13,325.44C561.58,326.37 562.79,325.59 553.27,323.8C566.85,325.84 565.77,323.99 551.58,310.67L562.83,321.22L563.51,327.1C563.58,327.72 563.65,328.29 563.7,328.82ZM151.71,274C152,272.9 152.39,272 152.58,272C152.77,272 153.41,272.9 154,274C154.9,275.68 154.76,276 153.13,276C151.68,276 151.32,275.49 151.71,274ZM409.21,324.93C415.06,322.86 420.8,321.04 426.25,319.57C438.28,316.33 449.64,313.99 461.87,312.33C443.61,315 425.82,319.29 409.21,324.93ZM158.23,246.81C158.85,244.96 161,244.65 161,246.42C161,247.29 160.29,248 159.42,248C158.55,248 158.01,247.47 158.23,246.81ZM460.67,326.56C476.82,324.19 493.39,323.02 510.5,323.04L511.2,323.04C494.63,323.13 476.9,324.31 460.67,326.56ZM150.84,284.43C150.55,284.1 150.37,283.68 150.27,283.15C150.57,282.94 151.17,283.13 152.41,283.6C152.79,283.75 153.06,283.93 153.23,284.14C153.2,284.2 153.18,284.26 153.15,284.32C152.97,284.75 152.77,285.07 152.56,285.31C151.79,285.13 151.22,284.86 150.84,284.43ZM182.89,312.75C189.35,313.81 195.5,315.05 201.8,316.53C210.34,318.53 219.29,321.21 228.18,324.37C213.74,319.37 198.4,315.4 182.89,312.75ZM485.05,307.27C474.26,307.64 463.87,308.55 453.89,309.99C459.25,309.17 464.64,308.51 470,308.03C473.89,307.69 479.19,307.43 485.05,307.27ZM412.99,319.65C404.44,322.54 395.17,326.19 387.38,329.67C388.21,329.29 389.08,328.89 390,328.48C397.28,325.2 404.99,322.24 412.99,319.65ZM251.61,330.3C236.16,322.75 219,316.33 204.5,313.12C219.32,316.4 235.93,322.56 251.61,330.3ZM445.37,324.78C444.41,324.97 443.45,325.17 442.5,325.38C434.99,327.01 428.41,328.61 422.36,330.31C429.9,328.15 437.59,326.31 445.37,324.78ZM480.97,320.04C493.61,319.14 506.33,319.05 518.95,319.78C506.36,319.08 493.54,319.17 480.97,320.04ZM411.73,333.59C407.33,335.08 403.09,336.69 398.82,338.49C402.08,337.09 405.04,335.9 407.5,335.04C408.9,334.54 410.31,334.06 411.73,333.59ZM543.81,333.18C530.41,332.83 513.25,332.74 503.5,333.11C513.42,332.73 530.37,332.82 543.81,333.18ZM560.64,333.94C561.82,334.04 562.72,334.15 563.28,334.26C563.31,334.27 563.34,334.27 563.37,334.28C563.22,334.35 563.02,334.34 562.79,334.26C562.46,334.15 561.72,334.05 560.64,333.94ZM510,247.89C509.99,246.41 509.9,245.44 509.57,244.69C509.91,245.43 510,246.39 510,247.83L510,247.89ZM245.14,195.19C244.5,195.49 243.87,195.82 243.24,196.15C243.85,195.83 244.47,195.51 245.08,195.21L245.14,195.19Z" style="fill:rgb(209,209,193);fill-rule:nonzero;"/>
        <path d="M229.11,297.96C244.23,303.34 259.77,311.11 273.71,320.27C240.53,298.46 200.01,285.84 162.25,285.58C160.99,285.58 159.84,285.58 158.81,285.59C155.95,285.6 153.93,285.61 152.56,285.31C153.36,284.41 153.92,282.28 154.6,277.99C156.25,267.56 159.42,255.64 164.45,241C170.65,222.97 172.51,218.89 179.5,207.97C180.05,207.11 181.4,204.89 182.5,203.04C187.19,195.16 207.58,173 210.14,173C211.69,173 210.09,178.31 207.78,180.81C204.19,184.72 198,193.15 198,194.14C198,194.61 199.46,195.63 201.25,196.42L204.5,197.84L199.78,197.92C194.58,198.01 193.6,199.09 191.06,207.5C190.39,209.7 189.23,212.85 188.48,214.5C186.26,219.36 183.55,235.95 184.78,237.18C186.72,239.12 188,236.91 188,231.59C188,225.9 189.47,220.35 191.57,218.1C192.65,216.94 192.78,218.6 192.3,227.62L191.72,238.55L194.36,239.76C197.15,241.03 198,244 195.57,244C193.25,244 192.94,246.98 194.36,255.88C195.39,262.35 196.2,264.64 197.88,265.91C199.43,267.08 199.74,267.86 198.98,268.62C198.21,269.39 198.26,270.53 199.16,272.6C202.23,279.71 209.71,288.87 212.53,288.96C213.09,288.98 214.94,290.27 216.63,291.81C218.37,293.4 223.81,296.08 229.11,297.96ZM536.1,223.69C534.96,226.2 533.18,229.66 530.48,232.79C526.55,237.34 518.59,241.01 514.78,240.99C513.53,240.98 510.52,239.84 508.1,238.46L503.7,235.95L497.62,238.05C489.73,240.78 484.95,240.11 474.5,234.82C470.1,232.59 464.48,230.12 462,229.33C455.68,227.31 434.8,226.59 420,227.89C389.98,230.51 359.22,231.38 340.13,230.14C314.24,228.46 301.61,225.73 286.23,218.48C278.72,214.94 275.6,212.73 269.71,206.81C262.45,199.49 258,194.19 258,192.85C258,190.63 261.55,189 266.4,189C273.01,189 273.85,188.2 269.81,185.74C269.03,185.27 268.11,184.88 267.08,184.57C270.95,185.47 274.59,187.07 277.5,189.32C279.34,190.74 278.86,190.82 271.63,190.28C263.85,189.7 264.38,190.28 265.5,192.38C267.55,196.21 278.31,202.94 288.5,208.03C298.99,213.28 311.74,217 326.92,219.24C339.94,221.16 389.01,220.82 414,218.64C453.82,215.17 463.32,216.13 478.17,225.1C483.82,228.51 486.45,229.48 491.04,229.81C497.84,230.3 506.5,228.81 508.04,225.92C509.42,223.35 510.79,223.49 511.18,226.25C511.66,229.63 519.67,232.34 524.53,231.43C528.42,230.7 533.66,227.69 536.1,223.69ZM271.05,305.64C274.33,309.69 276.67,312.97 276.26,312.93C274.76,312.8 254.07,296.94 247.69,291.03C245.6,289.09 242.68,286.82 241.19,285.99C225.61,277.25 218.9,271.76 213.14,263.07C205.14,250.98 203.15,242.69 204.9,228.75C205.55,223.66 206.82,217.48 207.73,215C209.38,210.5 218.06,196.7 219.98,195.51C221.4,194.64 221.26,196.34 219.8,197.8C219.14,198.46 218.92,199 219.31,199C219.7,199 218.68,201.36 217.05,204.25C211.39,214.29 209.69,227.17 212.57,238.28C218.53,261.28 235.82,275.56 272.67,287.92C282.79,291.32 286.89,293.1 285.66,293.58C283.89,294.26 261.39,291.8 257.5,290.5C256.4,290.13 257.65,291.73 260.29,294.05C262.92,296.37 267.76,301.58 271.05,305.64ZM316.95,177.51C316.05,177.78 315.08,178.04 314.05,178.28C318.02,176.69 321.38,173.43 320.43,171.88C320.12,171.38 319.44,171.23 318.93,171.54C318.05,172.08 317.82,171.94 318.16,171.22C318.58,171.27 320.14,170.69 322,169.77C326.13,167.73 326.43,167.27 325.38,164.55C324.94,163.39 324.27,163.61 322.19,165.87L324.5,163.11L327.3,165.79C329.65,168.04 330.25,168.23 331.06,166.98C331.59,166.17 331.75,164.38 331.43,163.01C331.08,161.54 330.04,159.37 328.53,156.84C331.66,161.86 335.13,167.16 336.45,168.94C340.43,174.32 339.96,175 332.2,175C327.84,175 322.36,175.9 316.95,177.51ZM432.39,169.57C431.9,169.86 431.21,170.2 430.31,170.64C424.08,173.68 425.4,177.81 432,175.92C433.77,175.41 436.96,175.14 440.37,175.08C436.96,175.2 433.75,175.52 431.99,176.05C430.07,176.63 426.07,177.51 423.09,178.02C416.53,179.14 400.88,184.9 392.63,189.22C391.25,189.94 390.95,189.89 391.5,189C394.08,184.83 420.42,171.76 429.03,170.38C430.32,170.17 431.54,169.87 432.39,169.57ZM366.01,182.73C359.69,185.9 354.07,188.64 353.51,188.81C350.4,189.75 365.31,177.5 370.33,174.99C375.36,172.48 377.45,172.01 383.41,172.07L390.5,172.14L384,174.55C380.42,175.87 372.33,179.55 366.01,182.73ZM410.88,152.3C414.09,156.86 414.47,157.09 418.38,156.8C419.9,156.69 420.86,156.61 421.54,156.28C421.07,156.66 420.5,156.9 419.77,157.09C416.73,157.9 413.76,160.42 414.71,161.38C415.05,161.72 416.53,162 417.99,162C419.89,162 422.6,162.57 425.19,163.38C421.2,162.67 407.17,164.42 399.65,166.57C392.43,168.63 395.15,166.04 404.54,161.92C408.64,160.11 412,158.15 412,157.56C412,155.55 397.09,140.25 391.54,136.57C386.52,133.24 381.97,130.7 377.25,128.73C385.64,132.08 392.88,136.84 400,143.45C403.02,146.27 406.31,149.19 407.31,149.95C409,151.25 409.03,151.16 407.86,148.42C406.64,145.58 404.32,142.13 401.49,138.69C403.66,141.08 405.34,143.18 406,144.5C406.82,146.15 409.02,149.66 410.88,152.3ZM495.95,173.03C499.71,173.02 500.55,173.59 502.93,175.6C504.77,177.15 507.03,179.64 507.94,181.14C509.13,183.1 510,183.62 511.02,182.99C512.17,182.28 512.24,181.34 511.36,178.05L510.68,175.5L512.08,179.48C513.53,183.61 514,187.66 514,196.03C514,208.37 512.6,210.06 511.74,198.78C511.04,189.72 507.86,181.06 503.56,176.49C500.9,173.68 500.22,173.13 495.95,173.03ZM241.54,158.94C240.91,159.96 238.62,160.22 236.5,159.51C235.95,159.33 234.32,158.92 232.88,158.6C230.91,158.17 230.09,157.22 229.62,154.83C228.71,150.32 230.09,149.49 234.63,151.81C239.25,154.17 242.45,157.47 241.54,158.94ZM451.25,180.29C449.4,181.46 448.11,182.8 448.31,183.37C448.84,184.92 452.01,184.63 458.07,182.47C456.8,182.95 455.59,183.42 454.5,183.83C450.1,185.5 444.48,187.76 442,188.85C439.52,189.95 435.7,191.14 433.5,191.5C429.78,192.1 430.06,191.83 437.5,187.56C441.9,185.03 447.36,182.11 449.64,181.07C450.23,180.79 450.77,180.54 451.25,180.29ZM241.58,190.26C236.1,194.63 231.77,200.1 233.27,201.6C233.52,201.85 236.07,200.47 238.94,198.54C240.69,197.37 242.88,196.2 245.08,195.21C240.5,197.43 235.96,200.52 233.97,203.03C232.25,205.22 230.42,207 229.92,207C229.41,207 229,205.17 229,202.94C229,200.71 229.37,199.11 229.81,199.38C230.26,199.66 233.22,197.49 236.39,194.56C237.89,193.17 239.75,191.64 241.58,190.26ZM187.95,262.91C189.46,265.73 191.39,265.61 190.64,262.75C190.31,261.51 189.51,258.14 188.86,255.25C188.21,252.36 187.24,250 186.7,250C185.45,250 186.43,260.07 187.95,262.91ZM197.03,279.25C200.76,283.65 202,284.17 199.41,280.25C198.42,278.74 196.78,275.81 195.78,273.75C194.58,271.3 193.27,270 191.98,270C189.5,270 189.49,270.66 191.93,273.36C192.99,274.54 195.29,277.19 197.03,279.25ZM262.76,151.59C261.82,157.64 261.16,158.45 258.4,160.95C254.9,164.14 254.7,166 257.85,166C258.57,166 261.43,167.29 264.88,169.12C260.88,167.09 258.23,166.29 255.11,166L249.65,165.5L254.75,162.33C259.62,159.32 261.67,156.82 262.76,151.59ZM320.25,114.02C325.46,118.27 331.03,123.87 337.81,131.5C343.36,137.74 343.89,138.11 342.64,134.93C342.19,133.77 341.38,132.09 340.49,130.43L340.5,130.44C342.97,134.62 345.67,139.72 346.49,141.77C347.93,145.36 347.92,145.42 346.24,143.37C345.29,142.2 342.48,138.41 340,134.94C335.35,128.44 327.08,119.81 320.25,114.02ZM258.99,135.52C258.85,135.5 258.7,135.48 258.56,135.46C254.68,134.98 253,135.11 253,135.9C253,137.29 257.51,140.07 260.55,140.81C255.95,139.94 249.44,135.23 251.07,133.59C251.35,133.32 253.36,133.73 255.54,134.5C256.79,134.95 257.94,135.29 258.99,135.52ZM233.77,155.19C233.99,154.54 233.43,153.72 232.54,153.38C230.45,152.58 229.78,153.27 230.6,155.4C231.3,157.22 233.13,157.1 233.77,155.19ZM268.4,125.17C264.65,126.05 262,127.06 262,127.84C262,128.26 263.58,129.17 265.5,129.86C267.11,130.44 268.12,130.95 268.57,131.49C268.43,131.34 268.24,131.2 268,131.04C267.17,130.48 265.6,130.02 264.5,130C262.35,129.97 259.25,128.37 260.03,127.7C260.8,127.02 264.25,126.05 268.4,125.17ZM493.15,209.52C493.23,209.44 493.29,209.3 493.34,209.13C493.31,209.54 493.27,209.92 493.2,210.25C492.75,212.51 491.73,212.46 489.58,210.09C488.82,209.25 487.93,208.56 486.63,207.91C486.76,207.97 486.88,208.03 487,208.09C490.6,209.97 492.31,210.36 493.15,209.52ZM255.9,112.29C261.69,107.45 267.89,104.11 274.39,102.38C276.13,101.92 278.03,101.58 280.02,101.36C271.48,102.54 263.31,106.22 255.9,112.29ZM288.04,179.75C290.9,180.42 295.16,180.66 299.53,180.52C295.6,180.83 292.23,180.83 290.5,180.4C289.66,180.2 288.85,179.98 288.04,179.75ZM473.3,202.36C470.36,200 468,196.71 468,194.33C468,193.62 468.18,192.97 468.51,192.38C467.51,194.5 468.53,197.47 471.76,200.87C472.28,201.42 472.8,201.92 473.3,202.36ZM253.63,192.44C254.33,192.36 254.85,192.4 255.13,192.58C256.53,193.45 258.81,198.33 262.33,207.98C257.77,195.76 256.19,192.61 253.63,192.44ZM286.87,123.05C285.48,123.06 283.82,123.15 281.66,123.26C279.52,123.38 277.27,123.61 275.08,123.93C278.55,123.37 281.84,123 283.96,123C285.04,123 286,123.01 286.87,123.05ZM326.36,153.4C323.01,148.39 318.48,142.67 314.19,138.25C313.76,137.81 313.35,137.4 312.95,136.99C317.67,141.59 322.27,147.19 326.36,153.4ZM150.19,282.22C150.17,280.43 150.73,277.71 151.6,273.55C151.86,272.26 152.16,270.84 152.48,269.26C151.19,275.69 150.44,279.73 150.19,282.22ZM338.7,127.32C338.67,127.28 338.65,127.24 338.63,127.2C337.1,124.78 336.26,123.24 336.15,122.33C336.5,123.22 337.45,125.08 338.7,127.32ZM268.83,132.03C268.92,132.73 268.15,133.51 266.56,134.56C265.98,134.93 265.41,135.21 264.77,135.41C265.62,135.1 266.4,134.64 267.14,134.02C268.3,133.05 268.83,132.49 268.83,132.03ZM262.91,141.05C264.11,141.24 264.08,142.09 263.59,145.75L263.54,146.08C263.95,142.26 263.92,141.31 262.91,141.05ZM537.98,212.2L537.98,212.29C537.99,215.31 537.83,217.71 537.37,219.86C537.72,217.72 537.93,214.92 537.98,212.2ZM258.51,183.71C254.41,183.91 250.19,184.86 247.12,186.53C250.39,184.76 254.38,183.83 258.51,183.71ZM295.14,101.81C297.25,102.18 299.25,102.67 301.06,103.29C302.55,103.8 304,104.34 305.41,104.94C301.98,103.52 298.55,102.48 295.14,101.81ZM453.59,178.86C454.44,178.16 454.66,177.57 454.3,177.01C454.97,177.62 454.84,178.02 453.59,178.86ZM492.85,202.72C492.24,199.39 491.25,195.84 490.37,194.63C491.34,195.96 492.29,199.33 492.85,202.72ZM385.6,124.26C385.06,123.94 384.53,123.66 384.03,123.42C381.83,122.36 380.02,121.25 380.01,120.94C380.02,121.25 381.93,122.4 384.26,123.49C384.65,123.67 385.1,123.93 385.6,124.26ZM267.12,219.76C268.57,222.74 270.07,225.31 271.8,227.8C270.02,225.29 268.58,222.83 267.12,219.76ZM239.9,131.11C238.31,133.69 236.51,136.79 235.36,138.99C236.81,136.22 238.33,133.59 239.9,131.11ZM430.23,165.39C431.2,165.9 431.96,166.41 432.39,166.88C432.44,166.94 432.49,166.99 432.54,167.04C431.94,166.5 431.14,165.92 430.23,165.39ZM336.75,121.31C337.32,121.12 338.32,121.19 339.75,121.42C338.45,121.21 337.4,121.18 336.75,121.31ZM299.31,126.86C299.17,126.79 299.02,126.72 298.87,126.64C299.02,126.72 299.17,126.79 299.31,126.86Z" style="fill:rgb(14,85,23);fill-rule:nonzero;"/>
        <path d="M229.11,297.96C223.81,296.08 218.37,293.4 216.63,291.81C214.94,290.27 213.09,288.98 212.53,288.96C209.71,288.87 202.23,279.71 199.16,272.6C198.26,270.53 198.21,269.39 198.98,268.62C199.74,267.86 199.43,267.08 197.88,265.91C196.2,264.64 195.39,262.35 194.36,255.88C192.94,246.98 193.25,244 195.57,244C198,244 197.15,241.03 194.36,239.76L191.72,238.55L192.3,227.62C192.78,218.6 192.65,216.94 191.57,218.1C189.47,220.35 188,225.9 188,231.59C188,236.91 186.72,239.12 184.78,237.18C183.55,235.95 186.26,219.36 188.48,214.5C189.23,212.85 190.39,209.7 191.06,207.5C193.6,199.09 194.58,198.01 199.78,197.92L204.5,197.84L201.25,196.42C199.46,195.63 198,194.61 198,194.14C198,193.15 204.19,184.72 207.78,180.81C210.09,178.31 211.69,173 210.14,173C208.78,173 202.44,179.2 196.06,186.22C200.04,181.67 203.91,177.49 206.18,175.4C209.69,172.16 211.66,171.17 215.6,170.65C218.33,170.28 221.47,169.36 222.56,168.59C223.66,167.83 225.67,167.04 227.03,166.85C229.37,166.52 229.5,166.16 229.48,160C229.44,149.44 228.46,140.54 226.73,134.36C227.5,136.69 228.15,139.18 228.49,141.31C229.36,146.65 231.75,145.84 235.36,138.99C236.81,136.22 238.33,133.59 239.9,131.11C244.76,123.41 250.13,117.11 255.9,112.29C257.49,110.99 259.12,109.79 260.78,108.71C258.53,110.26 256.42,112.05 254.5,114.06L250.5,118.24L258.01,114.16C283.37,100.39 307.02,106.36 333.12,133.11C338.96,139.1 344.01,144 344.34,144C345.81,144 339.7,134.42 333.64,127.13C336.08,129.86 338.29,132.55 340,134.94C342.48,138.41 345.29,142.2 346.24,143.37C347.92,145.42 347.93,145.36 346.49,141.77C345.67,139.72 342.97,134.62 340.5,130.44L340.49,130.43C339.9,129.32 339.27,128.23 338.7,127.32C337.45,125.08 336.5,123.22 336.15,122.33C336.08,121.78 336.28,121.46 336.75,121.31C337.4,121.18 338.45,121.21 339.75,121.42C341.09,121.63 343.89,121.99 346.98,122.36C341.16,122.02 343.04,123.26 352.5,125.96C363.05,128.97 376.29,134.4 382.5,138.28C390.41,143.23 402.83,152.83 406.93,157.17C407.96,158.26 409.39,158.86 410.47,158.89C409.1,159.74 406.95,160.86 404.54,161.92C395.15,166.04 392.43,168.63 399.65,166.57C407.17,164.42 421.2,162.67 425.19,163.38C425.69,163.53 426.18,163.7 426.65,163.87C425.2,163.61 423.33,163.52 420.67,163.54C413.38,163.58 402.37,165.71 403.52,166.86C403.87,167.2 408.51,167.35 413.83,167.17C421.44,166.93 423.93,167.19 425.5,168.42C427.19,169.75 431.26,170.06 432.78,169.32C432.66,169.4 432.54,169.48 432.39,169.57C431.54,169.87 430.32,170.17 429.03,170.38C420.42,171.76 394.08,184.83 391.5,189C390.95,189.89 391.25,189.94 392.63,189.22C400.88,184.9 416.53,179.14 423.09,178.02C426.07,177.51 430.07,176.63 431.99,176.05C433.75,175.52 436.96,175.2 440.37,175.08C440.68,175.08 440.99,175.07 441.31,175.07C436.93,175.29 432.22,175.94 428.61,176.97C424.83,178.05 421.51,179.16 421.23,179.44C420.95,179.71 423.15,179.61 426.11,179.22C431.24,178.53 440.47,178.45 448.87,179.01C451.35,179.18 453.09,178.99 453.94,178.54C453.84,178.64 453.72,178.75 453.59,178.86C453.12,179.17 452.49,179.55 451.68,180.02C451.53,180.11 451.39,180.2 451.25,180.29C450.77,180.54 450.23,180.79 449.64,181.07C447.36,182.11 441.9,185.03 437.5,187.56C430.06,191.83 429.78,192.1 433.5,191.5C435.7,191.14 439.52,189.95 442,188.85C444.48,187.76 450.1,185.5 454.5,183.83C455.59,183.42 456.8,182.95 458.07,182.47C458.84,182.2 459.65,181.9 460.5,181.56C462.67,180.72 464.62,179.97 466.39,179.29C465.51,179.66 464.59,180.05 463.64,180.46C457.44,183.13 459.91,183.11 469.55,180.43C474.47,179.05 482.11,177.66 486.53,177.33C493.38,176.82 495.14,177.03 498.53,178.76C503.4,181.24 505.41,183.4 507.66,188.54C509.2,192.03 509.45,192.23 509.78,190.17C510.13,188 507.91,182.67 505.39,178.77C508.75,183.62 511.14,191.05 511.74,198.78C512.6,210.06 514,208.37 514,196.03C514,187.66 513.53,183.61 512.08,179.48L510.68,175.5L510.57,175.08C510.64,175.29 510.76,175.55 510.93,175.86C511.54,177.01 513.43,177.93 515.83,178.25C517.98,178.54 521.93,179.91 524.62,181.31C530.16,184.19 530.68,184.33 531.41,183.15C531.53,182.96 531.53,182.7 531.42,182.4C534.15,186.07 534.34,188.72 532.25,191.71C528.57,196.99 526.57,207 528.9,208.44C529.39,208.74 531.24,207.35 533,205.35C537.09,200.69 537.96,201.86 537.98,212.2C537.93,214.92 537.72,217.72 537.37,219.86C537.08,221.21 536.67,222.46 536.1,223.69C533.66,227.69 528.42,231.7 524.53,232.43C519.67,233.34 511.66,229.63 511.18,226.25C510.79,223.49 509.42,223.35 508.04,225.92C506.5,228.81 497.84,231.3 491.04,230.81C486.45,230.48 483.82,229.51 478.17,226.1C463.32,217.13 453.82,216.17 414,219.64C389.01,221.82 339.94,222.16 326.92,220.24C311.74,218 298.99,214.28 288.5,209.03C278.31,203.94 266.95,195.65 264.9,191.82C263.78,189.72 263.85,189.7 271.63,190.28C278.86,190.82 279.34,190.74 277.5,189.32C274.59,187.07 270.95,185.47 267.08,184.57C264.64,183.84 261.61,183.56 258.51,183.71C254.38,183.83 250.39,184.76 247.12,186.53L247.09,186.55C245.24,187.55 243.35,188.85 241.58,190.26C239.75,191.64 237.89,193.17 236.39,194.56C233.22,197.49 230.26,199.66 229.81,199.38C229.37,199.11 229,200.71 229,202.94C229,204.54 229.21,205.92 229.51,206.59C229.34,206.63 229.2,206.62 229.1,206.56C228.47,206.17 228,202.91 228,198.94C228,195.12 227.64,192 227.2,192C225.77,192 220.93,197.66 217.81,202.86C218.98,200.64 219.63,199 219.31,199C218.92,199 219.14,198.46 219.8,197.8C221.26,196.34 221.4,194.64 219.98,195.51C218.06,196.7 209.38,210.5 207.73,215C206.82,217.48 205.55,223.66 204.9,228.75C203.15,242.69 205.14,250.98 213.14,263.07C218.9,271.76 225.61,277.25 241.19,285.99C242.68,286.82 245.6,289.09 247.69,291.03C254.07,296.94 274.76,312.8 276.26,312.93C276.67,312.97 274.33,309.69 271.05,305.64C270.32,304.74 269.52,303.8 268.69,302.84C280.01,314.49 285,321.4 285,325.4C285,326.14 289.76,331.52 296.35,338.32C287.96,330.31 282.84,326.31 274.17,320.57C274.02,320.47 273.86,320.37 273.71,320.27C259.77,311.11 244.23,303.34 229.11,297.96ZM312.91,178.69C313.29,178.57 313.67,178.43 314.05,178.28C315.08,178.04 316.05,177.78 316.95,177.51C322.36,175.9 327.84,175 332.2,175C339.96,175 340.43,174.32 336.45,168.94C335.13,167.16 331.66,161.86 328.53,156.84C327.89,155.75 327.15,154.6 326.36,153.4C322.27,147.19 317.67,141.59 312.95,136.99C307.85,131.87 304.6,129.47 299.31,126.86C299.17,126.79 299.02,126.72 298.87,126.64C298.82,126.62 298.77,126.6 298.72,126.57L298.63,126.53C292.81,123.73 291.22,123.02 286.87,123.05C286,123.01 285.04,123 283.96,123C281.84,123 278.55,123.37 275.08,123.93C272.7,124.27 270.4,124.7 268.4,125.17C264.25,126.05 260.8,127.02 260.03,127.7C259.25,128.37 262.35,129.97 264.5,130C265.6,130.02 267.17,130.48 268,131.04C268.24,131.2 268.43,131.34 268.57,131.49C268.72,131.67 268.81,131.85 268.83,132.03C268.83,132.49 268.3,133.05 267.14,134.02C266.4,134.64 265.62,135.1 264.77,135.41C263.4,135.83 261.71,135.84 258.99,135.52C257.94,135.29 256.79,134.95 255.54,134.5C253.36,133.73 251.35,133.32 251.07,133.59C249.44,135.23 255.95,139.94 260.55,140.81C261.03,140.93 261.48,141 261.86,141C262.28,141 262.63,141.01 262.91,141.05C263.92,141.31 263.95,142.26 263.54,146.08C263.24,148.3 262.99,150.11 262.76,151.59C261.67,156.82 259.62,159.32 254.75,162.33L249.65,165.5L255.11,166C258.23,166.29 260.88,167.09 264.88,169.12C266.03,169.72 267.24,170.39 268.46,171.09C278.49,176.84 280.48,177.73 287.5,179.62C287.68,179.67 287.86,179.71 288.04,179.75C288.85,179.98 289.66,180.2 290.5,180.4C292.23,180.83 295.6,180.83 299.53,180.52C304.45,180.36 309.51,179.73 312.91,178.69ZM410.88,152.3C409.02,149.66 406.82,146.15 406,144.5C405.34,143.18 403.66,141.08 401.49,138.69C396.73,132.91 390.52,127.14 385.6,124.26C385.1,123.93 384.65,123.67 384.26,123.49C381.93,122.4 380.02,121.25 380.01,120.94C379.98,119.43 386.12,114.83 391.34,112.44C394.83,110.84 396.88,110.2 399.62,110.1C394.07,110.67 387.3,113.89 383.56,117.87C380.04,121.62 380.24,121.66 387.13,118.65C401.93,112.16 413.35,116.3 420.28,130.67C422.33,134.93 422.52,135.07 422.82,132.62C422.95,131.55 422.61,129.87 421.95,127.95C424.72,135.73 425.56,144.78 423.8,151.43C423.09,154.15 422.52,155.51 421.54,156.28C420.86,156.61 419.9,156.69 418.38,156.8C414.47,157.09 414.09,156.86 410.88,152.3ZM473.3,202.36C475.34,204.15 477.28,205.14 479.51,205.54C481.57,205.92 484.67,206.95 486.63,207.91C487.93,208.56 488.82,209.25 489.58,210.09C491.73,212.46 492.75,212.51 493.2,210.25C493.27,209.92 493.31,209.54 493.34,209.13C493.61,208.09 493.36,205.48 492.85,202.72C492.29,199.33 491.34,195.96 490.37,194.63C487.75,191.04 483.03,189 477.32,189C472.51,189 469.51,190.27 468.51,192.38C468.18,192.97 468,193.62 468,194.33C468,196.71 470.36,200 473.3,202.36ZM366.01,182.73C372.33,179.55 380.42,175.87 384,174.55L390.5,172.14L383.41,172.07C377.45,172.01 375.36,172.48 370.33,174.99C365.31,177.5 350.4,189.75 353.51,188.81C354.07,188.64 359.69,185.9 366.01,182.73ZM241.54,158.94C242.45,157.47 239.25,154.17 234.63,151.81C230.09,149.49 228.71,150.32 229.62,154.83C230.09,157.22 230.91,158.17 232.88,158.6C234.32,158.92 235.95,159.33 236.5,159.51C238.62,160.22 240.91,159.96 241.54,158.94ZM187.95,262.91C186.43,260.07 185.45,250 186.7,250C187.24,250 188.21,252.36 188.86,255.25C189.51,258.14 190.31,261.51 190.64,262.75C191.39,265.61 189.46,265.73 187.95,262.91ZM197.03,279.25C195.29,277.19 192.99,274.54 191.93,273.36C189.49,270.66 189.5,270 191.98,270C193.27,270 194.58,271.3 195.78,273.75C196.78,275.81 198.42,278.74 199.41,280.25C202,284.17 200.76,283.65 197.03,279.25ZM177.22,211.58C174.39,216.19 172.47,219.78 170.44,224.66C171.34,222.04 171.83,219.99 171.62,219.45C171.27,218.54 172.2,216.86 173.97,215.22C174.98,214.27 176.21,212.89 177.22,211.58ZM318.66,360.36L325.11,353.51C331.06,347.2 340.89,338.86 350.4,331.85C340.42,339.27 329.79,348.39 324.62,354.24L318.96,360.65L318.66,360.36ZM168.26,230.25C167.15,233.23 165.92,236.72 164.45,241C161.97,248.23 159.93,254.8 158.31,260.85C161.1,250.14 164.81,238.59 168.26,230.25ZM261.03,294.73C260.77,294.48 260.52,294.26 260.29,294.05C257.65,291.73 256.4,290.13 257.5,290.5C257.54,290.51 257.57,290.53 257.61,290.54C257.71,290.91 258.97,292.45 261.03,294.73ZM411.98,157.64C411.74,156.76 408.84,153.11 405.21,149.11C409.01,153.1 412,156.66 412,157.56C412,157.58 411.99,157.61 411.98,157.64ZM495.95,173.03C498.13,173.08 499.37,173.25 500.42,173.78C498.69,172.97 496.48,172.95 490.5,173.24C486.19,173.45 482.43,173.99 478.29,175.1C482.79,173.77 485.72,173.47 490.54,173.23C492.86,173.12 494.59,173.04 495.95,173.03ZM396.15,140.28C393.29,137.88 390.35,135.75 387.28,133.87C388.67,134.71 390.09,135.6 391.54,136.57C392.72,137.36 394.34,138.68 396.15,140.28ZM383.96,131.96C379.36,129.49 374.46,127.54 369.09,126.02C371.94,126.8 374.65,127.7 377.25,128.73C379.5,129.67 381.71,130.74 383.96,131.96ZM233.57,203.53C233.71,203.37 233.84,203.2 233.97,203.03C235.07,201.65 236.94,200.09 239.17,198.59C237.33,199.88 235.69,201.26 234.41,202.65C234.13,202.96 233.85,203.25 233.57,203.53ZM433.33,168.79C433.36,168.7 433.37,168.6 433.36,168.5C433.29,168.01 432.28,166.9 431.03,165.89C431.61,166.27 432.12,166.67 432.54,167.04C433.27,167.86 433.6,168.32 433.33,168.79ZM510.52,174.9L510.28,174L513.84,174C511.17,174 510.36,174.11 510.52,174.9ZM521.01,175.19C518.73,174.52 515.81,174.02 513.96,174C516.25,174 518.68,174.43 521.01,175.19ZM283.22,101.1C280.25,101.29 277.32,101.75 274.49,102.49C276.31,101.99 278.16,101.61 280.02,101.36C281.06,101.24 282.13,101.15 283.22,101.1ZM267.15,219.82C268.53,222.66 269.97,225.13 271.61,227.52C269.93,225.12 268.54,222.75 267.15,219.82ZM412.56,113.34C411.31,112.4 409.97,111.67 408.49,111.13C410,111.63 411.3,112.33 412.56,113.34ZM454.46,177.42C454.33,177.11 454.01,176.76 453.51,176.39C453.52,176.39 453.53,176.4 453.53,176.4C453.85,176.63 454.11,176.83 454.3,177.01C454.39,177.14 454.44,177.28 454.46,177.42ZM528.01,178.79C527.23,178.21 526.37,177.64 525.48,177.12C526.39,177.63 527.24,178.19 528.01,178.79ZM369.81,319.06C371.34,318.11 372.4,317.44 372.68,317.26C373.15,316.96 373.85,314.63 374.49,311.8C373.85,314.63 373.15,316.97 372.68,317.27C372.4,317.46 371.34,318.12 369.81,319.06ZM223.69,127.37C223.56,127.19 223.43,127.02 223.29,126.86C222.85,126.35 222.59,125.94 222.51,125.48C222.59,125.93 222.86,126.35 223.31,126.86C223.43,127 223.56,127.17 223.69,127.37ZM154.95,275.89C154.82,276.6 154.71,277.3 154.6,277.99C154.1,281.17 153.66,283.16 153.14,284.34C153.66,283.16 154.1,281.17 154.6,277.99C154.7,277.31 154.82,276.61 154.95,275.89ZM253.63,192.44C254.25,192.48 254.82,192.7 255.38,193.18C254.79,192.68 254.21,192.47 253.56,192.44L253.63,192.44ZM295.14,101.81C295.3,101.84 295.45,101.87 295.61,101.91C295.27,101.84 294.94,101.78 294.61,101.72C294.79,101.75 294.96,101.78 295.14,101.81Z" style="fill:rgb(66,139,31);fill-rule:nonzero;"/>
        <path d="M207.32,126.02C209.97,123.21 210.04,122.9 208.57,120.79C206.23,117.46 206.61,112.62 209.47,109.22C211.6,106.68 211.86,105.62 211.36,101.37L210.77,96.45L196.27,103.77C196.18,103.81 196.1,103.85 196.01,103.9C203.32,100.06 210.58,95.94 210.79,95.25C211.17,94 210.29,93.74 208.27,94.44C209.13,94.04 209.8,93.75 210.25,93.61C211.54,93.21 212,92 212,89.03C212,86.81 211.73,85 211.41,85C211.06,85 210.65,84.91 213.12,83.48C216.2,81.69 219.8,79.89 221.12,79.48C222.42,79.08 239.07,70.82 258.22,61.08C239.59,70.56 224.39,78.33 224.26,78.44C224.13,78.55 223.73,80.11 223.37,81.91L222.72,85.17L225.34,83.82C222.79,85.29 222,86.29 222,87.71C222,88.97 222.13,90 222.3,90C222.63,90 227.75,87.38 237.27,82.34C233.27,84.47 230.1,86.14 228.5,86.98L221.5,90.62L221.21,99.31C221.03,104.7 221.31,108 221.94,108C223.33,108 226,113.39 226,116.2C225.99,117.47 225.07,120.01 223.94,121.86C222.8,123.73 222.36,124.67 222.51,125.48C222.59,125.94 222.85,126.35 223.29,126.86C223.43,127.02 223.56,127.19 223.69,127.37C224.64,128.77 225.78,131.44 226.73,134.36C228.46,140.54 229.44,149.44 229.48,160C229.5,166.16 229.37,166.52 227.03,166.85C225.67,167.04 223.66,167.83 222.56,168.59C221.47,169.36 218.33,170.28 215.6,170.65C211.66,171.17 209.69,172.16 206.18,175.4C203.91,177.49 200.04,181.67 196.06,186.22C190.39,192.45 184.71,199.33 182.5,203.04C181.4,204.89 180.05,207.11 179.5,207.97C178.68,209.25 177.92,210.45 177.22,211.58C176.21,212.89 174.98,214.27 173.97,215.22C172.2,216.86 171.27,218.54 171.62,219.45C171.83,219.99 171.34,222.04 170.44,224.66C169.74,226.34 169.03,228.17 168.26,230.25C164.81,238.59 161.1,250.14 158.31,260.85C156.87,266.24 155.76,271.22 154.95,275.89C154.82,276.61 154.7,277.31 154.6,277.99C154.12,280.99 153.71,282.93 153.23,284.14C153.06,283.93 152.79,283.75 152.41,283.6C151.17,283.13 150.57,282.94 150.27,283.15C150.22,282.87 150.19,282.57 150.19,282.22C150.44,279.73 151.19,275.69 152.48,269.26C160.89,227.27 173.1,201.18 194.62,179.2C199.78,173.93 204,169.11 204,168.49C204,167.88 202.43,166.62 200.5,165.7C198.57,164.78 197.01,163.69 197.02,163.27C197.03,162.84 197.69,158.23 198.5,153C198.64,152.1 198.77,151.25 198.89,150.47C199.89,144.08 200.27,141.64 199.33,140.91C199.01,140.66 198.54,140.61 197.89,140.67L199.5,140.35L201.26,133.42C202.04,130.37 202.63,127.34 202.76,125.86C202.78,126.01 202.8,126.16 202.82,126.32C203.22,129.73 203.86,129.69 207.32,126.02ZM288.59,175.95C281.1,174.07 273.97,168.76 270.9,162.79C268.6,158.3 268.36,148.77 270.42,143.87C274.12,135.09 283.87,130.1 291.58,133.03L294.29,134.06L292.26,136.28C287.24,141.78 284.88,151.08 286.93,157.3C289.86,166.17 299.38,173.91 307.5,174.02C310.08,174.06 310.25,174.21 308.69,175.11C306.16,176.59 293.28,177.12 288.59,175.95ZM320.25,114.02C324.56,117.68 329.45,122.46 333.64,127.13C339.7,134.42 345.81,144 344.34,144C344.01,144 338.96,139.1 333.12,133.11C307.02,106.36 283.37,100.39 258.01,114.16L250.5,118.24L254.5,114.06C256.42,112.05 258.53,110.26 260.78,108.71C265.16,105.85 269.75,103.77 274.49,102.49C277.32,101.75 280.25,101.29 283.22,101.1C287,100.92 290.95,101.13 294.61,101.72C294.94,101.78 295.27,101.84 295.61,101.91C298.86,102.57 302.13,103.58 305.41,104.94C310.55,107.11 315.24,109.94 320.25,114.02ZM411.98,157.64C411.88,157.9 411.33,158.34 410.47,158.89C409.39,158.86 407.96,158.26 406.93,157.17C402.83,152.83 390.41,143.23 382.5,138.28C376.29,134.4 363.05,128.97 352.5,125.96C343.04,123.26 341.16,122.02 346.98,122.36C348.65,122.56 350.4,122.76 352.05,122.94C358.32,123.62 363.94,124.62 369.09,126.02C374.46,127.54 379.36,129.49 383.96,131.96C385.06,132.56 386.16,133.2 387.28,133.87C390.35,135.75 393.29,137.88 396.15,140.28C399.01,142.83 402.34,146.09 405.21,149.11C408.84,153.11 411.74,156.76 411.98,157.64ZM412.56,113.34C414.27,114.72 415.88,116.67 417.74,119.42C419.42,121.9 420.84,124.82 421.95,127.95C422.61,129.87 422.95,131.55 422.82,132.62C422.52,135.07 422.33,134.93 420.28,130.67C413.35,116.3 401.93,112.16 387.13,118.65C380.24,121.66 380.04,121.62 383.56,117.87C387.3,113.89 394.07,110.67 399.62,110.1C400.64,110.06 401.77,110.1 403.1,110.2C405.21,110.35 406.95,110.63 408.49,111.13C409.97,111.67 411.31,112.4 412.56,113.34ZM466.39,179.29C471.69,177.27 475.33,175.96 478.29,175.1C482.43,173.99 486.19,173.45 490.5,173.24C496.48,172.95 498.69,172.97 500.42,173.78C501.43,174.28 502.26,175.11 503.56,176.49C504.19,177.17 504.8,177.93 505.39,178.77C507.91,182.67 510.13,188 509.78,190.17C509.45,192.23 509.2,192.03 507.66,188.54C505.41,183.4 503.4,181.24 498.53,178.76C495.14,177.03 493.38,176.82 486.53,177.33C482.11,177.66 474.47,179.05 469.55,180.43C459.91,183.11 457.44,183.13 463.64,180.46C464.59,180.05 465.51,179.66 466.39,179.29ZM430.23,165.39C430.51,165.55 430.77,165.72 431.03,165.89C432.28,166.9 433.29,168.01 433.36,168.5C433.37,168.6 433.36,168.7 433.33,168.79C433.23,168.96 433.05,169.13 432.78,169.32C431.26,170.06 427.19,169.75 425.5,168.42C423.93,167.19 421.44,166.93 413.83,167.17C408.51,167.35 403.87,167.2 403.52,166.86C402.37,165.71 413.38,163.58 420.67,163.54C423.33,163.52 425.2,163.61 426.65,163.87C427.98,164.34 429.22,164.86 430.23,165.39ZM454.46,177.42C454.51,177.77 454.34,178.14 453.94,178.54C453.09,178.99 451.35,179.18 448.87,179.01C440.47,178.45 431.24,178.53 426.11,179.22C423.15,179.61 420.95,179.71 421.23,179.44C421.51,179.16 424.83,178.05 428.61,176.97C432.22,175.94 436.93,175.29 441.31,175.07C446.66,175.04 452.26,175.51 453.51,176.39C454.01,176.76 454.33,177.11 454.46,177.42ZM510.52,174.9C510.36,174.11 511.17,174 513.84,174L513.96,174C515.81,174.02 518.73,174.52 521.01,175.19C522.58,175.7 524.1,176.35 525.48,177.12C526.37,177.64 527.23,178.21 528.01,178.79C528.74,179.36 529.4,179.97 529.96,180.6C530.51,181.23 531,181.83 531.42,182.4C531.53,182.7 531.53,182.96 531.41,183.15C530.68,184.33 530.16,184.19 524.62,181.31C521.93,179.91 517.98,178.54 515.83,178.25C513.43,177.93 511.54,177.01 510.93,175.86C510.76,175.55 510.64,175.29 510.57,175.08L510.52,174.9ZM151.71,274C151.32,275.49 151.68,276 153.13,276C154.76,276 154.9,275.68 154,274C153.41,272.9 152.77,272 152.58,272C152.39,272 152,272.9 151.71,274ZM158.23,246.81C158.01,247.47 158.55,248 159.42,248C160.29,248 161,247.29 161,246.42C161,244.65 158.85,244.96 158.23,246.81ZM181.27,145.81C181.71,145.6 182.2,145.36 182.75,145.09C184.32,144.33 186.68,143.45 189.04,142.73C187.15,143.34 185.25,144.04 183.75,144.71L181.27,145.81ZM215.09,208.21C215.7,206.77 216.39,205.37 217.15,204C217.36,203.62 217.58,203.24 217.81,202.86C217.58,203.3 217.33,203.77 217.05,204.25C216.33,205.53 215.68,206.85 215.09,208.21ZM232.22,80.21C233.83,79.31 235.24,78.49 236,77.98C237.93,76.71 241.33,74.83 257.03,66.54C241.26,74.87 237.93,76.71 236,78C235.26,78.5 233.85,79.31 232.22,80.21ZM211.64,220.61C212.23,216.33 213.39,212.12 215.09,208.21C213.39,212.17 212.23,216.36 211.64,220.61ZM178.02,152.39C178.03,155.2 178.92,160.88 180,165C178.92,160.88 178.03,155.23 178.02,152.45L178.02,152.39Z" style="fill:rgb(203,196,60);fill-rule:nonzero;"/>
        <path d="M304.37,401.22C297.14,398.64 294.32,395.55 292.03,391.07C289.93,386.95 288.06,385.83 270.56,378.29C236.46,363.58 194.9,355.84 148.5,350.37C123.34,347.4 80.04,345.57 57.68,348.63C53.14,349.25 53,349.19 53,346.67C53,345.21 53.77,343.67 54.75,343.15C60.05,340.37 88.681,337 114.731,337.01C167.211,337.04 212.66,346.78 256.16,364.54C275.46,372.42 293.49,382.37 294.71,385.82C296.9,392.04 305.68,394.41 319.5,394.32C331.67,394.24 337.44,393.05 340.94,387.2C343.82,382.38 345.77,381.06 362,372.96C391.32,358.34 426.833,347.299 464.573,341.969C497.213,337.359 529.952,336.776 559.142,339.386C577.222,340.996 582,342.57 582,346.58C582,349.2 581.866,350.99 577.136,350.37C511.426,341.65 420.43,353.59 358.95,381.42C347.12,386.78 346.29,387.35 344.45,391.3C342.87,394.71 341.37,397.07 336.51,399.49C331.17,402.16 329.37,402.52 320.01,402.76C311.84,402.98 308.36,402.64 304.37,401.22ZM362,118.28C360.62,118.03 358.51,116.91 357.3,115.79C356.09,114.67 353.71,113.59 352.02,113.39C350.32,113.19 348.04,112.56 346.96,111.98C345.61,111.25 344.4,111.25 343.07,111.96C342,112.53 339.26,113 336.98,113C332.5,113 327.48,110 319.91,102.8C317.73,100.72 314.72,98.72 313.22,98.35C311.72,97.98 307.65,96.4 304.16,94.84C300.17,93.05 296.09,91.99 293.16,91.98C287.92,91.97 279.56,89.78 280.63,88.7C281.02,88.32 279.23,88 276.67,88C274.1,88 270.56,86.692 270.56,86.232C270.56,84.932 284.49,79.29 294.46,76.94C304.69,74.53 322.39,74.02 330.38,75.91C342.54,78.79 354.22,86.71 361.19,96.79C364.82,102.04 371.08,116.58 370.26,117.4C369.62,118.05 365.98,118.99 362,118.28ZM391.5,345.05C387.65,346.57 380.67,349.44 376,351.43C363.73,356.63 369.43,352.54 385.5,344.61C404.03,335.46 418.46,330.6 442.5,325.38C474.67,318.4 512.88,317.39 546.42,322.64C566.07,325.72 563.33,327.02 542.5,324.51C535.83,323.71 521.62,323.05 510.5,323.04C468.07,323 428.9,330.24 391.5,345.05ZM269.5,353.4C272.78,355.91 269.15,355.17 263.46,352.16C258.38,349.47 257.58,349.12 246.19,344.5C225.47,336.08 197.4,328.59 175,325.5C148.49,321.84 110.41,321.83 86.26,325.46C85.49,325.57 84.77,325.68 84.11,325.78C76.65,326.91 75.27,327.12 75.03,326.69C74.98,326.59 74.99,326.46 74.99,326.3C75,326.24 75,326.17 75,326.1C75,325.17 79.64,324.24 99,321.3C116.87,318.58 158.58,318.85 178.24,321.82C201.29,325.3 221.69,330.78 239.04,338.14C247.07,341.55 267.19,351.63 269.5,353.4ZM232.22,80.21C233.85,79.31 235.26,78.5 236,78C237.93,76.71 241.26,74.87 257.03,66.54C260.66,64.62 264.93,62.37 270,59.7C276.33,56.37 283.15,52.62 285.17,51.36C290.87,47.81 293.13,47.65 305.21,49.92C311.42,51.09 328.49,54.28 343.15,57.02C370.82,62.18 379.62,64.45 368.5,63.56C360.91,62.95 331.55,58.86 309.76,55.37L293.01,52.69L285.76,56.48C281.76,58.57 268.83,65.46 257,71.8C250.1,75.5 242.86,79.37 237.27,82.34C227.75,87.38 222.33,90.642 222,90.642C221.83,90.642 221.966,88.97 222,87.71C222.048,85.93 222.048,85.93 222.41,85.064L228.11,82.41C229.44,81.72 230.9,80.94 232.22,80.21ZM354.91,351.17C345.9,357.19 342.25,358.8 347.5,354.43C351.42,351.17 369.25,339.08 375,335.79C383.64,330.84 400.61,323.71 415,318.98C439.51,310.92 467.2,306.95 498,307.08C524.41,307.19 526.77,308.48 502,309.27C471.38,310.24 450.12,313.13 426.25,319.57C402.53,325.96 373.11,339 354.91,351.17ZM286,351.91C288.48,354.13 290.27,355.91 290,355.87C289.73,355.84 285.9,353.36 281.5,350.37C261.04,336.45 229.31,322.98 201.8,316.53C182.7,312.05 165.05,309.78 135.5,308C125.27,307.38 128.04,307.28 148.5,307.51C175.11,307.82 185.03,308.82 204.5,313.12C232.05,319.22 269.23,336.92 286,351.91ZM210.86,96.296C210.65,96.986 203.32,100.06 196.01,103.9C188.14,107.86 181.35,110.95 180.86,110.79C179.7,110.4 202.59,96.649 210.08,93.119C212.1,92.419 211.24,95.046 210.86,96.296ZM211.89,84.16C208.38,86.1 200.38,90.3 191.42,94.91C176.74,102.37 159.27,111.4 158.71,111.93C156.91,113.64 161.74,115.2 181.59,119.31C195.41,122.17 200.1,123.16 201.78,124.28C199.84,123.35 194.93,122.1 186.5,120.36C164.22,115.76 155.99,113.8 156.06,113.1C156.09,112.77 162.51,109.36 170.31,105.52C178.11,101.68 191.7,94.74 200.5,90.11C204.63,87.93 208.65,85.84 211.89,84.16ZM259.13,60.62L258.22,61.08C241.61,69.53 226.88,76.86 222.41,78.92C228.64,75.84 242.41,68.94 257.64,61.25C267.65,56.2 276.12,52.04 282.6,48.97C276.48,51.89 268.55,55.82 259.13,60.62ZM215.09,208.21C215.7,206.77 216.39,205.37 217.15,204C217.34,203.66 217.54,203.31 217.75,202.96C217.77,202.93 217.79,202.89 217.81,202.86C217.58,203.3 217.33,203.77 217.05,204.25C216.33,205.53 215.68,206.85 215.09,208.21ZM211.77,219.76C212.39,215.77 213.5,211.86 215.09,208.21C213.39,212.16 212.23,216.36 211.64,220.61C211.68,220.33 211.72,220.05 211.77,219.76Z" style="fill:rgb(50,78,108);fill-rule:nonzero;"/>
    </g>
</svg>
