<?xml version='1.0' encoding='utf-8'?>
<svg xmlns="http://www.w3.org/2000/svg" xmlns:inkscape="http://www.inkscape.org/namespaces/inkscape" xmlns:sodipodi="http://sodipodi.sourceforge.net/DTD/sodipodi-0.dtd" xml:space="preserve" id="svg5" version="1.1" viewBox="0 0 96.837562 62.970835" height="238" width="366" inkscape:version="1.2.2 (b0a84865, 2022-12-01)" sodipodi:docname="bijx.svg"><sodipodi:namedview id="namedview7" pagecolor="#ffffff" bordercolor="#666666" borderopacity="1.0" inkscape:showpageshadow="2" inkscape:pageopacity="0.0" inkscape:pagecheckerboard="0" inkscape:deskcolor="#d1d1d1" inkscape:document-units="mm" showgrid="false" inkscape:zoom="1.607699" inkscape:cx="205.2623" inkscape:cy="206.50632" inkscape:window-width="1512" inkscape:window-height="916" inkscape:window-x="0" inkscape:window-y="38" inkscape:window-maximized="0" inkscape:current-layer="layer1"><inkscape:grid type="xygrid" id="grid2807" originx="0" originy="0" /></sodipodi:namedview><defs id="defs2" /><g inkscape:label="Layer 1" inkscape:groupmode="layer" id="layer1" style="display:inline"><g id="g6140" inkscape:label="bijax" transform="translate(-6.1943225,2.710253)"><path id="path2846-1" style="display:inline;fill:#112136;fill-opacity:1;stroke-width:2.5;stroke:#ffffff;stroke-linejoin:round;stroke-linecap:round" d="m 16.87972,1.7176423 c 0.05269,5.732777 0.01782,11.4697427 0,17.2041177 0.05273,3.596296 0,12.055078 0,12.055078 1.526631,-4.446748 2.523644,-6.831765 5.768123,-9.469706 0,0 0.02329,-11.9238667 0,-15.0900347 -0.02329,-2.305555 -3.528455,-4.079251 -5.768123,-4.699455 z m 31.403251,8.7808587 a 2.8839583,2.8839583 0 0 0 -2.883545,2.884062 2.8839583,2.8839583 0 0 0 2.883545,2.883545 2.8839583,2.8839583 0 0 0 2.884062,-2.883545 2.8839583,2.8839583 0 0 0 -2.884062,-2.884062 z m 11.854574,0 a 2.8839583,2.8839583 0 0 0 -2.884062,2.884062 2.8839583,2.8839583 0 0 0 2.884062,2.883545 2.8839583,2.8839583 0 0 0 2.883545,-2.883545 2.8839583,2.8839583 0 0 0 -2.883545,-2.884062 z m -30.652393,9.559624 c -1.533716,0.01658 -3.053847,0.442554 -4.414201,1.443839 -3.77006,2.626469 -6.685397,7.514564 -7.434171,13.231234 0.670409,4.55399 4.896508,8.083161 9.300207,8.910567 1.708053,0.25464 2.730225,-0.134945 3.340365,-0.886251 l -0.01447,0.08578 c 3.77143,-3.937934 9.073597,-9.896885 12.861231,-13.826029 3.391517,-3.481072 5.311869,-3.552789 8.000028,-3.801319 v -5.035351 c -0.834579,-0.013 -1.863371,0.0344 -3.195153,0 -4.278578,-0.0011 -6.963992,3.367813 -12.463839,9.141561 l -5.559351,6.572725 c -0.705401,0.826726 -1.880359,2.308547 -3.758943,1.418001 -4.452325,-2.140502 -4.618341,-8.885432 0.48059,-11.241691 3.183089,-1.266004 6.248606,0.04572 7.759734,2.332158 l 3.85041,-4.290695 c -1.939702,-2.14753 -5.378258,-4.09101 -8.752437,-4.054532 z m 40.225969,0.109037 c -3.820124,0 -7.008015,4.034337 -9.138461,6.752042 -3.694572,5.274818 -3.248661,11.405158 -3.323311,17.270264 0,2.674898 -1.710865,6.149058 -4.855001,5.969662 v 5.673555 c 5.938905,-0.0012 9.942656,-5.369459 10.236585,-8.767423 0.215281,-3.620988 0.282792,-7.345503 0.346748,-11.641667 0.102852,-0.880596 0.219573,-3.136213 1.402499,-5.076176 1.182926,-1.939963 2.955976,-4.71471 6.382039,-5.110282 l 4.807975,6.307625 -10.112561,12.117606 h 7.431588 l 6.4394,-7.739062 5.768124,7.739062 c 2.475934,-0.0132 4.775164,0.0878 7.24968,0 L 83.044157,31.544762 92.346425,20.180598 h -7.24968 l -5.789311,6.998539 -5.672522,-6.998539 z m -12.461772,0.01344 c -4e-5,3.505574 -0.06293,6.580939 0,10.023677 1.17935,-2.929777 3.168638,-5.670438 5.728332,-7.99021 v -2.033467 z m -6.125208,6.469889 c -1.932787,0.18182 -3.896718,0.476122 -5.694742,1.966288 v 7.401099 7.645011 h 3.52795 c 3.096236,-0.0081 5.367378,-1.534282 7.141166,-3.618384 0.08385,-2.114328 -0.141417,-4.608087 0.743624,-7.858951 -1.045072,1.109136 -4.424835,3.798558 -5.717998,4.995044 -0.05521,-3.271988 -0.01005,-7.257505 0,-10.530107 z M 41.284432,33.047 c -2.744926,2.736864 -5.273216,5.804084 -7.985559,8.618078 -0.637559,0.70851 -1.318756,1.386584 -1.899626,2.143022 5.185639,-0.857588 9.71599,-5.413122 9.885185,-10.7611 z" inkscape:label="bijax" /><path id="path2846-1" style="display:inline;fill:#112136;fill-opacity:1;stroke-width:0.0820799" d="m 16.87972,1.7176423 c 0.05269,5.732777 0.01782,11.4697427 0,17.2041177 0.05273,3.596296 0,12.055078 0,12.055078 1.526631,-4.446748 2.523644,-6.831765 5.768123,-9.469706 0,0 0.02329,-11.9238667 0,-15.0900347 -0.02329,-2.305555 -3.528455,-4.079251 -5.768123,-4.699455 z m 31.403251,8.7808587 a 2.8839583,2.8839583 0 0 0 -2.883545,2.884062 2.8839583,2.8839583 0 0 0 2.883545,2.883545 2.8839583,2.8839583 0 0 0 2.884062,-2.883545 2.8839583,2.8839583 0 0 0 -2.884062,-2.884062 z m 11.854574,0 a 2.8839583,2.8839583 0 0 0 -2.884062,2.884062 2.8839583,2.8839583 0 0 0 2.884062,2.883545 2.8839583,2.8839583 0 0 0 2.883545,-2.883545 2.8839583,2.8839583 0 0 0 -2.883545,-2.884062 z m -30.652393,9.559624 c -1.533716,0.01658 -3.053847,0.442554 -4.414201,1.443839 -3.77006,2.626469 -6.685397,7.514564 -7.434171,13.231234 0.670409,4.55399 4.896508,8.083161 9.300207,8.910567 1.708053,0.25464 2.730225,-0.134945 3.340365,-0.886251 l -0.01447,0.08578 c 3.77143,-3.937934 9.073597,-9.896885 12.861231,-13.826029 3.391517,-3.481072 5.311869,-3.552789 8.000028,-3.801319 v -5.035351 c -0.834579,-0.013 -1.863371,0.0344 -3.195153,0 -4.278578,-0.0011 -6.963992,3.367813 -12.463839,9.141561 l -5.559351,6.572725 c -0.705401,0.826726 -1.880359,2.308547 -3.758943,1.418001 -4.452325,-2.140502 -4.618341,-8.885432 0.48059,-11.241691 3.183089,-1.266004 6.248606,0.04572 7.759734,2.332158 l 3.85041,-4.290695 c -1.939702,-2.14753 -5.378258,-4.09101 -8.752437,-4.054532 z m 40.225969,0.109037 c -3.820124,0 -7.008015,4.034337 -9.138461,6.752042 -3.694572,5.274818 -3.248661,11.405158 -3.323311,17.270264 0,2.674898 -1.710865,6.149058 -4.855001,5.969662 v 5.673555 c 5.938905,-0.0012 9.942656,-5.369459 10.236585,-8.767423 0.215281,-3.620988 0.282792,-7.345503 0.346748,-11.641667 0.102852,-0.880596 0.219573,-3.136213 1.402499,-5.076176 1.182926,-1.939963 2.955976,-4.71471 6.382039,-5.110282 l 4.807975,6.307625 -10.112561,12.117606 h 7.431588 l 6.4394,-7.739062 5.768124,7.739062 c 2.475934,-0.0132 4.775164,0.0878 7.24968,0 L 83.044157,31.544762 92.346425,20.180598 h -7.24968 l -5.789311,6.998539 -5.672522,-6.998539 z m -12.461772,0.01344 c -4e-5,3.505574 -0.06293,6.580939 0,10.023677 1.17935,-2.929777 3.168638,-5.670438 5.728332,-7.99021 v -2.033467 z m -6.125208,6.469889 c -1.932787,0.18182 -3.896718,0.476122 -5.694742,1.966288 v 7.401099 7.645011 h 3.52795 c 3.096236,-0.0081 5.367378,-1.534282 7.141166,-3.618384 0.08385,-2.114328 -0.141417,-4.608087 0.743624,-7.858951 -1.045072,1.109136 -4.424835,3.798558 -5.717998,4.995044 -0.05521,-3.271988 -0.01005,-7.257505 0,-10.530107 z M 41.284432,33.047 c -2.744926,2.736864 -5.273216,5.804084 -7.985559,8.618078 -0.637559,0.70851 -1.318756,1.386584 -1.899626,2.143022 5.185639,-0.857588 9.71599,-5.413122 9.885185,-10.7611 z" inkscape:label="bijax" /></g></g></svg>
