<?xml version='1.0' encoding='utf-8'?>
<svg xmlns="http://www.w3.org/2000/svg" xmlns:inkscape="http://www.inkscape.org/namespaces/inkscape" xmlns:sodipodi="http://sodipodi.sourceforge.net/DTD/sodipodi-0.dtd" xml:space="preserve" id="svg5" version="1.1" viewBox="0 0 96.837562 96.837503" height="366" width="366" inkscape:version="1.2.2 (b0a84865, 2022-12-01)" sodipodi:docname="bijx-favicon.svg"><sodipodi:namedview id="namedview7" pagecolor="#ffffff" bordercolor="#666666" borderopacity="1.0" inkscape:showpageshadow="2" inkscape:pageopacity="0.0" inkscape:pagecheckerboard="0" inkscape:deskcolor="#d1d1d1" inkscape:document-units="mm" showgrid="false" inkscape:zoom="0.60729396" inkscape:cx="-83.155775" inkscape:cy="-3.293298" inkscape:window-width="1512" inkscape:window-height="916" inkscape:window-x="0" inkscape:window-y="38" inkscape:window-maximized="0" inkscape:current-layer="layer1"><inkscape:grid type="xygrid" id="grid2807" originx="0" originy="0" /></sodipodi:namedview><defs id="defs2" /><g inkscape:label="Layer 1" inkscape:groupmode="layer" id="layer1" style="display:inline"><g id="g1180" transform="matrix(1.1747241,0,0,1.1747241,-8.4599225,-7.5044895)"><path style="display:inline;fill:#112136;fill-opacity:1;stroke-width:2.0;stroke:#ffffff;stroke-linejoin:round;stroke-linecap:round" d="m 34.871029,52.35924 c 0.04188,-0.919113 0.253113,-3.488545 -0.149295,-3.145379 -3.176342,2.708726 -10.246773,9.14728 -13.371657,13.313226 1.991416,0.314163 2.367627,0.244245 4.117745,0.06746 5.185639,-0.857588 9.234012,-4.887327 9.403207,-10.235305 z" id="path6183" sodipodi:nodetypes="cscccc" /><path style="display:inline;fill:#112136;fill-opacity:1;stroke-width:2.0;stroke:#ffffff;stroke-linejoin:round;stroke-linecap:round" d="m 44.929819,43.646562 c -1.932787,0.18182 -3.896718,-0.204304 -5.694742,1.285862 v 9.915715 7.645011 h 3.52795 c 3.096236,-0.0081 5.367378,-1.534282 7.141166,-3.618384 0.08385,-2.114328 -0.141417,-4.608087 0.743624,-7.858951 -1.045072,1.109136 -4.424835,3.798558 -5.717998,4.995044 -0.05521,-3.271988 -0.01005,-9.091695 0,-12.364297 z" id="path6181" sodipodi:nodetypes="ccccccccc" /><path style="display:inline;fill:#112136;fill-opacity:1;stroke-width:2.0;stroke:#ffffff;stroke-linejoin:round;stroke-linecap:round" d="m 51.055027,39.010863 c -4e-5,3.505574 -0.06293,6.580939 0,10.023677 1.17935,-2.929777 3.168638,-5.670438 5.728332,-7.99021 v -2.033467 z" id="path6179" /><path style="display:inline;fill:#112136;fill-opacity:1;stroke-width:2.0;stroke:#ffffff;stroke-linejoin:round;stroke-linecap:round" d="m 63.516799,38.997423 c -3.820125,0 -7.008015,4.034337 -9.138461,6.752042 -3.694572,5.274818 -3.248661,11.405158 -3.323311,17.270264 0,2.674898 -1.710865,6.149058 -4.855001,5.969662 v 5.673555 c 5.938905,-0.0012 9.942656,-5.369459 10.236585,-8.767423 0.215281,-3.620988 0.282792,-7.345503 0.346748,-11.641667 0.102852,-0.880596 0.219573,-3.136213 1.402499,-5.076176 1.182926,-1.939963 2.955976,-4.71471 6.382039,-5.110282 l 4.807975,6.307625 -10.112561,12.117606 h 7.431588 l 6.4394,-7.739062 5.768124,7.739062 c 2.475934,-0.0132 4.775164,0.0878 7.24968,0 L 76.849834,50.375023 86.152102,39.010859 h -7.24968 l -5.78931,6.998539 -5.672522,-6.998539 z" id="path6177" /><path style="display:inline;fill:#112136;fill-opacity:1;stroke-width:2.0;stroke:#ffffff;stroke-linejoin:round;stroke-linecap:round" d="m 23.290829,38.888386 c -1.533715,0.01658 -3.053846,0.442554 -4.4142,1.443839 -3.77006,2.626469 -6.685398,7.514564 -7.434171,13.231234 0.670409,4.55399 4.896507,8.083161 9.300207,8.910567 1.708053,0.25464 2.730224,-0.134945 3.340365,-0.886251 l -0.01447,0.08578 c 3.771431,-3.937934 9.073597,-9.896885 12.861232,-13.826029 3.391517,-3.481072 5.311869,-3.552789 8.000028,-3.801319 v -5.035351 c -0.834579,-0.013 -1.863371,0.0344 -3.195153,0 -4.278578,-0.0011 -7.230239,3.793808 -12.35734,9.407808 0.769377,2.232569 -0.178264,5.706455 -2.368969,7.152685 -0.705401,0.826726 -5.17724,1.46234 -7.055824,0.571794 -4.452325,-2.140502 -4.618341,-8.885432 0.48059,-11.241691 3.183089,-1.266004 6.248606,0.04572 7.759734,2.332158 l 3.85041,-4.290695 c -1.939702,-2.14753 -5.378259,-4.09101 -8.752438,-4.054532 z" id="path6175" sodipodi:nodetypes="scccccccccccccccss" /><path style="display:inline;fill:#112136;fill-opacity:1;stroke-width:2.0;stroke:#ffffff;stroke-linejoin:round;stroke-linecap:round" d="m 53.943223,29.328762 a 2.8839583,2.8839583 0 0 0 -2.884062,2.884062 2.8839583,2.8839583 0 0 0 2.884062,2.883545 2.8839583,2.8839583 0 0 0 2.883545,-2.883545 2.8839583,2.8839583 0 0 0 -2.883545,-2.884062 z" id="path6173" /><path style="display:inline;fill:#112136;fill-opacity:1;stroke-width:2.0;stroke:#ffffff;stroke-linejoin:round;stroke-linecap:round" d="m 42.088649,29.328762 a 2.8839583,2.8839583 0 0 0 -2.883545,2.884062 2.8839583,2.8839583 0 0 0 2.883545,2.883545 2.8839583,2.8839583 0 0 0 2.884062,-2.883545 2.8839583,2.8839583 0 0 0 -2.884062,-2.884062 z" id="path6171" /><path style="display:inline;fill:#112136;fill-opacity:1;stroke-width:2.0;stroke:#ffffff;stroke-linejoin:round;stroke-linecap:round" d="m 10.685397,20.547903 c 0.05269,5.732777 0.01782,11.469743 0,17.204118 0.03082,2.101752 0.02561,5.864276 0.01597,8.628542 -0.0069,1.965656 0.175152,4.382147 0.175152,4.382147 0.221736,1.952434 1.319128,5.993099 1.072507,3.767863 -0.17942,-1.618897 2.949809,-9.934887 4.504494,-11.198933 0,0 0.02329,-14.918114 0,-18.084282 -0.02329,-2.305555 -3.528455,-4.079251 -5.768123,-4.699455 z" id="path2846-1" sodipodi:nodetypes="ccscsccc" /><path style="display:inline;fill:#112136;fill-opacity:1;stroke-width:0.0820799" d="m 34.871029,52.35924 c 0.04188,-0.919113 0.253113,-3.488545 -0.149295,-3.145379 -3.176342,2.708726 -10.246773,9.14728 -13.371657,13.313226 1.991416,0.314163 2.367627,0.244245 4.117745,0.06746 5.185639,-0.857588 9.234012,-4.887327 9.403207,-10.235305 z" id="path6183" sodipodi:nodetypes="cscccc" /><path style="display:inline;fill:#112136;fill-opacity:1;stroke-width:0.0820799" d="m 44.929819,43.646562 c -1.932787,0.18182 -3.896718,-0.204304 -5.694742,1.285862 v 9.915715 7.645011 h 3.52795 c 3.096236,-0.0081 5.367378,-1.534282 7.141166,-3.618384 0.08385,-2.114328 -0.141417,-4.608087 0.743624,-7.858951 -1.045072,1.109136 -4.424835,3.798558 -5.717998,4.995044 -0.05521,-3.271988 -0.01005,-9.091695 0,-12.364297 z" id="path6181" sodipodi:nodetypes="ccccccccc" /><path style="display:inline;fill:#112136;fill-opacity:1;stroke-width:0.0820799" d="m 51.055027,39.010863 c -4e-5,3.505574 -0.06293,6.580939 0,10.023677 1.17935,-2.929777 3.168638,-5.670438 5.728332,-7.99021 v -2.033467 z" id="path6179" /><path style="display:inline;fill:#112136;fill-opacity:1;stroke-width:0.0820799" d="m 63.516799,38.997423 c -3.820125,0 -7.008015,4.034337 -9.138461,6.752042 -3.694572,5.274818 -3.248661,11.405158 -3.323311,17.270264 0,2.674898 -1.710865,6.149058 -4.855001,5.969662 v 5.673555 c 5.938905,-0.0012 9.942656,-5.369459 10.236585,-8.767423 0.215281,-3.620988 0.282792,-7.345503 0.346748,-11.641667 0.102852,-0.880596 0.219573,-3.136213 1.402499,-5.076176 1.182926,-1.939963 2.955976,-4.71471 6.382039,-5.110282 l 4.807975,6.307625 -10.112561,12.117606 h 7.431588 l 6.4394,-7.739062 5.768124,7.739062 c 2.475934,-0.0132 4.775164,0.0878 7.24968,0 L 76.849834,50.375023 86.152102,39.010859 h -7.24968 l -5.78931,6.998539 -5.672522,-6.998539 z" id="path6177" /><path style="display:inline;fill:#112136;fill-opacity:1;stroke-width:0.0820799" d="m 23.290829,38.888386 c -1.533715,0.01658 -3.053846,0.442554 -4.4142,1.443839 -3.77006,2.626469 -6.685398,7.514564 -7.434171,13.231234 0.670409,4.55399 4.896507,8.083161 9.300207,8.910567 1.708053,0.25464 2.730224,-0.134945 3.340365,-0.886251 l -0.01447,0.08578 c 3.771431,-3.937934 9.073597,-9.896885 12.861232,-13.826029 3.391517,-3.481072 5.311869,-3.552789 8.000028,-3.801319 v -5.035351 c -0.834579,-0.013 -1.863371,0.0344 -3.195153,0 -4.278578,-0.0011 -7.230239,3.793808 -12.35734,9.407808 0.769377,2.232569 -0.178264,5.706455 -2.368969,7.152685 -0.705401,0.826726 -5.17724,1.46234 -7.055824,0.571794 -4.452325,-2.140502 -4.618341,-8.885432 0.48059,-11.241691 3.183089,-1.266004 6.248606,0.04572 7.759734,2.332158 l 3.85041,-4.290695 c -1.939702,-2.14753 -5.378259,-4.09101 -8.752438,-4.054532 z" id="path6175" sodipodi:nodetypes="scccccccccccccccss" /><path style="display:inline;fill:#112136;fill-opacity:1;stroke-width:0.0820799" d="m 53.943223,29.328762 a 2.8839583,2.8839583 0 0 0 -2.884062,2.884062 2.8839583,2.8839583 0 0 0 2.884062,2.883545 2.8839583,2.8839583 0 0 0 2.883545,-2.883545 2.8839583,2.8839583 0 0 0 -2.883545,-2.884062 z" id="path6173" /><path style="display:inline;fill:#112136;fill-opacity:1;stroke-width:0.0820799" d="m 42.088649,29.328762 a 2.8839583,2.8839583 0 0 0 -2.883545,2.884062 2.8839583,2.8839583 0 0 0 2.883545,2.883545 2.8839583,2.8839583 0 0 0 2.884062,-2.883545 2.8839583,2.8839583 0 0 0 -2.884062,-2.884062 z" id="path6171" /><path style="display:inline;fill:#112136;fill-opacity:1;stroke-width:0.0820799" d="m 10.685397,20.547903 c 0.05269,5.732777 0.01782,11.469743 0,17.204118 0.03082,2.101752 0.02561,5.864276 0.01597,8.628542 -0.0069,1.965656 0.175152,4.382147 0.175152,4.382147 0.221736,1.952434 1.319128,5.993099 1.072507,3.767863 -0.17942,-1.618897 2.949809,-9.934887 4.504494,-11.198933 0,0 0.02329,-14.918114 0,-18.084282 -0.02329,-2.305555 -3.528455,-4.079251 -5.768123,-4.699455 z" id="path2846-1" sodipodi:nodetypes="ccscsccc" /></g></g></svg>
