<svg width="1274" height="1592" xmlns="http://www.w3.org/2000/svg" xmlns:xlink="http://www.w3.org/1999/xlink" xml:space="preserve" overflow="hidden"><defs><clipPath id="clip0"><rect x="1924" y="386" width="1274" height="1592"/></clipPath><linearGradient x1="578.5" y1="0" x2="578.5" y2="1305" gradientUnits="userSpaceOnUse" spreadMethod="reflect" id="fill1"><stop offset="0" stop-color="#9B9B9B"/><stop offset="0.5" stop-color="#8E8E8E"/><stop offset="1" stop-color="#797979"/></linearGradient></defs><g clip-path="url(#clip0)" transform="translate(-1924 -386)"><path d="M2150.5 521.875 2410.38 521.875 2410.38 563.125 2150.5 563.125ZM2389.75 480.625 2513.5 542.5 2389.75 604.375Z"/><path d="M2507 386 2507 674.646" stroke="#000000" stroke-width="13.75" stroke-miterlimit="8" fill="none" fill-rule="evenodd"/><path d="M2633 386 2633 697.666" stroke="#000000" stroke-width="13.75" stroke-miterlimit="8" fill="none" fill-rule="evenodd"/><path d="M2.05052e-05-20.625 259.875-20.6247 259.875 20.6253-2.05052e-05 20.625ZM239.25-61.8748 363 0.000360892 239.25 61.8752Z" transform="matrix(-1 0 0 1 2999.5 542.5)"/><path d="M582.966 0 578.5 0.00793862 574.034 0C574.034 0.00541269 574.035 0.0104645 574.035 0.0158772L0 1.02769 8.19472 37.3494 13.1417 51.0309 97.1612 59.5934C112.169 245.018 102.428 118.358 114.686 274.912L455.2 274.186C455.188 544.175 455.175 814.162 455.163 1084.15L362.735 1088.85 358.036 1190.66 400.333 1195.36C400.855 1231.91 401.378 1268.45 401.9 1305L447.33 1301.87 444.197 1200.06 542.891 1195.36 546.024 1294.04 570.591 1300.58 586.409 1300.58 610.976 1294.04 614.109 1195.36 712.803 1200.06 709.67 1301.87 755.1 1305C755.622 1268.45 756.145 1231.91 756.667 1195.36L798.964 1190.66 794.265 1088.85 701.837 1084.15C701.825 814.162 701.812 544.175 701.8 274.186L1042.31 274.912C1054.57 118.358 1044.83 245.018 1059.84 59.5934L1143.86 51.0309 1148.81 37.3494 1157 1.02769 582.966 0.0158772 582.966 0Z" stroke="#000000" stroke-width="2.29167" stroke-miterlimit="8" fill="url(#fill1)" fill-rule="evenodd" transform="matrix(-1 0 0 1 3083 670)"/><path d="M1156.96 1.02782 582.944 0.0158793 582.944 0 578.479 0.00793963 574.013 0C574.013 0.00541339 574.013 0.0104659 574.013 0.0158793L0 1.02782 8.19442 37.3542 13.1412 51.0374 97.1576 59.601C112.165 245.05 102.424 118.373 114.682 274.947L455.183 274.222C484.182 443.868 480.293 601.109 480.001 714.305 479.995 849.138 461.9 1020.79 455.146 1083.22L362.848 1078.09 347.379 1178.85 388.937 1188 378.868 1297.21 424.373 1298.91 432.054 1197.33 530.686 1203.12 523.337 1301.59 547.07 1310.7 562.799 1312.38 587.92 1308.47 601.5 1210.67 699.136 1225.81 685.224 1326.72 730.064 1334.66 743.25 1225.79 785.805 1225.6 791.929 1123.85 700.524 1109.38 699.079 1109.21C699.218 1040.61 714.995 817.243 715.134 748.641 715.894 538.914 701.783 476.739 701.774 274.222L1042.28 274.947C1054.53 118.373 1044.79 245.05 1059.8 59.601L1143.82 51.0374 1148.76 37.3542 1156.96 1.02782Z" stroke="#000000" stroke-width="2.29167" stroke-miterlimit="8" stroke-opacity="0.501961" fill="#FFFFFF" fill-rule="evenodd" fill-opacity="0.501961" transform="matrix(-0.994362 -0.106035 -0.106035 0.994362 3196.3 726.521)"/><path d="M2629 670C2597.05 844.281 2559.09 1061.51 2535.46 1281.03 2518.71 1498.84 2512.85 1650.21 2507 1860" stroke="#A5A5A5" stroke-width="10.3125" stroke-miterlimit="8" stroke-dasharray="82.5 30.9375" fill="none" fill-rule="evenodd"/></g></svg>