<?xml version="1.0" encoding="UTF-8" standalone="no"?>
<svg
   width="432pt"
   height="156.763125pt"
   viewBox="0 0 432 156.763125"
   version="1.1"
   id="svg330"
   sodipodi:docname="comparison_plot.svg"
   inkscape:version="1.2.1 (9c6d41e410, 2022-07-14)"
   xmlns:inkscape="http://www.inkscape.org/namespaces/inkscape"
   xmlns:sodipodi="http://sodipodi.sourceforge.net/DTD/sodipodi-0.dtd"
   xmlns:xlink="http://www.w3.org/1999/xlink"
   xmlns="http://www.w3.org/2000/svg"
   xmlns:svg="http://www.w3.org/2000/svg"
   xmlns:rdf="http://www.w3.org/1999/02/22-rdf-syntax-ns#"
   xmlns:cc="http://creativecommons.org/ns#"
   xmlns:dc="http://purl.org/dc/elements/1.1/">
  <sodipodi:namedview
     id="namedview332"
     pagecolor="#ffffff"
     bordercolor="#111111"
     borderopacity="1"
     inkscape:showpageshadow="0"
     inkscape:pageopacity="0"
     inkscape:pagecheckerboard="1"
     inkscape:deskcolor="#d1d1d1"
     inkscape:document-units="pt"
     showgrid="false"
     inkscape:zoom="1.3185764"
     inkscape:cx="230.55168"
     inkscape:cy="28.81896"
     inkscape:window-width="1920"
     inkscape:window-height="1046"
     inkscape:window-x="-11"
     inkscape:window-y="-11"
     inkscape:window-maximized="1"
     inkscape:current-layer="axes_1" />
  <metadata
     id="metadata2">
    <rdf:RDF>
      <cc:Work>
        <dc:type
           rdf:resource="http://purl.org/dc/dcmitype/StillImage" />
        <dc:date>2025-06-30T16:40:55.425437</dc:date>
        <dc:format>image/svg+xml</dc:format>
        <dc:creator>
          <cc:Agent>
            <dc:title>Matplotlib v3.10.3, https://matplotlib.org/</dc:title>
          </cc:Agent>
        </dc:creator>
      </cc:Work>
    </rdf:RDF>
  </metadata>
  <defs
     id="defs6">
    <style
       type="text/css"
       id="style4">*{stroke-linejoin: round; stroke-linecap: butt}</style>
  </defs>
  <g
     id="figure_1">
    <g
       id="patch_1">
      <path
         d="M 0 156.763125  L 432 156.763125  L 432 0  L 0 0  z "
         style="fill: #ffffff"
         id="path8" />
    </g>
    <g
       id="axes_1">
      <g
         id="patch_2">
        <path
           d="M 0 141.052813  L 432 141.052813  L 432 14.083313  L 0 14.083313  z "
           style="fill: #ffffff"
           id="path11" />
      </g>
      <g
         id="FillBetweenPolyCollection_1">
        <defs
           id="defs15">
          <path
             id="m057ecd4172"
             d="M 122.364371 -15.710313  L 122.364371 -15.710313  L 122.492735 -15.710313  L 122.6211 -15.710313  L 122.749465 -15.710313  L 122.87783 -15.710313  L 123.006194 -15.710313  L 123.134559 -15.710313  L 123.262924 -15.710313  L 123.391289 -15.710313  L 123.519654 -15.710313  L 123.648018 -15.710313  L 123.776383 -15.710313  L 123.904748 -15.710313  L 124.033113 -15.710313  L 124.161477 -15.710313  L 124.289842 -15.710313  L 124.418207 -15.710313  L 124.546572 -15.710313  L 124.674937 -15.710313  L 124.803301 -15.710313  L 124.931666 -15.710313  L 125.060031 -15.710313  L 125.188396 -15.710313  L 125.31676 -15.710313  L 125.445125 -15.710313  L 125.57349 -15.710313  L 125.701855 -15.710313  L 125.83022 -15.710313  L 125.958584 -15.710313  L 126.086949 -15.710313  L 126.215314 -15.710313  L 126.343679 -15.710313  L 126.472043 -15.710313  L 126.600408 -15.710313  L 126.728773 -15.710313  L 126.857138 -15.710313  L 126.985502 -15.710313  L 127.113867 -15.710313  L 127.242232 -15.710313  L 127.370597 -15.710313  L 127.498962 -15.710313  L 127.627326 -15.710313  L 127.755691 -15.710313  L 127.884056 -15.710313  L 128.012421 -15.710313  L 128.140785 -15.710313  L 128.26915 -15.710313  L 128.397515 -15.710313  L 128.52588 -15.710313  L 128.654245 -15.710313  L 128.782609 -15.710313  L 128.910974 -15.710313  L 129.039339 -15.710313  L 129.167704 -15.710313  L 129.296068 -15.710313  L 129.424433 -15.710313  L 129.552798 -15.710313  L 129.681163 -15.710313  L 129.809528 -15.710313  L 129.937892 -15.710313  L 130.066257 -15.710313  L 130.194622 -15.710313  L 130.322987 -15.710313  L 130.451351 -15.710313  L 130.579716 -15.710313  L 130.708081 -15.710313  L 130.836446 -15.710313  L 130.964811 -15.710313  L 131.093175 -15.710313  L 131.22154 -15.710313  L 131.349905 -15.710313  L 131.47827 -15.710313  L 131.606634 -15.710313  L 131.734999 -15.710313  L 131.863364 -15.710313  L 131.991729 -15.710313  L 132.120093 -15.710313  L 132.248458 -15.710313  L 132.376823 -15.710313  L 132.505188 -15.710313  L 132.633553 -15.710313  L 132.761917 -15.710313  L 132.890282 -15.710313  L 133.018647 -15.710313  L 133.147012 -15.710313  L 133.275376 -15.710313  L 133.403741 -15.710313  L 133.532106 -15.710313  L 133.660471 -15.710313  L 133.788836 -15.710313  L 133.9172 -15.710313  L 134.045565 -15.710313  L 134.17393 -15.710313  L 134.302295 -15.710313  L 134.430659 -15.710313  L 134.559024 -15.710313  L 134.687389 -15.710313  L 134.815754 -15.710313  L 134.944119 -15.710313  L 135.072483 -15.710313  L 135.200848 -15.710313  L 135.329213 -15.710313  L 135.457578 -15.710313  L 135.585942 -15.710313  L 135.714307 -15.710313  L 135.842672 -15.710313  L 135.971037 -15.710313  L 136.099401 -15.710313  L 136.227766 -15.710313  L 136.356131 -15.710313  L 136.484496 -15.710313  L 136.612861 -15.710313  L 136.741225 -15.710313  L 136.86959 -15.710313  L 136.997955 -15.710313  L 137.12632 -15.710313  L 137.254684 -15.710313  L 137.383049 -15.710313  L 137.511414 -15.710313  L 137.639779 -15.710313  L 137.768144 -15.710313  L 137.896508 -15.710313  L 138.024873 -15.710313  L 138.153238 -15.710313  L 138.281603 -15.710313  L 138.409967 -15.710313  L 138.538332 -15.710313  L 138.666697 -15.710313  L 138.795062 -15.710313  L 138.923427 -15.710313  L 139.051791 -15.710313  L 139.180156 -15.710313  L 139.308521 -15.710313  L 139.436886 -15.710313  L 139.56525 -15.710313  L 139.693615 -15.710313  L 139.82198 -15.710313  L 139.950345 -15.710313  L 140.078709 -15.710313  L 140.207074 -15.710313  L 140.335439 -15.710313  L 140.463804 -15.710313  L 140.592169 -15.710313  L 140.720533 -15.710313  L 140.848898 -15.710313  L 140.977263 -15.710313  L 141.105628 -15.710313  L 141.233992 -15.710313  L 141.362357 -15.710313  L 141.490722 -15.710313  L 141.619087 -15.710313  L 141.747452 -15.710313  L 141.875816 -15.710313  L 142.004181 -15.710313  L 142.132546 -15.710313  L 142.260911 -15.710313  L 142.389275 -15.710313  L 142.51764 -15.710313  L 142.646005 -15.710313  L 142.77437 -15.710313  L 142.902735 -15.710313  L 143.031099 -15.710313  L 143.159464 -15.710313  L 143.287829 -15.710313  L 143.416194 -15.710313  L 143.544558 -15.710313  L 143.672923 -15.710313  L 143.801288 -15.710313  L 143.929653 -15.710313  L 144.058018 -15.710313  L 144.186382 -15.710313  L 144.314747 -15.710313  L 144.443112 -15.710313  L 144.571477 -15.710313  L 144.699841 -15.710313  L 144.828206 -15.710313  L 144.956571 -15.710313  L 145.084936 -15.710313  L 145.2133 -15.710313  L 145.341665 -15.710313  L 145.47003 -15.710313  L 145.598395 -15.710313  L 145.72676 -15.710313  L 145.855124 -15.710313  L 145.983489 -15.710313  L 146.111854 -15.710313  L 146.240219 -15.710313  L 146.368583 -15.710313  L 146.496948 -15.710313  L 146.625313 -15.710313  L 146.753678 -15.710313  L 146.882043 -15.710313  L 147.010407 -15.710313  L 147.138772 -15.710313  L 147.267137 -15.710313  L 147.395502 -15.710313  L 147.523866 -15.710313  L 147.652231 -15.710313  L 147.780596 -15.710313  L 147.908961 -15.710313  L 148.037326 -15.710313  L 148.16569 -15.710313  L 148.294055 -15.710313  L 148.42242 -15.710313  L 148.550785 -15.710313  L 148.679149 -15.710313  L 148.807514 -15.710313  L 148.935879 -15.710313  L 149.064244 -15.710313  L 149.192608 -15.710313  L 149.320973 -15.710313  L 149.449338 -15.710313  L 149.577703 -15.710313  L 149.706068 -15.710313  L 149.834432 -15.710313  L 149.962797 -15.710313  L 150.091162 -15.710313  L 150.219527 -15.710313  L 150.347891 -15.710313  L 150.476256 -15.710313  L 150.604621 -15.710313  L 150.732986 -15.710313  L 150.861351 -15.710313  L 150.989715 -15.710313  L 151.11808 -15.710313  L 151.246445 -15.710313  L 151.37481 -15.710313  L 151.503174 -15.710313  L 151.631539 -15.710313  L 151.759904 -15.710313  L 151.888269 -15.710313  L 152.016634 -15.710313  L 152.144998 -15.710313  L 152.273363 -15.710313  L 152.401728 -15.710313  L 152.530093 -15.710313  L 152.658457 -15.710313  L 152.786822 -15.710313  L 152.915187 -15.710313  L 153.043552 -15.710313  L 153.171917 -15.710313  L 153.300281 -15.710313  L 153.428646 -15.710313  L 153.557011 -15.710313  L 153.685376 -15.710313  L 153.81374 -15.710313  L 153.942105 -15.710313  L 154.07047 -15.710313  L 154.198835 -15.710313  L 154.327199 -15.710313  L 154.455564 -15.710313  L 154.583929 -15.710313  L 154.712294 -15.710313  L 154.840659 -15.710313  L 154.969023 -15.710313  L 155.097388 -15.710313  L 155.225753 -15.710313  L 155.354118 -15.710313  L 155.482482 -15.710313  L 155.610847 -15.710313  L 155.739212 -15.710313  L 155.867577 -15.710313  L 155.995942 -15.710313  L 156.124306 -15.710313  L 156.252671 -15.710313  L 156.381036 -15.710313  L 156.509401 -15.710313  L 156.637765 -15.710313  L 156.76613 -15.710313  L 156.894495 -15.710313  L 157.02286 -15.710313  L 157.151225 -15.710313  L 157.279589 -15.710313  L 157.407954 -15.710313  L 157.536319 -15.710313  L 157.664684 -15.710313  L 157.793048 -15.710313  L 157.921413 -15.710313  L 158.049778 -15.710313  L 158.178143 -15.710313  L 158.306507 -15.710313  L 158.434872 -15.710313  L 158.563237 -15.710313  L 158.691602 -15.710313  L 158.819967 -15.710313  L 158.948331 -15.710313  L 159.076696 -15.710313  L 159.205061 -15.710313  L 159.333426 -15.710313  L 159.46179 -15.710313  L 159.590155 -15.710313  L 159.71852 -15.710313  L 159.846885 -15.710313  L 159.97525 -15.710313  L 160.103614 -15.710313  L 160.231979 -15.710313  L 160.360344 -15.710313  L 160.488709 -15.710313  L 160.617073 -15.710313  L 160.745438 -15.710313  L 160.873803 -15.710313  L 161.002168 -15.710313  L 161.130533 -15.710313  L 161.258897 -15.710313  L 161.387262 -15.710313  L 161.515627 -15.710313  L 161.643992 -15.710313  L 161.772356 -15.710313  L 161.900721 -15.710313  L 162.029086 -15.710313  L 162.157451 -15.710313  L 162.285815 -15.710313  L 162.41418 -15.710313  L 162.542545 -15.710313  L 162.67091 -15.710313  L 162.799275 -15.710313  L 162.927639 -15.710313  L 163.056004 -15.710313  L 163.184369 -15.710313  L 163.312734 -15.710313  L 163.441098 -15.710313  L 163.569463 -15.710313  L 163.697828 -15.710313  L 163.826193 -15.710313  L 163.954558 -15.710313  L 164.082922 -15.710313  L 164.211287 -15.710313  L 164.339652 -15.710313  L 164.468017 -15.710313  L 164.596381 -15.710313  L 164.724746 -15.710313  L 164.853111 -15.710313  L 164.981476 -15.710313  L 165.109841 -15.710313  L 165.238205 -15.710313  L 165.36657 -15.710313  L 165.494935 -15.710313  L 165.6233 -15.710313  L 165.751664 -15.710313  L 165.880029 -15.710313  L 166.008394 -15.710313  L 166.136759 -15.710313  L 166.265124 -15.710313  L 166.393488 -15.710313  L 166.521853 -15.710313  L 166.650218 -15.710313  L 166.778583 -15.710313  L 166.906947 -15.710313  L 167.035312 -15.710313  L 167.163677 -15.710313  L 167.292042 -15.710313  L 167.420406 -15.710313  L 167.548771 -15.710313  L 167.677136 -15.710313  L 167.805501 -15.710313  L 167.933866 -15.710313  L 168.06223 -15.710313  L 168.190595 -15.710313  L 168.31896 -15.710313  L 168.447325 -15.710313  L 168.575689 -15.710313  L 168.704054 -15.710313  L 168.832419 -15.710313  L 168.960784 -15.710313  L 169.089149 -15.710313  L 169.217513 -15.710313  L 169.345878 -15.710313  L 169.474243 -15.710313  L 169.602608 -15.710313  L 169.730972 -15.710313  L 169.859337 -15.710313  L 169.987702 -15.710313  L 170.116067 -15.710313  L 170.244432 -15.710313  L 170.372796 -15.710313  L 170.501161 -15.710313  L 170.629526 -15.710313  L 170.757891 -15.710313  L 170.886255 -15.710313  L 171.01462 -15.710313  L 171.142985 -15.710313  L 171.27135 -15.710313  L 171.399714 -15.710313  L 171.528079 -15.710313  L 171.656444 -15.710313  L 171.784809 -15.710313  L 171.913174 -15.710313  L 172.041538 -15.710313  L 172.169903 -15.710313  L 172.298268 -15.710313  L 172.426633 -15.710313  L 172.554997 -15.710313  L 172.683362 -15.710313  L 172.811727 -15.710313  L 172.940092 -15.710313  L 173.068457 -15.710313  L 173.196821 -15.710313  L 173.325186 -15.710313  L 173.453551 -15.710313  L 173.581916 -15.710313  L 173.581916 -15.710313  L 173.581916 -95.403682  L 173.453551 -95.195819  L 173.325186 -94.987194  L 173.196821 -94.778569  L 173.068457 -94.569944  L 172.940092 -94.361319  L 172.811727 -94.152694  L 172.683362 -93.944069  L 172.554997 -93.735444  L 172.426633 -93.526819  L 172.298268 -93.318194  L 172.169903 -93.109569  L 172.041538 -92.900944  L 171.913174 -92.692319  L 171.784809 -92.483694  L 171.656444 -92.275069  L 171.528079 -92.06242  L 171.399714 -91.846206  L 171.27135 -91.629993  L 171.142985 -91.41378  L 171.01462 -91.197566  L 170.886255 -90.981353  L 170.757891 -90.76514  L 170.629526 -90.548927  L 170.501161 -90.332713  L 170.372796 -90.1165  L 170.244432 -89.900287  L 170.116067 -89.684073  L 169.987702 -89.46786  L 169.859337 -89.251647  L 169.730972 -89.035434  L 169.602608 -88.818443  L 169.474243 -88.597253  L 169.345878 -88.376064  L 169.217513 -88.154874  L 169.089149 -87.933685  L 168.960784 -87.712495  L 168.832419 -87.491305  L 168.704054 -87.270116  L 168.575689 -87.048926  L 168.447325 -86.827737  L 168.31896 -86.606547  L 168.190595 -86.385358  L 168.06223 -86.164168  L 167.933866 -85.942978  L 167.805501 -85.721789  L 167.677136 -85.500599  L 167.548771 -85.2792  L 167.420406 -85.057742  L 167.292042 -84.836284  L 167.163677 -84.614826  L 167.035312 -84.393368  L 166.906947 -84.17191  L 166.778583 -83.950452  L 166.650218 -83.728995  L 166.521853 -83.507537  L 166.393488 -83.286079  L 166.265124 -83.064621  L 166.136759 -82.843163  L 166.008394 -82.621705  L 165.880029 -82.400247  L 165.751664 -82.178789  L 165.6233 -81.959638  L 165.494935 -81.743835  L 165.36657 -81.528032  L 165.238205 -81.312229  L 165.109841 -81.096426  L 164.981476 -80.880623  L 164.853111 -80.664821  L 164.724746 -80.449018  L 164.596381 -80.233215  L 164.468017 -80.017412  L 164.339652 -79.801609  L 164.211287 -79.585806  L 164.082922 -79.370004  L 163.954558 -79.154201  L 163.826193 -78.938398  L 163.697828 -78.722977  L 163.569463 -78.518527  L 163.441098 -78.314077  L 163.312734 -78.109627  L 163.184369 -77.905177  L 163.056004 -77.700727  L 162.927639 -77.496277  L 162.799275 -77.291828  L 162.67091 -77.087378  L 162.542545 -76.882928  L 162.41418 -76.678478  L 162.285815 -76.474028  L 162.157451 -76.269578  L 162.029086 -76.065128  L 161.900721 -75.860678  L 161.772356 -75.656228  L 161.643992 -75.461818  L 161.515627 -75.272592  L 161.387262 -75.083366  L 161.258897 -74.89414  L 161.130533 -74.704914  L 161.002168 -74.515688  L 160.873803 -74.326462  L 160.745438 -74.137236  L 160.617073 -73.94801  L 160.488709 -73.758784  L 160.360344 -73.569558  L 160.231979 -73.380332  L 160.103614 -73.191106  L 159.97525 -73.00188  L 159.846885 -72.812654  L 159.71852 -72.628  L 159.590155 -72.454799  L 159.46179 -72.281599  L 159.333426 -72.108399  L 159.205061 -71.935198  L 159.076696 -71.761998  L 158.948331 -71.588797  L 158.819967 -71.415597  L 158.691602 -71.242397  L 158.563237 -71.069196  L 158.434872 -70.895996  L 158.306507 -70.722796  L 158.178143 -70.549595  L 158.049778 -70.376395  L 157.921413 -70.203194  L 157.793048 -70.029994  L 157.664684 -69.868973  L 157.536319 -69.709141  L 157.407954 -69.549308  L 157.279589 -69.389476  L 157.151225 -69.229644  L 157.02286 -69.069811  L 156.894495 -68.909979  L 156.76613 -68.750147  L 156.637765 -68.590314  L 156.509401 -68.430482  L 156.381036 -68.270649  L 156.252671 -68.110817  L 156.124306 -67.950985  L 155.995942 -67.791152  L 155.867577 -67.63132  L 155.739212 -67.475771  L 155.610847 -67.323916  L 155.482482 -67.172061  L 155.354118 -67.020207  L 155.225753 -66.868352  L 155.097388 -66.716497  L 154.969023 -66.564642  L 154.840659 -66.412788  L 154.712294 -66.260933  L 154.583929 -66.109078  L 154.455564 -65.957224  L 154.327199 -65.805369  L 154.198835 -65.653514  L 154.07047 -65.501659  L 153.942105 -65.349805  L 153.81374 -65.198202  L 153.685376 -65.047899  L 153.557011 -64.897596  L 153.428646 -64.747293  L 153.300281 -64.596989  L 153.171917 -64.446686  L 153.043552 -64.296383  L 152.915187 -64.14608  L 152.786822 -63.995776  L 152.658457 -63.845473  L 152.530093 -63.69517  L 152.401728 -63.544867  L 152.273363 -63.394563  L 152.144998 -63.24426  L 152.016634 -63.093957  L 151.888269 -62.943654  L 151.759904 -62.790337  L 151.631539 -62.636212  L 151.503174 -62.482088  L 151.37481 -62.327963  L 151.246445 -62.173838  L 151.11808 -62.019713  L 150.989715 -61.865588  L 150.861351 -61.711464  L 150.732986 -61.557339  L 150.604621 -61.403214  L 150.476256 -61.249089  L 150.347891 -61.094965  L 150.219527 -60.94084  L 150.091162 -60.786715  L 149.962797 -60.63259  L 149.834432 -60.475785  L 149.706068 -60.315191  L 149.577703 -60.154597  L 149.449338 -59.994002  L 149.320973 -59.833408  L 149.192608 -59.672814  L 149.064244 -59.512219  L 148.935879 -59.351625  L 148.807514 -59.191031  L 148.679149 -59.030437  L 148.550785 -58.869842  L 148.42242 -58.709248  L 148.294055 -58.548654  L 148.16569 -58.38806  L 148.037326 -58.227465  L 147.908961 -58.066638  L 147.780596 -57.900239  L 147.652231 -57.733841  L 147.523866 -57.567442  L 147.395502 -57.401043  L 147.267137 -57.234644  L 147.138772 -57.068245  L 147.010407 -56.901847  L 146.882043 -56.735448  L 146.753678 -56.569049  L 146.625313 -56.40265  L 146.496948 -56.236252  L 146.368583 -56.069853  L 146.240219 -55.903454  L 146.111854 -55.737055  L 145.983489 -55.570656  L 145.855124 -55.402589  L 145.72676 -55.233685  L 145.598395 -55.064782  L 145.47003 -54.895878  L 145.341665 -54.726974  L 145.2133 -54.55807  L 145.084936 -54.389166  L 144.956571 -54.220262  L 144.828206 -54.051358  L 144.699841 -53.882455  L 144.571477 -53.713551  L 144.443112 -53.544647  L 144.314747 -53.375743  L 144.186382 -53.206839  L 144.058018 -53.037935  L 143.929653 -52.869581  L 143.801288 -52.702563  L 143.672923 -52.535545  L 143.544558 -52.368526  L 143.416194 -52.201508  L 143.287829 -52.034489  L 143.159464 -51.867471  L 143.031099 -51.700452  L 142.902735 -51.533434  L 142.77437 -51.366416  L 142.646005 -51.199397  L 142.51764 -51.032379  L 142.389275 -50.86536  L 142.260911 -50.698342  L 142.132546 -50.531323  L 142.004181 -50.364305  L 141.875816 -50.202537  L 141.747452 -50.04124  L 141.619087 -49.879943  L 141.490722 -49.718647  L 141.362357 -49.55735  L 141.233992 -49.396053  L 141.105628 -49.234756  L 140.977263 -49.07346  L 140.848898 -48.912163  L 140.720533 -48.750866  L 140.592169 -48.589569  L 140.463804 -48.428273  L 140.335439 -48.266976  L 140.207074 -48.105679  L 140.078709 -47.944382  L 139.950345 -47.787414  L 139.82198 -47.634082  L 139.693615 -47.48075  L 139.56525 -47.327419  L 139.436886 -47.174087  L 139.308521 -47.020755  L 139.180156 -46.867423  L 139.051791 -46.714091  L 138.923427 -46.56076  L 138.795062 -46.407428  L 138.666697 -46.254096  L 138.538332 -46.100764  L 138.409967 -45.947433  L 138.281603 -45.794101  L 138.153238 -45.640769  L 138.024873 -45.488873  L 137.896508 -45.344029  L 137.768144 -45.199184  L 137.639779 -45.054339  L 137.511414 -44.909494  L 137.383049 -44.76465  L 137.254684 -44.619805  L 137.12632 -44.47496  L 136.997955 -44.330115  L 136.86959 -44.185271  L 136.741225 -44.040426  L 136.612861 -43.895581  L 136.484496 -43.750736  L 136.356131 -43.605891  L 136.227766 -43.461047  L 136.099401 -43.316202  L 135.971037 -43.177628  L 135.842672 -43.04067  L 135.714307 -42.903712  L 135.585942 -42.766754  L 135.457578 -42.629796  L 135.329213 -42.492839  L 135.200848 -42.355881  L 135.072483 -42.218923  L 134.944119 -42.081965  L 134.815754 -41.945007  L 134.687389 -41.80805  L 134.559024 -41.671092  L 134.430659 -41.534134  L 134.302295 -41.397176  L 134.17393 -41.260218  L 134.045565 -41.126214  L 133.9172 -40.996272  L 133.788836 -40.866331  L 133.660471 -40.73639  L 133.532106 -40.606448  L 133.403741 -40.476507  L 133.275376 -40.346566  L 133.147012 -40.216624  L 133.018647 -40.086683  L 132.890282 -39.956742  L 132.761917 -39.826801  L 132.633553 -39.696859  L 132.505188 -39.566918  L 132.376823 -39.436977  L 132.248458 -39.307035  L 132.120093 -39.177398  L 131.991729 -39.05398  L 131.863364 -38.930562  L 131.734999 -38.807143  L 131.606634 -38.683725  L 131.47827 -38.560306  L 131.349905 -38.436888  L 131.22154 -38.313469  L 131.093175 -38.190051  L 130.964811 -38.066632  L 130.836446 -37.943214  L 130.708081 -37.819796  L 130.579716 -37.696377  L 130.451351 -37.572959  L 130.322987 -37.44954  L 130.194622 -37.326122  L 130.066257 -37.20716  L 129.937892 -37.09037  L 129.809528 -36.973579  L 129.681163 -36.856789  L 129.552798 -36.739998  L 129.424433 -36.623208  L 129.296068 -36.506417  L 129.167704 -36.389626  L 129.039339 -36.272836  L 128.910974 -36.156045  L 128.782609 -36.039255  L 128.654245 -35.922464  L 128.52588 -35.805674  L 128.397515 -35.688883  L 128.26915 -35.572092  L 128.140785 -35.457442  L 128.012421 -35.347827  L 127.884056 -35.238212  L 127.755691 -35.128597  L 127.627326 -35.018982  L 127.498962 -34.909367  L 127.370597 -34.799752  L 127.242232 -34.690137  L 127.113867 -34.580522  L 126.985502 -34.470907  L 126.857138 -34.361292  L 126.728773 -34.251677  L 126.600408 -34.142062  L 126.472043 -34.032447  L 126.343679 -33.922832  L 126.215314 -33.813217  L 126.086949 -33.710842  L 125.958584 -33.60906  L 125.83022 -33.507279  L 125.701855 -33.405498  L 125.57349 -33.303717  L 125.445125 -33.201935  L 125.31676 -33.100154  L 125.188396 -32.998373  L 125.060031 -32.896591  L 124.931666 -32.79481  L 124.803301 -32.693029  L 124.674937 -32.591248  L 124.546572 -32.489466  L 124.418207 -32.387685  L 124.289842 -32.285904  L 124.161477 -32.188688  L 124.033113 -32.095208  L 123.904748 -32.001728  L 123.776383 -31.908248  L 123.648018 -31.814768  L 123.519654 -31.721288  L 123.391289 -31.627808  L 123.262924 -31.534328  L 123.134559 -31.440848  L 123.006194 -31.347368  L 122.87783 -31.253888  L 122.749465 -31.160408  L 122.6211 -31.066928  L 122.492735 -30.973448  L 122.364371 -30.879968  z " />
        </defs>
        <g
           clip-path="url(#pb41fcfcfb2)"
           id="g19">
          <use
             xlink:href="#m057ecd4172"
             x="0"
             y="156.763125"
             style="fill: #808080; fill-opacity: 0.5"
             id="use17" />
        </g>
      </g>
      <g
         id="FillBetweenPolyCollection_2">
        <defs
           id="defs23">
          <path
             id="m5599081496"
             d="M 19.636364 -15.710313  L 19.636364 -15.710313  L 19.893827 -15.710313  L 20.151291 -15.710313  L 20.408755 -15.710313  L 20.666218 -15.710313  L 20.923682 -15.710313  L 21.181146 -15.710313  L 21.438609 -15.710313  L 21.696073 -15.710313  L 21.953537 -15.710313  L 22.211 -15.710313  L 22.468464 -15.710313  L 22.725928 -15.710313  L 22.983391 -15.710313  L 23.240855 -15.710313  L 23.498319 -15.710313  L 23.755782 -15.710313  L 24.013246 -15.710313  L 24.27071 -15.710313  L 24.528173 -15.710313  L 24.785637 -15.710313  L 25.043101 -15.710313  L 25.300565 -15.710313  L 25.558028 -15.710313  L 25.815492 -15.710313  L 26.072956 -15.710313  L 26.330419 -15.710313  L 26.587883 -15.710313  L 26.845347 -15.710313  L 27.10281 -15.710313  L 27.360274 -15.710313  L 27.617738 -15.710313  L 27.875201 -15.710313  L 28.132665 -15.710313  L 28.390129 -15.710313  L 28.647592 -15.710313  L 28.905056 -15.710313  L 29.16252 -15.710313  L 29.419983 -15.710313  L 29.677447 -15.710313  L 29.934911 -15.710313  L 30.192374 -15.710313  L 30.449838 -15.710313  L 30.707302 -15.710313  L 30.964765 -15.710313  L 31.222229 -15.710313  L 31.479693 -15.710313  L 31.737156 -15.710313  L 31.99462 -15.710313  L 32.252084 -15.710313  L 32.509547 -15.710313  L 32.767011 -15.710313  L 33.024475 -15.710313  L 33.281938 -15.710313  L 33.539402 -15.710313  L 33.796866 -15.710313  L 34.05433 -15.710313  L 34.311793 -15.710313  L 34.569257 -15.710313  L 34.826721 -15.710313  L 35.084184 -15.710313  L 35.341648 -15.710313  L 35.599112 -15.710313  L 35.856575 -15.710313  L 36.114039 -15.710313  L 36.371503 -15.710313  L 36.628966 -15.710313  L 36.88643 -15.710313  L 37.143894 -15.710313  L 37.401357 -15.710313  L 37.658821 -15.710313  L 37.916285 -15.710313  L 38.173748 -15.710313  L 38.431212 -15.710313  L 38.688676 -15.710313  L 38.946139 -15.710313  L 39.203603 -15.710313  L 39.461067 -15.710313  L 39.71853 -15.710313  L 39.975994 -15.710313  L 40.233458 -15.710313  L 40.490921 -15.710313  L 40.748385 -15.710313  L 41.005849 -15.710313  L 41.263312 -15.710313  L 41.520776 -15.710313  L 41.77824 -15.710313  L 42.035704 -15.710313  L 42.293167 -15.710313  L 42.550631 -15.710313  L 42.808095 -15.710313  L 43.065558 -15.710313  L 43.323022 -15.710313  L 43.580486 -15.710313  L 43.837949 -15.710313  L 44.095413 -15.710313  L 44.352877 -15.710313  L 44.61034 -15.710313  L 44.867804 -15.710313  L 45.125268 -15.710313  L 45.382731 -15.710313  L 45.640195 -15.710313  L 45.897659 -15.710313  L 46.155122 -15.710313  L 46.412586 -15.710313  L 46.67005 -15.710313  L 46.927513 -15.710313  L 47.184977 -15.710313  L 47.442441 -15.710313  L 47.699904 -15.710313  L 47.957368 -15.710313  L 48.214832 -15.710313  L 48.472295 -15.710313  L 48.729759 -15.710313  L 48.987223 -15.710313  L 49.244686 -15.710313  L 49.50215 -15.710313  L 49.759614 -15.710313  L 50.017077 -15.710313  L 50.274541 -15.710313  L 50.532005 -15.710313  L 50.789469 -15.710313  L 51.046932 -15.710313  L 51.304396 -15.710313  L 51.56186 -15.710313  L 51.819323 -15.710313  L 52.076787 -15.710313  L 52.334251 -15.710313  L 52.591714 -15.710313  L 52.849178 -15.710313  L 53.106642 -15.710313  L 53.364105 -15.710313  L 53.621569 -15.710313  L 53.879033 -15.710313  L 54.136496 -15.710313  L 54.39396 -15.710313  L 54.651424 -15.710313  L 54.908887 -15.710313  L 55.166351 -15.710313  L 55.423815 -15.710313  L 55.681278 -15.710313  L 55.938742 -15.710313  L 56.196206 -15.710313  L 56.453669 -15.710313  L 56.711133 -15.710313  L 56.968597 -15.710313  L 57.22606 -15.710313  L 57.483524 -15.710313  L 57.740988 -15.710313  L 57.998451 -15.710313  L 58.255915 -15.710313  L 58.513379 -15.710313  L 58.770842 -15.710313  L 59.028306 -15.710313  L 59.28577 -15.710313  L 59.543234 -15.710313  L 59.800697 -15.710313  L 60.058161 -15.710313  L 60.315625 -15.710313  L 60.573088 -15.710313  L 60.830552 -15.710313  L 61.088016 -15.710313  L 61.345479 -15.710313  L 61.602943 -15.710313  L 61.860407 -15.710313  L 62.11787 -15.710313  L 62.375334 -15.710313  L 62.632798 -15.710313  L 62.890261 -15.710313  L 63.147725 -15.710313  L 63.405189 -15.710313  L 63.662652 -15.710313  L 63.920116 -15.710313  L 64.17758 -15.710313  L 64.435043 -15.710313  L 64.692507 -15.710313  L 64.949971 -15.710313  L 65.207434 -15.710313  L 65.464898 -15.710313  L 65.722362 -15.710313  L 65.979825 -15.710313  L 66.237289 -15.710313  L 66.494753 -15.710313  L 66.752216 -15.710313  L 67.00968 -15.710313  L 67.267144 -15.710313  L 67.524607 -15.710313  L 67.782071 -15.710313  L 68.039535 -15.710313  L 68.296999 -15.710313  L 68.554462 -15.710313  L 68.811926 -15.710313  L 69.06939 -15.710313  L 69.326853 -15.710313  L 69.584317 -15.710313  L 69.841781 -15.710313  L 70.099244 -15.710313  L 70.356708 -15.710313  L 70.614172 -15.710313  L 70.871635 -15.710313  L 71.129099 -15.710313  L 71.386563 -15.710313  L 71.644026 -15.710313  L 71.90149 -15.710313  L 72.158954 -15.710313  L 72.416417 -15.710313  L 72.673881 -15.710313  L 72.931345 -15.710313  L 73.188808 -15.710313  L 73.446272 -15.710313  L 73.703736 -15.710313  L 73.961199 -15.710313  L 74.218663 -15.710313  L 74.476127 -15.710313  L 74.73359 -15.710313  L 74.991054 -15.710313  L 75.248518 -15.710313  L 75.505981 -15.710313  L 75.763445 -15.710313  L 76.020909 -15.710313  L 76.278372 -15.710313  L 76.535836 -15.710313  L 76.7933 -15.710313  L 77.050764 -15.710313  L 77.308227 -15.710313  L 77.565691 -15.710313  L 77.823155 -15.710313  L 78.080618 -15.710313  L 78.338082 -15.710313  L 78.595546 -15.710313  L 78.853009 -15.710313  L 79.110473 -15.710313  L 79.367937 -15.710313  L 79.6254 -15.710313  L 79.882864 -15.710313  L 80.140328 -15.710313  L 80.397791 -15.710313  L 80.655255 -15.710313  L 80.912719 -15.710313  L 81.170182 -15.710313  L 81.427646 -15.710313  L 81.68511 -15.710313  L 81.942573 -15.710313  L 82.200037 -15.710313  L 82.457501 -15.710313  L 82.714964 -15.710313  L 82.972428 -15.710313  L 83.229892 -15.710313  L 83.487355 -15.710313  L 83.744819 -15.710313  L 84.002283 -15.710313  L 84.259746 -15.710313  L 84.51721 -15.710313  L 84.774674 -15.710313  L 85.032137 -15.710313  L 85.289601 -15.710313  L 85.547065 -15.710313  L 85.804529 -15.710313  L 86.061992 -15.710313  L 86.319456 -15.710313  L 86.57692 -15.710313  L 86.834383 -15.710313  L 87.091847 -15.710313  L 87.349311 -15.710313  L 87.606774 -15.710313  L 87.864238 -15.710313  L 88.121702 -15.710313  L 88.379165 -15.710313  L 88.636629 -15.710313  L 88.894093 -15.710313  L 89.151556 -15.710313  L 89.40902 -15.710313  L 89.666484 -15.710313  L 89.923947 -15.710313  L 90.181411 -15.710313  L 90.438875 -15.710313  L 90.696338 -15.710313  L 90.953802 -15.710313  L 91.211266 -15.710313  L 91.468729 -15.710313  L 91.726193 -15.710313  L 91.983657 -15.710313  L 92.24112 -15.710313  L 92.498584 -15.710313  L 92.756048 -15.710313  L 93.013511 -15.710313  L 93.270975 -15.710313  L 93.528439 -15.710313  L 93.785903 -15.710313  L 94.043366 -15.710313  L 94.30083 -15.710313  L 94.558294 -15.710313  L 94.815757 -15.710313  L 95.073221 -15.710313  L 95.330685 -15.710313  L 95.588148 -15.710313  L 95.845612 -15.710313  L 96.103076 -15.710313  L 96.360539 -15.710313  L 96.618003 -15.710313  L 96.875467 -15.710313  L 97.13293 -15.710313  L 97.390394 -15.710313  L 97.647858 -15.710313  L 97.905321 -15.710313  L 98.162785 -15.710313  L 98.420249 -15.710313  L 98.677712 -15.710313  L 98.935176 -15.710313  L 99.19264 -15.710313  L 99.450103 -15.710313  L 99.707567 -15.710313  L 99.965031 -15.710313  L 100.222494 -15.710313  L 100.479958 -15.710313  L 100.737422 -15.710313  L 100.994885 -15.710313  L 101.252349 -15.710313  L 101.509813 -15.710313  L 101.767276 -15.710313  L 102.02474 -15.710313  L 102.282204 -15.710313  L 102.539668 -15.710313  L 102.797131 -15.710313  L 103.054595 -15.710313  L 103.312059 -15.710313  L 103.569522 -15.710313  L 103.826986 -15.710313  L 104.08445 -15.710313  L 104.341913 -15.710313  L 104.599377 -15.710313  L 104.856841 -15.710313  L 105.114304 -15.710313  L 105.371768 -15.710313  L 105.629232 -15.710313  L 105.886695 -15.710313  L 106.144159 -15.710313  L 106.401623 -15.710313  L 106.659086 -15.710313  L 106.91655 -15.710313  L 107.174014 -15.710313  L 107.431477 -15.710313  L 107.688941 -15.710313  L 107.946405 -15.710313  L 108.203868 -15.710313  L 108.461332 -15.710313  L 108.718796 -15.710313  L 108.976259 -15.710313  L 109.233723 -15.710313  L 109.491187 -15.710313  L 109.74865 -15.710313  L 110.006114 -15.710313  L 110.263578 -15.710313  L 110.521041 -15.710313  L 110.778505 -15.710313  L 111.035969 -15.710313  L 111.293433 -15.710313  L 111.550896 -15.710313  L 111.80836 -15.710313  L 112.065824 -15.710313  L 112.323287 -15.710313  L 112.580751 -15.710313  L 112.838215 -15.710313  L 113.095678 -15.710313  L 113.353142 -15.710313  L 113.610606 -15.710313  L 113.868069 -15.710313  L 114.125533 -15.710313  L 114.382997 -15.710313  L 114.64046 -15.710313  L 114.897924 -15.710313  L 115.155388 -15.710313  L 115.412851 -15.710313  L 115.670315 -15.710313  L 115.927779 -15.710313  L 116.185242 -15.710313  L 116.442706 -15.710313  L 116.70017 -15.710313  L 116.957633 -15.710313  L 117.215097 -15.710313  L 117.472561 -15.710313  L 117.730024 -15.710313  L 117.987488 -15.710313  L 118.244952 -15.710313  L 118.502415 -15.710313  L 118.759879 -15.710313  L 119.017343 -15.710313  L 119.274806 -15.710313  L 119.53227 -15.710313  L 119.789734 -15.710313  L 120.047198 -15.710313  L 120.304661 -15.710313  L 120.562125 -15.710313  L 120.819589 -15.710313  L 121.077052 -15.710313  L 121.334516 -15.710313  L 121.59198 -15.710313  L 121.849443 -15.710313  L 122.106907 -15.710313  L 122.364371 -15.710313  L 122.364371 -15.710313  L 122.364371 -30.879968  L 122.106907 -30.702429  L 121.849443 -30.531835  L 121.59198 -30.361242  L 121.334516 -30.190649  L 121.077052 -30.020056  L 120.819589 -29.849462  L 120.562125 -29.678869  L 120.304661 -29.508276  L 120.047198 -29.352912  L 119.789734 -29.198802  L 119.53227 -29.044692  L 119.274806 -28.890583  L 119.017343 -28.736473  L 118.759879 -28.582364  L 118.502415 -28.428254  L 118.244952 -28.278183  L 117.987488 -28.139685  L 117.730024 -28.001186  L 117.472561 -27.862687  L 117.215097 -27.724189  L 116.957633 -27.58569  L 116.70017 -27.447191  L 116.442706 -27.308693  L 116.185242 -27.178813  L 115.927779 -27.054836  L 115.670315 -26.93086  L 115.412851 -26.806883  L 115.155388 -26.682907  L 114.897924 -26.55893  L 114.64046 -26.434953  L 114.382997 -26.310977  L 114.125533 -26.199396  L 113.868069 -26.088771  L 113.610606 -25.978147  L 113.353142 -25.867522  L 113.095678 -25.756897  L 112.838215 -25.646273  L 112.580751 -25.535648  L 112.323287 -25.428204  L 112.065824 -25.329665  L 111.80836 -25.231125  L 111.550896 -25.132586  L 111.293433 -25.034046  L 111.035969 -24.935507  L 110.778505 -24.836967  L 110.521041 -24.738428  L 110.263578 -24.646225  L 110.006114 -24.558282  L 109.74865 -24.470339  L 109.491187 -24.382396  L 109.233723 -24.294453  L 108.976259 -24.20651  L 108.718796 -24.118567  L 108.461332 -24.030624  L 108.203868 -23.950842  L 107.946405 -23.871647  L 107.688941 -23.792453  L 107.431477 -23.713258  L 107.174014 -23.634064  L 106.91655 -23.55487  L 106.659086 -23.475675  L 106.401623 -23.39822  L 106.144159 -23.325523  L 105.886695 -23.252825  L 105.629232 -23.180128  L 105.371768 -23.107431  L 105.114304 -23.034733  L 104.856841 -22.962036  L 104.599377 -22.889339  L 104.341913 -22.819031  L 104.08445 -22.7503  L 103.826986 -22.681568  L 103.569522 -22.612837  L 103.312059 -22.544106  L 103.054595 -22.475375  L 102.797131 -22.406644  L 102.539668 -22.337913  L 102.282204 -22.270556  L 102.02474 -22.203291  L 101.767276 -22.136026  L 101.509813 -22.068761  L 101.252349 -22.001496  L 100.994885 -21.934231  L 100.737422 -21.866965  L 100.479958 -21.799547  L 100.222494 -21.731719  L 99.965031 -21.663891  L 99.707567 -21.596063  L 99.450103 -21.528235  L 99.19264 -21.460407  L 98.935176 -21.392579  L 98.677712 -21.324751  L 98.420249 -21.255911  L 98.162785 -21.186414  L 97.905321 -21.116918  L 97.647858 -21.047421  L 97.390394 -20.977924  L 97.13293 -20.908428  L 96.875467 -20.838931  L 96.618003 -20.769435  L 96.360539 -20.698493  L 96.103076 -20.627463  L 95.845612 -20.556432  L 95.588148 -20.485402  L 95.330685 -20.414371  L 95.073221 -20.343341  L 94.815757 -20.27231  L 94.558294 -20.201253  L 94.30083 -20.130123  L 94.043366 -20.058994  L 93.785903 -19.987865  L 93.528439 -19.916736  L 93.270975 -19.845607  L 93.013511 -19.774478  L 92.756048 -19.703348  L 92.498584 -19.633682  L 92.24112 -19.564946  L 91.983657 -19.496209  L 91.726193 -19.427472  L 91.468729 -19.358736  L 91.211266 -19.289999  L 90.953802 -19.221262  L 90.696338 -19.152526  L 90.438875 -19.088932  L 90.181411 -19.02563  L 89.923947 -18.962327  L 89.666484 -18.899025  L 89.40902 -18.835723  L 89.151556 -18.772421  L 88.894093 -18.709119  L 88.636629 -18.648172  L 88.379165 -18.593248  L 88.121702 -18.538324  L 87.864238 -18.4834  L 87.606774 -18.428476  L 87.349311 -18.373552  L 87.091847 -18.318628  L 86.834383 -18.263704  L 86.57692 -18.215297  L 86.319456 -18.170952  L 86.061992 -18.126608  L 85.804529 -18.082264  L 85.547065 -18.037919  L 85.289601 -17.993575  L 85.032137 -17.949231  L 84.774674 -17.904886  L 84.51721 -17.871512  L 84.259746 -17.838705  L 84.002283 -17.805899  L 83.744819 -17.773093  L 83.487355 -17.740286  L 83.229892 -17.70748  L 82.972428 -17.674674  L 82.714964 -17.64501  L 82.457501 -17.62321  L 82.200037 -17.601411  L 81.942573 -17.579611  L 81.68511 -17.557811  L 81.427646 -17.536011  L 81.170182 -17.514211  L 80.912719 -17.492411  L 80.655255 -17.47623  L 80.397791 -17.463486  L 80.140328 -17.450743  L 79.882864 -17.438  L 79.6254 -17.425257  L 79.367937 -17.412513  L 79.110473 -17.39977  L 78.853009 -17.387027  L 78.595546 -17.380093  L 78.338082 -17.373432  L 78.080618 -17.36677  L 77.823155 -17.360109  L 77.565691 -17.353448  L 77.308227 -17.346786  L 77.050764 -17.340125  L 76.7933 -17.334252  L 76.535836 -17.330307  L 76.278372 -17.326362  L 76.020909 -17.322418  L 75.763445 -17.318473  L 75.505981 -17.314529  L 75.248518 -17.310584  L 74.991054 -17.306639  L 74.73359 -17.30249  L 74.476127 -17.298216  L 74.218663 -17.293943  L 73.961199 -17.28967  L 73.703736 -17.285397  L 73.446272 -17.281124  L 73.188808 -17.276851  L 72.931345 -17.272577  L 72.673881 -17.265926  L 72.416417 -17.259175  L 72.158954 -17.252424  L 71.90149 -17.245673  L 71.644026 -17.238922  L 71.386563 -17.232171  L 71.129099 -17.22542  L 70.871635 -17.217649  L 70.614172 -17.207436  L 70.356708 -17.197222  L 70.099244 -17.187009  L 69.841781 -17.176796  L 69.584317 -17.166582  L 69.326853 -17.156369  L 69.06939 -17.146156  L 68.811926 -17.133817  L 68.554462 -17.120228  L 68.296999 -17.106638  L 68.039535 -17.093048  L 67.782071 -17.079458  L 67.524607 -17.065869  L 67.267144 -17.052279  L 67.00968 -17.038689  L 66.752216 -17.022604  L 66.494753 -17.006426  L 66.237289 -16.990248  L 65.979825 -16.974071  L 65.722362 -16.957893  L 65.464898 -16.941715  L 65.207434 -16.925537  L 64.949971 -16.908897  L 64.692507 -16.891174  L 64.435043 -16.87345  L 64.17758 -16.855726  L 63.920116 -16.838003  L 63.662652 -16.820279  L 63.405189 -16.802556  L 63.147725 -16.784832  L 62.890261 -16.766735  L 62.632798 -16.748422  L 62.375334 -16.730109  L 62.11787 -16.711796  L 61.860407 -16.693483  L 61.602943 -16.675171  L 61.345479 -16.656858  L 61.088016 -16.638545  L 60.830552 -16.620378  L 60.573088 -16.602216  L 60.315625 -16.584055  L 60.058161 -16.565893  L 59.800697 -16.547731  L 59.543234 -16.529569  L 59.28577 -16.511407  L 59.028306 -16.493465  L 58.770842 -16.476025  L 58.513379 -16.458585  L 58.255915 -16.441145  L 57.998451 -16.423705  L 57.740988 -16.406265  L 57.483524 -16.388825  L 57.22606 -16.371385  L 56.968597 -16.354732  L 56.711133 -16.338525  L 56.453669 -16.322318  L 56.196206 -16.306111  L 55.938742 -16.289903  L 55.681278 -16.273696  L 55.423815 -16.257489  L 55.166351 -16.241282  L 54.908887 -16.226765  L 54.651424 -16.212294  L 54.39396 -16.197823  L 54.136496 -16.183353  L 53.879033 -16.168882  L 53.621569 -16.154412  L 53.364105 -16.139941  L 53.106642 -16.126142  L 52.849178 -16.113853  L 52.591714 -16.101563  L 52.334251 -16.089274  L 52.076787 -16.076984  L 51.819323 -16.064695  L 51.56186 -16.052406  L 51.304396 -16.040116  L 51.046932 -16.029399  L 50.789469 -16.019555  L 50.532005 -16.009711  L 50.274541 -15.999867  L 50.017077 -15.990023  L 49.759614 -15.980179  L 49.50215 -15.970335  L 49.244686 -15.960491  L 48.987223 -15.953016  L 48.729759 -15.945597  L 48.472295 -15.938177  L 48.214832 -15.930757  L 47.957368 -15.923337  L 47.699904 -15.915917  L 47.442441 -15.908497  L 47.184977 -15.901734  L 46.927513 -15.896416  L 46.67005 -15.891098  L 46.412586 -15.88578  L 46.155122 -15.880461  L 45.897659 -15.875143  L 45.640195 -15.869825  L 45.382731 -15.864507  L 45.125268 -15.860205  L 44.867804 -15.856456  L 44.61034 -15.852707  L 44.352877 -15.848958  L 44.095413 -15.84521  L 43.837949 -15.841461  L 43.580486 -15.837712  L 43.323022 -15.833963  L 43.065558 -15.831182  L 42.808095 -15.828418  L 42.550631 -15.825653  L 42.293167 -15.822889  L 42.035704 -15.820125  L 41.77824 -15.817361  L 41.520776 -15.814597  L 41.263312 -15.811992  L 41.005849 -15.809728  L 40.748385 -15.807465  L 40.490921 -15.805201  L 40.233458 -15.802938  L 39.975994 -15.800674  L 39.71853 -15.798411  L 39.461067 -15.796147  L 39.203603 -15.794018  L 38.946139 -15.791961  L 38.688676 -15.789904  L 38.431212 -15.787847  L 38.173748 -15.785789  L 37.916285 -15.783732  L 37.658821 -15.781675  L 37.401357 -15.779618  L 37.143894 -15.777667  L 36.88643 -15.775717  L 36.628966 -15.773767  L 36.371503 -15.771818  L 36.114039 -15.769868  L 35.856575 -15.767918  L 35.599112 -15.765969  L 35.341648 -15.764065  L 35.084184 -15.76226  L 34.826721 -15.760455  L 34.569257 -15.758649  L 34.311793 -15.756844  L 34.05433 -15.755038  L 33.796866 -15.753233  L 33.539402 -15.751428  L 33.281938 -15.749775  L 33.024475 -15.748203  L 32.767011 -15.746631  L 32.509547 -15.745059  L 32.252084 -15.743486  L 31.99462 -15.741914  L 31.737156 -15.740342  L 31.479693 -15.73877  L 31.222229 -15.737501  L 30.964765 -15.736234  L 30.707302 -15.734968  L 30.449838 -15.733701  L 30.192374 -15.732435  L 29.934911 -15.731168  L 29.677447 -15.729902  L 29.419983 -15.728742  L 29.16252 -15.727803  L 28.905056 -15.726865  L 28.647592 -15.725926  L 28.390129 -15.724987  L 28.132665 -15.724049  L 27.875201 -15.72311  L 27.617738 -15.722171  L 27.360274 -15.72143  L 27.10281 -15.72079  L 26.845347 -15.72015  L 26.587883 -15.71951  L 26.330419 -15.718871  L 26.072956 -15.718231  L 25.815492 -15.717591  L 25.558028 -15.716951  L 25.300565 -15.716549  L 25.043101 -15.716147  L 24.785637 -15.715746  L 24.528173 -15.715344  L 24.27071 -15.714943  L 24.013246 -15.714542  L 23.755782 -15.71414  L 23.498319 -15.713795  L 23.240855 -15.713562  L 22.983391 -15.71333  L 22.725928 -15.713098  L 22.468464 -15.712866  L 22.211 -15.712634  L 21.953537 -15.712402  L 21.696073 -15.712169  L 21.438609 -15.712009  L 21.181146 -15.711885  L 20.923682 -15.711761  L 20.666218 -15.711637  L 20.408755 -15.711513  L 20.151291 -15.711389  L 19.893827 -15.711265  L 19.636364 -15.711141  z " />
        </defs>
        <g
           clip-path="url(#pb41fcfcfb2)"
           id="g27">
          <use
             xlink:href="#m5599081496"
             x="0"
             y="156.763125"
             style="fill: #ff0000; fill-opacity: 0.5"
             id="use25" />
        </g>
      </g>
      <g
         id="FillBetweenPolyCollection_3">
        <defs
           id="defs31">
          <path
             id="mf3a94ae47b"
             d="M 173.581916 -15.710313  L 173.581916 -15.710313  L 174.180366 -15.710313  L 174.778817 -15.710313  L 175.377267 -15.710313  L 175.975717 -15.710313  L 176.574168 -15.710313  L 177.172618 -15.710313  L 177.771069 -15.710313  L 178.369519 -15.710313  L 178.96797 -15.710313  L 179.56642 -15.710313  L 180.16487 -15.710313  L 180.763321 -15.710313  L 181.361771 -15.710313  L 181.960222 -15.710313  L 182.558672 -15.710313  L 183.157123 -15.710313  L 183.755573 -15.710313  L 184.354023 -15.710313  L 184.952474 -15.710313  L 185.550924 -15.710313  L 186.149375 -15.710313  L 186.747825 -15.710313  L 187.346275 -15.710313  L 187.944726 -15.710313  L 188.543176 -15.710313  L 189.141627 -15.710313  L 189.740077 -15.710313  L 190.338528 -15.710313  L 190.936978 -15.710313  L 191.535428 -15.710313  L 192.133879 -15.710313  L 192.732329 -15.710313  L 193.33078 -15.710313  L 193.92923 -15.710313  L 194.527681 -15.710313  L 195.126131 -15.710313  L 195.724581 -15.710313  L 196.323032 -15.710313  L 196.921482 -15.710313  L 197.519933 -15.710313  L 198.118383 -15.710313  L 198.716834 -15.710313  L 199.315284 -15.710313  L 199.913734 -15.710313  L 200.512185 -15.710313  L 201.110635 -15.710313  L 201.709086 -15.710313  L 202.307536 -15.710313  L 202.905987 -15.710313  L 203.504437 -15.710313  L 204.102887 -15.710313  L 204.701338 -15.710313  L 205.299788 -15.710313  L 205.898239 -15.710313  L 206.496689 -15.710313  L 207.09514 -15.710313  L 207.69359 -15.710313  L 208.29204 -15.710313  L 208.890491 -15.710313  L 209.488941 -15.710313  L 210.087392 -15.710313  L 210.685842 -15.710313  L 211.284293 -15.710313  L 211.882743 -15.710313  L 212.481193 -15.710313  L 213.079644 -15.710313  L 213.678094 -15.710313  L 214.276545 -15.710313  L 214.874995 -15.710313  L 215.473446 -15.710313  L 216.071896 -15.710313  L 216.670346 -15.710313  L 217.268797 -15.710313  L 217.867247 -15.710313  L 218.465698 -15.710313  L 219.064148 -15.710313  L 219.662599 -15.710313  L 220.261049 -15.710313  L 220.859499 -15.710313  L 221.45795 -15.710313  L 222.0564 -15.710313  L 222.654851 -15.710313  L 223.253301 -15.710313  L 223.851752 -15.710313  L 224.450202 -15.710313  L 225.048652 -15.710313  L 225.647103 -15.710313  L 226.245553 -15.710313  L 226.844004 -15.710313  L 227.442454 -15.710313  L 228.040905 -15.710313  L 228.639355 -15.710313  L 229.237805 -15.710313  L 229.836256 -15.710313  L 230.434706 -15.710313  L 231.033157 -15.710313  L 231.631607 -15.710313  L 232.230058 -15.710313  L 232.828508 -15.710313  L 233.426958 -15.710313  L 234.025409 -15.710313  L 234.623859 -15.710313  L 235.22231 -15.710313  L 235.82076 -15.710313  L 236.419211 -15.710313  L 237.017661 -15.710313  L 237.616111 -15.710313  L 238.214562 -15.710313  L 238.813012 -15.710313  L 239.411463 -15.710313  L 240.009913 -15.710313  L 240.608364 -15.710313  L 241.206814 -15.710313  L 241.805264 -15.710313  L 242.403715 -15.710313  L 243.002165 -15.710313  L 243.600616 -15.710313  L 244.199066 -15.710313  L 244.797517 -15.710313  L 245.395967 -15.710313  L 245.994417 -15.710313  L 246.592868 -15.710313  L 247.191318 -15.710313  L 247.789769 -15.710313  L 248.388219 -15.710313  L 248.98667 -15.710313  L 249.58512 -15.710313  L 250.18357 -15.710313  L 250.782021 -15.710313  L 251.380471 -15.710313  L 251.978922 -15.710313  L 252.577372 -15.710313  L 253.175823 -15.710313  L 253.774273 -15.710313  L 254.372723 -15.710313  L 254.971174 -15.710313  L 255.569624 -15.710313  L 256.168075 -15.710313  L 256.766525 -15.710313  L 257.364976 -15.710313  L 257.963426 -15.710313  L 258.561876 -15.710313  L 259.160327 -15.710313  L 259.758777 -15.710313  L 260.357228 -15.710313  L 260.955678 -15.710313  L 261.554129 -15.710313  L 262.152579 -15.710313  L 262.751029 -15.710313  L 263.34948 -15.710313  L 263.94793 -15.710313  L 264.546381 -15.710313  L 265.144831 -15.710313  L 265.743282 -15.710313  L 266.341732 -15.710313  L 266.940182 -15.710313  L 267.538633 -15.710313  L 268.137083 -15.710313  L 268.735534 -15.710313  L 269.333984 -15.710313  L 269.932435 -15.710313  L 270.530885 -15.710313  L 271.129335 -15.710313  L 271.727786 -15.710313  L 272.326236 -15.710313  L 272.924687 -15.710313  L 273.523137 -15.710313  L 274.121588 -15.710313  L 274.720038 -15.710313  L 275.318488 -15.710313  L 275.916939 -15.710313  L 276.515389 -15.710313  L 277.11384 -15.710313  L 277.71229 -15.710313  L 278.310741 -15.710313  L 278.909191 -15.710313  L 279.507641 -15.710313  L 280.106092 -15.710313  L 280.704542 -15.710313  L 281.302993 -15.710313  L 281.901443 -15.710313  L 282.499894 -15.710313  L 283.098344 -15.710313  L 283.696794 -15.710313  L 284.295245 -15.710313  L 284.893695 -15.710313  L 285.492146 -15.710313  L 286.090596 -15.710313  L 286.689047 -15.710313  L 287.287497 -15.710313  L 287.885947 -15.710313  L 288.484398 -15.710313  L 289.082848 -15.710313  L 289.681299 -15.710313  L 290.279749 -15.710313  L 290.8782 -15.710313  L 291.47665 -15.710313  L 292.0751 -15.710313  L 292.673551 -15.710313  L 293.272001 -15.710313  L 293.870452 -15.710313  L 294.468902 -15.710313  L 295.067353 -15.710313  L 295.665803 -15.710313  L 296.264253 -15.710313  L 296.862704 -15.710313  L 297.461154 -15.710313  L 298.059605 -15.710313  L 298.658055 -15.710313  L 299.256506 -15.710313  L 299.854956 -15.710313  L 300.453406 -15.710313  L 301.051857 -15.710313  L 301.650307 -15.710313  L 302.248758 -15.710313  L 302.847208 -15.710313  L 303.445658 -15.710313  L 304.044109 -15.710313  L 304.642559 -15.710313  L 305.24101 -15.710313  L 305.83946 -15.710313  L 306.437911 -15.710313  L 307.036361 -15.710313  L 307.634811 -15.710313  L 308.233262 -15.710313  L 308.831712 -15.710313  L 309.430163 -15.710313  L 310.028613 -15.710313  L 310.627064 -15.710313  L 311.225514 -15.710313  L 311.823964 -15.710313  L 312.422415 -15.710313  L 313.020865 -15.710313  L 313.619316 -15.710313  L 314.217766 -15.710313  L 314.816217 -15.710313  L 315.414667 -15.710313  L 316.013117 -15.710313  L 316.611568 -15.710313  L 317.210018 -15.710313  L 317.808469 -15.710313  L 318.406919 -15.710313  L 319.00537 -15.710313  L 319.60382 -15.710313  L 320.20227 -15.710313  L 320.800721 -15.710313  L 321.399171 -15.710313  L 321.997622 -15.710313  L 322.596072 -15.710313  L 323.194523 -15.710313  L 323.792973 -15.710313  L 324.391423 -15.710313  L 324.989874 -15.710313  L 325.588324 -15.710313  L 326.186775 -15.710313  L 326.785225 -15.710313  L 327.383676 -15.710313  L 327.982126 -15.710313  L 328.580576 -15.710313  L 329.179027 -15.710313  L 329.777477 -15.710313  L 330.375928 -15.710313  L 330.974378 -15.710313  L 331.572829 -15.710313  L 332.171279 -15.710313  L 332.769729 -15.710313  L 333.36818 -15.710313  L 333.96663 -15.710313  L 334.565081 -15.710313  L 335.163531 -15.710313  L 335.761982 -15.710313  L 336.360432 -15.710313  L 336.958882 -15.710313  L 337.557333 -15.710313  L 338.155783 -15.710313  L 338.754234 -15.710313  L 339.352684 -15.710313  L 339.951135 -15.710313  L 340.549585 -15.710313  L 341.148035 -15.710313  L 341.746486 -15.710313  L 342.344936 -15.710313  L 342.943387 -15.710313  L 343.541837 -15.710313  L 344.140288 -15.710313  L 344.738738 -15.710313  L 345.337188 -15.710313  L 345.935639 -15.710313  L 346.534089 -15.710313  L 347.13254 -15.710313  L 347.73099 -15.710313  L 348.329441 -15.710313  L 348.927891 -15.710313  L 349.526341 -15.710313  L 350.124792 -15.710313  L 350.723242 -15.710313  L 351.321693 -15.710313  L 351.920143 -15.710313  L 352.518594 -15.710313  L 353.117044 -15.710313  L 353.715494 -15.710313  L 354.313945 -15.710313  L 354.912395 -15.710313  L 355.510846 -15.710313  L 356.109296 -15.710313  L 356.707747 -15.710313  L 357.306197 -15.710313  L 357.904647 -15.710313  L 358.503098 -15.710313  L 359.101548 -15.710313  L 359.699999 -15.710313  L 360.298449 -15.710313  L 360.8969 -15.710313  L 361.49535 -15.710313  L 362.0938 -15.710313  L 362.692251 -15.710313  L 363.290701 -15.710313  L 363.889152 -15.710313  L 364.487602 -15.710313  L 365.086053 -15.710313  L 365.684503 -15.710313  L 366.282953 -15.710313  L 366.881404 -15.710313  L 367.479854 -15.710313  L 368.078305 -15.710313  L 368.676755 -15.710313  L 369.275206 -15.710313  L 369.873656 -15.710313  L 370.472106 -15.710313  L 371.070557 -15.710313  L 371.669007 -15.710313  L 372.267458 -15.710313  L 372.865908 -15.710313  L 373.464359 -15.710313  L 374.062809 -15.710313  L 374.661259 -15.710313  L 375.25971 -15.710313  L 375.85816 -15.710313  L 376.456611 -15.710313  L 377.055061 -15.710313  L 377.653512 -15.710313  L 378.251962 -15.710313  L 378.850412 -15.710313  L 379.448863 -15.710313  L 380.047313 -15.710313  L 380.645764 -15.710313  L 381.244214 -15.710313  L 381.842665 -15.710313  L 382.441115 -15.710313  L 383.039565 -15.710313  L 383.638016 -15.710313  L 384.236466 -15.710313  L 384.834917 -15.710313  L 385.433367 -15.710313  L 386.031818 -15.710313  L 386.630268 -15.710313  L 387.228718 -15.710313  L 387.827169 -15.710313  L 388.425619 -15.710313  L 389.02407 -15.710313  L 389.62252 -15.710313  L 390.220971 -15.710313  L 390.819421 -15.710313  L 391.417871 -15.710313  L 392.016322 -15.710313  L 392.614772 -15.710313  L 393.213223 -15.710313  L 393.811673 -15.710313  L 394.410124 -15.710313  L 395.008574 -15.710313  L 395.607024 -15.710313  L 396.205475 -15.710313  L 396.803925 -15.710313  L 397.402376 -15.710313  L 398.000826 -15.710313  L 398.599277 -15.710313  L 399.197727 -15.710313  L 399.796177 -15.710313  L 400.394628 -15.710313  L 400.993078 -15.710313  L 401.591529 -15.710313  L 402.189979 -15.710313  L 402.78843 -15.710313  L 403.38688 -15.710313  L 403.98533 -15.710313  L 404.583781 -15.710313  L 405.182231 -15.710313  L 405.780682 -15.710313  L 406.379132 -15.710313  L 406.977583 -15.710313  L 407.576033 -15.710313  L 408.174483 -15.710313  L 408.772934 -15.710313  L 409.371384 -15.710313  L 409.969835 -15.710313  L 410.568285 -15.710313  L 411.166736 -15.710313  L 411.765186 -15.710313  L 412.363636 -15.710313  L 412.363636 -15.710313  L 412.363636 -15.711303  L 411.765186 -15.71167  L 411.166736 -15.712037  L 410.568285 -15.712403  L 409.969835 -15.71302  L 409.371384 -15.713741  L 408.772934 -15.714463  L 408.174483 -15.71543  L 407.576033 -15.716757  L 406.977583 -15.718083  L 406.379132 -15.719511  L 405.780682 -15.721789  L 405.182231 -15.724066  L 404.583781 -15.726343  L 403.98533 -15.729735  L 403.38688 -15.73339  L 402.78843 -15.737046  L 402.189979 -15.741641  L 401.591529 -15.747134  L 400.993078 -15.752627  L 400.394628 -15.7586  L 399.796177 -15.76634  L 399.197727 -15.77408  L 398.599277 -15.78182  L 398.000826 -15.791855  L 397.402376 -15.802099  L 396.803925 -15.812343  L 396.205475 -15.824142  L 395.607024 -15.836901  L 395.008574 -15.849659  L 394.410124 -15.86313  L 393.811673 -15.87811  L 393.213223 -15.893089  L 392.614772 -15.908105  L 392.016322 -15.924705  L 391.417871 -15.941305  L 390.819421 -15.957904  L 390.220971 -15.975063  L 389.62252 -15.992434  L 389.02407 -16.009804  L 388.425619 -16.027081  L 387.827169 -16.044233  L 387.228718 -16.061384  L 386.630268 -16.078379  L 386.031818 -16.094329  L 385.433367 -16.11028  L 384.834917 -16.12623  L 384.236466 -16.140524  L 383.638016 -16.154486  L 383.039565 -16.168447  L 382.441115 -16.181142  L 381.842665 -16.192734  L 381.244214 -16.204326  L 380.645764 -16.215412  L 380.047313 -16.224867  L 379.448863 -16.234322  L 378.850412 -16.243777  L 378.251962 -16.252138  L 377.653512 -16.260428  L 377.055061 -16.268719  L 376.456611 -16.277339  L 375.85816 -16.286143  L 375.25971 -16.294947  L 374.661259 -16.304657  L 374.062809 -16.316096  L 373.464359 -16.327534  L 372.865908 -16.339191  L 372.267458 -16.355349  L 371.669007 -16.371508  L 371.070557 -16.387666  L 370.472106 -16.408467  L 369.873656 -16.430828  L 369.275206 -16.453189  L 368.676755 -16.478543  L 368.078305 -16.507542  L 367.479854 -16.536541  L 366.881404 -16.566448  L 366.282953 -16.601371  L 365.684503 -16.636293  L 365.086053 -16.671216  L 364.487602 -16.709906  L 363.889152 -16.749233  L 363.290701 -16.788559  L 362.692251 -16.829439  L 362.0938 -16.871551  L 361.49535 -16.913662  L 360.8969 -16.956259  L 360.298449 -17.000233  L 359.699999 -17.044207  L 359.101548 -17.088181  L 358.503098 -17.134248  L 357.904647 -17.180398  L 357.306197 -17.226547  L 356.707747 -17.275218  L 356.109296 -17.32516  L 355.510846 -17.375103  L 354.912395 -17.427367  L 354.313945 -17.483638  L 353.715494 -17.539908  L 353.117044 -17.596815  L 352.518594 -17.662274  L 351.920143 -17.727732  L 351.321693 -17.793191  L 350.723242 -17.867811  L 350.124792 -17.945144  L 349.526341 -18.022476  L 348.927891 -18.106518  L 348.329441 -18.198008  L 347.73099 -18.289497  L 347.13254 -18.38381  L 346.534089 -18.491322  L 345.935639 -18.598833  L 345.337188 -18.706345  L 344.738738 -18.829211  L 344.140288 -18.954199  L 343.541837 -19.079187  L 342.943387 -19.21484  L 342.344936 -19.35819  L 341.746486 -19.50154  L 341.148035 -19.650081  L 340.549585 -19.811761  L 339.951135 -19.973441  L 339.352684 -20.135121  L 338.754234 -20.313542  L 338.155783 -20.492209  L 337.557333 -20.670877  L 336.958882 -20.859261  L 336.360432 -21.052057  L 335.761982 -21.244852  L 335.163531 -21.441528  L 334.565081 -21.644272  L 333.96663 -21.847016  L 333.36818 -22.050236  L 332.769729 -22.258121  L 332.171279 -22.466007  L 331.572829 -22.673893  L 330.974378 -22.88242  L 330.375928 -23.091112  L 329.777477 -23.299804  L 329.179027 -23.507572  L 328.580576 -23.714406  L 327.982126 -23.921241  L 327.383676 -24.127678  L 326.785225 -24.332524  L 326.186775 -24.537369  L 325.588324 -24.742215  L 324.989874 -24.947557  L 324.391423 -25.152953  L 323.792973 -25.358349  L 323.194523 -25.566824  L 322.596072 -25.777319  L 321.997622 -25.987814  L 321.399171 -26.20154  L 320.800721 -26.422588  L 320.20227 -26.643635  L 319.60382 -26.86482  L 319.00537 -27.101871  L 318.406919 -27.338921  L 317.808469 -27.575971  L 317.210018 -27.828118  L 316.611568 -28.086403  L 316.013117 -28.344689  L 315.414667 -28.614026  L 314.816217 -28.899056  L 314.217766 -29.184087  L 313.619316 -29.472948  L 313.020865 -29.791141  L 312.422415 -30.109333  L 311.823964 -30.427525  L 311.225514 -30.778777  L 310.627064 -31.137393  L 310.028613 -31.496009  L 309.430163 -31.879191  L 308.831712 -32.285036  L 308.233262 -32.69088  L 307.634811 -33.108116  L 307.036361 -33.565166  L 306.437911 -34.022216  L 305.83946 -34.479266  L 305.24101 -34.982412  L 304.642559 -35.48931  L 304.044109 -35.996207  L 303.445658 -36.529326  L 302.847208 -37.07804  L 302.248758 -37.626755  L 301.650307 -38.184663  L 301.051857 -38.761291  L 300.453406 -39.337919  L 299.854956 -39.9149  L 299.256506 -40.502671  L 298.658055 -41.090442  L 298.059605 -41.678213  L 297.461154 -42.262862  L 296.862704 -42.846379  L 296.264253 -43.429897  L 295.665803 -44.007164  L 295.067353 -44.576356  L 294.468902 -45.145547  L 293.870452 -45.712422  L 293.272001 -46.264895  L 292.673551 -46.817369  L 292.0751 -47.369842  L 291.47665 -47.912952  L 290.8782 -48.454291  L 290.279749 -48.99563  L 289.681299 -49.537562  L 289.082848 -50.079993  L 288.484398 -50.622423  L 287.885947 -51.169229  L 287.287497 -51.729476  L 286.689047 -52.289724  L 286.090596 -52.849971  L 285.492146 -53.444964  L 284.893695 -54.041869  L 284.295245 -54.638775  L 283.696794 -55.271456  L 283.098344 -55.923387  L 282.499894 -56.575319  L 281.901443 -57.251883  L 281.302993 -57.9737  L 280.704542 -58.695517  L 280.106092 -59.421596  L 279.507641 -60.221226  L 278.909191 -61.020855  L 278.310741 -61.820484  L 277.71229 -62.677486  L 277.11384 -63.552895  L 276.515389 -64.428305  L 275.916939 -65.332414  L 275.318488 -66.270296  L 274.720038 -67.208178  L 274.121588 -68.152433  L 273.523137 -69.129724  L 272.924687 -70.107014  L 272.326236 -71.084304  L 271.727786 -72.071125  L 271.129335 -73.059446  L 270.530885 -74.047766  L 269.932435 -75.02673  L 269.333984 -75.998528  L 268.735534 -76.970326  L 268.137083 -77.932051  L 267.538633 -78.866357  L 266.940182 -79.800663  L 266.341732 -80.734968  L 265.743282 -81.622291  L 265.144831 -82.508209  L 264.546381 -83.394126  L 263.94793 -84.247196  L 263.34948 -85.084324  L 262.751029 -85.921452  L 262.152579 -86.743251  L 261.554129 -87.539561  L 260.955678 -88.335872  L 260.357228 -89.13002  L 259.758777 -89.898564  L 259.160327 -90.667108  L 258.561876 -91.435651  L 257.963426 -92.194251  L 257.364976 -92.950048  L 256.766525 -93.705845  L 256.168075 -94.462612  L 255.569624 -95.220417  L 254.971174 -95.978223  L 254.372723 -96.738806  L 253.774273 -97.51164  L 253.175823 -98.284474  L 252.577372 -99.057308  L 251.978922 -99.852394  L 251.380471 -100.650312  L 250.782021 -101.44823  L 250.18357 -102.264259  L 249.58512 -103.092904  L 248.98667 -103.92155  L 248.388219 -104.759018  L 247.789769 -105.617906  L 247.191318 -106.476794  L 246.592868 -107.335682  L 245.994417 -108.216388  L 245.395967 -109.097224  L 244.797517 -109.97806  L 244.199066 -110.862219  L 243.600616 -111.747827  L 243.002165 -112.633434  L 242.403715 -113.510676  L 241.805264 -114.375298  L 241.206814 -115.23992  L 240.608364 -116.099215  L 240.009913 -116.911082  L 239.411463 -117.722949  L 238.813012 -118.534817  L 238.214562 -119.278339  L 237.616111 -120.005125  L 237.017661 -120.731911  L 236.419211 -121.403065  L 235.82076 -122.019822  L 235.22231 -122.636578  L 234.623859 -123.228541  L 234.025409 -123.726049  L 233.426958 -124.223558  L 232.828508 -124.721067  L 232.230058 -125.120854  L 231.631607 -125.511002  L 231.033157 -125.901151  L 230.434706 -126.245251  L 229.836256 -126.560222  L 229.237805 -126.875193  L 228.639355 -127.180497  L 228.040905 -127.464764  L 227.442454 -127.749032  L 226.844004 -128.033525  L 226.245553 -128.330903  L 225.647103 -128.628282  L 225.048652 -128.92566  L 224.450202 -129.253985  L 223.851752 -129.594376  L 223.253301 -129.934767  L 222.654851 -130.296321  L 222.0564 -130.686887  L 221.45795 -131.077453  L 220.859499 -131.472078  L 220.261049 -131.895352  L 219.662599 -132.318627  L 219.064148 -132.741901  L 218.465698 -133.161204  L 217.867247 -133.579672  L 217.268797 -133.99814  L 216.670346 -134.388189  L 216.071896 -134.752904  L 215.473446 -135.117619  L 214.874995 -135.458275  L 214.276545 -135.718844  L 213.678094 -135.979413  L 213.079644 -136.239983  L 212.481193 -136.363855  L 211.882743 -136.477962  L 211.284293 -136.59207  L 210.685842 -136.596357  L 210.087392 -136.537693  L 209.488941 -136.479029  L 208.890491 -136.360249  L 208.29204 -136.1237  L 207.69359 -135.88715  L 207.09514 -135.644128  L 206.496689 -135.246788  L 205.898239 -134.849448  L 205.299788 -134.452108  L 204.701338 -133.961454  L 204.102887 -133.43845  L 203.504437 -132.915446  L 202.905987 -132.35622  L 202.307536 -131.751798  L 201.709086 -131.147375  L 201.110635 -130.53717  L 200.512185 -129.89347  L 199.913734 -129.24977  L 199.315284 -128.60607  L 198.716834 -127.954621  L 198.118383 -127.301798  L 197.519933 -126.648976  L 196.921482 -125.998247  L 196.323032 -125.349218  L 195.724581 -124.700189  L 195.126131 -124.051238  L 194.527681 -123.402513  L 193.92923 -122.753788  L 193.33078 -122.105063  L 192.732329 -121.443307  L 192.133879 -120.780957  L 191.535428 -120.118607  L 190.936978 -119.436704  L 190.338528 -118.74467  L 189.740077 -118.052636  L 189.141627 -117.345945  L 188.543176 -116.613315  L 187.944726 -115.880685  L 187.346275 -115.145347  L 186.747825 -114.369991  L 186.149375 -113.594635  L 185.550924 -112.819278  L 184.952474 -112.01561  L 184.354023 -111.203277  L 183.755573 -110.390944  L 183.157123 -109.565621  L 182.558672 -108.725532  L 181.960222 -107.885443  L 181.361771 -107.041857  L 180.763321 -106.181232  L 180.16487 -105.320607  L 179.56642 -104.459983  L 178.96797 -103.582664  L 178.369519 -102.702909  L 177.771069 -101.823154  L 177.172618 -100.929649  L 176.574168 -100.025977  L 175.975717 -99.122305  L 175.377267 -98.209841  L 174.778817 -97.274455  L 174.180366 -96.339068  L 173.581916 -95.403682  z " />
        </defs>
        <g
           clip-path="url(#pb41fcfcfb2)"
           id="g35">
          <use
             xlink:href="#mf3a94ae47b"
             x="0"
             y="156.763125"
             style="fill: #008000; fill-opacity: 0.5"
             id="use33" />
        </g>
      </g>
      <g
         id="LineCollection_1">
        <path
           d="M 122.364371 141.052813  L 122.364371 125.883157  "
           clip-path="url(#pb41fcfcfb2)"
           style="fill: none; stroke: #000000; stroke-width: 1.5"
           id="path38" />
      </g>
      <g
         id="LineCollection_2">
        <path
           d="M 173.581916 141.052813  L 173.581916 61.359443  "
           clip-path="url(#pb41fcfcfb2)"
           style="fill: none; stroke: #000000; stroke-width: 1.5"
           id="path41" />
      </g>
      <g
         id="LineCollection_3">
        <path
           d="M 214.813799 141.052813  L 214.813799 21.278205  "
           clip-path="url(#pb41fcfcfb2)"
           style="fill: none; stroke-dasharray: 5.55,2.4; stroke-dashoffset: 0; stroke: #000000; stroke-width: 1.5"
           id="path44" />
      </g>
      <g
         id="matplotlib.axis_1">
        <g
           id="xtick_1">
          <g
             id="line2d_1">
            <defs
               id="defs48">
              <path
                 id="m06534c888e"
                 d="M 0 0  L 0 3.5  "
                 style="stroke: #000000; stroke-width: 0.8" />
            </defs>
            <g
               id="g52">
              <use
                 xlink:href="#m06534c888e"
                 x="45.538053"
                 y="141.052813"
                 style="stroke: #000000; stroke-width: 0.8"
                 id="use50" />
            </g>
          </g>
          <g
             id="text_1">
            <!-- 0.2 -->
            <g
               transform="translate(34.610787 154.891406) scale(0.09 -0.09)"
               id="g69">
              <defs
                 id="defs59">
                <path
                   id="DejaVuSans-2212"
                   d="M 678 2272  L 4684 2272  L 4684 1741  L 678 1741  L 678 2272  z "
                   transform="scale(0.015625)" />
                <path
                   id="DejaVuSans-30"
                   d="M 2034 4250  Q 1547 4250 1301 3770  Q 1056 3291 1056 2328  Q 1056 1369 1301 889  Q 1547 409 2034 409  Q 2525 409 2770 889  Q 3016 1369 3016 2328  Q 3016 3291 2770 3770  Q 2525 4250 2034 4250  z M 2034 4750  Q 2819 4750 3233 4129  Q 3647 3509 3647 2328  Q 3647 1150 3233 529  Q 2819 -91 2034 -91  Q 1250 -91 836 529  Q 422 1150 422 2328  Q 422 3509 836 4129  Q 1250 4750 2034 4750  z "
                   transform="scale(0.015625)" />
                <path
                   id="DejaVuSans-2e"
                   d="M 684 794  L 1344 794  L 1344 0  L 684 0  L 684 794  z "
                   transform="scale(0.015625)" />
                <path
                   id="DejaVuSans-32"
                   d="M 1228 531  L 3431 531  L 3431 0  L 469 0  L 469 531  Q 828 903 1448 1529  Q 2069 2156 2228 2338  Q 2531 2678 2651 2914  Q 2772 3150 2772 3378  Q 2772 3750 2511 3984  Q 2250 4219 1831 4219  Q 1534 4219 1204 4116  Q 875 4013 500 3803  L 500 4441  Q 881 4594 1212 4672  Q 1544 4750 1819 4750  Q 2544 4750 2975 4387  Q 3406 4025 3406 3419  Q 3406 3131 3298 2873  Q 3191 2616 2906 2266  Q 2828 2175 2409 1742  Q 1991 1309 1228 531  z "
                   transform="scale(0.015625)" />
              </defs>
              <use
                 xlink:href="#DejaVuSans-2212"
                 id="use61" />
              <use
                 xlink:href="#DejaVuSans-30"
                 transform="translate(83.789062 0)"
                 id="use63" />
              <use
                 xlink:href="#DejaVuSans-2e"
                 transform="translate(147.412109 0)"
                 id="use65" />
              <use
                 xlink:href="#DejaVuSans-32"
                 transform="translate(179.199219 0)"
                 id="use67" />
            </g>
          </g>
        </g>
        <g
           id="xtick_2">
          <g
             id="line2d_2">
            <g
               id="g75">
              <use
                 xlink:href="#m06534c888e"
                 x="96.755598"
                 y="141.052813"
                 style="stroke: #000000; stroke-width: 0.8"
                 id="use73" />
            </g>
          </g>
          <g
             id="text_2">
            <!-- 0.1 -->
            <g
               transform="translate(85.828332 154.891406) scale(0.09 -0.09)"
               id="g89">
              <defs
                 id="defs79">
                <path
                   id="DejaVuSans-31"
                   d="M 794 531  L 1825 531  L 1825 4091  L 703 3866  L 703 4441  L 1819 4666  L 2450 4666  L 2450 531  L 3481 531  L 3481 0  L 794 0  L 794 531  z "
                   transform="scale(0.015625)" />
              </defs>
              <use
                 xlink:href="#DejaVuSans-2212"
                 id="use81" />
              <use
                 xlink:href="#DejaVuSans-30"
                 transform="translate(83.789062 0)"
                 id="use83" />
              <use
                 xlink:href="#DejaVuSans-2e"
                 transform="translate(147.412109 0)"
                 id="use85" />
              <use
                 xlink:href="#DejaVuSans-31"
                 transform="translate(179.199219 0)"
                 id="use87" />
            </g>
          </g>
        </g>
        <g
           id="xtick_3">
          <g
             id="line2d_3">
            <g
               id="g95">
              <use
                 xlink:href="#m06534c888e"
                 x="147.973143"
                 y="141.052813"
                 style="stroke: #000000; stroke-width: 0.8"
                 id="use93" />
            </g>
          </g>
          <g
             id="text_3">
            <!-- 0.0 -->
            <g
               transform="translate(140.816737 154.891406) scale(0.09 -0.09)"
               id="g104">
              <use
                 xlink:href="#DejaVuSans-30"
                 id="use98" />
              <use
                 xlink:href="#DejaVuSans-2e"
                 transform="translate(63.623047 0)"
                 id="use100" />
              <use
                 xlink:href="#DejaVuSans-30"
                 transform="translate(95.410156 0)"
                 id="use102" />
            </g>
          </g>
        </g>
        <g
           id="xtick_4">
          <g
             id="line2d_4">
            <g
               id="g110">
              <use
                 xlink:href="#m06534c888e"
                 x="199.190688"
                 y="141.052813"
                 style="stroke: #000000; stroke-width: 0.8"
                 id="use108" />
            </g>
          </g>
          <g
             id="text_4">
            <!-- 0.1 -->
            <g
               transform="translate(192.034282 154.891406) scale(0.09 -0.09)"
               id="g119">
              <use
                 xlink:href="#DejaVuSans-30"
                 id="use113" />
              <use
                 xlink:href="#DejaVuSans-2e"
                 transform="translate(63.623047 0)"
                 id="use115" />
              <use
                 xlink:href="#DejaVuSans-31"
                 transform="translate(95.410156 0)"
                 id="use117" />
            </g>
          </g>
        </g>
        <g
           id="xtick_5">
          <g
             id="line2d_5">
            <g
               id="g125">
              <use
                 xlink:href="#m06534c888e"
                 x="250.408233"
                 y="141.052813"
                 style="stroke: #000000; stroke-width: 0.8"
                 id="use123" />
            </g>
          </g>
          <g
             id="text_5">
            <!-- 0.2 -->
            <g
               transform="translate(243.251827 154.891406) scale(0.09 -0.09)"
               id="g134">
              <use
                 xlink:href="#DejaVuSans-30"
                 id="use128" />
              <use
                 xlink:href="#DejaVuSans-2e"
                 transform="translate(63.623047 0)"
                 id="use130" />
              <use
                 xlink:href="#DejaVuSans-32"
                 transform="translate(95.410156 0)"
                 id="use132" />
            </g>
          </g>
        </g>
        <g
           id="xtick_6">
          <g
             id="line2d_6">
            <g
               id="g140">
              <use
                 xlink:href="#m06534c888e"
                 x="301.625778"
                 y="141.052813"
                 style="stroke: #000000; stroke-width: 0.8"
                 id="use138" />
            </g>
          </g>
          <g
             id="text_6">
            <!-- 0.3 -->
            <g
               transform="translate(294.469372 154.891406) scale(0.09 -0.09)"
               id="g152">
              <defs
                 id="defs144">
                <path
                   id="DejaVuSans-33"
                   d="M 2597 2516  Q 3050 2419 3304 2112  Q 3559 1806 3559 1356  Q 3559 666 3084 287  Q 2609 -91 1734 -91  Q 1441 -91 1130 -33  Q 819 25 488 141  L 488 750  Q 750 597 1062 519  Q 1375 441 1716 441  Q 2309 441 2620 675  Q 2931 909 2931 1356  Q 2931 1769 2642 2001  Q 2353 2234 1838 2234  L 1294 2234  L 1294 2753  L 1863 2753  Q 2328 2753 2575 2939  Q 2822 3125 2822 3475  Q 2822 3834 2567 4026  Q 2313 4219 1838 4219  Q 1578 4219 1281 4162  Q 984 4106 628 3988  L 628 4550  Q 988 4650 1302 4700  Q 1616 4750 1894 4750  Q 2613 4750 3031 4423  Q 3450 4097 3450 3541  Q 3450 3153 3228 2886  Q 3006 2619 2597 2516  z "
                   transform="scale(0.015625)" />
              </defs>
              <use
                 xlink:href="#DejaVuSans-30"
                 id="use146" />
              <use
                 xlink:href="#DejaVuSans-2e"
                 transform="translate(63.623047 0)"
                 id="use148" />
              <use
                 xlink:href="#DejaVuSans-33"
                 transform="translate(95.410156 0)"
                 id="use150" />
            </g>
          </g>
        </g>
        <g
           id="xtick_7">
          <g
             id="line2d_7">
            <g
               id="g158">
              <use
                 xlink:href="#m06534c888e"
                 x="352.843323"
                 y="141.052813"
                 style="stroke: #000000; stroke-width: 0.8"
                 id="use156" />
            </g>
          </g>
          <g
             id="text_7">
            <!-- 0.4 -->
            <g
               transform="translate(345.686917 154.891406) scale(0.09 -0.09)"
               id="g170">
              <defs
                 id="defs162">
                <path
                   id="DejaVuSans-34"
                   d="M 2419 4116  L 825 1625  L 2419 1625  L 2419 4116  z M 2253 4666  L 3047 4666  L 3047 1625  L 3713 1625  L 3713 1100  L 3047 1100  L 3047 0  L 2419 0  L 2419 1100  L 313 1100  L 313 1709  L 2253 4666  z "
                   transform="scale(0.015625)" />
              </defs>
              <use
                 xlink:href="#DejaVuSans-30"
                 id="use164" />
              <use
                 xlink:href="#DejaVuSans-2e"
                 transform="translate(63.623047 0)"
                 id="use166" />
              <use
                 xlink:href="#DejaVuSans-34"
                 transform="translate(95.410156 0)"
                 id="use168" />
            </g>
          </g>
        </g>
        <g
           id="xtick_8">
          <g
             id="line2d_8">
            <g
               id="g176">
              <use
                 xlink:href="#m06534c888e"
                 x="404.060868"
                 y="141.052813"
                 style="stroke: #000000; stroke-width: 0.8"
                 id="use174" />
            </g>
          </g>
          <g
             id="text_8">
            <!-- 0.5 -->
            <g
               transform="translate(396.904462 154.891406) scale(0.09 -0.09)"
               id="g188">
              <defs
                 id="defs180">
                <path
                   id="DejaVuSans-35"
                   d="M 691 4666  L 3169 4666  L 3169 4134  L 1269 4134  L 1269 2991  Q 1406 3038 1543 3061  Q 1681 3084 1819 3084  Q 2600 3084 3056 2656  Q 3513 2228 3513 1497  Q 3513 744 3044 326  Q 2575 -91 1722 -91  Q 1428 -91 1123 -41  Q 819 9 494 109  L 494 744  Q 775 591 1075 516  Q 1375 441 1709 441  Q 2250 441 2565 725  Q 2881 1009 2881 1497  Q 2881 1984 2565 2268  Q 2250 2553 1709 2553  Q 1456 2553 1204 2497  Q 953 2441 691 2322  L 691 4666  z "
                   transform="scale(0.015625)" />
              </defs>
              <use
                 xlink:href="#DejaVuSans-30"
                 id="use182" />
              <use
                 xlink:href="#DejaVuSans-2e"
                 transform="translate(63.623047 0)"
                 id="use184" />
              <use
                 xlink:href="#DejaVuSans-35"
                 transform="translate(95.410156 0)"
                 id="use186" />
            </g>
          </g>
        </g>
      </g>
      <g
         id="matplotlib.axis_2" />
      <g
         id="line2d_9">
        <path
           d="m 19.636364,141.05198 c 22.003051,0.23275 44.02076,-0.74555 65.936307,-2.34784 15.685849,-3.76727 32.798009,-6.86654 44.415009,-19.12338 11.37548,-10.89748 20.1591,-24.136027 30.23094,-36.178279 11.79868,-19.177114 22.79896,-39.19933 39.0066,-55.148549 3.9668,-4.9657 10.87645,-11.341075 17.19803,-6.029583 7.75452,6.260051 18.63071,8.548608 23.71119,17.860068 11.34396,17.351922 25.42714,32.76754 35.5394,50.938529 7.93043,12.594784 20.23214,21.491474 30.77673,31.727634 11.05786,8.01981 24.79104,11.10939 37.65089,15.0384 22.49741,3.82626 45.53783,2.51805 68.26218,3.26263"
           style="fill:none;stroke:#000000;stroke-width:1.5;stroke-linecap:square"
           id="path194" />
      </g>
      <g
         id="PathCollection_1">
        <defs
           id="defs198">
          <path
             id="m1808a0d897"
             d="M -0 4.242641  L 4.242641 0  L 0 -4.242641  L -4.242641 -0  z "
             style="stroke: #000000" />
        </defs>
        <g
           id="g202">
          <use
             xlink:href="#m1808a0d897"
             x="215.36465"
             y="141.052813"
             style="stroke: #000000"
             id="use200" />
        </g>
      </g>
      <g
         id="patch_3">
        <path
           d="M 0 141.052813  L 432 141.052813  "
           style="fill: none; stroke: #000000; stroke-width: 0.8; stroke-linejoin: miter; stroke-linecap: square"
           id="path205" />
      </g>
      <g
         id="LineCollection_4">
        <path
           d="M 19.636364 141.052813  L 412.363636 141.052813  "
           style="fill: none; stroke: #000000"
           id="path208" />
      </g>
      <g
         id="LineCollection_5">
        <path
           d="M 19.636364 141.052813  L 19.636364 133.200648  "
           style="fill: none; stroke: #000000"
           id="path211" />
      </g>
      <g
         id="LineCollection_6">
        <path
           d="M 412.363636 141.052813  L 412.363636 133.200648  "
           style="fill: none; stroke: #000000"
           id="path214" />
      </g>
      <g
         id="text_9">
        <!-- $p_{sig}^{+}$ -->
        <g
           style="fill: #008000"
           transform="translate(295.275958 7.47) scale(0.09 -0.09)"
           id="g234">
          <defs
             id="defs222">
            <path
               id="DejaVuSans-Oblique-70"
               d="M 3175 2156  Q 3175 2616 2975 2859  Q 2775 3103 2400 3103  Q 2144 3103 1911 2972  Q 1678 2841 1497 2591  Q 1319 2344 1212 1994  Q 1106 1644 1106 1300  Q 1106 863 1306 627  Q 1506 391 1875 391  Q 2147 391 2380 519  Q 2613 647 2778 891  Q 2956 1147 3065 1494  Q 3175 1841 3175 2156  z M 1394 2969  Q 1625 3272 1939 3428  Q 2253 3584 2638 3584  Q 3175 3584 3472 3232  Q 3769 2881 3769 2247  Q 3769 1728 3584 1258  Q 3400 788 3053 416  Q 2822 169 2531 39  Q 2241 -91 1919 -91  Q 1547 -91 1294 64  Q 1041 219 916 525  L 556 -1331  L -19 -1331  L 922 3500  L 1497 3500  L 1394 2969  z "
               transform="scale(0.015625)" />
            <path
               id="DejaVuSans-2b"
               d="M 2944 4013  L 2944 2272  L 4684 2272  L 4684 1741  L 2944 1741  L 2944 0  L 2419 0  L 2419 1741  L 678 1741  L 678 2272  L 2419 2272  L 2419 4013  L 2944 4013  z "
               transform="scale(0.015625)" />
            <path
               id="DejaVuSans-Oblique-73"
               d="M 3200 3397  L 3091 2853  Q 2863 2978 2609 3040  Q 2356 3103 2088 3103  Q 1634 3103 1373 2948  Q 1113 2794 1113 2528  Q 1113 2219 1719 2053  Q 1766 2041 1788 2034  L 1972 1978  Q 2547 1819 2739 1644  Q 2931 1469 2931 1166  Q 2931 609 2489 259  Q 2047 -91 1331 -91  Q 1053 -91 747 -37  Q 441 16 72 128  L 184 722  Q 500 559 806 475  Q 1113 391 1394 391  Q 1816 391 2080 572  Q 2344 753 2344 1031  Q 2344 1331 1650 1516  L 1591 1531  L 1394 1581  Q 956 1697 753 1886  Q 550 2075 550 2369  Q 550 2928 970 3256  Q 1391 3584 2113 3584  Q 2397 3584 2667 3537  Q 2938 3491 3200 3397  z "
               transform="scale(0.015625)" />
            <path
               id="DejaVuSans-Oblique-69"
               d="M 1172 4863  L 1747 4863  L 1606 4134  L 1031 4134  L 1172 4863  z M 909 3500  L 1484 3500  L 800 0  L 225 0  L 909 3500  z "
               transform="scale(0.015625)" />
            <path
               id="DejaVuSans-Oblique-67"
               d="M 3816 3500  L 3219 434  Q 3047 -456 2561 -893  Q 2075 -1331 1253 -1331  Q 950 -1331 690 -1286  Q 431 -1241 206 -1147  L 313 -588  Q 525 -725 762 -790  Q 1000 -856 1269 -856  Q 1816 -856 2167 -557  Q 2519 -259 2631 300  L 2681 563  Q 2441 288 2122 144  Q 1803 0 1434 0  Q 903 0 598 351  Q 294 703 294 1319  Q 294 1803 478 2267  Q 663 2731 997 3091  Q 1219 3328 1514 3456  Q 1809 3584 2131 3584  Q 2484 3584 2746 3420  Q 3009 3256 3138 2956  L 3238 3500  L 3816 3500  z M 2950 2216  Q 2950 2641 2750 2872  Q 2550 3103 2181 3103  Q 1953 3103 1747 3012  Q 1541 2922 1394 2759  Q 1156 2491 1023 2127  Q 891 1763 891 1375  Q 891 944 1092 712  Q 1294 481 1672 481  Q 2219 481 2584 976  Q 2950 1472 2950 2216  z "
               transform="scale(0.015625)" />
          </defs>
          <use
             xlink:href="#DejaVuSans-Oblique-70"
             transform="translate(0 0.7625)"
             id="use224" />
          <use
             xlink:href="#DejaVuSans-2b"
             transform="translate(68.126458 39.107813) scale(0.7)"
             id="use226" />
          <use
             xlink:href="#DejaVuSans-Oblique-73"
             transform="translate(63.476562 -26.58125) scale(0.7)"
             id="use228" />
          <use
             xlink:href="#DejaVuSans-Oblique-69"
             transform="translate(99.946289 -26.58125) scale(0.7)"
             id="use230" />
          <use
             xlink:href="#DejaVuSans-Oblique-67"
             transform="translate(119.394531 -26.58125) scale(0.7)"
             id="use232" />
        </g>
        <!-- 81.92% -->
        <g
           style="fill: #008000"
           transform="translate(285.632598 19.456312) scale(0.09 -0.09)"
           id="g253">
          <defs
             id="defs239">
            <path
               id="DejaVuSans-38"
               d="M 2034 2216  Q 1584 2216 1326 1975  Q 1069 1734 1069 1313  Q 1069 891 1326 650  Q 1584 409 2034 409  Q 2484 409 2743 651  Q 3003 894 3003 1313  Q 3003 1734 2745 1975  Q 2488 2216 2034 2216  z M 1403 2484  Q 997 2584 770 2862  Q 544 3141 544 3541  Q 544 4100 942 4425  Q 1341 4750 2034 4750  Q 2731 4750 3128 4425  Q 3525 4100 3525 3541  Q 3525 3141 3298 2862  Q 3072 2584 2669 2484  Q 3125 2378 3379 2068  Q 3634 1759 3634 1313  Q 3634 634 3220 271  Q 2806 -91 2034 -91  Q 1263 -91 848 271  Q 434 634 434 1313  Q 434 1759 690 2068  Q 947 2378 1403 2484  z M 1172 3481  Q 1172 3119 1398 2916  Q 1625 2713 2034 2713  Q 2441 2713 2670 2916  Q 2900 3119 2900 3481  Q 2900 3844 2670 4047  Q 2441 4250 2034 4250  Q 1625 4250 1398 4047  Q 1172 3844 1172 3481  z "
               transform="scale(0.015625)" />
            <path
               id="DejaVuSans-39"
               d="M 703 97  L 703 672  Q 941 559 1184 500  Q 1428 441 1663 441  Q 2288 441 2617 861  Q 2947 1281 2994 2138  Q 2813 1869 2534 1725  Q 2256 1581 1919 1581  Q 1219 1581 811 2004  Q 403 2428 403 3163  Q 403 3881 828 4315  Q 1253 4750 1959 4750  Q 2769 4750 3195 4129  Q 3622 3509 3622 2328  Q 3622 1225 3098 567  Q 2575 -91 1691 -91  Q 1453 -91 1209 -44  Q 966 3 703 97  z M 1959 2075  Q 2384 2075 2632 2365  Q 2881 2656 2881 3163  Q 2881 3666 2632 3958  Q 2384 4250 1959 4250  Q 1534 4250 1286 3958  Q 1038 3666 1038 3163  Q 1038 2656 1286 2365  Q 1534 2075 1959 2075  z "
               transform="scale(0.015625)" />
            <path
               id="DejaVuSans-25"
               d="M 4653 2053  Q 4381 2053 4226 1822  Q 4072 1591 4072 1178  Q 4072 772 4226 539  Q 4381 306 4653 306  Q 4919 306 5073 539  Q 5228 772 5228 1178  Q 5228 1588 5073 1820  Q 4919 2053 4653 2053  z M 4653 2450  Q 5147 2450 5437 2106  Q 5728 1763 5728 1178  Q 5728 594 5436 251  Q 5144 -91 4653 -91  Q 4153 -91 3862 251  Q 3572 594 3572 1178  Q 3572 1766 3864 2108  Q 4156 2450 4653 2450  z M 1428 4353  Q 1159 4353 1004 4120  Q 850 3888 850 3481  Q 850 3069 1003 2837  Q 1156 2606 1428 2606  Q 1700 2606 1854 2837  Q 2009 3069 2009 3481  Q 2009 3884 1853 4118  Q 1697 4353 1428 4353  z M 4250 4750  L 4750 4750  L 1831 -91  L 1331 -91  L 4250 4750  z M 1428 4750  Q 1922 4750 2215 4408  Q 2509 4066 2509 3481  Q 2509 2891 2217 2550  Q 1925 2209 1428 2209  Q 931 2209 642 2551  Q 353 2894 353 3481  Q 353 4063 643 4406  Q 934 4750 1428 4750  z "
               transform="scale(0.015625)" />
          </defs>
          <use
             xlink:href="#DejaVuSans-38"
             id="use241" />
          <use
             xlink:href="#DejaVuSans-31"
             transform="translate(63.623047 0)"
             id="use243" />
          <use
             xlink:href="#DejaVuSans-2e"
             transform="translate(127.246094 0)"
             id="use245" />
          <use
             xlink:href="#DejaVuSans-39"
             transform="translate(159.033203 0)"
             id="use247" />
          <use
             xlink:href="#DejaVuSans-32"
             transform="translate(222.65625 0)"
             id="use249" />
          <use
             xlink:href="#DejaVuSans-25"
             transform="translate(286.279297 0)"
             id="use251" />
        </g>
        <!--  -->
        <g
           style="fill: #008000"
           transform="translate(302.790958 29.534344) scale(0.09 -0.09)"
           id="g255" />
      </g>
      <g
         id="text_10">
        <!-- $p_{sig}^{-}$ -->
        <g
           style="fill: #ff0000"
           transform="translate(53.667185 6.615) scale(0.09 -0.09)"
           id="g268">
          <use
             xlink:href="#DejaVuSans-Oblique-70"
             transform="translate(0 0.804688)"
             id="use258" />
          <use
             xlink:href="#DejaVuSans-2212"
             transform="translate(68.126458 39.15) scale(0.7)"
             id="use260" />
          <use
             xlink:href="#DejaVuSans-Oblique-73"
             transform="translate(63.476562 -26.539062) scale(0.7)"
             id="use262" />
          <use
             xlink:href="#DejaVuSans-Oblique-69"
             transform="translate(99.946289 -26.539062) scale(0.7)"
             id="use264" />
          <use
             xlink:href="#DejaVuSans-Oblique-67"
             transform="translate(119.394531 -26.539062) scale(0.7)"
             id="use266" />
        </g>
        <!-- 2.21% -->
        <g
           style="fill: #ff0000"
           transform="translate(46.886951 18.601313) scale(0.09 -0.09)"
           id="g280">
          <use
             xlink:href="#DejaVuSans-32"
             id="use270" />
          <use
             xlink:href="#DejaVuSans-2e"
             transform="translate(63.623047 0)"
             id="use272" />
          <use
             xlink:href="#DejaVuSans-32"
             transform="translate(95.410156 0)"
             id="use274" />
          <use
             xlink:href="#DejaVuSans-31"
             transform="translate(159.033203 0)"
             id="use276" />
          <use
             xlink:href="#DejaVuSans-25"
             transform="translate(222.65625 0)"
             id="use278" />
        </g>
        <!--  -->
        <g
           style="fill: #ff0000"
           transform="translate(61.182185 28.679344) scale(0.09 -0.09)"
           id="g282" />
      </g>
      <g
         id="text_11">
        <!-- $p_{ROPE}$ -->
        <g
           style="fill: #808080"
           transform="translate(136.408143 8.090156) scale(0.09 -0.09)"
           id="g301">
          <defs
             id="defs289">
            <path
               id="DejaVuSans-Oblique-52"
               d="M 1613 4147  L 1294 2491  L 2106 2491  Q 2584 2491 2879 2755  Q 3175 3019 3175 3444  Q 3175 3784 2976 3965  Q 2778 4147 2406 4147  L 1613 4147  z M 2772 2241  Q 2972 2194 3105 2009  Q 3238 1825 3413 1275  L 3809 0  L 3144 0  L 2778 1197  Q 2638 1659 2453 1815  Q 2269 1972 1888 1972  L 1191 1972  L 806 0  L 172 0  L 1081 4666  L 2503 4666  Q 3150 4666 3495 4373  Q 3841 4081 3841 3531  Q 3841 3044 3547 2687  Q 3253 2331 2772 2241  z "
               transform="scale(0.015625)" />
            <path
               id="DejaVuSans-Oblique-4f"
               d="M 2919 4238  Q 2400 4238 2003 3986  Q 1606 3734 1313 3219  Q 1125 2891 1026 2522  Q 928 2153 928 1778  Q 928 1128 1239 775  Q 1550 422 2119 422  Q 2631 422 3032 676  Q 3434 931 3719 1434  Q 3909 1772 4009 2142  Q 4109 2513 4109 2881  Q 4109 3528 3796 3883  Q 3484 4238 2919 4238  z M 2100 -91  Q 1241 -91 748 418  Q 256 928 256 1813  Q 256 2319 448 2847  Q 641 3375 978 3788  Q 1375 4272 1862 4511  Q 2350 4750 2938 4750  Q 3794 4750 4287 4245  Q 4781 3741 4781 2869  Q 4781 2331 4593 1812  Q 4406 1294 4056 872  Q 3656 384 3173 146  Q 2691 -91 2100 -91  z "
               transform="scale(0.015625)" />
            <path
               id="DejaVuSans-Oblique-50"
               d="M 1081 4666  L 2541 4666  Q 3178 4666 3512 4369  Q 3847 4072 3847 3500  Q 3847 2731 3353 2303  Q 2859 1875 1966 1875  L 1172 1875  L 806 0  L 172 0  L 1081 4666  z M 1613 4147  L 1275 2394  L 2069 2394  Q 2606 2394 2893 2669  Q 3181 2944 3181 3456  Q 3181 3784 2986 3965  Q 2791 4147 2438 4147  L 1613 4147  z "
               transform="scale(0.015625)" />
            <path
               id="DejaVuSans-Oblique-45"
               d="M 1081 4666  L 4031 4666  L 3928 4134  L 1606 4134  L 1338 2753  L 3566 2753  L 3463 2222  L 1234 2222  L 909 531  L 3284 531  L 3181 0  L 172 0  L 1081 4666  z "
               transform="scale(0.015625)" />
          </defs>
          <use
             xlink:href="#DejaVuSans-Oblique-70"
             id="use291" />
          <use
             xlink:href="#DejaVuSans-Oblique-52"
             transform="translate(63.476562 -16.40625) scale(0.7)"
             id="use293" />
          <use
             xlink:href="#DejaVuSans-Oblique-4f"
             transform="translate(112.114258 -16.40625) scale(0.7)"
             id="use295" />
          <use
             xlink:href="#DejaVuSans-Oblique-50"
             transform="translate(167.211914 -16.40625) scale(0.7)"
             id="use297" />
          <use
             xlink:href="#DejaVuSans-Oblique-45"
             transform="translate(209.423828 -16.40625) scale(0.7)"
             id="use299" />
        </g>
        <!-- 15.87% -->
        <g
           style="fill: #808080"
           transform="translate(130.814784 18.186469) scale(0.09 -0.09)"
           id="g318">
          <defs
             id="defs304">
            <path
               id="DejaVuSans-37"
               d="M 525 4666  L 3525 4666  L 3525 4397  L 1831 0  L 1172 0  L 2766 4134  L 525 4134  L 525 4666  z "
               transform="scale(0.015625)" />
          </defs>
          <use
             xlink:href="#DejaVuSans-31"
             id="use306" />
          <use
             xlink:href="#DejaVuSans-35"
             transform="translate(63.623047 0)"
             id="use308" />
          <use
             xlink:href="#DejaVuSans-2e"
             transform="translate(127.246094 0)"
             id="use310" />
          <use
             xlink:href="#DejaVuSans-38"
             transform="translate(159.033203 0)"
             id="use312" />
          <use
             xlink:href="#DejaVuSans-37"
             transform="translate(222.65625 0)"
             id="use314" />
          <use
             xlink:href="#DejaVuSans-25"
             transform="translate(286.279297 0)"
             id="use316" />
        </g>
        <!--  -->
        <g
           style="fill: #808080"
           transform="translate(147.973143 28.2645) scale(0.09 -0.09)"
           id="g320" />
      </g>
    </g>
  </g>
  <defs
     id="defs328">
    <clipPath
       id="pb41fcfcfb2">
      <rect
         x="0"
         y="14.083313"
         width="432"
         height="126.9695"
         id="rect325" />
    </clipPath>
  </defs>
</svg>
