<?xml version="1.0" encoding="utf-8" standalone="no"?>
<!DOCTYPE svg PUBLIC "-//W3C//DTD SVG 1.1//EN"
  "http://www.w3.org/Graphics/SVG/1.1/DTD/svg11.dtd">
<svg xmlns:xlink="http://www.w3.org/1999/xlink" width="432.55125pt" height="156.943828pt" viewBox="0 0 432.55125 156.943828" xmlns="http://www.w3.org/2000/svg" version="1.1">
 <metadata>
  <rdf:RDF xmlns:dc="http://purl.org/dc/elements/1.1/" xmlns:cc="http://creativecommons.org/ns#" xmlns:rdf="http://www.w3.org/1999/02/22-rdf-syntax-ns#">
   <cc:Work>
    <dc:type rdf:resource="http://purl.org/dc/dcmitype/StillImage"/>
    <dc:date>2025-06-30T16:40:54.813179</dc:date>
    <dc:format>image/svg+xml</dc:format>
    <dc:creator>
     <cc:Agent>
      <dc:title>Matplotlib v3.10.3, https://matplotlib.org/</dc:title>
     </cc:Agent>
    </dc:creator>
   </cc:Work>
  </rdf:RDF>
 </metadata>
 <defs>
  <style type="text/css">*{stroke-linejoin: round; stroke-linecap: butt}</style>
 </defs>
 <g id="figure_1">
  <g id="patch_1">
   <path d="M 0 156.943828
L 432.55125 156.943828
L 432.55125 0
L 0 0
z
" style="fill: #ffffff"/>
  </g>
  <g id="axes_1">
   <g id="patch_2">
    <path d="M 113.989688 128.523203
L 244.829687 128.523203
L 244.829687 3.443203
L 113.989688 3.443203
z
" style="fill: #ffffff"/>
   </g>
   <g id="LineCollection_1">
    <path d="M 170.4587 31.238759
L 238.882415 31.238759
" clip-path="url(#pb6b68fac36)" style="fill: none; stroke: #000000"/>
   </g>
   <g id="LineCollection_2">
    <path d="M 119.93696 59.034314
L 208.534754 59.034314
" clip-path="url(#pb6b68fac36)" style="fill: none; stroke: #000000"/>
   </g>
   <g id="LineCollection_3">
    <path d="M 157.878994 114.625425
L 215.897264 114.625425
" clip-path="url(#pb6b68fac36)" style="fill: none; stroke: #000000"/>
   </g>
   <g id="line2d_1">
    <path d="M 188.298574 147.285203
L 188.298574 -1
" clip-path="url(#pb6b68fac36)" style="fill: none; stroke-dasharray: 3.7,1.6; stroke-dashoffset: 0; stroke: #000000"/>
   </g>
   <g id="PathCollection_1">
    <defs>
     <path id="mf6a8c8f2d1" d="M -3.5 3.5
L 3.5 3.5
L 3.5 -3.5
L -3.5 -3.5
z
" style="stroke: #000000; stroke-width: 1.5"/>
    </defs>
    <g clip-path="url(#pb6b68fac36)">
     <use xlink:href="#mf6a8c8f2d1" x="208.320502" y="31.238759" style="stroke: #000000; stroke-width: 1.5"/>
    </g>
   </g>
   <g id="PathCollection_2">
    <g clip-path="url(#pb6b68fac36)">
     <use xlink:href="#mf6a8c8f2d1" x="165.771898" y="59.034314" style="stroke: #000000; stroke-width: 1.5"/>
    </g>
   </g>
   <g id="PathCollection_3">
    <defs>
     <path id="me1e45255ce" d="M -0 6.363961
L 6.363961 0
L 0 -6.363961
L -6.363961 -0
z
" style="stroke: #000000; stroke-width: 1.5"/>
    </defs>
    <g clip-path="url(#pb6b68fac36)">
     <use xlink:href="#me1e45255ce" x="188.298574" y="114.625425" style="fill: #ffffff; stroke: #000000; stroke-width: 1.5"/>
    </g>
   </g>
   <g id="matplotlib.axis_1">
    <g id="xtick_1">
     <g id="line2d_2">
      <defs>
       <path id="m9a5dbac8d5" d="M 0 0
L 0 3.5
" style="stroke: #000000; stroke-width: 0.8"/>
      </defs>
      <g>
       <use xlink:href="#m9a5dbac8d5" x="128.311135" y="128.523203" style="stroke: #000000; stroke-width: 0.8"/>
      </g>
     </g>
     <g id="text_1">
      <!-- 0.6 -->
      <g transform="translate(121.154729 142.361797) scale(0.09 -0.09)">
       <defs>
        <path id="DejaVuSans-30" d="M 2034 4250
Q 1547 4250 1301 3770
Q 1056 3291 1056 2328
Q 1056 1369 1301 889
Q 1547 409 2034 409
Q 2525 409 2770 889
Q 3016 1369 3016 2328
Q 3016 3291 2770 3770
Q 2525 4250 2034 4250
z
M 2034 4750
Q 2819 4750 3233 4129
Q 3647 3509 3647 2328
Q 3647 1150 3233 529
Q 2819 -91 2034 -91
Q 1250 -91 836 529
Q 422 1150 422 2328
Q 422 3509 836 4129
Q 1250 4750 2034 4750
z
" transform="scale(0.015625)"/>
        <path id="DejaVuSans-2e" d="M 684 794
L 1344 794
L 1344 0
L 684 0
L 684 794
z
" transform="scale(0.015625)"/>
        <path id="DejaVuSans-36" d="M 2113 2584
Q 1688 2584 1439 2293
Q 1191 2003 1191 1497
Q 1191 994 1439 701
Q 1688 409 2113 409
Q 2538 409 2786 701
Q 3034 994 3034 1497
Q 3034 2003 2786 2293
Q 2538 2584 2113 2584
z
M 3366 4563
L 3366 3988
Q 3128 4100 2886 4159
Q 2644 4219 2406 4219
Q 1781 4219 1451 3797
Q 1122 3375 1075 2522
Q 1259 2794 1537 2939
Q 1816 3084 2150 3084
Q 2853 3084 3261 2657
Q 3669 2231 3669 1497
Q 3669 778 3244 343
Q 2819 -91 2113 -91
Q 1303 -91 875 529
Q 447 1150 447 2328
Q 447 3434 972 4092
Q 1497 4750 2381 4750
Q 2619 4750 2861 4703
Q 3103 4656 3366 4563
z
" transform="scale(0.015625)"/>
       </defs>
       <use xlink:href="#DejaVuSans-30"/>
       <use xlink:href="#DejaVuSans-2e" transform="translate(63.623047 0)"/>
       <use xlink:href="#DejaVuSans-36" transform="translate(95.410156 0)"/>
      </g>
     </g>
    </g>
    <g id="xtick_2">
     <g id="line2d_3">
      <g>
       <use xlink:href="#m9a5dbac8d5" x="192.230791" y="128.523203" style="stroke: #000000; stroke-width: 0.8"/>
      </g>
     </g>
     <g id="text_2">
      <!-- 0.8 -->
      <g transform="translate(185.074384 142.361797) scale(0.09 -0.09)">
       <defs>
        <path id="DejaVuSans-38" d="M 2034 2216
Q 1584 2216 1326 1975
Q 1069 1734 1069 1313
Q 1069 891 1326 650
Q 1584 409 2034 409
Q 2484 409 2743 651
Q 3003 894 3003 1313
Q 3003 1734 2745 1975
Q 2488 2216 2034 2216
z
M 1403 2484
Q 997 2584 770 2862
Q 544 3141 544 3541
Q 544 4100 942 4425
Q 1341 4750 2034 4750
Q 2731 4750 3128 4425
Q 3525 4100 3525 3541
Q 3525 3141 3298 2862
Q 3072 2584 2669 2484
Q 3125 2378 3379 2068
Q 3634 1759 3634 1313
Q 3634 634 3220 271
Q 2806 -91 2034 -91
Q 1263 -91 848 271
Q 434 634 434 1313
Q 434 1759 690 2068
Q 947 2378 1403 2484
z
M 1172 3481
Q 1172 3119 1398 2916
Q 1625 2713 2034 2713
Q 2441 2713 2670 2916
Q 2900 3119 2900 3481
Q 2900 3844 2670 4047
Q 2441 4250 2034 4250
Q 1625 4250 1398 4047
Q 1172 3844 1172 3481
z
" transform="scale(0.015625)"/>
       </defs>
       <use xlink:href="#DejaVuSans-30"/>
       <use xlink:href="#DejaVuSans-2e" transform="translate(63.623047 0)"/>
       <use xlink:href="#DejaVuSans-38" transform="translate(95.410156 0)"/>
      </g>
     </g>
    </g>
    <g id="text_3">
     <!-- Accuracy -->
     <g transform="translate(158.864375 155.072109) scale(0.09 -0.09)">
      <defs>
       <path id="DejaVuSans-41" d="M 2188 4044
L 1331 1722
L 3047 1722
L 2188 4044
z
M 1831 4666
L 2547 4666
L 4325 0
L 3669 0
L 3244 1197
L 1141 1197
L 716 0
L 50 0
L 1831 4666
z
" transform="scale(0.015625)"/>
       <path id="DejaVuSans-63" d="M 3122 3366
L 3122 2828
Q 2878 2963 2633 3030
Q 2388 3097 2138 3097
Q 1578 3097 1268 2742
Q 959 2388 959 1747
Q 959 1106 1268 751
Q 1578 397 2138 397
Q 2388 397 2633 464
Q 2878 531 3122 666
L 3122 134
Q 2881 22 2623 -34
Q 2366 -91 2075 -91
Q 1284 -91 818 406
Q 353 903 353 1747
Q 353 2603 823 3093
Q 1294 3584 2113 3584
Q 2378 3584 2631 3529
Q 2884 3475 3122 3366
z
" transform="scale(0.015625)"/>
       <path id="DejaVuSans-75" d="M 544 1381
L 544 3500
L 1119 3500
L 1119 1403
Q 1119 906 1312 657
Q 1506 409 1894 409
Q 2359 409 2629 706
Q 2900 1003 2900 1516
L 2900 3500
L 3475 3500
L 3475 0
L 2900 0
L 2900 538
Q 2691 219 2414 64
Q 2138 -91 1772 -91
Q 1169 -91 856 284
Q 544 659 544 1381
z
M 1991 3584
L 1991 3584
z
" transform="scale(0.015625)"/>
       <path id="DejaVuSans-72" d="M 2631 2963
Q 2534 3019 2420 3045
Q 2306 3072 2169 3072
Q 1681 3072 1420 2755
Q 1159 2438 1159 1844
L 1159 0
L 581 0
L 581 3500
L 1159 3500
L 1159 2956
Q 1341 3275 1631 3429
Q 1922 3584 2338 3584
Q 2397 3584 2469 3576
Q 2541 3569 2628 3553
L 2631 2963
z
" transform="scale(0.015625)"/>
       <path id="DejaVuSans-61" d="M 2194 1759
Q 1497 1759 1228 1600
Q 959 1441 959 1056
Q 959 750 1161 570
Q 1363 391 1709 391
Q 2188 391 2477 730
Q 2766 1069 2766 1631
L 2766 1759
L 2194 1759
z
M 3341 1997
L 3341 0
L 2766 0
L 2766 531
Q 2569 213 2275 61
Q 1981 -91 1556 -91
Q 1019 -91 701 211
Q 384 513 384 1019
Q 384 1609 779 1909
Q 1175 2209 1959 2209
L 2766 2209
L 2766 2266
Q 2766 2663 2505 2880
Q 2244 3097 1772 3097
Q 1472 3097 1187 3025
Q 903 2953 641 2809
L 641 3341
Q 956 3463 1253 3523
Q 1550 3584 1831 3584
Q 2591 3584 2966 3190
Q 3341 2797 3341 1997
z
" transform="scale(0.015625)"/>
       <path id="DejaVuSans-79" d="M 2059 -325
Q 1816 -950 1584 -1140
Q 1353 -1331 966 -1331
L 506 -1331
L 506 -850
L 844 -850
Q 1081 -850 1212 -737
Q 1344 -625 1503 -206
L 1606 56
L 191 3500
L 800 3500
L 1894 763
L 2988 3500
L 3597 3500
L 2059 -325
z
" transform="scale(0.015625)"/>
      </defs>
      <use xlink:href="#DejaVuSans-41"/>
      <use xlink:href="#DejaVuSans-63" transform="translate(66.658203 0)"/>
      <use xlink:href="#DejaVuSans-63" transform="translate(121.638672 0)"/>
      <use xlink:href="#DejaVuSans-75" transform="translate(176.619141 0)"/>
      <use xlink:href="#DejaVuSans-72" transform="translate(239.998047 0)"/>
      <use xlink:href="#DejaVuSans-61" transform="translate(281.111328 0)"/>
      <use xlink:href="#DejaVuSans-63" transform="translate(342.390625 0)"/>
      <use xlink:href="#DejaVuSans-79" transform="translate(397.371094 0)"/>
     </g>
    </g>
   </g>
   <g id="matplotlib.axis_2">
    <g id="ytick_1">
     <g id="line2d_4"/>
     <g id="text_4">
      <!-- Experiment Name -->
      <g transform="translate(29.215469 6.886406) scale(0.09 -0.09)">
       <defs>
        <path id="DejaVuSansMono-45" d="M 616 4666
L 3384 4666
L 3384 4134
L 1247 4134
L 1247 2753
L 3291 2753
L 3291 2222
L 1247 2222
L 1247 531
L 3444 531
L 3444 0
L 616 0
L 616 4666
z
" transform="scale(0.015625)"/>
        <path id="DejaVuSansMono-78" d="M 3494 3500
L 2241 1825
L 3616 0
L 2950 0
L 1925 1403
L 903 0
L 238 0
L 1613 1825
L 359 3500
L 997 3500
L 1925 2234
L 2847 3500
L 3494 3500
z
" transform="scale(0.015625)"/>
        <path id="DejaVuSansMono-70" d="M 1172 441
L 1172 -1331
L 594 -1331
L 594 3500
L 1172 3500
L 1172 3053
Q 1316 3313 1555 3448
Q 1794 3584 2106 3584
Q 2741 3584 3102 3093
Q 3463 2603 3463 1734
Q 3463 881 3100 395
Q 2738 -91 2106 -91
Q 1788 -91 1548 45
Q 1309 181 1172 441
z
M 2859 1747
Q 2859 2416 2648 2756
Q 2438 3097 2022 3097
Q 1603 3097 1387 2755
Q 1172 2413 1172 1747
Q 1172 1084 1387 740
Q 1603 397 2022 397
Q 2438 397 2648 737
Q 2859 1078 2859 1747
z
" transform="scale(0.015625)"/>
        <path id="DejaVuSansMono-65" d="M 3475 1894
L 3475 1613
L 984 1613
L 984 1594
Q 984 1022 1282 709
Q 1581 397 2125 397
Q 2400 397 2700 484
Q 3000 572 3341 750
L 3341 178
Q 3013 44 2708 -23
Q 2403 -91 2119 -91
Q 1303 -91 843 398
Q 384 888 384 1747
Q 384 2584 834 3084
Q 1284 3584 2034 3584
Q 2703 3584 3089 3131
Q 3475 2678 3475 1894
z
M 2900 2063
Q 2888 2569 2661 2833
Q 2434 3097 2009 3097
Q 1594 3097 1325 2822
Q 1056 2547 1006 2059
L 2900 2063
z
" transform="scale(0.015625)"/>
        <path id="DejaVuSansMono-72" d="M 3609 2778
Q 3425 2922 3234 2987
Q 3044 3053 2816 3053
Q 2278 3053 1993 2715
Q 1709 2378 1709 1741
L 1709 0
L 1131 0
L 1131 3500
L 1709 3500
L 1709 2816
Q 1853 3188 2151 3386
Q 2450 3584 2859 3584
Q 3072 3584 3256 3531
Q 3441 3478 3609 3366
L 3609 2778
z
" transform="scale(0.015625)"/>
        <path id="DejaVuSansMono-69" d="M 800 3500
L 2272 3500
L 2272 447
L 3413 447
L 3413 0
L 556 0
L 556 447
L 1697 447
L 1697 3053
L 800 3053
L 800 3500
z
M 1697 4863
L 2272 4863
L 2272 4134
L 1697 4134
L 1697 4863
z
" transform="scale(0.015625)"/>
        <path id="DejaVuSansMono-6d" d="M 2113 3144
Q 2219 3369 2383 3476
Q 2547 3584 2778 3584
Q 3200 3584 3373 3257
Q 3547 2931 3547 2028
L 3547 0
L 3022 0
L 3022 2003
Q 3022 2744 2939 2923
Q 2856 3103 2638 3103
Q 2388 3103 2295 2911
Q 2203 2719 2203 2003
L 2203 0
L 1678 0
L 1678 2003
Q 1678 2753 1589 2928
Q 1500 3103 1269 3103
Q 1041 3103 952 2911
Q 863 2719 863 2003
L 863 0
L 341 0
L 341 3500
L 863 3500
L 863 3200
Q 966 3388 1120 3486
Q 1275 3584 1472 3584
Q 1709 3584 1867 3475
Q 2025 3366 2113 3144
z
" transform="scale(0.015625)"/>
        <path id="DejaVuSansMono-6e" d="M 3284 2169
L 3284 0
L 2706 0
L 2706 2169
Q 2706 2641 2540 2862
Q 2375 3084 2022 3084
Q 1619 3084 1401 2798
Q 1184 2513 1184 1978
L 1184 0
L 609 0
L 609 3500
L 1184 3500
L 1184 2975
Q 1338 3275 1600 3429
Q 1863 3584 2222 3584
Q 2756 3584 3020 3232
Q 3284 2881 3284 2169
z
" transform="scale(0.015625)"/>
        <path id="DejaVuSansMono-74" d="M 1919 4494
L 1919 3500
L 3225 3500
L 3225 3053
L 1919 3053
L 1919 1153
Q 1919 766 2066 612
Q 2213 459 2578 459
L 3225 459
L 3225 0
L 2522 0
Q 1875 0 1609 259
Q 1344 519 1344 1153
L 1344 3053
L 409 3053
L 409 3500
L 1344 3500
L 1344 4494
L 1919 4494
z
" transform="scale(0.015625)"/>
        <path id="DejaVuSansMono-20" transform="scale(0.015625)"/>
        <path id="DejaVuSansMono-4e" d="M 434 4666
L 1234 4666
L 2809 825
L 2809 4666
L 3419 4666
L 3419 0
L 2619 0
L 1044 3841
L 1044 0
L 434 0
L 434 4666
z
" transform="scale(0.015625)"/>
        <path id="DejaVuSansMono-61" d="M 2194 1759
L 2003 1759
Q 1500 1759 1245 1582
Q 991 1406 991 1056
Q 991 741 1181 566
Q 1372 391 1709 391
Q 2184 391 2456 720
Q 2728 1050 2731 1631
L 2731 1759
L 2194 1759
z
M 3309 1997
L 3309 0
L 2731 0
L 2731 519
Q 2547 206 2267 57
Q 1988 -91 1588 -91
Q 1053 -91 734 211
Q 416 513 416 1019
Q 416 1603 808 1906
Q 1200 2209 1959 2209
L 2731 2209
L 2731 2300
Q 2728 2719 2518 2908
Q 2309 3097 1850 3097
Q 1556 3097 1256 3012
Q 956 2928 672 2766
L 672 3341
Q 991 3463 1283 3523
Q 1575 3584 1850 3584
Q 2284 3584 2592 3456
Q 2900 3328 3091 3072
Q 3209 2916 3259 2686
Q 3309 2456 3309 1997
z
" transform="scale(0.015625)"/>
       </defs>
       <use xlink:href="#DejaVuSansMono-45"/>
       <use xlink:href="#DejaVuSansMono-78" transform="translate(60.205078 0)"/>
       <use xlink:href="#DejaVuSansMono-70" transform="translate(120.410156 0)"/>
       <use xlink:href="#DejaVuSansMono-65" transform="translate(180.615234 0)"/>
       <use xlink:href="#DejaVuSansMono-72" transform="translate(240.820312 0)"/>
       <use xlink:href="#DejaVuSansMono-69" transform="translate(301.025391 0)"/>
       <use xlink:href="#DejaVuSansMono-6d" transform="translate(361.230469 0)"/>
       <use xlink:href="#DejaVuSansMono-65" transform="translate(421.435547 0)"/>
       <use xlink:href="#DejaVuSansMono-6e" transform="translate(481.640625 0)"/>
       <use xlink:href="#DejaVuSansMono-74" transform="translate(541.845703 0)"/>
       <use xlink:href="#DejaVuSansMono-20" transform="translate(602.050781 0)"/>
       <use xlink:href="#DejaVuSansMono-4e" transform="translate(662.255859 0)"/>
       <use xlink:href="#DejaVuSansMono-61" transform="translate(722.460938 0)"/>
       <use xlink:href="#DejaVuSansMono-6d" transform="translate(782.666016 0)"/>
       <use xlink:href="#DejaVuSansMono-65" transform="translate(842.871094 0)"/>
      </g>
     </g>
    </g>
    <g id="ytick_2">
     <g id="line2d_5"/>
     <g id="text_5">
      <!-- fold_0          -->
      <g transform="translate(29.215469 34.681962) scale(0.09 -0.09)">
       <defs>
        <path id="DejaVuSansMono-66" d="M 3322 4863
L 3322 4384
L 2669 4384
Q 2359 4384 2239 4257
Q 2119 4131 2119 3809
L 2119 3500
L 3322 3500
L 3322 3053
L 2119 3053
L 2119 0
L 1544 0
L 1544 3053
L 609 3053
L 609 3500
L 1544 3500
L 1544 3744
Q 1544 4319 1808 4591
Q 2072 4863 2631 4863
L 3322 4863
z
" transform="scale(0.015625)"/>
        <path id="DejaVuSansMono-6f" d="M 1925 3097
Q 1488 3097 1263 2756
Q 1038 2416 1038 1747
Q 1038 1081 1263 739
Q 1488 397 1925 397
Q 2366 397 2591 739
Q 2816 1081 2816 1747
Q 2816 2416 2591 2756
Q 2366 3097 1925 3097
z
M 1925 3584
Q 2653 3584 3039 3112
Q 3425 2641 3425 1747
Q 3425 850 3040 379
Q 2656 -91 1925 -91
Q 1197 -91 812 379
Q 428 850 428 1747
Q 428 2641 812 3112
Q 1197 3584 1925 3584
z
" transform="scale(0.015625)"/>
        <path id="DejaVuSansMono-6c" d="M 1997 1269
Q 1997 881 2139 684
Q 2281 488 2559 488
L 3231 488
L 3231 0
L 2503 0
Q 1988 0 1705 331
Q 1422 663 1422 1269
L 1422 4447
L 500 4447
L 500 4897
L 1997 4897
L 1997 1269
z
" transform="scale(0.015625)"/>
        <path id="DejaVuSansMono-64" d="M 2681 3053
L 2681 4863
L 3256 4863
L 3256 0
L 2681 0
L 2681 441
Q 2538 181 2298 45
Q 2059 -91 1747 -91
Q 1113 -91 748 401
Q 384 894 384 1759
Q 384 2613 750 3098
Q 1116 3584 1747 3584
Q 2063 3584 2303 3448
Q 2544 3313 2681 3053
z
M 991 1747
Q 991 1078 1203 737
Q 1416 397 1831 397
Q 2247 397 2464 740
Q 2681 1084 2681 1747
Q 2681 2413 2464 2755
Q 2247 3097 1831 3097
Q 1416 3097 1203 2756
Q 991 2416 991 1747
z
" transform="scale(0.015625)"/>
        <path id="DejaVuSansMono-5f" d="M 3853 -1259
L 3853 -1509
L 0 -1509
L 0 -1259
L 3853 -1259
z
" transform="scale(0.015625)"/>
        <path id="DejaVuSansMono-30" d="M 1509 2344
Q 1509 2516 1629 2641
Q 1750 2766 1919 2766
Q 2094 2766 2219 2641
Q 2344 2516 2344 2344
Q 2344 2169 2220 2047
Q 2097 1925 1919 1925
Q 1744 1925 1626 2044
Q 1509 2163 1509 2344
z
M 1925 4250
Q 1484 4250 1267 3775
Q 1050 3300 1050 2328
Q 1050 1359 1267 884
Q 1484 409 1925 409
Q 2369 409 2586 884
Q 2803 1359 2803 2328
Q 2803 3300 2586 3775
Q 2369 4250 1925 4250
z
M 1925 4750
Q 2672 4750 3055 4137
Q 3438 3525 3438 2328
Q 3438 1134 3055 521
Q 2672 -91 1925 -91
Q 1178 -91 797 521
Q 416 1134 416 2328
Q 416 3525 797 4137
Q 1178 4750 1925 4750
z
" transform="scale(0.015625)"/>
       </defs>
       <use xlink:href="#DejaVuSansMono-66"/>
       <use xlink:href="#DejaVuSansMono-6f" transform="translate(60.205078 0)"/>
       <use xlink:href="#DejaVuSansMono-6c" transform="translate(120.410156 0)"/>
       <use xlink:href="#DejaVuSansMono-64" transform="translate(180.615234 0)"/>
       <use xlink:href="#DejaVuSansMono-5f" transform="translate(240.820312 0)"/>
       <use xlink:href="#DejaVuSansMono-30" transform="translate(301.025391 0)"/>
       <use xlink:href="#DejaVuSansMono-20" transform="translate(361.230469 0)"/>
       <use xlink:href="#DejaVuSansMono-20" transform="translate(421.435547 0)"/>
       <use xlink:href="#DejaVuSansMono-20" transform="translate(481.640625 0)"/>
       <use xlink:href="#DejaVuSansMono-20" transform="translate(541.845703 0)"/>
       <use xlink:href="#DejaVuSansMono-20" transform="translate(602.050781 0)"/>
       <use xlink:href="#DejaVuSansMono-20" transform="translate(662.255859 0)"/>
       <use xlink:href="#DejaVuSansMono-20" transform="translate(722.460938 0)"/>
       <use xlink:href="#DejaVuSansMono-20" transform="translate(782.666016 0)"/>
       <use xlink:href="#DejaVuSansMono-20" transform="translate(842.871094 0)"/>
      </g>
     </g>
    </g>
    <g id="ytick_3">
     <g id="line2d_6"/>
     <g id="text_6">
      <!-- fold_1          -->
      <g transform="translate(29.215469 62.477517) scale(0.09 -0.09)">
       <defs>
        <path id="DejaVuSansMono-31" d="M 844 531
L 1825 531
L 1825 4097
L 769 3859
L 769 4434
L 1819 4666
L 2450 4666
L 2450 531
L 3419 531
L 3419 0
L 844 0
L 844 531
z
" transform="scale(0.015625)"/>
       </defs>
       <use xlink:href="#DejaVuSansMono-66"/>
       <use xlink:href="#DejaVuSansMono-6f" transform="translate(60.205078 0)"/>
       <use xlink:href="#DejaVuSansMono-6c" transform="translate(120.410156 0)"/>
       <use xlink:href="#DejaVuSansMono-64" transform="translate(180.615234 0)"/>
       <use xlink:href="#DejaVuSansMono-5f" transform="translate(240.820312 0)"/>
       <use xlink:href="#DejaVuSansMono-31" transform="translate(301.025391 0)"/>
       <use xlink:href="#DejaVuSansMono-20" transform="translate(361.230469 0)"/>
       <use xlink:href="#DejaVuSansMono-20" transform="translate(421.435547 0)"/>
       <use xlink:href="#DejaVuSansMono-20" transform="translate(481.640625 0)"/>
       <use xlink:href="#DejaVuSansMono-20" transform="translate(541.845703 0)"/>
       <use xlink:href="#DejaVuSansMono-20" transform="translate(602.050781 0)"/>
       <use xlink:href="#DejaVuSansMono-20" transform="translate(662.255859 0)"/>
       <use xlink:href="#DejaVuSansMono-20" transform="translate(722.460938 0)"/>
       <use xlink:href="#DejaVuSansMono-20" transform="translate(782.666016 0)"/>
       <use xlink:href="#DejaVuSansMono-20" transform="translate(842.871094 0)"/>
      </g>
     </g>
    </g>
    <g id="ytick_4">
     <g id="line2d_7"/>
    </g>
    <g id="ytick_5">
     <g id="line2d_8"/>
     <g id="text_7">
      <!-- Aggregate       -->
      <g transform="translate(29.215469 113.627691) scale(0.09 -0.09)">
       <defs>
        <path id="DejaVuSansMono-41" d="M 1925 4109
L 1259 1722
L 2591 1722
L 1925 4109
z
M 1544 4666
L 2309 4666
L 3738 0
L 3084 0
L 2741 1216
L 1106 1216
L 769 0
L 116 0
L 1544 4666
z
" transform="scale(0.015625)"/>
        <path id="DejaVuSansMono-67" d="M 2681 1778
Q 2681 2425 2470 2761
Q 2259 3097 1856 3097
Q 1434 3097 1212 2761
Q 991 2425 991 1778
Q 991 1131 1214 792
Q 1438 453 1863 453
Q 2259 453 2470 793
Q 2681 1134 2681 1778
z
M 3256 225
Q 3256 -563 2884 -969
Q 2513 -1375 1791 -1375
Q 1553 -1375 1293 -1331
Q 1034 -1288 775 -1203
L 775 -634
Q 1081 -778 1331 -847
Q 1581 -916 1791 -916
Q 2256 -916 2468 -662
Q 2681 -409 2681 141
L 2681 166
L 2681 556
Q 2544 263 2306 119
Q 2069 -25 1728 -25
Q 1116 -25 750 465
Q 384 956 384 1778
Q 384 2603 750 3093
Q 1116 3584 1728 3584
Q 2066 3584 2300 3450
Q 2534 3316 2681 3034
L 2681 3488
L 3256 3488
L 3256 225
z
" transform="scale(0.015625)"/>
       </defs>
       <use xlink:href="#DejaVuSansMono-41"/>
       <use xlink:href="#DejaVuSansMono-67" transform="translate(60.205078 0)"/>
       <use xlink:href="#DejaVuSansMono-67" transform="translate(120.410156 0)"/>
       <use xlink:href="#DejaVuSansMono-72" transform="translate(180.615234 0)"/>
       <use xlink:href="#DejaVuSansMono-65" transform="translate(240.820312 0)"/>
       <use xlink:href="#DejaVuSansMono-67" transform="translate(301.025391 0)"/>
       <use xlink:href="#DejaVuSansMono-61" transform="translate(361.230469 0)"/>
       <use xlink:href="#DejaVuSansMono-74" transform="translate(421.435547 0)"/>
       <use xlink:href="#DejaVuSansMono-65" transform="translate(481.640625 0)"/>
       <use xlink:href="#DejaVuSansMono-20" transform="translate(541.845703 0)"/>
       <use xlink:href="#DejaVuSansMono-20" transform="translate(602.050781 0)"/>
       <use xlink:href="#DejaVuSansMono-20" transform="translate(662.255859 0)"/>
       <use xlink:href="#DejaVuSansMono-20" transform="translate(722.460938 0)"/>
       <use xlink:href="#DejaVuSansMono-20" transform="translate(782.666016 0)"/>
       <use xlink:href="#DejaVuSansMono-20" transform="translate(842.871094 0)"/>
      </g>
      <!-- I2=51.93%          -->
      <g transform="translate(12.960625 123.824972) scale(0.09 -0.09)">
       <defs>
        <path id="DejaVuSansMono-49" d="M 628 4666
L 3219 4666
L 3219 4134
L 2241 4134
L 2241 531
L 3219 531
L 3219 0
L 628 0
L 628 531
L 1606 531
L 1606 4134
L 628 4134
L 628 4666
z
" transform="scale(0.015625)"/>
        <path id="DejaVuSansMono-32" d="M 1166 531
L 3309 531
L 3309 0
L 475 0
L 475 531
Q 1059 1147 1496 1619
Q 1934 2091 2100 2284
Q 2413 2666 2522 2902
Q 2631 3138 2631 3384
Q 2631 3775 2401 3997
Q 2172 4219 1772 4219
Q 1488 4219 1175 4116
Q 863 4013 513 3803
L 513 4441
Q 834 4594 1145 4672
Q 1456 4750 1759 4750
Q 2444 4750 2861 4386
Q 3278 4022 3278 3431
Q 3278 3131 3139 2831
Q 3000 2531 2688 2169
Q 2513 1966 2180 1606
Q 1847 1247 1166 531
z
" transform="scale(0.015625)"/>
        <path id="DejaVuSansMono-3d" d="M 275 1638
L 3578 1638
L 3578 1100
L 275 1100
L 275 1638
z
M 275 2906
L 3578 2906
L 3578 2375
L 275 2375
L 275 2906
z
" transform="scale(0.015625)"/>
        <path id="DejaVuSansMono-35" d="M 647 4666
L 3009 4666
L 3009 4134
L 1222 4134
L 1222 2988
Q 1356 3038 1492 3061
Q 1628 3084 1766 3084
Q 2491 3084 2916 2656
Q 3341 2228 3341 1497
Q 3341 759 2895 334
Q 2450 -91 1678 -91
Q 1306 -91 998 -41
Q 691 9 447 109
L 447 750
Q 734 594 1025 517
Q 1316 441 1619 441
Q 2141 441 2423 716
Q 2706 991 2706 1497
Q 2706 1997 2414 2275
Q 2122 2553 1600 2553
Q 1347 2553 1106 2495
Q 866 2438 647 2322
L 647 4666
z
" transform="scale(0.015625)"/>
        <path id="DejaVuSansMono-2e" d="M 1528 953
L 2316 953
L 2316 0
L 1528 0
L 1528 953
z
" transform="scale(0.015625)"/>
        <path id="DejaVuSansMono-39" d="M 1863 2069
Q 2266 2069 2495 2359
Q 2725 2650 2725 3163
Q 2725 3675 2495 3965
Q 2266 4256 1863 4256
Q 1444 4256 1231 3979
Q 1019 3703 1019 3163
Q 1019 2619 1230 2344
Q 1441 2069 1863 2069
z
M 738 97
L 738 678
Q 934 563 1156 502
Q 1378 441 1619 441
Q 2219 441 2526 892
Q 2834 1344 2834 2222
Q 2688 1909 2422 1742
Q 2156 1575 1813 1575
Q 1138 1575 767 1990
Q 397 2406 397 3169
Q 397 3922 776 4336
Q 1156 4750 1850 4750
Q 2663 4750 3041 4165
Q 3419 3581 3419 2328
Q 3419 1150 2964 529
Q 2509 -91 1644 -91
Q 1416 -91 1184 -42
Q 953 6 738 97
z
" transform="scale(0.015625)"/>
        <path id="DejaVuSansMono-33" d="M 2425 2497
Q 2884 2375 3128 2064
Q 3372 1753 3372 1288
Q 3372 644 2939 276
Q 2506 -91 1741 -91
Q 1419 -91 1084 -31
Q 750 28 428 141
L 428 769
Q 747 603 1056 522
Q 1366 441 1672 441
Q 2191 441 2469 675
Q 2747 909 2747 1350
Q 2747 1756 2469 1995
Q 2191 2234 1716 2234
L 1234 2234
L 1234 2753
L 1716 2753
Q 2150 2753 2394 2943
Q 2638 3134 2638 3475
Q 2638 3834 2411 4026
Q 2184 4219 1766 4219
Q 1488 4219 1191 4156
Q 894 4094 569 3969
L 569 4550
Q 947 4650 1242 4700
Q 1538 4750 1766 4750
Q 2447 4750 2855 4408
Q 3263 4066 3263 3500
Q 3263 3116 3048 2859
Q 2834 2603 2425 2497
z
" transform="scale(0.015625)"/>
        <path id="DejaVuSansMono-25" d="M 2175 997
Q 2175 753 2339 587
Q 2503 422 2747 422
Q 2988 422 3155 589
Q 3322 756 3322 997
Q 3322 1238 3153 1406
Q 2984 1575 2747 1575
Q 2503 1575 2339 1409
Q 2175 1244 2175 997
z
M 1753 997
Q 1753 1419 2040 1708
Q 2328 1997 2747 1997
Q 2947 1997 3126 1922
Q 3306 1847 3450 1703
Q 3594 1556 3672 1375
Q 3750 1194 3750 997
Q 3750 581 3459 290
Q 3169 0 2747 0
Q 2322 0 2037 286
Q 1753 572 1753 997
z
M 378 1453
L 269 1753
L 3525 3059
L 3653 2759
L 378 1453
z
M 525 3475
Q 525 3228 689 3064
Q 853 2900 1100 2900
Q 1341 2900 1509 3067
Q 1678 3234 1678 3475
Q 1678 3716 1509 3883
Q 1341 4050 1100 4050
Q 859 4050 692 3884
Q 525 3719 525 3475
z
M 103 3475
Q 103 3897 390 4186
Q 678 4475 1100 4475
Q 1300 4475 1483 4400
Q 1666 4325 1806 4184
Q 1947 4044 2023 3861
Q 2100 3678 2100 3475
Q 2100 3056 1809 2767
Q 1519 2478 1100 2478
Q 678 2478 390 2765
Q 103 3053 103 3475
z
" transform="scale(0.015625)"/>
       </defs>
       <use xlink:href="#DejaVuSansMono-49"/>
       <use xlink:href="#DejaVuSansMono-32" transform="translate(60.205078 0)"/>
       <use xlink:href="#DejaVuSansMono-3d" transform="translate(120.410156 0)"/>
       <use xlink:href="#DejaVuSansMono-35" transform="translate(180.615234 0)"/>
       <use xlink:href="#DejaVuSansMono-31" transform="translate(240.820312 0)"/>
       <use xlink:href="#DejaVuSansMono-2e" transform="translate(301.025391 0)"/>
       <use xlink:href="#DejaVuSansMono-39" transform="translate(361.230469 0)"/>
       <use xlink:href="#DejaVuSansMono-33" transform="translate(421.435547 0)"/>
       <use xlink:href="#DejaVuSansMono-25" transform="translate(481.640625 0)"/>
       <use xlink:href="#DejaVuSansMono-20" transform="translate(541.845703 0)"/>
       <use xlink:href="#DejaVuSansMono-20" transform="translate(602.050781 0)"/>
       <use xlink:href="#DejaVuSansMono-20" transform="translate(662.255859 0)"/>
       <use xlink:href="#DejaVuSansMono-20" transform="translate(722.460938 0)"/>
       <use xlink:href="#DejaVuSansMono-20" transform="translate(782.666016 0)"/>
       <use xlink:href="#DejaVuSansMono-20" transform="translate(842.871094 0)"/>
       <use xlink:href="#DejaVuSansMono-20" transform="translate(903.076172 0)"/>
       <use xlink:href="#DejaVuSansMono-20" transform="translate(963.28125 0)"/>
       <use xlink:href="#DejaVuSansMono-20" transform="translate(1023.486328 0)"/>
      </g>
     </g>
    </g>
    <g id="text_8">
     <!-- model_1 -->
     <g transform="translate(6.838594 85.108906) rotate(-90) scale(0.09 -0.09)">
      <defs>
       <path id="DejaVuSans-6d" d="M 3328 2828
Q 3544 3216 3844 3400
Q 4144 3584 4550 3584
Q 5097 3584 5394 3201
Q 5691 2819 5691 2113
L 5691 0
L 5113 0
L 5113 2094
Q 5113 2597 4934 2840
Q 4756 3084 4391 3084
Q 3944 3084 3684 2787
Q 3425 2491 3425 1978
L 3425 0
L 2847 0
L 2847 2094
Q 2847 2600 2669 2842
Q 2491 3084 2119 3084
Q 1678 3084 1418 2786
Q 1159 2488 1159 1978
L 1159 0
L 581 0
L 581 3500
L 1159 3500
L 1159 2956
Q 1356 3278 1631 3431
Q 1906 3584 2284 3584
Q 2666 3584 2933 3390
Q 3200 3197 3328 2828
z
" transform="scale(0.015625)"/>
       <path id="DejaVuSans-6f" d="M 1959 3097
Q 1497 3097 1228 2736
Q 959 2375 959 1747
Q 959 1119 1226 758
Q 1494 397 1959 397
Q 2419 397 2687 759
Q 2956 1122 2956 1747
Q 2956 2369 2687 2733
Q 2419 3097 1959 3097
z
M 1959 3584
Q 2709 3584 3137 3096
Q 3566 2609 3566 1747
Q 3566 888 3137 398
Q 2709 -91 1959 -91
Q 1206 -91 779 398
Q 353 888 353 1747
Q 353 2609 779 3096
Q 1206 3584 1959 3584
z
" transform="scale(0.015625)"/>
       <path id="DejaVuSans-64" d="M 2906 2969
L 2906 4863
L 3481 4863
L 3481 0
L 2906 0
L 2906 525
Q 2725 213 2448 61
Q 2172 -91 1784 -91
Q 1150 -91 751 415
Q 353 922 353 1747
Q 353 2572 751 3078
Q 1150 3584 1784 3584
Q 2172 3584 2448 3432
Q 2725 3281 2906 2969
z
M 947 1747
Q 947 1113 1208 752
Q 1469 391 1925 391
Q 2381 391 2643 752
Q 2906 1113 2906 1747
Q 2906 2381 2643 2742
Q 2381 3103 1925 3103
Q 1469 3103 1208 2742
Q 947 2381 947 1747
z
" transform="scale(0.015625)"/>
       <path id="DejaVuSans-65" d="M 3597 1894
L 3597 1613
L 953 1613
Q 991 1019 1311 708
Q 1631 397 2203 397
Q 2534 397 2845 478
Q 3156 559 3463 722
L 3463 178
Q 3153 47 2828 -22
Q 2503 -91 2169 -91
Q 1331 -91 842 396
Q 353 884 353 1716
Q 353 2575 817 3079
Q 1281 3584 2069 3584
Q 2775 3584 3186 3129
Q 3597 2675 3597 1894
z
M 3022 2063
Q 3016 2534 2758 2815
Q 2500 3097 2075 3097
Q 1594 3097 1305 2825
Q 1016 2553 972 2059
L 3022 2063
z
" transform="scale(0.015625)"/>
       <path id="DejaVuSans-6c" d="M 603 4863
L 1178 4863
L 1178 0
L 603 0
L 603 4863
z
" transform="scale(0.015625)"/>
       <path id="DejaVuSans-5f" d="M 3263 -1063
L 3263 -1509
L -63 -1509
L -63 -1063
L 3263 -1063
z
" transform="scale(0.015625)"/>
       <path id="DejaVuSans-31" d="M 794 531
L 1825 531
L 1825 4091
L 703 3866
L 703 4441
L 1819 4666
L 2450 4666
L 2450 531
L 3481 531
L 3481 0
L 794 0
L 794 531
z
" transform="scale(0.015625)"/>
      </defs>
      <use xlink:href="#DejaVuSans-6d"/>
      <use xlink:href="#DejaVuSans-6f" transform="translate(97.412109 0)"/>
      <use xlink:href="#DejaVuSans-64" transform="translate(158.59375 0)"/>
      <use xlink:href="#DejaVuSans-65" transform="translate(222.070312 0)"/>
      <use xlink:href="#DejaVuSans-6c" transform="translate(283.59375 0)"/>
      <use xlink:href="#DejaVuSans-5f" transform="translate(311.376953 0)"/>
      <use xlink:href="#DejaVuSans-31" transform="translate(361.376953 0)"/>
     </g>
    </g>
   </g>
   <g id="patch_3">
    <path d="M 113.989687 128.523203
L 244.829687 128.523203
" style="fill: none; stroke: #000000; stroke-width: 0.8; stroke-linejoin: miter; stroke-linecap: square"/>
   </g>
  </g>
  <g id="axes_2">
   <g id="matplotlib.axis_3">
    <g id="ytick_6">
     <g id="line2d_9"/>
     <g id="text_9">
      <!--   Median         95.0% HDI      MU -->
      <g transform="translate(248.329687 6.886406) scale(0.09 -0.09)">
       <defs>
        <path id="DejaVuSansMono-4d" d="M 269 4666
L 1113 4666
L 1919 2291
L 2731 4666
L 3578 4666
L 3578 0
L 2994 0
L 2994 4122
L 2163 1663
L 1684 1663
L 850 4122
L 850 0
L 269 0
L 269 4666
z
" transform="scale(0.015625)"/>
        <path id="DejaVuSansMono-48" d="M 428 4666
L 1063 4666
L 1063 2753
L 2791 2753
L 2791 4666
L 3425 4666
L 3425 0
L 2791 0
L 2791 2222
L 1063 2222
L 1063 0
L 428 0
L 428 4666
z
" transform="scale(0.015625)"/>
        <path id="DejaVuSansMono-44" d="M 1363 519
Q 2159 519 2475 911
Q 2791 1303 2791 2328
Q 2791 3363 2477 3755
Q 2163 4147 1363 4147
L 1063 4147
L 1063 519
L 1363 519
z
M 1375 4666
Q 2444 4666 2950 4097
Q 3456 3528 3456 2328
Q 3456 1134 2950 567
Q 2444 0 1375 0
L 428 0
L 428 4666
L 1375 4666
z
" transform="scale(0.015625)"/>
        <path id="DejaVuSansMono-55" d="M 459 1791
L 459 4666
L 1094 4666
L 1094 1503
Q 1094 1163 1112 1017
Q 1131 872 1178 794
Q 1278 609 1467 515
Q 1656 422 1925 422
Q 2197 422 2384 515
Q 2572 609 2675 794
Q 2722 872 2740 1015
Q 2759 1159 2759 1497
L 2759 4666
L 3391 4666
L 3391 1791
Q 3391 1075 3302 773
Q 3213 472 2994 275
Q 2788 91 2522 0
Q 2256 -91 1925 -91
Q 1597 -91 1331 0
Q 1066 91 856 275
Q 641 469 550 776
Q 459 1084 459 1791
z
" transform="scale(0.015625)"/>
       </defs>
       <use xlink:href="#DejaVuSansMono-20"/>
       <use xlink:href="#DejaVuSansMono-20" transform="translate(60.205078 0)"/>
       <use xlink:href="#DejaVuSansMono-4d" transform="translate(120.410156 0)"/>
       <use xlink:href="#DejaVuSansMono-65" transform="translate(180.615234 0)"/>
       <use xlink:href="#DejaVuSansMono-64" transform="translate(240.820312 0)"/>
       <use xlink:href="#DejaVuSansMono-69" transform="translate(301.025391 0)"/>
       <use xlink:href="#DejaVuSansMono-61" transform="translate(361.230469 0)"/>
       <use xlink:href="#DejaVuSansMono-6e" transform="translate(421.435547 0)"/>
       <use xlink:href="#DejaVuSansMono-20" transform="translate(481.640625 0)"/>
       <use xlink:href="#DejaVuSansMono-20" transform="translate(541.845703 0)"/>
       <use xlink:href="#DejaVuSansMono-20" transform="translate(602.050781 0)"/>
       <use xlink:href="#DejaVuSansMono-20" transform="translate(662.255859 0)"/>
       <use xlink:href="#DejaVuSansMono-20" transform="translate(722.460938 0)"/>
       <use xlink:href="#DejaVuSansMono-20" transform="translate(782.666016 0)"/>
       <use xlink:href="#DejaVuSansMono-20" transform="translate(842.871094 0)"/>
       <use xlink:href="#DejaVuSansMono-20" transform="translate(903.076172 0)"/>
       <use xlink:href="#DejaVuSansMono-20" transform="translate(963.28125 0)"/>
       <use xlink:href="#DejaVuSansMono-39" transform="translate(1023.486328 0)"/>
       <use xlink:href="#DejaVuSansMono-35" transform="translate(1083.691406 0)"/>
       <use xlink:href="#DejaVuSansMono-2e" transform="translate(1143.896484 0)"/>
       <use xlink:href="#DejaVuSansMono-30" transform="translate(1204.101562 0)"/>
       <use xlink:href="#DejaVuSansMono-25" transform="translate(1264.306641 0)"/>
       <use xlink:href="#DejaVuSansMono-20" transform="translate(1324.511719 0)"/>
       <use xlink:href="#DejaVuSansMono-48" transform="translate(1384.716797 0)"/>
       <use xlink:href="#DejaVuSansMono-44" transform="translate(1444.921875 0)"/>
       <use xlink:href="#DejaVuSansMono-49" transform="translate(1505.126953 0)"/>
       <use xlink:href="#DejaVuSansMono-20" transform="translate(1565.332031 0)"/>
       <use xlink:href="#DejaVuSansMono-20" transform="translate(1625.537109 0)"/>
       <use xlink:href="#DejaVuSansMono-20" transform="translate(1685.742188 0)"/>
       <use xlink:href="#DejaVuSansMono-20" transform="translate(1745.947266 0)"/>
       <use xlink:href="#DejaVuSansMono-20" transform="translate(1806.152344 0)"/>
       <use xlink:href="#DejaVuSansMono-20" transform="translate(1866.357422 0)"/>
       <use xlink:href="#DejaVuSansMono-4d" transform="translate(1926.5625 0)"/>
       <use xlink:href="#DejaVuSansMono-55" transform="translate(1986.767578 0)"/>
      </g>
     </g>
    </g>
    <g id="ytick_7">
     <g id="line2d_10"/>
     <g id="text_10">
      <!--   0.8503  [0.7319, 0.9460]  0.2141 -->
      <g transform="translate(248.329687 34.681962) scale(0.09 -0.09)">
       <defs>
        <path id="DejaVuSansMono-38" d="M 1925 2216
Q 1503 2216 1273 1980
Q 1044 1744 1044 1313
Q 1044 881 1276 642
Q 1509 403 1925 403
Q 2350 403 2579 639
Q 2809 875 2809 1313
Q 2809 1741 2576 1978
Q 2344 2216 1925 2216
z
M 1375 2478
Q 972 2581 745 2862
Q 519 3144 519 3541
Q 519 4097 897 4423
Q 1275 4750 1925 4750
Q 2578 4750 2956 4423
Q 3334 4097 3334 3541
Q 3334 3144 3107 2862
Q 2881 2581 2478 2478
Q 2947 2375 3195 2062
Q 3444 1750 3444 1253
Q 3444 622 3041 265
Q 2638 -91 1925 -91
Q 1213 -91 811 264
Q 409 619 409 1247
Q 409 1747 657 2061
Q 906 2375 1375 2478
z
M 1147 3481
Q 1147 3106 1347 2909
Q 1547 2713 1925 2713
Q 2306 2713 2506 2909
Q 2706 3106 2706 3481
Q 2706 3863 2507 4063
Q 2309 4263 1925 4263
Q 1547 4263 1347 4061
Q 1147 3859 1147 3481
z
" transform="scale(0.015625)"/>
        <path id="DejaVuSansMono-5b" d="M 1447 4863
L 2772 4863
L 2772 4416
L 2022 4416
L 2022 -397
L 2772 -397
L 2772 -844
L 1447 -844
L 1447 4863
z
" transform="scale(0.015625)"/>
        <path id="DejaVuSansMono-37" d="M 434 4666
L 3372 4666
L 3372 4397
L 1703 0
L 1044 0
L 2669 4134
L 434 4134
L 434 4666
z
" transform="scale(0.015625)"/>
        <path id="DejaVuSansMono-2c" d="M 1569 947
L 2356 947
L 2356 300
L 1741 -897
L 1259 -897
L 1569 300
L 1569 947
z
" transform="scale(0.015625)"/>
        <path id="DejaVuSansMono-34" d="M 2297 4091
L 825 1625
L 2297 1625
L 2297 4091
z
M 2194 4666
L 2925 4666
L 2925 1625
L 3547 1625
L 3547 1113
L 2925 1113
L 2925 0
L 2297 0
L 2297 1113
L 319 1113
L 319 1709
L 2194 4666
z
" transform="scale(0.015625)"/>
        <path id="DejaVuSansMono-36" d="M 3097 4563
L 3097 3981
Q 2900 4097 2678 4158
Q 2456 4219 2216 4219
Q 1616 4219 1306 3767
Q 997 3316 997 2438
Q 1147 2750 1412 2917
Q 1678 3084 2022 3084
Q 2697 3084 3067 2670
Q 3438 2256 3438 1497
Q 3438 741 3056 325
Q 2675 -91 1984 -91
Q 1172 -91 794 492
Q 416 1075 416 2328
Q 416 3509 870 4129
Q 1325 4750 2188 4750
Q 2419 4750 2650 4701
Q 2881 4653 3097 4563
z
M 1972 2591
Q 1569 2591 1337 2300
Q 1106 2009 1106 1497
Q 1106 984 1337 693
Q 1569 403 1972 403
Q 2391 403 2603 679
Q 2816 956 2816 1497
Q 2816 2041 2603 2316
Q 2391 2591 1972 2591
z
" transform="scale(0.015625)"/>
        <path id="DejaVuSansMono-5d" d="M 2406 4863
L 2406 -844
L 1081 -844
L 1081 -397
L 1831 -397
L 1831 4416
L 1081 4416
L 1081 4863
L 2406 4863
z
" transform="scale(0.015625)"/>
       </defs>
       <use xlink:href="#DejaVuSansMono-20"/>
       <use xlink:href="#DejaVuSansMono-20" transform="translate(60.205078 0)"/>
       <use xlink:href="#DejaVuSansMono-30" transform="translate(120.410156 0)"/>
       <use xlink:href="#DejaVuSansMono-2e" transform="translate(180.615234 0)"/>
       <use xlink:href="#DejaVuSansMono-38" transform="translate(240.820312 0)"/>
       <use xlink:href="#DejaVuSansMono-35" transform="translate(301.025391 0)"/>
       <use xlink:href="#DejaVuSansMono-30" transform="translate(361.230469 0)"/>
       <use xlink:href="#DejaVuSansMono-33" transform="translate(421.435547 0)"/>
       <use xlink:href="#DejaVuSansMono-20" transform="translate(481.640625 0)"/>
       <use xlink:href="#DejaVuSansMono-20" transform="translate(541.845703 0)"/>
       <use xlink:href="#DejaVuSansMono-5b" transform="translate(602.050781 0)"/>
       <use xlink:href="#DejaVuSansMono-30" transform="translate(662.255859 0)"/>
       <use xlink:href="#DejaVuSansMono-2e" transform="translate(722.460938 0)"/>
       <use xlink:href="#DejaVuSansMono-37" transform="translate(782.666016 0)"/>
       <use xlink:href="#DejaVuSansMono-33" transform="translate(842.871094 0)"/>
       <use xlink:href="#DejaVuSansMono-31" transform="translate(903.076172 0)"/>
       <use xlink:href="#DejaVuSansMono-39" transform="translate(963.28125 0)"/>
       <use xlink:href="#DejaVuSansMono-2c" transform="translate(1023.486328 0)"/>
       <use xlink:href="#DejaVuSansMono-20" transform="translate(1083.691406 0)"/>
       <use xlink:href="#DejaVuSansMono-30" transform="translate(1143.896484 0)"/>
       <use xlink:href="#DejaVuSansMono-2e" transform="translate(1204.101562 0)"/>
       <use xlink:href="#DejaVuSansMono-39" transform="translate(1264.306641 0)"/>
       <use xlink:href="#DejaVuSansMono-34" transform="translate(1324.511719 0)"/>
       <use xlink:href="#DejaVuSansMono-36" transform="translate(1384.716797 0)"/>
       <use xlink:href="#DejaVuSansMono-30" transform="translate(1444.921875 0)"/>
       <use xlink:href="#DejaVuSansMono-5d" transform="translate(1505.126953 0)"/>
       <use xlink:href="#DejaVuSansMono-20" transform="translate(1565.332031 0)"/>
       <use xlink:href="#DejaVuSansMono-20" transform="translate(1625.537109 0)"/>
       <use xlink:href="#DejaVuSansMono-30" transform="translate(1685.742188 0)"/>
       <use xlink:href="#DejaVuSansMono-2e" transform="translate(1745.947266 0)"/>
       <use xlink:href="#DejaVuSansMono-32" transform="translate(1806.152344 0)"/>
       <use xlink:href="#DejaVuSansMono-31" transform="translate(1866.357422 0)"/>
       <use xlink:href="#DejaVuSansMono-34" transform="translate(1926.5625 0)"/>
       <use xlink:href="#DejaVuSansMono-31" transform="translate(1986.767578 0)"/>
      </g>
     </g>
    </g>
    <g id="ytick_8">
     <g id="line2d_11"/>
     <g id="text_11">
      <!--   0.7172  [0.5738, 0.8510]  0.2772 -->
      <g transform="translate(248.329687 62.477517) scale(0.09 -0.09)">
       <use xlink:href="#DejaVuSansMono-20"/>
       <use xlink:href="#DejaVuSansMono-20" transform="translate(60.205078 0)"/>
       <use xlink:href="#DejaVuSansMono-30" transform="translate(120.410156 0)"/>
       <use xlink:href="#DejaVuSansMono-2e" transform="translate(180.615234 0)"/>
       <use xlink:href="#DejaVuSansMono-37" transform="translate(240.820312 0)"/>
       <use xlink:href="#DejaVuSansMono-31" transform="translate(301.025391 0)"/>
       <use xlink:href="#DejaVuSansMono-37" transform="translate(361.230469 0)"/>
       <use xlink:href="#DejaVuSansMono-32" transform="translate(421.435547 0)"/>
       <use xlink:href="#DejaVuSansMono-20" transform="translate(481.640625 0)"/>
       <use xlink:href="#DejaVuSansMono-20" transform="translate(541.845703 0)"/>
       <use xlink:href="#DejaVuSansMono-5b" transform="translate(602.050781 0)"/>
       <use xlink:href="#DejaVuSansMono-30" transform="translate(662.255859 0)"/>
       <use xlink:href="#DejaVuSansMono-2e" transform="translate(722.460938 0)"/>
       <use xlink:href="#DejaVuSansMono-35" transform="translate(782.666016 0)"/>
       <use xlink:href="#DejaVuSansMono-37" transform="translate(842.871094 0)"/>
       <use xlink:href="#DejaVuSansMono-33" transform="translate(903.076172 0)"/>
       <use xlink:href="#DejaVuSansMono-38" transform="translate(963.28125 0)"/>
       <use xlink:href="#DejaVuSansMono-2c" transform="translate(1023.486328 0)"/>
       <use xlink:href="#DejaVuSansMono-20" transform="translate(1083.691406 0)"/>
       <use xlink:href="#DejaVuSansMono-30" transform="translate(1143.896484 0)"/>
       <use xlink:href="#DejaVuSansMono-2e" transform="translate(1204.101562 0)"/>
       <use xlink:href="#DejaVuSansMono-38" transform="translate(1264.306641 0)"/>
       <use xlink:href="#DejaVuSansMono-35" transform="translate(1324.511719 0)"/>
       <use xlink:href="#DejaVuSansMono-31" transform="translate(1384.716797 0)"/>
       <use xlink:href="#DejaVuSansMono-30" transform="translate(1444.921875 0)"/>
       <use xlink:href="#DejaVuSansMono-5d" transform="translate(1505.126953 0)"/>
       <use xlink:href="#DejaVuSansMono-20" transform="translate(1565.332031 0)"/>
       <use xlink:href="#DejaVuSansMono-20" transform="translate(1625.537109 0)"/>
       <use xlink:href="#DejaVuSansMono-30" transform="translate(1685.742188 0)"/>
       <use xlink:href="#DejaVuSansMono-2e" transform="translate(1745.947266 0)"/>
       <use xlink:href="#DejaVuSansMono-32" transform="translate(1806.152344 0)"/>
       <use xlink:href="#DejaVuSansMono-37" transform="translate(1866.357422 0)"/>
       <use xlink:href="#DejaVuSansMono-37" transform="translate(1926.5625 0)"/>
       <use xlink:href="#DejaVuSansMono-32" transform="translate(1986.767578 0)"/>
      </g>
     </g>
    </g>
    <g id="ytick_9">
     <g id="line2d_12"/>
    </g>
    <g id="ytick_10">
     <g id="line2d_13"/>
     <g id="text_12">
      <!--   0.7877  [0.6925, 0.8741]  0.1815 -->
      <g transform="translate(248.329687 118.068628) scale(0.09 -0.09)">
       <use xlink:href="#DejaVuSansMono-20"/>
       <use xlink:href="#DejaVuSansMono-20" transform="translate(60.205078 0)"/>
       <use xlink:href="#DejaVuSansMono-30" transform="translate(120.410156 0)"/>
       <use xlink:href="#DejaVuSansMono-2e" transform="translate(180.615234 0)"/>
       <use xlink:href="#DejaVuSansMono-37" transform="translate(240.820312 0)"/>
       <use xlink:href="#DejaVuSansMono-38" transform="translate(301.025391 0)"/>
       <use xlink:href="#DejaVuSansMono-37" transform="translate(361.230469 0)"/>
       <use xlink:href="#DejaVuSansMono-37" transform="translate(421.435547 0)"/>
       <use xlink:href="#DejaVuSansMono-20" transform="translate(481.640625 0)"/>
       <use xlink:href="#DejaVuSansMono-20" transform="translate(541.845703 0)"/>
       <use xlink:href="#DejaVuSansMono-5b" transform="translate(602.050781 0)"/>
       <use xlink:href="#DejaVuSansMono-30" transform="translate(662.255859 0)"/>
       <use xlink:href="#DejaVuSansMono-2e" transform="translate(722.460938 0)"/>
       <use xlink:href="#DejaVuSansMono-36" transform="translate(782.666016 0)"/>
       <use xlink:href="#DejaVuSansMono-39" transform="translate(842.871094 0)"/>
       <use xlink:href="#DejaVuSansMono-32" transform="translate(903.076172 0)"/>
       <use xlink:href="#DejaVuSansMono-35" transform="translate(963.28125 0)"/>
       <use xlink:href="#DejaVuSansMono-2c" transform="translate(1023.486328 0)"/>
       <use xlink:href="#DejaVuSansMono-20" transform="translate(1083.691406 0)"/>
       <use xlink:href="#DejaVuSansMono-30" transform="translate(1143.896484 0)"/>
       <use xlink:href="#DejaVuSansMono-2e" transform="translate(1204.101562 0)"/>
       <use xlink:href="#DejaVuSansMono-38" transform="translate(1264.306641 0)"/>
       <use xlink:href="#DejaVuSansMono-37" transform="translate(1324.511719 0)"/>
       <use xlink:href="#DejaVuSansMono-34" transform="translate(1384.716797 0)"/>
       <use xlink:href="#DejaVuSansMono-31" transform="translate(1444.921875 0)"/>
       <use xlink:href="#DejaVuSansMono-5d" transform="translate(1505.126953 0)"/>
       <use xlink:href="#DejaVuSansMono-20" transform="translate(1565.332031 0)"/>
       <use xlink:href="#DejaVuSansMono-20" transform="translate(1625.537109 0)"/>
       <use xlink:href="#DejaVuSansMono-30" transform="translate(1685.742188 0)"/>
       <use xlink:href="#DejaVuSansMono-2e" transform="translate(1745.947266 0)"/>
       <use xlink:href="#DejaVuSansMono-31" transform="translate(1806.152344 0)"/>
       <use xlink:href="#DejaVuSansMono-38" transform="translate(1866.357422 0)"/>
       <use xlink:href="#DejaVuSansMono-31" transform="translate(1926.5625 0)"/>
       <use xlink:href="#DejaVuSansMono-35" transform="translate(1986.767578 0)"/>
      </g>
     </g>
    </g>
   </g>
   <g id="patch_4">
    <path d="M 113.989687 128.523203
L 244.829687 128.523203
" style="fill: none; stroke: #000000; stroke-width: 0.8; stroke-linejoin: miter; stroke-linecap: square"/>
   </g>
  </g>
 </g>
 <defs>
  <clipPath id="pb6b68fac36">
   <rect x="113.989688" y="3.443203" width="130.84" height="125.08"/>
  </clipPath>
 </defs>
</svg>
