<?xml version="1.0" encoding="UTF-8" standalone="no"?>
<svg
   width="431.76312pt"
   height="157.750312pt"
   viewBox="0 0 431.76312 157.750312"
   version="1.1"
   id="svg199"
   sodipodi:docname="uncertainty_fig.svg"
   inkscape:version="1.2.1 (9c6d41e410, 2022-07-14)"
   xmlns:inkscape="http://www.inkscape.org/namespaces/inkscape"
   xmlns:sodipodi="http://sodipodi.sourceforge.net/DTD/sodipodi-0.dtd"
   xmlns:xlink="http://www.w3.org/1999/xlink"
   xmlns="http://www.w3.org/2000/svg"
   xmlns:svg="http://www.w3.org/2000/svg"
   xmlns:rdf="http://www.w3.org/1999/02/22-rdf-syntax-ns#"
   xmlns:cc="http://creativecommons.org/ns#"
   xmlns:dc="http://purl.org/dc/elements/1.1/">
  <sodipodi:namedview
     id="namedview201"
     pagecolor="#ffffff"
     bordercolor="#111111"
     borderopacity="1"
     inkscape:showpageshadow="0"
     inkscape:pageopacity="0"
     inkscape:pagecheckerboard="1"
     inkscape:deskcolor="#d1d1d1"
     inkscape:document-units="pt"
     showgrid="false"
     inkscape:zoom="1.3192998"
     inkscape:cx="295.61135"
     inkscape:cy="201.6221"
     inkscape:window-width="1920"
     inkscape:window-height="1046"
     inkscape:window-x="-11"
     inkscape:window-y="-11"
     inkscape:window-maximized="1"
     inkscape:current-layer="line2d_6" />
  <metadata
     id="metadata2">
    <rdf:RDF>
      <cc:Work>
        <dc:type
           rdf:resource="http://purl.org/dc/dcmitype/StillImage" />
        <dc:date>2025-06-30T16:40:54.212936</dc:date>
        <dc:format>image/svg+xml</dc:format>
        <dc:creator>
          <cc:Agent>
            <dc:title>Matplotlib v3.10.3, https://matplotlib.org/</dc:title>
          </cc:Agent>
        </dc:creator>
      </cc:Work>
    </rdf:RDF>
  </metadata>
  <defs
     id="defs6">
    <style
       type="text/css"
       id="style4">*{stroke-linejoin: round; stroke-linecap: butt}</style>
  </defs>
  <g
     id="figure_1">
    <g
       id="patch_1">
      <path
         d="M 0 157.750312  L 431.76312 157.750312  L 431.76312 0  L 0 0  z "
         style="fill: #ffffff"
         id="path8" />
    </g>
    <g
       id="axes_1">
      <g
         id="patch_2">
        <path
           d="M 72.398594 142.04  L 424.606714 142.04  L 424.606714 -0  L 72.398594 -0  z "
           style="fill: #ffffff"
           id="path11" />
      </g>
      <g
         id="FillBetweenPolyCollection_1">
        <defs
           id="defs15">
          <path
             id="m0961e1c790"
             d="M 72.398594 -15.710312  L 72.398594 -15.711255  L 74.168484 -15.712286  L 75.938374 -15.714179  L 77.708264 -15.717401  L 79.478154 -15.722479  L 81.248044 -15.729855  L 83.017934 -15.739694  L 84.787824 -15.751658  L 86.557714 -15.764768  L 88.327604 -15.777443  L 90.097494 -15.787769  L 91.867384 -15.793964  L 93.637274 -15.794876  L 95.407164 -15.790347  L 97.177054 -15.78127  L 98.946945 -15.769347  L 100.716835 -15.756646  L 102.486725 -15.74516  L 104.256615 -15.736532  L 106.026505 -15.73201  L 107.796395 -15.732584  L 109.566285 -15.739151  L 111.336175 -15.752587  L 113.106065 -15.773624  L 114.875955 -15.802586  L 116.645845 -15.839098  L 118.415735 -15.881968  L 120.185625 -15.929394  L 121.955515 -15.979478  L 123.725405 -16.030863  L 125.495295 -16.083149  L 127.265185 -16.136793  L 129.035075 -16.192433  L 130.804965 -16.249905  L 132.574855 -16.307515  L 134.344746 -16.362032  L 136.114636 -16.409612  L 137.884526 -16.447329  L 139.654416 -16.474679  L 141.424306 -16.494383  L 143.194196 -16.512145  L 144.964086 -16.535466  L 146.733976 -16.572056  L 148.503866 -16.628429  L 150.273756 -16.709158  L 152.043646 -16.816791  L 153.813536 -16.952161  L 155.583426 -17.114633  L 157.353316 -17.302051  L 159.123206 -17.510527  L 160.893096 -17.734555  L 162.662986 -17.967962  L 164.432876 -18.205805  L 166.202766 -18.44669  L 167.972656 -18.694418  L 169.742547 -18.957801  L 171.512437 -19.248142  L 173.282327 -19.574961  L 175.052217 -19.941635  L 176.822107 -20.342985  L 178.591997 -20.766127  L 180.361887 -21.194381  L 182.131777 -21.612453  L 183.901667 -22.010503  L 185.671557 -22.385438  L 187.441447 -22.739516  L 189.211337 -23.077898  L 190.981227 -23.407176  L 192.751117 -23.735806  L 194.521007 -24.075703  L 196.290897 -24.443226  L 198.060787 -24.858176  L 199.830677 -25.340917  L 201.600567 -25.909043  L 203.370457 -26.575168  L 205.140348 -27.346384  L 206.910238 -28.224615  L 208.680128 -29.206674  L 210.450018 -30.283662  L 212.219908 -31.440539  L 213.989798 -32.657234  L 215.759688 -33.911833  L 217.529578 -35.184804  L 219.299468 -36.46224  L 221.069358 -37.736593  L 222.839248 -39.005144  L 224.609138 -40.268161  L 226.379028 -41.528855  L 228.148918 -42.795766  L 229.918808 -44.086006  L 231.688698 -45.426696  L 233.458588 -46.852762  L 235.228478 -48.401369  L 236.998368 -50.105149  L 238.768258 -51.986618  L 240.538149 -54.054932  L 242.308039 -56.304439  L 244.077929 -58.71394  L 245.847819 -61.246506  L 247.617709 -63.851303  L 249.387599 -66.469557  L 251.157489 -69.045515  L 252.927379 -71.540405  L 254.697269 -73.94456  L 256.467159 -76.282134  L 258.237049 -78.60488  L 260.006939 -80.975838  L 261.776829 -83.448261  L 263.546719 -86.047586  L 265.316609 -88.763376  L 267.086499 -91.554132  L 268.856389 -94.362487  L 270.626279 -97.134001  L 272.396169 -99.831632  L 274.166059 -102.440637  L 275.93595 -104.963715  L 277.70584 -107.41122  L 279.47573 -109.793352  L 281.24562 -112.119297  L 283.01551 -114.403238  L 284.7854 -116.67204  L 286.55529 -118.967452  L 288.32518 -121.338355  L 290.09507 -123.824515  L 291.86496 -126.4387  L 293.63485 -129.155652  L 295.40474 -131.913228  L 297.17463 -134.625211  L 298.94452 -137.200326  L 300.71441 -139.560391  L 302.4843 -141.652523  L 304.25419 -143.453851  L 306.02408 -144.970143  L 307.79397 -146.230603  L 309.56386 -147.280281  L 311.333751 -148.170325  L 313.103641 -148.946093  L 314.873531 -149.634302  L 316.643421 -150.232235  L 318.413311 -150.703152  L 320.183201 -150.981237  L 321.953091 -150.986503  L 323.722981 -150.646188  L 325.492871 -149.916202  L 327.262761 -148.79561  L 329.032651 -147.329289  L 330.802541 -145.597686  L 332.572431 -143.696502  L 334.342321 -141.711902  L 336.112211 -139.698186  L 337.882101 -137.664555  L 339.651991 -135.575411  L 341.421881 -133.364506  L 343.191771 -130.958041  L 344.961661 -128.297826  L 346.731552 -125.355341  L 348.501442 -122.131969  L 350.271332 -118.647687  L 352.041222 -114.926292  L 353.811112 -110.986162  L 355.581002 -106.841152  L 357.350892 -102.509423  L 359.120782 -98.023139  L 360.890672 -93.431937  L 362.660562 -88.797431  L 364.430452 -84.181631  L 366.200342 -79.635268  L 367.970232 -75.191193  L 369.740122 -70.864349  L 371.510012 -66.656249  L 373.279902 -62.560673  L 375.049792 -58.568627  L 376.819682 -54.672744  L 378.589572 -50.872156  L 380.359462 -47.177745  L 382.129353 -43.615683  L 383.899243 -40.226338  L 385.669133 -37.057069  L 387.439023 -34.150577  L 389.208913 -31.533249  L 390.978803 -29.208444  L 392.748693 -27.157487  L 394.518583 -25.347569  L 396.288473 -23.742812  L 398.058363 -22.313916  L 399.828253 -21.043136  L 401.598143 -19.923857  L 403.368033 -18.95622  L 405.137923 -18.141376  L 406.907813 -17.476731  L 408.677703 -16.953511  L 410.447593 -16.556816  L 412.217483 -16.267431  L 413.987373 -16.064397  L 415.757263 -15.927416  L 417.527154 -15.838571  L 419.297044 -15.783206  L 421.066934 -15.750093  L 422.836824 -15.731115  L 424.606714 -15.720712  L 424.606714 -15.710312  L 424.606714 -15.710312  L 422.836824 -15.710312  L 421.066934 -15.710312  L 419.297044 -15.710312  L 417.527154 -15.710312  L 415.757263 -15.710312  L 413.987373 -15.710312  L 412.217483 -15.710312  L 410.447593 -15.710312  L 408.677703 -15.710312  L 406.907813 -15.710312  L 405.137923 -15.710312  L 403.368033 -15.710312  L 401.598143 -15.710312  L 399.828253 -15.710312  L 398.058363 -15.710312  L 396.288473 -15.710312  L 394.518583 -15.710312  L 392.748693 -15.710312  L 390.978803 -15.710312  L 389.208913 -15.710312  L 387.439023 -15.710312  L 385.669133 -15.710312  L 383.899243 -15.710312  L 382.129353 -15.710312  L 380.359462 -15.710312  L 378.589572 -15.710312  L 376.819682 -15.710312  L 375.049792 -15.710312  L 373.279902 -15.710312  L 371.510012 -15.710312  L 369.740122 -15.710312  L 367.970232 -15.710312  L 366.200342 -15.710312  L 364.430452 -15.710312  L 362.660562 -15.710312  L 360.890672 -15.710312  L 359.120782 -15.710312  L 357.350892 -15.710312  L 355.581002 -15.710312  L 353.811112 -15.710312  L 352.041222 -15.710312  L 350.271332 -15.710312  L 348.501442 -15.710312  L 346.731552 -15.710312  L 344.961661 -15.710312  L 343.191771 -15.710312  L 341.421881 -15.710312  L 339.651991 -15.710312  L 337.882101 -15.710312  L 336.112211 -15.710312  L 334.342321 -15.710312  L 332.572431 -15.710312  L 330.802541 -15.710312  L 329.032651 -15.710312  L 327.262761 -15.710312  L 325.492871 -15.710312  L 323.722981 -15.710312  L 321.953091 -15.710312  L 320.183201 -15.710312  L 318.413311 -15.710312  L 316.643421 -15.710312  L 314.873531 -15.710312  L 313.103641 -15.710312  L 311.333751 -15.710312  L 309.56386 -15.710312  L 307.79397 -15.710312  L 306.02408 -15.710312  L 304.25419 -15.710312  L 302.4843 -15.710312  L 300.71441 -15.710312  L 298.94452 -15.710312  L 297.17463 -15.710312  L 295.40474 -15.710312  L 293.63485 -15.710312  L 291.86496 -15.710312  L 290.09507 -15.710312  L 288.32518 -15.710312  L 286.55529 -15.710312  L 284.7854 -15.710312  L 283.01551 -15.710312  L 281.24562 -15.710312  L 279.47573 -15.710312  L 277.70584 -15.710312  L 275.93595 -15.710312  L 274.166059 -15.710312  L 272.396169 -15.710312  L 270.626279 -15.710312  L 268.856389 -15.710312  L 267.086499 -15.710312  L 265.316609 -15.710312  L 263.546719 -15.710312  L 261.776829 -15.710312  L 260.006939 -15.710312  L 258.237049 -15.710312  L 256.467159 -15.710312  L 254.697269 -15.710312  L 252.927379 -15.710312  L 251.157489 -15.710312  L 249.387599 -15.710312  L 247.617709 -15.710312  L 245.847819 -15.710312  L 244.077929 -15.710312  L 242.308039 -15.710312  L 240.538149 -15.710312  L 238.768258 -15.710312  L 236.998368 -15.710312  L 235.228478 -15.710312  L 233.458588 -15.710312  L 231.688698 -15.710312  L 229.918808 -15.710312  L 228.148918 -15.710312  L 226.379028 -15.710312  L 224.609138 -15.710312  L 222.839248 -15.710312  L 221.069358 -15.710312  L 219.299468 -15.710312  L 217.529578 -15.710312  L 215.759688 -15.710312  L 213.989798 -15.710312  L 212.219908 -15.710312  L 210.450018 -15.710312  L 208.680128 -15.710312  L 206.910238 -15.710312  L 205.140348 -15.710312  L 203.370457 -15.710312  L 201.600567 -15.710312  L 199.830677 -15.710312  L 198.060787 -15.710312  L 196.290897 -15.710312  L 194.521007 -15.710312  L 192.751117 -15.710312  L 190.981227 -15.710312  L 189.211337 -15.710312  L 187.441447 -15.710312  L 185.671557 -15.710312  L 183.901667 -15.710312  L 182.131777 -15.710312  L 180.361887 -15.710312  L 178.591997 -15.710312  L 176.822107 -15.710312  L 175.052217 -15.710312  L 173.282327 -15.710312  L 171.512437 -15.710312  L 169.742547 -15.710312  L 167.972656 -15.710312  L 166.202766 -15.710312  L 164.432876 -15.710312  L 162.662986 -15.710312  L 160.893096 -15.710312  L 159.123206 -15.710312  L 157.353316 -15.710312  L 155.583426 -15.710312  L 153.813536 -15.710312  L 152.043646 -15.710312  L 150.273756 -15.710312  L 148.503866 -15.710312  L 146.733976 -15.710312  L 144.964086 -15.710312  L 143.194196 -15.710312  L 141.424306 -15.710312  L 139.654416 -15.710312  L 137.884526 -15.710312  L 136.114636 -15.710312  L 134.344746 -15.710312  L 132.574855 -15.710312  L 130.804965 -15.710312  L 129.035075 -15.710312  L 127.265185 -15.710312  L 125.495295 -15.710312  L 123.725405 -15.710312  L 121.955515 -15.710312  L 120.185625 -15.710312  L 118.415735 -15.710312  L 116.645845 -15.710312  L 114.875955 -15.710312  L 113.106065 -15.710312  L 111.336175 -15.710312  L 109.566285 -15.710312  L 107.796395 -15.710312  L 106.026505 -15.710312  L 104.256615 -15.710312  L 102.486725 -15.710312  L 100.716835 -15.710312  L 98.946945 -15.710312  L 97.177054 -15.710312  L 95.407164 -15.710312  L 93.637274 -15.710312  L 91.867384 -15.710312  L 90.097494 -15.710312  L 88.327604 -15.710312  L 86.557714 -15.710312  L 84.787824 -15.710312  L 83.017934 -15.710312  L 81.248044 -15.710312  L 79.478154 -15.710312  L 77.708264 -15.710312  L 75.938374 -15.710312  L 74.168484 -15.710312  L 72.398594 -15.710312  z "
             style="stroke: #808080; stroke-opacity: 0.5" />
        </defs>
        <g
           clip-path="url(#p434bb19f13)"
           id="g19">
          <use
             xlink:href="#m0961e1c790"
             x="0"
             y="157.750312"
             style="fill: #808080; fill-opacity: 0.5; stroke: #808080; stroke-opacity: 0.5"
             id="use17" />
        </g>
      </g>
      <g
         id="LineCollection_1">
        <path
           d="M 310.998312 142.04  L 310.998312 9.748674  "
           clip-path="url(#p434bb19f13)"
           style="fill: none; stroke-dasharray: 5.55,2.4; stroke-dashoffset: 0; stroke: #000000; stroke-width: 1.5"
           id="path22" />
      </g>
      <g
         id="LineCollection_2">
        <path
           d="M 220.785273 142.04  L 220.785273 120.218266  "
           clip-path="url(#p434bb19f13)"
           style="fill: none; stroke: #000000; stroke-width: 1.5"
           id="path25" />
      </g>
      <g
         id="LineCollection_3">
        <path
           d="M 384.030501 142.04  L 384.030501 117.759013  "
           clip-path="url(#p434bb19f13)"
           style="fill: none; stroke: #000000; stroke-width: 1.5"
           id="path28" />
      </g>
      <g
         id="matplotlib.axis_1">
        <g
           id="xtick_1">
          <g
             id="line2d_1">
            <defs
               id="defs32">
              <path
                 id="md10bc843f4"
                 d="M 0 0  L 0 3.5  "
                 style="stroke: #000000; stroke-width: 0.8" />
            </defs>
            <g
               id="g36">
              <use
                 xlink:href="#md10bc843f4"
                 x="121.855554"
                 y="142.04"
                 style="stroke: #000000; stroke-width: 0.8"
                 id="use34" />
            </g>
          </g>
          <g
             id="text_1">
            <!-- 0.6 -->
            <g
               transform="translate(114.699147 155.878594) scale(0.09 -0.09)"
               id="g50">
              <defs
                 id="defs42">
                <path
                   id="DejaVuSans-30"
                   d="M 2034 4250  Q 1547 4250 1301 3770  Q 1056 3291 1056 2328  Q 1056 1369 1301 889  Q 1547 409 2034 409  Q 2525 409 2770 889  Q 3016 1369 3016 2328  Q 3016 3291 2770 3770  Q 2525 4250 2034 4250  z M 2034 4750  Q 2819 4750 3233 4129  Q 3647 3509 3647 2328  Q 3647 1150 3233 529  Q 2819 -91 2034 -91  Q 1250 -91 836 529  Q 422 1150 422 2328  Q 422 3509 836 4129  Q 1250 4750 2034 4750  z "
                   transform="scale(0.015625)" />
                <path
                   id="DejaVuSans-2e"
                   d="M 684 794  L 1344 794  L 1344 0  L 684 0  L 684 794  z "
                   transform="scale(0.015625)" />
                <path
                   id="DejaVuSans-36"
                   d="M 2113 2584  Q 1688 2584 1439 2293  Q 1191 2003 1191 1497  Q 1191 994 1439 701  Q 1688 409 2113 409  Q 2538 409 2786 701  Q 3034 994 3034 1497  Q 3034 2003 2786 2293  Q 2538 2584 2113 2584  z M 3366 4563  L 3366 3988  Q 3128 4100 2886 4159  Q 2644 4219 2406 4219  Q 1781 4219 1451 3797  Q 1122 3375 1075 2522  Q 1259 2794 1537 2939  Q 1816 3084 2150 3084  Q 2853 3084 3261 2657  Q 3669 2231 3669 1497  Q 3669 778 3244 343  Q 2819 -91 2113 -91  Q 1303 -91 875 529  Q 447 1150 447 2328  Q 447 3434 972 4092  Q 1497 4750 2381 4750  Q 2619 4750 2861 4703  Q 3103 4656 3366 4563  z "
                   transform="scale(0.015625)" />
              </defs>
              <use
                 xlink:href="#DejaVuSans-30"
                 id="use44" />
              <use
                 xlink:href="#DejaVuSans-2e"
                 transform="translate(63.623047 0)"
                 id="use46" />
              <use
                 xlink:href="#DejaVuSans-36"
                 transform="translate(95.410156 0)"
                 id="use48" />
            </g>
          </g>
        </g>
        <g
           id="xtick_2">
          <g
             id="line2d_2">
            <g
               id="g56">
              <use
                 xlink:href="#md10bc843f4"
                 x="197.543344"
                 y="142.04"
                 style="stroke: #000000; stroke-width: 0.8"
                 id="use54" />
            </g>
          </g>
          <g
             id="text_2">
            <!-- 0.7 -->
            <g
               transform="translate(190.386937 155.878594) scale(0.09 -0.09)"
               id="g68">
              <defs
                 id="defs60">
                <path
                   id="DejaVuSans-37"
                   d="M 525 4666  L 3525 4666  L 3525 4397  L 1831 0  L 1172 0  L 2766 4134  L 525 4134  L 525 4666  z "
                   transform="scale(0.015625)" />
              </defs>
              <use
                 xlink:href="#DejaVuSans-30"
                 id="use62" />
              <use
                 xlink:href="#DejaVuSans-2e"
                 transform="translate(63.623047 0)"
                 id="use64" />
              <use
                 xlink:href="#DejaVuSans-37"
                 transform="translate(95.410156 0)"
                 id="use66" />
            </g>
          </g>
        </g>
        <g
           id="xtick_3">
          <g
             id="line2d_3">
            <g
               id="g74">
              <use
                 xlink:href="#md10bc843f4"
                 x="273.231134"
                 y="142.04"
                 style="stroke: #000000; stroke-width: 0.8"
                 id="use72" />
            </g>
          </g>
          <g
             id="text_3">
            <!-- 0.8 -->
            <g
               transform="translate(266.074727 155.878594) scale(0.09 -0.09)"
               id="g86">
              <defs
                 id="defs78">
                <path
                   id="DejaVuSans-38"
                   d="M 2034 2216  Q 1584 2216 1326 1975  Q 1069 1734 1069 1313  Q 1069 891 1326 650  Q 1584 409 2034 409  Q 2484 409 2743 651  Q 3003 894 3003 1313  Q 3003 1734 2745 1975  Q 2488 2216 2034 2216  z M 1403 2484  Q 997 2584 770 2862  Q 544 3141 544 3541  Q 544 4100 942 4425  Q 1341 4750 2034 4750  Q 2731 4750 3128 4425  Q 3525 4100 3525 3541  Q 3525 3141 3298 2862  Q 3072 2584 2669 2484  Q 3125 2378 3379 2068  Q 3634 1759 3634 1313  Q 3634 634 3220 271  Q 2806 -91 2034 -91  Q 1263 -91 848 271  Q 434 634 434 1313  Q 434 1759 690 2068  Q 947 2378 1403 2484  z M 1172 3481  Q 1172 3119 1398 2916  Q 1625 2713 2034 2713  Q 2441 2713 2670 2916  Q 2900 3119 2900 3481  Q 2900 3844 2670 4047  Q 2441 4250 2034 4250  Q 1625 4250 1398 4047  Q 1172 3844 1172 3481  z "
                   transform="scale(0.015625)" />
              </defs>
              <use
                 xlink:href="#DejaVuSans-30"
                 id="use80" />
              <use
                 xlink:href="#DejaVuSans-2e"
                 transform="translate(63.623047 0)"
                 id="use82" />
              <use
                 xlink:href="#DejaVuSans-38"
                 transform="translate(95.410156 0)"
                 id="use84" />
            </g>
          </g>
        </g>
        <g
           id="xtick_4">
          <g
             id="line2d_4">
            <g
               id="g92">
              <use
                 xlink:href="#md10bc843f4"
                 x="348.918924"
                 y="142.04"
                 style="stroke: #000000; stroke-width: 0.8"
                 id="use90" />
            </g>
          </g>
          <g
             id="text_4">
            <!-- 0.9 -->
            <g
               transform="translate(341.762517 155.878594) scale(0.09 -0.09)"
               id="g104">
              <defs
                 id="defs96">
                <path
                   id="DejaVuSans-39"
                   d="M 703 97  L 703 672  Q 941 559 1184 500  Q 1428 441 1663 441  Q 2288 441 2617 861  Q 2947 1281 2994 2138  Q 2813 1869 2534 1725  Q 2256 1581 1919 1581  Q 1219 1581 811 2004  Q 403 2428 403 3163  Q 403 3881 828 4315  Q 1253 4750 1959 4750  Q 2769 4750 3195 4129  Q 3622 3509 3622 2328  Q 3622 1225 3098 567  Q 2575 -91 1691 -91  Q 1453 -91 1209 -44  Q 966 3 703 97  z M 1959 2075  Q 2384 2075 2632 2365  Q 2881 2656 2881 3163  Q 2881 3666 2632 3958  Q 2384 4250 1959 4250  Q 1534 4250 1286 3958  Q 1038 3666 1038 3163  Q 1038 2656 1286 2365  Q 1534 2075 1959 2075  z "
                   transform="scale(0.015625)" />
              </defs>
              <use
                 xlink:href="#DejaVuSans-30"
                 id="use98" />
              <use
                 xlink:href="#DejaVuSans-2e"
                 transform="translate(63.623047 0)"
                 id="use100" />
              <use
                 xlink:href="#DejaVuSans-39"
                 transform="translate(95.410156 0)"
                 id="use102" />
            </g>
          </g>
        </g>
        <g
           id="xtick_5">
          <g
             id="line2d_5">
            <g
               id="g110">
              <use
                 xlink:href="#md10bc843f4"
                 x="424.606714"
                 y="142.04"
                 style="stroke: #000000; stroke-width: 0.8"
                 id="use108" />
            </g>
          </g>
          <g
             id="text_5">
            <!-- 1.0 -->
            <g
               transform="translate(417.450308 155.878594) scale(0.09 -0.09)"
               id="g122">
              <defs
                 id="defs114">
                <path
                   id="DejaVuSans-31"
                   d="M 794 531  L 1825 531  L 1825 4091  L 703 3866  L 703 4441  L 1819 4666  L 2450 4666  L 2450 531  L 3481 531  L 3481 0  L 794 0  L 794 531  z "
                   transform="scale(0.015625)" />
              </defs>
              <use
                 xlink:href="#DejaVuSans-31"
                 id="use116" />
              <use
                 xlink:href="#DejaVuSans-2e"
                 transform="translate(63.623047 0)"
                 id="use118" />
              <use
                 xlink:href="#DejaVuSans-30"
                 transform="translate(95.410156 0)"
                 id="use120" />
            </g>
          </g>
        </g>
      </g>
      <g
         id="matplotlib.axis_2">
        <g
           id="text_6">
          <!-- model_1/fold_0 -->
          <g
             transform="translate(0 73.378281) scale(0.09 -0.09)"
             id="g165">
            <defs
               id="defs135">
              <path
                 id="DejaVuSans-6d"
                 d="M 3328 2828  Q 3544 3216 3844 3400  Q 4144 3584 4550 3584  Q 5097 3584 5394 3201  Q 5691 2819 5691 2113  L 5691 0  L 5113 0  L 5113 2094  Q 5113 2597 4934 2840  Q 4756 3084 4391 3084  Q 3944 3084 3684 2787  Q 3425 2491 3425 1978  L 3425 0  L 2847 0  L 2847 2094  Q 2847 2600 2669 2842  Q 2491 3084 2119 3084  Q 1678 3084 1418 2786  Q 1159 2488 1159 1978  L 1159 0  L 581 0  L 581 3500  L 1159 3500  L 1159 2956  Q 1356 3278 1631 3431  Q 1906 3584 2284 3584  Q 2666 3584 2933 3390  Q 3200 3197 3328 2828  z "
                 transform="scale(0.015625)" />
              <path
                 id="DejaVuSans-6f"
                 d="M 1959 3097  Q 1497 3097 1228 2736  Q 959 2375 959 1747  Q 959 1119 1226 758  Q 1494 397 1959 397  Q 2419 397 2687 759  Q 2956 1122 2956 1747  Q 2956 2369 2687 2733  Q 2419 3097 1959 3097  z M 1959 3584  Q 2709 3584 3137 3096  Q 3566 2609 3566 1747  Q 3566 888 3137 398  Q 2709 -91 1959 -91  Q 1206 -91 779 398  Q 353 888 353 1747  Q 353 2609 779 3096  Q 1206 3584 1959 3584  z "
                 transform="scale(0.015625)" />
              <path
                 id="DejaVuSans-64"
                 d="M 2906 2969  L 2906 4863  L 3481 4863  L 3481 0  L 2906 0  L 2906 525  Q 2725 213 2448 61  Q 2172 -91 1784 -91  Q 1150 -91 751 415  Q 353 922 353 1747  Q 353 2572 751 3078  Q 1150 3584 1784 3584  Q 2172 3584 2448 3432  Q 2725 3281 2906 2969  z M 947 1747  Q 947 1113 1208 752  Q 1469 391 1925 391  Q 2381 391 2643 752  Q 2906 1113 2906 1747  Q 2906 2381 2643 2742  Q 2381 3103 1925 3103  Q 1469 3103 1208 2742  Q 947 2381 947 1747  z "
                 transform="scale(0.015625)" />
              <path
                 id="DejaVuSans-65"
                 d="M 3597 1894  L 3597 1613  L 953 1613  Q 991 1019 1311 708  Q 1631 397 2203 397  Q 2534 397 2845 478  Q 3156 559 3463 722  L 3463 178  Q 3153 47 2828 -22  Q 2503 -91 2169 -91  Q 1331 -91 842 396  Q 353 884 353 1716  Q 353 2575 817 3079  Q 1281 3584 2069 3584  Q 2775 3584 3186 3129  Q 3597 2675 3597 1894  z M 3022 2063  Q 3016 2534 2758 2815  Q 2500 3097 2075 3097  Q 1594 3097 1305 2825  Q 1016 2553 972 2059  L 3022 2063  z "
                 transform="scale(0.015625)" />
              <path
                 id="DejaVuSans-6c"
                 d="M 603 4863  L 1178 4863  L 1178 0  L 603 0  L 603 4863  z "
                 transform="scale(0.015625)" />
              <path
                 id="DejaVuSans-5f"
                 d="M 3263 -1063  L 3263 -1509  L -63 -1509  L -63 -1063  L 3263 -1063  z "
                 transform="scale(0.015625)" />
              <path
                 id="DejaVuSans-2f"
                 d="M 1625 4666  L 2156 4666  L 531 -594  L 0 -594  L 1625 4666  z "
                 transform="scale(0.015625)" />
              <path
                 id="DejaVuSans-66"
                 d="M 2375 4863  L 2375 4384  L 1825 4384  Q 1516 4384 1395 4259  Q 1275 4134 1275 3809  L 1275 3500  L 2222 3500  L 2222 3053  L 1275 3053  L 1275 0  L 697 0  L 697 3053  L 147 3053  L 147 3500  L 697 3500  L 697 3744  Q 697 4328 969 4595  Q 1241 4863 1831 4863  L 2375 4863  z "
                 transform="scale(0.015625)" />
            </defs>
            <use
               xlink:href="#DejaVuSans-6d"
               id="use137" />
            <use
               xlink:href="#DejaVuSans-6f"
               transform="translate(97.412109 0)"
               id="use139" />
            <use
               xlink:href="#DejaVuSans-64"
               transform="translate(158.59375 0)"
               id="use141" />
            <use
               xlink:href="#DejaVuSans-65"
               transform="translate(222.070312 0)"
               id="use143" />
            <use
               xlink:href="#DejaVuSans-6c"
               transform="translate(283.59375 0)"
               id="use145" />
            <use
               xlink:href="#DejaVuSans-5f"
               transform="translate(311.376953 0)"
               id="use147" />
            <use
               xlink:href="#DejaVuSans-31"
               transform="translate(361.376953 0)"
               id="use149" />
            <use
               xlink:href="#DejaVuSans-2f"
               transform="translate(425 0)"
               id="use151" />
            <use
               xlink:href="#DejaVuSans-66"
               transform="translate(458.691406 0)"
               id="use153" />
            <use
               xlink:href="#DejaVuSans-6f"
               transform="translate(493.896484 0)"
               id="use155" />
            <use
               xlink:href="#DejaVuSans-6c"
               transform="translate(555.078125 0)"
               id="use157" />
            <use
               xlink:href="#DejaVuSans-64"
               transform="translate(582.861328 0)"
               id="use159" />
            <use
               xlink:href="#DejaVuSans-5f"
               transform="translate(646.337891 0)"
               id="use161" />
            <use
               xlink:href="#DejaVuSans-30"
               transform="translate(696.337891 0)"
               id="use163" />
          </g>
        </g>
      </g>
      <g
         id="line2d_6">
        <path
           d="m 72.398594,142.03906 c 28.724836,-0.25356 57.530356,0.4282 86.183636,-1.76484 14.42541,-1.5903 28.59993,-4.994 42.6745,-8.36206 11.81948,-4.5337 21.34511,-13.35843 31.58817,-20.56016 11.62502,-9.743 18.13593,-23.918713 27.66495,-35.500577 9.06578,-13.285648 17.55215,-26.996748 27.81533,-39.439465 7.82457,-10.342068 13.1873,-24.594483 26.90765,-28.3813572 6.7063,-3.6490857 13.62742,0.948086 17.6038,6.3549482 16.31662,15.91089 23.2997,38.082577 31.46922,58.71932 7.45808,18.574642 14.54935,37.655151 25.81788,54.313841 6.80786,9.62839 18.32118,15.42162 30.16176,14.55542 1.43953,0.0567 2.88098,0.0316 4.32122,0.0555"
           clip-path="url(#p434bb19f13)"
           style="fill:none;stroke:#000000;stroke-width:1.5;stroke-linecap:square"
           id="path169" />
      </g>
      <g
         id="PathCollection_1">
        <defs
           id="defs173">
          <path
             id="m01e57ea7f5"
             d="M -0 4.242641  L 4.242641 0  L 0 -4.242641  L -4.242641 -0  z "
             style="stroke: #000000" />
        </defs>
        <g
           id="g177">
          <use
             xlink:href="#m01e57ea7f5"
             x="305.099677"
             y="142.04"
             style="stroke: #000000"
             id="use175" />
        </g>
      </g>
      <g
         id="patch_3">
        <path
           d="M 72.398594 142.04  L 424.606714 142.04  "
           style="fill: none; stroke: #000000; stroke-width: 0.8; stroke-linejoin: miter; stroke-linecap: square"
           id="path180" />
      </g>
      <g
         id="LineCollection_4">
        <path
           d="M 72.398594 142.04  L 424.606714 142.04  "
           style="fill: none; stroke: #000000"
           id="path183" />
      </g>
      <g
         id="LineCollection_5">
        <path
           d="M 72.398594 142.04  L 72.398594 133.185558  "
           style="fill: none; stroke: #000000"
           id="path186" />
      </g>
      <g
         id="LineCollection_6">
        <path
           d="M 424.606714 142.04  L 424.606714 133.185558  "
           style="fill: none; stroke: #000000"
           id="path189" />
      </g>
    </g>
  </g>
  <defs
     id="defs197">
    <clipPath
       id="p434bb19f13">
      <rect
         x="72.398594"
         y="-0"
         width="352.20812"
         height="142.04"
         id="rect194" />
    </clipPath>
  </defs>
</svg>
