<?xml version="1.0" encoding="UTF-8" standalone="no"?>
<svg
   version="1.1"
   style="display: block;"
   viewBox="0 0 2048 2048"
   width="1024"
   height="1024"
   preserveAspectRatio="none"
   id="svg49"
   sodipodi:docname="pyrelukko.svg"
   inkscape:version="1.4.2 (ebf0e940d0, 2025-05-08)"
   xml:space="preserve"
   xmlns:inkscape="http://www.inkscape.org/namespaces/inkscape"
   xmlns:sodipodi="http://sodipodi.sourceforge.net/DTD/sodipodi-0.dtd"
   xmlns:xlink="http://www.w3.org/1999/xlink"
   xmlns="http://www.w3.org/2000/svg"
   xmlns:svg="http://www.w3.org/2000/svg"><sodipodi:namedview
     id="namedview49"
     pagecolor="#ffffff"
     bordercolor="#000000"
     borderopacity="0.25"
     inkscape:showpageshadow="2"
     inkscape:pageopacity="0.0"
     inkscape:pagecheckerboard="0"
     inkscape:deskcolor="#d1d1d1"
     showguides="false"
     inkscape:zoom="0.71"
     inkscape:cx="529.57746"
     inkscape:cy="419.71831"
     inkscape:window-width="2048"
     inkscape:window-height="1208"
     inkscape:window-x="0"
     inkscape:window-y="0"
     inkscape:window-maximized="1"
     inkscape:current-layer="svg49" /><defs
     id="defs8"><linearGradient
       id="Gradient1"
       gradientUnits="userSpaceOnUse"
       x1="1211.84"
       y1="932.549"
       x2="1154.68"
       y2="884.2"
       gradientTransform="translate(-0.07518262,55.94242)"><stop
         class="stop0"
         offset="0"
         stop-opacity="1"
         stop-color="rgb(97,167,171)"
         id="stop1" /><stop
         class="stop1"
         offset="1"
         stop-opacity="1"
         stop-color="rgb(149,225,204)"
         id="stop2" /></linearGradient><linearGradient
       id="Gradient2"
       gradientUnits="userSpaceOnUse"
       x1="1473.27"
       y1="1671.02"
       x2="1632.83"
       y2="1604.19"
       gradientTransform="translate(94.090854,72.59591)"><stop
         class="stop0"
         offset="0"
         stop-opacity="1"
         stop-color="rgb(50,172,216)"
         id="stop3" /><stop
         class="stop1"
         offset="1"
         stop-opacity="1"
         stop-color="rgb(64,222,241)"
         id="stop4" /></linearGradient><linearGradient
       id="Gradient3"
       gradientUnits="userSpaceOnUse"
       x1="605.65"
       y1="1162.01"
       x2="860.473"
       y2="1025.88"
       gradientTransform="translate(-0.07518262,55.94242)"><stop
         class="stop0"
         offset="0"
         stop-opacity="1"
         stop-color="rgb(17,88,151)"
         id="stop5" /><stop
         class="stop1"
         offset="1"
         stop-opacity="1"
         stop-color="rgb(24,111,171)"
         id="stop6" /></linearGradient><linearGradient
       id="Gradient4"
       gradientUnits="userSpaceOnUse"
       x1="774.154"
       y1="888.098"
       x2="1455.4"
       y2="686.727"
       gradientTransform="translate(-0.07518262,55.94242)"><stop
         class="stop0"
         offset="0"
         stop-opacity="1"
         stop-color="rgb(28,119,176)"
         id="stop7" /><stop
         class="stop1"
         offset="1"
         stop-opacity="1"
         stop-color="rgb(60,196,230)"
         id="stop8" /></linearGradient><linearGradient
       id="linearGradient2795"><stop
         style="stop-color:#b8b8b8;stop-opacity:0.49803922;"
         offset="0"
         id="stop2797" /><stop
         style="stop-color:#7f7f7f;stop-opacity:0;"
         offset="1"
         id="stop2799" /></linearGradient><linearGradient
       id="linearGradient2787"><stop
         style="stop-color:#7f7f7f;stop-opacity:0.5;"
         offset="0"
         id="stop2789" /><stop
         style="stop-color:#7f7f7f;stop-opacity:0;"
         offset="1"
         id="stop2791" /></linearGradient><linearGradient
       id="linearGradient3676"><stop
         style="stop-color:#b2b2b2;stop-opacity:0.5;"
         offset="0"
         id="stop3678" /><stop
         style="stop-color:#b3b3b3;stop-opacity:0;"
         offset="1"
         id="stop3680" /></linearGradient><linearGradient
       id="linearGradient3236"><stop
         style="stop-color:#f4f4f4;stop-opacity:1"
         offset="0"
         id="stop3244" /><stop
         style="stop-color:white;stop-opacity:1"
         offset="1"
         id="stop3240" /></linearGradient><linearGradient
       id="linearGradient4671"><stop
         style="stop-color:#ffd43b;stop-opacity:1;"
         offset="0"
         id="stop4673" /><stop
         style="stop-color:#ffe873;stop-opacity:1"
         offset="1"
         id="stop4675" /></linearGradient><linearGradient
       id="linearGradient4689"><stop
         style="stop-color:#5a9fd4;stop-opacity:1;"
         offset="0"
         id="stop4691" /><stop
         style="stop-color:#306998;stop-opacity:1;"
         offset="1"
         id="stop4693" /></linearGradient><linearGradient
       x1="224.23996"
       y1="144.75717"
       x2="-65.308502"
       y2="144.75717"
       id="linearGradient2987"
       xlink:href="#linearGradient4671"
       gradientUnits="userSpaceOnUse"
       gradientTransform="translate(100.2702,99.61116)" /><linearGradient
       x1="172.94208"
       y1="77.475983"
       x2="26.670298"
       y2="76.313133"
       id="linearGradient2990"
       xlink:href="#linearGradient4689"
       gradientUnits="userSpaceOnUse"
       gradientTransform="translate(100.2702,99.61116)" /><linearGradient
       inkscape:collect="always"
       xlink:href="#linearGradient4671"
       id="linearGradient2255"
       gradientUnits="userSpaceOnUse"
       gradientTransform="matrix(0.562541,0,0,0.567972,-11.5974,-7.60954)"
       x1="224.23996"
       y1="144.75717"
       x2="-65.308502"
       y2="144.75717" /><linearGradient
       inkscape:collect="always"
       xlink:href="#linearGradient4689"
       id="linearGradient2258"
       gradientUnits="userSpaceOnUse"
       gradientTransform="matrix(0.562541,0,0,0.567972,-11.5974,-7.60954)"
       x1="172.94208"
       y1="76.176224"
       x2="26.670298"
       y2="76.313133" /><radialGradient
       inkscape:collect="always"
       xlink:href="#linearGradient2795"
       id="radialGradient2801"
       cx="61.518883"
       cy="132.28575"
       fx="61.518883"
       fy="132.28575"
       r="29.036913"
       gradientTransform="matrix(1,0,0,0.177966,0,108.7434)"
       gradientUnits="userSpaceOnUse" /><linearGradient
       inkscape:collect="always"
       xlink:href="#linearGradient4671"
       id="linearGradient1475"
       gradientUnits="userSpaceOnUse"
       gradientTransform="matrix(1.125082,0,0,1.135944,223.74622,1247.2578)"
       x1="150.96111"
       y1="192.35176"
       x2="112.03144"
       y2="137.27299" /><linearGradient
       inkscape:collect="always"
       xlink:href="#linearGradient4689"
       id="linearGradient1478"
       gradientUnits="userSpaceOnUse"
       gradientTransform="matrix(1.125082,0,0,1.135944,223.74622,1247.2578)"
       x1="26.648937"
       y1="20.603781"
       x2="135.66525"
       y2="114.39767" /></defs><g
     id="g5"><g
       id="g4"><path
         fill="url(#Gradient4)"
         d="m 1360.6448,797.69442 c -33.05,-0.726 -69.27,0.265 -102.61,0.161 l -295.85498,-0.128 -88.11,0.04 c -23.419,0.024 -45.812,0.922 -69.102,-2.817 -66.765,-10.719 -111.434,-70.514 -110.032,-136.988 0.794,-37.624 -2.18,-78.051 1.589,-115.517 7.941,-73.572 40.717,-142.242 92.924,-194.686 63.768,-64.269 144.095,-97.626 234.59598,-97.961 3.22,34.381 12.86,56.087 36.48,82.582 4.71,5.288 22.35,18.377 23.53,23.045 -65.52,-15.533 -125.10198,-8.007 -182.91098,27.587 -53.553,32.973 -89.139,87.96 -103.245,148.664 -2.317,9.972 -3.451,20.211 -4.108,30.419 -1.253,19.441 -3.687,105.149 4.169,118.016 4.909,8.04 13.162,14.98 22.476,17.088 11.598,2.625 26.63,1.095 38.573,1.059 l 68.36,-0.154 346.19598,0.136 81.67,-10e-4 c 18.9,-0.029 45.13,-1.327 62.96,2.493 19.17,4.11 39.3,27.477 39.65,47.03 1.17,22.642 0.56,45.849 0.58,68.6 l 0.19,123.98 -0.08,134.61998 c 0.05,32.63 1.91,76.15 -4.32,106.8 -11.03,54.23 -45.84,104.07 -92.74,133.27 -19.54,12.17 -40.62,23.78 -60.61,35.7 l -130.56,77.92 -69.84,41.52 c -25.54,15.45 -46.71,32.89 -77.65,32.94 0.55,-33.1 -0.65,-68.64 0.51,-101.24 11.58,-6.19 25.06,-15.15 36.77,-21.96 40.99,-23.86 81.78,-48.06 122.36,-72.62 l 84.69,-50.3 c 40.94,-24.23 80.45,-40.29 89.83,-92.15 3.63,-20.07 3.02,-37.48 3.05,-57.61 l 0.01,-59.899 c 0.08,-82.68398 -1.07,-167.15298 0.61,-249.63898 z"
         id="path9"
         style="fill:url(#Gradient4)" /><path
         fill="url(#Gradient3)"
         d="m 1022.8148,1503.1124 c -27.90998,-0.07 -53.03098,-19.54 -76.43498,-33.49 l -89.402,-53.44 -109.84,-65.55 c -26.551,-15.59 -63.224,-35.04 -85.733,-54.1 -42.398,-35.9 -69.301,-91.4 -71.441,-146.85 -1.232,-31.92 -0.722,-66.14 -0.51,-98.535 l -0.008,-138.41498 -0.158,-111.949 c 0.014,-11.406 -0.591,-44.916 0.929,-54.676 1.67,-10.894 6.478,-21.066 13.836,-29.272 15.87,-17.442 33.235,-18.084 54.528,-18.721 3.885,24.881 11.691,49.653 29.288,68.453 -1.076,23.681 -0.278,53.221 -0.192,77.158 l 0.208,135.27 -0.096,113.03698 c 0.065,43.1 -4.65,86.75 27.494,121.24 15.911,17.07 45.418,31.61 66.007,43.93 l 171.749,102.12 44.91,26.5 c 7.24598,4.27 19.27598,10.7 25.37598,16.05 -1.16,32.6 0.04,68.14 -0.51,101.24 z"
         id="path10"
         style="fill:url(#Gradient3)" /><path
         fill="#44c2e0"
         d="m 1024.0448,249.79842 c 90.72,0.954 170.22,33.602 234.61,98.286 50.8,51.036 87.69,126.366 93.15,198.369 2.41,31.768 1.13,77.391 1.08,110.408 -32.65,0.028 -65.73,-0.223 -98.35,0.164 0.36,-69.216 6.64,-124.066 -27.32,-187.014 -10.29,-19.342 -23.3,-37.106 -38.64,-52.748 -30.87,-31.183 -62.59,-49.52 -104.52,-61.838 -1.18,-4.668 -18.82,-17.757 -23.53,-23.045 -23.62,-26.495 -33.26,-48.201 -36.48,-82.582 z"
         id="path11" /><path
         fill="#5aa6a6"
         d="m 1023.7348,1239.3224 c 21.37,-12.11 42.26,-26.01 64.13,-38.35 1.28,28.09 0.29,55.74 0.84,83.67 l -46.71,27.89 c -2.48,1.48 -16.24,9.85 -18.06,10.45 0.12,-27.89 0.06,-55.77 -0.2,-83.66 z"
         id="path13" /><path
         fill="#a4e5c7"
         d="m 958.93682,1201.7924 c 1.899,2.1 61.33798,36.6 64.79798,37.53 0.26,27.89 0.32,55.77 0.2,83.66 -21.34,-12.35 -42.48598,-25.75 -64.05498,-38.28 -0.259,-12.24 -0.317,-24.48 -0.173,-36.72 0.351,-3.47 0.514,-3.29 -0.831,-6.46 1.163,-3.72 0.575,-34.73 0.061,-39.73 z"
         id="path14" /><path
         fill="#7ad1db"
         d="m 1023.7548,1135.2024 2.92,-1.17 c 0.3,9.88 0.48,19.77 0.54,29.66 13.2,8.97 51.48,29.2 60.65,37.28 -21.87,12.34 -42.76,26.24 -64.13,38.35 -3.46,-0.93 -62.89898,-35.43 -64.79798,-37.53 6.476,-6.17 52.46798,-32.52 61.86798,-37.85 -0.09,-9.44 0.04,-18.89 0.39,-28.33 z"
         id="path15" /><path
         fill="#44c2e0"
         d="m 870.03582,1195.1224 4.922,-3.4 c 28.374,15.92 56.354,32.52 83.918,49.8 1.345,3.17 1.182,2.99 0.831,6.46 -29.679,-16.4 -59.749,-35.75 -89.671,-52.86 z"
         id="path16" /><path
         fill="#44c2e0"
         d="m 902.25582,1151.2324 c 5.609,-0.61 60.779,-36.1 73.469,-42.07 2.896,1.59 2.329,0.84 4.263,3.18 -20.578,13.69 -55.664,34.25 -78.025,46.85 0.136,-2.65 0.234,-5.3 0.293,-7.96 z"
         id="path17" /><path
         fill="#8ed6c6"
         d="m 1023.8548,843.16342 c 7.48,4.522 52.3,30.778 56.97,34.895 -0.09,21.9 -0.05,43.801 0.12,65.7 -18.68,10.937 -37.46,21.418 -55.88,32.788 2.65,6.002 1.73,18.446 1.5,25.24598 l -5.74,0.843 0.12,-25.88098 c -10.06,-8.016 -41.80298,-25.334 -54.63598,-33.004 0.105,-21.968 -0.055,-43.936 -0.478,-65.9 18.485,-11.749 39.07398,-23.356 58.02398,-34.687 z"
         id="path26" /><path
         fill="#44c2e0"
         d="m 965.83082,877.85042 c 16.459,10.361 42.73398,25.411 57.29398,36.271 0.86,10.72 -1.1,57.998 1.94,62.425 2.65,6.002 1.73,18.446 1.5,25.24598 l -5.74,0.843 0.12,-25.88098 c -10.06,-8.016 -41.80298,-25.334 -54.63598,-33.004 0.105,-21.968 -0.055,-43.936 -0.478,-65.9 z"
         id="path27" /><path
         fill="#2f92c0"
         d="m 1023.1248,914.12142 c 18.4,-11.598 39.3,-24.912 57.7,-36.063 -0.09,21.9 -0.05,43.801 0.12,65.7 -18.68,10.937 -37.46,21.418 -55.88,32.788 -3.04,-4.427 -1.08,-51.705 -1.94,-62.425 z"
         id="path28" /><path
         fill="#a4e5c7"
         d="m 1020.8248,1002.6354 5.74,-0.843 c 3.14,2.696 33,21.405 35.63,21.677 2.94,2.756 1.33,2.153 4.63,2.835 4.72,3.324 8.85,6.445 13.41,9.988 0.11,3.244 -0.08,7.188 0.97,10.068 -0.1,1.337 -0.24,4.401 -0.47,5.565 -1.16,10.807 0.05,36.597 0.25,48.637 l -10.83,6.87 c -2.95,1.2 -3.56,1.1 -5.37,3.71 -8.13,5.14 -30.12,19.29 -38.11,22.89 l -2.92,1.17 -2.56,0.41 c -6.31,-6.27 -25.56398,-16.27 -33.85798,-21.77 -3.954,-2.62 -4.107,-2.39 -7.349,-1.5 -1.934,-2.34 -1.367,-1.59 -4.263,-3.18 l 0.937,-1.63 c -1.886,-2.56 -6.516,-4.47 -9.521,-6.02 -0.181,-16 0.522,-32.35 -0.051,-48.266 -0.069,-1.516 -1.008,-4.528 -1.438,-6.139 l 2.055,-2.081 c -0.602,-3.712 -1.02,-4.777 -0.08,-8.479 2.953,-4.07 9.103,-6.945 13.521,-9.95 2.722,-0.816 2.504,-1.067 4.913,-2.943 5.339,-2.304 28.55398,-17.186 34.76398,-21.019 z"
         id="path29" /><path
         fill="#5aa6a6"
         d="m 1023.6348,1071.5624 c 18.2,-10.59 39.05,-25.658 56.6,-35.27 0.11,3.244 -0.08,7.188 0.97,10.068 -0.1,1.337 -0.24,4.401 -0.47,5.565 -1.16,10.807 0.05,36.597 0.25,48.637 l -10.83,6.87 c -2.95,1.2 -3.56,1.1 -5.37,3.71 -8.13,5.14 -30.12,19.29 -38.11,22.89 l -2.92,1.17 z"
         id="path30" /><path
         fill="#8ed6c6"
         d="m 967.70682,1045.0264 0.787,-5.518 0.922,-0.628 c 8.498,3.298 44.79898,26.662 54.21898,32.682 l 0.12,63.64 -2.56,0.41 c -6.31,-6.27 -25.56398,-16.27 -33.85798,-21.77 -3.954,-2.62 -4.107,-2.39 -7.349,-1.5 -1.934,-2.34 -1.367,-1.59 -4.263,-3.18 l 0.937,-1.63 c -1.886,-2.56 -6.516,-4.47 -9.521,-6.02 -0.181,-16 0.522,-32.35 -0.051,-48.266 -0.069,-1.516 -1.008,-4.528 -1.438,-6.139 z"
         id="path31" /><path
         fill="#7ad1db"
         d="m 786.98182,1110.7124 c 13.864,-7.97 45.833,-25.3 57.498,-34.12 12.314,7.19 47.913,26.72 57.55,33.99 1.483,10.08 -0.41,29.29 0.226,40.65 -0.059,2.66 -0.157,5.31 -0.293,7.96 l 0.047,16.42 c -10.237,5.61 -17.187,9.73 -27.052,16.11 l -4.922,3.4 c -3.174,1.85 -23.324,13.98 -24.973,14.41 -13.889,-6.62 -43.44,-25.23 -58.046,-33.79 0.283,-21.4 0.675,-43.71 -0.035,-65.03 z"
         id="path32" /><path
         fill="#44c2e0"
         d="m 786.98182,1110.7124 c 9.752,6.46 52.086,29.65 57.776,34.93 0.275,21.3 0.376,42.59 0.305,63.89 -13.889,-6.62 -43.44,-25.23 -58.046,-33.79 0.283,-21.4 0.675,-43.71 -0.035,-65.03 z"
         id="path33" /><path
         fill="#2f92c0"
         d="m 902.02982,1110.5824 c 1.483,10.08 -0.41,29.29 0.226,40.65 -0.059,2.66 -0.157,5.31 -0.293,7.96 l 0.047,16.42 c -10.237,5.61 -17.187,9.73 -27.052,16.11 l -4.922,3.4 c -3.174,1.85 -23.324,13.98 -24.973,14.41 0.071,-21.3 -0.03,-42.59 -0.305,-63.89 18.649,-10.19 39.874,-25.7 57.272,-35.06 z"
         id="path34" /><path
         fill="#a4e5c7"
         d="m 1202.9748,1076.0624 c 14.29,8.66 45.42,25.88 57.66,34.48 -0.12,21.6 -0.07,43.2 0.13,64.8 -10.27,5.57 -51.21,31.46 -57.85,33.65 l -55.79,-33.46 c 0.01,-4.99 0.37,-12.1 -0.77,-16.76 l 0.38,-6.61 c 0.34,-13.65 0.09,-28.38 0.11,-42.12 8.61,-6.63 44.83,-27.58 56.13,-33.98 z"
         id="path35" /><path
         fill="#7ad1db"
         d="m 1260.6348,1110.5424 c -0.12,21.6 -0.07,43.2 0.13,64.8 -10.27,5.57 -51.21,31.46 -57.85,33.65 -0.13,-21.53 -0.07,-43.06 0.17,-64.59 14.01,-4.8 42.27,-28.21 57.55,-33.86 z"
         id="path36" /><path
         fill="#2f92c0"
         d="m 1146.8448,1110.0424 c 16.7,10.12 40.65,23.64 56.24,34.36 -0.24,21.53 -0.3,43.06 -0.17,64.59 l -55.79,-33.46 c 0.01,-4.99 0.37,-12.1 -0.77,-16.76 l 0.38,-6.61 c 0.34,-13.65 0.09,-28.38 0.11,-42.12 z"
         id="path37" /><path
         fill="#a4e5c7"
         d="m 829.86082,957.79542 c -0.126,-10.493 0.815,-17.709 8.796,-25.902 23.495,-24.12 93.2,-17.154 87.388,26.627 -0.061,9.01 0.203,20.519 -0.281,29.316 -0.468,3.461 -0.666,3.7 -0.046,7.244 -2.215,18.33398 -27.02,27.44498 -43.141,29.44998 -14.316,2.183 -34.174,-5.389 -44.62,-15.239 -11.68,-11.01398 -8.14,-35.88398 -8.096,-51.49598 z"
         id="path39" /><path
         fill="#5aa6a6"
         d="m 877.20682,985.19342 c 21.922,-0.685 36.161,-8.749 48.838,-26.673 -0.061,9.01 0.203,20.519 -0.281,29.316 -0.468,3.461 -0.666,3.7 -0.046,7.244 -2.215,18.33398 -27.02,27.44498 -43.141,29.44998 l -4.727,-1.009 c -1.896,-4.509 -0.77,-31.87898 -0.643,-38.32798 z"
         id="path40" /><path
         fill="#44c2e0"
         d="m 829.86082,957.79542 c 12.093,19.086 24.686,26.527 47.346,27.398 -0.127,6.449 -1.253,33.81898 0.643,38.32798 l 4.727,1.009 c -14.316,2.183 -34.174,-5.389 -44.62,-15.239 -11.68,-11.01398 -8.14,-35.88398 -8.096,-51.49598 z"
         id="path41" /><path
         fill="url(#Gradient1)"
         d="m 1145.3248,975.40442 c -5.7,-20.697 6.04,-42.185 26.54,-48.566 20.5,-6.38 42.36,4.646 49.42,24.921 7.05,20.276 -3.24,42.493 -23.28,50.21498 -20.03,7.722 -42.57,-1.835 -50.95,-21.59898 -0.69,-1.617 -1.27,-3.277 -1.73,-4.971 z"
         id="path42"
         style="fill:url(#Gradient1)" /><path
         fill="#a4e5c7"
         d="m 1161.9548,939.55142 c 4.36,0.031 7.87,-0.527 12.17,-1.074 11.72,6.176 16.11,14.143 5.93,24.731 -16.23,4.157 -29.07,-12.913 -18.1,-23.657 z"
         id="path43" /><path
         fill="#44c2e0"
         d="m 1130.5248,1075.1724 c 20.78,-12.84 51.02,-32.705 72.32,-43.659 22.13,13.16 53.91,33.849 75.98,45.549 0.08,29.05 -0.58,59.42 0.1,88.26 13.29,12.76 -2.23,20.74 -9.03,13.33 -2.61,-6.57 -0.3,-9.06 3.71,-13.97 -0.17,-27.52 -0.94,-56.99 -0.62,-84.34 -22.29,-13.33 -48.44,-28.193 -69.92,-42.459 -21,12.557 -52.18,33.349 -72.51,43.989 -16.53,-10.12 -33.13,-20.1 -49.82,-29.947 0.23,-1.164 0.37,-4.228 0.47,-5.565 17.15,8.953 32.76,19.022 49.32,28.812 z"
         id="path44" /><path
         fill="#44c2e0"
         d="m 845.37682,1031.5414 c 22.657,14.853 48.315,29.841 71.534,43.971 16.038,-9.82 32.289,-19.29 48.741,-28.405 0.43,1.611 1.369,4.623 1.438,6.139 -12.069,6.206 -39.38,21.486 -50.374,28.846 -21.914,-13.74 -50.142,-29.176 -70.819,-43.531 -18.467,10.229 -53.779,30.431 -71.01,42.181 -0.123,15.87 -0.92,39.53 0.111,55.07 -2.257,-0.97 -4.825,-0.94 -7.053,0.11 1.65,-4.69 0.931,-50.04 0.869,-58.48 23.501,-15.31 52.253,-31.051 76.563,-45.901 z"
         id="path45" /><path
         fill="#44c2e0"
         d="m 1064.7848,1111.1424 c 1.81,-2.61 2.42,-2.51 5.37,-3.71 18.53,11.39 37.21,22.55 56.03,33.46 4.61,2.63 16.43,9.74 20.55,11.27 l -0.38,6.61 c -25.85,-13.52 -56.07,-32.75 -81.57,-47.63 z"
         id="path46" /><path
         fill="#7ad1db"
         d="m 1062.1948,1023.4694 83.13,-48.06498 c 0.46,1.694 1.04,3.354 1.73,4.971 -25.82,12.617 -52.51,32.70298 -80.23,45.92898 -3.3,-0.682 -1.69,-0.079 -4.63,-2.835 z"
         id="path47" /><path
         fill="#44c2e0"
         d="m 925.76382,987.83642 c 14.368,7.55 46.986,26.77398 60.297,35.81798 -2.409,1.876 -2.191,2.127 -4.913,2.943 -12.109,-6.271 -45.334,-27.93198 -55.43,-31.51698 -0.62,-3.544 -0.422,-3.783 0.046,-7.244 z"
         id="path48" /><path
         fill="#44c2e0"
         d="m 767.94482,1135.9224 c 2.228,-1.05 4.796,-1.08 7.053,-0.11 3.713,1.61 5.798,5.59 5.006,9.56 -0.793,3.97 -4.248,6.85 -8.294,6.9 -4.045,0.06 -7.583,-2.71 -8.49,-6.65 -0.908,-3.95 1.061,-7.99 4.725,-9.7 z"
         id="path49" /></g><g
       id="g3"><g
         id="g2"><path
           id="path18"
           style="fill:url(#Gradient2)"
           d="M 1649.1758 1623.125 C 1646.2247 1623.0788 1643.2459 1623.1806 1640.2422 1623.4375 C 1591.9622 1627.5675 1556.2217 1670.1363 1560.5117 1718.4062 C 1564.8017 1766.6762 1607.4922 1802.2742 1655.7422 1797.8242 C 1703.7822 1793.4042 1739.1723 1750.9562 1734.9023 1702.9062 C 1730.8992 1657.8594 1693.4422 1623.8179 1649.1758 1623.125 z M 1648.2227 1669.3359 C 1654.5427 1669.3059 1660.9125 1671.8267 1665.3125 1676.3867 C 1669.5425 1680.8067 1671.7225 1686.8041 1671.3125 1692.9141 C 1670.7825 1702.2241 1666.4325 1707.0178 1660.0625 1712.7578 L 1670.9414 1753.125 L 1655.4727 1753.125 L 1624.2422 1753.3477 C 1628.0722 1740.4977 1631.6112 1725.8352 1635.0312 1712.7852 C 1617.6412 1698.0952 1619.4994 1680.0769 1640.1094 1669.7969 C 1642.8094 1669.5269 1645.5127 1669.3759 1648.2227 1669.3359 z " /><path
           id="path20"
           d="M 574.60547 1627.2539 C 555.56684 1627.2902 536.29653 1628.1145 520.20703 1627.6445 L 520.21484 1793.5977 L 564.82422 1793.6367 C 564.53022 1778.2667 564.34172 1762.8878 564.26172 1747.5078 L 596.05469 1747.3164 C 604.55169 1762.6764 614.88175 1778.635 624.21875 1793.625 L 656.33984 1793.6641 L 672.23438 1793.6172 C 662.01138 1778.4172 644.34312 1753.8656 635.95312 1739.0156 C 684.00613 1716.4856 676.63037 1643.3077 627.60938 1631.5977 C 612.45137 1627.9727 593.64409 1627.2177 574.60547 1627.2539 z M 582.21484 1663.0742 C 601.67931 1662.7503 624.27181 1664.8739 625.03906 1685.5664 C 625.40406 1695.4264 624.47716 1699.2577 617.91016 1706.5977 C 602.57616 1715.8777 582.32209 1713.6648 564.62109 1713.4648 L 564.71875 1663.6172 C 569.5875 1663.5622 575.72669 1663.1822 582.21484 1663.0742 z "
           style="fill:#1665a0;fill-opacity:1" /><path
           fill="#44c2e0"
           d="m 1395.3809,1627.4459 44.16,0.3 c 0.18,24.45 -0.35,48.6 -0.49,73.03 21.58,-22.87 44.83,-49.71 65.97,-73.34 16.38,0.37 33.48,0.17 49.91,0.21 -20.25,21.3 -44.74,48.79 -64.39,71.02 9.29,14.93 28.02,39.54 38.68,54.23 9.8,13.6 20.43,27.11 29.95,40.83 -17.18,-0.3 -34.36,-0.33 -51.54,-0.1 -14.9,-17.84 -33.08,-44.44 -47.47,-63.7 -6.88,7.13 -13.85,15.39 -20.42,22.88 l 0.18,40.76 -44.31,-0.07 c 0.44,-55.35 0.37,-110.7 -0.23,-166.05 z"
           id="path22" /><path
           fill="#44c2e0"
           d="m 1322.9609,1627.5459 c 16.82,0.15 33.65,0.19 50.47,0.11 -19.66,21.6 -45.24,51.77 -65.31,71.92 12.46,15.33 26.99,37.1 38.66,53.56 9.15,13.64 19.45,27.22 29.22,40.48 l -50.92,0.16 c -15.76,-21.48 -30.92,-43.54 -46.98,-64.75 -7.36,7.98 -14.18,15.38 -21.13,23.76 l 0.11,40.79 -43.89,-0.14 -0.1,-165.9 c 14.63,0.17 29.26,0.19 43.89,0.07 0.32,24.02 0.17,48.47 0.24,72.52 22.06,-24.06 43.97,-48.26 65.74,-72.58 z"
           id="path23" /><path
           fill="#1665a0"
           d="m 702.39585,1627.6759 c 44.253,0.21 88.508,0.19 132.761,-0.08 l 0.175,35.73 c -29.762,-0.35 -59.527,-0.41 -89.29,-0.17 l 0.029,30.17 c 25.864,0.44 52.532,0.2 78.441,0.18 l -0.19,33.18 c -22.923,0.32 -45.847,0.48 -68.772,0.46 -3.774,-0.01 -5.617,-0.26 -9.228,0.98 -0.908,5.77 -0.31,24.44 -0.245,31.2 l 92.296,0.23 c 0.281,10.97 0.01,22.82 -0.054,33.88 l -136.043,0.11 c -0.84,-54.93 1.296,-110.83 0.12,-165.87 z"
           id="path24" /><path
           fill="#2f92c0"
           d="m 1134.1009,1627.4359 43.67,0.14 0.26,36.81 c 0.13,34.39 5.32,85.76 -20.54,111.77 -27.83,28.01 -88.147,27.1 -115.813,-1.21 -23.365,-23.9 -19.993,-61.56 -19.88,-92.48 l 0.218,-54.94 43.878,0.18 0.179,60.13 c -0.133,27.11 -5.825,70.91 32.578,72.24 40.71,1.42 35.52,-46.4 35.45,-73.08 z"
           id="path25" /><path
           fill="#2f92c0"
           d="m 872.24785,1627.5759 44.055,-0.03 c 1.398,41.34 0.479,88.25 0.55,129.97 l 82.929,0.08 c 0.176,11.6 -0.186,24.26 -0.303,35.94 l -127.256,0.09 c -0.063,-53.26 1.643,-113.53 0.025,-166.05 z"
           id="path38" /></g><g
         id="g1"
         transform="matrix(0.77854578,0,0,0.77854578,115.21079,633.8881)"><path
           style="fill:url(#linearGradient1478);fill-opacity:1;stroke-width:2"
           d="m 363.56603,1270.6643 c -9.16731,0.043 -17.92188,0.8245 -25.625,2.1875 -22.69243,4.009 -26.8125,12.4002 -26.8125,27.875 v 20.4375 h 53.625 v 6.8125 h -53.625 -20.125 c -15.58492,0 -29.23152,9.3675 -33.5,27.1875 -4.92364,20.426 -5.14203,33.1721 0,54.5 3.81186,15.8757 12.91509,27.1875 28.5,27.1875 h 18.4375 v -24.5 c 0,-17.6998 15.31429,-33.3125 33.5,-33.3125 h 53.5625 c 14.9099,0 26.81251,-12.2763 26.8125,-27.25 v -51.0625 c 0,-14.5326 -12.25996,-25.4495 -26.8125,-27.875 -9.21197,-1.5334 -18.77019,-2.2301 -27.9375,-2.1875 z m -29,16.4375 c 5.53909,0 10.0625,4.5973 10.0625,10.25 0,5.6327 -4.52341,10.1875 -10.0625,10.1875 -5.55895,0 -10.0625,-4.5548 -10.0625,-10.1875 0,-5.6527 4.50355,-10.25 10.0625,-10.25 z"
           id="path1948" /><path
           style="fill:url(#linearGradient1475);fill-opacity:1;stroke-width:2"
           d="m 425.00353,1327.9768 v 23.8125 c 0,18.4615 -15.65179,34 -33.5,34 h -53.5625 c -14.67167,0 -26.8125,12.557 -26.8125,27.25 v 51.0625 c 0,14.5327 12.63718,23.0807 26.8125,27.25 16.97466,4.9913 33.25247,5.8933 53.5625,0 13.50031,-3.9087 26.81251,-11.7752 26.8125,-27.25 v -20.4375 h -53.5625 v -6.8125 h 53.5625 26.81251 c 15.58492,0 21.3925,-10.8708 26.81248,-27.1875 5.59866,-16.7977 5.36044,-32.9515 0,-54.5 -3.85156,-15.5148 -11.20774,-27.1875 -26.81248,-27.1875 z m -30.125,129.3125 c 5.55896,0 10.0625,4.5549 10.0625,10.1875 0,5.6527 -4.50355,10.25 -10.0625,10.25 -5.5391,0 -10.0625,-4.5973 -10.0625,-10.25 0,-5.6326 4.52339,-10.1875 10.0625,-10.1875 z"
           id="path1950" /></g></g></g></svg>
