<?xml version="1.0" encoding="UTF-8" standalone="no"?>
<!-- Created with Inkscape (http://www.inkscape.org/) -->
<svg version="1.1" id="svg2" width="621.33331" height="172" viewBox="0 0 621.33331 172" xmlns="http://www.w3.org/2000/svg">
<g id="g8" transform="matrix(1.3333333,0,0,-1.3333333,0,172)">
    <g id="g10" transform="scale(0.1)">
      <path d="M 3564.17 914.37014 L 3564.17 7.0751955 L 3768.6915 7.0751955 L 3768.6915 319.58497 L 3866.089 319.58497 C 3975.7989 319.58497 4063.266 347.86662 4128.9259 404.01856 C 4194.5758 460.39051 4227.4073 534.04377 4227.4073 625.18068 C 4227.4073 818.04349 4113.1532 914.37014 3884.4435 914.37014 L 3564.17 914.37014 z M 3768.6915 757.57326 L 3849.0235 757.57326 C 3957.8734 757.57326 4012.295 710.91899 4012.295 617.62209 C 4012.295 522.37618 3957.8734 474.63868 3849.0235 474.63868 L 3768.6915 474.63868 L 3768.6915 757.57326 z " style="fill:#d2b48c;fill-opacity:1;fill-rule:evenodd;stroke:none"/>
      <path d="M 2613.9,53.9805 C 2550.07,23.1055 2466.43,7.66797 2363.38,7.66797 c -134.33,0 -240.09,39.42583 -317.06,118.48403 -77.18,79.055 -115.55,184.395 -115.55,316.016 0,140.172 43.18,253.855 129.74,341.047 86.57,87.191 198.99,130.785 337.08,130.785 85.52,0 157.7,-10.844 216.31,-32.535 V 691.434 c -58.61,35.046 -125.36,52.562 -200.45,52.562 -82.19,0 -148.73,-25.863 -199.21,-77.594 -50.48,-51.73 -75.72,-121.816 -75.72,-210.261 0,-84.688 23.78,-152.27 71.55,-202.539 47.56,-50.274 111.8,-75.512 192.53,-75.512 76.97,0 147.47,18.773 211.3,56.316 V 53.9805" style="fill:#d2b48c;fill-opacity:1;fill-rule:evenodd;stroke:none" id="path20"/>
      <path d="M 1818.05,7.07031 H 1273.81 V 914.363 h 523.3 v -166.3 h -318.78 v -201.93 h 296.74 V 380.48 H 1478.33 V 172.938 h 339.72 V 7.07031" style="fill:#d2b48c;fill-opacity:1;fill-rule:evenodd;stroke:none" id="path22"/>
      <path d="m 5.29688,11.3164 c 226.34812,0 451.86712,0.0391 678.21112,0.0391 184.555,0 262.945,29.7929 343.042,107.4685 53.5,51.887 115.33,141.297 114.73,274.379 -1.48,324.66 -296.534,288.137 -291.358,473.774 1.164,41.996 27.258,82.187 64.125,102.675 35.019,19.45 70.254,29.016 127.893,29.164 235.71,0.579 -0.78,0 244.49,0.379 l 3207.09,-0.011 161.75,278.356 -3499.6,0.01 C 998.613,1273.74 831.242,1286.11 704.672,1169.31 603.332,1075.8 568.473,968.301 568.066,871.086 567.637,767.996 599.586,698.063 636.594,644.746 724.48,518.102 867.73,493.148 866.523,397.719 865.223,295.273 766.898,283.129 604.781,283.93 458.027,284.652 310.82,283.441 164.027,283.965 L 5.29688,11.3164" style="fill:#d2b48c;fill-opacity:1;fill-rule:evenodd;stroke:none" id="path24"/>
      <path d="m 5.29688,11.3164 c 226.34812,0 451.86712,0.0391 678.21112,0.0391 184.555,0 262.945,29.7929 343.042,107.4685 53.5,51.887 115.33,141.297 114.73,274.379 -1.48,324.66 -296.534,288.137 -291.358,473.774 1.164,41.996 27.258,82.187 64.125,102.675 35.019,19.45 70.254,29.016 127.893,29.164 235.71,0.579 -0.78,0 244.49,0.379 l 3207.09,-0.011 161.75,278.356 -3499.6,0.01 C 998.613,1273.74 831.242,1286.11 704.672,1169.31 603.332,1075.8 568.473,968.301 568.066,871.086 567.637,767.996 599.586,698.063 636.594,644.746 724.48,518.102 867.73,493.148 866.523,397.719 865.223,295.273 766.898,283.129 604.781,283.93 458.027,284.652 310.82,283.441 164.027,283.965 Z" style="fill:none;stroke:#d2b48c;stroke-width:4.9975;stroke-linecap:butt;stroke-linejoin:miter;stroke-miterlimit:22.9256;stroke-dasharray:none;stroke-opacity:1" id="path26"/>
    </g>
  </g>
 <g id="g872" transform="matrix(6 0 0 6 350 55)" stroke-width="0">
  <path d="m9.8438 0.21875-0.9375 1.4688-0.15625 0.71875c-0.5048 0.081873-1.0017 0.2322-1.4688 0.40625l-0.5-0.5625-1.5312-0.8125-0.28125 0.15625-0.09375 1.75 0.21875 0.6875c-0.40668 0.33042-0.76185 0.68883-1.0938 1.0938l-0.65625-0.21875-1.75 0.0625-0.15625 0.28125 0.8125 1.5625 0.5 0.4375c-0.18668 0.48554-0.32098 1.0043-0.40625 1.5312l-0.6875 0.125-1.4688 0.9375v0.34375l1.4688 0.9375 0.6875 0.125c0.085272 0.52697 0.21957 1.0457 0.40625 1.5312l-0.5 0.4375-0.8125 1.5625 0.15625 0.28125 1.75 0.0625 0.65625-0.21875c0.33214 0.40538 0.68668 0.76301 1.0938 1.0938l-0.21875 0.6875 0.09375 1.75 0.28125 0.15625 1.5312-0.8125 0.5-0.5625c0.46624 0.17375 0.96488 0.32435 1.4688 0.40625l0.15625 0.71875 0.9375 1.4688h0.3125l0.9375-1.4688 0.15625-0.71875c0.5098-0.08286 0.99752-0.22942 1.4688-0.40625l0.5 0.5625 1.5312 0.8125 0.28125-0.15625 0.09375-1.75-0.25-0.6875c0.41476-0.33474 0.78751-0.68184 1.125-1.0938l0.65625 0.21875 1.75-0.0625 0.15625-0.28125-0.8125-1.5625-0.53125-0.46875c0.18222-0.47856 0.35358-0.9814 0.4375-1.5l0.6875-0.125 1.4688-0.9375v-0.34375l-1.4688-0.9375-0.6875-0.125c-0.08392-0.5186-0.25528-1.0214-0.4375-1.5l0.53125-0.46875 0.8125-1.5625-0.15625-0.28125-1.75-0.0625-0.65625 0.21875c-0.33725-0.41145-0.71063-0.75932-1.125-1.0938l0.25-0.6875-0.09375-1.75-0.28125-0.15625-1.5312 0.8125-0.5 0.5625c-0.47204-0.17713-0.95801-0.32341-1.4688-0.40625l-0.15625-0.71875-0.9375-1.4688z" fill="#d2b48c" fill-rule="evenodd"/>
  <circle cx="10" cy="10" r="5" fill-rule="evenodd" fill="#332b22" />
  <path d="m11 3h3l-3.42 6h2.42l-7 8 3.4-6h-2.4z" fill="#ffffff"/>
 </g>
</svg>