<svg xmlns="http://www.w3.org/2000/svg" id="octo4423" fill="currentColor" viewBox="0 0 512 512"><style>@keyframes fade4423{0%,25%{fill-opacity:0}50%,75%{fill-opacity:1}}#octo4423 .part{animation-name:fade4423;animation-duration:1s;animation-iteration-count:infinite;animation-timing-function:ease-out;fill:currentColor}</style><path id="part1" d="M332.29 87.087c60.033-20.366 114.402-21.836 172.935 1.047l-11.404 32.851c-43.333-15.5-104.147-15.984-148.48-.734" class="part" style="animation-delay:0s" transform="rotate(45 418.757 96.189)"/><path id="part2" d="M398.527 246.389c60.034-20.367 114.403-21.836 172.936 1.047l-11.404 32.85c-43.333-15.5-104.147-15.984-148.48-.734" class="part" style="animation-delay:.125s" transform="rotate(90 484.995 255.49)"/><path id="part3" d="M331.332 404.824c60.034-20.367 114.402-21.836 172.936 1.047l-11.404 32.85c-43.333-15.5-104.147-15.983-148.48-.733" class="part" style="animation-delay:.25s" transform="rotate(135 417.8 413.925)"/><path id="part4" d="M171.582 470.324c60.034-20.367 114.402-21.836 172.936 1.047l-11.404 32.85c-43.333-15.5-104.147-15.983-148.48-.733" class="part" style="animation-delay:.375s" transform="rotate(180 258.05 479.425)"/><path id="part5" d="M13.082 406.074c60.034-20.367 114.402-21.836 172.936 1.047l-11.404 32.851c-43.333-15.5-104.147-15.984-148.48-.734" class="part" style="animation-delay:.5s" transform="rotate(-135 99.55 415.175)"/><path id="part6" d="M-53.713 247.092c60.033-20.367 114.401-21.836 172.935 1.047l-11.404 32.85c-43.333-15.5-104.147-15.983-148.48-.733" class="part" style="animation-delay:.625s" transform="rotate(-90 32.754 256.193)"/><path id="part7" d="M12.884 87.061c60.033-20.366 114.402-21.836 172.935 1.048l-11.403 32.85c-43.334-15.5-104.148-15.984-148.481-.734" class="part" style="animation-delay:.75s" transform="rotate(-45 99.351 96.163)"/><path id="part8" d="M172.907 20.93C232.94.563 287.309-.906 345.842 21.977l-11.403 32.85c-43.334-15.5-104.148-15.983-148.481-.733" class="part" style="animation-delay:.875s"/></svg>