<!--Generator: Adobe Illustrator 16.0.0, SVG Export Plug-In . SVG Version: 6.00 Build 0)--><svg xmlns="http://www.w3.org/2000/svg" xml:space="preserve" id="cog9_1_" x="0" y="0" viewBox="0 0 96 96"><style>@keyframes spinning-cog4420{0%{transform:rotate(0deg)}to{transform:rotate(360deg)}}</style><path fill="currentColor" fill-rule="evenodd" d="M81.379 60.37a36.4 36.4 0 0 0 2.11-11.432c.46-.144.943-.29 1.385-.434 4.905-1.599 9.091-3.101 10.968-4.423l-1.536-8.765c-2.02-.54-5.96-.584-10.489-.458-.872.025-1.806.07-2.747.115a36.2 36.2 0 0 0-5.341-9.398c.511-.804 1.013-1.602 1.47-2.355 2.374-3.918 4.069-7.239 4.619-9.286l-6.656-5.492c-1.889.904-4.714 3.084-8.103 6.138-.647.583-1.329 1.221-2.016 1.866a34.9 34.9 0 0 0-10.061-3.716c-.117-.94-.236-1.872-.363-2.74-.661-4.551-1.358-7.868-2.233-9.793h-8.769c-.875 1.925-1.571 5.242-2.234 9.793-.125.868-.245 1.8-.363 2.74a35 35 0 0 0-10.06 3.716 133 133 0 0 0-2.017-1.866c-3.388-3.054-6.212-5.234-8.103-6.138l-6.615 5.45c.548 2.046 2.206 5.41 4.579 9.328.457.753.96 1.552 1.47 2.355a36.1 36.1 0 0 0-5.339 9.398c-.943-.045-1.877-.09-2.75-.115-4.528-.126-8.526.111-10.545.651L.181 43.794c1.875 1.322 6.043 3.11 10.949 4.709.441.144.924.29 1.384.434a36.4 36.4 0 0 0 2.108 11.432l-.152.121c-2.957 2.396-6.302 5.127-9.873 8.035l4.398 7.456c4.266-1.683 8.15-3.191 11.671-4.593.056-.021.105-.043.161-.065a35.8 35.8 0 0 0 9.37 7.969c-.011.063-.023.121-.036.186-.749 3.767-1.456 7.522-2.351 12.082l8.192 2.929c2.203-4.074 3.99-7.327 5.801-10.701.033-.059.06-.115.093-.175 1.985.351 4.02.568 6.104.568s4.118-.218 6.104-.568c.032.06.059.116.093.175 1.81 3.374 3.597 6.626 5.799 10.7l8.192-2.929c-.893-4.56-1.601-8.314-2.35-12.081l-.037-.186a35.8 35.8 0 0 0 9.371-7.969c.056.022.105.044.162.065 3.522 1.401 7.394 2.922 11.659 4.604l4.41-7.478c-2.027-1.651-5.371-4.377-9.873-8.025-.05-.04-.097-.078-.151-.119M48 78c-16.568 0-30-13.432-30-30s13.432-30 30-30 30 13.432 30 30-13.432 30-30 30" clip-rule="evenodd" style="animation:spinning-cog4420 1.3s infinite ease;transform-origin:50% 50%"/><path fill="currentColor" fill-rule="evenodd" d="M48 24c-13.255 0-24 10.745-24 24s10.745 24 24 24 24-10.745 24-24-10.745-24-24-24m0 39c-8.284 0-15-6.716-15-15s6.716-15 15-15 15 6.716 15 15-6.716 15-15 15" clip-rule="evenodd"/></svg>