<!--Generator: Adobe Illustrator 16.0.0, SVG Export Plug-In . SVG Version: 6.00 Build 0)--><svg xmlns="http://www.w3.org/2000/svg" xml:space="preserve" id="cog3" x="0" y="0" viewBox="0 0 96 96"><style>@keyframes spinning-cog4414{0%{transform:rotate(0deg)}to{transform:rotate(360deg)}}</style><path fill="currentColor" d="M87.311 48c0-.983-.076-1.947-.148-2.912 3.84-1.227 6.88-2.397 8.838-3.441l-.704-3.963c-2.198-.316-5.456-.385-9.481-.236a38.4 38.4 0 0 0-2.006-5.48c3.178-2.452 5.628-4.58 7.105-6.225l-2.027-3.484c-2.176.449-5.263 1.491-8.997 2.998a39 39 0 0 0-3.767-4.476c2.141-3.381 3.709-6.211 4.53-8.257l-3.106-2.586c-1.886 1.157-4.419 3.175-7.398 5.849-1.615-1.095-3.333-2.041-5.108-2.891.848-3.912 1.347-7.108 1.413-9.313l-3.811-1.375c-1.377 1.731-3.066 4.499-4.952 8.036-1.884-.475-3.804-.854-5.785-1.047-.553-3.948-1.184-7.109-1.88-9.197h-4.055c-.695 2.088-1.327 5.249-1.878 9.196-1.981.194-3.902.573-5.785 1.047-1.886-3.537-3.575-6.305-4.952-8.036l-3.811 1.375c.066 2.205.565 5.401 1.413 9.313-1.775.85-3.493 1.796-5.108 2.891-2.979-2.674-5.513-4.692-7.398-5.849l-3.106 2.586c.821 2.045 2.39 4.875 4.529 8.257a39.4 39.4 0 0 0-3.766 4.476c-3.734-1.507-6.821-2.549-8.998-2.998l-2.028 3.484c1.479 1.645 3.929 3.772 7.106 6.225a38.5 38.5 0 0 0-2.006 5.48c-4.026-.148-7.283-.08-9.481.236L0 41.646c1.958 1.044 4.998 2.215 8.837 3.441-.071.966-.148 1.93-.148 2.913s.076 1.947.147 2.912C4.998 52.139 1.958 53.309 0 54.354l.704 3.963c2.198.316 5.456.385 9.481.236a38.4 38.4 0 0 0 2.006 5.48c-3.178 2.452-5.628 4.58-7.106 6.225l2.028 3.484c2.176-.448 5.263-1.49 8.998-2.998a39 39 0 0 0 3.766 4.477c-2.14 3.381-3.708 6.211-4.529 8.257l3.106 2.585c1.886-1.156 4.419-3.176 7.398-5.849 1.615 1.095 3.333 2.04 5.108 2.891-.849 3.911-1.347 7.108-1.413 9.312l3.811 1.376c1.377-1.731 3.066-4.499 4.952-8.037 1.883.475 3.804.854 5.785 1.049.551 3.946 1.183 7.107 1.878 9.195h4.055c.695-2.088 1.327-5.249 1.878-9.195 1.981-.194 3.901-.574 5.785-1.049 1.885 3.538 3.575 6.306 4.952 8.037l3.811-1.376c-.066-2.204-.565-5.401-1.413-9.312 1.775-.851 3.493-1.796 5.108-2.891 2.979 2.673 5.513 4.692 7.398 5.849l3.106-2.585c-.821-2.046-2.39-4.876-4.529-8.257a39.4 39.4 0 0 0 3.766-4.477c3.734 1.508 6.821 2.55 8.997 2.998l2.027-3.484c-1.478-1.645-3.928-3.772-7.105-6.225a38.5 38.5 0 0 0 2.006-5.48c4.025.148 7.283.08 9.481-.236L96 54.354c-1.958-1.045-4.998-2.215-8.838-3.441.072-.966.149-1.931.149-2.913M48 15c17.213 0 31.342 13.182 32.858 30H62.697c-1.39-6.847-7.44-12-14.697-12-1.225 0-2.396.188-3.536.464l-9.19-15.917A32.9 32.9 0 0 1 48 15m6 33a6 6 0 1 1-12 0 6 6 0 0 1 12 0m-39 0c0-11.571 5.96-21.745 14.974-27.636l9.054 15.682C35.388 38.783 33 43.096 33 48s2.388 9.217 6.027 11.954l-9.055 15.682C20.96 69.744 15 59.57 15 48m33 33c-4.511 0-8.81-.908-12.727-2.547l9.19-15.917c1.141.276 2.312.464 3.537.464 7.257 0 13.308-5.153 14.697-12h18.161C79.341 67.818 65.213 81 48 81" style="animation:spinning-cog4414 1.3s infinite ease;transform-origin:50% 50%"/></svg>