<!--Generator: Adobe Illustrator 16.0.0, SVG Export Plug-In . SVG Version: 6.00 Build 0)--><svg xmlns="http://www.w3.org/2000/svg" xml:space="preserve" id="cog15" x="0" y="0" viewBox="0 0 96 96"><style>@keyframes spinning-cog4426{0%{transform:rotate(0deg)}to{transform:rotate(360deg)}}</style><path fill="currentColor" d="M96 52.354v-8.707c-3.062-1.414-10.129-2.592-19.051-3.41a29.8 29.8 0 0 0-2.986-7.221c5.729-6.886 9.891-12.714 11.057-15.878l-6.157-6.157c-3.163 1.165-8.992 5.328-15.878 11.057a29.8 29.8 0 0 0-7.221-2.986c-.819-8.924-1.996-15.99-3.41-19.052h-8.707c-1.414 3.062-2.592 10.128-3.41 19.051a29.8 29.8 0 0 0-7.71 3.283c-4.618-3.54-9.448-6.998-15.39-11.354l-6.156 6.157c4.355 5.94 7.814 10.771 11.354 15.389a29.8 29.8 0 0 0-3.426 8.267C13.141 41.557 7.28 42.526 0 43.646v8.707c7.28 1.12 13.141 2.09 18.908 2.854a29.8 29.8 0 0 0 3.426 8.267c-3.539 4.618-6.998 9.448-11.354 15.389l6.156 6.157c5.941-4.355 10.771-7.814 15.39-11.354a29.8 29.8 0 0 0 8.267 3.426c.764 5.768 1.733 11.629 2.854 18.908h8.707c1.12-7.279 2.09-13.141 2.854-18.908a29.8 29.8 0 0 0 7.777-3.129c6.886 5.729 12.715 9.892 15.878 11.057l6.157-6.157c-1.166-3.163-5.328-8.992-11.057-15.878a29.8 29.8 0 0 0 2.986-7.221c8.922-.819 15.989-1.996 19.051-3.41M48 63c-8.284 0-15-6.716-15-15s6.716-15 15-15 15 6.716 15 15-6.716 15-15 15" style="animation:spinning-cog4426 1.3s infinite ease;transform-origin:50% 50%"/></svg>