<!--Generator: Adobe Illustrator 16.0.0, SVG Export Plug-In . SVG Version: 6.00 Build 0)--><svg xmlns="http://www.w3.org/2000/svg" xml:space="preserve" id="cog11" x="0" y="0" viewBox="0 0 96 96"><style>@keyframes spinning-cog4422{0%{transform:rotate(0deg)}to{transform:rotate(360deg)}}</style><path fill="currentColor" fill-rule="evenodd" d="M89.282 56.138S86.275 54.489 86.275 48c0-6.487 3.007-8.139 3.007-8.139 4.467-2.45 7.424-6.548 6.57-9.104-.853-2.557-8.015-7.62-12.905-6.195 0 0-3.294.959-7.882-3.627-4.588-4.588-3.629-7.882-3.629-7.882 1.425-4.892.646-9.871-1.731-11.066s-11.116.264-13.567 4.73c0 0-1.649 3.007-8.138 3.007-6.487 0-8.139-3.007-8.139-3.007-2.45-4.467-6.548-7.423-9.104-6.571-2.556.854-7.619 8.016-6.195 12.907 0 0 .961 3.294-3.628 7.882-4.587 4.587-7.881 3.627-7.881 3.627-4.891-1.425-9.871-.646-11.066 1.731-1.195 2.38.263 11.118 4.731 13.568 0 0 3.006 1.651 3.006 8.139s-3.006 8.138-3.006 8.138C2.251 58.589-.706 62.687.147 65.242c.853 2.557 8.016 7.619 12.907 6.194 0 0 3.294-.959 7.881 3.629 4.589 4.588 3.628 7.882 3.628 7.882-1.425 4.891-.646 9.871 1.731 11.066 2.379 1.195 11.117-.265 13.567-4.731 0 0 1.651-3.007 8.139-3.007s8.138 3.007 8.138 3.007c2.451 4.467 6.549 7.424 9.104 6.571 2.557-.854 7.619-8.016 6.194-12.906 0 0-.959-3.294 3.629-7.882s7.882-3.629 7.882-3.629c4.891 1.425 9.871.646 11.066-1.73 1.196-2.38-.264-11.117-4.731-13.568M48.001 75C33.09 75 21 62.912 21 48.001S33.09 21 48.001 21 75 33.09 75 48.001 62.912 75 48.001 75M48 33c-8.283 0-15 6.717-15 15s6.717 15 15 15 15-6.716 15-15-6.716-15-15-15" clip-rule="evenodd" style="animation:spinning-cog4422 1.3s infinite ease;transform-origin:50% 50%"/></svg>