<svg xmlns="http://www.w3.org/2000/svg" width="24" height="24" viewBox="0 0 24 24"><style>@keyframes spinner_cQNQ{0%,87.1%,to{opacity:0}16.13%,80.65%{opacity:1}}@keyframes spinner_sZau{0%,16.13%,87.1%,to{opacity:0}32.26%,80.65%{opacity:1}}@keyframes spinner_aBcq{0%,32.26%,87.1%,to{opacity:0}48.39%,80.65%{opacity:1}}.spinner_kpYo{animation:spinner_cQNQ 1.55s linear infinite}</style><path d="m12 21 3.6-4.8c-1-.75-2.25-1.2-3.6-1.2s-2.6.45-3.6 1.2z" class="spinner_kpYo" opacity="0"/><path d="M12 9c-2.7 0-5.19.89-7.2 2.4l1.8 2.4C8.1 12.67 9.97 12 12 12s3.9.67 5.4 1.8l1.8-2.4C17.19 9.89 14.7 9 12 9" class="spinner_kpYo" opacity="0" style="animation:spinner_sZau 1.55s linear infinite"/><path d="M12 3C7.95 3 4.21 4.34 1.2 6.6L3 9c2.5-1.88 5.62-3 9-3s6.5 1.12 9 3l1.8-2.4C19.79 4.34 16.05 3 12 3" class="spinner_kpYo" opacity="0" style="animation:spinner_aBcq 1.55s linear infinite"/></svg>