<svg xmlns="http://www.w3.org/2000/svg" xmlns:xlink="http://www.w3.org/1999/xlink" contentStyleType="text/css" data-diagram-type="ACTIVITY" height="1030px" preserveAspectRatio="none" style="width:770px;height:1030px;background:#FFFFFF;" version="1.1" viewBox="0 0 770 1030" width="770px" zoomAndPan="magnify"><defs/><g><ellipse cx="436.7964" cy="20" fill="#222222" rx="10" ry="10" style="stroke:#222222;stroke-width:1;"/><rect fill="#FFFFE0" height="143.7561" style="stroke:#000000;stroke-width:1.5;" width="592.7358" x="140.4285" y="40"/><path d="M228.4642,40 L228.4642,52.0679 L218.4642,62.0679 L140.4285,62.0679" fill="none" style="stroke:#000000;stroke-width:1.5;"/><text fill="#000000" font-family="sans-serif" font-size="14" lengthAdjust="spacing" textLength="78.0357" x="143.4285" y="55.9659">Preparation</text><rect fill="#F1F1F1" height="36.3441" rx="12.5" ry="12.5" style="stroke:#181818;stroke-width:0.5;" width="494.3393" x="189.6268" y="79.0679"/><text fill="#000000" font-family="sans-serif" font-size="12" lengthAdjust="spacing" textLength="474.3393" x="199.6268" y="101.896">Search project directories in the working directory, e.g., uid___A002_X123456_X7890`</text><rect fill="#F1F1F1" height="36.3441" rx="12.5" ry="12.5" style="stroke:#181818;stroke-width:0.5;" width="572.7358" x="150.4285" y="135.412"/><text fill="#000000" font-family="sans-serif" font-size="12" lengthAdjust="spacing" textLength="552.7358" x="160.4285" y="158.2401">Create directories for target images, e.g., working_dir/uid___A002_X123456_X7890/J1234+5678/fits</text><rect fill="#FFFFE0" height="785.2536" style="stroke:#000000;stroke-width:1.5;" width="748.2247" x="11" y="193.7561"/><path d="M99.3997,193.7561 L99.3997,205.8241 L89.3997,215.8241 L11,215.8241" fill="none" style="stroke:#000000;stroke-width:1.5;"/><text fill="#000000" font-family="sans-serif" font-size="14" lengthAdjust="spacing" textLength="78.3997" x="14" y="209.7221">Sort images</text><rect fill="#FFE4B5" height="167.6709" style="stroke:#000000;stroke-width:1.5;" width="524.6469" x="174.473" y="337.3419"/><path d="M374.6343,337.3419 L374.6343,349.4098 L364.6343,359.4098 L174.473,359.4098" fill="none" style="stroke:#000000;stroke-width:1.5;"/><text fill="#000000" font-family="sans-serif" font-size="14" lengthAdjust="spacing" textLength="190.1613" x="177.473" y="353.3078">Select target image directory</text><polygon fill="#F1F1F1" points="247.3381,379.4098,343.6534,379.4098,355.6534,391.4098,343.6534,403.4098,247.3381,403.4098,235.3381,391.4098,247.3381,379.4098" style="stroke:#181818;stroke-width:0.5;"/><text fill="#000000" font-family="sans-serif" font-size="11" lengthAdjust="spacing" textLength="17.0829" x="299.4957" y="415.1687">yes</text><text fill="#000000" font-family="sans-serif" font-size="11" lengthAdjust="spacing" textLength="96.3153" x="247.3381" y="395.6778">`selfcal_fits` exists?</text><rect fill="#F1F1F1" height="36.3441" rx="12.5" ry="12.5" style="stroke:#181818;stroke-width:0.5;" width="222.0455" x="184.473" y="436.6687"/><text fill="#000000" font-family="sans-serif" font-size="12" lengthAdjust="spacing" textLength="202.0455" x="194.473" y="459.4968">Images in `selfcal_fits` will be sorted</text><polygon fill="#F1F1F1" points="488.99,379.4098,576.6484,379.4098,588.6484,391.4098,576.6484,403.4098,488.99,403.4098,476.99,391.4098,488.99,379.4098" style="stroke:#181818;stroke-width:0.5;"/><text fill="#000000" font-family="sans-serif" font-size="11" lengthAdjust="spacing" textLength="17.0829" x="536.8192" y="415.1687">yes</text><text fill="#000000" font-family="sans-serif" font-size="11" lengthAdjust="spacing" textLength="87.6584" x="488.99" y="395.6778">`dirty_fits` exists?</text><text fill="#000000" font-family="sans-serif" font-size="11" lengthAdjust="spacing" textLength="13.4529" x="588.6484" y="388.1868">no</text><rect fill="#F1F1F1" height="36.3441" rx="12.5" ry="12.5" style="stroke:#181818;stroke-width:0.5;" width="212.6014" x="426.5185" y="436.6687"/><text fill="#000000" font-family="sans-serif" font-size="12" lengthAdjust="spacing" textLength="192.6014" x="436.5185" y="459.4968">Images in `dirty_fits` will be sorted</text><rect fill="#FFE4B5" height="385.9969" style="stroke:#000000;stroke-width:1.5;" width="668.2247" x="41" y="515.0128"/><path d="M235.2393,515.0128 L235.2393,527.0807 L225.2393,537.0807 L41,537.0807" fill="none" style="stroke:#000000;stroke-width:1.5;"/><text fill="#000000" font-family="sans-serif" font-size="14" lengthAdjust="spacing" textLength="184.2393" x="44" y="530.9788">Move/Copy/Remove images</text><rect fill="#F1F1F1" height="36.3441" rx="12.5" ry="12.5" style="stroke:#181818;stroke-width:0.5;" width="382.0667" x="245.7631" y="611.3397"/><text fill="#000000" font-family="sans-serif" font-size="12" lengthAdjust="spacing" textLength="362.0667" x="255.7631" y="634.1677">Extract target name from filename (part before first underscore)</text><polygon fill="#F1F1F1" points="382.3688,667.6838,491.2241,667.6838,503.2241,679.6838,491.2241,691.6838,382.3688,691.6838,370.3688,679.6838,382.3688,667.6838" style="stroke:#181818;stroke-width:0.5;"/><text fill="#000000" font-family="sans-serif" font-size="11" lengthAdjust="spacing" textLength="108.8553" x="382.3688" y="683.9517">This is target source?</text><text fill="#000000" font-family="sans-serif" font-size="11" lengthAdjust="spacing" textLength="17.0829" x="353.2859" y="676.4608">yes</text><text fill="#000000" font-family="sans-serif" font-size="11" lengthAdjust="spacing" textLength="13.4529" x="503.2241" y="676.4608">no</text><polygon fill="#F1F1F1" points="245.2411,701.6838,325.5735,701.6838,337.5735,713.6838,325.5735,725.6838,245.2411,725.6838,233.2411,713.6838,245.2411,701.6838" style="stroke:#181818;stroke-width:0.5;"/><text fill="#000000" font-family="sans-serif" font-size="11" lengthAdjust="spacing" textLength="80.3324" x="245.2411" y="717.9517">`keep_original`?</text><text fill="#000000" font-family="sans-serif" font-size="11" lengthAdjust="spacing" textLength="17.0829" x="216.1582" y="710.4608">yes</text><text fill="#000000" font-family="sans-serif" font-size="11" lengthAdjust="spacing" textLength="13.4529" x="337.5735" y="710.4608">no</text><rect fill="#F1F1F1" height="36.3441" rx="12.5" ry="12.5" style="stroke:#181818;stroke-width:0.5;" width="192.7413" x="82" y="735.6838"/><text fill="#000000" font-family="sans-serif" font-size="12" lengthAdjust="spacing" textLength="172.7413" x="92" y="758.5119">Copy image to target directory</text><rect fill="#F1F1F1" height="36.3441" rx="12.5" ry="12.5" style="stroke:#181818;stroke-width:0.5;" width="195.4053" x="294.7413" y="735.6838"/><text fill="#000000" font-family="sans-serif" font-size="12" lengthAdjust="spacing" textLength="175.4053" x="304.7413" y="758.5119">Move image to target directory</text><polygon fill="#F1F1F1" points="285.4073,778.0279,297.4073,790.0279,285.4073,802.0279,273.4073,790.0279,285.4073,778.0279" style="stroke:#181818;stroke-width:0.5;"/><rect fill="#F1F1F1" height="36.3441" rx="12.5" ry="12.5" style="stroke:#181818;stroke-width:0.5;" width="103.8926" x="536.2393" y="751.1747"/><text fill="#000000" font-family="sans-serif" font-size="12" lengthAdjust="spacing" textLength="83.8926" x="546.2393" y="774.0028">Remove image</text><polygon fill="#F1F1F1" points="532.1465,701.6838,644.2247,701.6838,656.2247,713.6838,644.2247,725.6838,532.1465,725.6838,520.1465,713.6838,532.1465,701.6838" style="stroke:#181818;stroke-width:0.5;"/><text fill="#000000" font-family="sans-serif" font-size="11" lengthAdjust="spacing" textLength="17.0829" x="592.1856" y="737.4427">yes</text><text fill="#000000" font-family="sans-serif" font-size="11" lengthAdjust="spacing" textLength="112.0782" x="532.1465" y="717.9517">`remove_non_target`?</text><text fill="#000000" font-family="sans-serif" font-size="11" lengthAdjust="spacing" textLength="13.4529" x="656.2247" y="710.4608">no</text><polygon fill="#F1F1F1" points="588.1856,813.0098,600.1856,825.0098,588.1856,837.0098,576.1856,825.0098,588.1856,813.0098" style="stroke:#181818;stroke-width:0.5;"/><polygon fill="#F1F1F1" points="436.7964,843.0098,448.7964,855.0098,436.7964,867.0098,424.7964,855.0098,436.7964,843.0098" style="stroke:#181818;stroke-width:0.5;"/><polygon fill="#F1F1F1" points="336.7741,554.0807,536.8187,554.0807,548.8187,566.0807,536.8187,578.0807,336.7741,578.0807,324.7741,566.0807,336.7741,554.0807" style="stroke:#181818;stroke-width:0.5;"/><text fill="#000000" font-family="sans-serif" font-size="11" lengthAdjust="spacing" textLength="17.0829" x="440.7964" y="589.8397">yes</text><text fill="#000000" font-family="sans-serif" font-size="11" lengthAdjust="spacing" textLength="200.0446" x="336.7741" y="570.3487">more images in the selected directory?</text><polygon fill="#F1F1F1" points="354.8525,290.083,518.7404,290.083,530.7404,302.083,518.7404,314.083,354.8525,314.083,342.8525,302.083,354.8525,290.083" style="stroke:#181818;stroke-width:0.5;"/><text fill="#000000" font-family="sans-serif" font-size="11" lengthAdjust="spacing" textLength="17.0829" x="440.7964" y="325.8419">yes</text><text fill="#000000" font-family="sans-serif" font-size="11" lengthAdjust="spacing" textLength="163.8878" x="354.8525" y="306.3509">`selfcal_fits` or `dirty_fits` exists?</text><text fill="#000000" font-family="sans-serif" font-size="11" lengthAdjust="spacing" textLength="13.4529" x="530.7404" y="298.86">no</text><polygon fill="#F1F1F1" points="436.7964,921.0098,448.7964,933.0098,436.7964,945.0098,424.7964,933.0098,436.7964,921.0098" style="stroke:#181818;stroke-width:0.5;"/><polygon fill="#F1F1F1" points="372.0234,232.8241,501.5695,232.8241,513.5695,244.8241,501.5695,256.8241,372.0234,256.8241,360.0234,244.8241,372.0234,232.8241" style="stroke:#181818;stroke-width:0.5;"/><text fill="#000000" font-family="sans-serif" font-size="11" lengthAdjust="spacing" textLength="17.0829" x="440.7964" y="268.583">yes</text><text fill="#000000" font-family="sans-serif" font-size="11" lengthAdjust="spacing" textLength="129.5461" x="372.0234" y="249.092">more project directories?</text><ellipse cx="436.7964" cy="1009.0098" fill="none" rx="10" ry="10" style="stroke:#222222;stroke-width:1.5;"/><line style="stroke:#222222;stroke-width:2.5;" x1="430.6093" x2="442.9836" y1="1002.8226" y2="1015.197"/><line style="stroke:#222222;stroke-width:2.5;" x1="442.9836" x2="430.6093" y1="1002.8226" y2="1015.197"/><line style="stroke:#181818;stroke-width:1;" x1="436.7964" x2="436.7964" y1="115.412" y2="135.412"/><polygon fill="#181818" points="432.7964,125.412,436.7964,135.412,440.7964,125.412,436.7964,129.412" style="stroke:#181818;stroke-width:1;"/><line style="stroke:#181818;stroke-width:1;" x1="436.7964" x2="436.7964" y1="30" y2="79.0679"/><polygon fill="#181818" points="432.7964,69.0679,436.7964,79.0679,440.7964,69.0679,436.7964,73.0679" style="stroke:#181818;stroke-width:1;"/><line style="stroke:#181818;stroke-width:1;" x1="295.4957" x2="295.4957" y1="403.4098" y2="436.6687"/><polygon fill="#181818" points="291.4957,426.6687,295.4957,436.6687,299.4957,426.6687,295.4957,430.6687" style="stroke:#181818;stroke-width:1;"/><line style="stroke:#181818;stroke-width:1;" x1="295.4957" x2="295.4957" y1="473.0128" y2="493.0128"/><polygon fill="#181818" points="291.4957,483.0128,295.4957,493.0128,299.4957,483.0128,295.4957,487.0128" style="stroke:#181818;stroke-width:1;"/><line style="stroke:#181818;stroke-width:1;" x1="532.8192" x2="532.8192" y1="403.4098" y2="436.6687"/><polygon fill="#181818" points="528.8192,426.6687,532.8192,436.6687,536.8192,426.6687,532.8192,430.6687" style="stroke:#181818;stroke-width:1;"/><line style="stroke:#181818;stroke-width:1;" x1="532.8192" x2="532.8192" y1="473.0128" y2="493.0128"/><polygon fill="#181818" points="528.8192,483.0128,532.8192,493.0128,536.8192,483.0128,532.8192,487.0128" style="stroke:#181818;stroke-width:1;"/><line style="stroke:#181818;stroke-width:1;" x1="355.6534" x2="476.99" y1="391.4098" y2="391.4098"/><polygon fill="#181818" points="466.99,387.4098,476.99,391.4098,466.99,395.4098,470.99,391.4098" style="stroke:#181818;stroke-width:1;"/><line style="stroke:#181818;stroke-width:1;" x1="436.7964" x2="436.7964" y1="314.083" y2="364.4098"/><line style="stroke:#181818;stroke-width:1;" x1="436.7964" x2="295.4957" y1="364.4098" y2="364.4098"/><line style="stroke:#181818;stroke-width:1;" x1="295.4957" x2="295.4957" y1="364.4098" y2="379.4098"/><polygon fill="#181818" points="291.4957,369.4098,295.4957,379.4098,299.4957,369.4098,295.4957,373.4098" style="stroke:#181818;stroke-width:1;"/><line style="stroke:#181818;stroke-width:1;" x1="588.6484" x2="674.1199" y1="391.4098" y2="391.4098"/><line style="stroke:#181818;stroke-width:1;" x1="674.1199" x2="674.1199" y1="391.4098" y2="493.0128"/><polygon fill="#181818" points="670.1199,483.0128,674.1199,493.0128,678.1199,483.0128,674.1199,487.0128" style="stroke:#181818;stroke-width:1;"/><line style="stroke:#181818;stroke-width:1;" x1="295.4957" x2="674.1199" y1="493.0128" y2="493.0128"/><line style="stroke:#181818;stroke-width:1;" x1="233.2411" x2="178.3706" y1="713.6838" y2="713.6838"/><line style="stroke:#181818;stroke-width:1;" x1="178.3706" x2="178.3706" y1="713.6838" y2="735.6838"/><polygon fill="#181818" points="174.3706,725.6838,178.3706,735.6838,182.3706,725.6838,178.3706,729.6838" style="stroke:#181818;stroke-width:1;"/><line style="stroke:#181818;stroke-width:1;" x1="337.5735" x2="392.4439" y1="713.6838" y2="713.6838"/><line style="stroke:#181818;stroke-width:1;" x1="392.4439" x2="392.4439" y1="713.6838" y2="735.6838"/><polygon fill="#181818" points="388.4439,725.6838,392.4439,735.6838,396.4439,725.6838,392.4439,729.6838" style="stroke:#181818;stroke-width:1;"/><line style="stroke:#181818;stroke-width:1;" x1="178.3706" x2="178.3706" y1="772.0279" y2="790.0279"/><line style="stroke:#181818;stroke-width:1;" x1="178.3706" x2="273.4073" y1="790.0279" y2="790.0279"/><polygon fill="#181818" points="263.4073,786.0279,273.4073,790.0279,263.4073,794.0279,267.4073,790.0279" style="stroke:#181818;stroke-width:1;"/><line style="stroke:#181818;stroke-width:1;" x1="392.4439" x2="392.4439" y1="772.0279" y2="790.0279"/><line style="stroke:#181818;stroke-width:1;" x1="392.4439" x2="297.4073" y1="790.0279" y2="790.0279"/><polygon fill="#181818" points="307.4073,786.0279,297.4073,790.0279,307.4073,794.0279,303.4073,790.0279" style="stroke:#181818;stroke-width:1;"/><line style="stroke:#181818;stroke-width:1;" x1="588.1856" x2="588.1856" y1="725.6838" y2="751.1747"/><polygon fill="#181818" points="584.1856,741.1747,588.1856,751.1747,592.1856,741.1747,588.1856,745.1747" style="stroke:#181818;stroke-width:1;"/><line style="stroke:#181818;stroke-width:1;" x1="656.2247" x2="668.2247" y1="713.6838" y2="713.6838"/><polygon fill="#181818" points="664.2247,759.3468,668.2247,769.3468,672.2247,759.3468,668.2247,763.3468" style="stroke:#181818;stroke-width:1;"/><line style="stroke:#181818;stroke-width:1;" x1="668.2247" x2="668.2247" y1="713.6838" y2="825.0098"/><line style="stroke:#181818;stroke-width:1;" x1="668.2247" x2="600.1856" y1="825.0098" y2="825.0098"/><polygon fill="#181818" points="610.1856,821.0098,600.1856,825.0098,610.1856,829.0098,606.1856,825.0098" style="stroke:#181818;stroke-width:1;"/><line style="stroke:#181818;stroke-width:1;" x1="588.1856" x2="588.1856" y1="787.5188" y2="813.0098"/><polygon fill="#181818" points="584.1856,803.0098,588.1856,813.0098,592.1856,803.0098,588.1856,807.0098" style="stroke:#181818;stroke-width:1;"/><line style="stroke:#181818;stroke-width:1;" x1="370.3688" x2="285.4073" y1="679.6838" y2="679.6838"/><line style="stroke:#181818;stroke-width:1;" x1="285.4073" x2="285.4073" y1="679.6838" y2="701.6838"/><polygon fill="#181818" points="281.4073,691.6838,285.4073,701.6838,289.4073,691.6838,285.4073,695.6838" style="stroke:#181818;stroke-width:1;"/><line style="stroke:#181818;stroke-width:1;" x1="503.2241" x2="588.1856" y1="679.6838" y2="679.6838"/><line style="stroke:#181818;stroke-width:1;" x1="588.1856" x2="588.1856" y1="679.6838" y2="701.6838"/><polygon fill="#181818" points="584.1856,691.6838,588.1856,701.6838,592.1856,691.6838,588.1856,695.6838" style="stroke:#181818;stroke-width:1;"/><line style="stroke:#181818;stroke-width:1;" x1="285.4073" x2="285.4073" y1="802.0279" y2="855.0098"/><line style="stroke:#181818;stroke-width:1;" x1="285.4073" x2="424.7964" y1="855.0098" y2="855.0098"/><polygon fill="#181818" points="414.7964,851.0098,424.7964,855.0098,414.7964,859.0098,418.7964,855.0098" style="stroke:#181818;stroke-width:1;"/><line style="stroke:#181818;stroke-width:1;" x1="588.1856" x2="588.1856" y1="837.0098" y2="855.0098"/><line style="stroke:#181818;stroke-width:1;" x1="588.1856" x2="448.7964" y1="855.0098" y2="855.0098"/><polygon fill="#181818" points="458.7964,851.0098,448.7964,855.0098,458.7964,859.0098,454.7964,855.0098" style="stroke:#181818;stroke-width:1;"/><line style="stroke:#181818;stroke-width:1;" x1="436.7964" x2="436.7964" y1="647.6838" y2="667.6838"/><polygon fill="#181818" points="432.7964,657.6838,436.7964,667.6838,440.7964,657.6838,436.7964,661.6838" style="stroke:#181818;stroke-width:1;"/><line style="stroke:#181818;stroke-width:1;" x1="436.7964" x2="436.7964" y1="578.0807" y2="611.3397"/><polygon fill="#181818" points="432.7964,601.3397,436.7964,611.3397,440.7964,601.3397,436.7964,605.3397" style="stroke:#181818;stroke-width:1;"/><line style="stroke:#181818;stroke-width:1;" x1="436.7964" x2="436.7964" y1="867.0098" y2="877.0098"/><line style="stroke:#181818;stroke-width:1;" x1="436.7964" x2="690.2247" y1="877.0098" y2="877.0098"/><polygon fill="#181818" points="686.2247,722.1838,690.2247,712.1838,694.2247,722.1838,690.2247,718.1838" style="stroke:#181818;stroke-width:1;"/><line style="stroke:#181818;stroke-width:1;" x1="690.2247" x2="690.2247" y1="566.0807" y2="877.0098"/><line style="stroke:#181818;stroke-width:1;" x1="690.2247" x2="548.8187" y1="566.0807" y2="566.0807"/><polygon fill="#181818" points="558.8187,562.0807,548.8187,566.0807,558.8187,570.0807,554.8187,566.0807" style="stroke:#181818;stroke-width:1;"/><line style="stroke:#181818;stroke-width:1;" x1="324.7741" x2="57" y1="566.0807" y2="566.0807"/><polygon fill="#181818" points="53,708.1838,57,718.1838,61,708.1838,57,712.1838" style="stroke:#181818;stroke-width:1;"/><line style="stroke:#181818;stroke-width:1;" x1="57" x2="57" y1="566.0807" y2="889.0098"/><line style="stroke:#181818;stroke-width:1;" x1="57" x2="436.7964" y1="889.0098" y2="889.0098"/><line style="stroke:#181818;stroke-width:1;" x1="436.7964" x2="436.7964" y1="889.0098" y2="921.0098"/><polygon fill="#181818" points="432.7964,911.0098,436.7964,921.0098,440.7964,911.0098,436.7964,915.0098" style="stroke:#181818;stroke-width:1;"/><line style="stroke:#181818;stroke-width:1;" x1="436.7964" x2="436.7964" y1="493.0128" y2="554.0807"/><polygon fill="#181818" points="432.7964,544.0807,436.7964,554.0807,440.7964,544.0807,436.7964,548.0807" style="stroke:#181818;stroke-width:1;"/><line style="stroke:#181818;stroke-width:1;" x1="530.7404" x2="719.2247" y1="302.083" y2="302.083"/><polygon fill="#181818" points="715.2247,568.6758,719.2247,578.6758,723.2247,568.6758,719.2247,572.6758" style="stroke:#181818;stroke-width:1;"/><line style="stroke:#181818;stroke-width:1;" x1="719.2247" x2="719.2247" y1="302.083" y2="933.0098"/><line style="stroke:#181818;stroke-width:1;" x1="719.2247" x2="448.7964" y1="933.0098" y2="933.0098"/><polygon fill="#181818" points="458.7964,929.0098,448.7964,933.0098,458.7964,937.0098,454.7964,933.0098" style="stroke:#181818;stroke-width:1;"/><line style="stroke:#181818;stroke-width:1;" x1="436.7964" x2="436.7964" y1="256.8241" y2="290.083"/><polygon fill="#181818" points="432.7964,280.083,436.7964,290.083,440.7964,280.083,436.7964,284.083" style="stroke:#181818;stroke-width:1;"/><line style="stroke:#181818;stroke-width:1;" x1="436.7964" x2="436.7964" y1="945.0098" y2="955.0098"/><line style="stroke:#181818;stroke-width:1;" x1="436.7964" x2="743.2247" y1="955.0098" y2="955.0098"/><polygon fill="#181818" points="739.2247,569.1849,743.2247,559.1849,747.2247,569.1849,743.2247,565.1849" style="stroke:#181818;stroke-width:1;"/><line style="stroke:#181818;stroke-width:1;" x1="743.2247" x2="743.2247" y1="244.8241" y2="955.0098"/><line style="stroke:#181818;stroke-width:1;" x1="743.2247" x2="513.5695" y1="244.8241" y2="244.8241"/><polygon fill="#181818" points="523.5695,240.8241,513.5695,244.8241,523.5695,248.8241,519.5695,244.8241" style="stroke:#181818;stroke-width:1;"/><line style="stroke:#181818;stroke-width:1;" x1="360.0234" x2="27" y1="244.8241" y2="244.8241"/><polygon fill="#181818" points="23,555.1849,27,565.1849,31,555.1849,27,559.1849" style="stroke:#181818;stroke-width:1;"/><line style="stroke:#181818;stroke-width:1;" x1="27" x2="27" y1="244.8241" y2="967.0098"/><line style="stroke:#181818;stroke-width:1;" x1="27" x2="436.7964" y1="967.0098" y2="967.0098"/><line style="stroke:#181818;stroke-width:1;" x1="436.7964" x2="436.7964" y1="967.0098" y2="999.0098"/><polygon fill="#181818" points="432.7964,989.0098,436.7964,999.0098,440.7964,989.0098,436.7964,993.0098" style="stroke:#181818;stroke-width:1;"/><line style="stroke:#181818;stroke-width:1;" x1="436.7964" x2="436.7964" y1="171.7561" y2="232.8241"/><polygon fill="#181818" points="432.7964,222.8241,436.7964,232.8241,440.7964,222.8241,436.7964,226.8241" style="stroke:#181818;stroke-width:1;"/><!--SRC=[fLLTRzf047pdLwpe0w16WQRDHyD3LAMLsYfKKKYbzCbSxRNPSjnPTqS8YlBVksV06B03j2U4EPztPdTsrbWdZAlLKlucHrf1_TOWxuJVrE7D3IL3zmkbr5DuhW6lopuA4muXDVeFXWuYCdpHXj02AN13XAas8r99VZGx0ZnEZezWGb4G19ywdPFWuTt9-m-dPy73-SN7pg0xXxusA1okGSRQ0EUOe0CQYmJj4cj14l33xIhSzdU_UtjwTdxHZidPRksbM6fVcoLgQQdJ8Kc4vbWRB2ltgWLaeJb3syeUzujYQ0uioZWKCl2K0-021XpbPeizFf5rFfYbKXlXVXKJHEavY_MlHEMKUpeCXMNLdzSGAXBPHRnSbzyoINmtDn2c92NyHh0i74RThMYK5ZFYG-ejeot6xqCAJQNBKHlG7r7AtDogpHxEAYA-iWESviHJWzP2FTJAaPfWtUTsAuLoFtitLzk9g8ZYjRilLOtjwKTiN-jqrhx3CVzUkV2LbXRjIBbMVk1ivXECLfMLUNDDx2zFpeYLjvGO8yH6Zo5cacpNzFcoyB7dYybO1nCLeR4XtsXrIs5zy- -zrFnP85izCI7kRdzksX5Y6l209QI47EmNE7zxi9wB8U7kBUXpHRgLmQyRA8VlvNqw47xB5liJPuAOp2A1qYgOinuYIj5V_oj10pvhK9fdIIN_Kcxf2T_DZ5qnEEMPDU27Niu0DyDcBtArQyfN2PII-iL_43K-_0i0]--></g></svg>