<svg xmlns="http://www.w3.org/2000/svg" xmlns:xlink="http://www.w3.org/1999/xlink" contentStyleType="text/css" data-diagram-type="ACTIVITY" height="1040px" preserveAspectRatio="none" style="width:649px;height:1040px;background:#FFFFFF;" version="1.1" viewBox="0 0 649 1040" width="649px" zoomAndPan="magnify"><defs/><g><ellipse cx="324.8877" cy="20" fill="#222222" rx="10" ry="10" style="stroke:#222222;stroke-width:1;"/><rect fill="#FFFFE0" height="256.4444" style="stroke:#000000;stroke-width:1.5;" width="219.3773" x="215.199" y="40"/><path d="M298.2367,40 L298.2367,52.0679 L288.2367,62.0679 L215.199,62.0679" fill="none" style="stroke:#000000;stroke-width:1.5;"/><text fill="#000000" font-family="sans-serif" font-size="14" lengthAdjust="spacing" textLength="73.0377" x="218.199" y="55.9659">Preprocess</text><rect fill="#F1F1F1" height="36.3441" rx="12.5" ry="12.5" style="stroke:#181818;stroke-width:0.5;" width="113.4687" x="268.1533" y="79.0679"/><text fill="#000000" font-family="sans-serif" font-size="12" lengthAdjust="spacing" textLength="93.4687" x="278.1533" y="101.896">Initialize logging</text><rect fill="#F1F1F1" height="36.3441" rx="12.5" ry="12.5" style="stroke:#181818;stroke-width:0.5;" width="199.3773" x="225.199" y="135.412"/><text fill="#000000" font-family="sans-serif" font-size="12" lengthAdjust="spacing" textLength="179.3773" x="235.199" y="158.2401">Change directory to working dir</text><rect fill="#F1F1F1" height="36.3441" rx="12.5" ry="12.5" style="stroke:#181818;stroke-width:0.5;" width="198.4053" x="225.685" y="191.7561"/><text fill="#000000" font-family="sans-serif" font-size="12" lengthAdjust="spacing" textLength="178.4053" x="235.685" y="214.5842">Remove all *.asdm.sdm.tar files</text><rect fill="#F1F1F1" height="36.3441" rx="12.5" ry="12.5" style="stroke:#181818;stroke-width:0.5;" width="152.841" x="248.4672" y="248.1003"/><text fill="#000000" font-family="sans-serif" font-size="12" lengthAdjust="spacing" textLength="132.841" x="258.4672" y="270.9283">Report process settings</text><rect fill="#FFFFE0" height="321.3592" style="stroke:#000000;stroke-width:1.5;" width="447.6666" x="97.2083" y="306.4444"/><path d="M180.6241,306.4444 L180.6241,318.5123 L170.6241,328.5123 L97.2083,328.5123" fill="none" style="stroke:#000000;stroke-width:1.5;"/><text fill="#000000" font-family="sans-serif" font-size="14" lengthAdjust="spacing" textLength="73.4157" x="100.2083" y="322.4103">Query data</text><rect fill="#F1F1F1" height="36.3441" rx="12.5" ry="12.5" style="stroke:#181818;stroke-width:0.5;" width="257.6257" x="196.0748" y="345.5123"/><text fill="#000000" font-family="sans-serif" font-size="12" lengthAdjust="spacing" textLength="237.6257" x="206.0748" y="368.3404">query = Query(source, band, cycle).query()</text><polygon fill="#F1F1F1" points="286.4264,401.8564,363.3489,401.8564,375.3489,413.8564,363.3489,425.8564,286.4264,425.8564,274.4264,413.8564,286.4264,401.8564" style="stroke:#181818;stroke-width:0.5;"/><text fill="#000000" font-family="sans-serif" font-size="11" lengthAdjust="spacing" textLength="17.0829" x="328.8877" y="437.6153">yes</text><text fill="#000000" font-family="sans-serif" font-size="11" lengthAdjust="spacing" textLength="76.9225" x="286.4264" y="418.1244">query success?</text><text fill="#000000" font-family="sans-serif" font-size="11" lengthAdjust="spacing" textLength="13.4529" x="375.3489" y="410.6334">no</text><ellipse cx="410.8018" cy="413.8564" fill="none" rx="11" ry="11" style="stroke:#222222;stroke-width:1;"/><ellipse cx="410.8018" cy="413.8564" fill="#222222" rx="6" ry="6" style="stroke:#222222;stroke-width:1;"/><polygon fill="#F1F1F1" points="260.9066,459.1153,388.8687,459.1153,400.8687,471.1153,388.8687,483.1153,260.9066,483.1153,248.9066,471.1153,260.9066,459.1153" style="stroke:#181818;stroke-width:0.5;"/><text fill="#000000" font-family="sans-serif" font-size="11" lengthAdjust="spacing" textLength="127.9621" x="260.9066" y="475.3833">skip_previous_successful</text><text fill="#000000" font-family="sans-serif" font-size="11" lengthAdjust="spacing" textLength="17.0829" x="231.8238" y="467.8923">yes</text><text fill="#000000" font-family="sans-serif" font-size="11" lengthAdjust="spacing" textLength="13.4529" x="400.8687" y="467.8923">no</text><rect fill="#F1F1F1" height="36.3441" rx="12.5" ry="12.5" style="stroke:#181818;stroke-width:0.5;" width="147.3329" x="144.3046" y="493.1153"/><text fill="#000000" font-family="sans-serif" font-size="12" lengthAdjust="spacing" textLength="127.3329" x="154.3046" y="515.9434">load successful_asdms</text><rect fill="#F1F1F1" height="36.3441" rx="12.5" ry="12.5" style="stroke:#181818;stroke-width:0.5;" width="201.5253" x="117.2083" y="549.4594"/><text fill="#000000" font-family="sans-serif" font-size="12" lengthAdjust="spacing" textLength="181.5253" x="127.2083" y="572.2875">filter to process only new asdms</text><rect fill="#F1F1F1" height="36.3441" rx="12.5" ry="12.5" style="stroke:#181818;stroke-width:0.5;" width="186.1412" x="338.7337" y="493.1153"/><text fill="#000000" font-family="sans-serif" font-size="12" lengthAdjust="spacing" textLength="166.1412" x="348.7337" y="515.9434">remove successful_asdms file</text><polygon fill="#F1F1F1" points="324.8877,591.8035,336.8877,603.8035,324.8877,615.8035,312.8877,603.8035,324.8877,591.8035" style="stroke:#181818;stroke-width:0.5;"/><rect fill="#FFFFE0" height="139.412" style="stroke:#000000;stroke-width:1.5;" width="627.7753" x="11" y="637.8035"/><path d="M221.0732,637.8035 L221.0732,649.8715 L211.0732,659.8715 L11,659.8715" fill="none" style="stroke:#000000;stroke-width:1.5;"/><text fill="#000000" font-family="sans-serif" font-size="14" lengthAdjust="spacing" textLength="200.0732" x="14" y="653.7695">Download and process ASDMs</text><rect fill="#555555" height="6" rx="2.5" ry="2.5" style="stroke:#555555;stroke-width:1;" width="607.7753" x="21" y="676.8715"/><rect fill="#F1F1F1" height="36.3441" rx="12.5" ry="12.5" style="stroke:#181818;stroke-width:0.5;" width="175.1731" x="33" y="702.8715"/><text fill="#000000" font-family="sans-serif" font-size="12" lengthAdjust="spacing" textLength="155.1731" x="43" y="725.6996">_process_wrapper(ASDM_1)</text><rect fill="#F1F1F1" height="36.3441" rx="12.5" ry="12.5" style="stroke:#181818;stroke-width:0.5;" width="175.1731" x="236.1731" y="702.8715"/><text fill="#000000" font-family="sans-serif" font-size="12" lengthAdjust="spacing" textLength="155.1731" x="246.1731" y="725.6996">_process_wrapper(ASDM_2)</text><rect fill="#F1F1F1" height="36.3441" rx="12.5" ry="12.5" style="stroke:#181818;stroke-width:0.5;" width="177.4291" x="439.3462" y="702.8715"/><text fill="#000000" font-family="sans-serif" font-size="12" lengthAdjust="spacing" textLength="157.4291" x="449.3462" y="725.6996">_process_wrapper(ASDM_N)</text><rect fill="#555555" height="6" rx="2.5" ry="2.5" style="stroke:#555555;stroke-width:1;" width="607.7753" x="21" y="759.2156"/><rect fill="#FFFFE0" height="200.1003" style="stroke:#000000;stroke-width:1.5;" width="213.4852" x="218.145" y="787.2156"/><path d="M307.7348,787.2156 L307.7348,799.2835 L297.7348,809.2835 L218.145,809.2835" fill="none" style="stroke:#000000;stroke-width:1.5;"/><text fill="#000000" font-family="sans-serif" font-size="14" lengthAdjust="spacing" textLength="79.5897" x="221.145" y="803.1815">Postprocess</text><rect fill="#F1F1F1" height="36.3441" rx="12.5" ry="12.5" style="stroke:#181818;stroke-width:0.5;" width="193.4852" x="228.145" y="826.2835"/><text fill="#000000" font-family="sans-serif" font-size="12" lengthAdjust="spacing" textLength="173.4852" x="238.145" y="849.1116">Sort images with sort_images()</text><rect fill="#F1F1F1" height="36.3441" rx="12.5" ry="12.5" style="stroke:#181818;stroke-width:0.5;" width="124.8208" x="262.4773" y="882.6276"/><text fill="#000000" font-family="sans-serif" font-size="12" lengthAdjust="spacing" textLength="104.8208" x="272.4773" y="905.4557">Summarize results</text><rect fill="#F1F1F1" height="36.3441" rx="12.5" ry="12.5" style="stroke:#181818;stroke-width:0.5;" width="143.2409" x="253.2672" y="938.9717"/><text fill="#000000" font-family="sans-serif" font-size="12" lengthAdjust="spacing" textLength="123.2409" x="263.2672" y="961.7998">Preprocess of logging</text><ellipse cx="324.8877" cy="1018.3158" fill="none" rx="11" ry="11" style="stroke:#222222;stroke-width:1;"/><ellipse cx="324.8877" cy="1018.3158" fill="#222222" rx="6" ry="6" style="stroke:#222222;stroke-width:1;"/><line style="stroke:#181818;stroke-width:1;" x1="324.8877" x2="324.8877" y1="115.412" y2="135.412"/><polygon fill="#181818" points="320.8877,125.412,324.8877,135.412,328.8877,125.412,324.8877,129.412" style="stroke:#181818;stroke-width:1;"/><line style="stroke:#181818;stroke-width:1;" x1="324.8877" x2="324.8877" y1="171.7561" y2="191.7561"/><polygon fill="#181818" points="320.8877,181.7561,324.8877,191.7561,328.8877,181.7561,324.8877,185.7561" style="stroke:#181818;stroke-width:1;"/><line style="stroke:#181818;stroke-width:1;" x1="324.8877" x2="324.8877" y1="228.1003" y2="248.1003"/><polygon fill="#181818" points="320.8877,238.1003,324.8877,248.1003,328.8877,238.1003,324.8877,242.1003" style="stroke:#181818;stroke-width:1;"/><line style="stroke:#181818;stroke-width:1;" x1="324.8877" x2="324.8877" y1="30" y2="79.0679"/><polygon fill="#181818" points="320.8877,69.0679,324.8877,79.0679,328.8877,69.0679,324.8877,73.0679" style="stroke:#181818;stroke-width:1;"/><line style="stroke:#181818;stroke-width:1;" x1="324.8877" x2="324.8877" y1="425.8564" y2="459.1153"/><polygon fill="#181818" points="320.8877,449.1153,324.8877,459.1153,328.8877,449.1153,324.8877,453.1153" style="stroke:#181818;stroke-width:1;"/><line style="stroke:#181818;stroke-width:1;" x1="375.3489" x2="399.8018" y1="413.8564" y2="413.8564"/><polygon fill="#181818" points="389.8018,409.8564,399.8018,413.8564,389.8018,417.8564,393.8018,413.8564" style="stroke:#181818;stroke-width:1;"/><line style="stroke:#181818;stroke-width:1;" x1="324.8877" x2="324.8877" y1="381.8564" y2="401.8564"/><polygon fill="#181818" points="320.8877,391.8564,324.8877,401.8564,328.8877,391.8564,324.8877,395.8564" style="stroke:#181818;stroke-width:1;"/><line style="stroke:#181818;stroke-width:1;" x1="217.971" x2="217.971" y1="529.4594" y2="549.4594"/><polygon fill="#181818" points="213.971,539.4594,217.971,549.4594,221.971,539.4594,217.971,543.4594" style="stroke:#181818;stroke-width:1;"/><line style="stroke:#181818;stroke-width:1;" x1="248.9066" x2="217.971" y1="471.1153" y2="471.1153"/><line style="stroke:#181818;stroke-width:1;" x1="217.971" x2="217.971" y1="471.1153" y2="493.1153"/><polygon fill="#181818" points="213.971,483.1153,217.971,493.1153,221.971,483.1153,217.971,487.1153" style="stroke:#181818;stroke-width:1;"/><line style="stroke:#181818;stroke-width:1;" x1="400.8687" x2="431.8043" y1="471.1153" y2="471.1153"/><line style="stroke:#181818;stroke-width:1;" x1="431.8043" x2="431.8043" y1="471.1153" y2="493.1153"/><polygon fill="#181818" points="427.8043,483.1153,431.8043,493.1153,435.8043,483.1153,431.8043,487.1153" style="stroke:#181818;stroke-width:1;"/><line style="stroke:#181818;stroke-width:1;" x1="217.971" x2="217.971" y1="585.8035" y2="603.8035"/><line style="stroke:#181818;stroke-width:1;" x1="217.971" x2="312.8877" y1="603.8035" y2="603.8035"/><polygon fill="#181818" points="302.8877,599.8035,312.8877,603.8035,302.8877,607.8035,306.8877,603.8035" style="stroke:#181818;stroke-width:1;"/><line style="stroke:#181818;stroke-width:1;" x1="431.8043" x2="431.8043" y1="529.4594" y2="603.8035"/><line style="stroke:#181818;stroke-width:1;" x1="431.8043" x2="336.8877" y1="603.8035" y2="603.8035"/><polygon fill="#181818" points="346.8877,599.8035,336.8877,603.8035,346.8877,607.8035,342.8877,603.8035" style="stroke:#181818;stroke-width:1;"/><line style="stroke:#181818;stroke-width:1;" x1="324.8877" x2="324.8877" y1="284.4444" y2="345.5123"/><polygon fill="#181818" points="320.8877,335.5123,324.8877,345.5123,328.8877,335.5123,324.8877,339.5123" style="stroke:#181818;stroke-width:1;"/><line style="stroke:#181818;stroke-width:1;" x1="120.5865" x2="120.5865" y1="682.8715" y2="702.8715"/><polygon fill="#181818" points="116.5865,692.8715,120.5865,702.8715,124.5865,692.8715,120.5865,696.8715" style="stroke:#181818;stroke-width:1;"/><line style="stroke:#181818;stroke-width:1;" x1="323.7596" x2="323.7596" y1="682.8715" y2="702.8715"/><polygon fill="#181818" points="319.7596,692.8715,323.7596,702.8715,327.7596,692.8715,323.7596,696.8715" style="stroke:#181818;stroke-width:1;"/><line style="stroke:#181818;stroke-width:1;" x1="528.0608" x2="528.0608" y1="682.8715" y2="702.8715"/><polygon fill="#181818" points="524.0608,692.8715,528.0608,702.8715,532.0608,692.8715,528.0608,696.8715" style="stroke:#181818;stroke-width:1;"/><line style="stroke:#181818;stroke-width:1;" x1="120.5865" x2="120.5865" y1="739.2156" y2="759.2156"/><polygon fill="#181818" points="116.5865,749.2156,120.5865,759.2156,124.5865,749.2156,120.5865,753.2156" style="stroke:#181818;stroke-width:1;"/><line style="stroke:#181818;stroke-width:1;" x1="323.7596" x2="323.7596" y1="739.2156" y2="759.2156"/><polygon fill="#181818" points="319.7596,749.2156,323.7596,759.2156,327.7596,749.2156,323.7596,753.2156" style="stroke:#181818;stroke-width:1;"/><line style="stroke:#181818;stroke-width:1;" x1="528.0608" x2="528.0608" y1="739.2156" y2="759.2156"/><polygon fill="#181818" points="524.0608,749.2156,528.0608,759.2156,532.0608,749.2156,528.0608,753.2156" style="stroke:#181818;stroke-width:1;"/><line style="stroke:#181818;stroke-width:1;" x1="324.8877" x2="324.8877" y1="615.8035" y2="676.8715"/><polygon fill="#181818" points="320.8877,666.8715,324.8877,676.8715,328.8877,666.8715,324.8877,670.8715" style="stroke:#181818;stroke-width:1;"/><line style="stroke:#181818;stroke-width:1;" x1="324.8877" x2="324.8877" y1="862.6276" y2="882.6276"/><polygon fill="#181818" points="320.8877,872.6276,324.8877,882.6276,328.8877,872.6276,324.8877,876.6276" style="stroke:#181818;stroke-width:1;"/><line style="stroke:#181818;stroke-width:1;" x1="324.8877" x2="324.8877" y1="918.9717" y2="938.9717"/><polygon fill="#181818" points="320.8877,928.9717,324.8877,938.9717,328.8877,928.9717,324.8877,932.9717" style="stroke:#181818;stroke-width:1;"/><line style="stroke:#181818;stroke-width:1;" x1="324.8877" x2="324.8877" y1="765.2156" y2="826.2835"/><polygon fill="#181818" points="320.8877,816.2835,324.8877,826.2835,328.8877,816.2835,324.8877,820.2835" style="stroke:#181818;stroke-width:1;"/><line style="stroke:#181818;stroke-width:1;" x1="324.8877" x2="324.8877" y1="975.3158" y2="1007.3158"/><polygon fill="#181818" points="320.8877,997.3158,324.8877,1007.3158,328.8877,997.3158,324.8877,1001.3158" style="stroke:#181818;stroke-width:1;"/><!--SRC=[bLDHIyCm47xlhpZcIojZe8yR8k9U19NfddmgiRrsOMckvjALAlll9cstRcue1XhetNTtNxvyOIkC3OBIxT9AqZ1Q62mD9SWyWej7cQ_i6of5DNm5uDRqGJkWKF8JGL6UIvtFkiJzIkWS8PK64qkc0KjGaraxX0_sg5SiQ8CWb8BBYU2qcFZFiO1CAkGzgYHZeIS2ZDQwDYwxFQJwKg4RamehpbFzQFCtqE92fieaE8PteTCn94sYC9gqa33gnieCmgw6gyGFlet0hb13s217BGGL8uIQkZ-_s5BPfNGgis3VYDUoZ4k36qaLntt3h58dBLkgYaGA0oZsolHYj7adZaNZ9TrfGbereB660-WfkwdfzFxPkbLxTi3xIDWvrRfbvAJQ3xnRpf_EUo9pjpnCZFk2k3QYBD64lZ2-wZNsM12vaFglYkj_Lpn7-nDrd8uEjI2slpfxwIqd2v4ZGotj2jW5uYwmiyXqMHM5CDxz1hbITkVOuTa0PSFBs0Q1DyWt]--></g></svg>