<svg xmlns="http://www.w3.org/2000/svg" xmlns:xlink="http://www.w3.org/1999/xlink" contentStyleType="text/css" data-diagram-type="ACTIVITY" height="883px" preserveAspectRatio="none" style="width:231px;height:883px;background:#FFFFFF;" version="1.1" viewBox="0 0 231 883" width="231px" zoomAndPan="magnify"><defs/><g><ellipse cx="112.0726" cy="20" fill="#222222" rx="10" ry="10" style="stroke:#222222;stroke-width:1;"/><rect fill="#FFFFE0" height="313.5912" style="stroke:#000000;stroke-width:1.5;" width="205.717" x="15.2141" y="40"/><path d="M135.2957,40 L135.2957,52.0679 L125.2957,62.0679 L15.2141,62.0679" fill="none" style="stroke:#000000;stroke-width:1.5;"/><text fill="#000000" font-family="sans-serif" font-size="14" lengthAdjust="spacing" textLength="110.0816" x="18.2141" y="55.9659">Download ASDM</text><rect fill="#F1F1F1" height="36.3441" rx="12.5" ry="12.5" style="stroke:#181818;stroke-width:0.5;" width="160.953" x="31.5961" y="79.0679"/><text fill="#000000" font-family="sans-serif" font-size="12" lengthAdjust="spacing" textLength="140.953" x="41.5961" y="101.896">filename = download(url)</text><rect fill="#F1F1F1" height="36.3441" rx="12.5" ry="12.5" style="stroke:#181818;stroke-width:0.5;" width="97.4726" x="63.3363" y="184.903"/><text fill="#000000" font-family="sans-serif" font-size="12" lengthAdjust="spacing" textLength="77.4726" x="73.3363" y="207.7311">Report failure</text><rect fill="#F1F1F1" height="36.3441" rx="12.5" ry="12.5" style="stroke:#181818;stroke-width:0.5;" width="153.717" x="35.2141" y="241.2471"/><text fill="#000000" font-family="sans-serif" font-size="12" lengthAdjust="spacing" textLength="133.717" x="45.2141" y="264.0752">Remove files if required</text><ellipse cx="112.0726" cy="308.5912" fill="none" rx="11" ry="11" style="stroke:#222222;stroke-width:1;"/><ellipse cx="112.0726" cy="308.5912" fill="#222222" rx="6" ry="6" style="stroke:#222222;stroke-width:1;"/><polygon fill="#F1F1F1" points="76.3448,135.412,147.8004,135.412,159.8004,147.412,147.8004,159.412,76.3448,159.412,64.3448,147.412,76.3448,135.412" style="stroke:#181818;stroke-width:0.5;"/><text fill="#000000" font-family="sans-serif" font-size="11" lengthAdjust="spacing" textLength="13.4529" x="116.0726" y="171.1709">no</text><text fill="#000000" font-family="sans-serif" font-size="11" lengthAdjust="spacing" textLength="71.4555" x="76.3448" y="151.68">download ok?</text><text fill="#000000" font-family="sans-serif" font-size="11" lengthAdjust="spacing" textLength="17.0829" x="159.8004" y="144.1891">yes</text><rect fill="#FFFFE0" height="313.5912" style="stroke:#000000;stroke-width:1.5;" width="205.717" x="15.2141" y="363.5912"/><path d="M119.1538,363.5912 L119.1538,375.6591 L109.1538,385.6591 L15.2141,385.6591" fill="none" style="stroke:#000000;stroke-width:1.5;"/><text fill="#000000" font-family="sans-serif" font-size="14" lengthAdjust="spacing" textLength="93.9397" x="18.2141" y="379.5571">Process ASDM</text><rect fill="#F1F1F1" height="36.3441" rx="12.5" ry="12.5" style="stroke:#181818;stroke-width:0.5;" width="125.3728" x="49.3862" y="402.6591"/><text fill="#000000" font-family="sans-serif" font-size="12" lengthAdjust="spacing" textLength="105.3728" x="59.3862" y="425.4872">_process(filename)</text><rect fill="#F1F1F1" height="36.3441" rx="12.5" ry="12.5" style="stroke:#181818;stroke-width:0.5;" width="97.4726" x="63.3363" y="508.4942"/><text fill="#000000" font-family="sans-serif" font-size="12" lengthAdjust="spacing" textLength="77.4726" x="73.3363" y="531.3223">Report failure</text><rect fill="#F1F1F1" height="36.3441" rx="12.5" ry="12.5" style="stroke:#181818;stroke-width:0.5;" width="153.717" x="35.2141" y="564.8383"/><text fill="#000000" font-family="sans-serif" font-size="12" lengthAdjust="spacing" textLength="133.717" x="45.2141" y="587.6664">Remove files if required</text><ellipse cx="112.0726" cy="632.1824" fill="none" rx="11" ry="11" style="stroke:#222222;stroke-width:1;"/><ellipse cx="112.0726" cy="632.1824" fill="#222222" rx="6" ry="6" style="stroke:#222222;stroke-width:1;"/><polygon fill="#F1F1F1" points="81.9988,459.0032,142.1464,459.0032,154.1464,471.0032,142.1464,483.0032,81.9988,483.0032,69.9988,471.0032,81.9988,459.0032" style="stroke:#181818;stroke-width:0.5;"/><text fill="#000000" font-family="sans-serif" font-size="11" lengthAdjust="spacing" textLength="13.4529" x="116.0726" y="494.7621">no</text><text fill="#000000" font-family="sans-serif" font-size="11" lengthAdjust="spacing" textLength="60.1476" x="81.9988" y="475.2712">process ok?</text><text fill="#000000" font-family="sans-serif" font-size="11" lengthAdjust="spacing" textLength="17.0829" x="154.1464" y="467.7803">yes</text><rect fill="#FFFFE0" height="143.7561" style="stroke:#000000;stroke-width:1.5;" width="202.1452" x="11" y="687.1824"/><path d="M65.5198,687.1824 L65.5198,699.2503 L55.5198,709.2503 L11,709.2503" fill="none" style="stroke:#000000;stroke-width:1.5;"/><text fill="#000000" font-family="sans-serif" font-size="14" lengthAdjust="spacing" textLength="44.5198" x="14" y="703.1483">Report</text><rect fill="#F1F1F1" height="36.3441" rx="12.5" ry="12.5" style="stroke:#181818;stroke-width:0.5;" width="104.2286" x="59.9583" y="726.2503"/><text fill="#000000" font-family="sans-serif" font-size="12" lengthAdjust="spacing" textLength="84.2286" x="69.9583" y="749.0784">Report success</text><rect fill="#F1F1F1" height="36.3441" rx="12.5" ry="12.5" style="stroke:#181818;stroke-width:0.5;" width="182.1452" x="21" y="782.5944"/><text fill="#000000" font-family="sans-serif" font-size="12" lengthAdjust="spacing" textLength="162.1452" x="31" y="805.4225">Write to successful ASDM list</text><ellipse cx="112.0726" cy="861.9386" fill="none" rx="11" ry="11" style="stroke:#222222;stroke-width:1;"/><ellipse cx="112.0726" cy="861.9386" fill="#222222" rx="6" ry="6" style="stroke:#222222;stroke-width:1;"/><line style="stroke:#181818;stroke-width:1;" x1="112.0726" x2="112.0726" y1="221.2471" y2="241.2471"/><polygon fill="#181818" points="108.0726,231.2471,112.0726,241.2471,116.0726,231.2471,112.0726,235.2471" style="stroke:#181818;stroke-width:1;"/><line style="stroke:#181818;stroke-width:1;" x1="112.0726" x2="112.0726" y1="277.5912" y2="297.5912"/><polygon fill="#181818" points="108.0726,287.5912,112.0726,297.5912,116.0726,287.5912,112.0726,291.5912" style="stroke:#181818;stroke-width:1;"/><line style="stroke:#181818;stroke-width:1;" x1="112.0726" x2="112.0726" y1="159.412" y2="184.903"/><polygon fill="#181818" points="108.0726,174.903,112.0726,184.903,116.0726,174.903,112.0726,178.903" style="stroke:#181818;stroke-width:1;"/><line style="stroke:#181818;stroke-width:1;" x1="159.8004" x2="198.9311" y1="147.412" y2="147.412"/><polygon fill="#181818" points="194.9311,239.2471,198.9311,249.2471,202.9311,239.2471,198.9311,243.2471" style="stroke:#181818;stroke-width:1;"/><line style="stroke:#181818;stroke-width:1;" x1="198.9311" x2="198.9311" y1="147.412" y2="341.5912"/><line style="stroke:#181818;stroke-width:1;" x1="198.9311" x2="112.0726" y1="341.5912" y2="341.5912"/><line style="stroke:#181818;stroke-width:1;" x1="112.0726" x2="112.0726" y1="341.5912" y2="402.6591"/><polygon fill="#181818" points="108.0726,392.6591,112.0726,402.6591,116.0726,392.6591,112.0726,396.6591" style="stroke:#181818;stroke-width:1;"/><line style="stroke:#181818;stroke-width:1;" x1="112.0726" x2="112.0726" y1="115.412" y2="135.412"/><polygon fill="#181818" points="108.0726,125.412,112.0726,135.412,116.0726,125.412,112.0726,129.412" style="stroke:#181818;stroke-width:1;"/><line style="stroke:#181818;stroke-width:1;" x1="112.0726" x2="112.0726" y1="30" y2="79.0679"/><polygon fill="#181818" points="108.0726,69.0679,112.0726,79.0679,116.0726,69.0679,112.0726,73.0679" style="stroke:#181818;stroke-width:1;"/><line style="stroke:#181818;stroke-width:1;" x1="112.0726" x2="112.0726" y1="544.8383" y2="564.8383"/><polygon fill="#181818" points="108.0726,554.8383,112.0726,564.8383,116.0726,554.8383,112.0726,558.8383" style="stroke:#181818;stroke-width:1;"/><line style="stroke:#181818;stroke-width:1;" x1="112.0726" x2="112.0726" y1="601.1824" y2="621.1824"/><polygon fill="#181818" points="108.0726,611.1824,112.0726,621.1824,116.0726,611.1824,112.0726,615.1824" style="stroke:#181818;stroke-width:1;"/><line style="stroke:#181818;stroke-width:1;" x1="112.0726" x2="112.0726" y1="483.0032" y2="508.4942"/><polygon fill="#181818" points="108.0726,498.4942,112.0726,508.4942,116.0726,498.4942,112.0726,502.4942" style="stroke:#181818;stroke-width:1;"/><line style="stroke:#181818;stroke-width:1;" x1="154.1464" x2="198.9311" y1="471.0032" y2="471.0032"/><polygon fill="#181818" points="194.9311,562.8383,198.9311,572.8383,202.9311,562.8383,198.9311,566.8383" style="stroke:#181818;stroke-width:1;"/><line style="stroke:#181818;stroke-width:1;" x1="198.9311" x2="198.9311" y1="471.0032" y2="665.1824"/><line style="stroke:#181818;stroke-width:1;" x1="198.9311" x2="112.0726" y1="665.1824" y2="665.1824"/><line style="stroke:#181818;stroke-width:1;" x1="112.0726" x2="112.0726" y1="665.1824" y2="726.2503"/><polygon fill="#181818" points="108.0726,716.2503,112.0726,726.2503,116.0726,716.2503,112.0726,720.2503" style="stroke:#181818;stroke-width:1;"/><line style="stroke:#181818;stroke-width:1;" x1="112.0726" x2="112.0726" y1="439.0032" y2="459.0032"/><polygon fill="#181818" points="108.0726,449.0032,112.0726,459.0032,116.0726,449.0032,112.0726,453.0032" style="stroke:#181818;stroke-width:1;"/><line style="stroke:#181818;stroke-width:1;" x1="112.0726" x2="112.0726" y1="762.5944" y2="782.5944"/><polygon fill="#181818" points="108.0726,772.5944,112.0726,782.5944,116.0726,772.5944,112.0726,776.5944" style="stroke:#181818;stroke-width:1;"/><line style="stroke:#181818;stroke-width:1;" x1="112.0726" x2="112.0726" y1="818.9386" y2="850.9386"/><polygon fill="#181818" points="108.0726,840.9386,112.0726,850.9386,116.0726,840.9386,112.0726,844.9386" style="stroke:#181818;stroke-width:1;"/><!--SRC=[nP11QyCm38Nl-HMYlJX_eQ6CGOyTZEqmUYgXaLTHrSeikQMC_VSbSS9o6BtM1uFr7j_JireThMYxYumam68Zry1ID_3yldbPm79BdqVR8RDSuRk0xgmyCORwZB26PdIx5Bci1fayk6aCSdegmOuOmDrGoy60h0WkI7uDn3Ti9HhucZX5hER2MIu8VQBsv8XVYI8sVnOrQJCsDEIBdtcNroW7LBrJPTzcYviwpKgCqeCxPEp_su-HcWxzefct-eXa22RJs2SUFW2OrAeENlHnlm00]--></g></svg>