<?plantuml 1.2026.0?><svg xmlns="http://www.w3.org/2000/svg" xmlns:xlink="http://www.w3.org/1999/xlink" contentStyleType="text/css" data-diagram-type="ACTIVITY" height="2256px" preserveAspectRatio="none" style="width:571px;height:2256px;background:#FFFFFF;" version="1.1" viewBox="0 0 571 2256" width="571px" zoomAndPan="magnify"><defs/><g><ellipse cx="280.7971" cy="20" fill="#222222" rx="10" ry="10" style="stroke:#222222;stroke-width:1;"/><rect fill="#FFFFE0" height="136.2344" style="stroke:#000000;stroke-width:1.5;" width="419.1777" x="71.2083" y="40"/><path d="M158.1262,40 L158.1262,49.2969 L148.1262,59.2969 L71.2083,59.2969" fill="none" style="stroke:#000000;stroke-width:1.5;"/><text fill="#000000" font-family="sans-serif" font-size="14" lengthAdjust="spacing" textLength="76.918" x="74.2083" y="53.9951">Preprocess</text><rect fill="#F1F1F1" height="33.9688" rx="12.5" ry="12.5" style="stroke:#181818;stroke-width:0.5;" width="306.7285" x="127.4329" y="76.2969"/><text fill="#000000" font-family="sans-serif" font-size="12" lengthAdjust="spacing" textLength="286.7285" x="137.4329" y="97.4355">Extract name of ASDM from downloaded tarball</text><rect fill="#F1F1F1" height="33.9688" rx="12.5" ry="12.5" style="stroke:#181818;stroke-width:0.5;" width="399.1777" x="81.2083" y="130.2656"/><text fill="#000000" font-family="sans-serif" font-size="12" lengthAdjust="spacing" textLength="379.1777" x="91.2083" y="151.4043">Create working directory for the ASDM. If exists, remove it first</text><rect fill="#FFFFE0" height="137.9761" style="stroke:#000000;stroke-width:1.5;" width="300.6309" x="130.4817" y="186.2344"/><path d="M236.3967,186.2344 L236.3967,195.5313 L226.3967,205.5313 L130.4817,205.5313" fill="none" style="stroke:#000000;stroke-width:1.5;"/><text fill="#000000" font-family="sans-serif" font-size="14" lengthAdjust="spacing" textLength="95.915" x="133.4817" y="200.2295">Extract ASDM</text><rect fill="#F1F1F1" height="33.9688" rx="12.5" ry="12.5" style="stroke:#181818;stroke-width:0.5;" width="280.6309" x="140.4817" y="222.5313"/><text fill="#000000" font-family="sans-serif" font-size="12" lengthAdjust="spacing" textLength="260.6309" x="150.4817" y="243.6699">Extract ASDM tarball into working directory</text><polygon fill="#F1F1F1" points="226.6296,276.5,334.9646,276.5,346.9646,288.5,334.9646,300.5,226.6296,300.5,214.6296,288.5,226.6296,276.5" style="stroke:#181818;stroke-width:0.5;"/><text fill="#000000" font-family="sans-serif" font-size="11" lengthAdjust="spacing" textLength="19.0083" x="284.7971" y="310.7104">yes</text><text fill="#000000" font-family="sans-serif" font-size="11" lengthAdjust="spacing" textLength="108.335" x="226.6296" y="292.3081">extraction success?</text><text fill="#000000" font-family="sans-serif" font-size="11" lengthAdjust="spacing" textLength="13.7017" x="346.9646" y="285.9058">no</text><ellipse cx="382.6663" cy="288.5" fill="none" rx="11" ry="11" style="stroke:#222222;stroke-width:1;"/><ellipse cx="382.6663" cy="288.5" fill="#222222" rx="6" ry="6" style="stroke:#222222;stroke-width:1;"/><rect fill="#FFFFE0" height="1869.2192" style="stroke:#000000;stroke-width:1.5;" width="549.5305" x="11" y="334.2104"/><path d="M120.4355,334.2104 L120.4355,343.5073 L110.4355,353.5073 L11,353.5073" fill="none" style="stroke:#000000;stroke-width:1.5;"/><text fill="#000000" font-family="sans-serif" font-size="14" lengthAdjust="spacing" textLength="99.4355" x="14" y="348.2056">Process ASDM</text><rect fill="#F1F1F1" height="33.9688" rx="12.5" ry="12.5" style="stroke:#181818;stroke-width:0.5;" width="349.4902" x="106.052" y="370.5073"/><text fill="#000000" font-family="sans-serif" font-size="12" lengthAdjust="spacing" textLength="329.4902" x="116.052" y="391.646">Create calibration script with make_calibration_script()</text><polygon fill="#F1F1F1" points="214.9663,424.4761,346.6279,424.4761,358.6279,436.4761,346.6279,448.4761,214.9663,448.4761,202.9663,436.4761,214.9663,424.4761" style="stroke:#181818;stroke-width:0.5;"/><text fill="#000000" font-family="sans-serif" font-size="11" lengthAdjust="spacing" textLength="19.0083" x="284.7971" y="458.6865">yes</text><text fill="#000000" font-family="sans-serif" font-size="11" lengthAdjust="spacing" textLength="131.6616" x="214.9663" y="440.2842">script creation success?</text><text fill="#000000" font-family="sans-serif" font-size="11" lengthAdjust="spacing" textLength="13.7017" x="358.6279" y="433.8818">no</text><ellipse cx="394.3296" cy="436.4761" fill="none" rx="11" ry="11" style="stroke:#222222;stroke-width:1;"/><ellipse cx="394.3296" cy="436.4761" fill="#222222" rx="6" ry="6" style="stroke:#222222;stroke-width:1;"/><rect fill="#F1F1F1" height="33.9688" rx="12.5" ry="12.5" style="stroke:#181818;stroke-width:0.5;" width="148.127" x="206.7336" y="480.1865"/><text fill="#000000" font-family="sans-serif" font-size="12" lengthAdjust="spacing" textLength="128.127" x="216.7336" y="501.3252">Run calibration script</text><polygon fill="#F1F1F1" points="224.8545,534.1553,336.7397,534.1553,348.7397,546.1553,336.7397,558.1553,224.8545,558.1553,212.8545,546.1553,224.8545,534.1553" style="stroke:#181818;stroke-width:0.5;"/><text fill="#000000" font-family="sans-serif" font-size="11" lengthAdjust="spacing" textLength="19.0083" x="284.7971" y="568.3657">yes</text><text fill="#000000" font-family="sans-serif" font-size="11" lengthAdjust="spacing" textLength="111.8853" x="224.8545" y="549.9634">processing success?</text><text fill="#000000" font-family="sans-serif" font-size="11" lengthAdjust="spacing" textLength="13.7017" x="348.7397" y="543.561">no</text><ellipse cx="384.4414" cy="546.1553" fill="none" rx="11" ry="11" style="stroke:#222222;stroke-width:1;"/><ellipse cx="384.4414" cy="546.1553" fill="#222222" rx="6" ry="6" style="stroke:#222222;stroke-width:1;"/><rect fill="#F1F1F1" height="33.9688" rx="12.5" ry="12.5" style="stroke:#181818;stroke-width:0.5;" width="403.9941" x="78.8" y="589.8657"/><text fill="#000000" font-family="sans-serif" font-size="12" lengthAdjust="spacing" textLength="383.9941" x="88.8" y="611.0044">Remove target source of project (keep calibration sources only)</text><polygon fill="#F1F1F1" points="232.0947,643.8345,329.4995,643.8345,341.4995,655.8345,329.4995,667.8345,232.0947,667.8345,220.0947,655.8345,232.0947,643.8345" style="stroke:#181818;stroke-width:0.5;"/><text fill="#000000" font-family="sans-serif" font-size="11" lengthAdjust="spacing" textLength="19.0083" x="284.7971" y="678.0449">yes</text><text fill="#000000" font-family="sans-serif" font-size="11" lengthAdjust="spacing" textLength="97.4048" x="232.0947" y="659.6426">removal success?</text><text fill="#000000" font-family="sans-serif" font-size="11" lengthAdjust="spacing" textLength="13.7017" x="341.4995" y="653.2402">no</text><ellipse cx="377.2012" cy="655.8345" fill="none" rx="11" ry="11" style="stroke:#222222;stroke-width:1;"/><ellipse cx="377.2012" cy="655.8345" fill="#222222" rx="6" ry="6" style="stroke:#222222;stroke-width:1;"/><rect fill="#FFE4B5" height="259.6909" style="stroke:#000000;stroke-width:1.5;" width="491.6013" x="25.0637" y="745.2554"/><path d="M91.9456,745.2554 L91.9456,754.5522 L81.9456,764.5522 L25.0637,764.5522" fill="none" style="stroke:#000000;stroke-width:1.5;"/><text fill="#000000" font-family="sans-serif" font-size="14" lengthAdjust="spacing" textLength="56.8818" x="28.0637" y="759.2505">Imaging</text><polygon fill="#F1F1F1" points="156.7651,781.5522,404.8291,781.5522,416.8291,793.5522,404.8291,805.5522,156.7651,805.5522,144.7651,793.5522,156.7651,781.5522" style="stroke:#181818;stroke-width:0.5;"/><text fill="#000000" font-family="sans-serif" font-size="11" lengthAdjust="spacing" textLength="248.064" x="156.7651" y="797.3604">Required self-calibration later?: `do_selfcal`?</text><text fill="#000000" font-family="sans-serif" font-size="11" lengthAdjust="spacing" textLength="19.0083" x="125.7568" y="790.958">yes</text><text fill="#000000" font-family="sans-serif" font-size="11" lengthAdjust="spacing" textLength="13.7017" x="416.8291" y="790.958">no</text><rect fill="#F1F1F1" height="33.9688" rx="12.5" ry="12.5" style="stroke:#181818;stroke-width:0.5;" width="191.2754" x="39.1274" y="815.5522"/><text fill="#000000" font-family="sans-serif" font-size="12" lengthAdjust="spacing" textLength="171.2754" x="49.1274" y="836.6909">savemodel = 'modelcolumn'</text><rect fill="#F1F1F1" height="33.9688" rx="12.5" ry="12.5" style="stroke:#181818;stroke-width:0.5;" width="139.6719" x="356.9932" y="815.5522"/><text fill="#000000" font-family="sans-serif" font-size="12" lengthAdjust="spacing" textLength="119.6719" x="366.9932" y="836.6909">savemodel = 'none'</text><polygon fill="#F1F1F1" points="280.7971,855.521,292.7971,867.521,280.7971,879.521,268.7971,867.521,280.7971,855.521" style="stroke:#181818;stroke-width:0.5;"/><rect fill="#F1F1F1" height="33.9688" rx="12.5" ry="12.5" style="stroke:#181818;stroke-width:0.5;" width="84.3418" x="238.6262" y="903.2671"/><text fill="#000000" font-family="sans-serif" font-size="12" lengthAdjust="spacing" textLength="64.3418" x="248.6262" y="924.4058">Run tclean</text><polygon fill="#F1F1F1" points="232.3633,957.2358,329.231,957.2358,341.231,969.2358,329.231,981.2358,232.3633,981.2358,220.3633,969.2358,232.3633,957.2358" style="stroke:#181818;stroke-width:0.5;"/><text fill="#000000" font-family="sans-serif" font-size="11" lengthAdjust="spacing" textLength="19.0083" x="284.7971" y="991.4463">yes</text><text fill="#000000" font-family="sans-serif" font-size="11" lengthAdjust="spacing" textLength="96.8677" x="232.3633" y="973.0439">imaging success?</text><text fill="#000000" font-family="sans-serif" font-size="11" lengthAdjust="spacing" textLength="13.7017" x="341.231" y="966.6416">no</text><ellipse cx="376.9326" cy="969.2358" fill="none" rx="11" ry="11" style="stroke:#222222;stroke-width:1;"/><ellipse cx="376.9326" cy="969.2358" fill="#222222" rx="6" ry="6" style="stroke:#222222;stroke-width:1;"/><polygon fill="#F1F1F1" points="190.4553,699.5449,371.1389,699.5449,383.1389,711.5449,371.1389,723.5449,190.4553,723.5449,178.4553,711.5449,190.4553,699.5449" style="stroke:#181818;stroke-width:0.5;"/><text fill="#000000" font-family="sans-serif" font-size="11" lengthAdjust="spacing" textLength="19.0083" x="284.7971" y="733.7554">yes</text><text fill="#000000" font-family="sans-serif" font-size="11" lengthAdjust="spacing" textLength="180.6836" x="190.4553" y="715.353">Required imaging?: `do_tlcean`?</text><text fill="#000000" font-family="sans-serif" font-size="11" lengthAdjust="spacing" textLength="13.7017" x="383.1389" y="708.9507">no</text><polygon fill="#F1F1F1" points="280.7971,1024.9463,292.7971,1036.9463,280.7971,1048.9463,268.7971,1036.9463,280.7971,1024.9463" style="stroke:#181818;stroke-width:0.5;"/><rect fill="#FFE4B5" height="144.2065" style="stroke:#000000;stroke-width:1.5;" width="310.5957" x="154.1968" y="1115.4585"/><path d="M454.7925,1115.4585 L454.7925,1124.7554 L444.7925,1134.7554 L154.1968,1134.7554" fill="none" style="stroke:#000000;stroke-width:1.5;"/><text fill="#000000" font-family="sans-serif" font-size="14" lengthAdjust="spacing" textLength="290.5957" x="157.1968" y="1129.4536">Self-calibration and generate 2nd images</text><rect fill="#F1F1F1" height="33.9688" rx="12.5" ry="12.5" style="stroke:#181818;stroke-width:0.5;" width="160.5898" x="200.5022" y="1151.7554"/><text fill="#000000" font-family="sans-serif" font-size="12" lengthAdjust="spacing" textLength="140.5898" x="210.5022" y="1172.894">Perform self-calibration</text><polygon fill="#F1F1F1" points="213.8088,1211.9546,347.7854,1211.9546,359.7854,1223.9546,347.7854,1235.9546,213.8088,1235.9546,201.8088,1223.9546,213.8088,1211.9546" style="stroke:#181818;stroke-width:0.5;"/><text fill="#000000" font-family="sans-serif" font-size="11" lengthAdjust="spacing" textLength="19.0083" x="284.7971" y="1246.165">yes</text><text fill="#000000" font-family="sans-serif" font-size="11" lengthAdjust="spacing" textLength="133.9766" x="213.8088" y="1227.7627">self-calibration success?</text><text fill="#000000" font-family="sans-serif" font-size="11" lengthAdjust="spacing" textLength="13.7017" x="359.7854" y="1221.3604">no</text><ellipse cx="395.4871" cy="1223.9546" fill="none" rx="11" ry="11" style="stroke:#222222;stroke-width:1;"/><ellipse cx="395.4871" cy="1223.9546" fill="#222222" rx="6" ry="6" style="stroke:#222222;stroke-width:1;"/><polygon fill="#F1F1F1" points="171.2134,1068.9463,390.3809,1068.9463,402.3809,1080.9463,390.3809,1092.9463,171.2134,1092.9463,159.2134,1080.9463,171.2134,1068.9463" style="stroke:#181818;stroke-width:0.5;"/><text fill="#000000" font-family="sans-serif" font-size="11" lengthAdjust="spacing" textLength="19.0083" x="284.7971" y="1103.1567">yes</text><text fill="#000000" font-family="sans-serif" font-size="11" lengthAdjust="spacing" textLength="219.1675" x="171.2134" y="1084.7544">Required self-calibration?: `do_selfcal`?</text><text fill="#000000" font-family="sans-serif" font-size="11" lengthAdjust="spacing" textLength="13.7017" x="402.3809" y="1078.3521">no</text><polygon fill="#F1F1F1" points="280.7971,1279.665,292.7971,1291.665,280.7971,1303.665,268.7971,1291.665,280.7971,1279.665" style="stroke:#181818;stroke-width:0.5;"/><rect fill="#FFE4B5" height="284.3472" style="stroke:#000000;stroke-width:1.5;" width="468.6216" x="56.9863" y="1313.665"/><path d="M220.7402,1313.665 L220.7402,1322.9619 L210.7402,1332.9619 L56.9863,1332.9619" fill="none" style="stroke:#000000;stroke-width:1.5;"/><text fill="#000000" font-family="sans-serif" font-size="14" lengthAdjust="spacing" textLength="153.7539" x="59.9863" y="1327.6602">Export images to FITS</text><rect fill="#F1F1F1" height="33.9688" rx="12.5" ry="12.5" style="stroke:#181818;stroke-width:0.5;" width="195.8516" x="182.8713" y="1349.9619"/><text fill="#000000" font-family="sans-serif" font-size="12" lengthAdjust="spacing" textLength="175.8516" x="192.8713" y="1371.1006">Export images to FITS format</text><rect fill="#F1F1F1" height="33.9688" rx="12.5" ry="12.5" style="stroke:#181818;stroke-width:0.5;" width="152.9082" x="204.343" y="1452.333"/><text fill="#000000" font-family="sans-serif" font-size="12" lengthAdjust="spacing" textLength="132.9082" x="214.343" y="1473.4717">Remove CASA images</text><polygon fill="#F1F1F1" points="78.9863,1403.9307,482.6079,1403.9307,494.6079,1415.9307,482.6079,1427.9307,78.9863,1427.9307,66.9863,1415.9307,78.9863,1403.9307" style="stroke:#181818;stroke-width:0.5;"/><text fill="#000000" font-family="sans-serif" font-size="11" lengthAdjust="spacing" textLength="19.0083" x="284.7971" y="1438.1411">yes</text><text fill="#000000" font-family="sans-serif" font-size="11" lengthAdjust="spacing" textLength="403.6216" x="78.9863" y="1419.7388">Required to remove CASA images after export?: `remove_casa_images`?</text><text fill="#000000" font-family="sans-serif" font-size="11" lengthAdjust="spacing" textLength="13.7017" x="494.6079" y="1413.3364">no</text><polygon fill="#F1F1F1" points="280.7971,1506.3018,292.7971,1518.3018,280.7971,1530.3018,268.7971,1518.3018,280.7971,1506.3018" style="stroke:#181818;stroke-width:0.5;"/><polygon fill="#F1F1F1" points="201.8528,1550.3018,359.7415,1550.3018,371.7415,1562.3018,359.7415,1574.3018,201.8528,1574.3018,189.8528,1562.3018,201.8528,1550.3018" style="stroke:#181818;stroke-width:0.5;"/><text fill="#000000" font-family="sans-serif" font-size="11" lengthAdjust="spacing" textLength="19.0083" x="284.7971" y="1584.5122">yes</text><text fill="#000000" font-family="sans-serif" font-size="11" lengthAdjust="spacing" textLength="157.8887" x="201.8528" y="1566.1099">export and remove success?</text><text fill="#000000" font-family="sans-serif" font-size="11" lengthAdjust="spacing" textLength="13.7017" x="371.7415" y="1559.7075">no</text><ellipse cx="407.4431" cy="1562.3018" fill="none" rx="11" ry="11" style="stroke:#222222;stroke-width:1;"/><ellipse cx="407.4431" cy="1562.3018" fill="#222222" rx="6" ry="6" style="stroke:#222222;stroke-width:1;"/><rect fill="#FFE4B5" height="321.0391" style="stroke:#000000;stroke-width:1.5;" width="527.5305" x="23" y="1608.0122"/><path d="M90.4902,1608.0122 L90.4902,1617.3091 L80.4902,1627.3091 L23,1627.3091" fill="none" style="stroke:#000000;stroke-width:1.5;"/><text fill="#000000" font-family="sans-serif" font-size="14" lengthAdjust="spacing" textLength="57.4902" x="26" y="1622.0073">Cleanup</text><rect fill="#F1F1F1" height="33.9688" rx="12.5" ry="12.5" style="stroke:#181818;stroke-width:0.5;" width="217.6426" x="171.9758" y="1692.7114"/><text fill="#000000" font-family="sans-serif" font-size="12" lengthAdjust="spacing" textLength="197.6426" x="181.9758" y="1713.8501">Remove ASDM working directory</text><polygon fill="#F1F1F1" points="154.1628,1644.3091,407.4314,1644.3091,419.4314,1656.3091,407.4314,1668.3091,154.1628,1668.3091,142.1628,1656.3091,154.1628,1644.3091" style="stroke:#181818;stroke-width:0.5;"/><text fill="#000000" font-family="sans-serif" font-size="11" lengthAdjust="spacing" textLength="19.0083" x="284.7971" y="1678.5195">yes</text><text fill="#000000" font-family="sans-serif" font-size="11" lengthAdjust="spacing" textLength="253.2686" x="154.1628" y="1660.1172">Required to remove ASDM?: `remove_asdm`?</text><text fill="#000000" font-family="sans-serif" font-size="11" lengthAdjust="spacing" textLength="13.7017" x="419.4314" y="1653.7148">no</text><polygon fill="#F1F1F1" points="280.7971,1746.6802,292.7971,1758.6802,280.7971,1770.6802,268.7971,1758.6802,280.7971,1746.6802" style="stroke:#181818;stroke-width:0.5;"/><rect fill="#F1F1F1" height="33.9688" rx="12.5" ry="12.5" style="stroke:#181818;stroke-width:0.5;" width="487.4668" x="37.0637" y="1839.0825"/><text fill="#000000" font-family="sans-serif" font-size="12" lengthAdjust="spacing" textLength="467.4668" x="47.0637" y="1860.2212">Remove intermediate files. Only keep images dirs, MS and *.py and *.log files</text><polygon fill="#F1F1F1" points="101.5181,1790.6802,460.0762,1790.6802,472.0762,1802.6802,460.0762,1814.6802,101.5181,1814.6802,89.5181,1802.6802,101.5181,1790.6802" style="stroke:#181818;stroke-width:0.5;"/><text fill="#000000" font-family="sans-serif" font-size="11" lengthAdjust="spacing" textLength="19.0083" x="284.7971" y="1824.8906">yes</text><text fill="#000000" font-family="sans-serif" font-size="11" lengthAdjust="spacing" textLength="358.5581" x="101.5181" y="1806.4883">Required to remove intermediate files?: `remove_intermediate`?</text><text fill="#000000" font-family="sans-serif" font-size="11" lengthAdjust="spacing" textLength="13.7017" x="472.0762" y="1800.0859">no</text><polygon fill="#F1F1F1" points="280.7971,1893.0513,292.7971,1905.0513,280.7971,1917.0513,268.7971,1905.0513,280.7971,1893.0513" style="stroke:#181818;stroke-width:0.5;"/><rect fill="#FFE4B5" height="252.3784" style="stroke:#000000;stroke-width:1.5;" width="290.4961" x="140.0491" y="1939.0513"/><path d="M252.3284,1939.0513 L252.3284,1948.3481 L242.3284,1958.3481 L140.0491,1958.3481" fill="none" style="stroke:#000000;stroke-width:1.5;"/><text fill="#000000" font-family="sans-serif" font-size="14" lengthAdjust="spacing" textLength="102.2793" x="143.0491" y="1953.0464">Check success</text><rect fill="#F1F1F1" height="33.9688" rx="12.5" ry="12.5" style="stroke:#181818;stroke-width:0.5;" width="193.4961" x="184.0491" y="2079.4609"/><text fill="#000000" font-family="sans-serif" font-size="12" lengthAdjust="spacing" textLength="173.4961" x="194.0491" y="2100.5996">Mark ASDM process as failed</text><polygon fill="#F1F1F1" points="203.166,2031.0586,358.4282,2031.0586,370.4282,2043.0586,358.4282,2055.0586,203.166,2055.0586,191.166,2043.0586,203.166,2031.0586" style="stroke:#181818;stroke-width:0.5;"/><text fill="#000000" font-family="sans-serif" font-size="11" lengthAdjust="spacing" textLength="19.0083" x="284.7971" y="2065.269">yes</text><text fill="#000000" font-family="sans-serif" font-size="11" lengthAdjust="spacing" textLength="155.2622" x="203.166" y="2046.8667">log files contains "SEVERE"?</text><text fill="#000000" font-family="sans-serif" font-size="11" lengthAdjust="spacing" textLength="13.7017" x="370.4282" y="2040.4644">no</text><polygon fill="#F1F1F1" points="280.7971,2133.4297,292.7971,2145.4297,280.7971,2157.4297,268.7971,2145.4297,280.7971,2133.4297" style="stroke:#181818;stroke-width:0.5;"/><polygon fill="#F1F1F1" points="240.3877,1975.3481,321.2065,1975.3481,333.2065,1987.3481,321.2065,1999.3481,240.3877,1999.3481,228.3877,1987.3481,240.3877,1975.3481" style="stroke:#181818;stroke-width:0.5;"/><text fill="#000000" font-family="sans-serif" font-size="11" lengthAdjust="spacing" textLength="19.0083" x="284.7971" y="2009.5586">yes</text><text fill="#000000" font-family="sans-serif" font-size="11" lengthAdjust="spacing" textLength="80.8188" x="240.3877" y="1991.1563">more log files?</text><ellipse cx="280.7971" cy="2234.4297" fill="none" rx="11" ry="11" style="stroke:#222222;stroke-width:1;"/><ellipse cx="280.7971" cy="2234.4297" fill="#222222" rx="6" ry="6" style="stroke:#222222;stroke-width:1;"/><line style="stroke:#181818;stroke-width:1;" x1="280.7971" x2="280.7971" y1="110.2656" y2="130.2656"/><polygon fill="#181818" points="276.7971,120.2656,280.7971,130.2656,284.7971,120.2656,280.7971,124.2656" style="stroke:#181818;stroke-width:1;"/><line style="stroke:#181818;stroke-width:1;" x1="280.7971" x2="280.7971" y1="30" y2="76.2969"/><polygon fill="#181818" points="276.7971,66.2969,280.7971,76.2969,284.7971,66.2969,280.7971,70.2969" style="stroke:#181818;stroke-width:1;"/><line style="stroke:#181818;stroke-width:1;" x1="280.7971" x2="280.7971" y1="300.5" y2="370.5073"/><polygon fill="#181818" points="276.7971,360.5073,280.7971,370.5073,284.7971,360.5073,280.7971,364.5073" style="stroke:#181818;stroke-width:1;"/><line style="stroke:#181818;stroke-width:1;" x1="346.9646" x2="371.6663" y1="288.5" y2="288.5"/><polygon fill="#181818" points="361.6663,284.5,371.6663,288.5,361.6663,292.5,365.6663,288.5" style="stroke:#181818;stroke-width:1;"/><line style="stroke:#181818;stroke-width:1;" x1="280.7971" x2="280.7971" y1="256.5" y2="276.5"/><polygon fill="#181818" points="276.7971,266.5,280.7971,276.5,284.7971,266.5,280.7971,270.5" style="stroke:#181818;stroke-width:1;"/><line style="stroke:#181818;stroke-width:1;" x1="280.7971" x2="280.7971" y1="164.2344" y2="222.5313"/><polygon fill="#181818" points="276.7971,212.5313,280.7971,222.5313,284.7971,212.5313,280.7971,216.5313" style="stroke:#181818;stroke-width:1;"/><line style="stroke:#181818;stroke-width:1;" x1="280.7971" x2="280.7971" y1="448.4761" y2="480.1865"/><polygon fill="#181818" points="276.7971,470.1865,280.7971,480.1865,284.7971,470.1865,280.7971,474.1865" style="stroke:#181818;stroke-width:1;"/><line style="stroke:#181818;stroke-width:1;" x1="358.6279" x2="383.3296" y1="436.4761" y2="436.4761"/><polygon fill="#181818" points="373.3296,432.4761,383.3296,436.4761,373.3296,440.4761,377.3296,436.4761" style="stroke:#181818;stroke-width:1;"/><line style="stroke:#181818;stroke-width:1;" x1="280.7971" x2="280.7971" y1="404.4761" y2="424.4761"/><polygon fill="#181818" points="276.7971,414.4761,280.7971,424.4761,284.7971,414.4761,280.7971,418.4761" style="stroke:#181818;stroke-width:1;"/><line style="stroke:#181818;stroke-width:1;" x1="280.7971" x2="280.7971" y1="558.1553" y2="589.8657"/><polygon fill="#181818" points="276.7971,579.8657,280.7971,589.8657,284.7971,579.8657,280.7971,583.8657" style="stroke:#181818;stroke-width:1;"/><line style="stroke:#181818;stroke-width:1;" x1="348.7397" x2="373.4414" y1="546.1553" y2="546.1553"/><polygon fill="#181818" points="363.4414,542.1553,373.4414,546.1553,363.4414,550.1553,367.4414,546.1553" style="stroke:#181818;stroke-width:1;"/><line style="stroke:#181818;stroke-width:1;" x1="280.7971" x2="280.7971" y1="514.1553" y2="534.1553"/><polygon fill="#181818" points="276.7971,524.1553,280.7971,534.1553,284.7971,524.1553,280.7971,528.1553" style="stroke:#181818;stroke-width:1;"/><line style="stroke:#181818;stroke-width:1;" x1="280.7971" x2="280.7971" y1="667.8345" y2="699.5449"/><polygon fill="#181818" points="276.7971,689.5449,280.7971,699.5449,284.7971,689.5449,280.7971,693.5449" style="stroke:#181818;stroke-width:1;"/><line style="stroke:#181818;stroke-width:1;" x1="341.4995" x2="366.2012" y1="655.8345" y2="655.8345"/><polygon fill="#181818" points="356.2012,651.8345,366.2012,655.8345,356.2012,659.8345,360.2012,655.8345" style="stroke:#181818;stroke-width:1;"/><line style="stroke:#181818;stroke-width:1;" x1="280.7971" x2="280.7971" y1="623.8345" y2="643.8345"/><polygon fill="#181818" points="276.7971,633.8345,280.7971,643.8345,284.7971,633.8345,280.7971,637.8345" style="stroke:#181818;stroke-width:1;"/><line style="stroke:#181818;stroke-width:1;" x1="144.7651" x2="134.7651" y1="793.5522" y2="793.5522"/><line style="stroke:#181818;stroke-width:1;" x1="134.7651" x2="134.7651" y1="793.5522" y2="815.5522"/><polygon fill="#181818" points="130.7651,805.5522,134.7651,815.5522,138.7651,805.5522,134.7651,809.5522" style="stroke:#181818;stroke-width:1;"/><line style="stroke:#181818;stroke-width:1;" x1="416.8291" x2="426.8291" y1="793.5522" y2="793.5522"/><line style="stroke:#181818;stroke-width:1;" x1="426.8291" x2="426.8291" y1="793.5522" y2="815.5522"/><polygon fill="#181818" points="422.8291,805.5522,426.8291,815.5522,430.8291,805.5522,426.8291,809.5522" style="stroke:#181818;stroke-width:1;"/><line style="stroke:#181818;stroke-width:1;" x1="134.7651" x2="134.7651" y1="849.521" y2="867.521"/><line style="stroke:#181818;stroke-width:1;" x1="134.7651" x2="268.7971" y1="867.521" y2="867.521"/><polygon fill="#181818" points="258.7971,863.521,268.7971,867.521,258.7971,871.521,262.7971,867.521" style="stroke:#181818;stroke-width:1;"/><line style="stroke:#181818;stroke-width:1;" x1="426.8291" x2="426.8291" y1="849.521" y2="867.521"/><line style="stroke:#181818;stroke-width:1;" x1="426.8291" x2="292.7971" y1="867.521" y2="867.521"/><polygon fill="#181818" points="302.7971,863.521,292.7971,867.521,302.7971,871.521,298.7971,867.521" style="stroke:#181818;stroke-width:1;"/><line style="stroke:#181818;stroke-width:1;" x1="280.7971" x2="280.7971" y1="879.521" y2="903.2671"/><polygon fill="#181818" points="276.7971,893.2671,280.7971,903.2671,284.7971,893.2671,280.7971,897.2671" style="stroke:#181818;stroke-width:1;"/><line style="stroke:#181818;stroke-width:1;" x1="280.7971" x2="280.7971" y1="981.2358" y2="1024.9463"/><polygon fill="#181818" points="276.7971,1014.9463,280.7971,1024.9463,284.7971,1014.9463,280.7971,1018.9463" style="stroke:#181818;stroke-width:1;"/><line style="stroke:#181818;stroke-width:1;" x1="341.231" x2="365.9326" y1="969.2358" y2="969.2358"/><polygon fill="#181818" points="355.9326,965.2358,365.9326,969.2358,355.9326,973.2358,359.9326,969.2358" style="stroke:#181818;stroke-width:1;"/><line style="stroke:#181818;stroke-width:1;" x1="280.7971" x2="280.7971" y1="937.2358" y2="957.2358"/><polygon fill="#181818" points="276.7971,947.2358,280.7971,957.2358,284.7971,947.2358,280.7971,951.2358" style="stroke:#181818;stroke-width:1;"/><line style="stroke:#181818;stroke-width:1;" x1="280.7971" x2="280.7971" y1="723.5449" y2="781.5522"/><polygon fill="#181818" points="276.7971,771.5522,280.7971,781.5522,284.7971,771.5522,280.7971,775.5522" style="stroke:#181818;stroke-width:1;"/><line style="stroke:#181818;stroke-width:1;" x1="383.1389" x2="526.665" y1="711.5449" y2="711.5449"/><polygon fill="#181818" points="522.665,889.521,526.665,899.521,530.665,889.521,526.665,893.521" style="stroke:#181818;stroke-width:1;"/><line style="stroke:#181818;stroke-width:1;" x1="526.665" x2="526.665" y1="711.5449" y2="1036.9463"/><line style="stroke:#181818;stroke-width:1;" x1="526.665" x2="292.7971" y1="1036.9463" y2="1036.9463"/><polygon fill="#181818" points="302.7971,1032.9463,292.7971,1036.9463,302.7971,1040.9463,298.7971,1036.9463" style="stroke:#181818;stroke-width:1;"/><line style="stroke:#181818;stroke-width:1;" x1="280.7971" x2="280.7971" y1="1235.9546" y2="1279.665"/><polygon fill="#181818" points="276.7971,1269.665,280.7971,1279.665,284.7971,1269.665,280.7971,1273.665" style="stroke:#181818;stroke-width:1;"/><line style="stroke:#181818;stroke-width:1;" x1="359.7854" x2="384.4871" y1="1223.9546" y2="1223.9546"/><polygon fill="#181818" points="374.4871,1219.9546,384.4871,1223.9546,374.4871,1227.9546,378.4871,1223.9546" style="stroke:#181818;stroke-width:1;"/><line style="stroke:#181818;stroke-width:1;" x1="280.7971" x2="280.7971" y1="1185.7241" y2="1211.9546"/><polygon fill="#181818" points="276.7971,1201.9546,280.7971,1211.9546,284.7971,1201.9546,280.7971,1205.9546" style="stroke:#181818;stroke-width:1;"/><line style="stroke:#181818;stroke-width:1;" x1="280.7971" x2="280.7971" y1="1092.9463" y2="1151.7554"/><polygon fill="#181818" points="276.7971,1141.7554,280.7971,1151.7554,284.7971,1141.7554,280.7971,1145.7554" style="stroke:#181818;stroke-width:1;"/><line style="stroke:#181818;stroke-width:1;" x1="402.3809" x2="474.7925" y1="1080.9463" y2="1080.9463"/><polygon fill="#181818" points="470.7925,1195.7241,474.7925,1205.7241,478.7925,1195.7241,474.7925,1199.7241" style="stroke:#181818;stroke-width:1;"/><line style="stroke:#181818;stroke-width:1;" x1="474.7925" x2="474.7925" y1="1080.9463" y2="1291.665"/><line style="stroke:#181818;stroke-width:1;" x1="474.7925" x2="292.7971" y1="1291.665" y2="1291.665"/><polygon fill="#181818" points="302.7971,1287.665,292.7971,1291.665,302.7971,1295.665,298.7971,1291.665" style="stroke:#181818;stroke-width:1;"/><line style="stroke:#181818;stroke-width:1;" x1="280.7971" x2="280.7971" y1="1048.9463" y2="1068.9463"/><polygon fill="#181818" points="276.7971,1058.9463,280.7971,1068.9463,284.7971,1058.9463,280.7971,1062.9463" style="stroke:#181818;stroke-width:1;"/><line style="stroke:#181818;stroke-width:1;" x1="280.7971" x2="280.7971" y1="1427.9307" y2="1452.333"/><polygon fill="#181818" points="276.7971,1442.333,280.7971,1452.333,284.7971,1442.333,280.7971,1446.333" style="stroke:#181818;stroke-width:1;"/><line style="stroke:#181818;stroke-width:1;" x1="494.6079" x2="506.6079" y1="1415.9307" y2="1415.9307"/><polygon fill="#181818" points="502.6079,1459.3174,506.6079,1469.3174,510.6079,1459.3174,506.6079,1463.3174" style="stroke:#181818;stroke-width:1;"/><line style="stroke:#181818;stroke-width:1;" x1="506.6079" x2="506.6079" y1="1415.9307" y2="1518.3018"/><line style="stroke:#181818;stroke-width:1;" x1="506.6079" x2="292.7971" y1="1518.3018" y2="1518.3018"/><polygon fill="#181818" points="302.7971,1514.3018,292.7971,1518.3018,302.7971,1522.3018,298.7971,1518.3018" style="stroke:#181818;stroke-width:1;"/><line style="stroke:#181818;stroke-width:1;" x1="280.7971" x2="280.7971" y1="1486.3018" y2="1506.3018"/><polygon fill="#181818" points="276.7971,1496.3018,280.7971,1506.3018,284.7971,1496.3018,280.7971,1500.3018" style="stroke:#181818;stroke-width:1;"/><line style="stroke:#181818;stroke-width:1;" x1="280.7971" x2="280.7971" y1="1383.9307" y2="1403.9307"/><polygon fill="#181818" points="276.7971,1393.9307,280.7971,1403.9307,284.7971,1393.9307,280.7971,1397.9307" style="stroke:#181818;stroke-width:1;"/><line style="stroke:#181818;stroke-width:1;" x1="280.7971" x2="280.7971" y1="1574.3018" y2="1644.3091"/><polygon fill="#181818" points="276.7971,1634.3091,280.7971,1644.3091,284.7971,1634.3091,280.7971,1638.3091" style="stroke:#181818;stroke-width:1;"/><line style="stroke:#181818;stroke-width:1;" x1="371.7415" x2="396.4431" y1="1562.3018" y2="1562.3018"/><polygon fill="#181818" points="386.4431,1558.3018,396.4431,1562.3018,386.4431,1566.3018,390.4431,1562.3018" style="stroke:#181818;stroke-width:1;"/><line style="stroke:#181818;stroke-width:1;" x1="280.7971" x2="280.7971" y1="1530.3018" y2="1550.3018"/><polygon fill="#181818" points="276.7971,1540.3018,280.7971,1550.3018,284.7971,1540.3018,280.7971,1544.3018" style="stroke:#181818;stroke-width:1;"/><line style="stroke:#181818;stroke-width:1;" x1="280.7971" x2="280.7971" y1="1303.665" y2="1349.9619"/><polygon fill="#181818" points="276.7971,1339.9619,280.7971,1349.9619,284.7971,1339.9619,280.7971,1343.9619" style="stroke:#181818;stroke-width:1;"/><line style="stroke:#181818;stroke-width:1;" x1="280.7971" x2="280.7971" y1="1668.3091" y2="1692.7114"/><polygon fill="#181818" points="276.7971,1682.7114,280.7971,1692.7114,284.7971,1682.7114,280.7971,1686.7114" style="stroke:#181818;stroke-width:1;"/><line style="stroke:#181818;stroke-width:1;" x1="419.4314" x2="431.4314" y1="1656.3091" y2="1656.3091"/><polygon fill="#181818" points="427.4314,1699.6958,431.4314,1709.6958,435.4314,1699.6958,431.4314,1703.6958" style="stroke:#181818;stroke-width:1;"/><line style="stroke:#181818;stroke-width:1;" x1="431.4314" x2="431.4314" y1="1656.3091" y2="1758.6802"/><line style="stroke:#181818;stroke-width:1;" x1="431.4314" x2="292.7971" y1="1758.6802" y2="1758.6802"/><polygon fill="#181818" points="302.7971,1754.6802,292.7971,1758.6802,302.7971,1762.6802,298.7971,1758.6802" style="stroke:#181818;stroke-width:1;"/><line style="stroke:#181818;stroke-width:1;" x1="280.7971" x2="280.7971" y1="1726.6802" y2="1746.6802"/><polygon fill="#181818" points="276.7971,1736.6802,280.7971,1746.6802,284.7971,1736.6802,280.7971,1740.6802" style="stroke:#181818;stroke-width:1;"/><line style="stroke:#181818;stroke-width:1;" x1="280.7971" x2="280.7971" y1="1814.6802" y2="1839.0825"/><polygon fill="#181818" points="276.7971,1829.0825,280.7971,1839.0825,284.7971,1829.0825,280.7971,1833.0825" style="stroke:#181818;stroke-width:1;"/><line style="stroke:#181818;stroke-width:1;" x1="472.0762" x2="534.5305" y1="1802.6802" y2="1802.6802"/><polygon fill="#181818" points="530.5305,1846.0669,534.5305,1856.0669,538.5305,1846.0669,534.5305,1850.0669" style="stroke:#181818;stroke-width:1;"/><line style="stroke:#181818;stroke-width:1;" x1="534.5305" x2="534.5305" y1="1802.6802" y2="1905.0513"/><line style="stroke:#181818;stroke-width:1;" x1="534.5305" x2="292.7971" y1="1905.0513" y2="1905.0513"/><polygon fill="#181818" points="302.7971,1901.0513,292.7971,1905.0513,302.7971,1909.0513,298.7971,1905.0513" style="stroke:#181818;stroke-width:1;"/><line style="stroke:#181818;stroke-width:1;" x1="280.7971" x2="280.7971" y1="1873.0513" y2="1893.0513"/><polygon fill="#181818" points="276.7971,1883.0513,280.7971,1893.0513,284.7971,1883.0513,280.7971,1887.0513" style="stroke:#181818;stroke-width:1;"/><line style="stroke:#181818;stroke-width:1;" x1="280.7971" x2="280.7971" y1="1770.6802" y2="1790.6802"/><polygon fill="#181818" points="276.7971,1780.6802,280.7971,1790.6802,284.7971,1780.6802,280.7971,1784.6802" style="stroke:#181818;stroke-width:1;"/><line style="stroke:#181818;stroke-width:1;" x1="280.7971" x2="280.7971" y1="2055.0586" y2="2079.4609"/><polygon fill="#181818" points="276.7971,2069.4609,280.7971,2079.4609,284.7971,2069.4609,280.7971,2073.4609" style="stroke:#181818;stroke-width:1;"/><line style="stroke:#181818;stroke-width:1;" x1="370.4282" x2="387.5452" y1="2043.0586" y2="2043.0586"/><polygon fill="#181818" points="383.5452,2086.4453,387.5452,2096.4453,391.5452,2086.4453,387.5452,2090.4453" style="stroke:#181818;stroke-width:1;"/><line style="stroke:#181818;stroke-width:1;" x1="387.5452" x2="387.5452" y1="2043.0586" y2="2145.4297"/><line style="stroke:#181818;stroke-width:1;" x1="387.5452" x2="292.7971" y1="2145.4297" y2="2145.4297"/><polygon fill="#181818" points="302.7971,2141.4297,292.7971,2145.4297,302.7971,2149.4297,298.7971,2145.4297" style="stroke:#181818;stroke-width:1;"/><line style="stroke:#181818;stroke-width:1;" x1="280.7971" x2="280.7971" y1="2113.4297" y2="2133.4297"/><polygon fill="#181818" points="276.7971,2123.4297,280.7971,2133.4297,284.7971,2123.4297,280.7971,2127.4297" style="stroke:#181818;stroke-width:1;"/><line style="stroke:#181818;stroke-width:1;" x1="280.7971" x2="280.7971" y1="1999.3481" y2="2031.0586"/><polygon fill="#181818" points="276.7971,2021.0586,280.7971,2031.0586,284.7971,2021.0586,280.7971,2025.0586" style="stroke:#181818;stroke-width:1;"/><line style="stroke:#181818;stroke-width:1;" x1="280.7971" x2="280.7971" y1="2157.4297" y2="2167.4297"/><line style="stroke:#181818;stroke-width:1;" x1="280.7971" x2="411.5452" y1="2167.4297" y2="2167.4297"/><polygon fill="#181818" points="407.5452,2088.043,411.5452,2078.043,415.5452,2088.043,411.5452,2084.043" style="stroke:#181818;stroke-width:1;"/><line style="stroke:#181818;stroke-width:1;" x1="411.5452" x2="411.5452" y1="1987.3481" y2="2167.4297"/><line style="stroke:#181818;stroke-width:1;" x1="411.5452" x2="333.2065" y1="1987.3481" y2="1987.3481"/><polygon fill="#181818" points="343.2065,1983.3481,333.2065,1987.3481,343.2065,1991.3481,339.2065,1987.3481" style="stroke:#181818;stroke-width:1;"/><line style="stroke:#181818;stroke-width:1;" x1="228.3877" x2="162.0491" y1="1987.3481" y2="1987.3481"/><polygon fill="#181818" points="158.0491,2074.043,162.0491,2084.043,166.0491,2074.043,162.0491,2078.043" style="stroke:#181818;stroke-width:1;"/><line style="stroke:#181818;stroke-width:1;" x1="162.0491" x2="162.0491" y1="1987.3481" y2="2179.4297"/><line style="stroke:#181818;stroke-width:1;" x1="162.0491" x2="280.7971" y1="2179.4297" y2="2179.4297"/><line style="stroke:#181818;stroke-width:1;" x1="280.7971" x2="280.7971" y1="2179.4297" y2="2223.4297"/><polygon fill="#181818" points="276.7971,2213.4297,280.7971,2223.4297,284.7971,2213.4297,280.7971,2217.4297" style="stroke:#181818;stroke-width:1;"/><line style="stroke:#181818;stroke-width:1;" x1="280.7971" x2="280.7971" y1="1917.0513" y2="1975.3481"/><polygon fill="#181818" points="276.7971,1965.3481,280.7971,1975.3481,284.7971,1965.3481,280.7971,1969.3481" style="stroke:#181818;stroke-width:1;"/><?plantuml-src nLPDRnen4BtpAqRq45ArEVG8gg8efLAaeaPGLUg9EDvPSF7QMziRWYh-UySVm6vs8KWvr0S4ydoyUMyyWtNCk5v97y89hQ1_Rx0qcgErVNZtJIoMxXTAgTVmjmTqXkDdPnXte5Y1e7EucNsPG6vq0PbUAwbPXXbGq4ScvIYwt1fa3c6jpKge1MJ287VQR23N1jmIGumhkCi1duLrzWCOBFGJWd2G2sFTgBUjGzn1y6wdGGPm2Gm8vNGRHCGeSXXWTF8fRCKz0zUN7fw2mGRjPR13QH46IiTV_bYdotYbCf4tWTv78ay0JTHm9iMZOJ4tDw9qi1Pk2GLRuRnsEO-NWyi3wcJEVQ2tGO-8ffNgW7F8bvh3S_ZcL55bqcU13gok30yjHIb-apWmM26MJJ31ne9MSbFZ8BGBasy5v4DDyKz5hP61ADY2YhmUmaEcvqvoPEgX7TcVck9tqOl4dcZE6T6KbDwTHWwBClzOhqzICvYKqb_ItP6SkpEqx8cgpr32PxW8NxYMLQ4kHWtRDWFT4PHM-D8rCDHmyKtYk2HAHgtg4d77nNWTqbwSRWZR3asFoVYIuhF8hGawUoaHKnaiKA7nx_QJYes2zhZYmtiqDEYA5fGsTQr--6ySDgPjgOrBPGADqAztFsRTvGuxRVsOBvWxbDiGY8pIjB-zcTtiN5bE3u7MWG_d9OicD0ejcqUJ4-zYDrXg0G_9sumrYOcR89JXfKxOJWhHBK93W4EEROlWM_-EghARqYDS-OrIuuNPh3Y3aB0EZsp0KzoyXeOsAve2C-7VH2uasXgs-kKP6Dknhk0xZNi8oo2r1s6dVmcJMP3e_LMvIL-aNaIVy_Jkq6A9VBLJkrkHzP8ImA3G1c6VZ-eIjgCgJzZU2BXMZWbbQQoCVuwdu_uhitt2p2gAbhOkC0iverZPETEzsTZqAq1FbMzxla7_0G00?></g></svg>