<svg width="36" height="37" viewBox="0 0 36 37" fill="none" xmlns="http://www.w3.org/2000/svg">
<g id="FMU Logo Blue">
<g id="Group">
<path id="Vector" d="M13.8245 0.0746042C13.6503 -0.0849347 13.3694 0.0269694 13.3534 0.262875L13.0096 5.39383C12.999 5.54807 12.8665 5.66452 12.712 5.65544L6.70469 5.2978C6.4381 5.28192 6.30178 5.61083 6.50096 5.78776L17.2235 15.3246C17.4045 15.4856 17.6915 15.3578 17.6923 15.1159L17.7264 3.7818C17.7264 3.70317 17.7483 3.56631 17.69 3.51263L13.8245 0.0746042Z" fill="#3c3c43"/>
<path id="Vector_2" d="M11.338 4.3874C11.9707 4.09286 12.2444 3.34202 11.9494 2.71037C11.6544 2.07872 10.9023 1.80543 10.2696 2.09998C9.63692 2.39452 9.36319 3.14536 9.65822 3.77701C9.95325 4.40867 10.7053 4.68195 11.338 4.3874Z" fill="#3c3c43"/>
<path id="Vector_3" d="M15.1786 16.5906L5.36414 10.8941C5.29598 10.8548 5.18843 10.7671 5.1127 10.7913L0.19751 12.4146C-0.0281801 12.4849 -0.071349 12.7844 0.124804 12.9159L4.40382 15.7786C4.53257 15.8648 4.56741 16.0379 4.48183 16.1664L1.16843 21.1817C1.0215 21.404 1.23811 21.6868 1.49182 21.6029L15.1264 17.1002C15.3566 17.0239 15.3892 16.7123 15.1794 16.5906H15.1786Z" fill="#3c3c43"/>
<path id="Vector_4" d="M2.7891 16.6507C2.82697 15.9543 2.29228 15.36 1.59476 15.3222C0.897243 15.2844 0.301968 15.8182 0.2641 16.5146C0.226233 17.211 0.760921 17.8053 1.45844 17.8431C2.15596 17.8809 2.75123 17.3471 2.7891 16.6507Z" fill="#3c3c43"/>
<path id="Vector_5" d="M15.2164 19.5103L5.36783 25.1479C5.29967 25.1872 5.17017 25.2363 5.15275 25.3135L4.10306 30.3748C4.05156 30.6047 4.28937 30.7922 4.50143 30.6879L9.12428 28.4195C9.26288 28.3515 9.43101 28.4082 9.49993 28.5458L12.1938 33.9187C12.3135 34.1569 12.6664 34.1108 12.7209 33.8499L15.6329 19.8105C15.6822 19.5731 15.4277 19.3893 15.2171 19.5096L15.2164 19.5103Z" fill="#3c3c43"/>
<path id="Vector_6" d="M9.04876 30.0958C8.46409 29.7155 7.68023 29.8803 7.29928 30.464C6.91834 31.0478 7.08344 31.8303 7.66811 32.2107C8.25279 32.591 9.03664 32.4262 9.41759 31.8424C9.79853 31.2587 9.63343 30.4761 9.04876 30.0958Z" fill="#3c3c43"/>
<path id="Vector_7" d="M18.2376 20.6874C18.0566 20.5264 17.7696 20.6542 17.7688 20.8961L17.7348 32.2302C17.7348 32.3088 17.7128 32.4457 17.7711 32.4994L21.6366 35.9381C21.8108 36.0977 22.0918 35.9858 22.1077 35.7499L22.4515 30.6189C22.4621 30.4647 22.5947 30.3482 22.7492 30.3573L28.7565 30.715C29.023 30.7308 29.1594 30.4019 28.9602 30.225L18.2376 20.6882V20.6874Z" fill="#3c3c43"/>
<path id="Vector_8" d="M25.1918 33.7463C25.8244 33.4517 26.0982 32.7009 25.8031 32.0693C25.5081 31.4376 24.7561 31.1643 24.1234 31.4589C23.4907 31.7534 23.217 32.5042 23.512 33.1359C23.807 33.7676 24.5591 34.0408 25.1918 33.7463Z" fill="#3c3c43"/>
<path id="Vector_9" d="M35.3362 23.1371L31.0572 20.2745C30.9285 20.1883 30.8936 20.0151 30.9792 19.8866L34.2926 14.8713C34.4395 14.649 34.2229 14.3663 33.9692 14.4502L20.3347 18.9528C20.1044 19.0292 20.0719 19.3407 20.2817 19.4624L30.0961 25.1589C30.1643 25.1983 30.2718 25.286 30.3476 25.2618L35.2635 23.6384C35.4892 23.5681 35.5324 23.2687 35.3362 23.1371Z" fill="#3c3c43"/>
<path id="Vector_10" d="M32.6711 19.5156C32.6332 20.2119 33.1679 20.8062 33.8654 20.844C34.5629 20.8819 35.1582 20.348 35.1961 19.6517C35.2339 18.9553 34.6993 18.361 34.0017 18.3232C33.3042 18.2854 32.709 18.8192 32.6711 19.5156Z" fill="#3c3c43"/>
<path id="Vector_11" d="M20.2438 16.5451L30.0923 10.9075C30.1605 10.8682 30.29 10.819 30.3074 10.7419L31.3571 5.68053C31.4086 5.45067 31.1708 5.26316 30.9587 5.3675L26.3359 7.63583C26.1973 7.70387 26.0292 7.64717 25.9602 7.50955L23.2663 2.13665C23.1467 1.89847 22.7938 1.9446 22.7392 2.20545L19.8272 16.2449C19.778 16.4823 20.0325 16.666 20.243 16.5458L20.2438 16.5451Z" fill="#3c3c43"/>
<path id="Vector_12" d="M28.1057 5.48115C28.5683 4.95916 28.5194 4.16163 27.9966 3.69982C27.4737 3.238 26.6749 3.28678 26.2123 3.80877C25.7497 4.33075 25.7986 5.12828 26.3214 5.5901C26.8443 6.05191 27.6431 6.00313 28.1057 5.48115Z" fill="#3c3c43"/>
</g>
</g>
</svg>
