<?xml version="1.0" encoding="UTF-8" standalone="no"?>
<!-- Created with Inkscape (http://www.inkscape.org/) -->

<svg
   xmlns:dc="http://purl.org/dc/elements/1.1/"
   xmlns:cc="http://creativecommons.org/ns#"
   xmlns:rdf="http://www.w3.org/1999/02/22-rdf-syntax-ns#"
   xmlns:svg="http://www.w3.org/2000/svg"
   xmlns="http://www.w3.org/2000/svg"
   xmlns:sodipodi="http://sodipodi.sourceforge.net/DTD/sodipodi-0.dtd"
   xmlns:inkscape="http://www.inkscape.org/namespaces/inkscape"
   width="100%"
   height="100%"
   viewBox="0 0 99.999997 99.999997"
   id="svg8780"
   version="1.1"
   inkscape:version="0.91 r13725"
   sodipodi:docname="Amphibia.svg">
  <defs
     id="defs8782" />
  <sodipodi:namedview
     id="base"
     pagecolor="#ffffff"
     bordercolor="#666666"
     borderopacity="1.0"
     inkscape:pageopacity="0.0"
     inkscape:pageshadow="2"
     inkscape:zoom="2.8"
     inkscape:cx="-41.802848"
     inkscape:cy="46.084515"
     inkscape:document-units="px"
     inkscape:current-layer="layer1"
     showgrid="false"
     fit-margin-top="0"
     fit-margin-left="0"
     fit-margin-right="0"
     fit-margin-bottom="0"
     inkscape:window-width="1920"
     inkscape:window-height="1016"
     inkscape:window-x="0"
     inkscape:window-y="27"
     inkscape:window-maximized="1" />
  <metadata
     id="metadata8785">
    <rdf:RDF>
      <cc:Work
         rdf:about="">
        <dc:format>image/svg+xml</dc:format>
        <dc:type
           rdf:resource="http://purl.org/dc/dcmitype/StillImage" />
        <dc:title></dc:title>
      </cc:Work>
    </rdf:RDF>
  </metadata>
  <g
     inkscape:label="Layer 1"
     inkscape:groupmode="layer"
     id="layer1"
     transform="translate(-327.14285,-456.64792)">
    <circle
       style="opacity:1;fill:#d7d43a;fill-opacity:1;stroke:none;stroke-width:10;stroke-linecap:round;stroke-linejoin:miter;stroke-miterlimit:4;stroke-dasharray:none;stroke-dashoffset:0;stroke-opacity:1"
       id="path4136-0-3-6-2-7-0-9-3-6-7"
       cx="377.14285"
       cy="506.64792"
       r="50" />
    <g
       transform="matrix(0.52156765,0,0,0.52156765,421.92735,-775.08178)"
       style="display:inline;fill:#ffffff"
       id="g5890"
       inkscape:export-filename="/media/BigData/anymals_workspace/inkscape/TAXONFILTER/amphibiae_h111.png"
       inkscape:export-xdpi="75.143196"
       inkscape:export-ydpi="75.143196">
      <path
         inkscape:export-ydpi="60.208954"
         inkscape:export-xdpi="60.208954"
         inkscape:export-filename="/home/tom/anymals_workspace/inkscape/TAXONFILTER/frogs_h50.png"
         sodipodi:nodetypes="cscsssssczccczccczcsccscssscscccccczccczcsccccccssssssssscsscc"
         inkscape:connector-curvature="0"
         id="path3862-8-9-8-1-5"
         d="m -139.47776,2420.5943 c -4.47282,2.6216 -17.66213,7.291 -22.11792,13.198 -3.35268,4.4446 -3.98185,12.8882 -2.18423,15.0976 -1.08673,1.0764 -3.93103,2.5897 -3.94037,4.2026 -0.0116,2.0038 0.81181,2.9975 1.20946,3.9055 1.0417,2.3787 2.95757,2.6298 9.27405,4.4943 3.96572,1.1707 8.56408,3.2707 12.72642,3.7934 0.41793,0.053 8.60386,-2.6381 14.3773,-0.6542 3.48948,1.199 5.96256,5.3767 7.3002,6.5394 -0.99556,0.6258 0.75966,3.5009 3.02768,2.3872 2.26802,-1.1137 0.54677,-4.1673 -1.14412,-3.5364 -0.855,-1.6433 -1.81728,-4.9433 -2.98655,-6.1542 1.63002,-1.6293 8.68137,-0.3865 12.05495,-0.052 -0.76349,1.9372 3.07961,2.4379 4.19906,0.1171 1.11946,-2.3208 -2.44772,-4.9624 -3.47279,-2.9239 -2.7522,-1.9505 -9.61279,-2.1341 -11.11454,-2.7552 1.44028,-0.9179 5.72064,-0.4883 6.61039,-0.7418 0.41706,1.0776 3.79262,0.3193 2.26696,-1.8216 -1.52566,-2.1409 -3.76435,-0.2902 -3.458,0.8256 -1.13622,-0.7077 -2.51476,-1.0364 -3.75599,-1.0009 -2.65966,0.076 -6.42795,1.2351 -8.23077,2.4243 -1.09107,-0.3373 -2.14287,0.367 -5.1149,0.4785 1.21294,-1.0288 0.9955,-1.8422 0.93744,-2.1756 -0.27895,-1.6018 -2.56755,-2.508 -3.74379,-2.6753 0.0551,-0.032 1.76376,-1.5574 1.34286,-1.2811 -0.12705,0.083 -3.64122,0.3491 -4.07883,-0.066 -0.4433,-0.4209 -1.88015,-8.1286 -6.44164,-9.0353 -5.11895,-1.0175 -8.01118,-2.852 -14.99727,-1.779 -0.5383,-3.0871 13.4374,-0.4205 16.14101,0.2133 3.42367,0.8025 6.48448,9.0284 6.37644,9.9027 -1.34563,4.0966 4.79107,0.9178 6.92974,-0.026 2.41827,-1.1553 5.45778,-5.8527 6.63885,-7.5609 0.0857,1.2694 -0.30212,4.5679 0.39416,6.1305 2.02781,1.1019 7.52995,2.7371 13.14655,4.9562 2.52905,-2.1414 6.37271,0.473 8.49882,2.0184 -0.92061,0.5155 0.649,3.4027 2.39064,1.6226 1.741626,-1.7801 -0.77278,-2.9471 -1.59893,-2.4866 -1.07877,-1.0117 -0.76665,-2.9729 -2.71377,-3.8825 2.42763,-1.2922 3.46925,-1.3982 3.43033,-1.8807 0.84885,0.8496 3.035641,0.134 2.118516,-1.7462 -0.917116,-1.8801 -3.103396,-0.513 -2.731806,0.9556 -0.97179,-0.081 -2.87035,1.049 -4.00362,0.023 -1.21388,-1.0986 -1.79975,-4.3037 -2.53027,-4.4443 1.79091,-4.8667 -4.88607,-1.4744 -0.74764,0.267 -0.6052,0.8848 0.0526,3.8735 -0.17284,4.6902 -1.74919,-1.6759 -6.787,-4.2194 -10.10271,-5.0364 0.978,-3.1709 5.97348,-9.8367 2.66663,-13.5594 1.58398,-1.9231 1.78416,-4.423 2.47593,-8.0018 2.41442,-1.7233 4.91846,-4.2745 6.82898,-6.7024 0.0468,-0.06 1.01683,-1.3023 1.17911,-1.7062 0.38734,-0.9641 -5.86999,-3.7714 -5.91037,-2.5479 -0.0654,1.981 -8.19435,5.1709 -8.86017,5.6956 -0.86088,0.6783 -1.58578,-7.6759 1.19451,-8.6965 1.29663,-0.476 3.98164,-0.7195 5.01384,1.61 0.17825,0.4023 1.9858,4.2743 1.16151,5.0515 -1.19654,1.1281 7.09801,-0.5692 7.13607,-0.6224 1.74052,-2.4291 2.72938,-4.5571 2.22083,-5.346 -3.39133,-5.2603 -6.5951,-6.3976 -11.76584,-6.3776 -0.0438,-0.2335 -2.77503,-5.6483 -5.34405,-5.1562 -5.62798,1.0782 -3.94194,8.0171 -4.98495,8.5789 -8.46994,4.562 -10.49201,11.5972 -13.02056,13.2537 z"
         style="display:inline;fill:#ffffff;fill-opacity:1;stroke:none" />
      <path
         sodipodi:nodetypes="scscccccccccccccccccccccccccccsccccccccccccccccsccccccccsscscscscczcsscc"
         inkscape:connector-curvature="0"
         id="path3970-5-3"
         d="m -4.0220292,2427.4851 c -0.7601804,1.9264 -18.3251478,18.5185 -15.0151018,30.9042 3.310161,12.3852 3.24747,26.2921 -2.740851,31.9766 -5.988423,5.6844 -23.425491,12.2312 -31.2616,4.8461 0.273062,-4.7467 1.455406,-6.8782 2.303904,-8.6992 -4.136057,-5.4082 -2.185993,-6.6828 -7.189771,-9.3348 0.912855,-1.1556 -1.266683,-4.5115 -1.708067,-6.7131 -1.343904,0.3924 -0.350422,4.7534 -0.873895,4.1708 -1.326388,-1.4745 -2.965687,-3.1901 -3.416134,-3.297 -0.669397,-0.159 2.247861,4.6092 1.390287,4.4489 -2.047761,-0.3821 -4.256941,-0.7123 -4.806421,-0.4766 1.987574,1.6762 4.744861,3.307 3.813359,4.0518 -1.321138,1.0563 -1.601992,2.6238 -1.588899,3.416 2.363151,-0.874 4.789566,-2.1663 4.965311,-1.5093 0.403606,1.5073 1.503582,1.9308 2.860019,3.2571 -2.04785,3.0822 -3.172905,7.3498 -3.733914,8.1432 -7.771283,-3.388 -13.664524,-2.561 -26.415456,-5.6406 1.349637,-1.0736 4.438153,-8.9605 5.521426,-10.7649 -0.864852,-2.2649 -2.691864,-3.4174 -4.647531,-3.8134 -0.560691,-1.2043 -3.833718,-4.9222 -4.925589,-4.2104 0.351307,0.7505 2.067177,2.1308 1.668345,3.8927 -1.361818,-0.9343 -2.066945,-2.0355 -3.972249,-0.9136 1.172864,0.4977 3.155104,1.0615 2.661406,2.2245 0.398311,0.732 -2.1459,1.0457 -2.423072,1.8669 0.550693,0.554 2.831927,-0.8047 3.614747,-0.1195 0.945731,0.8286 2.054602,1.7509 3.376412,2.7806 -3.412587,3.5555 -2.007957,1.7725 -5.441981,7.9841 -2.532473,-0.6325 -10.415655,-1.9223 -17.954565,-2.3038 -1.2774,-0.065 -1.82394,-2.3504 -4.32975,-1.867 -3.46546,0.6686 -2.2163,3.0708 -3.49558,3.6941 -10.33087,5.0342 -16.7811,18.4342 3.25725,13.6249 3.18401,-0.7642 6.02371,-1.2902 8.46088,-1.2711 2.44161,0.019 4.4914,0.5989 7.984224,2.9395 0.594018,1.1605 -0.649924,6.0666 0.07944,10.0895 -1.360732,1.2039 -2.994854,0.5399 -4.250314,1.6285 -1.19198,-0.6341 -4.74467,-1.4098 -5.64059,-0.6355 2.16068,0.5518 3.33669,1.5096 3.33669,1.5096 -0.77,0.8094 -1.75947,1.194 -2.58196,2.8996 1.93864,-1.023 2.71203,-0.6927 3.73391,-1.1122 -0.0191,1.1021 -1.22379,1.8223 -2.26418,3.4161 1.87912,-0.9631 2.69774,-1.5533 4.21058,-2.4231 1.970138,-1.1328 6.719304,-1.9232 9.017012,-3.2969 -0.07083,-5.1609 -1.340192,-9.5705 -0.595837,-10.0101 3.148398,2.894 33.185291,2.2492 31.460212,7.587 -0.947314,0.7354 1.604166,2.619 2.899742,4.7667 -4.396841,1.3705 -3.438493,3.342 -5.759761,3.8133 -0.557971,0.1132 -0.402246,-2.2754 -2.105292,-3.3367 -1.37117,1.4514 -0.901567,3.6943 -1.628622,3.6943 -0.108007,0 -5.08861,-0.4926 -5.441981,-0.1195 -0.596842,0.6307 3.551432,2.3052 5.005033,2.5819 -0.233339,1.7389 -5.342706,2.8007 -5.441981,4.4886 0.876399,1.1618 5.431279,-1.8252 6.593934,-1.9067 0.393335,2.1029 -3.729504,6.408 -2.105292,7.2693 2.84441,-1.0261 3.682662,-4.4297 5.362536,-6.1967 4.3131,-1.0014 4.094213,0.3512 15.213714,-9.176 -1.737596,-1.5593 -4.450662,-5.3125 -5.033407,-6.2023 16.465602,1.8191 30.695187,-3.3559 38.14494,-12.4842 7.4497651,-9.1283 11.231528,-23.9551 5.022057,-35.6935 -6.209546,-11.7386 7.3043627,-32.0472 6.8322688,-34.4395 z m -108.3629508,63.0396 c 1.46515,0 3.93252,2.2329 3.93252,2.8204 -0.99305,-0.5472 -1.87154,-0.5959 -3.33668,-0.5959 -1.46516,0 -3.60908,0.5822 -4.48864,1.0726 0,-0.5878 2.42765,-3.2971 3.8928,-3.2971 z m 9.96467,-2.4514 c 3.460186,-1.1732 14.211389,3.9491 23.724581,6.1758 8.23823,1.9283 17.051767,3.2737 20.117696,5.0542 3.06593,1.7806 26.386774,9.4086 40.397773,-5.7539 -9.971428,13.0878 -28.311293,12.5191 -41.724669,7.0698 -7.205069,-2.9273 -13.957073,-4.2174 -19.237572,-5.1993 -9.644431,-1.7934 -8.270248,-4.3479 -23.277809,-7.3466 z"
         style="display:inline;fill:#ffffff;fill-opacity:1;stroke:none" />
    </g>
  </g>
</svg>
