<?xml version="1.0" encoding="UTF-8" standalone="no"?>
<!-- Created with Inkscape (http://www.inkscape.org/) -->

<svg
   xmlns:dc="http://purl.org/dc/elements/1.1/"
   xmlns:cc="http://creativecommons.org/ns#"
   xmlns:rdf="http://www.w3.org/1999/02/22-rdf-syntax-ns#"
   xmlns:svg="http://www.w3.org/2000/svg"
   xmlns="http://www.w3.org/2000/svg"
   xmlns:sodipodi="http://sodipodi.sourceforge.net/DTD/sodipodi-0.dtd"
   xmlns:inkscape="http://www.inkscape.org/namespaces/inkscape"
   width="100%"
   height="100%"
   viewBox="0 0 99.999997 99.999997"
   id="svg13783"
   version="1.1"
   inkscape:version="0.91 r13725"
   sodipodi:docname="Coleoptera.svg">
  <defs
     id="defs13785" />
  <sodipodi:namedview
     id="base"
     pagecolor="#ffffff"
     bordercolor="#666666"
     borderopacity="1.0"
     inkscape:pageopacity="0.0"
     inkscape:pageshadow="2"
     inkscape:zoom="1.979899"
     inkscape:cx="-35.217624"
     inkscape:cy="27.626222"
     inkscape:document-units="px"
     inkscape:current-layer="layer1"
     showgrid="false"
     fit-margin-top="0"
     fit-margin-left="0"
     fit-margin-right="0"
     fit-margin-bottom="0"
     inkscape:window-width="1920"
     inkscape:window-height="1016"
     inkscape:window-x="0"
     inkscape:window-y="27"
     inkscape:window-maximized="1" />
  <metadata
     id="metadata13788">
    <rdf:RDF>
      <cc:Work
         rdf:about="">
        <dc:format>image/svg+xml</dc:format>
        <dc:type
           rdf:resource="http://purl.org/dc/dcmitype/StillImage" />
        <dc:title></dc:title>
      </cc:Work>
    </rdf:RDF>
  </metadata>
  <g
     inkscape:label="Layer 1"
     inkscape:groupmode="layer"
     id="layer1"
     transform="translate(-267.14285,-322.36221)">
    <circle
       style="opacity:1;fill:#a362cf;fill-opacity:1;stroke:none;stroke-width:10;stroke-linecap:round;stroke-linejoin:miter;stroke-miterlimit:4;stroke-dasharray:none;stroke-dashoffset:0;stroke-opacity:1"
       id="path4136-0-3-6-2-7-0-9-1"
       cx="317.14285"
       cy="372.36221"
       r="50" />
    <g
       transform="matrix(-0.63739375,0.5353229,-0.5353229,-0.63739375,762.24946,306.64112)"
       style="display:inline;fill:#ffffff;fill-opacity:1"
       id="g13204-3-5"
       inkscape:transform-center-x="-10.559695"
       inkscape:transform-center-y="-9.4481371">
      <path
         inkscape:export-ydpi="32.556522"
         inkscape:export-xdpi="32.556522"
         inkscape:export-filename="/home/tom/anymals_workspace/inkscape/TAXONFILTER/arthropods.png"
         sodipodi:nodetypes="ccccccccccccc"
         inkscape:connector-curvature="0"
         id="path4805-8-9"
         d="m 446.03571,263.50447 c -8.42127,11.56671 -13.30077,33.17648 7.78125,46.78125 2.51404,-0.0519 4.32462,3.91919 4.65625,5.5625 0.22316,-1.53661 1.36442,-5.01734 3.625,-5.53125 20.97009,-17.72727 10.22939,-38.83152 5.97129,-46.81631 z m 12.4375,52.34375 c -0.0534,0.36749 -0.0518,0.64614 0,0.71875 0.11383,-0.019 0.0819,-0.31304 0,-0.71875 z m -1.87452,-49.39911 c 0.3761,0.0584 1.19488,-0.0712 1.51427,0 2.12462,25.84616 -0.055,30.54653 0.1204,44.43084 -0.88177,-13.56859 -2.83164,-19.42068 -1.63467,-44.43084 z"
         style="fill:#ffffff;fill-opacity:1;stroke:none" />
      <path
         inkscape:export-ydpi="32.556522"
         inkscape:export-xdpi="32.556522"
         inkscape:export-filename="/home/tom/anymals_workspace/inkscape/TAXONFILTER/arthropods.png"
         sodipodi:nodetypes="ccccc"
         inkscape:connector-curvature="0"
         id="path4807-9-2"
         d="m 446.35032,262.7132 21.08692,0.25255 c 0.0942,-3.14798 -0.23094,-6.1816 -3.78807,-8.33377 -4.24902,-1.1466 -8.80466,-0.76014 -13.38452,-0.25253 -4.11501,2.30954 -3.66259,5.38033 -3.91433,8.33375 z"
         style="fill:#ffffff;fill-opacity:1;stroke:none" />
      <path
         inkscape:export-ydpi="32.556522"
         inkscape:export-xdpi="32.556522"
         inkscape:export-filename="/home/tom/anymals_workspace/inkscape/TAXONFILTER/arthropods.png"
         sodipodi:nodetypes="ccccccsscccccccc"
         inkscape:connector-curvature="0"
         id="path4809-2-2"
         d="m 453.42138,253.24302 c -0.29117,-2.30517 -0.63429,-3.4032 -0.12503,-5.2474 -0.90612,-0.21129 -1.00877,-0.10854 -2.53056,-0.40256 -1.01106,-1.52407 -0.64678,-5.16796 -0.2831,-4.80428 0,0 0.24874,2.36422 0.85902,4.03362 1.40205,0.0364 1.33166,0.11221 2.0382,0.025 -0.31498,-1.00101 0.41798,-2.14449 1.55954,-2.44881 1.63003,-0.43453 4.52889,-0.82969 5.94971,0.0395 0.77696,0.47529 2.11499,1.41189 1.87613,2.30211 0.84517,0.0349 1.23487,0.037 1.83147,-0.0489 1.76852,-0.11772 1.61932,-3.65497 1.61932,-3.65497 0.93702,0.20823 -0.20091,3.50079 -1.11479,4.51431 -0.66256,0.21099 -1.35508,-0.0988 -2.40426,0.076 -0.4376,2.45715 -0.2659,3.53188 -0.94189,5.61638 -2.46425,0.002 -5.09537,-0.74343 -8.33376,-1e-5 z"
         style="fill:#ffffff;fill-opacity:1;stroke:none" />
      <path
         inkscape:export-ydpi="32.556522"
         inkscape:export-xdpi="32.556522"
         inkscape:export-filename="/home/tom/anymals_workspace/inkscape/TAXONFILTER/arthropods.png"
         sodipodi:nodetypes="ccccc"
         inkscape:connector-curvature="0"
         id="path4811-60-8"
         d="m 445.08929,258.43979 -0.34611,3.9224 c -3.42249,-0.17129 -3.96086,-0.30022 -7.38336,-1.38437 -3.2521,-4.11187 -1.26993,-4.29803 0.23073,-4.84534 2.23791,0.20361 4.64595,0.31038 7.49874,2.30731 z"
         style="fill:#ffffff;fill-opacity:1;stroke:none" />
      <path
         inkscape:export-ydpi="32.556522"
         inkscape:export-xdpi="32.556522"
         inkscape:export-filename="/home/tom/anymals_workspace/inkscape/TAXONFILTER/arthropods.png"
         sodipodi:nodetypes="ccccccccc"
         inkscape:connector-curvature="0"
         id="path4813-51-9"
         d="m 435.57166,255.81524 c 0.0709,-0.45492 1.13371,-2.23822 0.96601,-3.3054 -0.37438,-1.44059 0.43888,-2.31976 0.43541,-3.43669 0.24254,0.0305 0.1066,1.4418 0.44144,2.67119 1.01529,-0.13751 1.2753,-3.17558 2.13724,-3.68741 0.62604,-0.72025 1.56103,-1.08097 2.94181,-0.9229 -1.35971,2.45922 -2.25682,7.71865 -2.94181,8.537 -0.78466,-1.14544 -2.58604,-0.53857 -3.9801,0.14422 z"
         style="fill:#ffffff;fill-opacity:1;stroke:none" />
      <path
         inkscape:export-ydpi="32.556522"
         inkscape:export-xdpi="32.556522"
         inkscape:export-filename="/home/tom/anymals_workspace/inkscape/TAXONFILTER/arthropods.png"
         sodipodi:nodetypes="cccccc"
         inkscape:connector-curvature="0"
         id="path4815-8-7"
         d="m 439.26334,242.51941 c 0.84102,1.02333 0.27553,2.57411 -0.0576,4.03776 0.66876,-0.67216 1.59547,-1.11576 3.17254,-0.57683 -1.52391,-4.16742 -3.08565,-12.38441 -5.19143,-12.05564 0.90791,2.94267 1.92895,5.80412 2.07652,8.59471 z"
         style="fill:#ffffff;fill-opacity:1;stroke:none" />
      <path
         inkscape:export-ydpi="32.556522"
         inkscape:export-xdpi="32.556522"
         inkscape:export-filename="/home/tom/anymals_workspace/inkscape/TAXONFILTER/arthropods.png"
         sodipodi:nodetypes="ccccc"
         inkscape:connector-curvature="0"
         id="path4817-5-3"
         d="m 441.31307,270.53866 c -1.40908,0.82917 -2.72918,3.64393 -2.81924,5.18055 -2.69767,-2.50262 -8.89404,-3.03088 -12.25197,-3.74512 -1.8528,-0.57227 -4.71318,-0.36224 -5.08478,-4.54739 3.34375,0.493 16.91674,0.37935 20.15599,3.11196 z"
         style="fill:#ffffff;fill-opacity:1;stroke:none" />
      <path
         inkscape:export-ydpi="32.556522"
         inkscape:export-xdpi="32.556522"
         inkscape:export-filename="/home/tom/anymals_workspace/inkscape/TAXONFILTER/arthropods.png"
         inkscape:transform-center-x="-0.803635"
         inkscape:transform-center-y="2.2277"
         sodipodi:nodetypes="ccccc"
         inkscape:connector-curvature="0"
         id="path4819-9-6"
         d="m 420.1593,271.33126 c -1.82267,5.34917 -1.49101,9.20067 -3.04597,15.11286 1.51025,0.4006 3.75136,0.19422 4.7212,-0.68398 0.13227,-4.9199 1.40016,-10.37924 3.54328,-12.29342 -2.09886,0.36344 -4.65888,-1.58592 -5.21851,-2.13546 z"
         style="fill:#ffffff;fill-opacity:1;stroke:none" />
      <path
         inkscape:export-ydpi="32.556522"
         inkscape:export-xdpi="32.556522"
         inkscape:export-filename="/home/tom/anymals_workspace/inkscape/TAXONFILTER/arthropods.png"
         sodipodi:nodetypes="cccccccccc"
         inkscape:connector-curvature="0"
         id="path4821-9-1"
         d="m 416.63856,288.30358 c 1.07934,0.42498 3.06516,1.57198 4.48069,0.69896 -0.47184,2.13443 -1.206,8.56365 -0.64031,17.4595 -1.55404,-0.29637 -1.47396,1.36821 -1.93999,2.37744 -0.58056,-2.50591 0.34281,-4.23406 -0.39604,-5.72403 -1.03725,-1.6052 -3.65834,-2.77974 -3.37224,-4.88257 0.54537,1.73551 2.22702,2.31205 2.84106,2.20971 -2.32202,-2.31494 -2.33359,-4.37733 -2.65165,-6.7554 0.7603,1.02493 0.93938,3.59364 2.52538,4.41942 0.0803,-3.53745 -0.26295,-5.93344 -0.8469,-9.80303 z"
         style="fill:#ffffff;fill-opacity:1;stroke:none" />
      <path
         inkscape:export-ydpi="32.556522"
         inkscape:export-xdpi="32.556522"
         inkscape:export-filename="/home/tom/anymals_workspace/inkscape/TAXONFILTER/arthropods.png"
         sodipodi:nodetypes="ccccc"
         inkscape:connector-curvature="0"
         id="path4817-0-0-2"
         d="m 437.94219,288.58982 c -0.43587,1.60418 0.33328,4.50098 1.50677,5.53068 -2.98795,0.0164 -3.32847,1.07474 -6.55631,2.24388 -1.87522,0.49385 -3.50669,-0.80495 -4.27598,-2.82686 3.09883,-1.34943 5.13129,-5.5545 9.32552,-4.9477 z"
         style="display:inline;fill:#ffffff;fill-opacity:1;stroke:none" />
      <path
         inkscape:export-ydpi="32.556522"
         inkscape:export-xdpi="32.556522"
         inkscape:export-filename="/home/tom/anymals_workspace/inkscape/TAXONFILTER/arthropods.png"
         inkscape:transform-center-x="-1.413085"
         inkscape:transform-center-y="2.3673534"
         sodipodi:nodetypes="ccccc"
         inkscape:connector-curvature="0"
         id="path4819-8-09-9"
         d="m 427.30796,296.56735 c 0.003,5.65116 2.00715,9.01052 2.44518,15.10808 1.55869,-0.10866 3.61301,-1.02789 4.24721,-2.17229 -1.46395,-4.69891 -2.56218,-8.50141 -1.15222,-11.00522 -1.86896,1.0219 -4.83305,-1.59125 -5.54017,-1.93057 z"
         style="display:inline;fill:#ffffff;fill-opacity:1;stroke:none" />
      <path
         inkscape:export-ydpi="32.556522"
         inkscape:export-xdpi="32.556522"
         inkscape:export-filename="/home/tom/anymals_workspace/inkscape/TAXONFILTER/arthropods.png"
         sodipodi:nodetypes="cccccccccc"
         inkscape:connector-curvature="0"
         id="path4821-4-9-3"
         d="m 430.38902,313.45645 c 1.15804,0.0673 2.95606,-0.0871 4.02884,-1.35791 0.21717,2.17515 0.36345,5.47707 3.67456,13.7531 -1.56897,0.20294 -0.97389,1.75957 -1.10202,2.8638 -1.33294,-2.19998 -0.99441,-4.12988 -2.16099,-5.31522 -1.48602,-1.20178 -4.34266,-1.50054 -4.72646,-3.58775 1.05929,1.47896 2.83687,1.50244 3.3884,1.21375 -2.92805,-1.47557 -3.58207,-3.43154 -4.62573,-5.5919 1.04196,0.73678 2.01301,3.12161 3.77742,3.41173 -1.02664,-3.38615 -1.20696,-3.68068 -2.25402,-5.3896 z"
         style="display:inline;fill:#ffffff;fill-opacity:1;stroke:none" />
      <g
         inkscape:export-ydpi="32.556522"
         inkscape:export-xdpi="32.556522"
         inkscape:export-filename="/home/tom/anymals_workspace/inkscape/TAXONFILTER/arthropods.png"
         transform="matrix(-1,0,0,1,715.82643,-182.85958)"
         id="g4922-9-1"
         style="fill:#ffffff;fill-opacity:1">
        <path
           style="display:inline;fill:#ffffff;fill-opacity:1;stroke:none"
           d="m 247.37896,441.45165 -0.34611,3.9224 c -3.42249,-0.17129 -3.96086,-0.30022 -7.38336,-1.38437 -3.2521,-4.11187 -1.26993,-4.29803 0.23073,-4.84534 2.23791,0.20361 4.64595,0.31038 7.49874,2.30731 z"
           id="path4811-2-6-9"
           inkscape:connector-curvature="0"
           sodipodi:nodetypes="ccccc" />
        <path
           style="display:inline;fill:#ffffff;fill-opacity:1;stroke:none"
           d="m 237.86133,438.8271 c 0.0709,-0.45492 1.13371,-2.23822 0.96601,-3.3054 -0.37438,-1.44059 0.43888,-2.31976 0.43541,-3.43669 0.24254,0.0305 0.1066,1.4418 0.44144,2.67119 1.01529,-0.13751 1.2753,-3.17558 2.13724,-3.68741 0.62604,-0.72025 1.56103,-1.08097 2.94181,-0.9229 -1.35971,2.45922 -2.25682,7.71865 -2.94181,8.537 -0.78466,-1.14544 -2.58604,-0.53857 -3.9801,0.14422 z"
           id="path4813-7-4-4"
           inkscape:connector-curvature="0"
           sodipodi:nodetypes="ccccccccc" />
        <path
           style="display:inline;fill:#ffffff;fill-opacity:1;stroke:none"
           d="m 241.55301,425.53127 c 0.84102,1.02333 0.27553,2.57411 -0.0576,4.03776 0.66876,-0.67216 1.59547,-1.11576 3.17254,-0.57683 -1.52391,-4.16742 -3.08565,-12.38441 -5.19143,-12.05564 0.90791,2.94267 1.92895,5.80412 2.07652,8.59471 z"
           id="path4815-3-9-7"
           inkscape:connector-curvature="0"
           sodipodi:nodetypes="cccccc" />
        <path
           style="display:inline;fill:#ffffff;fill-opacity:1;stroke:none"
           d="m 243.60274,453.55052 c -1.40908,0.82917 -2.72918,3.64393 -2.81924,5.18055 -2.69767,-2.50262 -8.89404,-3.03088 -12.25197,-3.74512 -1.8528,-0.57227 -4.71318,-0.36224 -5.08478,-4.54739 3.34375,0.493 16.91674,0.37935 20.15599,3.11196 z"
           id="path4817-9-6-8"
           inkscape:connector-curvature="0"
           sodipodi:nodetypes="ccccc" />
        <path
           style="display:inline;fill:#ffffff;fill-opacity:1;stroke:none"
           d="m 222.44897,454.34312 c -1.82267,5.34917 -1.49101,9.20067 -3.04597,15.11286 1.51025,0.4006 3.75136,0.19422 4.7212,-0.68398 0.13227,-4.9199 1.40016,-10.37924 3.54328,-12.29342 -2.09886,0.36344 -4.65888,-1.58592 -5.21851,-2.13546 z"
           id="path4819-0-0-4"
           inkscape:connector-curvature="0"
           sodipodi:nodetypes="ccccc"
           inkscape:transform-center-y="2.2277"
           inkscape:transform-center-x="-0.803635" />
        <path
           style="display:inline;fill:#ffffff;fill-opacity:1;stroke:none"
           d="m 218.92823,471.31544 c 1.07934,0.42498 3.06516,1.57198 4.48069,0.69896 -0.47184,2.13443 -1.206,8.56365 -0.64031,17.4595 -1.55404,-0.29637 -1.47396,1.36821 -1.93999,2.37744 -0.58056,-2.50591 0.34281,-4.23406 -0.39604,-5.72403 -1.03725,-1.6052 -3.65834,-2.77974 -3.37224,-4.88257 0.54537,1.73551 2.22702,2.31205 2.84106,2.20971 -2.32202,-2.31494 -2.33359,-4.37733 -2.65165,-6.7554 0.7603,1.02493 0.93938,3.59364 2.52538,4.41942 0.0803,-3.53745 -0.26295,-5.93344 -0.8469,-9.80303 z"
           id="path4821-1-7-5"
           inkscape:connector-curvature="0"
           sodipodi:nodetypes="cccccccccc" />
        <path
           style="display:inline;fill:#ffffff;fill-opacity:1;stroke:none"
           d="m 240.23186,471.60168 c -0.43587,1.60418 0.33328,4.50098 1.50677,5.53068 -2.98795,0.0164 -3.32847,1.07474 -6.55631,2.24388 -1.87522,0.49385 -3.50669,-0.80495 -4.27598,-2.82686 3.09883,-1.34943 5.13129,-5.5545 9.32552,-4.9477 z"
           id="path4817-0-5-15-0"
           inkscape:connector-curvature="0"
           sodipodi:nodetypes="ccccc" />
        <path
           style="display:inline;fill:#ffffff;fill-opacity:1;stroke:none"
           d="m 229.59763,479.57921 c 0.003,5.65116 2.00715,9.01052 2.44518,15.10808 1.55869,-0.10866 3.61301,-1.02789 4.24721,-2.17229 -1.46395,-4.69891 -2.56218,-8.50141 -1.15222,-11.00522 -1.86896,1.0219 -4.83305,-1.59125 -5.54017,-1.93057 z"
           id="path4819-8-0-6-3"
           inkscape:connector-curvature="0"
           sodipodi:nodetypes="ccccc"
           inkscape:transform-center-y="2.3673534"
           inkscape:transform-center-x="-1.413085" />
        <path
           style="display:inline;fill:#ffffff;fill-opacity:1;stroke:none"
           d="m 232.67869,496.46831 c 1.15804,0.0673 2.95606,-0.0871 4.02884,-1.35791 0.21717,2.17515 0.36345,5.47707 3.67456,13.7531 -1.56897,0.20294 -0.97389,1.75957 -1.10202,2.8638 -1.33294,-2.19998 -0.99441,-4.12988 -2.16099,-5.31522 -1.48602,-1.20178 -4.34266,-1.50054 -4.72646,-3.58775 1.05929,1.47896 2.83687,1.50244 3.3884,1.21375 -2.92805,-1.47557 -3.58207,-3.43154 -4.62573,-5.5919 1.04196,0.73678 2.01301,3.12161 3.77742,3.41173 -1.02664,-3.38615 -1.20696,-3.68068 -2.25402,-5.3896 z"
           id="path4821-4-6-7-6"
           inkscape:connector-curvature="0"
           sodipodi:nodetypes="cccccccccc" />
      </g>
    </g>
  </g>
</svg>
