<?xml version="1.0" encoding="utf-8" standalone="no"?>
<!DOCTYPE svg PUBLIC "-//W3C//DTD SVG 1.1//EN"
  "http://www.w3.org/Graphics/SVG/1.1/DTD/svg11.dtd">
<svg xmlns:xlink="http://www.w3.org/1999/xlink" width="431.945932pt" height="164.300625pt" viewBox="0 0 431.945932 164.300625" xmlns="http://www.w3.org/2000/svg" version="1.1">
 <metadata>
  <rdf:RDF xmlns:dc="http://purl.org/dc/elements/1.1/" xmlns:cc="http://creativecommons.org/ns#" xmlns:rdf="http://www.w3.org/1999/02/22-rdf-syntax-ns#">
   <cc:Work>
    <dc:type rdf:resource="http://purl.org/dc/dcmitype/StillImage"/>
    <dc:date>2025-07-11T12:53:11.600135</dc:date>
    <dc:format>image/svg+xml</dc:format>
    <dc:creator>
     <cc:Agent>
      <dc:title>Matplotlib v3.10.3, https://matplotlib.org/</dc:title>
     </cc:Agent>
    </dc:creator>
   </cc:Work>
  </rdf:RDF>
 </metadata>
 <defs>
  <style type="text/css">*{stroke-linejoin: round; stroke-linecap: butt}</style>
 </defs>
 <g id="figure_1">
  <g id="patch_1">
   <path d="M 0 164.300625
L 431.945932 164.300625
L 431.945932 0
L 0 0
L 0 164.300625
z
" style="fill: none"/>
  </g>
  <g id="axes_1">
   <g id="patch_2">
    <path d="M 65.921406 56.333333
L 424.789526 56.333333
L 424.789526 27.36
L 65.921406 27.36
L 65.921406 56.333333
z
" style="fill: none"/>
   </g>
   <g id="FillBetweenPolyCollection_1">
    <defs>
     <path id="m2815c7b7e0" d="M 98.159282 -107.967292
L 98.159282 -107.96749
L 99.337651 -107.967765
L 100.51602 -107.968322
L 101.694389 -107.969333
L 102.872757 -107.970976
L 104.051126 -107.973346
L 105.229495 -107.97635
L 106.407864 -107.979633
L 107.586233 -107.982603
L 108.764602 -107.984587
L 109.94297 -107.985082
L 111.121339 -107.983954
L 112.299708 -107.981502
L 113.478077 -107.978326
L 114.656446 -107.975094
L 115.834815 -107.972315
L 117.013183 -107.970237
L 118.191552 -107.968864
L 119.369921 -107.968056
L 120.54829 -107.967631
L 121.726659 -107.967431
L 122.905028 -107.967353
L 124.083397 -107.967343
L 125.261765 -107.967394
L 126.440134 -107.967544
L 127.618503 -107.967879
L 128.796872 -107.968547
L 129.975241 -107.969742
L 131.15361 -107.97167
L 132.331978 -107.974479
L 133.510347 -107.978189
L 134.688716 -107.982691
L 135.867085 -107.987849
L 137.045454 -107.993702
L 138.223823 -108.000663
L 139.402191 -108.009547
L 140.58056 -108.021353
L 141.758929 -108.036801
L 142.937298 -108.055855
L 144.115667 -108.077463
L 145.294036 -108.099751
L 146.472405 -108.120675
L 147.650773 -108.138922
L 148.829142 -108.154657
L 150.007511 -108.169682
L 151.18588 -108.186825
L 152.364249 -108.208752
L 153.542618 -108.236745
L 154.720986 -108.27004
L 155.899355 -108.306087
L 157.077724 -108.341646
L 158.256093 -108.374225
L 159.434462 -108.403284
L 160.612831 -108.430768
L 161.791199 -108.460879
L 162.969568 -108.499247
L 164.147937 -108.551723
L 165.326306 -108.623001
L 166.504675 -108.715336
L 167.683044 -108.827821
L 168.861412 -108.956692
L 170.039781 -109.096726
L 171.21815 -109.243204
L 172.396519 -109.393508
L 173.574888 -109.547607
L 174.753257 -109.707364
L 175.931626 -109.875226
L 177.109994 -110.053189
L 178.288363 -110.242663
L 179.466732 -110.445341
L 180.645101 -110.664501
L 181.82347 -110.905723
L 183.001839 -111.17598
L 184.180207 -111.480888
L 185.358576 -111.821204
L 186.536945 -112.190787
L 187.715314 -112.577972
L 188.893683 -112.970499
L 190.072052 -113.361711
L 191.25042 -113.754586
L 192.428789 -114.161168
L 193.607158 -114.597582
L 194.785527 -115.077269
L 195.963896 -115.6059
L 197.142265 -116.180234
L 198.320633 -116.790824
L 199.499002 -117.426379
L 200.677371 -118.077036
L 201.85574 -118.735163
L 203.034109 -119.394522
L 204.212478 -120.049915
L 205.390847 -120.69857
L 206.569215 -121.342313
L 207.747584 -121.988201
L 208.925953 -122.646303
L 210.104322 -123.325728
L 211.282691 -124.031556
L 212.46106 -124.764393
L 213.639428 -125.522004
L 214.817797 -126.301157
L 215.996166 -127.098369
L 217.174535 -127.909714
L 218.352904 -128.730485
L 219.531273 -129.554953
L 220.709641 -130.37575
L 221.88801 -131.182408
L 223.066379 -131.959602
L 224.244748 -132.68663
L 225.423117 -133.339871
L 226.601486 -133.898522
L 227.779854 -134.351484
L 228.958223 -134.701602
L 230.136592 -134.964324
L 231.314961 -135.161195
L 232.49333 -135.311756
L 233.671699 -135.427874
L 234.850068 -135.512185
L 236.028436 -135.559699
L 237.206805 -135.560942
L 238.385174 -135.505904
L 239.563543 -135.388537
L 240.741912 -135.21055
L 241.920281 -134.982071
L 243.098649 -134.717601
L 244.277018 -134.428581
L 245.455387 -134.116803
L 246.633756 -133.77292
L 247.812125 -133.381188
L 248.990494 -132.927605
L 250.168862 -132.406756
L 251.347231 -131.823844
L 252.5256 -131.191358
L 253.703969 -130.522432
L 254.882338 -129.824203
L 256.060707 -129.094232
L 257.239075 -128.321844
L 258.417444 -127.494214
L 259.595813 -126.604871
L 260.774182 -125.660834
L 261.952551 -124.68465
L 263.13092 -123.709516
L 264.309289 -122.768789
L 265.487657 -121.884181
L 266.666026 -121.058177
L 267.844395 -120.274663
L 269.022764 -119.507802
L 270.201133 -118.734929
L 271.379502 -117.947176
L 272.55787 -117.152884
L 273.736239 -116.372855
L 274.914608 -115.630624
L 276.092977 -114.943007
L 277.271346 -114.315189
L 278.449715 -113.741693
L 279.628083 -113.21144
L 280.806452 -112.713621
L 281.984821 -112.241634
L 283.16319 -111.794076
L 284.341559 -111.373387
L 285.519928 -110.983395
L 286.698296 -110.626902
L 287.876665 -110.304146
L 289.055034 -110.012613
L 290.233403 -109.748197
L 291.411772 -109.507065
L 292.590141 -109.287166
L 293.76851 -109.088483
L 294.946878 -108.911938
L 296.125247 -108.757756
L 297.303616 -108.624431
L 298.481985 -108.508963
L 299.660354 -108.408139
L 300.838723 -108.319902
L 302.017091 -108.243904
L 303.19546 -108.180938
L 304.373829 -108.131712
L 305.552198 -108.095765
L 306.730567 -108.071077
L 307.908936 -108.054472
L 309.087304 -108.042504
L 310.265673 -108.032371
L 311.444042 -108.022492
L 312.622411 -108.012593
L 313.80078 -108.003337
L 314.979149 -107.995718
L 316.157517 -107.990464
L 317.335886 -107.987669
L 318.514255 -107.986744
L 319.692624 -107.986664
L 320.870993 -107.98637
L 322.049362 -107.98515
L 323.227731 -107.982828
L 324.406099 -107.979716
L 325.584468 -107.976378
L 326.762837 -107.973354
L 327.941206 -107.970978
L 329.119575 -107.969334
L 330.297944 -107.968322
L 331.476312 -107.967765
L 332.654681 -107.96749
L 332.654681 -107.967292
L 332.654681 -107.967292
L 331.476312 -107.967292
L 330.297944 -107.967292
L 329.119575 -107.967292
L 327.941206 -107.967292
L 326.762837 -107.967292
L 325.584468 -107.967292
L 324.406099 -107.967292
L 323.227731 -107.967292
L 322.049362 -107.967292
L 320.870993 -107.967292
L 319.692624 -107.967292
L 318.514255 -107.967292
L 317.335886 -107.967292
L 316.157517 -107.967292
L 314.979149 -107.967292
L 313.80078 -107.967292
L 312.622411 -107.967292
L 311.444042 -107.967292
L 310.265673 -107.967292
L 309.087304 -107.967292
L 307.908936 -107.967292
L 306.730567 -107.967292
L 305.552198 -107.967292
L 304.373829 -107.967292
L 303.19546 -107.967292
L 302.017091 -107.967292
L 300.838723 -107.967292
L 299.660354 -107.967292
L 298.481985 -107.967292
L 297.303616 -107.967292
L 296.125247 -107.967292
L 294.946878 -107.967292
L 293.76851 -107.967292
L 292.590141 -107.967292
L 291.411772 -107.967292
L 290.233403 -107.967292
L 289.055034 -107.967292
L 287.876665 -107.967292
L 286.698296 -107.967292
L 285.519928 -107.967292
L 284.341559 -107.967292
L 283.16319 -107.967292
L 281.984821 -107.967292
L 280.806452 -107.967292
L 279.628083 -107.967292
L 278.449715 -107.967292
L 277.271346 -107.967292
L 276.092977 -107.967292
L 274.914608 -107.967292
L 273.736239 -107.967292
L 272.55787 -107.967292
L 271.379502 -107.967292
L 270.201133 -107.967292
L 269.022764 -107.967292
L 267.844395 -107.967292
L 266.666026 -107.967292
L 265.487657 -107.967292
L 264.309289 -107.967292
L 263.13092 -107.967292
L 261.952551 -107.967292
L 260.774182 -107.967292
L 259.595813 -107.967292
L 258.417444 -107.967292
L 257.239075 -107.967292
L 256.060707 -107.967292
L 254.882338 -107.967292
L 253.703969 -107.967292
L 252.5256 -107.967292
L 251.347231 -107.967292
L 250.168862 -107.967292
L 248.990494 -107.967292
L 247.812125 -107.967292
L 246.633756 -107.967292
L 245.455387 -107.967292
L 244.277018 -107.967292
L 243.098649 -107.967292
L 241.920281 -107.967292
L 240.741912 -107.967292
L 239.563543 -107.967292
L 238.385174 -107.967292
L 237.206805 -107.967292
L 236.028436 -107.967292
L 234.850068 -107.967292
L 233.671699 -107.967292
L 232.49333 -107.967292
L 231.314961 -107.967292
L 230.136592 -107.967292
L 228.958223 -107.967292
L 227.779854 -107.967292
L 226.601486 -107.967292
L 225.423117 -107.967292
L 224.244748 -107.967292
L 223.066379 -107.967292
L 221.88801 -107.967292
L 220.709641 -107.967292
L 219.531273 -107.967292
L 218.352904 -107.967292
L 217.174535 -107.967292
L 215.996166 -107.967292
L 214.817797 -107.967292
L 213.639428 -107.967292
L 212.46106 -107.967292
L 211.282691 -107.967292
L 210.104322 -107.967292
L 208.925953 -107.967292
L 207.747584 -107.967292
L 206.569215 -107.967292
L 205.390847 -107.967292
L 204.212478 -107.967292
L 203.034109 -107.967292
L 201.85574 -107.967292
L 200.677371 -107.967292
L 199.499002 -107.967292
L 198.320633 -107.967292
L 197.142265 -107.967292
L 195.963896 -107.967292
L 194.785527 -107.967292
L 193.607158 -107.967292
L 192.428789 -107.967292
L 191.25042 -107.967292
L 190.072052 -107.967292
L 188.893683 -107.967292
L 187.715314 -107.967292
L 186.536945 -107.967292
L 185.358576 -107.967292
L 184.180207 -107.967292
L 183.001839 -107.967292
L 181.82347 -107.967292
L 180.645101 -107.967292
L 179.466732 -107.967292
L 178.288363 -107.967292
L 177.109994 -107.967292
L 175.931626 -107.967292
L 174.753257 -107.967292
L 173.574888 -107.967292
L 172.396519 -107.967292
L 171.21815 -107.967292
L 170.039781 -107.967292
L 168.861412 -107.967292
L 167.683044 -107.967292
L 166.504675 -107.967292
L 165.326306 -107.967292
L 164.147937 -107.967292
L 162.969568 -107.967292
L 161.791199 -107.967292
L 160.612831 -107.967292
L 159.434462 -107.967292
L 158.256093 -107.967292
L 157.077724 -107.967292
L 155.899355 -107.967292
L 154.720986 -107.967292
L 153.542618 -107.967292
L 152.364249 -107.967292
L 151.18588 -107.967292
L 150.007511 -107.967292
L 148.829142 -107.967292
L 147.650773 -107.967292
L 146.472405 -107.967292
L 145.294036 -107.967292
L 144.115667 -107.967292
L 142.937298 -107.967292
L 141.758929 -107.967292
L 140.58056 -107.967292
L 139.402191 -107.967292
L 138.223823 -107.967292
L 137.045454 -107.967292
L 135.867085 -107.967292
L 134.688716 -107.967292
L 133.510347 -107.967292
L 132.331978 -107.967292
L 131.15361 -107.967292
L 129.975241 -107.967292
L 128.796872 -107.967292
L 127.618503 -107.967292
L 126.440134 -107.967292
L 125.261765 -107.967292
L 124.083397 -107.967292
L 122.905028 -107.967292
L 121.726659 -107.967292
L 120.54829 -107.967292
L 119.369921 -107.967292
L 118.191552 -107.967292
L 117.013183 -107.967292
L 115.834815 -107.967292
L 114.656446 -107.967292
L 113.478077 -107.967292
L 112.299708 -107.967292
L 111.121339 -107.967292
L 109.94297 -107.967292
L 108.764602 -107.967292
L 107.586233 -107.967292
L 106.407864 -107.967292
L 105.229495 -107.967292
L 104.051126 -107.967292
L 102.872757 -107.967292
L 101.694389 -107.967292
L 100.51602 -107.967292
L 99.337651 -107.967292
L 98.159282 -107.967292
z
" style="stroke: #808080; stroke-opacity: 0.5"/>
    </defs>
    <g clip-path="url(#pb7619195ae)">
     <use xlink:href="#m2815c7b7e0" x="0" y="164.300625" style="fill: #808080; fill-opacity: 0.5; stroke: #808080; stroke-opacity: 0.5"/>
    </g>
   </g>
   <g id="LineCollection_1">
    <path d="M 235.822977 56.333333
L 235.822977 28.74921
" clip-path="url(#pb7619195ae)" style="fill: none; stroke-dasharray: 5.55,2.4; stroke-dashoffset: 0; stroke: #000000; stroke-width: 1.5"/>
   </g>
   <g id="LineCollection_2">
    <path d="M 186.931018 56.333333
L 186.931018 51.980355
" clip-path="url(#pb7619195ae)" style="fill: none; stroke: #000000; stroke-width: 1.5"/>
   </g>
   <g id="LineCollection_3">
    <path d="M 280.87023 56.333333
L 280.87023 51.612549
" clip-path="url(#pb7619195ae)" style="fill: none; stroke: #000000; stroke-width: 1.5"/>
   </g>
   <g id="matplotlib.axis_1"/>
   <g id="matplotlib.axis_2">
    <g id="text_1">
     <!-- experiment_0 -->
     <g transform="translate(0 39.724635) scale(0.09 -0.09)">
      <defs>
       <path id="DejaVuSans-65" d="M 3597 1894
L 3597 1613
L 953 1613
Q 991 1019 1311 708
Q 1631 397 2203 397
Q 2534 397 2845 478
Q 3156 559 3463 722
L 3463 178
Q 3153 47 2828 -22
Q 2503 -91 2169 -91
Q 1331 -91 842 396
Q 353 884 353 1716
Q 353 2575 817 3079
Q 1281 3584 2069 3584
Q 2775 3584 3186 3129
Q 3597 2675 3597 1894
z
M 3022 2063
Q 3016 2534 2758 2815
Q 2500 3097 2075 3097
Q 1594 3097 1305 2825
Q 1016 2553 972 2059
L 3022 2063
z
" transform="scale(0.015625)"/>
       <path id="DejaVuSans-78" d="M 3513 3500
L 2247 1797
L 3578 0
L 2900 0
L 1881 1375
L 863 0
L 184 0
L 1544 1831
L 300 3500
L 978 3500
L 1906 2253
L 2834 3500
L 3513 3500
z
" transform="scale(0.015625)"/>
       <path id="DejaVuSans-70" d="M 1159 525
L 1159 -1331
L 581 -1331
L 581 3500
L 1159 3500
L 1159 2969
Q 1341 3281 1617 3432
Q 1894 3584 2278 3584
Q 2916 3584 3314 3078
Q 3713 2572 3713 1747
Q 3713 922 3314 415
Q 2916 -91 2278 -91
Q 1894 -91 1617 61
Q 1341 213 1159 525
z
M 3116 1747
Q 3116 2381 2855 2742
Q 2594 3103 2138 3103
Q 1681 3103 1420 2742
Q 1159 2381 1159 1747
Q 1159 1113 1420 752
Q 1681 391 2138 391
Q 2594 391 2855 752
Q 3116 1113 3116 1747
z
" transform="scale(0.015625)"/>
       <path id="DejaVuSans-72" d="M 2631 2963
Q 2534 3019 2420 3045
Q 2306 3072 2169 3072
Q 1681 3072 1420 2755
Q 1159 2438 1159 1844
L 1159 0
L 581 0
L 581 3500
L 1159 3500
L 1159 2956
Q 1341 3275 1631 3429
Q 1922 3584 2338 3584
Q 2397 3584 2469 3576
Q 2541 3569 2628 3553
L 2631 2963
z
" transform="scale(0.015625)"/>
       <path id="DejaVuSans-69" d="M 603 3500
L 1178 3500
L 1178 0
L 603 0
L 603 3500
z
M 603 4863
L 1178 4863
L 1178 4134
L 603 4134
L 603 4863
z
" transform="scale(0.015625)"/>
       <path id="DejaVuSans-6d" d="M 3328 2828
Q 3544 3216 3844 3400
Q 4144 3584 4550 3584
Q 5097 3584 5394 3201
Q 5691 2819 5691 2113
L 5691 0
L 5113 0
L 5113 2094
Q 5113 2597 4934 2840
Q 4756 3084 4391 3084
Q 3944 3084 3684 2787
Q 3425 2491 3425 1978
L 3425 0
L 2847 0
L 2847 2094
Q 2847 2600 2669 2842
Q 2491 3084 2119 3084
Q 1678 3084 1418 2786
Q 1159 2488 1159 1978
L 1159 0
L 581 0
L 581 3500
L 1159 3500
L 1159 2956
Q 1356 3278 1631 3431
Q 1906 3584 2284 3584
Q 2666 3584 2933 3390
Q 3200 3197 3328 2828
z
" transform="scale(0.015625)"/>
       <path id="DejaVuSans-6e" d="M 3513 2113
L 3513 0
L 2938 0
L 2938 2094
Q 2938 2591 2744 2837
Q 2550 3084 2163 3084
Q 1697 3084 1428 2787
Q 1159 2491 1159 1978
L 1159 0
L 581 0
L 581 3500
L 1159 3500
L 1159 2956
Q 1366 3272 1645 3428
Q 1925 3584 2291 3584
Q 2894 3584 3203 3211
Q 3513 2838 3513 2113
z
" transform="scale(0.015625)"/>
       <path id="DejaVuSans-74" d="M 1172 4494
L 1172 3500
L 2356 3500
L 2356 3053
L 1172 3053
L 1172 1153
Q 1172 725 1289 603
Q 1406 481 1766 481
L 2356 481
L 2356 0
L 1766 0
Q 1100 0 847 248
Q 594 497 594 1153
L 594 3053
L 172 3053
L 172 3500
L 594 3500
L 594 4494
L 1172 4494
z
" transform="scale(0.015625)"/>
       <path id="DejaVuSans-5f" d="M 3263 -1063
L 3263 -1509
L -63 -1509
L -63 -1063
L 3263 -1063
z
" transform="scale(0.015625)"/>
       <path id="DejaVuSans-30" d="M 2034 4250
Q 1547 4250 1301 3770
Q 1056 3291 1056 2328
Q 1056 1369 1301 889
Q 1547 409 2034 409
Q 2525 409 2770 889
Q 3016 1369 3016 2328
Q 3016 3291 2770 3770
Q 2525 4250 2034 4250
z
M 2034 4750
Q 2819 4750 3233 4129
Q 3647 3509 3647 2328
Q 3647 1150 3233 529
Q 2819 -91 2034 -91
Q 1250 -91 836 529
Q 422 1150 422 2328
Q 422 3509 836 4129
Q 1250 4750 2034 4750
z
" transform="scale(0.015625)"/>
      </defs>
      <use xlink:href="#DejaVuSans-65"/>
      <use xlink:href="#DejaVuSans-78" transform="translate(59.773438 0)"/>
      <use xlink:href="#DejaVuSans-70" transform="translate(118.953125 0)"/>
      <use xlink:href="#DejaVuSans-65" transform="translate(182.429688 0)"/>
      <use xlink:href="#DejaVuSans-72" transform="translate(243.953125 0)"/>
      <use xlink:href="#DejaVuSans-69" transform="translate(285.066406 0)"/>
      <use xlink:href="#DejaVuSans-6d" transform="translate(312.849609 0)"/>
      <use xlink:href="#DejaVuSans-65" transform="translate(410.261719 0)"/>
      <use xlink:href="#DejaVuSans-6e" transform="translate(471.785156 0)"/>
      <use xlink:href="#DejaVuSans-74" transform="translate(535.164062 0)"/>
      <use xlink:href="#DejaVuSans-5f" transform="translate(574.373047 0)"/>
      <use xlink:href="#DejaVuSans-30" transform="translate(624.373047 0)"/>
     </g>
    </g>
   </g>
   <g id="line2d_1">
    <path d="M 98.159282 56.333135
L 144.115667 56.223162
L 164.147937 55.748902
L 167.683044 55.472804
L 174.753257 54.593261
L 179.466732 53.855284
L 183.001839 53.124645
L 186.536945 52.109838
L 193.607158 49.703043
L 195.963896 48.694725
L 199.499002 46.874246
L 211.282691 40.269069
L 214.817797 37.999468
L 224.244748 31.613995
L 226.601486 30.402103
L 228.958223 29.599023
L 231.314961 29.13943
L 234.850068 28.78844
L 237.206805 28.739683
L 239.563543 28.912088
L 241.920281 29.318554
L 245.455387 30.183822
L 247.812125 30.919437
L 250.168862 31.893869
L 252.5256 33.109267
L 256.060707 35.206393
L 258.417444 36.806411
L 260.774182 38.639791
L 265.487657 42.416444
L 269.022764 44.792823
L 276.092977 49.357618
L 278.449715 50.558932
L 281.984821 52.058991
L 285.519928 53.31723
L 289.055034 54.288012
L 292.590141 55.013459
L 296.125247 55.542869
L 300.838723 55.980723
L 305.552198 56.20486
L 314.979149 56.304907
L 332.654681 56.333135
L 332.654681 56.333135
" clip-path="url(#pb7619195ae)" style="fill: none; stroke: #000000; stroke-width: 1.5; stroke-linecap: square"/>
   </g>
   <g id="PathCollection_1">
    <defs>
     <path id="m6d96991198" d="M -0 4.242641
L 4.242641 0
L 0 -4.242641
L -4.242641 -0
z
" style="stroke: #000000"/>
    </defs>
    <g>
     <use xlink:href="#m6d96991198" x="240.562222" y="56.333333" style="stroke: #000000"/>
    </g>
   </g>
   <g id="LineCollection_4">
    <path d="M 424.789526 56.333333
L 65.921406 56.333333
" style="fill: none; stroke: #000000"/>
   </g>
   <g id="LineCollection_5">
    <path d="M 98.159282 56.333333
L 98.159282 50.192492
" style="fill: none; stroke: #000000"/>
   </g>
   <g id="LineCollection_6">
    <path d="M 332.654681 56.333333
L 332.654681 50.192492
" style="fill: none; stroke: #000000"/>
   </g>
  </g>
  <g id="axes_2">
   <g id="patch_3">
    <path d="M 65.921406 96.106667
L 424.789526 96.106667
L 424.789526 67.133333
L 65.921406 67.133333
L 65.921406 96.106667
z
" style="fill: none"/>
   </g>
   <g id="FillBetweenPolyCollection_2">
    <defs>
     <path id="m4dc34941e6" d="M 305.449098 -68.193958
L 305.449098 -68.194153
L 306.024347 -68.194431
L 306.599596 -68.195
L 307.174845 -68.19604
L 307.750094 -68.197734
L 308.325343 -68.200171
L 308.900592 -68.203232
L 309.475841 -68.206515
L 310.05109 -68.209383
L 310.62634 -68.211146
L 311.201589 -68.211332
L 311.776838 -68.20989
L 312.352087 -68.207212
L 312.927336 -68.20396
L 313.502585 -68.200805
L 314.077834 -68.19821
L 314.653083 -68.196354
L 315.228332 -68.195183
L 315.803582 -68.194526
L 316.378831 -68.194197
L 316.95408 -68.19405
L 317.529329 -68.19399
L 318.104578 -68.19397
L 318.679827 -68.193969
L 319.255076 -68.193983
L 319.830325 -68.194031
L 320.405574 -68.194157
L 320.980824 -68.194452
L 321.556073 -68.195074
L 322.131322 -68.19626
L 322.706571 -68.198296
L 323.28182 -68.201444
L 323.857069 -68.205811
L 324.432318 -68.211234
L 325.007567 -68.217235
L 325.582816 -68.223128
L 326.158066 -68.228256
L 326.733315 -68.232254
L 327.308564 -68.235189
L 327.883813 -68.237469
L 328.459062 -68.239565
L 329.034311 -68.241707
L 329.60956 -68.243792
L 330.184809 -68.245565
L 330.760058 -68.246979
L 331.335308 -68.2485
L 331.910557 -68.251134
L 332.485806 -68.256135
L 333.061055 -68.264499
L 333.636304 -68.276471
L 334.211553 -68.291301
L 334.786802 -68.307448
L 335.362051 -68.323236
L 335.9373 -68.337703
L 336.51255 -68.351171
L 337.087799 -68.365096
L 337.663048 -68.381154
L 338.238297 -68.400074
L 338.813546 -68.420971
L 339.388795 -68.441705
L 339.964044 -68.460129
L 340.539293 -68.475468
L 341.114542 -68.489036
L 341.689792 -68.50391
L 342.265041 -68.523885
L 342.84029 -68.552333
L 343.415539 -68.591492
L 343.990788 -68.642278
L 344.566037 -68.704434
L 345.141286 -68.776822
L 345.716535 -68.857856
L 346.291784 -68.946097
L 346.867034 -69.040861
L 347.442283 -69.142417
L 348.017532 -69.251432
L 348.592781 -69.367853
L 349.16803 -69.490019
L 349.743279 -69.614855
L 350.318528 -69.739239
L 350.893777 -69.861586
L 351.469026 -69.982379
L 352.044276 -70.103195
L 352.619525 -70.225151
L 353.194774 -70.348291
L 353.770023 -70.472719
L 354.345272 -70.600677
L 354.920521 -70.737796
L 355.49577 -70.892087
L 356.071019 -71.070917
L 356.646268 -71.277697
L 357.221518 -71.510435
L 357.796767 -71.763048
L 358.372016 -72.028494
L 358.947265 -72.301549
L 359.522514 -72.579681
L 360.097763 -72.862363
L 360.673012 -73.150671
L 361.248261 -73.448512
L 361.82351 -73.764608
L 362.39876 -74.112618
L 362.974009 -74.507602
L 363.549258 -74.960059
L 364.124507 -75.471414
L 364.699756 -76.034383
L 365.275005 -76.638173
L 365.850254 -77.274658
L 366.425503 -77.940859
L 367.000752 -78.635993
L 367.576002 -79.355873
L 368.151251 -80.089735
L 368.7265 -80.822722
L 369.301749 -81.542701
L 369.876998 -82.246596
L 370.452247 -82.941689
L 371.027496 -83.640954
L 371.602745 -84.355343
L 372.177994 -85.087242
L 372.753244 -85.827924
L 373.328493 -86.55972
L 373.903742 -87.262383
L 374.478991 -87.922277
L 375.05424 -88.541348
L 375.629489 -89.141065
L 376.204738 -89.757216
L 376.779987 -90.42588
L 377.355236 -91.166418
L 377.930486 -91.969685
L 378.505735 -92.796949
L 379.080984 -93.589729
L 379.656233 -94.286578
L 380.231482 -94.840993
L 380.806731 -95.234527
L 381.38198 -95.480255
L 381.957229 -95.61495
L 382.532478 -95.683357
L 383.107728 -95.722186
L 383.682977 -95.751356
L 384.258226 -95.774915
L 384.833475 -95.787609
L 385.408724 -95.780227
L 385.983973 -95.7399
L 386.559222 -95.647737
L 387.134471 -95.479894
L 387.70972 -95.215725
L 388.28497 -94.849592
L 388.860219 -94.397585
L 389.435468 -93.892047
L 390.010717 -93.365072
L 390.585966 -92.830566
L 391.161215 -92.276165
L 391.736464 -91.67007
L 392.311713 -90.978298
L 392.886962 -90.181902
L 393.462212 -89.284667
L 394.037461 -88.308426
L 394.61271 -87.280714
L 395.187959 -86.223324
L 395.763208 -85.148218
L 396.338457 -84.061002
L 396.913706 -82.966663
L 397.488955 -81.871703
L 398.064204 -80.781411
L 398.639454 -79.696414
L 399.214703 -78.613784
L 399.789952 -77.533825
L 400.365201 -76.467953
L 400.94045 -75.441095
L 401.515699 -74.485551
L 402.090948 -73.62938
L 402.666197 -72.886118
L 403.241446 -72.251468
L 403.816696 -71.707834
L 404.391945 -71.233078
L 404.967194 -70.808393
L 405.542443 -70.422041
L 406.117692 -70.068832
L 406.692941 -69.747456
L 407.26819 -69.458027
L 407.843439 -69.200968
L 408.418688 -68.976909
L 408.993938 -68.786705
L 409.569187 -68.630946
L 410.144436 -68.509105
L 410.719685 -68.418842
L 411.294934 -68.355895
L 411.870183 -68.314597
L 412.445432 -68.288769
L 413.020681 -68.272615
L 413.59593 -68.261409
L 414.17118 -68.251886
L 414.746429 -68.242329
L 415.321678 -68.232364
L 415.896927 -68.222518
L 416.472176 -68.213651
L 417.047425 -68.206465
L 417.622674 -68.201242
L 418.197923 -68.197836
L 418.773172 -68.195841
L 419.348422 -68.194791
L 419.923671 -68.194294
L 419.923671 -68.193958
L 419.923671 -68.193958
L 419.348422 -68.193958
L 418.773172 -68.193958
L 418.197923 -68.193958
L 417.622674 -68.193958
L 417.047425 -68.193958
L 416.472176 -68.193958
L 415.896927 -68.193958
L 415.321678 -68.193958
L 414.746429 -68.193958
L 414.17118 -68.193958
L 413.59593 -68.193958
L 413.020681 -68.193958
L 412.445432 -68.193958
L 411.870183 -68.193958
L 411.294934 -68.193958
L 410.719685 -68.193958
L 410.144436 -68.193958
L 409.569187 -68.193958
L 408.993938 -68.193958
L 408.418688 -68.193958
L 407.843439 -68.193958
L 407.26819 -68.193958
L 406.692941 -68.193958
L 406.117692 -68.193958
L 405.542443 -68.193958
L 404.967194 -68.193958
L 404.391945 -68.193958
L 403.816696 -68.193958
L 403.241446 -68.193958
L 402.666197 -68.193958
L 402.090948 -68.193958
L 401.515699 -68.193958
L 400.94045 -68.193958
L 400.365201 -68.193958
L 399.789952 -68.193958
L 399.214703 -68.193958
L 398.639454 -68.193958
L 398.064204 -68.193958
L 397.488955 -68.193958
L 396.913706 -68.193958
L 396.338457 -68.193958
L 395.763208 -68.193958
L 395.187959 -68.193958
L 394.61271 -68.193958
L 394.037461 -68.193958
L 393.462212 -68.193958
L 392.886962 -68.193958
L 392.311713 -68.193958
L 391.736464 -68.193958
L 391.161215 -68.193958
L 390.585966 -68.193958
L 390.010717 -68.193958
L 389.435468 -68.193958
L 388.860219 -68.193958
L 388.28497 -68.193958
L 387.70972 -68.193958
L 387.134471 -68.193958
L 386.559222 -68.193958
L 385.983973 -68.193958
L 385.408724 -68.193958
L 384.833475 -68.193958
L 384.258226 -68.193958
L 383.682977 -68.193958
L 383.107728 -68.193958
L 382.532478 -68.193958
L 381.957229 -68.193958
L 381.38198 -68.193958
L 380.806731 -68.193958
L 380.231482 -68.193958
L 379.656233 -68.193958
L 379.080984 -68.193958
L 378.505735 -68.193958
L 377.930486 -68.193958
L 377.355236 -68.193958
L 376.779987 -68.193958
L 376.204738 -68.193958
L 375.629489 -68.193958
L 375.05424 -68.193958
L 374.478991 -68.193958
L 373.903742 -68.193958
L 373.328493 -68.193958
L 372.753244 -68.193958
L 372.177994 -68.193958
L 371.602745 -68.193958
L 371.027496 -68.193958
L 370.452247 -68.193958
L 369.876998 -68.193958
L 369.301749 -68.193958
L 368.7265 -68.193958
L 368.151251 -68.193958
L 367.576002 -68.193958
L 367.000752 -68.193958
L 366.425503 -68.193958
L 365.850254 -68.193958
L 365.275005 -68.193958
L 364.699756 -68.193958
L 364.124507 -68.193958
L 363.549258 -68.193958
L 362.974009 -68.193958
L 362.39876 -68.193958
L 361.82351 -68.193958
L 361.248261 -68.193958
L 360.673012 -68.193958
L 360.097763 -68.193958
L 359.522514 -68.193958
L 358.947265 -68.193958
L 358.372016 -68.193958
L 357.796767 -68.193958
L 357.221518 -68.193958
L 356.646268 -68.193958
L 356.071019 -68.193958
L 355.49577 -68.193958
L 354.920521 -68.193958
L 354.345272 -68.193958
L 353.770023 -68.193958
L 353.194774 -68.193958
L 352.619525 -68.193958
L 352.044276 -68.193958
L 351.469026 -68.193958
L 350.893777 -68.193958
L 350.318528 -68.193958
L 349.743279 -68.193958
L 349.16803 -68.193958
L 348.592781 -68.193958
L 348.017532 -68.193958
L 347.442283 -68.193958
L 346.867034 -68.193958
L 346.291784 -68.193958
L 345.716535 -68.193958
L 345.141286 -68.193958
L 344.566037 -68.193958
L 343.990788 -68.193958
L 343.415539 -68.193958
L 342.84029 -68.193958
L 342.265041 -68.193958
L 341.689792 -68.193958
L 341.114542 -68.193958
L 340.539293 -68.193958
L 339.964044 -68.193958
L 339.388795 -68.193958
L 338.813546 -68.193958
L 338.238297 -68.193958
L 337.663048 -68.193958
L 337.087799 -68.193958
L 336.51255 -68.193958
L 335.9373 -68.193958
L 335.362051 -68.193958
L 334.786802 -68.193958
L 334.211553 -68.193958
L 333.636304 -68.193958
L 333.061055 -68.193958
L 332.485806 -68.193958
L 331.910557 -68.193958
L 331.335308 -68.193958
L 330.760058 -68.193958
L 330.184809 -68.193958
L 329.60956 -68.193958
L 329.034311 -68.193958
L 328.459062 -68.193958
L 327.883813 -68.193958
L 327.308564 -68.193958
L 326.733315 -68.193958
L 326.158066 -68.193958
L 325.582816 -68.193958
L 325.007567 -68.193958
L 324.432318 -68.193958
L 323.857069 -68.193958
L 323.28182 -68.193958
L 322.706571 -68.193958
L 322.131322 -68.193958
L 321.556073 -68.193958
L 320.980824 -68.193958
L 320.405574 -68.193958
L 319.830325 -68.193958
L 319.255076 -68.193958
L 318.679827 -68.193958
L 318.104578 -68.193958
L 317.529329 -68.193958
L 316.95408 -68.193958
L 316.378831 -68.193958
L 315.803582 -68.193958
L 315.228332 -68.193958
L 314.653083 -68.193958
L 314.077834 -68.193958
L 313.502585 -68.193958
L 312.927336 -68.193958
L 312.352087 -68.193958
L 311.776838 -68.193958
L 311.201589 -68.193958
L 310.62634 -68.193958
L 310.05109 -68.193958
L 309.475841 -68.193958
L 308.900592 -68.193958
L 308.325343 -68.193958
L 307.750094 -68.193958
L 307.174845 -68.193958
L 306.599596 -68.193958
L 306.024347 -68.193958
L 305.449098 -68.193958
z
" style="stroke: #808080; stroke-opacity: 0.5"/>
    </defs>
    <g clip-path="url(#p8d3eda7a8e)">
     <use xlink:href="#m4dc34941e6" x="0" y="164.300625" style="fill: #808080; fill-opacity: 0.5; stroke: #808080; stroke-opacity: 0.5"/>
    </g>
   </g>
   <g id="LineCollection_7">
    <path d="M 382.943229 96.106667
L 382.943229 68.589543
" clip-path="url(#p8d3eda7a8e)" style="fill: none; stroke-dasharray: 5.55,2.4; stroke-dashoffset: 0; stroke: #000000; stroke-width: 1.5"/>
   </g>
   <g id="LineCollection_8">
    <path d="M 357.653599 96.106667
L 357.653599 92.600447
" clip-path="url(#p8d3eda7a8e)" style="fill: none; stroke: #000000; stroke-width: 1.5"/>
   </g>
   <g id="LineCollection_9">
    <path d="M 402.163255 96.106667
L 402.163255 90.764671
" clip-path="url(#p8d3eda7a8e)" style="fill: none; stroke: #000000; stroke-width: 1.5"/>
   </g>
   <g id="matplotlib.axis_3"/>
   <g id="matplotlib.axis_4">
    <g id="text_2">
     <!-- experiment_1 -->
     <g transform="translate(0 79.497969) scale(0.09 -0.09)">
      <defs>
       <path id="DejaVuSans-31" d="M 794 531
L 1825 531
L 1825 4091
L 703 3866
L 703 4441
L 1819 4666
L 2450 4666
L 2450 531
L 3481 531
L 3481 0
L 794 0
L 794 531
z
" transform="scale(0.015625)"/>
      </defs>
      <use xlink:href="#DejaVuSans-65"/>
      <use xlink:href="#DejaVuSans-78" transform="translate(59.773438 0)"/>
      <use xlink:href="#DejaVuSans-70" transform="translate(118.953125 0)"/>
      <use xlink:href="#DejaVuSans-65" transform="translate(182.429688 0)"/>
      <use xlink:href="#DejaVuSans-72" transform="translate(243.953125 0)"/>
      <use xlink:href="#DejaVuSans-69" transform="translate(285.066406 0)"/>
      <use xlink:href="#DejaVuSans-6d" transform="translate(312.849609 0)"/>
      <use xlink:href="#DejaVuSans-65" transform="translate(410.261719 0)"/>
      <use xlink:href="#DejaVuSans-6e" transform="translate(471.785156 0)"/>
      <use xlink:href="#DejaVuSans-74" transform="translate(535.164062 0)"/>
      <use xlink:href="#DejaVuSans-5f" transform="translate(574.373047 0)"/>
      <use xlink:href="#DejaVuSans-31" transform="translate(624.373047 0)"/>
     </g>
    </g>
   </g>
   <g id="line2d_2">
    <path d="M 305.449098 96.106472
L 334.786802 95.993177
L 343.990788 95.658347
L 346.867034 95.259764
L 350.893777 94.439039
L 355.49577 93.408538
L 357.221518 92.79019
L 360.097763 91.438262
L 362.39876 90.188007
L 363.549258 89.340566
L 365.275005 87.662452
L 367.000752 85.664632
L 375.05424 75.759277
L 376.779987 73.874745
L 378.505735 71.503676
L 379.656233 70.014047
L 380.231482 69.459632
L 380.806731 69.066098
L 381.957229 68.685675
L 383.682977 68.549269
L 385.983973 68.560725
L 387.134471 68.820731
L 388.28497 69.451033
L 390.010717 70.935553
L 391.736464 72.630555
L 392.886962 74.118723
L 394.037461 75.992199
L 396.913706 81.333962
L 400.94045 88.85953
L 402.090948 90.671245
L 403.241446 92.049157
L 404.391945 93.067547
L 406.117692 94.231793
L 407.843439 95.099657
L 409.569187 95.669679
L 411.294934 95.94473
L 414.17118 96.048739
L 419.923671 96.106331
L 419.923671 96.106331
" clip-path="url(#p8d3eda7a8e)" style="fill: none; stroke: #000000; stroke-width: 1.5; stroke-linecap: square"/>
   </g>
   <g id="PathCollection_2">
    <g>
     <use xlink:href="#m6d96991198" x="388.302291" y="96.106667" style="stroke: #000000"/>
    </g>
   </g>
   <g id="LineCollection_10">
    <path d="M 424.789526 96.106667
L 65.921406 96.106667
" style="fill: none; stroke: #000000"/>
   </g>
   <g id="LineCollection_11">
    <path d="M 305.449098 96.106667
L 305.449098 89.965825
" style="fill: none; stroke: #000000"/>
   </g>
   <g id="LineCollection_12">
    <path d="M 419.923671 96.106667
L 419.923671 89.965825
" style="fill: none; stroke: #000000"/>
   </g>
  </g>
  <g id="axes_3">
   <g id="patch_4">
    <path d="M 65.921406 135.88
L 424.789526 135.88
L 424.789526 106.906667
L 65.921406 106.906667
L 65.921406 135.88
z
" style="fill: none"/>
   </g>
   <g id="FillBetweenPolyCollection_3">
    <defs>
     <path id="medd14400c6" d="M 302.664498 -28.420625
L 302.664498 -28.420819
L 303.151991 -28.421074
L 303.639484 -28.421579
L 304.126977 -28.422483
L 304.61447 -28.423943
L 305.101963 -28.426059
L 305.589456 -28.428784
L 306.07695 -28.431858
L 306.564443 -28.434804
L 307.051936 -28.437036
L 307.539429 -28.438041
L 308.026922 -28.437572
L 308.514415 -28.435745
L 309.001908 -28.432994
L 309.489402 -28.429904
L 309.976895 -28.42701
L 310.464388 -28.424661
L 310.951881 -28.422988
L 311.439374 -28.421958
L 311.926867 -28.421472
L 312.41436 -28.421453
L 312.901853 -28.421905
L 313.389347 -28.422912
L 313.87684 -28.424607
L 314.364333 -28.427094
L 314.851826 -28.430372
L 315.339319 -28.434283
L 315.826812 -28.438539
L 316.314305 -28.442841
L 316.801799 -28.447046
L 317.289292 -28.451321
L 317.776785 -28.456199
L 318.264278 -28.462496
L 318.751771 -28.471112
L 319.239264 -28.482764
L 319.726757 -28.497777
L 320.214251 -28.516012
L 320.701744 -28.537046
L 321.189237 -28.560561
L 321.67673 -28.586779
L 322.164223 -28.616742
L 322.651716 -28.652291
L 323.139209 -28.69576
L 323.626702 -28.749542
L 324.114196 -28.815617
L 324.601689 -28.895098
L 325.089182 -28.987803
L 325.576675 -29.092068
L 326.064168 -29.205109
L 326.551661 -29.324141
L 327.039154 -29.447973
L 327.526648 -29.578263
L 328.014141 -29.719445
L 328.501634 -29.876887
L 328.989127 -30.053928
L 329.47662 -30.249415
L 329.964113 -30.457439
L 330.451606 -30.669949
L 330.9391 -30.881185
L 331.426593 -31.091587
L 331.914086 -31.30891
L 332.401579 -31.545834
L 332.889072 -31.815384
L 333.376565 -32.126597
L 333.864058 -32.482522
L 334.351551 -32.881067
L 334.839045 -33.317667
L 335.326538 -33.787947
L 335.814031 -34.288929
L 336.301524 -34.818365
L 336.789017 -35.37293
L 337.27651 -35.946624
L 337.764003 -36.53047
L 338.251497 -37.113809
L 338.73899 -37.686581
L 339.226483 -38.241788
L 339.713976 -38.777586
L 340.201469 -39.29876
L 340.688962 -39.817201
L 341.176455 -40.350751
L 341.663948 -40.919939
L 342.151442 -41.543131
L 342.638935 -42.23175
L 343.126428 -42.987553
L 343.613921 -43.802996
L 344.101414 -44.664031
L 344.588907 -45.553545
L 345.0764 -46.453894
L 345.563894 -47.348156
L 346.051387 -48.220825
L 346.53888 -49.058764
L 347.026373 -49.852585
L 347.513866 -50.597849
L 348.001359 -51.295161
L 348.488852 -51.948542
L 348.976346 -52.562292
L 349.463839 -53.137707
L 349.951332 -53.671626
L 350.438825 -54.157926
L 350.926318 -54.591022
L 351.413811 -54.968641
L 351.901304 -55.291541
L 352.388797 -55.560418
L 352.876291 -55.772762
L 353.363784 -55.922619
L 353.851277 -56.003813
L 354.33877 -56.014276
L 354.826263 -55.958303
L 355.313756 -55.845143
L 355.801249 -55.684824
L 356.288743 -55.483545
L 356.776236 -55.240725
L 357.263729 -54.94869
L 357.751222 -54.59504
L 358.238715 -54.167178
L 358.726208 -53.657884
L 359.213701 -53.070183
L 359.701195 -52.419441
L 360.188688 -51.731433
L 360.676181 -51.036748
L 361.163674 -50.363434
L 361.651167 -49.730098
L 362.13866 -49.141028
L 362.626153 -48.584029
L 363.113646 -48.031582
L 363.60114 -47.446178
L 364.088633 -46.790128
L 364.576126 -46.038006
L 365.063619 -45.187355
L 365.551112 -44.262423
L 366.038605 -43.308175
L 366.526098 -42.37649
L 367.013592 -41.510391
L 367.501085 -40.732787
L 367.988578 -40.043395
L 368.476071 -39.423516
L 368.963564 -38.845469
L 369.451057 -38.282787
L 369.93855 -37.717993
L 370.426043 -37.146004
L 370.913537 -36.572652
L 371.40103 -36.009378
L 371.888523 -35.466707
L 372.376016 -34.949563
L 372.863509 -34.456431
L 373.351002 -33.982173
L 373.838495 -33.522367
L 374.325989 -33.076632
L 374.813482 -32.649471
L 375.300975 -32.248798
L 375.788468 -31.883341
L 376.275961 -31.560089
L 376.763454 -31.282452
L 377.250947 -31.049259
L 377.738441 -30.854571
L 378.225934 -30.688332
L 378.713427 -30.537961
L 379.20092 -30.3908
L 379.688413 -30.23694
L 380.175906 -30.071573
L 380.663399 -29.89592
L 381.150892 -29.716299
L 381.638386 -29.541681
L 382.125879 -29.380729
L 382.613372 -29.239445
L 383.100865 -29.12008
L 383.588358 -29.021366
L 384.075851 -28.939651
L 384.563344 -28.870429
L 385.050838 -28.809772
L 385.538331 -28.75527
L 386.025824 -28.706243
L 386.513317 -28.663198
L 387.00081 -28.626883
L 387.488303 -28.597425
L 387.975796 -28.573995
L 388.463289 -28.555085
L 388.950783 -28.539123
L 389.438276 -28.525025
L 389.925769 -28.512394
L 390.413262 -28.50134
L 390.900755 -28.49211
L 391.388248 -28.484748
L 391.875741 -28.478963
L 392.363235 -28.474212
L 392.850728 -28.469895
L 393.338221 -28.465539
L 393.825714 -28.460866
L 394.313207 -28.45579
L 394.8007 -28.45037
L 395.288193 -28.444785
L 395.775687 -28.439313
L 396.26318 -28.434282
L 396.750673 -28.429986
L 397.238166 -28.426608
L 397.725659 -28.424174
L 398.213152 -28.422572
L 398.700645 -28.421611
L 399.188138 -28.421084
L 399.675632 -28.420822
L 399.675632 -28.420625
L 399.675632 -28.420625
L 399.188138 -28.420625
L 398.700645 -28.420625
L 398.213152 -28.420625
L 397.725659 -28.420625
L 397.238166 -28.420625
L 396.750673 -28.420625
L 396.26318 -28.420625
L 395.775687 -28.420625
L 395.288193 -28.420625
L 394.8007 -28.420625
L 394.313207 -28.420625
L 393.825714 -28.420625
L 393.338221 -28.420625
L 392.850728 -28.420625
L 392.363235 -28.420625
L 391.875741 -28.420625
L 391.388248 -28.420625
L 390.900755 -28.420625
L 390.413262 -28.420625
L 389.925769 -28.420625
L 389.438276 -28.420625
L 388.950783 -28.420625
L 388.463289 -28.420625
L 387.975796 -28.420625
L 387.488303 -28.420625
L 387.00081 -28.420625
L 386.513317 -28.420625
L 386.025824 -28.420625
L 385.538331 -28.420625
L 385.050838 -28.420625
L 384.563344 -28.420625
L 384.075851 -28.420625
L 383.588358 -28.420625
L 383.100865 -28.420625
L 382.613372 -28.420625
L 382.125879 -28.420625
L 381.638386 -28.420625
L 381.150892 -28.420625
L 380.663399 -28.420625
L 380.175906 -28.420625
L 379.688413 -28.420625
L 379.20092 -28.420625
L 378.713427 -28.420625
L 378.225934 -28.420625
L 377.738441 -28.420625
L 377.250947 -28.420625
L 376.763454 -28.420625
L 376.275961 -28.420625
L 375.788468 -28.420625
L 375.300975 -28.420625
L 374.813482 -28.420625
L 374.325989 -28.420625
L 373.838495 -28.420625
L 373.351002 -28.420625
L 372.863509 -28.420625
L 372.376016 -28.420625
L 371.888523 -28.420625
L 371.40103 -28.420625
L 370.913537 -28.420625
L 370.426043 -28.420625
L 369.93855 -28.420625
L 369.451057 -28.420625
L 368.963564 -28.420625
L 368.476071 -28.420625
L 367.988578 -28.420625
L 367.501085 -28.420625
L 367.013592 -28.420625
L 366.526098 -28.420625
L 366.038605 -28.420625
L 365.551112 -28.420625
L 365.063619 -28.420625
L 364.576126 -28.420625
L 364.088633 -28.420625
L 363.60114 -28.420625
L 363.113646 -28.420625
L 362.626153 -28.420625
L 362.13866 -28.420625
L 361.651167 -28.420625
L 361.163674 -28.420625
L 360.676181 -28.420625
L 360.188688 -28.420625
L 359.701195 -28.420625
L 359.213701 -28.420625
L 358.726208 -28.420625
L 358.238715 -28.420625
L 357.751222 -28.420625
L 357.263729 -28.420625
L 356.776236 -28.420625
L 356.288743 -28.420625
L 355.801249 -28.420625
L 355.313756 -28.420625
L 354.826263 -28.420625
L 354.33877 -28.420625
L 353.851277 -28.420625
L 353.363784 -28.420625
L 352.876291 -28.420625
L 352.388797 -28.420625
L 351.901304 -28.420625
L 351.413811 -28.420625
L 350.926318 -28.420625
L 350.438825 -28.420625
L 349.951332 -28.420625
L 349.463839 -28.420625
L 348.976346 -28.420625
L 348.488852 -28.420625
L 348.001359 -28.420625
L 347.513866 -28.420625
L 347.026373 -28.420625
L 346.53888 -28.420625
L 346.051387 -28.420625
L 345.563894 -28.420625
L 345.0764 -28.420625
L 344.588907 -28.420625
L 344.101414 -28.420625
L 343.613921 -28.420625
L 343.126428 -28.420625
L 342.638935 -28.420625
L 342.151442 -28.420625
L 341.663948 -28.420625
L 341.176455 -28.420625
L 340.688962 -28.420625
L 340.201469 -28.420625
L 339.713976 -28.420625
L 339.226483 -28.420625
L 338.73899 -28.420625
L 338.251497 -28.420625
L 337.764003 -28.420625
L 337.27651 -28.420625
L 336.789017 -28.420625
L 336.301524 -28.420625
L 335.814031 -28.420625
L 335.326538 -28.420625
L 334.839045 -28.420625
L 334.351551 -28.420625
L 333.864058 -28.420625
L 333.376565 -28.420625
L 332.889072 -28.420625
L 332.401579 -28.420625
L 331.914086 -28.420625
L 331.426593 -28.420625
L 330.9391 -28.420625
L 330.451606 -28.420625
L 329.964113 -28.420625
L 329.47662 -28.420625
L 328.989127 -28.420625
L 328.501634 -28.420625
L 328.014141 -28.420625
L 327.526648 -28.420625
L 327.039154 -28.420625
L 326.551661 -28.420625
L 326.064168 -28.420625
L 325.576675 -28.420625
L 325.089182 -28.420625
L 324.601689 -28.420625
L 324.114196 -28.420625
L 323.626702 -28.420625
L 323.139209 -28.420625
L 322.651716 -28.420625
L 322.164223 -28.420625
L 321.67673 -28.420625
L 321.189237 -28.420625
L 320.701744 -28.420625
L 320.214251 -28.420625
L 319.726757 -28.420625
L 319.239264 -28.420625
L 318.751771 -28.420625
L 318.264278 -28.420625
L 317.776785 -28.420625
L 317.289292 -28.420625
L 316.801799 -28.420625
L 316.314305 -28.420625
L 315.826812 -28.420625
L 315.339319 -28.420625
L 314.851826 -28.420625
L 314.364333 -28.420625
L 313.87684 -28.420625
L 313.389347 -28.420625
L 312.901853 -28.420625
L 312.41436 -28.420625
L 311.926867 -28.420625
L 311.439374 -28.420625
L 310.951881 -28.420625
L 310.464388 -28.420625
L 309.976895 -28.420625
L 309.489402 -28.420625
L 309.001908 -28.420625
L 308.514415 -28.420625
L 308.026922 -28.420625
L 307.539429 -28.420625
L 307.051936 -28.420625
L 306.564443 -28.420625
L 306.07695 -28.420625
L 305.589456 -28.420625
L 305.101963 -28.420625
L 304.61447 -28.420625
L 304.126977 -28.420625
L 303.639484 -28.420625
L 303.151991 -28.420625
L 302.664498 -28.420625
z
" style="stroke: #808080; stroke-opacity: 0.5"/>
    </defs>
    <g clip-path="url(#p82dfbbd4ec)">
     <use xlink:href="#medd14400c6" x="0" y="164.300625" style="fill: #808080; fill-opacity: 0.5; stroke: #808080; stroke-opacity: 0.5"/>
    </g>
   </g>
   <g id="LineCollection_13">
    <path d="M 354.442517 135.88
L 354.442517 108.298261
" clip-path="url(#p82dfbbd4ec)" style="fill: none; stroke-dasharray: 5.55,2.4; stroke-dashoffset: 0; stroke: #000000; stroke-width: 1.5"/>
   </g>
   <g id="LineCollection_14">
    <path d="M 333.93174 135.88
L 333.93174 131.76277
" clip-path="url(#p82dfbbd4ec)" style="fill: none; stroke: #000000; stroke-width: 1.5"/>
   </g>
   <g id="LineCollection_15">
    <path d="M 374.898 135.88
L 374.898 131.72062
" clip-path="url(#p82dfbbd4ec)" style="fill: none; stroke: #000000; stroke-width: 1.5"/>
   </g>
   <g id="matplotlib.axis_5">
    <g id="xtick_1">
     <g id="line2d_3">
      <defs>
       <path id="m09406c8927" d="M 0 0
L 0 3.5
" style="stroke: #000000; stroke-width: 0.8"/>
      </defs>
      <g>
       <use xlink:href="#m09406c8927" x="65.921406" y="135.88" style="stroke: #000000; stroke-width: 0.8"/>
      </g>
     </g>
     <g id="text_3">
      <!-- 0.5 -->
      <g transform="translate(58.765 149.718594) scale(0.09 -0.09)">
       <defs>
        <path id="DejaVuSans-2e" d="M 684 794
L 1344 794
L 1344 0
L 684 0
L 684 794
z
" transform="scale(0.015625)"/>
        <path id="DejaVuSans-35" d="M 691 4666
L 3169 4666
L 3169 4134
L 1269 4134
L 1269 2991
Q 1406 3038 1543 3061
Q 1681 3084 1819 3084
Q 2600 3084 3056 2656
Q 3513 2228 3513 1497
Q 3513 744 3044 326
Q 2575 -91 1722 -91
Q 1428 -91 1123 -41
Q 819 9 494 109
L 494 744
Q 775 591 1075 516
Q 1375 441 1709 441
Q 2250 441 2565 725
Q 2881 1009 2881 1497
Q 2881 1984 2565 2268
Q 2250 2553 1709 2553
Q 1456 2553 1204 2497
Q 953 2441 691 2322
L 691 4666
z
" transform="scale(0.015625)"/>
       </defs>
       <use xlink:href="#DejaVuSans-30"/>
       <use xlink:href="#DejaVuSans-2e" transform="translate(63.623047 0)"/>
       <use xlink:href="#DejaVuSans-35" transform="translate(95.410156 0)"/>
      </g>
     </g>
    </g>
    <g id="xtick_2">
     <g id="line2d_4">
      <g>
       <use xlink:href="#m09406c8927" x="137.69503" y="135.88" style="stroke: #000000; stroke-width: 0.8"/>
      </g>
     </g>
     <g id="text_4">
      <!-- 0.6 -->
      <g transform="translate(130.538624 149.718594) scale(0.09 -0.09)">
       <defs>
        <path id="DejaVuSans-36" d="M 2113 2584
Q 1688 2584 1439 2293
Q 1191 2003 1191 1497
Q 1191 994 1439 701
Q 1688 409 2113 409
Q 2538 409 2786 701
Q 3034 994 3034 1497
Q 3034 2003 2786 2293
Q 2538 2584 2113 2584
z
M 3366 4563
L 3366 3988
Q 3128 4100 2886 4159
Q 2644 4219 2406 4219
Q 1781 4219 1451 3797
Q 1122 3375 1075 2522
Q 1259 2794 1537 2939
Q 1816 3084 2150 3084
Q 2853 3084 3261 2657
Q 3669 2231 3669 1497
Q 3669 778 3244 343
Q 2819 -91 2113 -91
Q 1303 -91 875 529
Q 447 1150 447 2328
Q 447 3434 972 4092
Q 1497 4750 2381 4750
Q 2619 4750 2861 4703
Q 3103 4656 3366 4563
z
" transform="scale(0.015625)"/>
       </defs>
       <use xlink:href="#DejaVuSans-30"/>
       <use xlink:href="#DejaVuSans-2e" transform="translate(63.623047 0)"/>
       <use xlink:href="#DejaVuSans-36" transform="translate(95.410156 0)"/>
      </g>
     </g>
    </g>
    <g id="xtick_3">
     <g id="line2d_5">
      <g>
       <use xlink:href="#m09406c8927" x="209.468654" y="135.88" style="stroke: #000000; stroke-width: 0.8"/>
      </g>
     </g>
     <g id="text_5">
      <!-- 0.7 -->
      <g transform="translate(202.312248 149.718594) scale(0.09 -0.09)">
       <defs>
        <path id="DejaVuSans-37" d="M 525 4666
L 3525 4666
L 3525 4397
L 1831 0
L 1172 0
L 2766 4134
L 525 4134
L 525 4666
z
" transform="scale(0.015625)"/>
       </defs>
       <use xlink:href="#DejaVuSans-30"/>
       <use xlink:href="#DejaVuSans-2e" transform="translate(63.623047 0)"/>
       <use xlink:href="#DejaVuSans-37" transform="translate(95.410156 0)"/>
      </g>
     </g>
    </g>
    <g id="xtick_4">
     <g id="line2d_6">
      <g>
       <use xlink:href="#m09406c8927" x="281.242278" y="135.88" style="stroke: #000000; stroke-width: 0.8"/>
      </g>
     </g>
     <g id="text_6">
      <!-- 0.8 -->
      <g transform="translate(274.085872 149.718594) scale(0.09 -0.09)">
       <defs>
        <path id="DejaVuSans-38" d="M 2034 2216
Q 1584 2216 1326 1975
Q 1069 1734 1069 1313
Q 1069 891 1326 650
Q 1584 409 2034 409
Q 2484 409 2743 651
Q 3003 894 3003 1313
Q 3003 1734 2745 1975
Q 2488 2216 2034 2216
z
M 1403 2484
Q 997 2584 770 2862
Q 544 3141 544 3541
Q 544 4100 942 4425
Q 1341 4750 2034 4750
Q 2731 4750 3128 4425
Q 3525 4100 3525 3541
Q 3525 3141 3298 2862
Q 3072 2584 2669 2484
Q 3125 2378 3379 2068
Q 3634 1759 3634 1313
Q 3634 634 3220 271
Q 2806 -91 2034 -91
Q 1263 -91 848 271
Q 434 634 434 1313
Q 434 1759 690 2068
Q 947 2378 1403 2484
z
M 1172 3481
Q 1172 3119 1398 2916
Q 1625 2713 2034 2713
Q 2441 2713 2670 2916
Q 2900 3119 2900 3481
Q 2900 3844 2670 4047
Q 2441 4250 2034 4250
Q 1625 4250 1398 4047
Q 1172 3844 1172 3481
z
" transform="scale(0.015625)"/>
       </defs>
       <use xlink:href="#DejaVuSans-30"/>
       <use xlink:href="#DejaVuSans-2e" transform="translate(63.623047 0)"/>
       <use xlink:href="#DejaVuSans-38" transform="translate(95.410156 0)"/>
      </g>
     </g>
    </g>
    <g id="xtick_5">
     <g id="line2d_7">
      <g>
       <use xlink:href="#m09406c8927" x="353.015902" y="135.88" style="stroke: #000000; stroke-width: 0.8"/>
      </g>
     </g>
     <g id="text_7">
      <!-- 0.9 -->
      <g transform="translate(345.859496 149.718594) scale(0.09 -0.09)">
       <defs>
        <path id="DejaVuSans-39" d="M 703 97
L 703 672
Q 941 559 1184 500
Q 1428 441 1663 441
Q 2288 441 2617 861
Q 2947 1281 2994 2138
Q 2813 1869 2534 1725
Q 2256 1581 1919 1581
Q 1219 1581 811 2004
Q 403 2428 403 3163
Q 403 3881 828 4315
Q 1253 4750 1959 4750
Q 2769 4750 3195 4129
Q 3622 3509 3622 2328
Q 3622 1225 3098 567
Q 2575 -91 1691 -91
Q 1453 -91 1209 -44
Q 966 3 703 97
z
M 1959 2075
Q 2384 2075 2632 2365
Q 2881 2656 2881 3163
Q 2881 3666 2632 3958
Q 2384 4250 1959 4250
Q 1534 4250 1286 3958
Q 1038 3666 1038 3163
Q 1038 2656 1286 2365
Q 1534 2075 1959 2075
z
" transform="scale(0.015625)"/>
       </defs>
       <use xlink:href="#DejaVuSans-30"/>
       <use xlink:href="#DejaVuSans-2e" transform="translate(63.623047 0)"/>
       <use xlink:href="#DejaVuSans-39" transform="translate(95.410156 0)"/>
      </g>
     </g>
    </g>
    <g id="xtick_6">
     <g id="line2d_8">
      <g>
       <use xlink:href="#m09406c8927" x="424.789526" y="135.88" style="stroke: #000000; stroke-width: 0.8"/>
      </g>
     </g>
     <g id="text_8">
      <!-- 1.0 -->
      <g transform="translate(417.63312 149.718594) scale(0.09 -0.09)">
       <use xlink:href="#DejaVuSans-31"/>
       <use xlink:href="#DejaVuSans-2e" transform="translate(63.623047 0)"/>
       <use xlink:href="#DejaVuSans-30" transform="translate(95.410156 0)"/>
      </g>
     </g>
    </g>
    <g id="text_9">
     <!-- Balanced Accuracy -->
     <g transform="translate(202.575232 162.428906) scale(0.09 -0.09)">
      <defs>
       <path id="DejaVuSans-42" d="M 1259 2228
L 1259 519
L 2272 519
Q 2781 519 3026 730
Q 3272 941 3272 1375
Q 3272 1813 3026 2020
Q 2781 2228 2272 2228
L 1259 2228
z
M 1259 4147
L 1259 2741
L 2194 2741
Q 2656 2741 2882 2914
Q 3109 3088 3109 3444
Q 3109 3797 2882 3972
Q 2656 4147 2194 4147
L 1259 4147
z
M 628 4666
L 2241 4666
Q 2963 4666 3353 4366
Q 3744 4066 3744 3513
Q 3744 3084 3544 2831
Q 3344 2578 2956 2516
Q 3422 2416 3680 2098
Q 3938 1781 3938 1306
Q 3938 681 3513 340
Q 3088 0 2303 0
L 628 0
L 628 4666
z
" transform="scale(0.015625)"/>
       <path id="DejaVuSans-61" d="M 2194 1759
Q 1497 1759 1228 1600
Q 959 1441 959 1056
Q 959 750 1161 570
Q 1363 391 1709 391
Q 2188 391 2477 730
Q 2766 1069 2766 1631
L 2766 1759
L 2194 1759
z
M 3341 1997
L 3341 0
L 2766 0
L 2766 531
Q 2569 213 2275 61
Q 1981 -91 1556 -91
Q 1019 -91 701 211
Q 384 513 384 1019
Q 384 1609 779 1909
Q 1175 2209 1959 2209
L 2766 2209
L 2766 2266
Q 2766 2663 2505 2880
Q 2244 3097 1772 3097
Q 1472 3097 1187 3025
Q 903 2953 641 2809
L 641 3341
Q 956 3463 1253 3523
Q 1550 3584 1831 3584
Q 2591 3584 2966 3190
Q 3341 2797 3341 1997
z
" transform="scale(0.015625)"/>
       <path id="DejaVuSans-6c" d="M 603 4863
L 1178 4863
L 1178 0
L 603 0
L 603 4863
z
" transform="scale(0.015625)"/>
       <path id="DejaVuSans-63" d="M 3122 3366
L 3122 2828
Q 2878 2963 2633 3030
Q 2388 3097 2138 3097
Q 1578 3097 1268 2742
Q 959 2388 959 1747
Q 959 1106 1268 751
Q 1578 397 2138 397
Q 2388 397 2633 464
Q 2878 531 3122 666
L 3122 134
Q 2881 22 2623 -34
Q 2366 -91 2075 -91
Q 1284 -91 818 406
Q 353 903 353 1747
Q 353 2603 823 3093
Q 1294 3584 2113 3584
Q 2378 3584 2631 3529
Q 2884 3475 3122 3366
z
" transform="scale(0.015625)"/>
       <path id="DejaVuSans-64" d="M 2906 2969
L 2906 4863
L 3481 4863
L 3481 0
L 2906 0
L 2906 525
Q 2725 213 2448 61
Q 2172 -91 1784 -91
Q 1150 -91 751 415
Q 353 922 353 1747
Q 353 2572 751 3078
Q 1150 3584 1784 3584
Q 2172 3584 2448 3432
Q 2725 3281 2906 2969
z
M 947 1747
Q 947 1113 1208 752
Q 1469 391 1925 391
Q 2381 391 2643 752
Q 2906 1113 2906 1747
Q 2906 2381 2643 2742
Q 2381 3103 1925 3103
Q 1469 3103 1208 2742
Q 947 2381 947 1747
z
" transform="scale(0.015625)"/>
       <path id="DejaVuSans-20" transform="scale(0.015625)"/>
       <path id="DejaVuSans-41" d="M 2188 4044
L 1331 1722
L 3047 1722
L 2188 4044
z
M 1831 4666
L 2547 4666
L 4325 0
L 3669 0
L 3244 1197
L 1141 1197
L 716 0
L 50 0
L 1831 4666
z
" transform="scale(0.015625)"/>
       <path id="DejaVuSans-75" d="M 544 1381
L 544 3500
L 1119 3500
L 1119 1403
Q 1119 906 1312 657
Q 1506 409 1894 409
Q 2359 409 2629 706
Q 2900 1003 2900 1516
L 2900 3500
L 3475 3500
L 3475 0
L 2900 0
L 2900 538
Q 2691 219 2414 64
Q 2138 -91 1772 -91
Q 1169 -91 856 284
Q 544 659 544 1381
z
M 1991 3584
L 1991 3584
z
" transform="scale(0.015625)"/>
       <path id="DejaVuSans-79" d="M 2059 -325
Q 1816 -950 1584 -1140
Q 1353 -1331 966 -1331
L 506 -1331
L 506 -850
L 844 -850
Q 1081 -850 1212 -737
Q 1344 -625 1503 -206
L 1606 56
L 191 3500
L 800 3500
L 1894 763
L 2988 3500
L 3597 3500
L 2059 -325
z
" transform="scale(0.015625)"/>
      </defs>
      <use xlink:href="#DejaVuSans-42"/>
      <use xlink:href="#DejaVuSans-61" transform="translate(68.603516 0)"/>
      <use xlink:href="#DejaVuSans-6c" transform="translate(129.882812 0)"/>
      <use xlink:href="#DejaVuSans-61" transform="translate(157.666016 0)"/>
      <use xlink:href="#DejaVuSans-6e" transform="translate(218.945312 0)"/>
      <use xlink:href="#DejaVuSans-63" transform="translate(282.324219 0)"/>
      <use xlink:href="#DejaVuSans-65" transform="translate(337.304688 0)"/>
      <use xlink:href="#DejaVuSans-64" transform="translate(398.828125 0)"/>
      <use xlink:href="#DejaVuSans-20" transform="translate(462.304688 0)"/>
      <use xlink:href="#DejaVuSans-41" transform="translate(494.091797 0)"/>
      <use xlink:href="#DejaVuSans-63" transform="translate(560.75 0)"/>
      <use xlink:href="#DejaVuSans-63" transform="translate(615.730469 0)"/>
      <use xlink:href="#DejaVuSans-75" transform="translate(670.710938 0)"/>
      <use xlink:href="#DejaVuSans-72" transform="translate(734.089844 0)"/>
      <use xlink:href="#DejaVuSans-61" transform="translate(775.203125 0)"/>
      <use xlink:href="#DejaVuSans-63" transform="translate(836.482422 0)"/>
      <use xlink:href="#DejaVuSans-79" transform="translate(891.462891 0)"/>
     </g>
    </g>
   </g>
   <g id="matplotlib.axis_6">
    <g id="text_10">
     <!-- Aggregated -->
     <g transform="translate(9.293906 123.876771) scale(0.09 -0.09)">
      <defs>
       <path id="DejaVuSans-67" d="M 2906 1791
Q 2906 2416 2648 2759
Q 2391 3103 1925 3103
Q 1463 3103 1205 2759
Q 947 2416 947 1791
Q 947 1169 1205 825
Q 1463 481 1925 481
Q 2391 481 2648 825
Q 2906 1169 2906 1791
z
M 3481 434
Q 3481 -459 3084 -895
Q 2688 -1331 1869 -1331
Q 1566 -1331 1297 -1286
Q 1028 -1241 775 -1147
L 775 -588
Q 1028 -725 1275 -790
Q 1522 -856 1778 -856
Q 2344 -856 2625 -561
Q 2906 -266 2906 331
L 2906 616
Q 2728 306 2450 153
Q 2172 0 1784 0
Q 1141 0 747 490
Q 353 981 353 1791
Q 353 2603 747 3093
Q 1141 3584 1784 3584
Q 2172 3584 2450 3431
Q 2728 3278 2906 2969
L 2906 3500
L 3481 3500
L 3481 434
z
" transform="scale(0.015625)"/>
      </defs>
      <use xlink:href="#DejaVuSans-41"/>
      <use xlink:href="#DejaVuSans-67" transform="translate(68.408203 0)"/>
      <use xlink:href="#DejaVuSans-67" transform="translate(131.884766 0)"/>
      <use xlink:href="#DejaVuSans-72" transform="translate(195.361328 0)"/>
      <use xlink:href="#DejaVuSans-65" transform="translate(234.224609 0)"/>
      <use xlink:href="#DejaVuSans-67" transform="translate(295.748047 0)"/>
      <use xlink:href="#DejaVuSans-61" transform="translate(359.224609 0)"/>
      <use xlink:href="#DejaVuSans-74" transform="translate(420.503906 0)"/>
      <use xlink:href="#DejaVuSans-65" transform="translate(459.712891 0)"/>
      <use xlink:href="#DejaVuSans-64" transform="translate(521.236328 0)"/>
     </g>
    </g>
   </g>
   <g id="line2d_9">
    <path d="M 302.664498 135.879806
L 320.701744 135.763579
L 323.626702 135.551083
L 325.576675 135.208557
L 328.501634 134.423738
L 330.451606 133.630676
L 332.889072 132.485241
L 333.864058 131.818103
L 335.326538 130.512678
L 337.27651 128.354001
L 340.201469 125.001865
L 341.663948 123.380686
L 342.638935 122.068875
L 344.101414 119.636594
L 347.026373 114.44804
L 348.488852 112.352083
L 349.951332 110.628999
L 350.926318 109.709603
L 351.901304 109.009084
L 352.876291 108.527863
L 353.851277 108.296812
L 354.826263 108.342322
L 355.801249 108.615801
L 356.776236 109.0599
L 357.751222 109.705585
L 358.726208 110.642741
L 360.188688 112.569192
L 362.13866 115.159597
L 364.088633 117.510497
L 365.063619 119.11327
L 367.501085 123.567838
L 368.963564 125.455156
L 372.863509 129.844194
L 374.813482 131.651154
L 376.275961 132.740536
L 377.738441 133.446054
L 383.100865 135.180545
L 385.050838 135.490853
L 387.975796 135.72663
L 393.338221 135.835086
L 399.675632 135.879803
L 399.675632 135.879803
" clip-path="url(#p82dfbbd4ec)" style="fill: none; stroke: #000000; stroke-width: 1.5; stroke-linecap: square"/>
   </g>
   <g id="patch_5">
    <path d="M 65.921406 135.88
L 424.789526 135.88
" style="fill: none; stroke: #000000; stroke-width: 0.8; stroke-linejoin: miter; stroke-linecap: square"/>
   </g>
   <g id="LineCollection_16">
    <path d="M 424.789526 135.88
L 65.921406 135.88
" style="fill: none; stroke: #000000"/>
   </g>
   <g id="LineCollection_17">
    <path d="M 302.664498 135.88
L 302.664498 129.739158
" style="fill: none; stroke: #000000"/>
   </g>
   <g id="LineCollection_18">
    <path d="M 399.675632 135.88
L 399.675632 129.739158
" style="fill: none; stroke: #000000"/>
   </g>
  </g>
  <g id="text_11">
   <!-- Group group w/ Fixed-effect Gaussian meta-analytical experiment aggregator -->
   <g transform="translate(41.234451 6.838594) scale(0.09 -0.09)">
    <defs>
     <path id="DejaVuSans-47" d="M 3809 666
L 3809 1919
L 2778 1919
L 2778 2438
L 4434 2438
L 4434 434
Q 4069 175 3628 42
Q 3188 -91 2688 -91
Q 1594 -91 976 548
Q 359 1188 359 2328
Q 359 3472 976 4111
Q 1594 4750 2688 4750
Q 3144 4750 3555 4637
Q 3966 4525 4313 4306
L 4313 3634
Q 3963 3931 3569 4081
Q 3175 4231 2741 4231
Q 1884 4231 1454 3753
Q 1025 3275 1025 2328
Q 1025 1384 1454 906
Q 1884 428 2741 428
Q 3075 428 3337 486
Q 3600 544 3809 666
z
" transform="scale(0.015625)"/>
     <path id="DejaVuSans-6f" d="M 1959 3097
Q 1497 3097 1228 2736
Q 959 2375 959 1747
Q 959 1119 1226 758
Q 1494 397 1959 397
Q 2419 397 2687 759
Q 2956 1122 2956 1747
Q 2956 2369 2687 2733
Q 2419 3097 1959 3097
z
M 1959 3584
Q 2709 3584 3137 3096
Q 3566 2609 3566 1747
Q 3566 888 3137 398
Q 2709 -91 1959 -91
Q 1206 -91 779 398
Q 353 888 353 1747
Q 353 2609 779 3096
Q 1206 3584 1959 3584
z
" transform="scale(0.015625)"/>
     <path id="DejaVuSans-77" d="M 269 3500
L 844 3500
L 1563 769
L 2278 3500
L 2956 3500
L 3675 769
L 4391 3500
L 4966 3500
L 4050 0
L 3372 0
L 2619 2869
L 1863 0
L 1184 0
L 269 3500
z
" transform="scale(0.015625)"/>
     <path id="DejaVuSans-2f" d="M 1625 4666
L 2156 4666
L 531 -594
L 0 -594
L 1625 4666
z
" transform="scale(0.015625)"/>
     <path id="DejaVuSans-46" d="M 628 4666
L 3309 4666
L 3309 4134
L 1259 4134
L 1259 2759
L 3109 2759
L 3109 2228
L 1259 2228
L 1259 0
L 628 0
L 628 4666
z
" transform="scale(0.015625)"/>
     <path id="DejaVuSans-2d" d="M 313 2009
L 1997 2009
L 1997 1497
L 313 1497
L 313 2009
z
" transform="scale(0.015625)"/>
     <path id="DejaVuSans-66" d="M 2375 4863
L 2375 4384
L 1825 4384
Q 1516 4384 1395 4259
Q 1275 4134 1275 3809
L 1275 3500
L 2222 3500
L 2222 3053
L 1275 3053
L 1275 0
L 697 0
L 697 3053
L 147 3053
L 147 3500
L 697 3500
L 697 3744
Q 697 4328 969 4595
Q 1241 4863 1831 4863
L 2375 4863
z
" transform="scale(0.015625)"/>
     <path id="DejaVuSans-73" d="M 2834 3397
L 2834 2853
Q 2591 2978 2328 3040
Q 2066 3103 1784 3103
Q 1356 3103 1142 2972
Q 928 2841 928 2578
Q 928 2378 1081 2264
Q 1234 2150 1697 2047
L 1894 2003
Q 2506 1872 2764 1633
Q 3022 1394 3022 966
Q 3022 478 2636 193
Q 2250 -91 1575 -91
Q 1294 -91 989 -36
Q 684 19 347 128
L 347 722
Q 666 556 975 473
Q 1284 391 1588 391
Q 1994 391 2212 530
Q 2431 669 2431 922
Q 2431 1156 2273 1281
Q 2116 1406 1581 1522
L 1381 1569
Q 847 1681 609 1914
Q 372 2147 372 2553
Q 372 3047 722 3315
Q 1072 3584 1716 3584
Q 2034 3584 2315 3537
Q 2597 3491 2834 3397
z
" transform="scale(0.015625)"/>
    </defs>
    <use xlink:href="#DejaVuSans-47"/>
    <use xlink:href="#DejaVuSans-72" transform="translate(77.490234 0)"/>
    <use xlink:href="#DejaVuSans-6f" transform="translate(116.353516 0)"/>
    <use xlink:href="#DejaVuSans-75" transform="translate(177.535156 0)"/>
    <use xlink:href="#DejaVuSans-70" transform="translate(240.914062 0)"/>
    <use xlink:href="#DejaVuSans-20" transform="translate(304.390625 0)"/>
    <use xlink:href="#DejaVuSans-67" transform="translate(336.177734 0)"/>
    <use xlink:href="#DejaVuSans-72" transform="translate(399.654297 0)"/>
    <use xlink:href="#DejaVuSans-6f" transform="translate(438.517578 0)"/>
    <use xlink:href="#DejaVuSans-75" transform="translate(499.699219 0)"/>
    <use xlink:href="#DejaVuSans-70" transform="translate(563.078125 0)"/>
    <use xlink:href="#DejaVuSans-20" transform="translate(626.554688 0)"/>
    <use xlink:href="#DejaVuSans-77" transform="translate(658.341797 0)"/>
    <use xlink:href="#DejaVuSans-2f" transform="translate(740.128906 0)"/>
    <use xlink:href="#DejaVuSans-20" transform="translate(773.820312 0)"/>
    <use xlink:href="#DejaVuSans-46" transform="translate(805.607422 0)"/>
    <use xlink:href="#DejaVuSans-69" transform="translate(855.876953 0)"/>
    <use xlink:href="#DejaVuSans-78" transform="translate(883.660156 0)"/>
    <use xlink:href="#DejaVuSans-65" transform="translate(939.714844 0)"/>
    <use xlink:href="#DejaVuSans-64" transform="translate(1001.238281 0)"/>
    <use xlink:href="#DejaVuSans-2d" transform="translate(1064.714844 0)"/>
    <use xlink:href="#DejaVuSans-65" transform="translate(1100.798828 0)"/>
    <use xlink:href="#DejaVuSans-66" transform="translate(1162.322266 0)"/>
    <use xlink:href="#DejaVuSans-66" transform="translate(1197.527344 0)"/>
    <use xlink:href="#DejaVuSans-65" transform="translate(1232.732422 0)"/>
    <use xlink:href="#DejaVuSans-63" transform="translate(1294.255859 0)"/>
    <use xlink:href="#DejaVuSans-74" transform="translate(1349.236328 0)"/>
    <use xlink:href="#DejaVuSans-20" transform="translate(1388.445312 0)"/>
    <use xlink:href="#DejaVuSans-47" transform="translate(1420.232422 0)"/>
    <use xlink:href="#DejaVuSans-61" transform="translate(1497.722656 0)"/>
    <use xlink:href="#DejaVuSans-75" transform="translate(1559.001953 0)"/>
    <use xlink:href="#DejaVuSans-73" transform="translate(1622.380859 0)"/>
    <use xlink:href="#DejaVuSans-73" transform="translate(1674.480469 0)"/>
    <use xlink:href="#DejaVuSans-69" transform="translate(1726.580078 0)"/>
    <use xlink:href="#DejaVuSans-61" transform="translate(1754.363281 0)"/>
    <use xlink:href="#DejaVuSans-6e" transform="translate(1815.642578 0)"/>
    <use xlink:href="#DejaVuSans-20" transform="translate(1879.021484 0)"/>
    <use xlink:href="#DejaVuSans-6d" transform="translate(1910.808594 0)"/>
    <use xlink:href="#DejaVuSans-65" transform="translate(2008.220703 0)"/>
    <use xlink:href="#DejaVuSans-74" transform="translate(2069.744141 0)"/>
    <use xlink:href="#DejaVuSans-61" transform="translate(2108.953125 0)"/>
    <use xlink:href="#DejaVuSans-2d" transform="translate(2170.232422 0)"/>
    <use xlink:href="#DejaVuSans-61" transform="translate(2206.316406 0)"/>
    <use xlink:href="#DejaVuSans-6e" transform="translate(2267.595703 0)"/>
    <use xlink:href="#DejaVuSans-61" transform="translate(2330.974609 0)"/>
    <use xlink:href="#DejaVuSans-6c" transform="translate(2392.253906 0)"/>
    <use xlink:href="#DejaVuSans-79" transform="translate(2420.037109 0)"/>
    <use xlink:href="#DejaVuSans-74" transform="translate(2479.216797 0)"/>
    <use xlink:href="#DejaVuSans-69" transform="translate(2518.425781 0)"/>
    <use xlink:href="#DejaVuSans-63" transform="translate(2546.208984 0)"/>
    <use xlink:href="#DejaVuSans-61" transform="translate(2601.189453 0)"/>
    <use xlink:href="#DejaVuSans-6c" transform="translate(2662.46875 0)"/>
    <use xlink:href="#DejaVuSans-20" transform="translate(2690.251953 0)"/>
    <use xlink:href="#DejaVuSans-65" transform="translate(2722.039062 0)"/>
    <use xlink:href="#DejaVuSans-78" transform="translate(2781.8125 0)"/>
    <use xlink:href="#DejaVuSans-70" transform="translate(2840.992188 0)"/>
    <use xlink:href="#DejaVuSans-65" transform="translate(2904.46875 0)"/>
    <use xlink:href="#DejaVuSans-72" transform="translate(2965.992188 0)"/>
    <use xlink:href="#DejaVuSans-69" transform="translate(3007.105469 0)"/>
    <use xlink:href="#DejaVuSans-6d" transform="translate(3034.888672 0)"/>
    <use xlink:href="#DejaVuSans-65" transform="translate(3132.300781 0)"/>
    <use xlink:href="#DejaVuSans-6e" transform="translate(3193.824219 0)"/>
    <use xlink:href="#DejaVuSans-74" transform="translate(3257.203125 0)"/>
    <use xlink:href="#DejaVuSans-20" transform="translate(3296.412109 0)"/>
    <use xlink:href="#DejaVuSans-61" transform="translate(3328.199219 0)"/>
    <use xlink:href="#DejaVuSans-67" transform="translate(3389.478516 0)"/>
    <use xlink:href="#DejaVuSans-67" transform="translate(3452.955078 0)"/>
    <use xlink:href="#DejaVuSans-72" transform="translate(3516.431641 0)"/>
    <use xlink:href="#DejaVuSans-65" transform="translate(3555.294922 0)"/>
    <use xlink:href="#DejaVuSans-67" transform="translate(3616.818359 0)"/>
    <use xlink:href="#DejaVuSans-61" transform="translate(3680.294922 0)"/>
    <use xlink:href="#DejaVuSans-74" transform="translate(3741.574219 0)"/>
    <use xlink:href="#DejaVuSans-6f" transform="translate(3780.783203 0)"/>
    <use xlink:href="#DejaVuSans-72" transform="translate(3841.964844 0)"/>
   </g>
  </g>
 </g>
 <defs>
  <clipPath id="pb7619195ae">
   <rect x="65.921406" y="27.36" width="358.86812" height="28.973333"/>
  </clipPath>
  <clipPath id="p8d3eda7a8e">
   <rect x="65.921406" y="67.133333" width="358.86812" height="28.973333"/>
  </clipPath>
  <clipPath id="p82dfbbd4ec">
   <rect x="65.921406" y="106.906667" width="358.86812" height="28.973333"/>
  </clipPath>
 </defs>
</svg>
