<?xml version="1.0" encoding="utf-8" standalone="no"?>
<!DOCTYPE svg PUBLIC "-//W3C//DTD SVG 1.1//EN"
  "http://www.w3.org/Graphics/SVG/1.1/DTD/svg11.dtd">
<svg xmlns:xlink="http://www.w3.org/1999/xlink" width="431.945932pt" height="164.300625pt" viewBox="0 0 431.945932 164.300625" xmlns="http://www.w3.org/2000/svg" version="1.1">
 <metadata>
  <rdf:RDF xmlns:dc="http://purl.org/dc/elements/1.1/" xmlns:cc="http://creativecommons.org/ns#" xmlns:rdf="http://www.w3.org/1999/02/22-rdf-syntax-ns#">
   <cc:Work>
    <dc:type rdf:resource="http://purl.org/dc/dcmitype/StillImage"/>
    <dc:date>2025-07-11T12:53:15.104078</dc:date>
    <dc:format>image/svg+xml</dc:format>
    <dc:creator>
     <cc:Agent>
      <dc:title>Matplotlib v3.10.3, https://matplotlib.org/</dc:title>
     </cc:Agent>
    </dc:creator>
   </cc:Work>
  </rdf:RDF>
 </metadata>
 <defs>
  <style type="text/css">*{stroke-linejoin: round; stroke-linecap: butt}</style>
 </defs>
 <g id="figure_1">
  <g id="patch_1">
   <path d="M 0 164.300625
L 431.945932 164.300625
L 431.945932 0
L 0 0
L 0 164.300625
z
" style="fill: none"/>
  </g>
  <g id="axes_1">
   <g id="patch_2">
    <path d="M 65.921406 56.333333
L 424.789526 56.333333
L 424.789526 27.36
L 65.921406 27.36
L 65.921406 56.333333
z
" style="fill: none"/>
   </g>
   <g id="FillBetweenPolyCollection_1">
    <defs>
     <path id="m23f44a1546" d="M 117.621996 -107.967292
L 117.621996 -107.967509
L 118.682887 -107.967782
L 119.743777 -107.968326
L 120.804667 -107.969333
L 121.865558 -107.971066
L 122.926448 -107.973845
L 123.987338 -107.977991
L 125.048229 -107.98375
L 126.109119 -107.991187
L 127.170009 -108.000087
L 128.2309 -108.0099
L 129.29179 -108.019766
L 130.352681 -108.028643
L 131.413571 -108.035521
L 132.474461 -108.0397
L 133.535352 -108.041023
L 134.596242 -108.040009
L 135.657132 -108.0378
L 136.718023 -108.03593
L 137.778913 -108.035957
L 138.839803 -108.03907
L 139.900694 -108.04578
L 140.961584 -108.055817
L 142.022474 -108.068252
L 143.083365 -108.08182
L 144.144255 -108.09528
L 145.205145 -108.107681
L 146.266036 -108.118425
L 147.326926 -108.127176
L 148.387816 -108.133758
L 149.448707 -108.13823
L 150.509597 -108.141161
L 151.570488 -108.144006
L 152.631378 -108.149336
L 153.692268 -108.160693
L 154.753159 -108.181998
L 155.814049 -108.216637
L 156.874939 -108.266483
L 157.93583 -108.331169
L 158.99672 -108.407835
L 160.05761 -108.4915
L 161.118501 -108.576042
L 162.179391 -108.655584
L 163.240281 -108.725942
L 164.301172 -108.785676
L 165.362062 -108.83642
L 166.422952 -108.882389
L 167.483843 -108.929299
L 168.544733 -108.983108
L 169.605624 -109.048971
L 170.666514 -109.130655
L 171.727404 -109.230411
L 172.788295 -109.349203
L 173.849185 -109.487109
L 174.910075 -109.643725
L 175.970966 -109.818422
L 177.031856 -110.010364
L 178.092746 -110.218275
L 179.153637 -110.440151
L 180.214527 -110.67316
L 181.275417 -110.913966
L 182.336308 -111.159484
L 183.397198 -111.407816
L 184.458088 -111.658956
L 185.518979 -111.91494
L 186.579869 -112.179335
L 187.640759 -112.45627
L 188.70165 -112.749354
L 189.76254 -113.060853
L 190.823431 -113.391311
L 191.884321 -113.739642
L 192.945211 -114.103561
L 194.006102 -114.480156
L 195.066992 -114.866479
L 196.127882 -115.260102
L 197.188773 -115.659748
L 198.249663 -116.066031
L 199.310553 -116.482124
L 200.371444 -116.913883
L 201.432334 -117.36898
L 202.493224 -117.855018
L 203.554115 -118.377261
L 204.615005 -118.93698
L 205.675895 -119.531203
L 206.736786 -120.153901
L 207.797676 -120.797959
L 208.858567 -121.457041
L 209.919457 -122.126764
L 210.980347 -122.80511
L 212.041238 -123.492269
L 213.102128 -124.190096
L 214.163018 -124.901198
L 215.223909 -125.627677
L 216.284799 -126.369756
L 217.345689 -127.124647
L 218.40658 -127.886047
L 219.46747 -128.644449
L 220.52836 -129.388201
L 221.589251 -130.105071
L 222.650141 -130.783877
L 223.711031 -131.415619
L 224.771922 -131.993602
L 225.832812 -132.512561
L 226.893702 -132.967579
L 227.954593 -133.354187
L 229.015483 -133.670608
L 230.076374 -133.921592
L 231.137264 -134.121537
L 232.198154 -134.293978
L 233.259045 -134.465959
L 234.319935 -134.658669
L 235.380825 -134.878257
L 236.441716 -135.111302
L 237.502606 -135.327484
L 238.563496 -135.488699
L 239.624387 -135.560942
L 240.685277 -135.524224
L 241.746167 -135.376906
L 242.807058 -135.133467
L 243.867948 -134.817297
L 244.928838 -134.4517
L 245.989729 -134.052414
L 247.050619 -133.624006
L 248.11151 -133.161069
L 249.1724 -132.653541
L 250.23329 -132.093993
L 251.294181 -131.483871
L 252.355071 -130.835826
L 253.415961 -130.170827
L 254.476852 -129.511092
L 255.537742 -128.871873
L 256.598632 -128.25575
L 257.659523 -127.651908
L 258.720413 -127.040612
L 259.781303 -126.400835
L 260.842194 -125.717782
L 261.903084 -124.98739
L 262.963974 -124.21639
L 264.024865 -123.418532
L 265.085755 -122.609118
L 266.146645 -121.800375
L 267.207536 -120.999398
L 268.268426 -120.208856
L 269.329317 -119.429259
L 270.390207 -118.661089
L 271.451097 -117.905743
L 272.511988 -117.165337
L 273.572878 -116.442274
L 274.633768 -115.739403
L 275.694659 -115.060818
L 276.755549 -114.412545
L 277.816439 -113.802267
L 278.87733 -113.237859
L 279.93822 -112.725303
L 280.99911 -112.266983
L 282.060001 -111.861089
L 283.120891 -111.502258
L 284.181781 -111.18298
L 285.242672 -110.895175
L 286.303562 -110.631448
L 287.364453 -110.38587
L 288.425343 -110.154326
L 289.486233 -109.934568
L 290.547124 -109.72605
L 291.608014 -109.529547
L 292.668904 -109.346553
L 293.729795 -109.178526
L 294.790685 -109.026205
L 295.851575 -108.889256
L 296.912466 -108.766436
L 297.973356 -108.656195
L 299.034246 -108.557384
L 300.095137 -108.469682
L 301.156027 -108.393493
L 302.216917 -108.329373
L 303.277808 -108.277298
L 304.338698 -108.23615
L 305.399589 -108.203658
L 306.460479 -108.176839
L 307.521369 -108.152735
L 308.58226 -108.129177
L 309.64315 -108.105252
L 310.70404 -108.081321
L 311.764931 -108.058609
L 312.825821 -108.038546
L 313.886711 -108.022146
L 314.947602 -108.009663
L 316.008492 -108.000609
L 317.069382 -107.994052
L 318.130273 -107.989004
L 319.191163 -107.984733
L 320.252053 -107.980876
L 321.312944 -107.977382
L 322.373834 -107.974361
L 323.434724 -107.97193
L 324.495615 -107.970131
L 325.556505 -107.968909
L 326.617396 -107.968148
L 327.678286 -107.967713
L 328.739176 -107.967484
L 328.739176 -107.967292
L 328.739176 -107.967292
L 327.678286 -107.967292
L 326.617396 -107.967292
L 325.556505 -107.967292
L 324.495615 -107.967292
L 323.434724 -107.967292
L 322.373834 -107.967292
L 321.312944 -107.967292
L 320.252053 -107.967292
L 319.191163 -107.967292
L 318.130273 -107.967292
L 317.069382 -107.967292
L 316.008492 -107.967292
L 314.947602 -107.967292
L 313.886711 -107.967292
L 312.825821 -107.967292
L 311.764931 -107.967292
L 310.70404 -107.967292
L 309.64315 -107.967292
L 308.58226 -107.967292
L 307.521369 -107.967292
L 306.460479 -107.967292
L 305.399589 -107.967292
L 304.338698 -107.967292
L 303.277808 -107.967292
L 302.216917 -107.967292
L 301.156027 -107.967292
L 300.095137 -107.967292
L 299.034246 -107.967292
L 297.973356 -107.967292
L 296.912466 -107.967292
L 295.851575 -107.967292
L 294.790685 -107.967292
L 293.729795 -107.967292
L 292.668904 -107.967292
L 291.608014 -107.967292
L 290.547124 -107.967292
L 289.486233 -107.967292
L 288.425343 -107.967292
L 287.364453 -107.967292
L 286.303562 -107.967292
L 285.242672 -107.967292
L 284.181781 -107.967292
L 283.120891 -107.967292
L 282.060001 -107.967292
L 280.99911 -107.967292
L 279.93822 -107.967292
L 278.87733 -107.967292
L 277.816439 -107.967292
L 276.755549 -107.967292
L 275.694659 -107.967292
L 274.633768 -107.967292
L 273.572878 -107.967292
L 272.511988 -107.967292
L 271.451097 -107.967292
L 270.390207 -107.967292
L 269.329317 -107.967292
L 268.268426 -107.967292
L 267.207536 -107.967292
L 266.146645 -107.967292
L 265.085755 -107.967292
L 264.024865 -107.967292
L 262.963974 -107.967292
L 261.903084 -107.967292
L 260.842194 -107.967292
L 259.781303 -107.967292
L 258.720413 -107.967292
L 257.659523 -107.967292
L 256.598632 -107.967292
L 255.537742 -107.967292
L 254.476852 -107.967292
L 253.415961 -107.967292
L 252.355071 -107.967292
L 251.294181 -107.967292
L 250.23329 -107.967292
L 249.1724 -107.967292
L 248.11151 -107.967292
L 247.050619 -107.967292
L 245.989729 -107.967292
L 244.928838 -107.967292
L 243.867948 -107.967292
L 242.807058 -107.967292
L 241.746167 -107.967292
L 240.685277 -107.967292
L 239.624387 -107.967292
L 238.563496 -107.967292
L 237.502606 -107.967292
L 236.441716 -107.967292
L 235.380825 -107.967292
L 234.319935 -107.967292
L 233.259045 -107.967292
L 232.198154 -107.967292
L 231.137264 -107.967292
L 230.076374 -107.967292
L 229.015483 -107.967292
L 227.954593 -107.967292
L 226.893702 -107.967292
L 225.832812 -107.967292
L 224.771922 -107.967292
L 223.711031 -107.967292
L 222.650141 -107.967292
L 221.589251 -107.967292
L 220.52836 -107.967292
L 219.46747 -107.967292
L 218.40658 -107.967292
L 217.345689 -107.967292
L 216.284799 -107.967292
L 215.223909 -107.967292
L 214.163018 -107.967292
L 213.102128 -107.967292
L 212.041238 -107.967292
L 210.980347 -107.967292
L 209.919457 -107.967292
L 208.858567 -107.967292
L 207.797676 -107.967292
L 206.736786 -107.967292
L 205.675895 -107.967292
L 204.615005 -107.967292
L 203.554115 -107.967292
L 202.493224 -107.967292
L 201.432334 -107.967292
L 200.371444 -107.967292
L 199.310553 -107.967292
L 198.249663 -107.967292
L 197.188773 -107.967292
L 196.127882 -107.967292
L 195.066992 -107.967292
L 194.006102 -107.967292
L 192.945211 -107.967292
L 191.884321 -107.967292
L 190.823431 -107.967292
L 189.76254 -107.967292
L 188.70165 -107.967292
L 187.640759 -107.967292
L 186.579869 -107.967292
L 185.518979 -107.967292
L 184.458088 -107.967292
L 183.397198 -107.967292
L 182.336308 -107.967292
L 181.275417 -107.967292
L 180.214527 -107.967292
L 179.153637 -107.967292
L 178.092746 -107.967292
L 177.031856 -107.967292
L 175.970966 -107.967292
L 174.910075 -107.967292
L 173.849185 -107.967292
L 172.788295 -107.967292
L 171.727404 -107.967292
L 170.666514 -107.967292
L 169.605624 -107.967292
L 168.544733 -107.967292
L 167.483843 -107.967292
L 166.422952 -107.967292
L 165.362062 -107.967292
L 164.301172 -107.967292
L 163.240281 -107.967292
L 162.179391 -107.967292
L 161.118501 -107.967292
L 160.05761 -107.967292
L 158.99672 -107.967292
L 157.93583 -107.967292
L 156.874939 -107.967292
L 155.814049 -107.967292
L 154.753159 -107.967292
L 153.692268 -107.967292
L 152.631378 -107.967292
L 151.570488 -107.967292
L 150.509597 -107.967292
L 149.448707 -107.967292
L 148.387816 -107.967292
L 147.326926 -107.967292
L 146.266036 -107.967292
L 145.205145 -107.967292
L 144.144255 -107.967292
L 143.083365 -107.967292
L 142.022474 -107.967292
L 140.961584 -107.967292
L 139.900694 -107.967292
L 138.839803 -107.967292
L 137.778913 -107.967292
L 136.718023 -107.967292
L 135.657132 -107.967292
L 134.596242 -107.967292
L 133.535352 -107.967292
L 132.474461 -107.967292
L 131.413571 -107.967292
L 130.352681 -107.967292
L 129.29179 -107.967292
L 128.2309 -107.967292
L 127.170009 -107.967292
L 126.109119 -107.967292
L 125.048229 -107.967292
L 123.987338 -107.967292
L 122.926448 -107.967292
L 121.865558 -107.967292
L 120.804667 -107.967292
L 119.743777 -107.967292
L 118.682887 -107.967292
L 117.621996 -107.967292
z
" style="stroke: #808080; stroke-opacity: 0.5"/>
    </defs>
    <g clip-path="url(#pe432bc657a)">
     <use xlink:href="#m23f44a1546" x="0" y="164.300625" style="fill: #808080; fill-opacity: 0.5; stroke: #808080; stroke-opacity: 0.5"/>
    </g>
   </g>
   <g id="LineCollection_1">
    <path d="M 236.716585 56.333333
L 236.716585 29.133312
" clip-path="url(#pe432bc657a)" style="fill: none; stroke-dasharray: 5.55,2.4; stroke-dashoffset: 0; stroke: #000000; stroke-width: 1.5"/>
   </g>
   <g id="LineCollection_2">
    <path d="M 184.397468 56.333333
L 184.397468 52.656019
" clip-path="url(#pe432bc657a)" style="fill: none; stroke: #000000; stroke-width: 1.5"/>
   </g>
   <g id="LineCollection_3">
    <path d="M 279.971743 56.333333
L 279.971743 51.589804
" clip-path="url(#pe432bc657a)" style="fill: none; stroke: #000000; stroke-width: 1.5"/>
   </g>
   <g id="matplotlib.axis_1"/>
   <g id="matplotlib.axis_2">
    <g id="text_1">
     <!-- experiment_0 -->
     <g transform="translate(0 39.724635) scale(0.09 -0.09)">
      <defs>
       <path id="DejaVuSans-65" d="M 3597 1894
L 3597 1613
L 953 1613
Q 991 1019 1311 708
Q 1631 397 2203 397
Q 2534 397 2845 478
Q 3156 559 3463 722
L 3463 178
Q 3153 47 2828 -22
Q 2503 -91 2169 -91
Q 1331 -91 842 396
Q 353 884 353 1716
Q 353 2575 817 3079
Q 1281 3584 2069 3584
Q 2775 3584 3186 3129
Q 3597 2675 3597 1894
z
M 3022 2063
Q 3016 2534 2758 2815
Q 2500 3097 2075 3097
Q 1594 3097 1305 2825
Q 1016 2553 972 2059
L 3022 2063
z
" transform="scale(0.015625)"/>
       <path id="DejaVuSans-78" d="M 3513 3500
L 2247 1797
L 3578 0
L 2900 0
L 1881 1375
L 863 0
L 184 0
L 1544 1831
L 300 3500
L 978 3500
L 1906 2253
L 2834 3500
L 3513 3500
z
" transform="scale(0.015625)"/>
       <path id="DejaVuSans-70" d="M 1159 525
L 1159 -1331
L 581 -1331
L 581 3500
L 1159 3500
L 1159 2969
Q 1341 3281 1617 3432
Q 1894 3584 2278 3584
Q 2916 3584 3314 3078
Q 3713 2572 3713 1747
Q 3713 922 3314 415
Q 2916 -91 2278 -91
Q 1894 -91 1617 61
Q 1341 213 1159 525
z
M 3116 1747
Q 3116 2381 2855 2742
Q 2594 3103 2138 3103
Q 1681 3103 1420 2742
Q 1159 2381 1159 1747
Q 1159 1113 1420 752
Q 1681 391 2138 391
Q 2594 391 2855 752
Q 3116 1113 3116 1747
z
" transform="scale(0.015625)"/>
       <path id="DejaVuSans-72" d="M 2631 2963
Q 2534 3019 2420 3045
Q 2306 3072 2169 3072
Q 1681 3072 1420 2755
Q 1159 2438 1159 1844
L 1159 0
L 581 0
L 581 3500
L 1159 3500
L 1159 2956
Q 1341 3275 1631 3429
Q 1922 3584 2338 3584
Q 2397 3584 2469 3576
Q 2541 3569 2628 3553
L 2631 2963
z
" transform="scale(0.015625)"/>
       <path id="DejaVuSans-69" d="M 603 3500
L 1178 3500
L 1178 0
L 603 0
L 603 3500
z
M 603 4863
L 1178 4863
L 1178 4134
L 603 4134
L 603 4863
z
" transform="scale(0.015625)"/>
       <path id="DejaVuSans-6d" d="M 3328 2828
Q 3544 3216 3844 3400
Q 4144 3584 4550 3584
Q 5097 3584 5394 3201
Q 5691 2819 5691 2113
L 5691 0
L 5113 0
L 5113 2094
Q 5113 2597 4934 2840
Q 4756 3084 4391 3084
Q 3944 3084 3684 2787
Q 3425 2491 3425 1978
L 3425 0
L 2847 0
L 2847 2094
Q 2847 2600 2669 2842
Q 2491 3084 2119 3084
Q 1678 3084 1418 2786
Q 1159 2488 1159 1978
L 1159 0
L 581 0
L 581 3500
L 1159 3500
L 1159 2956
Q 1356 3278 1631 3431
Q 1906 3584 2284 3584
Q 2666 3584 2933 3390
Q 3200 3197 3328 2828
z
" transform="scale(0.015625)"/>
       <path id="DejaVuSans-6e" d="M 3513 2113
L 3513 0
L 2938 0
L 2938 2094
Q 2938 2591 2744 2837
Q 2550 3084 2163 3084
Q 1697 3084 1428 2787
Q 1159 2491 1159 1978
L 1159 0
L 581 0
L 581 3500
L 1159 3500
L 1159 2956
Q 1366 3272 1645 3428
Q 1925 3584 2291 3584
Q 2894 3584 3203 3211
Q 3513 2838 3513 2113
z
" transform="scale(0.015625)"/>
       <path id="DejaVuSans-74" d="M 1172 4494
L 1172 3500
L 2356 3500
L 2356 3053
L 1172 3053
L 1172 1153
Q 1172 725 1289 603
Q 1406 481 1766 481
L 2356 481
L 2356 0
L 1766 0
Q 1100 0 847 248
Q 594 497 594 1153
L 594 3053
L 172 3053
L 172 3500
L 594 3500
L 594 4494
L 1172 4494
z
" transform="scale(0.015625)"/>
       <path id="DejaVuSans-5f" d="M 3263 -1063
L 3263 -1509
L -63 -1509
L -63 -1063
L 3263 -1063
z
" transform="scale(0.015625)"/>
       <path id="DejaVuSans-30" d="M 2034 4250
Q 1547 4250 1301 3770
Q 1056 3291 1056 2328
Q 1056 1369 1301 889
Q 1547 409 2034 409
Q 2525 409 2770 889
Q 3016 1369 3016 2328
Q 3016 3291 2770 3770
Q 2525 4250 2034 4250
z
M 2034 4750
Q 2819 4750 3233 4129
Q 3647 3509 3647 2328
Q 3647 1150 3233 529
Q 2819 -91 2034 -91
Q 1250 -91 836 529
Q 422 1150 422 2328
Q 422 3509 836 4129
Q 1250 4750 2034 4750
z
" transform="scale(0.015625)"/>
      </defs>
      <use xlink:href="#DejaVuSans-65"/>
      <use xlink:href="#DejaVuSans-78" transform="translate(59.773438 0)"/>
      <use xlink:href="#DejaVuSans-70" transform="translate(118.953125 0)"/>
      <use xlink:href="#DejaVuSans-65" transform="translate(182.429688 0)"/>
      <use xlink:href="#DejaVuSans-72" transform="translate(243.953125 0)"/>
      <use xlink:href="#DejaVuSans-69" transform="translate(285.066406 0)"/>
      <use xlink:href="#DejaVuSans-6d" transform="translate(312.849609 0)"/>
      <use xlink:href="#DejaVuSans-65" transform="translate(410.261719 0)"/>
      <use xlink:href="#DejaVuSans-6e" transform="translate(471.785156 0)"/>
      <use xlink:href="#DejaVuSans-74" transform="translate(535.164062 0)"/>
      <use xlink:href="#DejaVuSans-5f" transform="translate(574.373047 0)"/>
      <use xlink:href="#DejaVuSans-30" transform="translate(624.373047 0)"/>
     </g>
    </g>
   </g>
   <g id="line2d_1">
    <path d="M 117.621996 56.333116
L 143.083365 56.218805
L 157.93583 55.969456
L 167.483843 55.371326
L 171.727404 55.070214
L 174.910075 54.6569
L 179.153637 53.860474
L 186.579869 52.12129
L 190.823431 50.909314
L 195.066992 49.434146
L 200.371444 47.386742
L 203.554115 45.923364
L 206.736786 44.146724
L 212.041238 40.808356
L 216.284799 37.930869
L 222.650141 33.516748
L 224.771922 32.307023
L 226.893702 31.333046
L 229.015483 30.630017
L 231.137264 30.179088
L 235.380825 29.422368
L 238.563496 28.811926
L 240.685277 28.776401
L 242.807058 29.167158
L 244.928838 29.848925
L 248.11151 31.139556
L 250.23329 32.206632
L 253.415961 34.129798
L 257.659523 36.648717
L 260.842194 38.582843
L 264.024865 40.882093
L 270.390207 45.639536
L 274.633768 48.561222
L 277.816439 50.498358
L 279.93822 51.575322
L 282.060001 52.439536
L 285.242672 53.40545
L 289.486233 54.366057
L 293.729795 55.122099
L 297.973356 55.64443
L 302.216917 55.971252
L 307.521369 56.14789
L 320.252053 56.319749
L 328.739176 56.333141
L 328.739176 56.333141
" clip-path="url(#pe432bc657a)" style="fill: none; stroke: #000000; stroke-width: 1.5; stroke-linecap: square"/>
   </g>
   <g id="PathCollection_1">
    <defs>
     <path id="m152ead2de3" d="M -0 4.242641
L 4.242641 0
L 0 -4.242641
L -4.242641 -0
z
" style="stroke: #000000"/>
    </defs>
    <g>
     <use xlink:href="#m152ead2de3" x="240.562222" y="56.333333" style="stroke: #000000"/>
    </g>
   </g>
   <g id="LineCollection_4">
    <path d="M 424.789526 56.333333
L 65.921406 56.333333
" style="fill: none; stroke: #000000"/>
   </g>
   <g id="LineCollection_5">
    <path d="M 117.621996 56.333333
L 117.621996 50.192492
" style="fill: none; stroke: #000000"/>
   </g>
   <g id="LineCollection_6">
    <path d="M 328.739176 56.333333
L 328.739176 50.192492
" style="fill: none; stroke: #000000"/>
   </g>
  </g>
  <g id="axes_2">
   <g id="patch_3">
    <path d="M 65.921406 96.106667
L 424.789526 96.106667
L 424.789526 67.133333
L 65.921406 67.133333
L 65.921406 96.106667
z
" style="fill: none"/>
   </g>
   <g id="FillBetweenPolyCollection_2">
    <defs>
     <path id="me7e0dd14dd" d="M 322.67431 -68.193958
L 322.67431 -68.19416
L 323.152477 -68.194388
L 323.630644 -68.194816
L 324.10881 -68.195569
L 324.586977 -68.196801
L 325.065144 -68.198686
L 325.54331 -68.201378
L 326.021477 -68.204979
L 326.499644 -68.209509
L 326.977811 -68.214896
L 327.455977 -68.221015
L 327.934144 -68.227738
L 328.412311 -68.235
L 328.890478 -68.242807
L 329.368644 -68.251187
L 329.846811 -68.260064
L 330.324978 -68.269121
L 330.803145 -68.277719
L 331.281311 -68.28495
L 331.759478 -68.289859
L 332.237645 -68.29177
L 332.715811 -68.290602
L 333.193978 -68.287028
L 333.672145 -68.282408
L 334.150312 -68.278487
L 334.628478 -68.27699
L 335.106645 -68.279227
L 335.584812 -68.285835
L 336.062979 -68.2967
L 336.541145 -68.311052
L 337.019312 -68.327695
L 337.497479 -68.345338
L 337.975645 -68.36296
L 338.453812 -68.380127
L 338.931979 -68.397143
L 339.410146 -68.414977
L 339.888312 -68.434961
L 340.366479 -68.458342
L 340.844646 -68.485866
L 341.322813 -68.517539
L 341.800979 -68.552666
L 342.279146 -68.590151
L 342.757313 -68.628969
L 343.23548 -68.668621
L 343.713646 -68.709416
L 344.191813 -68.752428
L 344.66998 -68.799109
L 345.148146 -68.850636
L 345.626313 -68.907222
L 346.10448 -68.967666
L 346.582647 -69.029387
L 347.060813 -69.089003
L 347.53898 -69.14337
L 348.017147 -69.190733
L 348.495314 -69.231609
L 348.97348 -69.269061
L 349.451647 -69.308216
L 349.929814 -69.355148
L 350.407981 -69.415492
L 350.886147 -69.49324
L 351.364314 -69.590099
L 351.842481 -69.705557
L 352.320647 -69.837499
L 352.798814 -69.983077
L 353.276981 -70.139492
L 353.755148 -70.304523
L 354.233314 -70.476779
L 354.711481 -70.655766
L 355.189648 -70.841833
L 355.667815 -71.035989
L 356.145981 -71.239567
L 356.624148 -71.453713
L 357.102315 -71.678831
L 357.580481 -71.914133
L 358.058648 -72.157513
L 358.536815 -72.405863
L 359.014982 -72.655825
L 359.493148 -72.904846
L 359.971315 -73.152226
L 360.449482 -73.399801
L 360.927649 -73.65195
L 361.405815 -73.914855
L 361.883982 -74.19523
L 362.362149 -74.499044
L 362.840316 -74.830763
L 363.318482 -75.193335
L 363.796649 -75.588718
L 364.274816 -76.018338
L 364.752982 -76.482915
L 365.231149 -76.981429
L 365.709316 -77.509666
L 366.187483 -78.059135
L 366.665649 -78.61718
L 367.143816 -79.168644
L 367.621983 -79.698778
L 368.10015 -80.19659
L 368.578316 -80.657584
L 369.056483 -81.085045
L 369.53465 -81.489432
L 370.012816 -81.885973
L 370.490983 -82.291109
L 370.96915 -82.718753
L 371.447317 -83.177445
L 371.925483 -83.669248
L 372.40365 -84.190642
L 372.881817 -84.735046
L 373.359984 -85.295984
L 373.83815 -85.869766
L 374.316317 -86.456744
L 374.794484 -87.060852
L 375.272651 -87.68768
L 375.750817 -88.341803
L 376.228984 -89.02406
L 376.707151 -89.729368
L 377.185317 -90.445435
L 377.663484 -91.152747
L 378.141651 -91.826238
L 378.619818 -92.438942
L 379.097984 -92.967335
L 379.576151 -93.397199
L 380.054318 -93.728061
L 380.532485 -93.974236
L 381.010651 -94.161526
L 381.488818 -94.320351
L 381.966985 -94.477708
L 382.445152 -94.650841
L 382.923318 -94.844612
L 383.401485 -95.052782
L 383.879652 -95.261761
L 384.357818 -95.454837
L 384.835985 -95.615511
L 385.314152 -95.72974
L 385.792319 -95.787609
L 386.270485 -95.784772
L 386.748652 -95.723188
L 387.226819 -95.610116
L 387.704986 -95.454709
L 388.183152 -95.262873
L 388.661319 -95.032406
L 389.139486 -94.750978
L 389.617652 -94.398576
L 390.095819 -93.954054
L 390.573986 -93.40344
L 391.052153 -92.746589
L 391.530319 -91.999394
L 392.008486 -91.190566
L 392.486653 -90.354283
L 392.96482 -89.521527
L 393.442986 -88.713136
L 393.921153 -87.936528
L 394.39932 -87.186383
L 394.877487 -86.448237
L 395.355653 -85.703418
L 395.83382 -84.933913
L 396.311987 -84.126345
L 396.790153 -83.274647
L 397.26832 -82.381212
L 397.746487 -81.456419
L 398.224654 -80.516598
L 398.70282 -79.58084
L 399.180987 -78.6674
L 399.659154 -77.790619
L 400.137321 -76.959136
L 400.615487 -76.175765
L 401.093654 -75.438878
L 401.571821 -74.744682
L 402.049988 -74.089562
L 402.528154 -73.471679
L 403.006321 -72.891406
L 403.484488 -72.350574
L 403.962654 -71.851041
L 404.440821 -71.393291
L 404.918988 -70.97574
L 405.397155 -70.59504
L 405.875321 -70.247205
L 406.353488 -69.928952
L 406.831655 -69.63865
L 407.309822 -69.376441
L 407.787988 -69.143602
L 408.266155 -68.941492
L 408.744322 -68.77061
L 409.222488 -68.630091
L 409.700655 -68.51771
L 410.178822 -68.430252
L 410.656989 -68.363973
L 411.135155 -68.315019
L 411.613322 -68.279698
L 412.091489 -68.254677
L 412.569656 -68.237107
L 413.047822 -68.224717
L 413.525989 -68.215831
L 414.004156 -68.209326
L 414.482323 -68.204503
L 414.960489 -68.200946
L 415.438656 -68.198389
L 415.916823 -68.196627
L 416.394989 -68.195478
L 416.873156 -68.194773
L 417.351323 -68.194369
L 417.82949 -68.194153
L 417.82949 -68.193958
L 417.82949 -68.193958
L 417.351323 -68.193958
L 416.873156 -68.193958
L 416.394989 -68.193958
L 415.916823 -68.193958
L 415.438656 -68.193958
L 414.960489 -68.193958
L 414.482323 -68.193958
L 414.004156 -68.193958
L 413.525989 -68.193958
L 413.047822 -68.193958
L 412.569656 -68.193958
L 412.091489 -68.193958
L 411.613322 -68.193958
L 411.135155 -68.193958
L 410.656989 -68.193958
L 410.178822 -68.193958
L 409.700655 -68.193958
L 409.222488 -68.193958
L 408.744322 -68.193958
L 408.266155 -68.193958
L 407.787988 -68.193958
L 407.309822 -68.193958
L 406.831655 -68.193958
L 406.353488 -68.193958
L 405.875321 -68.193958
L 405.397155 -68.193958
L 404.918988 -68.193958
L 404.440821 -68.193958
L 403.962654 -68.193958
L 403.484488 -68.193958
L 403.006321 -68.193958
L 402.528154 -68.193958
L 402.049988 -68.193958
L 401.571821 -68.193958
L 401.093654 -68.193958
L 400.615487 -68.193958
L 400.137321 -68.193958
L 399.659154 -68.193958
L 399.180987 -68.193958
L 398.70282 -68.193958
L 398.224654 -68.193958
L 397.746487 -68.193958
L 397.26832 -68.193958
L 396.790153 -68.193958
L 396.311987 -68.193958
L 395.83382 -68.193958
L 395.355653 -68.193958
L 394.877487 -68.193958
L 394.39932 -68.193958
L 393.921153 -68.193958
L 393.442986 -68.193958
L 392.96482 -68.193958
L 392.486653 -68.193958
L 392.008486 -68.193958
L 391.530319 -68.193958
L 391.052153 -68.193958
L 390.573986 -68.193958
L 390.095819 -68.193958
L 389.617652 -68.193958
L 389.139486 -68.193958
L 388.661319 -68.193958
L 388.183152 -68.193958
L 387.704986 -68.193958
L 387.226819 -68.193958
L 386.748652 -68.193958
L 386.270485 -68.193958
L 385.792319 -68.193958
L 385.314152 -68.193958
L 384.835985 -68.193958
L 384.357818 -68.193958
L 383.879652 -68.193958
L 383.401485 -68.193958
L 382.923318 -68.193958
L 382.445152 -68.193958
L 381.966985 -68.193958
L 381.488818 -68.193958
L 381.010651 -68.193958
L 380.532485 -68.193958
L 380.054318 -68.193958
L 379.576151 -68.193958
L 379.097984 -68.193958
L 378.619818 -68.193958
L 378.141651 -68.193958
L 377.663484 -68.193958
L 377.185317 -68.193958
L 376.707151 -68.193958
L 376.228984 -68.193958
L 375.750817 -68.193958
L 375.272651 -68.193958
L 374.794484 -68.193958
L 374.316317 -68.193958
L 373.83815 -68.193958
L 373.359984 -68.193958
L 372.881817 -68.193958
L 372.40365 -68.193958
L 371.925483 -68.193958
L 371.447317 -68.193958
L 370.96915 -68.193958
L 370.490983 -68.193958
L 370.012816 -68.193958
L 369.53465 -68.193958
L 369.056483 -68.193958
L 368.578316 -68.193958
L 368.10015 -68.193958
L 367.621983 -68.193958
L 367.143816 -68.193958
L 366.665649 -68.193958
L 366.187483 -68.193958
L 365.709316 -68.193958
L 365.231149 -68.193958
L 364.752982 -68.193958
L 364.274816 -68.193958
L 363.796649 -68.193958
L 363.318482 -68.193958
L 362.840316 -68.193958
L 362.362149 -68.193958
L 361.883982 -68.193958
L 361.405815 -68.193958
L 360.927649 -68.193958
L 360.449482 -68.193958
L 359.971315 -68.193958
L 359.493148 -68.193958
L 359.014982 -68.193958
L 358.536815 -68.193958
L 358.058648 -68.193958
L 357.580481 -68.193958
L 357.102315 -68.193958
L 356.624148 -68.193958
L 356.145981 -68.193958
L 355.667815 -68.193958
L 355.189648 -68.193958
L 354.711481 -68.193958
L 354.233314 -68.193958
L 353.755148 -68.193958
L 353.276981 -68.193958
L 352.798814 -68.193958
L 352.320647 -68.193958
L 351.842481 -68.193958
L 351.364314 -68.193958
L 350.886147 -68.193958
L 350.407981 -68.193958
L 349.929814 -68.193958
L 349.451647 -68.193958
L 348.97348 -68.193958
L 348.495314 -68.193958
L 348.017147 -68.193958
L 347.53898 -68.193958
L 347.060813 -68.193958
L 346.582647 -68.193958
L 346.10448 -68.193958
L 345.626313 -68.193958
L 345.148146 -68.193958
L 344.66998 -68.193958
L 344.191813 -68.193958
L 343.713646 -68.193958
L 343.23548 -68.193958
L 342.757313 -68.193958
L 342.279146 -68.193958
L 341.800979 -68.193958
L 341.322813 -68.193958
L 340.844646 -68.193958
L 340.366479 -68.193958
L 339.888312 -68.193958
L 339.410146 -68.193958
L 338.931979 -68.193958
L 338.453812 -68.193958
L 337.975645 -68.193958
L 337.497479 -68.193958
L 337.019312 -68.193958
L 336.541145 -68.193958
L 336.062979 -68.193958
L 335.584812 -68.193958
L 335.106645 -68.193958
L 334.628478 -68.193958
L 334.150312 -68.193958
L 333.672145 -68.193958
L 333.193978 -68.193958
L 332.715811 -68.193958
L 332.237645 -68.193958
L 331.759478 -68.193958
L 331.281311 -68.193958
L 330.803145 -68.193958
L 330.324978 -68.193958
L 329.846811 -68.193958
L 329.368644 -68.193958
L 328.890478 -68.193958
L 328.412311 -68.193958
L 327.934144 -68.193958
L 327.455977 -68.193958
L 326.977811 -68.193958
L 326.499644 -68.193958
L 326.021477 -68.193958
L 325.54331 -68.193958
L 325.065144 -68.193958
L 324.586977 -68.193958
L 324.10881 -68.193958
L 323.630644 -68.193958
L 323.152477 -68.193958
L 322.67431 -68.193958
z
" style="stroke: #808080; stroke-opacity: 0.5"/>
    </defs>
    <g clip-path="url(#p5562b90744)">
     <use xlink:href="#me7e0dd14dd" x="0" y="164.300625" style="fill: #808080; fill-opacity: 0.5; stroke: #808080; stroke-opacity: 0.5"/>
    </g>
   </g>
   <g id="LineCollection_7">
    <path d="M 383.142799 96.106667
L 383.142799 69.360462
" clip-path="url(#p5562b90744)" style="fill: none; stroke-dasharray: 5.55,2.4; stroke-dashoffset: 0; stroke: #000000; stroke-width: 1.5"/>
   </g>
   <g id="LineCollection_8">
    <path d="M 358.608628 96.106667
L 358.608628 91.857221
" clip-path="url(#p5562b90744)" style="fill: none; stroke: #000000; stroke-width: 1.5"/>
   </g>
   <g id="LineCollection_9">
    <path d="M 402.863687 96.106667
L 402.863687 91.236128
" clip-path="url(#p5562b90744)" style="fill: none; stroke: #000000; stroke-width: 1.5"/>
   </g>
   <g id="matplotlib.axis_3"/>
   <g id="matplotlib.axis_4">
    <g id="text_2">
     <!-- experiment_1 -->
     <g transform="translate(0 79.497969) scale(0.09 -0.09)">
      <defs>
       <path id="DejaVuSans-31" d="M 794 531
L 1825 531
L 1825 4091
L 703 3866
L 703 4441
L 1819 4666
L 2450 4666
L 2450 531
L 3481 531
L 3481 0
L 794 0
L 794 531
z
" transform="scale(0.015625)"/>
      </defs>
      <use xlink:href="#DejaVuSans-65"/>
      <use xlink:href="#DejaVuSans-78" transform="translate(59.773438 0)"/>
      <use xlink:href="#DejaVuSans-70" transform="translate(118.953125 0)"/>
      <use xlink:href="#DejaVuSans-65" transform="translate(182.429688 0)"/>
      <use xlink:href="#DejaVuSans-72" transform="translate(243.953125 0)"/>
      <use xlink:href="#DejaVuSans-69" transform="translate(285.066406 0)"/>
      <use xlink:href="#DejaVuSans-6d" transform="translate(312.849609 0)"/>
      <use xlink:href="#DejaVuSans-65" transform="translate(410.261719 0)"/>
      <use xlink:href="#DejaVuSans-6e" transform="translate(471.785156 0)"/>
      <use xlink:href="#DejaVuSans-74" transform="translate(535.164062 0)"/>
      <use xlink:href="#DejaVuSans-5f" transform="translate(574.373047 0)"/>
      <use xlink:href="#DejaVuSans-31" transform="translate(624.373047 0)"/>
     </g>
    </g>
   </g>
   <g id="line2d_2">
    <path d="M 322.67431 96.106465
L 336.541145 95.989573
L 342.757313 95.671656
L 347.060813 95.211622
L 351.842481 94.595068
L 354.233314 93.823846
L 356.624148 92.846912
L 359.971315 91.148399
L 362.362149 89.801581
L 363.796649 88.711907
L 365.231149 87.319196
L 369.056483 83.21558
L 371.447317 81.12318
L 373.359984 79.004641
L 375.272651 76.612945
L 377.185317 73.85519
L 378.619818 71.861683
L 379.576151 70.903426
L 380.532485 70.326389
L 385.314152 68.570885
L 386.270485 68.515853
L 387.226819 68.690509
L 388.661319 69.268219
L 389.617652 69.902049
L 390.573986 70.897185
L 391.530319 72.301231
L 398.224654 83.784027
L 400.137321 87.341489
L 401.571821 89.555943
L 403.006321 91.409219
L 404.440821 92.907334
L 405.875321 94.05342
L 407.309822 94.924184
L 408.744322 95.530015
L 410.178822 95.870373
L 412.091489 96.045948
L 416.394989 96.105147
L 417.82949 96.106472
L 417.82949 96.106472
" clip-path="url(#p5562b90744)" style="fill: none; stroke: #000000; stroke-width: 1.5; stroke-linecap: square"/>
   </g>
   <g id="PathCollection_2">
    <g>
     <use xlink:href="#m152ead2de3" x="388.302291" y="96.106667" style="stroke: #000000"/>
    </g>
   </g>
   <g id="LineCollection_10">
    <path d="M 424.789526 96.106667
L 65.921406 96.106667
" style="fill: none; stroke: #000000"/>
   </g>
   <g id="LineCollection_11">
    <path d="M 322.67431 96.106667
L 322.67431 89.965825
" style="fill: none; stroke: #000000"/>
   </g>
   <g id="LineCollection_12">
    <path d="M 417.82949 96.106667
L 417.82949 89.965825
" style="fill: none; stroke: #000000"/>
   </g>
  </g>
  <g id="axes_3">
   <g id="patch_4">
    <path d="M 65.921406 135.88
L 424.789526 135.88
L 424.789526 106.906667
L 65.921406 106.906667
L 65.921406 135.88
z
" style="fill: none"/>
   </g>
   <g id="FillBetweenPolyCollection_3">
    <defs>
     <path id="mf37981d64f" d="M 92.013837 -28.420625
L 92.013837 -28.421207
L 93.686077 -28.421531
L 95.358316 -28.422008
L 97.030556 -28.422702
L 98.702796 -28.423691
L 100.375035 -28.425073
L 102.047275 -28.426971
L 103.719514 -28.42953
L 105.391754 -28.432915
L 107.063994 -28.437314
L 108.736233 -28.442927
L 110.408473 -28.449962
L 112.080713 -28.458625
L 113.752952 -28.469104
L 115.425192 -28.481563
L 117.097432 -28.496126
L 118.769671 -28.512862
L 120.441911 -28.531783
L 122.114151 -28.552835
L 123.78639 -28.575894
L 125.45863 -28.600778
L 127.13087 -28.627251
L 128.803109 -28.655038
L 130.475349 -28.683844
L 132.147588 -28.713372
L 133.819828 -28.743346
L 135.492068 -28.773529
L 137.164307 -28.803738
L 138.836547 -28.833862
L 140.508787 -28.863874
L 142.181026 -28.893834
L 143.853266 -28.9239
L 145.525506 -28.954327
L 147.197745 -28.985474
L 148.869985 -29.017808
L 150.542225 -29.051906
L 152.214464 -29.088461
L 153.886704 -29.128289
L 155.558943 -29.172331
L 157.231183 -29.221652
L 158.903423 -29.277436
L 160.575662 -29.340971
L 162.247902 -29.413625
L 163.920142 -29.496813
L 165.592381 -29.591954
L 167.264621 -29.700423
L 168.936861 -29.82351
L 170.6091 -29.962371
L 172.28134 -30.118
L 173.95358 -30.291213
L 175.625819 -30.482651
L 177.298059 -30.692803
L 178.970298 -30.922048
L 180.642538 -31.170707
L 182.314778 -31.439104
L 183.987017 -31.727621
L 185.659257 -32.036744
L 187.331497 -32.367083
L 189.003736 -32.719374
L 190.675976 -33.094444
L 192.348216 -33.493152
L 194.020455 -33.916303
L 195.692695 -34.364541
L 197.364935 -34.838236
L 199.037174 -35.337361
L 200.709414 -35.86138
L 202.381654 -36.409149
L 204.053893 -36.97884
L 205.726133 -37.567896
L 207.398372 -38.173007
L 209.070612 -38.790139
L 210.742852 -39.414587
L 212.415091 -40.041066
L 214.087331 -40.66384
L 215.759571 -41.276865
L 217.43181 -41.873959
L 219.10405 -42.448966
L 220.77629 -42.995922
L 222.448529 -43.509187
L 224.120769 -43.983561
L 225.793009 -44.414356
L 227.465248 -44.79743
L 229.137488 -45.129189
L 230.809727 -45.406569
L 232.481967 -45.626995
L 234.154207 -45.788355
L 235.826446 -45.888973
L 237.498686 -45.92762
L 239.170926 -45.903534
L 240.843165 -45.816472
L 242.515405 -45.666774
L 244.187645 -45.455418
L 245.859884 -45.18407
L 247.532124 -44.8551
L 249.204364 -44.471559
L 250.876603 -44.037123
L 252.548843 -43.555996
L 254.221082 -43.032786
L 255.893322 -42.47238
L 257.565562 -41.879819
L 259.237801 -41.260191
L 260.910041 -40.618568
L 262.582281 -39.959966
L 264.25452 -39.289349
L 265.92676 -38.611646
L 267.599 -37.93179
L 269.271239 -37.254739
L 270.943479 -36.585479
L 272.615719 -35.929002
L 274.287958 -35.290229
L 275.960198 -34.673909
L 277.632438 -34.084488
L 279.304677 -33.52595
L 280.976917 -33.001677
L 282.649156 -32.514312
L 284.321396 -32.065666
L 285.993636 -31.656664
L 287.665875 -31.287346
L 289.338115 -30.956922
L 291.010355 -30.663866
L 292.682594 -30.40605
L 294.354834 -30.180901
L 296.027074 -29.985563
L 297.699313 -29.817058
L 299.371553 -29.672425
L 301.043793 -29.548845
L 302.716032 -29.443722
L 304.388272 -29.354751
L 306.060511 -29.279945
L 307.732751 -29.217648
L 309.404991 -29.166523
L 311.07723 -29.125532
L 312.74947 -29.093908
L 314.42171 -29.071133
L 316.093949 -29.056918
L 317.766189 -29.051194
L 319.438429 -29.054117
L 321.110668 -29.066092
L 322.782908 -29.087813
L 324.455148 -29.120312
L 326.127387 -29.165031
L 327.799627 -29.223891
L 329.471867 -29.299373
L 331.144106 -29.394589
L 332.816346 -29.513346
L 334.488585 -29.660186
L 336.160825 -29.840403
L 337.833065 -30.060024
L 339.505304 -30.325747
L 341.177544 -30.644833
L 342.849784 -31.024943
L 344.522023 -31.473924
L 346.194263 -31.999536
L 347.866503 -32.609129
L 349.538742 -33.309284
L 351.210982 -34.105406
L 352.883222 -35.001313
L 354.555461 -35.998813
L 356.227701 -37.097296
L 357.89994 -38.293368
L 359.57218 -39.580523
L 361.24442 -40.948897
L 362.916659 -42.385099
L 364.588899 -43.872142
L 366.261139 -45.389494
L 367.933378 -46.913254
L 369.605618 -48.416477
L 371.277858 -49.869666
L 372.950097 -51.241433
L 374.622337 -52.499349
L 376.294577 -53.61097
L 377.966816 -54.545022
L 379.639056 -55.272702
L 381.311295 -55.769048
L 382.983535 -56.014276
L 384.655775 -55.995005
L 386.328014 -55.705262
L 388.000254 -55.147167
L 389.672494 -54.331212
L 391.344733 -53.276092
L 393.016973 -52.008047
L 394.689213 -50.55977
L 396.361452 -48.968913
L 398.033692 -47.276322
L 399.705932 -45.524109
L 401.378171 -43.753721
L 403.050411 -42.004128
L 404.722651 -40.310267
L 406.39489 -38.701828
L 408.06713 -37.20245
L 409.739369 -35.829341
L 411.411609 -34.593305
L 413.083849 -33.499129
L 414.756088 -32.546259
L 416.428328 -31.729668
L 418.100568 -31.040842
L 419.772807 -30.468782
L 421.445047 -30.000962
L 423.117287 -29.624182
L 424.789526 -29.325285
L 424.789526 -28.420625
L 424.789526 -28.420625
L 423.117287 -28.420625
L 421.445047 -28.420625
L 419.772807 -28.420625
L 418.100568 -28.420625
L 416.428328 -28.420625
L 414.756088 -28.420625
L 413.083849 -28.420625
L 411.411609 -28.420625
L 409.739369 -28.420625
L 408.06713 -28.420625
L 406.39489 -28.420625
L 404.722651 -28.420625
L 403.050411 -28.420625
L 401.378171 -28.420625
L 399.705932 -28.420625
L 398.033692 -28.420625
L 396.361452 -28.420625
L 394.689213 -28.420625
L 393.016973 -28.420625
L 391.344733 -28.420625
L 389.672494 -28.420625
L 388.000254 -28.420625
L 386.328014 -28.420625
L 384.655775 -28.420625
L 382.983535 -28.420625
L 381.311295 -28.420625
L 379.639056 -28.420625
L 377.966816 -28.420625
L 376.294577 -28.420625
L 374.622337 -28.420625
L 372.950097 -28.420625
L 371.277858 -28.420625
L 369.605618 -28.420625
L 367.933378 -28.420625
L 366.261139 -28.420625
L 364.588899 -28.420625
L 362.916659 -28.420625
L 361.24442 -28.420625
L 359.57218 -28.420625
L 357.89994 -28.420625
L 356.227701 -28.420625
L 354.555461 -28.420625
L 352.883222 -28.420625
L 351.210982 -28.420625
L 349.538742 -28.420625
L 347.866503 -28.420625
L 346.194263 -28.420625
L 344.522023 -28.420625
L 342.849784 -28.420625
L 341.177544 -28.420625
L 339.505304 -28.420625
L 337.833065 -28.420625
L 336.160825 -28.420625
L 334.488585 -28.420625
L 332.816346 -28.420625
L 331.144106 -28.420625
L 329.471867 -28.420625
L 327.799627 -28.420625
L 326.127387 -28.420625
L 324.455148 -28.420625
L 322.782908 -28.420625
L 321.110668 -28.420625
L 319.438429 -28.420625
L 317.766189 -28.420625
L 316.093949 -28.420625
L 314.42171 -28.420625
L 312.74947 -28.420625
L 311.07723 -28.420625
L 309.404991 -28.420625
L 307.732751 -28.420625
L 306.060511 -28.420625
L 304.388272 -28.420625
L 302.716032 -28.420625
L 301.043793 -28.420625
L 299.371553 -28.420625
L 297.699313 -28.420625
L 296.027074 -28.420625
L 294.354834 -28.420625
L 292.682594 -28.420625
L 291.010355 -28.420625
L 289.338115 -28.420625
L 287.665875 -28.420625
L 285.993636 -28.420625
L 284.321396 -28.420625
L 282.649156 -28.420625
L 280.976917 -28.420625
L 279.304677 -28.420625
L 277.632438 -28.420625
L 275.960198 -28.420625
L 274.287958 -28.420625
L 272.615719 -28.420625
L 270.943479 -28.420625
L 269.271239 -28.420625
L 267.599 -28.420625
L 265.92676 -28.420625
L 264.25452 -28.420625
L 262.582281 -28.420625
L 260.910041 -28.420625
L 259.237801 -28.420625
L 257.565562 -28.420625
L 255.893322 -28.420625
L 254.221082 -28.420625
L 252.548843 -28.420625
L 250.876603 -28.420625
L 249.204364 -28.420625
L 247.532124 -28.420625
L 245.859884 -28.420625
L 244.187645 -28.420625
L 242.515405 -28.420625
L 240.843165 -28.420625
L 239.170926 -28.420625
L 237.498686 -28.420625
L 235.826446 -28.420625
L 234.154207 -28.420625
L 232.481967 -28.420625
L 230.809727 -28.420625
L 229.137488 -28.420625
L 227.465248 -28.420625
L 225.793009 -28.420625
L 224.120769 -28.420625
L 222.448529 -28.420625
L 220.77629 -28.420625
L 219.10405 -28.420625
L 217.43181 -28.420625
L 215.759571 -28.420625
L 214.087331 -28.420625
L 212.415091 -28.420625
L 210.742852 -28.420625
L 209.070612 -28.420625
L 207.398372 -28.420625
L 205.726133 -28.420625
L 204.053893 -28.420625
L 202.381654 -28.420625
L 200.709414 -28.420625
L 199.037174 -28.420625
L 197.364935 -28.420625
L 195.692695 -28.420625
L 194.020455 -28.420625
L 192.348216 -28.420625
L 190.675976 -28.420625
L 189.003736 -28.420625
L 187.331497 -28.420625
L 185.659257 -28.420625
L 183.987017 -28.420625
L 182.314778 -28.420625
L 180.642538 -28.420625
L 178.970298 -28.420625
L 177.298059 -28.420625
L 175.625819 -28.420625
L 173.95358 -28.420625
L 172.28134 -28.420625
L 170.6091 -28.420625
L 168.936861 -28.420625
L 167.264621 -28.420625
L 165.592381 -28.420625
L 163.920142 -28.420625
L 162.247902 -28.420625
L 160.575662 -28.420625
L 158.903423 -28.420625
L 157.231183 -28.420625
L 155.558943 -28.420625
L 153.886704 -28.420625
L 152.214464 -28.420625
L 150.542225 -28.420625
L 148.869985 -28.420625
L 147.197745 -28.420625
L 145.525506 -28.420625
L 143.853266 -28.420625
L 142.181026 -28.420625
L 140.508787 -28.420625
L 138.836547 -28.420625
L 137.164307 -28.420625
L 135.492068 -28.420625
L 133.819828 -28.420625
L 132.147588 -28.420625
L 130.475349 -28.420625
L 128.803109 -28.420625
L 127.13087 -28.420625
L 125.45863 -28.420625
L 123.78639 -28.420625
L 122.114151 -28.420625
L 120.441911 -28.420625
L 118.769671 -28.420625
L 117.097432 -28.420625
L 115.425192 -28.420625
L 113.752952 -28.420625
L 112.080713 -28.420625
L 110.408473 -28.420625
L 108.736233 -28.420625
L 107.063994 -28.420625
L 105.391754 -28.420625
L 103.719514 -28.420625
L 102.047275 -28.420625
L 100.375035 -28.420625
L 98.702796 -28.420625
L 97.030556 -28.420625
L 95.358316 -28.420625
L 93.686077 -28.420625
L 92.013837 -28.420625
z
" style="stroke: #808080; stroke-opacity: 0.5"/>
    </defs>
    <g clip-path="url(#pa775eddb62)">
     <use xlink:href="#mf37981d64f" x="0" y="164.300625" style="fill: #808080; fill-opacity: 0.5; stroke: #808080; stroke-opacity: 0.5"/>
    </g>
   </g>
   <g id="LineCollection_13">
    <path d="M 289.692603 135.88
L 289.692603 133.405826
" clip-path="url(#pa775eddb62)" style="fill: none; stroke-dasharray: 5.55,2.4; stroke-dashoffset: 0; stroke: #000000; stroke-width: 1.5"/>
   </g>
   <g id="LineCollection_14">
    <path d="M 198.281815 135.88
L 198.281815 129.188721
" clip-path="url(#pa775eddb62)" style="fill: none; stroke: #000000; stroke-width: 1.5"/>
   </g>
   <g id="LineCollection_15">
    <path d="M 404.586529 135.88
L 404.586529 123.852477
" clip-path="url(#pa775eddb62)" style="fill: none; stroke: #000000; stroke-width: 1.5"/>
   </g>
   <g id="matplotlib.axis_5">
    <g id="xtick_1">
     <g id="line2d_3">
      <defs>
       <path id="ma7b7599419" d="M 0 0
L 0 3.5
" style="stroke: #000000; stroke-width: 0.8"/>
      </defs>
      <g>
       <use xlink:href="#ma7b7599419" x="65.921406" y="135.88" style="stroke: #000000; stroke-width: 0.8"/>
      </g>
     </g>
     <g id="text_3">
      <!-- 0.5 -->
      <g transform="translate(58.765 149.718594) scale(0.09 -0.09)">
       <defs>
        <path id="DejaVuSans-2e" d="M 684 794
L 1344 794
L 1344 0
L 684 0
L 684 794
z
" transform="scale(0.015625)"/>
        <path id="DejaVuSans-35" d="M 691 4666
L 3169 4666
L 3169 4134
L 1269 4134
L 1269 2991
Q 1406 3038 1543 3061
Q 1681 3084 1819 3084
Q 2600 3084 3056 2656
Q 3513 2228 3513 1497
Q 3513 744 3044 326
Q 2575 -91 1722 -91
Q 1428 -91 1123 -41
Q 819 9 494 109
L 494 744
Q 775 591 1075 516
Q 1375 441 1709 441
Q 2250 441 2565 725
Q 2881 1009 2881 1497
Q 2881 1984 2565 2268
Q 2250 2553 1709 2553
Q 1456 2553 1204 2497
Q 953 2441 691 2322
L 691 4666
z
" transform="scale(0.015625)"/>
       </defs>
       <use xlink:href="#DejaVuSans-30"/>
       <use xlink:href="#DejaVuSans-2e" transform="translate(63.623047 0)"/>
       <use xlink:href="#DejaVuSans-35" transform="translate(95.410156 0)"/>
      </g>
     </g>
    </g>
    <g id="xtick_2">
     <g id="line2d_4">
      <g>
       <use xlink:href="#ma7b7599419" x="137.69503" y="135.88" style="stroke: #000000; stroke-width: 0.8"/>
      </g>
     </g>
     <g id="text_4">
      <!-- 0.6 -->
      <g transform="translate(130.538624 149.718594) scale(0.09 -0.09)">
       <defs>
        <path id="DejaVuSans-36" d="M 2113 2584
Q 1688 2584 1439 2293
Q 1191 2003 1191 1497
Q 1191 994 1439 701
Q 1688 409 2113 409
Q 2538 409 2786 701
Q 3034 994 3034 1497
Q 3034 2003 2786 2293
Q 2538 2584 2113 2584
z
M 3366 4563
L 3366 3988
Q 3128 4100 2886 4159
Q 2644 4219 2406 4219
Q 1781 4219 1451 3797
Q 1122 3375 1075 2522
Q 1259 2794 1537 2939
Q 1816 3084 2150 3084
Q 2853 3084 3261 2657
Q 3669 2231 3669 1497
Q 3669 778 3244 343
Q 2819 -91 2113 -91
Q 1303 -91 875 529
Q 447 1150 447 2328
Q 447 3434 972 4092
Q 1497 4750 2381 4750
Q 2619 4750 2861 4703
Q 3103 4656 3366 4563
z
" transform="scale(0.015625)"/>
       </defs>
       <use xlink:href="#DejaVuSans-30"/>
       <use xlink:href="#DejaVuSans-2e" transform="translate(63.623047 0)"/>
       <use xlink:href="#DejaVuSans-36" transform="translate(95.410156 0)"/>
      </g>
     </g>
    </g>
    <g id="xtick_3">
     <g id="line2d_5">
      <g>
       <use xlink:href="#ma7b7599419" x="209.468654" y="135.88" style="stroke: #000000; stroke-width: 0.8"/>
      </g>
     </g>
     <g id="text_5">
      <!-- 0.7 -->
      <g transform="translate(202.312248 149.718594) scale(0.09 -0.09)">
       <defs>
        <path id="DejaVuSans-37" d="M 525 4666
L 3525 4666
L 3525 4397
L 1831 0
L 1172 0
L 2766 4134
L 525 4134
L 525 4666
z
" transform="scale(0.015625)"/>
       </defs>
       <use xlink:href="#DejaVuSans-30"/>
       <use xlink:href="#DejaVuSans-2e" transform="translate(63.623047 0)"/>
       <use xlink:href="#DejaVuSans-37" transform="translate(95.410156 0)"/>
      </g>
     </g>
    </g>
    <g id="xtick_4">
     <g id="line2d_6">
      <g>
       <use xlink:href="#ma7b7599419" x="281.242278" y="135.88" style="stroke: #000000; stroke-width: 0.8"/>
      </g>
     </g>
     <g id="text_6">
      <!-- 0.8 -->
      <g transform="translate(274.085872 149.718594) scale(0.09 -0.09)">
       <defs>
        <path id="DejaVuSans-38" d="M 2034 2216
Q 1584 2216 1326 1975
Q 1069 1734 1069 1313
Q 1069 891 1326 650
Q 1584 409 2034 409
Q 2484 409 2743 651
Q 3003 894 3003 1313
Q 3003 1734 2745 1975
Q 2488 2216 2034 2216
z
M 1403 2484
Q 997 2584 770 2862
Q 544 3141 544 3541
Q 544 4100 942 4425
Q 1341 4750 2034 4750
Q 2731 4750 3128 4425
Q 3525 4100 3525 3541
Q 3525 3141 3298 2862
Q 3072 2584 2669 2484
Q 3125 2378 3379 2068
Q 3634 1759 3634 1313
Q 3634 634 3220 271
Q 2806 -91 2034 -91
Q 1263 -91 848 271
Q 434 634 434 1313
Q 434 1759 690 2068
Q 947 2378 1403 2484
z
M 1172 3481
Q 1172 3119 1398 2916
Q 1625 2713 2034 2713
Q 2441 2713 2670 2916
Q 2900 3119 2900 3481
Q 2900 3844 2670 4047
Q 2441 4250 2034 4250
Q 1625 4250 1398 4047
Q 1172 3844 1172 3481
z
" transform="scale(0.015625)"/>
       </defs>
       <use xlink:href="#DejaVuSans-30"/>
       <use xlink:href="#DejaVuSans-2e" transform="translate(63.623047 0)"/>
       <use xlink:href="#DejaVuSans-38" transform="translate(95.410156 0)"/>
      </g>
     </g>
    </g>
    <g id="xtick_5">
     <g id="line2d_7">
      <g>
       <use xlink:href="#ma7b7599419" x="353.015902" y="135.88" style="stroke: #000000; stroke-width: 0.8"/>
      </g>
     </g>
     <g id="text_7">
      <!-- 0.9 -->
      <g transform="translate(345.859496 149.718594) scale(0.09 -0.09)">
       <defs>
        <path id="DejaVuSans-39" d="M 703 97
L 703 672
Q 941 559 1184 500
Q 1428 441 1663 441
Q 2288 441 2617 861
Q 2947 1281 2994 2138
Q 2813 1869 2534 1725
Q 2256 1581 1919 1581
Q 1219 1581 811 2004
Q 403 2428 403 3163
Q 403 3881 828 4315
Q 1253 4750 1959 4750
Q 2769 4750 3195 4129
Q 3622 3509 3622 2328
Q 3622 1225 3098 567
Q 2575 -91 1691 -91
Q 1453 -91 1209 -44
Q 966 3 703 97
z
M 1959 2075
Q 2384 2075 2632 2365
Q 2881 2656 2881 3163
Q 2881 3666 2632 3958
Q 2384 4250 1959 4250
Q 1534 4250 1286 3958
Q 1038 3666 1038 3163
Q 1038 2656 1286 2365
Q 1534 2075 1959 2075
z
" transform="scale(0.015625)"/>
       </defs>
       <use xlink:href="#DejaVuSans-30"/>
       <use xlink:href="#DejaVuSans-2e" transform="translate(63.623047 0)"/>
       <use xlink:href="#DejaVuSans-39" transform="translate(95.410156 0)"/>
      </g>
     </g>
    </g>
    <g id="xtick_6">
     <g id="line2d_8">
      <g>
       <use xlink:href="#ma7b7599419" x="424.789526" y="135.88" style="stroke: #000000; stroke-width: 0.8"/>
      </g>
     </g>
     <g id="text_8">
      <!-- 1.0 -->
      <g transform="translate(417.63312 149.718594) scale(0.09 -0.09)">
       <use xlink:href="#DejaVuSans-31"/>
       <use xlink:href="#DejaVuSans-2e" transform="translate(63.623047 0)"/>
       <use xlink:href="#DejaVuSans-30" transform="translate(95.410156 0)"/>
      </g>
     </g>
    </g>
    <g id="text_9">
     <!-- Balanced Accuracy -->
     <g transform="translate(202.575232 162.428906) scale(0.09 -0.09)">
      <defs>
       <path id="DejaVuSans-42" d="M 1259 2228
L 1259 519
L 2272 519
Q 2781 519 3026 730
Q 3272 941 3272 1375
Q 3272 1813 3026 2020
Q 2781 2228 2272 2228
L 1259 2228
z
M 1259 4147
L 1259 2741
L 2194 2741
Q 2656 2741 2882 2914
Q 3109 3088 3109 3444
Q 3109 3797 2882 3972
Q 2656 4147 2194 4147
L 1259 4147
z
M 628 4666
L 2241 4666
Q 2963 4666 3353 4366
Q 3744 4066 3744 3513
Q 3744 3084 3544 2831
Q 3344 2578 2956 2516
Q 3422 2416 3680 2098
Q 3938 1781 3938 1306
Q 3938 681 3513 340
Q 3088 0 2303 0
L 628 0
L 628 4666
z
" transform="scale(0.015625)"/>
       <path id="DejaVuSans-61" d="M 2194 1759
Q 1497 1759 1228 1600
Q 959 1441 959 1056
Q 959 750 1161 570
Q 1363 391 1709 391
Q 2188 391 2477 730
Q 2766 1069 2766 1631
L 2766 1759
L 2194 1759
z
M 3341 1997
L 3341 0
L 2766 0
L 2766 531
Q 2569 213 2275 61
Q 1981 -91 1556 -91
Q 1019 -91 701 211
Q 384 513 384 1019
Q 384 1609 779 1909
Q 1175 2209 1959 2209
L 2766 2209
L 2766 2266
Q 2766 2663 2505 2880
Q 2244 3097 1772 3097
Q 1472 3097 1187 3025
Q 903 2953 641 2809
L 641 3341
Q 956 3463 1253 3523
Q 1550 3584 1831 3584
Q 2591 3584 2966 3190
Q 3341 2797 3341 1997
z
" transform="scale(0.015625)"/>
       <path id="DejaVuSans-6c" d="M 603 4863
L 1178 4863
L 1178 0
L 603 0
L 603 4863
z
" transform="scale(0.015625)"/>
       <path id="DejaVuSans-63" d="M 3122 3366
L 3122 2828
Q 2878 2963 2633 3030
Q 2388 3097 2138 3097
Q 1578 3097 1268 2742
Q 959 2388 959 1747
Q 959 1106 1268 751
Q 1578 397 2138 397
Q 2388 397 2633 464
Q 2878 531 3122 666
L 3122 134
Q 2881 22 2623 -34
Q 2366 -91 2075 -91
Q 1284 -91 818 406
Q 353 903 353 1747
Q 353 2603 823 3093
Q 1294 3584 2113 3584
Q 2378 3584 2631 3529
Q 2884 3475 3122 3366
z
" transform="scale(0.015625)"/>
       <path id="DejaVuSans-64" d="M 2906 2969
L 2906 4863
L 3481 4863
L 3481 0
L 2906 0
L 2906 525
Q 2725 213 2448 61
Q 2172 -91 1784 -91
Q 1150 -91 751 415
Q 353 922 353 1747
Q 353 2572 751 3078
Q 1150 3584 1784 3584
Q 2172 3584 2448 3432
Q 2725 3281 2906 2969
z
M 947 1747
Q 947 1113 1208 752
Q 1469 391 1925 391
Q 2381 391 2643 752
Q 2906 1113 2906 1747
Q 2906 2381 2643 2742
Q 2381 3103 1925 3103
Q 1469 3103 1208 2742
Q 947 2381 947 1747
z
" transform="scale(0.015625)"/>
       <path id="DejaVuSans-20" transform="scale(0.015625)"/>
       <path id="DejaVuSans-41" d="M 2188 4044
L 1331 1722
L 3047 1722
L 2188 4044
z
M 1831 4666
L 2547 4666
L 4325 0
L 3669 0
L 3244 1197
L 1141 1197
L 716 0
L 50 0
L 1831 4666
z
" transform="scale(0.015625)"/>
       <path id="DejaVuSans-75" d="M 544 1381
L 544 3500
L 1119 3500
L 1119 1403
Q 1119 906 1312 657
Q 1506 409 1894 409
Q 2359 409 2629 706
Q 2900 1003 2900 1516
L 2900 3500
L 3475 3500
L 3475 0
L 2900 0
L 2900 538
Q 2691 219 2414 64
Q 2138 -91 1772 -91
Q 1169 -91 856 284
Q 544 659 544 1381
z
M 1991 3584
L 1991 3584
z
" transform="scale(0.015625)"/>
       <path id="DejaVuSans-79" d="M 2059 -325
Q 1816 -950 1584 -1140
Q 1353 -1331 966 -1331
L 506 -1331
L 506 -850
L 844 -850
Q 1081 -850 1212 -737
Q 1344 -625 1503 -206
L 1606 56
L 191 3500
L 800 3500
L 1894 763
L 2988 3500
L 3597 3500
L 2059 -325
z
" transform="scale(0.015625)"/>
      </defs>
      <use xlink:href="#DejaVuSans-42"/>
      <use xlink:href="#DejaVuSans-61" transform="translate(68.603516 0)"/>
      <use xlink:href="#DejaVuSans-6c" transform="translate(129.882812 0)"/>
      <use xlink:href="#DejaVuSans-61" transform="translate(157.666016 0)"/>
      <use xlink:href="#DejaVuSans-6e" transform="translate(218.945312 0)"/>
      <use xlink:href="#DejaVuSans-63" transform="translate(282.324219 0)"/>
      <use xlink:href="#DejaVuSans-65" transform="translate(337.304688 0)"/>
      <use xlink:href="#DejaVuSans-64" transform="translate(398.828125 0)"/>
      <use xlink:href="#DejaVuSans-20" transform="translate(462.304688 0)"/>
      <use xlink:href="#DejaVuSans-41" transform="translate(494.091797 0)"/>
      <use xlink:href="#DejaVuSans-63" transform="translate(560.75 0)"/>
      <use xlink:href="#DejaVuSans-63" transform="translate(615.730469 0)"/>
      <use xlink:href="#DejaVuSans-75" transform="translate(670.710938 0)"/>
      <use xlink:href="#DejaVuSans-72" transform="translate(734.089844 0)"/>
      <use xlink:href="#DejaVuSans-61" transform="translate(775.203125 0)"/>
      <use xlink:href="#DejaVuSans-63" transform="translate(836.482422 0)"/>
      <use xlink:href="#DejaVuSans-79" transform="translate(891.462891 0)"/>
     </g>
    </g>
   </g>
   <g id="matplotlib.axis_6">
    <g id="text_10">
     <!-- Aggregated -->
     <g transform="translate(9.293906 123.876771) scale(0.09 -0.09)">
      <defs>
       <path id="DejaVuSans-67" d="M 2906 1791
Q 2906 2416 2648 2759
Q 2391 3103 1925 3103
Q 1463 3103 1205 2759
Q 947 2416 947 1791
Q 947 1169 1205 825
Q 1463 481 1925 481
Q 2391 481 2648 825
Q 2906 1169 2906 1791
z
M 3481 434
Q 3481 -459 3084 -895
Q 2688 -1331 1869 -1331
Q 1566 -1331 1297 -1286
Q 1028 -1241 775 -1147
L 775 -588
Q 1028 -725 1275 -790
Q 1522 -856 1778 -856
Q 2344 -856 2625 -561
Q 2906 -266 2906 331
L 2906 616
Q 2728 306 2450 153
Q 2172 0 1784 0
Q 1141 0 747 490
Q 353 981 353 1791
Q 353 2603 747 3093
Q 1141 3584 1784 3584
Q 2172 3584 2450 3431
Q 2728 3278 2906 2969
L 2906 3500
L 3481 3500
L 3481 434
z
" transform="scale(0.015625)"/>
      </defs>
      <use xlink:href="#DejaVuSans-41"/>
      <use xlink:href="#DejaVuSans-67" transform="translate(68.408203 0)"/>
      <use xlink:href="#DejaVuSans-67" transform="translate(131.884766 0)"/>
      <use xlink:href="#DejaVuSans-72" transform="translate(195.361328 0)"/>
      <use xlink:href="#DejaVuSans-65" transform="translate(234.224609 0)"/>
      <use xlink:href="#DejaVuSans-67" transform="translate(295.748047 0)"/>
      <use xlink:href="#DejaVuSans-61" transform="translate(359.224609 0)"/>
      <use xlink:href="#DejaVuSans-74" transform="translate(420.503906 0)"/>
      <use xlink:href="#DejaVuSans-65" transform="translate(459.712891 0)"/>
      <use xlink:href="#DejaVuSans-64" transform="translate(521.236328 0)"/>
     </g>
    </g>
   </g>
   <g id="line2d_9">
    <path d="M 92.013837 135.879418
L 120.441911 135.768842
L 145.525506 135.346298
L 160.575662 134.959654
L 167.264621 134.600202
L 173.95358 134.009412
L 178.970298 133.378577
L 183.987017 132.573004
L 189.003736 131.581251
L 194.020455 130.384322
L 199.037174 128.963264
L 204.053893 127.321785
L 212.415091 124.259559
L 219.10405 121.851659
L 224.120769 120.317064
L 227.465248 119.503195
L 230.809727 118.894056
L 234.154207 118.51227
L 237.498686 118.373005
L 240.843165 118.484153
L 244.187645 118.845207
L 247.532124 119.445525
L 250.876603 120.263502
L 254.221082 121.267839
L 259.237801 123.040434
L 265.92676 125.688979
L 274.287958 129.010396
L 279.304677 130.774675
L 284.321396 132.234959
L 287.665875 133.013279
L 292.682594 133.894575
L 297.699313 134.483567
L 302.716032 134.856903
L 309.404991 135.134102
L 317.766189 135.249431
L 326.127387 135.135594
L 331.144106 134.906036
L 336.160825 134.460222
L 339.505304 133.974878
L 342.849784 133.275682
L 346.194263 132.301089
L 349.538742 130.991341
L 352.883222 129.299312
L 356.227701 127.203329
L 359.57218 124.720102
L 362.916659 121.915526
L 372.950097 113.059192
L 374.622337 111.801276
L 376.294577 110.689655
L 377.966816 109.755603
L 379.639056 109.027923
L 381.311295 108.531577
L 382.983535 108.286349
L 384.655775 108.30562
L 386.328014 108.595363
L 388.000254 109.153458
L 389.672494 109.969413
L 391.344733 111.024533
L 393.016973 112.292578
L 396.361452 115.331712
L 401.378171 120.546904
L 404.722651 123.990358
L 408.06713 127.098175
L 411.411609 129.70732
L 413.083849 130.801496
L 414.756088 131.754366
L 416.428328 132.570957
L 419.772807 133.831843
L 423.117287 134.676443
L 424.789526 134.97534
L 424.789526 134.97534
" clip-path="url(#pa775eddb62)" style="fill: none; stroke: #000000; stroke-width: 1.5; stroke-linecap: square"/>
   </g>
   <g id="patch_5">
    <path d="M 65.921406 135.88
L 424.789526 135.88
" style="fill: none; stroke: #000000; stroke-width: 0.8; stroke-linejoin: miter; stroke-linecap: square"/>
   </g>
   <g id="LineCollection_16">
    <path d="M 424.789526 135.88
L 65.921406 135.88
" style="fill: none; stroke: #000000"/>
   </g>
   <g id="LineCollection_17">
    <path d="M 92.013837 135.88
L 92.013837 129.739158
" style="fill: none; stroke: #000000"/>
   </g>
   <g id="LineCollection_18">
    <path d="M 424.789526 135.88
L 424.789526 129.739158
" style="fill: none; stroke: #000000"/>
   </g>
  </g>
  <g id="text_11">
   <!-- Group group w/ Histrogram approximated conflation experiment aggregation -->
   <g transform="translate(42.269451 6.838594) scale(0.09 -0.09)">
    <defs>
     <path id="DejaVuSans-47" d="M 3809 666
L 3809 1919
L 2778 1919
L 2778 2438
L 4434 2438
L 4434 434
Q 4069 175 3628 42
Q 3188 -91 2688 -91
Q 1594 -91 976 548
Q 359 1188 359 2328
Q 359 3472 976 4111
Q 1594 4750 2688 4750
Q 3144 4750 3555 4637
Q 3966 4525 4313 4306
L 4313 3634
Q 3963 3931 3569 4081
Q 3175 4231 2741 4231
Q 1884 4231 1454 3753
Q 1025 3275 1025 2328
Q 1025 1384 1454 906
Q 1884 428 2741 428
Q 3075 428 3337 486
Q 3600 544 3809 666
z
" transform="scale(0.015625)"/>
     <path id="DejaVuSans-6f" d="M 1959 3097
Q 1497 3097 1228 2736
Q 959 2375 959 1747
Q 959 1119 1226 758
Q 1494 397 1959 397
Q 2419 397 2687 759
Q 2956 1122 2956 1747
Q 2956 2369 2687 2733
Q 2419 3097 1959 3097
z
M 1959 3584
Q 2709 3584 3137 3096
Q 3566 2609 3566 1747
Q 3566 888 3137 398
Q 2709 -91 1959 -91
Q 1206 -91 779 398
Q 353 888 353 1747
Q 353 2609 779 3096
Q 1206 3584 1959 3584
z
" transform="scale(0.015625)"/>
     <path id="DejaVuSans-77" d="M 269 3500
L 844 3500
L 1563 769
L 2278 3500
L 2956 3500
L 3675 769
L 4391 3500
L 4966 3500
L 4050 0
L 3372 0
L 2619 2869
L 1863 0
L 1184 0
L 269 3500
z
" transform="scale(0.015625)"/>
     <path id="DejaVuSans-2f" d="M 1625 4666
L 2156 4666
L 531 -594
L 0 -594
L 1625 4666
z
" transform="scale(0.015625)"/>
     <path id="DejaVuSans-48" d="M 628 4666
L 1259 4666
L 1259 2753
L 3553 2753
L 3553 4666
L 4184 4666
L 4184 0
L 3553 0
L 3553 2222
L 1259 2222
L 1259 0
L 628 0
L 628 4666
z
" transform="scale(0.015625)"/>
     <path id="DejaVuSans-73" d="M 2834 3397
L 2834 2853
Q 2591 2978 2328 3040
Q 2066 3103 1784 3103
Q 1356 3103 1142 2972
Q 928 2841 928 2578
Q 928 2378 1081 2264
Q 1234 2150 1697 2047
L 1894 2003
Q 2506 1872 2764 1633
Q 3022 1394 3022 966
Q 3022 478 2636 193
Q 2250 -91 1575 -91
Q 1294 -91 989 -36
Q 684 19 347 128
L 347 722
Q 666 556 975 473
Q 1284 391 1588 391
Q 1994 391 2212 530
Q 2431 669 2431 922
Q 2431 1156 2273 1281
Q 2116 1406 1581 1522
L 1381 1569
Q 847 1681 609 1914
Q 372 2147 372 2553
Q 372 3047 722 3315
Q 1072 3584 1716 3584
Q 2034 3584 2315 3537
Q 2597 3491 2834 3397
z
" transform="scale(0.015625)"/>
     <path id="DejaVuSans-66" d="M 2375 4863
L 2375 4384
L 1825 4384
Q 1516 4384 1395 4259
Q 1275 4134 1275 3809
L 1275 3500
L 2222 3500
L 2222 3053
L 1275 3053
L 1275 0
L 697 0
L 697 3053
L 147 3053
L 147 3500
L 697 3500
L 697 3744
Q 697 4328 969 4595
Q 1241 4863 1831 4863
L 2375 4863
z
" transform="scale(0.015625)"/>
    </defs>
    <use xlink:href="#DejaVuSans-47"/>
    <use xlink:href="#DejaVuSans-72" transform="translate(77.490234 0)"/>
    <use xlink:href="#DejaVuSans-6f" transform="translate(116.353516 0)"/>
    <use xlink:href="#DejaVuSans-75" transform="translate(177.535156 0)"/>
    <use xlink:href="#DejaVuSans-70" transform="translate(240.914062 0)"/>
    <use xlink:href="#DejaVuSans-20" transform="translate(304.390625 0)"/>
    <use xlink:href="#DejaVuSans-67" transform="translate(336.177734 0)"/>
    <use xlink:href="#DejaVuSans-72" transform="translate(399.654297 0)"/>
    <use xlink:href="#DejaVuSans-6f" transform="translate(438.517578 0)"/>
    <use xlink:href="#DejaVuSans-75" transform="translate(499.699219 0)"/>
    <use xlink:href="#DejaVuSans-70" transform="translate(563.078125 0)"/>
    <use xlink:href="#DejaVuSans-20" transform="translate(626.554688 0)"/>
    <use xlink:href="#DejaVuSans-77" transform="translate(658.341797 0)"/>
    <use xlink:href="#DejaVuSans-2f" transform="translate(740.128906 0)"/>
    <use xlink:href="#DejaVuSans-20" transform="translate(773.820312 0)"/>
    <use xlink:href="#DejaVuSans-48" transform="translate(805.607422 0)"/>
    <use xlink:href="#DejaVuSans-69" transform="translate(880.802734 0)"/>
    <use xlink:href="#DejaVuSans-73" transform="translate(908.585938 0)"/>
    <use xlink:href="#DejaVuSans-74" transform="translate(960.685547 0)"/>
    <use xlink:href="#DejaVuSans-72" transform="translate(999.894531 0)"/>
    <use xlink:href="#DejaVuSans-6f" transform="translate(1038.757812 0)"/>
    <use xlink:href="#DejaVuSans-67" transform="translate(1099.939453 0)"/>
    <use xlink:href="#DejaVuSans-72" transform="translate(1163.416016 0)"/>
    <use xlink:href="#DejaVuSans-61" transform="translate(1204.529297 0)"/>
    <use xlink:href="#DejaVuSans-6d" transform="translate(1265.808594 0)"/>
    <use xlink:href="#DejaVuSans-20" transform="translate(1363.220703 0)"/>
    <use xlink:href="#DejaVuSans-61" transform="translate(1395.007812 0)"/>
    <use xlink:href="#DejaVuSans-70" transform="translate(1456.287109 0)"/>
    <use xlink:href="#DejaVuSans-70" transform="translate(1519.763672 0)"/>
    <use xlink:href="#DejaVuSans-72" transform="translate(1583.240234 0)"/>
    <use xlink:href="#DejaVuSans-6f" transform="translate(1622.103516 0)"/>
    <use xlink:href="#DejaVuSans-78" transform="translate(1680.160156 0)"/>
    <use xlink:href="#DejaVuSans-69" transform="translate(1739.339844 0)"/>
    <use xlink:href="#DejaVuSans-6d" transform="translate(1767.123047 0)"/>
    <use xlink:href="#DejaVuSans-61" transform="translate(1864.535156 0)"/>
    <use xlink:href="#DejaVuSans-74" transform="translate(1925.814453 0)"/>
    <use xlink:href="#DejaVuSans-65" transform="translate(1965.023438 0)"/>
    <use xlink:href="#DejaVuSans-64" transform="translate(2026.546875 0)"/>
    <use xlink:href="#DejaVuSans-20" transform="translate(2090.023438 0)"/>
    <use xlink:href="#DejaVuSans-63" transform="translate(2121.810547 0)"/>
    <use xlink:href="#DejaVuSans-6f" transform="translate(2176.791016 0)"/>
    <use xlink:href="#DejaVuSans-6e" transform="translate(2237.972656 0)"/>
    <use xlink:href="#DejaVuSans-66" transform="translate(2301.351562 0)"/>
    <use xlink:href="#DejaVuSans-6c" transform="translate(2336.556641 0)"/>
    <use xlink:href="#DejaVuSans-61" transform="translate(2364.339844 0)"/>
    <use xlink:href="#DejaVuSans-74" transform="translate(2425.619141 0)"/>
    <use xlink:href="#DejaVuSans-69" transform="translate(2464.828125 0)"/>
    <use xlink:href="#DejaVuSans-6f" transform="translate(2492.611328 0)"/>
    <use xlink:href="#DejaVuSans-6e" transform="translate(2553.792969 0)"/>
    <use xlink:href="#DejaVuSans-20" transform="translate(2617.171875 0)"/>
    <use xlink:href="#DejaVuSans-65" transform="translate(2648.958984 0)"/>
    <use xlink:href="#DejaVuSans-78" transform="translate(2708.732422 0)"/>
    <use xlink:href="#DejaVuSans-70" transform="translate(2767.912109 0)"/>
    <use xlink:href="#DejaVuSans-65" transform="translate(2831.388672 0)"/>
    <use xlink:href="#DejaVuSans-72" transform="translate(2892.912109 0)"/>
    <use xlink:href="#DejaVuSans-69" transform="translate(2934.025391 0)"/>
    <use xlink:href="#DejaVuSans-6d" transform="translate(2961.808594 0)"/>
    <use xlink:href="#DejaVuSans-65" transform="translate(3059.220703 0)"/>
    <use xlink:href="#DejaVuSans-6e" transform="translate(3120.744141 0)"/>
    <use xlink:href="#DejaVuSans-74" transform="translate(3184.123047 0)"/>
    <use xlink:href="#DejaVuSans-20" transform="translate(3223.332031 0)"/>
    <use xlink:href="#DejaVuSans-61" transform="translate(3255.119141 0)"/>
    <use xlink:href="#DejaVuSans-67" transform="translate(3316.398438 0)"/>
    <use xlink:href="#DejaVuSans-67" transform="translate(3379.875 0)"/>
    <use xlink:href="#DejaVuSans-72" transform="translate(3443.351562 0)"/>
    <use xlink:href="#DejaVuSans-65" transform="translate(3482.214844 0)"/>
    <use xlink:href="#DejaVuSans-67" transform="translate(3543.738281 0)"/>
    <use xlink:href="#DejaVuSans-61" transform="translate(3607.214844 0)"/>
    <use xlink:href="#DejaVuSans-74" transform="translate(3668.494141 0)"/>
    <use xlink:href="#DejaVuSans-69" transform="translate(3707.703125 0)"/>
    <use xlink:href="#DejaVuSans-6f" transform="translate(3735.486328 0)"/>
    <use xlink:href="#DejaVuSans-6e" transform="translate(3796.667969 0)"/>
   </g>
  </g>
 </g>
 <defs>
  <clipPath id="pe432bc657a">
   <rect x="65.921406" y="27.36" width="358.86812" height="28.973333"/>
  </clipPath>
  <clipPath id="p5562b90744">
   <rect x="65.921406" y="67.133333" width="358.86812" height="28.973333"/>
  </clipPath>
  <clipPath id="pa775eddb62">
   <rect x="65.921406" y="106.906667" width="358.86812" height="28.973333"/>
  </clipPath>
 </defs>
</svg>
