<?xml version="1.0" encoding="utf-8" standalone="no"?>
<!DOCTYPE svg PUBLIC "-//W3C//DTD SVG 1.1//EN"
  "http://www.w3.org/Graphics/SVG/1.1/DTD/svg11.dtd">
<svg xmlns:xlink="http://www.w3.org/1999/xlink" width="431.865776pt" height="164.300625pt" viewBox="0 0 431.865776 164.300625" xmlns="http://www.w3.org/2000/svg" version="1.1">
 <metadata>
  <rdf:RDF xmlns:dc="http://purl.org/dc/elements/1.1/" xmlns:cc="http://creativecommons.org/ns#" xmlns:rdf="http://www.w3.org/1999/02/22-rdf-syntax-ns#">
   <cc:Work>
    <dc:type rdf:resource="http://purl.org/dc/dcmitype/StillImage"/>
    <dc:date>2025-05-27T20:18:06.993553</dc:date>
    <dc:format>image/svg+xml</dc:format>
    <dc:creator>
     <cc:Agent>
      <dc:title>Matplotlib v3.10.0, https://matplotlib.org/</dc:title>
     </cc:Agent>
    </dc:creator>
   </cc:Work>
  </rdf:RDF>
 </metadata>
 <defs>
  <style type="text/css">*{stroke-linejoin: round; stroke-linecap: butt}</style>
 </defs>
 <g id="figure_1">
  <g id="patch_1">
   <path d="M 0 164.300625
L 431.865776 164.300625
L 431.865776 0
L 0 0
L 0 164.300625
z
" style="fill: none"/>
  </g>
  <g id="axes_1">
   <g id="patch_2">
    <path d="M 72.23125 56.333333
L 424.70937 56.333333
L 424.70937 27.36
L 72.23125 27.36
L 72.23125 56.333333
z
" style="fill: none"/>
   </g>
   <g id="FillBetweenPolyCollection_1">
    <defs>
     <path id="m04754c8210" d="M 280.634856 -107.967292
L 280.634856 -107.967441
L 281.240354 -107.967622
L 281.845851 -107.967969
L 282.451349 -107.968578
L 283.056847 -107.969553
L 283.662345 -107.970969
L 284.267843 -107.972827
L 284.873341 -107.975003
L 285.478839 -107.977234
L 286.084337 -107.979154
L 286.689834 -107.980391
L 287.295332 -107.980679
L 287.90083 -107.979956
L 288.506328 -107.978382
L 289.111826 -107.97629
L 289.717324 -107.974075
L 290.322822 -107.972093
L 290.92832 -107.970598
L 291.533818 -107.969745
L 292.139315 -107.969634
L 292.744813 -107.970362
L 293.350311 -107.972045
L 293.955809 -107.974792
L 294.561307 -107.978651
L 295.166805 -107.983542
L 295.772303 -107.989237
L 296.377801 -107.995412
L 296.983298 -108.001744
L 297.588796 -108.008
L 298.194294 -108.014054
L 298.799792 -108.019799
L 299.40529 -108.025024
L 300.010788 -108.029355
L 300.616286 -108.032352
L 301.221784 -108.033735
L 301.827282 -108.033618
L 302.432779 -108.032601
L 303.038277 -108.031667
L 303.643775 -108.031955
L 304.249273 -108.034562
L 304.854771 -108.040502
L 305.460269 -108.050804
L 306.065767 -108.066629
L 306.671265 -108.089248
L 307.276762 -108.119798
L 307.88226 -108.158876
L 308.487758 -108.206154
L 309.093256 -108.260207
L 309.698754 -108.318721
L 310.304252 -108.379072
L 310.90975 -108.439095
L 311.515248 -108.497732
L 312.120745 -108.555219
L 312.726243 -108.612717
L 313.331741 -108.671555
L 313.937239 -108.732501
L 314.542737 -108.795476
L 315.148235 -108.859845
L 315.753733 -108.925113
L 316.359231 -108.991627
L 316.964729 -109.060972
L 317.570226 -109.135916
L 318.175724 -109.21999
L 318.781222 -109.31683
L 319.38672 -109.429385
L 319.992218 -109.5591
L 320.597716 -109.70521
L 321.203214 -109.864473
L 321.808712 -110.031646
L 322.414209 -110.200915
L 323.019707 -110.368036
L 323.625205 -110.532534
L 324.230703 -110.698999
L 324.836201 -110.876673
L 325.441699 -111.077069
L 326.047197 -111.310242
L 326.652695 -111.581052
L 327.258193 -111.887009
L 327.86369 -112.218799
L 328.469188 -112.563463
L 329.074686 -112.908917
L 329.680184 -113.247888
L 330.285682 -113.579625
L 330.89118 -113.908939
L 331.496678 -114.243383
L 332.102176 -114.590095
L 332.707673 -114.953598
L 333.313171 -115.335075
L 333.918669 -115.732873
L 334.524167 -116.143639
L 335.129665 -116.563592
L 335.735163 -116.989672
L 336.340661 -117.420497
L 336.946159 -117.857014
L 337.551656 -118.302684
L 338.157154 -118.762976
L 338.762652 -119.243986
L 339.36815 -119.750267
L 339.973648 -120.282462
L 340.579146 -120.835794
L 341.184644 -121.400478
L 341.790142 -121.96427
L 342.39564 -122.51614
L 343.001137 -123.049074
L 343.606635 -123.560408
L 344.212133 -124.049641
L 344.817631 -124.515491
L 345.423129 -124.954604
L 346.028627 -125.363131
L 346.634125 -125.740181
L 347.239623 -126.090491
L 347.84512 -126.424011
L 348.450618 -126.752164
L 349.056116 -127.082909
L 349.661614 -127.41753
L 350.267112 -127.75081
L 350.87261 -128.073962
L 351.478108 -128.378066
L 352.083606 -128.655881
L 352.689104 -128.901377
L 353.294601 -129.107958
L 353.900099 -129.267126
L 354.505597 -129.368942
L 355.111095 -129.404497
L 355.716593 -129.369413
L 356.322091 -129.266663
L 356.927589 -129.107044
L 357.533087 -128.906523
L 358.138584 -128.680988
L 358.744082 -128.440253
L 359.34958 -128.183834
L 359.955078 -127.900562
L 360.560576 -127.572691
L 361.166074 -127.183163
L 361.771572 -126.723133
L 362.37707 -126.196471
L 362.982567 -125.619195
L 363.588065 -125.01405
L 364.193563 -124.402775
L 364.799061 -123.799563
L 365.404559 -123.208358
L 366.010057 -122.62449
L 366.615555 -122.038986
L 367.221053 -121.443089
L 367.826551 -120.83126
L 368.432048 -120.202384
L 369.037546 -119.559926
L 369.643044 -118.911618
L 370.248542 -118.268586
L 370.85404 -117.643394
L 371.459538 -117.046939
L 372.065036 -116.485174
L 372.670534 -115.957219
L 373.276031 -115.456006
L 373.881529 -114.971317
L 374.487027 -114.493765
L 375.092525 -114.017862
L 375.698023 -113.543003
L 376.303521 -113.072448
L 376.909019 -112.611411
L 377.514517 -112.165514
L 378.120015 -111.740256
L 378.725512 -111.341196
L 379.33101 -110.974049
L 379.936508 -110.643981
L 380.542006 -110.354143
L 381.147504 -110.104161
L 381.753002 -109.889538
L 382.3585 -109.702513
L 382.963998 -109.534113
L 383.569495 -109.376546
L 384.174993 -109.224929
L 384.780491 -109.077826
L 385.385989 -108.936599
L 385.991487 -108.804104
L 386.596985 -108.683309
L 387.202483 -108.576284
L 387.807981 -108.483734
L 388.413478 -108.405027
L 389.018976 -108.338543
L 389.624474 -108.282164
L 390.229972 -108.233761
L 390.83547 -108.191543
L 391.440968 -108.154242
L 392.046466 -108.12112
L 392.651964 -108.091833
L 393.257462 -108.066251
L 393.862959 -108.04429
L 394.468457 -108.025807
L 395.073955 -108.010586
L 395.679453 -107.998347
L 396.284951 -107.98878
L 396.890449 -107.981556
L 397.495947 -107.976325
L 398.101445 -107.972721
L 398.706942 -107.970374
L 399.31244 -107.968938
L 399.917938 -107.968116
L 400.523436 -107.967678
L 401.128934 -107.96746
L 401.128934 -107.967292
L 401.128934 -107.967292
L 400.523436 -107.967292
L 399.917938 -107.967292
L 399.31244 -107.967292
L 398.706942 -107.967292
L 398.101445 -107.967292
L 397.495947 -107.967292
L 396.890449 -107.967292
L 396.284951 -107.967292
L 395.679453 -107.967292
L 395.073955 -107.967292
L 394.468457 -107.967292
L 393.862959 -107.967292
L 393.257462 -107.967292
L 392.651964 -107.967292
L 392.046466 -107.967292
L 391.440968 -107.967292
L 390.83547 -107.967292
L 390.229972 -107.967292
L 389.624474 -107.967292
L 389.018976 -107.967292
L 388.413478 -107.967292
L 387.807981 -107.967292
L 387.202483 -107.967292
L 386.596985 -107.967292
L 385.991487 -107.967292
L 385.385989 -107.967292
L 384.780491 -107.967292
L 384.174993 -107.967292
L 383.569495 -107.967292
L 382.963998 -107.967292
L 382.3585 -107.967292
L 381.753002 -107.967292
L 381.147504 -107.967292
L 380.542006 -107.967292
L 379.936508 -107.967292
L 379.33101 -107.967292
L 378.725512 -107.967292
L 378.120015 -107.967292
L 377.514517 -107.967292
L 376.909019 -107.967292
L 376.303521 -107.967292
L 375.698023 -107.967292
L 375.092525 -107.967292
L 374.487027 -107.967292
L 373.881529 -107.967292
L 373.276031 -107.967292
L 372.670534 -107.967292
L 372.065036 -107.967292
L 371.459538 -107.967292
L 370.85404 -107.967292
L 370.248542 -107.967292
L 369.643044 -107.967292
L 369.037546 -107.967292
L 368.432048 -107.967292
L 367.826551 -107.967292
L 367.221053 -107.967292
L 366.615555 -107.967292
L 366.010057 -107.967292
L 365.404559 -107.967292
L 364.799061 -107.967292
L 364.193563 -107.967292
L 363.588065 -107.967292
L 362.982567 -107.967292
L 362.37707 -107.967292
L 361.771572 -107.967292
L 361.166074 -107.967292
L 360.560576 -107.967292
L 359.955078 -107.967292
L 359.34958 -107.967292
L 358.744082 -107.967292
L 358.138584 -107.967292
L 357.533087 -107.967292
L 356.927589 -107.967292
L 356.322091 -107.967292
L 355.716593 -107.967292
L 355.111095 -107.967292
L 354.505597 -107.967292
L 353.900099 -107.967292
L 353.294601 -107.967292
L 352.689104 -107.967292
L 352.083606 -107.967292
L 351.478108 -107.967292
L 350.87261 -107.967292
L 350.267112 -107.967292
L 349.661614 -107.967292
L 349.056116 -107.967292
L 348.450618 -107.967292
L 347.84512 -107.967292
L 347.239623 -107.967292
L 346.634125 -107.967292
L 346.028627 -107.967292
L 345.423129 -107.967292
L 344.817631 -107.967292
L 344.212133 -107.967292
L 343.606635 -107.967292
L 343.001137 -107.967292
L 342.39564 -107.967292
L 341.790142 -107.967292
L 341.184644 -107.967292
L 340.579146 -107.967292
L 339.973648 -107.967292
L 339.36815 -107.967292
L 338.762652 -107.967292
L 338.157154 -107.967292
L 337.551656 -107.967292
L 336.946159 -107.967292
L 336.340661 -107.967292
L 335.735163 -107.967292
L 335.129665 -107.967292
L 334.524167 -107.967292
L 333.918669 -107.967292
L 333.313171 -107.967292
L 332.707673 -107.967292
L 332.102176 -107.967292
L 331.496678 -107.967292
L 330.89118 -107.967292
L 330.285682 -107.967292
L 329.680184 -107.967292
L 329.074686 -107.967292
L 328.469188 -107.967292
L 327.86369 -107.967292
L 327.258193 -107.967292
L 326.652695 -107.967292
L 326.047197 -107.967292
L 325.441699 -107.967292
L 324.836201 -107.967292
L 324.230703 -107.967292
L 323.625205 -107.967292
L 323.019707 -107.967292
L 322.414209 -107.967292
L 321.808712 -107.967292
L 321.203214 -107.967292
L 320.597716 -107.967292
L 319.992218 -107.967292
L 319.38672 -107.967292
L 318.781222 -107.967292
L 318.175724 -107.967292
L 317.570226 -107.967292
L 316.964729 -107.967292
L 316.359231 -107.967292
L 315.753733 -107.967292
L 315.148235 -107.967292
L 314.542737 -107.967292
L 313.937239 -107.967292
L 313.331741 -107.967292
L 312.726243 -107.967292
L 312.120745 -107.967292
L 311.515248 -107.967292
L 310.90975 -107.967292
L 310.304252 -107.967292
L 309.698754 -107.967292
L 309.093256 -107.967292
L 308.487758 -107.967292
L 307.88226 -107.967292
L 307.276762 -107.967292
L 306.671265 -107.967292
L 306.065767 -107.967292
L 305.460269 -107.967292
L 304.854771 -107.967292
L 304.249273 -107.967292
L 303.643775 -107.967292
L 303.038277 -107.967292
L 302.432779 -107.967292
L 301.827282 -107.967292
L 301.221784 -107.967292
L 300.616286 -107.967292
L 300.010788 -107.967292
L 299.40529 -107.967292
L 298.799792 -107.967292
L 298.194294 -107.967292
L 297.588796 -107.967292
L 296.983298 -107.967292
L 296.377801 -107.967292
L 295.772303 -107.967292
L 295.166805 -107.967292
L 294.561307 -107.967292
L 293.955809 -107.967292
L 293.350311 -107.967292
L 292.744813 -107.967292
L 292.139315 -107.967292
L 291.533818 -107.967292
L 290.92832 -107.967292
L 290.322822 -107.967292
L 289.717324 -107.967292
L 289.111826 -107.967292
L 288.506328 -107.967292
L 287.90083 -107.967292
L 287.295332 -107.967292
L 286.689834 -107.967292
L 286.084337 -107.967292
L 285.478839 -107.967292
L 284.873341 -107.967292
L 284.267843 -107.967292
L 283.662345 -107.967292
L 283.056847 -107.967292
L 282.451349 -107.967292
L 281.845851 -107.967292
L 281.240354 -107.967292
L 280.634856 -107.967292
z
" style="stroke: #808080; stroke-opacity: 0.5"/>
    </defs>
    <g clip-path="url(#pe85d6c4ba4)">
     <use xlink:href="#m04754c8210" x="0" y="164.300625" style="fill: #808080; fill-opacity: 0.5; stroke: #808080; stroke-opacity: 0.5"/>
    </g>
   </g>
   <g id="LineCollection_1">
    <path d="M 353.603606 56.333333
L 353.603606 35.111439
" clip-path="url(#pe85d6c4ba4)" style="fill: none; stroke-dasharray: 5.55,2.4; stroke-dashoffset: 0; stroke: #000000; stroke-width: 1.5"/>
   </g>
   <g id="LineCollection_2">
    <path d="M 325.644913 56.333333
L 325.644913 53.1453
" clip-path="url(#pe85d6c4ba4)" style="fill: none; stroke: #000000; stroke-width: 1.5"/>
   </g>
   <g id="LineCollection_3">
    <path d="M 378.973876 56.333333
L 378.973876 53.110026
" clip-path="url(#pe85d6c4ba4)" style="fill: none; stroke: #000000; stroke-width: 1.5"/>
   </g>
   <g id="matplotlib.axis_1"/>
   <g id="matplotlib.axis_2">
    <g id="text_1">
     <!-- EXPERIMENT_A -->
     <g transform="translate(0.018281 39.724635) scale(0.09 -0.09)">
      <defs>
       <path id="DejaVuSans-45" d="M 628 4666
L 3578 4666
L 3578 4134
L 1259 4134
L 1259 2753
L 3481 2753
L 3481 2222
L 1259 2222
L 1259 531
L 3634 531
L 3634 0
L 628 0
L 628 4666
z
" transform="scale(0.015625)"/>
       <path id="DejaVuSans-58" d="M 403 4666
L 1081 4666
L 2241 2931
L 3406 4666
L 4084 4666
L 2584 2425
L 4184 0
L 3506 0
L 2194 1984
L 872 0
L 191 0
L 1856 2491
L 403 4666
z
" transform="scale(0.015625)"/>
       <path id="DejaVuSans-50" d="M 1259 4147
L 1259 2394
L 2053 2394
Q 2494 2394 2734 2622
Q 2975 2850 2975 3272
Q 2975 3691 2734 3919
Q 2494 4147 2053 4147
L 1259 4147
z
M 628 4666
L 2053 4666
Q 2838 4666 3239 4311
Q 3641 3956 3641 3272
Q 3641 2581 3239 2228
Q 2838 1875 2053 1875
L 1259 1875
L 1259 0
L 628 0
L 628 4666
z
" transform="scale(0.015625)"/>
       <path id="DejaVuSans-52" d="M 2841 2188
Q 3044 2119 3236 1894
Q 3428 1669 3622 1275
L 4263 0
L 3584 0
L 2988 1197
Q 2756 1666 2539 1819
Q 2322 1972 1947 1972
L 1259 1972
L 1259 0
L 628 0
L 628 4666
L 2053 4666
Q 2853 4666 3247 4331
Q 3641 3997 3641 3322
Q 3641 2881 3436 2590
Q 3231 2300 2841 2188
z
M 1259 4147
L 1259 2491
L 2053 2491
Q 2509 2491 2742 2702
Q 2975 2913 2975 3322
Q 2975 3731 2742 3939
Q 2509 4147 2053 4147
L 1259 4147
z
" transform="scale(0.015625)"/>
       <path id="DejaVuSans-49" d="M 628 4666
L 1259 4666
L 1259 0
L 628 0
L 628 4666
z
" transform="scale(0.015625)"/>
       <path id="DejaVuSans-4d" d="M 628 4666
L 1569 4666
L 2759 1491
L 3956 4666
L 4897 4666
L 4897 0
L 4281 0
L 4281 4097
L 3078 897
L 2444 897
L 1241 4097
L 1241 0
L 628 0
L 628 4666
z
" transform="scale(0.015625)"/>
       <path id="DejaVuSans-4e" d="M 628 4666
L 1478 4666
L 3547 763
L 3547 4666
L 4159 4666
L 4159 0
L 3309 0
L 1241 3903
L 1241 0
L 628 0
L 628 4666
z
" transform="scale(0.015625)"/>
       <path id="DejaVuSans-54" d="M -19 4666
L 3928 4666
L 3928 4134
L 2272 4134
L 2272 0
L 1638 0
L 1638 4134
L -19 4134
L -19 4666
z
" transform="scale(0.015625)"/>
       <path id="DejaVuSans-5f" d="M 3263 -1063
L 3263 -1509
L -63 -1509
L -63 -1063
L 3263 -1063
z
" transform="scale(0.015625)"/>
       <path id="DejaVuSans-41" d="M 2188 4044
L 1331 1722
L 3047 1722
L 2188 4044
z
M 1831 4666
L 2547 4666
L 4325 0
L 3669 0
L 3244 1197
L 1141 1197
L 716 0
L 50 0
L 1831 4666
z
" transform="scale(0.015625)"/>
      </defs>
      <use xlink:href="#DejaVuSans-45"/>
      <use xlink:href="#DejaVuSans-58" transform="translate(63.183594 0)"/>
      <use xlink:href="#DejaVuSans-50" transform="translate(131.689453 0)"/>
      <use xlink:href="#DejaVuSans-45" transform="translate(191.992188 0)"/>
      <use xlink:href="#DejaVuSans-52" transform="translate(255.175781 0)"/>
      <use xlink:href="#DejaVuSans-49" transform="translate(324.658203 0)"/>
      <use xlink:href="#DejaVuSans-4d" transform="translate(354.150391 0)"/>
      <use xlink:href="#DejaVuSans-45" transform="translate(440.429688 0)"/>
      <use xlink:href="#DejaVuSans-4e" transform="translate(503.613281 0)"/>
      <use xlink:href="#DejaVuSans-54" transform="translate(578.417969 0)"/>
      <use xlink:href="#DejaVuSans-5f" transform="translate(639.501953 0)"/>
      <use xlink:href="#DejaVuSans-41" transform="translate(689.501953 0)"/>
     </g>
    </g>
   </g>
   <g id="line2d_1">
    <path d="M 280.634856 56.333184
L 306.065767 56.233996
L 309.093256 56.040418
L 318.175724 55.080635
L 320.597716 54.595415
L 325.441699 53.223556
L 327.258193 52.413616
L 332.707673 49.347027
L 335.735163 47.310953
L 338.762652 45.056639
L 341.184644 42.900147
L 343.606635 40.740217
L 345.423129 39.346021
L 347.239623 38.210134
L 352.083606 35.644744
L 353.294601 35.192667
L 354.505597 34.931683
L 355.716593 34.931212
L 356.927589 35.193581
L 358.744082 35.860372
L 360.560576 36.727934
L 361.771572 37.577492
L 363.588065 39.286575
L 372.670534 48.343406
L 376.303521 51.228177
L 378.725512 52.959429
L 380.542006 53.946482
L 382.3585 54.598112
L 385.991487 55.496521
L 388.413478 55.895598
L 391.440968 56.146383
L 396.284951 56.311845
L 401.128934 56.333165
L 401.128934 56.333165
" clip-path="url(#pe85d6c4ba4)" style="fill: none; stroke: #000000; stroke-width: 1.5; stroke-linecap: square"/>
   </g>
   <g id="PathCollection_1">
    <defs>
     <path id="m66efbaef19" d="M -0 4.242641
L 4.242641 0
L 0 -4.242641
L -4.242641 -0
z
" style="stroke: #000000"/>
    </defs>
    <g>
     <use xlink:href="#m66efbaef19" x="357.117327" y="56.333333" style="stroke: #000000"/>
    </g>
   </g>
   <g id="LineCollection_4">
    <path d="M 424.70937 56.333333
L 72.23125 56.333333
" style="fill: none; stroke: #000000"/>
   </g>
   <g id="LineCollection_5">
    <path d="M 280.634856 56.333333
L 280.634856 50.192492
" style="fill: none; stroke: #000000"/>
   </g>
   <g id="LineCollection_6">
    <path d="M 401.128934 56.333333
L 401.128934 50.192492
" style="fill: none; stroke: #000000"/>
   </g>
  </g>
  <g id="axes_2">
   <g id="patch_3">
    <path d="M 72.23125 96.106667
L 424.70937 96.106667
L 424.70937 67.133333
L 72.23125 67.133333
L 72.23125 96.106667
z
" style="fill: none"/>
   </g>
   <g id="FillBetweenPolyCollection_2">
    <defs>
     <path id="m8963ca5e43" d="M 248.774206 -68.193958
L 248.774206 -68.194088
L 249.421687 -68.194229
L 250.069168 -68.194491
L 250.71665 -68.194941
L 251.364131 -68.195665
L 252.011612 -68.196749
L 252.659094 -68.198272
L 253.306575 -68.200283
L 253.954056 -68.202805
L 254.601538 -68.205845
L 255.249019 -68.209422
L 255.896501 -68.213594
L 256.543982 -68.218459
L 257.191463 -68.224114
L 257.838945 -68.23059
L 258.486426 -68.237779
L 259.133907 -68.24542
L 259.781389 -68.253156
L 260.42887 -68.260672
L 261.076351 -68.267854
L 261.723833 -68.274914
L 262.371314 -68.28241
L 263.018795 -68.291153
L 263.666277 -68.301996
L 264.313758 -68.315569
L 264.96124 -68.332053
L 265.608721 -68.351059
L 266.256202 -68.371714
L 266.903684 -68.392943
L 267.551165 -68.413878
L 268.198646 -68.434266
L 268.846128 -68.454683
L 269.493609 -68.476471
L 270.14109 -68.501364
L 270.788572 -68.530933
L 271.436053 -68.566034
L 272.083534 -68.606481
L 272.731016 -68.651075
L 273.378497 -68.698009
L 274.025978 -68.745503
L 274.67346 -68.792434
L 275.320941 -68.838726
L 275.968423 -68.885338
L 276.615904 -68.933881
L 277.263385 -68.986017
L 277.910867 -69.042908
L 278.558348 -69.104922
L 279.205829 -69.171707
L 279.853311 -69.242572
L 280.500792 -69.316991
L 281.148273 -69.395004
L 281.795755 -69.477357
L 282.443236 -69.565327
L 283.090717 -69.660345
L 283.738199 -69.76359
L 284.38568 -69.875731
L 285.033161 -69.996931
L 285.680643 -70.127115
L 286.328124 -70.266395
L 286.975606 -70.415507
L 287.623087 -70.576046
L 288.270568 -70.75036
L 288.91805 -70.941029
L 289.565531 -71.150029
L 290.213012 -71.377858
L 290.860494 -71.622931
L 291.507975 -71.88155
L 292.155456 -72.148506
L 292.802938 -72.418193
L 293.450419 -72.685959
L 294.0979 -72.949363
L 294.745382 -73.209105
L 295.392863 -73.469413
L 296.040345 -73.737749
L 296.687826 -74.023716
L 297.335307 -74.337234
L 297.982789 -74.686289
L 298.63027 -75.074829
L 299.277751 -75.501516
L 299.925233 -75.959854
L 300.572714 -76.439753
L 301.220195 -76.929981
L 301.867677 -77.420587
L 302.515158 -77.904413
L 303.162639 -78.377281
L 303.810121 -78.837131
L 304.457602 -79.282875
L 305.105083 -79.713744
L 305.752565 -80.129479
L 306.400046 -80.531056
L 307.047528 -80.921151
L 307.695009 -81.303594
L 308.34249 -81.681648
L 308.989972 -82.055708
L 309.637453 -82.421654
L 310.284934 -82.77101
L 310.932416 -83.093362
L 311.579897 -83.380349
L 312.227378 -83.629611
L 312.87486 -83.846928
L 313.522341 -84.045438
L 314.169822 -84.242125
L 314.817304 -84.45291
L 315.464785 -84.688137
L 316.112266 -84.949864
L 316.759748 -85.231504
L 317.407229 -85.519468
L 318.054711 -85.796075
L 318.702192 -86.042981
L 319.349673 -86.244532
L 319.997155 -86.390463
L 320.644636 -86.477321
L 321.292117 -86.508022
L 321.939599 -86.48945
L 322.58708 -86.428851
L 323.234561 -86.330522
L 323.882043 -86.194408
L 324.529524 -86.017392
L 325.177005 -85.796674
L 325.824487 -85.533466
L 326.471968 -85.235021
L 327.119449 -84.913947
L 327.766931 -84.58513
L 328.414412 -84.261753
L 329.061894 -83.952048
L 329.709375 -83.657828
L 330.356856 -83.374923
L 331.004338 -83.094925
L 331.651819 -82.807536
L 332.2993 -82.502907
L 332.946782 -82.173605
L 333.594263 -81.815937
L 334.241744 -81.430377
L 334.889226 -81.020982
L 335.536707 -80.593932
L 336.184188 -80.155694
L 336.83167 -79.711435
L 337.479151 -79.264195
L 338.126633 -78.814926
L 338.774114 -78.363143
L 339.421595 -77.907751
L 340.069077 -77.447752
L 340.716558 -76.982736
L 341.364039 -76.51322
L 342.011521 -76.040863
L 342.659002 -75.568439
L 343.306483 -75.099474
L 343.953965 -74.637573
L 344.601446 -74.185708
L 345.248927 -73.745874
L 345.896409 -73.319365
L 346.54389 -72.907555
L 347.191371 -72.512739
L 347.838853 -72.13844
L 348.486334 -71.78887
L 349.133816 -71.467654
L 349.781297 -71.176381
L 350.428778 -70.913703
L 351.07626 -70.675452
L 351.723741 -70.455792
L 352.371222 -70.248963
L 353.018704 -70.050909
L 353.666185 -69.860231
L 354.313666 -69.678177
L 354.961148 -69.50783
L 355.608629 -69.352859
L 356.25611 -69.2163
L 356.903592 -69.099713
L 357.551073 -69.002852
L 358.198554 -68.92382
L 358.846036 -68.859547
L 359.493517 -68.806397
L 360.140999 -68.760745
L 360.78848 -68.719409
L 361.435961 -68.679909
L 362.083443 -68.640577
L 362.730924 -68.600544
L 363.378405 -68.559646
L 364.025887 -68.518272
L 364.673368 -68.477177
L 365.320849 -68.437281
L 365.968331 -68.399497
L 366.615812 -68.364602
L 367.263293 -68.333162
L 367.910775 -68.30551
L 368.558256 -68.28175
L 369.205738 -68.261788
L 369.853219 -68.245371
L 370.5007 -68.232141
L 371.148182 -68.221685
L 371.795663 -68.213585
L 372.443144 -68.207449
L 373.090626 -68.202923
L 373.738107 -68.199689
L 374.385588 -68.197467
L 375.03307 -68.196007
L 375.680551 -68.195095
L 376.328032 -68.194555
L 376.975514 -68.194255
L 377.622995 -68.194097
L 377.622995 -68.193958
L 377.622995 -68.193958
L 376.975514 -68.193958
L 376.328032 -68.193958
L 375.680551 -68.193958
L 375.03307 -68.193958
L 374.385588 -68.193958
L 373.738107 -68.193958
L 373.090626 -68.193958
L 372.443144 -68.193958
L 371.795663 -68.193958
L 371.148182 -68.193958
L 370.5007 -68.193958
L 369.853219 -68.193958
L 369.205738 -68.193958
L 368.558256 -68.193958
L 367.910775 -68.193958
L 367.263293 -68.193958
L 366.615812 -68.193958
L 365.968331 -68.193958
L 365.320849 -68.193958
L 364.673368 -68.193958
L 364.025887 -68.193958
L 363.378405 -68.193958
L 362.730924 -68.193958
L 362.083443 -68.193958
L 361.435961 -68.193958
L 360.78848 -68.193958
L 360.140999 -68.193958
L 359.493517 -68.193958
L 358.846036 -68.193958
L 358.198554 -68.193958
L 357.551073 -68.193958
L 356.903592 -68.193958
L 356.25611 -68.193958
L 355.608629 -68.193958
L 354.961148 -68.193958
L 354.313666 -68.193958
L 353.666185 -68.193958
L 353.018704 -68.193958
L 352.371222 -68.193958
L 351.723741 -68.193958
L 351.07626 -68.193958
L 350.428778 -68.193958
L 349.781297 -68.193958
L 349.133816 -68.193958
L 348.486334 -68.193958
L 347.838853 -68.193958
L 347.191371 -68.193958
L 346.54389 -68.193958
L 345.896409 -68.193958
L 345.248927 -68.193958
L 344.601446 -68.193958
L 343.953965 -68.193958
L 343.306483 -68.193958
L 342.659002 -68.193958
L 342.011521 -68.193958
L 341.364039 -68.193958
L 340.716558 -68.193958
L 340.069077 -68.193958
L 339.421595 -68.193958
L 338.774114 -68.193958
L 338.126633 -68.193958
L 337.479151 -68.193958
L 336.83167 -68.193958
L 336.184188 -68.193958
L 335.536707 -68.193958
L 334.889226 -68.193958
L 334.241744 -68.193958
L 333.594263 -68.193958
L 332.946782 -68.193958
L 332.2993 -68.193958
L 331.651819 -68.193958
L 331.004338 -68.193958
L 330.356856 -68.193958
L 329.709375 -68.193958
L 329.061894 -68.193958
L 328.414412 -68.193958
L 327.766931 -68.193958
L 327.119449 -68.193958
L 326.471968 -68.193958
L 325.824487 -68.193958
L 325.177005 -68.193958
L 324.529524 -68.193958
L 323.882043 -68.193958
L 323.234561 -68.193958
L 322.58708 -68.193958
L 321.939599 -68.193958
L 321.292117 -68.193958
L 320.644636 -68.193958
L 319.997155 -68.193958
L 319.349673 -68.193958
L 318.702192 -68.193958
L 318.054711 -68.193958
L 317.407229 -68.193958
L 316.759748 -68.193958
L 316.112266 -68.193958
L 315.464785 -68.193958
L 314.817304 -68.193958
L 314.169822 -68.193958
L 313.522341 -68.193958
L 312.87486 -68.193958
L 312.227378 -68.193958
L 311.579897 -68.193958
L 310.932416 -68.193958
L 310.284934 -68.193958
L 309.637453 -68.193958
L 308.989972 -68.193958
L 308.34249 -68.193958
L 307.695009 -68.193958
L 307.047528 -68.193958
L 306.400046 -68.193958
L 305.752565 -68.193958
L 305.105083 -68.193958
L 304.457602 -68.193958
L 303.810121 -68.193958
L 303.162639 -68.193958
L 302.515158 -68.193958
L 301.867677 -68.193958
L 301.220195 -68.193958
L 300.572714 -68.193958
L 299.925233 -68.193958
L 299.277751 -68.193958
L 298.63027 -68.193958
L 297.982789 -68.193958
L 297.335307 -68.193958
L 296.687826 -68.193958
L 296.040345 -68.193958
L 295.392863 -68.193958
L 294.745382 -68.193958
L 294.0979 -68.193958
L 293.450419 -68.193958
L 292.802938 -68.193958
L 292.155456 -68.193958
L 291.507975 -68.193958
L 290.860494 -68.193958
L 290.213012 -68.193958
L 289.565531 -68.193958
L 288.91805 -68.193958
L 288.270568 -68.193958
L 287.623087 -68.193958
L 286.975606 -68.193958
L 286.328124 -68.193958
L 285.680643 -68.193958
L 285.033161 -68.193958
L 284.38568 -68.193958
L 283.738199 -68.193958
L 283.090717 -68.193958
L 282.443236 -68.193958
L 281.795755 -68.193958
L 281.148273 -68.193958
L 280.500792 -68.193958
L 279.853311 -68.193958
L 279.205829 -68.193958
L 278.558348 -68.193958
L 277.910867 -68.193958
L 277.263385 -68.193958
L 276.615904 -68.193958
L 275.968423 -68.193958
L 275.320941 -68.193958
L 274.67346 -68.193958
L 274.025978 -68.193958
L 273.378497 -68.193958
L 272.731016 -68.193958
L 272.083534 -68.193958
L 271.436053 -68.193958
L 270.788572 -68.193958
L 270.14109 -68.193958
L 269.493609 -68.193958
L 268.846128 -68.193958
L 268.198646 -68.193958
L 267.551165 -68.193958
L 266.903684 -68.193958
L 266.256202 -68.193958
L 265.608721 -68.193958
L 264.96124 -68.193958
L 264.313758 -68.193958
L 263.666277 -68.193958
L 263.018795 -68.193958
L 262.371314 -68.193958
L 261.723833 -68.193958
L 261.076351 -68.193958
L 260.42887 -68.193958
L 259.781389 -68.193958
L 259.133907 -68.193958
L 258.486426 -68.193958
L 257.838945 -68.193958
L 257.191463 -68.193958
L 256.543982 -68.193958
L 255.896501 -68.193958
L 255.249019 -68.193958
L 254.601538 -68.193958
L 253.954056 -68.193958
L 253.306575 -68.193958
L 252.659094 -68.193958
L 252.011612 -68.193958
L 251.364131 -68.193958
L 250.71665 -68.193958
L 250.069168 -68.193958
L 249.421687 -68.193958
L 248.774206 -68.193958
z
" style="stroke: #808080; stroke-opacity: 0.5"/>
    </defs>
    <g clip-path="url(#p92499556b8)">
     <use xlink:href="#m8963ca5e43" x="0" y="164.300625" style="fill: #808080; fill-opacity: 0.5; stroke: #808080; stroke-opacity: 0.5"/>
    </g>
   </g>
   <g id="LineCollection_7">
    <path d="M 320.520188 96.106667
L 320.520188 77.839998
" clip-path="url(#p92499556b8)" style="fill: none; stroke-dasharray: 5.55,2.4; stroke-dashoffset: 0; stroke: #000000; stroke-width: 1.5"/>
   </g>
   <g id="LineCollection_8">
    <path d="M 287.941001 96.106667
L 287.941001 93.63899
" clip-path="url(#p92499556b8)" style="fill: none; stroke: #000000; stroke-width: 1.5"/>
   </g>
   <g id="LineCollection_9">
    <path d="M 349.979833 96.106667
L 349.979833 93.204788
" clip-path="url(#p92499556b8)" style="fill: none; stroke: #000000; stroke-width: 1.5"/>
   </g>
   <g id="matplotlib.axis_3"/>
   <g id="matplotlib.axis_4">
    <g id="text_2">
     <!-- EXPERIMENT_B -->
     <g transform="translate(0 79.497969) scale(0.09 -0.09)">
      <defs>
       <path id="DejaVuSans-42" d="M 1259 2228
L 1259 519
L 2272 519
Q 2781 519 3026 730
Q 3272 941 3272 1375
Q 3272 1813 3026 2020
Q 2781 2228 2272 2228
L 1259 2228
z
M 1259 4147
L 1259 2741
L 2194 2741
Q 2656 2741 2882 2914
Q 3109 3088 3109 3444
Q 3109 3797 2882 3972
Q 2656 4147 2194 4147
L 1259 4147
z
M 628 4666
L 2241 4666
Q 2963 4666 3353 4366
Q 3744 4066 3744 3513
Q 3744 3084 3544 2831
Q 3344 2578 2956 2516
Q 3422 2416 3680 2098
Q 3938 1781 3938 1306
Q 3938 681 3513 340
Q 3088 0 2303 0
L 628 0
L 628 4666
z
" transform="scale(0.015625)"/>
      </defs>
      <use xlink:href="#DejaVuSans-45"/>
      <use xlink:href="#DejaVuSans-58" transform="translate(63.183594 0)"/>
      <use xlink:href="#DejaVuSans-50" transform="translate(131.689453 0)"/>
      <use xlink:href="#DejaVuSans-45" transform="translate(191.992188 0)"/>
      <use xlink:href="#DejaVuSans-52" transform="translate(255.175781 0)"/>
      <use xlink:href="#DejaVuSans-49" transform="translate(324.658203 0)"/>
      <use xlink:href="#DejaVuSans-4d" transform="translate(354.150391 0)"/>
      <use xlink:href="#DejaVuSans-45" transform="translate(440.429688 0)"/>
      <use xlink:href="#DejaVuSans-4e" transform="translate(503.613281 0)"/>
      <use xlink:href="#DejaVuSans-54" transform="translate(578.417969 0)"/>
      <use xlink:href="#DejaVuSans-5f" transform="translate(639.501953 0)"/>
      <use xlink:href="#DejaVuSans-42" transform="translate(689.501953 0)"/>
     </g>
    </g>
   </g>
   <g id="line2d_2">
    <path d="M 248.774206 96.106537
L 263.666277 95.998629
L 271.436053 95.734591
L 278.558348 95.195703
L 283.090717 94.64028
L 286.328124 94.03423
L 288.91805 93.359596
L 291.507975 92.419075
L 297.335307 89.963391
L 299.277751 88.799109
L 307.047528 83.379474
L 310.932416 81.207263
L 312.87486 80.453697
L 316.112266 79.350761
L 319.349673 78.056093
L 320.644636 77.823304
L 321.939599 77.811175
L 323.234561 77.970103
L 324.529524 78.283233
L 325.824487 78.767159
L 332.946782 82.12702
L 334.889226 83.279643
L 339.421595 86.392874
L 347.191371 91.787886
L 349.133816 92.832971
L 351.07626 93.625173
L 354.313666 94.622448
L 356.903592 95.200912
L 359.493517 95.494228
L 367.910775 95.995115
L 373.738107 96.100936
L 377.622995 96.106528
L 377.622995 96.106528
" clip-path="url(#p92499556b8)" style="fill: none; stroke: #000000; stroke-width: 1.5; stroke-linecap: square"/>
   </g>
   <g id="PathCollection_2">
    <g>
     <use xlink:href="#m66efbaef19" x="323.321305" y="96.106667" style="stroke: #000000"/>
    </g>
   </g>
   <g id="LineCollection_10">
    <path d="M 424.70937 96.106667
L 72.23125 96.106667
" style="fill: none; stroke: #000000"/>
   </g>
   <g id="LineCollection_11">
    <path d="M 248.774206 96.106667
L 248.774206 89.965825
" style="fill: none; stroke: #000000"/>
   </g>
   <g id="LineCollection_12">
    <path d="M 377.622995 96.106667
L 377.622995 89.965825
" style="fill: none; stroke: #000000"/>
   </g>
  </g>
  <g id="axes_3">
   <g id="patch_4">
    <path d="M 72.23125 135.88
L 424.70937 135.88
L 424.70937 106.906667
L 72.23125 106.906667
L 72.23125 135.88
z
" style="fill: none"/>
   </g>
   <g id="FillBetweenPolyCollection_3">
    <defs>
     <path id="mac2702b433" d="M 296.31556 -28.420625
L 296.31556 -28.421132
L 296.775438 -28.421795
L 297.235316 -28.423131
L 297.695193 -28.425604
L 298.155071 -28.429807
L 298.614949 -28.436347
L 299.074827 -28.445635
L 299.534705 -28.457619
L 299.994583 -28.471571
L 300.454461 -28.486073
L 300.914339 -28.499307
L 301.374217 -28.509604
L 301.834095 -28.51607
L 302.293973 -28.518974
L 302.753851 -28.519701
L 303.213729 -28.520247
L 303.673606 -28.522493
L 304.133484 -28.527639
L 304.593362 -28.536081
L 305.05324 -28.54778
L 305.513118 -28.562905
L 305.972996 -28.582382
L 306.432874 -28.608035
L 306.892752 -28.642222
L 307.35263 -28.687109
L 307.812508 -28.743923
L 308.272386 -28.812539
L 308.732264 -28.891661
L 309.192142 -28.979529
L 309.65202 -29.074813
L 310.111897 -29.177142
L 310.571775 -29.286921
L 311.031653 -29.404448
L 311.491531 -29.52888
L 311.951409 -29.657761
L 312.411287 -29.787569
L 312.871165 -29.915105
L 313.331043 -30.03899
L 313.790921 -30.160447
L 314.250799 -30.282968
L 314.710677 -30.411219
L 315.170555 -30.549909
L 315.630433 -30.703295
L 316.09031 -30.875469
L 316.550188 -31.071094
L 317.010066 -31.295986
L 317.469944 -31.557051
L 317.929822 -31.86137
L 318.3897 -32.214571
L 318.849578 -32.619032
L 319.309456 -33.0726
L 319.769334 -33.568438
L 320.229212 -34.096137
L 320.68909 -34.643739
L 321.148968 -35.200034
L 321.608846 -35.756638
L 322.068724 -36.309657
L 322.528601 -36.860882
L 322.988479 -37.418213
L 323.448357 -37.994753
L 323.908235 -38.606085
L 324.368113 -39.265885
L 324.827991 -39.98096
L 325.287869 -40.747421
L 325.747747 -41.549653
L 326.207625 -42.362932
L 326.667503 -43.159337
L 327.127381 -43.915338
L 327.587259 -44.618537
L 328.047137 -45.270932
L 328.507014 -45.887032
L 328.966892 -46.487223
L 329.42677 -47.089139
L 329.886648 -47.701089
L 330.346526 -48.320765
L 330.806404 -48.939556
L 331.266282 -49.549592
L 331.72616 -50.149059
L 332.186038 -50.742622
L 332.645916 -51.336993
L 333.105794 -51.934715
L 333.565672 -52.53011
L 334.02555 -53.109753
L 334.485428 -53.656972
L 334.945305 -54.157626
L 335.405183 -54.603887
L 335.865061 -54.994111
L 336.324939 -55.329158
L 336.784817 -55.607482
L 337.244695 -55.822066
L 337.704573 -55.961363
L 338.164451 -56.014276
L 338.624329 -55.976848
L 339.084207 -55.857067
L 339.544085 -55.674846
L 340.003963 -55.45673
L 340.463841 -55.227638
L 340.923718 -55.003456
L 341.383596 -54.787521
L 341.843474 -54.571779
L 342.303352 -54.341114
L 342.76323 -54.078435
L 343.223108 -53.768701
L 343.682986 -53.401356
L 344.142864 -52.971578
L 344.602742 -52.48084
L 345.06262 -51.936863
L 345.522498 -51.352521
L 345.982376 -50.743347
L 346.442254 -50.123818
L 346.902132 -49.503398
L 347.362009 -48.883784
L 347.821887 -48.258558
L 348.281765 -47.615552
L 348.741643 -46.941152
L 349.201521 -46.224974
L 349.661399 -45.463335
L 350.121277 -44.660455
L 350.581155 -43.827294
L 351.041033 -42.978744
L 351.500911 -42.130392
L 351.960789 -41.296054
L 352.420667 -40.486669
L 352.880545 -39.710402
L 353.340422 -38.973164
L 353.8003 -38.278816
L 354.260178 -37.628879
L 354.720056 -37.022261
L 355.179934 -36.455718
L 355.639812 -35.925273
L 356.09969 -35.428018
L 356.559568 -34.963247
L 357.019446 -34.532119
L 357.479324 -34.135874
L 357.939202 -33.773431
L 358.39908 -33.439582
L 358.858958 -33.124753
L 359.318835 -32.816681
L 359.778713 -32.503556
L 360.238591 -32.177532
L 360.698469 -31.837301
L 361.158347 -31.488725
L 361.618225 -31.143289
L 362.078103 -30.814968
L 362.537981 -30.516603
L 362.997859 -30.25688
L 363.457737 -30.038707
L 363.917615 -29.859276
L 364.377493 -29.711685
L 364.837371 -29.587481
L 365.297249 -29.479219
L 365.757126 -29.382079
L 366.217004 -29.294017
L 366.676882 -29.214671
L 367.13676 -29.143827
L 367.596638 -29.080366
L 368.056516 -29.022193
L 368.516394 -28.966953
L 368.976272 -28.912945
L 369.43615 -28.859635
L 369.896028 -28.807549
L 370.355906 -28.757741
L 370.815784 -28.711208
L 371.275662 -28.668549
L 371.735539 -28.62995
L 372.195417 -28.595358
L 372.655295 -28.564688
L 373.115173 -28.537923
L 373.575051 -28.515101
L 374.034929 -28.496227
L 374.494807 -28.481162
L 374.954685 -28.469544
L 375.414563 -28.460779
L 375.874441 -28.454104
L 376.334319 -28.448736
L 376.794197 -28.444041
L 377.254075 -28.439659
L 377.713953 -28.435529
L 378.17383 -28.431823
L 378.633708 -28.428814
L 379.093586 -28.426766
L 379.553464 -28.42585
L 380.013342 -28.426124
L 380.47322 -28.427507
L 380.933098 -28.429768
L 381.392976 -28.432516
L 381.852854 -28.435222
L 382.312732 -28.437315
L 382.77261 -28.438317
L 383.232488 -28.437984
L 383.692366 -28.436383
L 384.152243 -28.433857
L 384.612121 -28.430901
L 385.071999 -28.428007
L 385.531877 -28.42553
L 385.991755 -28.423639
L 386.451633 -28.422338
L 386.911511 -28.421526
L 387.371389 -28.421063
L 387.831267 -28.420822
L 387.831267 -28.420625
L 387.831267 -28.420625
L 387.371389 -28.420625
L 386.911511 -28.420625
L 386.451633 -28.420625
L 385.991755 -28.420625
L 385.531877 -28.420625
L 385.071999 -28.420625
L 384.612121 -28.420625
L 384.152243 -28.420625
L 383.692366 -28.420625
L 383.232488 -28.420625
L 382.77261 -28.420625
L 382.312732 -28.420625
L 381.852854 -28.420625
L 381.392976 -28.420625
L 380.933098 -28.420625
L 380.47322 -28.420625
L 380.013342 -28.420625
L 379.553464 -28.420625
L 379.093586 -28.420625
L 378.633708 -28.420625
L 378.17383 -28.420625
L 377.713953 -28.420625
L 377.254075 -28.420625
L 376.794197 -28.420625
L 376.334319 -28.420625
L 375.874441 -28.420625
L 375.414563 -28.420625
L 374.954685 -28.420625
L 374.494807 -28.420625
L 374.034929 -28.420625
L 373.575051 -28.420625
L 373.115173 -28.420625
L 372.655295 -28.420625
L 372.195417 -28.420625
L 371.735539 -28.420625
L 371.275662 -28.420625
L 370.815784 -28.420625
L 370.355906 -28.420625
L 369.896028 -28.420625
L 369.43615 -28.420625
L 368.976272 -28.420625
L 368.516394 -28.420625
L 368.056516 -28.420625
L 367.596638 -28.420625
L 367.13676 -28.420625
L 366.676882 -28.420625
L 366.217004 -28.420625
L 365.757126 -28.420625
L 365.297249 -28.420625
L 364.837371 -28.420625
L 364.377493 -28.420625
L 363.917615 -28.420625
L 363.457737 -28.420625
L 362.997859 -28.420625
L 362.537981 -28.420625
L 362.078103 -28.420625
L 361.618225 -28.420625
L 361.158347 -28.420625
L 360.698469 -28.420625
L 360.238591 -28.420625
L 359.778713 -28.420625
L 359.318835 -28.420625
L 358.858958 -28.420625
L 358.39908 -28.420625
L 357.939202 -28.420625
L 357.479324 -28.420625
L 357.019446 -28.420625
L 356.559568 -28.420625
L 356.09969 -28.420625
L 355.639812 -28.420625
L 355.179934 -28.420625
L 354.720056 -28.420625
L 354.260178 -28.420625
L 353.8003 -28.420625
L 353.340422 -28.420625
L 352.880545 -28.420625
L 352.420667 -28.420625
L 351.960789 -28.420625
L 351.500911 -28.420625
L 351.041033 -28.420625
L 350.581155 -28.420625
L 350.121277 -28.420625
L 349.661399 -28.420625
L 349.201521 -28.420625
L 348.741643 -28.420625
L 348.281765 -28.420625
L 347.821887 -28.420625
L 347.362009 -28.420625
L 346.902132 -28.420625
L 346.442254 -28.420625
L 345.982376 -28.420625
L 345.522498 -28.420625
L 345.06262 -28.420625
L 344.602742 -28.420625
L 344.142864 -28.420625
L 343.682986 -28.420625
L 343.223108 -28.420625
L 342.76323 -28.420625
L 342.303352 -28.420625
L 341.843474 -28.420625
L 341.383596 -28.420625
L 340.923718 -28.420625
L 340.463841 -28.420625
L 340.003963 -28.420625
L 339.544085 -28.420625
L 339.084207 -28.420625
L 338.624329 -28.420625
L 338.164451 -28.420625
L 337.704573 -28.420625
L 337.244695 -28.420625
L 336.784817 -28.420625
L 336.324939 -28.420625
L 335.865061 -28.420625
L 335.405183 -28.420625
L 334.945305 -28.420625
L 334.485428 -28.420625
L 334.02555 -28.420625
L 333.565672 -28.420625
L 333.105794 -28.420625
L 332.645916 -28.420625
L 332.186038 -28.420625
L 331.72616 -28.420625
L 331.266282 -28.420625
L 330.806404 -28.420625
L 330.346526 -28.420625
L 329.886648 -28.420625
L 329.42677 -28.420625
L 328.966892 -28.420625
L 328.507014 -28.420625
L 328.047137 -28.420625
L 327.587259 -28.420625
L 327.127381 -28.420625
L 326.667503 -28.420625
L 326.207625 -28.420625
L 325.747747 -28.420625
L 325.287869 -28.420625
L 324.827991 -28.420625
L 324.368113 -28.420625
L 323.908235 -28.420625
L 323.448357 -28.420625
L 322.988479 -28.420625
L 322.528601 -28.420625
L 322.068724 -28.420625
L 321.608846 -28.420625
L 321.148968 -28.420625
L 320.68909 -28.420625
L 320.229212 -28.420625
L 319.769334 -28.420625
L 319.309456 -28.420625
L 318.849578 -28.420625
L 318.3897 -28.420625
L 317.929822 -28.420625
L 317.469944 -28.420625
L 317.010066 -28.420625
L 316.550188 -28.420625
L 316.09031 -28.420625
L 315.630433 -28.420625
L 315.170555 -28.420625
L 314.710677 -28.420625
L 314.250799 -28.420625
L 313.790921 -28.420625
L 313.331043 -28.420625
L 312.871165 -28.420625
L 312.411287 -28.420625
L 311.951409 -28.420625
L 311.491531 -28.420625
L 311.031653 -28.420625
L 310.571775 -28.420625
L 310.111897 -28.420625
L 309.65202 -28.420625
L 309.192142 -28.420625
L 308.732264 -28.420625
L 308.272386 -28.420625
L 307.812508 -28.420625
L 307.35263 -28.420625
L 306.892752 -28.420625
L 306.432874 -28.420625
L 305.972996 -28.420625
L 305.513118 -28.420625
L 305.05324 -28.420625
L 304.593362 -28.420625
L 304.133484 -28.420625
L 303.673606 -28.420625
L 303.213729 -28.420625
L 302.753851 -28.420625
L 302.293973 -28.420625
L 301.834095 -28.420625
L 301.374217 -28.420625
L 300.914339 -28.420625
L 300.454461 -28.420625
L 299.994583 -28.420625
L 299.534705 -28.420625
L 299.074827 -28.420625
L 298.614949 -28.420625
L 298.155071 -28.420625
L 297.695193 -28.420625
L 297.235316 -28.420625
L 296.775438 -28.420625
L 296.31556 -28.420625
z
" style="stroke: #808080; stroke-opacity: 0.5"/>
    </defs>
    <g clip-path="url(#p0351406e10)">
     <use xlink:href="#mac2702b433" x="0" y="164.300625" style="fill: #808080; fill-opacity: 0.5; stroke: #808080; stroke-opacity: 0.5"/>
    </g>
   </g>
   <g id="LineCollection_13">
    <path d="M 338.876069 135.88
L 338.876069 108.389346
" clip-path="url(#p0351406e10)" style="fill: none; stroke-dasharray: 5.55,2.4; stroke-dashoffset: 0; stroke: #000000; stroke-width: 1.5"/>
   </g>
   <g id="LineCollection_14">
    <path d="M 319.806544 135.88
L 319.806544 130.689489
" clip-path="url(#p0351406e10)" style="fill: none; stroke: #000000; stroke-width: 1.5"/>
   </g>
   <g id="LineCollection_15">
    <path d="M 360.248042 135.88
L 360.248042 132.130086
" clip-path="url(#p0351406e10)" style="fill: none; stroke: #000000; stroke-width: 1.5"/>
   </g>
   <g id="matplotlib.axis_5">
    <g id="xtick_1">
     <g id="line2d_3">
      <defs>
       <path id="m9e1865cbbe" d="M 0 0
L 0 3.5
" style="stroke: #000000; stroke-width: 0.8"/>
      </defs>
      <g>
       <use xlink:href="#m9e1865cbbe" x="100.267562" y="135.88" style="stroke: #000000; stroke-width: 0.8"/>
      </g>
     </g>
     <g id="text_3">
      <!-- 0.2 -->
      <g transform="translate(93.111156 149.718594) scale(0.09 -0.09)">
       <defs>
        <path id="DejaVuSans-30" d="M 2034 4250
Q 1547 4250 1301 3770
Q 1056 3291 1056 2328
Q 1056 1369 1301 889
Q 1547 409 2034 409
Q 2525 409 2770 889
Q 3016 1369 3016 2328
Q 3016 3291 2770 3770
Q 2525 4250 2034 4250
z
M 2034 4750
Q 2819 4750 3233 4129
Q 3647 3509 3647 2328
Q 3647 1150 3233 529
Q 2819 -91 2034 -91
Q 1250 -91 836 529
Q 422 1150 422 2328
Q 422 3509 836 4129
Q 1250 4750 2034 4750
z
" transform="scale(0.015625)"/>
        <path id="DejaVuSans-2e" d="M 684 794
L 1344 794
L 1344 0
L 684 0
L 684 794
z
" transform="scale(0.015625)"/>
        <path id="DejaVuSans-32" d="M 1228 531
L 3431 531
L 3431 0
L 469 0
L 469 531
Q 828 903 1448 1529
Q 2069 2156 2228 2338
Q 2531 2678 2651 2914
Q 2772 3150 2772 3378
Q 2772 3750 2511 3984
Q 2250 4219 1831 4219
Q 1534 4219 1204 4116
Q 875 4013 500 3803
L 500 4441
Q 881 4594 1212 4672
Q 1544 4750 1819 4750
Q 2544 4750 2975 4387
Q 3406 4025 3406 3419
Q 3406 3131 3298 2873
Q 3191 2616 2906 2266
Q 2828 2175 2409 1742
Q 1991 1309 1228 531
z
" transform="scale(0.015625)"/>
       </defs>
       <use xlink:href="#DejaVuSans-30"/>
       <use xlink:href="#DejaVuSans-2e" transform="translate(63.623047 0)"/>
       <use xlink:href="#DejaVuSans-32" transform="translate(95.410156 0)"/>
      </g>
     </g>
    </g>
    <g id="xtick_2">
     <g id="line2d_4">
      <g>
       <use xlink:href="#m9e1865cbbe" x="140.822788" y="135.88" style="stroke: #000000; stroke-width: 0.8"/>
      </g>
     </g>
     <g id="text_4">
      <!-- 0.3 -->
      <g transform="translate(133.666382 149.718594) scale(0.09 -0.09)">
       <defs>
        <path id="DejaVuSans-33" d="M 2597 2516
Q 3050 2419 3304 2112
Q 3559 1806 3559 1356
Q 3559 666 3084 287
Q 2609 -91 1734 -91
Q 1441 -91 1130 -33
Q 819 25 488 141
L 488 750
Q 750 597 1062 519
Q 1375 441 1716 441
Q 2309 441 2620 675
Q 2931 909 2931 1356
Q 2931 1769 2642 2001
Q 2353 2234 1838 2234
L 1294 2234
L 1294 2753
L 1863 2753
Q 2328 2753 2575 2939
Q 2822 3125 2822 3475
Q 2822 3834 2567 4026
Q 2313 4219 1838 4219
Q 1578 4219 1281 4162
Q 984 4106 628 3988
L 628 4550
Q 988 4650 1302 4700
Q 1616 4750 1894 4750
Q 2613 4750 3031 4423
Q 3450 4097 3450 3541
Q 3450 3153 3228 2886
Q 3006 2619 2597 2516
z
" transform="scale(0.015625)"/>
       </defs>
       <use xlink:href="#DejaVuSans-30"/>
       <use xlink:href="#DejaVuSans-2e" transform="translate(63.623047 0)"/>
       <use xlink:href="#DejaVuSans-33" transform="translate(95.410156 0)"/>
      </g>
     </g>
    </g>
    <g id="xtick_3">
     <g id="line2d_5">
      <g>
       <use xlink:href="#m9e1865cbbe" x="181.378014" y="135.88" style="stroke: #000000; stroke-width: 0.8"/>
      </g>
     </g>
     <g id="text_5">
      <!-- 0.4 -->
      <g transform="translate(174.221608 149.718594) scale(0.09 -0.09)">
       <defs>
        <path id="DejaVuSans-34" d="M 2419 4116
L 825 1625
L 2419 1625
L 2419 4116
z
M 2253 4666
L 3047 4666
L 3047 1625
L 3713 1625
L 3713 1100
L 3047 1100
L 3047 0
L 2419 0
L 2419 1100
L 313 1100
L 313 1709
L 2253 4666
z
" transform="scale(0.015625)"/>
       </defs>
       <use xlink:href="#DejaVuSans-30"/>
       <use xlink:href="#DejaVuSans-2e" transform="translate(63.623047 0)"/>
       <use xlink:href="#DejaVuSans-34" transform="translate(95.410156 0)"/>
      </g>
     </g>
    </g>
    <g id="xtick_4">
     <g id="line2d_6">
      <g>
       <use xlink:href="#m9e1865cbbe" x="221.93324" y="135.88" style="stroke: #000000; stroke-width: 0.8"/>
      </g>
     </g>
     <g id="text_6">
      <!-- 0.5 -->
      <g transform="translate(214.776834 149.718594) scale(0.09 -0.09)">
       <defs>
        <path id="DejaVuSans-35" d="M 691 4666
L 3169 4666
L 3169 4134
L 1269 4134
L 1269 2991
Q 1406 3038 1543 3061
Q 1681 3084 1819 3084
Q 2600 3084 3056 2656
Q 3513 2228 3513 1497
Q 3513 744 3044 326
Q 2575 -91 1722 -91
Q 1428 -91 1123 -41
Q 819 9 494 109
L 494 744
Q 775 591 1075 516
Q 1375 441 1709 441
Q 2250 441 2565 725
Q 2881 1009 2881 1497
Q 2881 1984 2565 2268
Q 2250 2553 1709 2553
Q 1456 2553 1204 2497
Q 953 2441 691 2322
L 691 4666
z
" transform="scale(0.015625)"/>
       </defs>
       <use xlink:href="#DejaVuSans-30"/>
       <use xlink:href="#DejaVuSans-2e" transform="translate(63.623047 0)"/>
       <use xlink:href="#DejaVuSans-35" transform="translate(95.410156 0)"/>
      </g>
     </g>
    </g>
    <g id="xtick_5">
     <g id="line2d_7">
      <g>
       <use xlink:href="#m9e1865cbbe" x="262.488466" y="135.88" style="stroke: #000000; stroke-width: 0.8"/>
      </g>
     </g>
     <g id="text_7">
      <!-- 0.6 -->
      <g transform="translate(255.33206 149.718594) scale(0.09 -0.09)">
       <defs>
        <path id="DejaVuSans-36" d="M 2113 2584
Q 1688 2584 1439 2293
Q 1191 2003 1191 1497
Q 1191 994 1439 701
Q 1688 409 2113 409
Q 2538 409 2786 701
Q 3034 994 3034 1497
Q 3034 2003 2786 2293
Q 2538 2584 2113 2584
z
M 3366 4563
L 3366 3988
Q 3128 4100 2886 4159
Q 2644 4219 2406 4219
Q 1781 4219 1451 3797
Q 1122 3375 1075 2522
Q 1259 2794 1537 2939
Q 1816 3084 2150 3084
Q 2853 3084 3261 2657
Q 3669 2231 3669 1497
Q 3669 778 3244 343
Q 2819 -91 2113 -91
Q 1303 -91 875 529
Q 447 1150 447 2328
Q 447 3434 972 4092
Q 1497 4750 2381 4750
Q 2619 4750 2861 4703
Q 3103 4656 3366 4563
z
" transform="scale(0.015625)"/>
       </defs>
       <use xlink:href="#DejaVuSans-30"/>
       <use xlink:href="#DejaVuSans-2e" transform="translate(63.623047 0)"/>
       <use xlink:href="#DejaVuSans-36" transform="translate(95.410156 0)"/>
      </g>
     </g>
    </g>
    <g id="xtick_6">
     <g id="line2d_8">
      <g>
       <use xlink:href="#m9e1865cbbe" x="303.043692" y="135.88" style="stroke: #000000; stroke-width: 0.8"/>
      </g>
     </g>
     <g id="text_8">
      <!-- 0.7 -->
      <g transform="translate(295.887286 149.718594) scale(0.09 -0.09)">
       <defs>
        <path id="DejaVuSans-37" d="M 525 4666
L 3525 4666
L 3525 4397
L 1831 0
L 1172 0
L 2766 4134
L 525 4134
L 525 4666
z
" transform="scale(0.015625)"/>
       </defs>
       <use xlink:href="#DejaVuSans-30"/>
       <use xlink:href="#DejaVuSans-2e" transform="translate(63.623047 0)"/>
       <use xlink:href="#DejaVuSans-37" transform="translate(95.410156 0)"/>
      </g>
     </g>
    </g>
    <g id="xtick_7">
     <g id="line2d_9">
      <g>
       <use xlink:href="#m9e1865cbbe" x="343.598918" y="135.88" style="stroke: #000000; stroke-width: 0.8"/>
      </g>
     </g>
     <g id="text_9">
      <!-- 0.8 -->
      <g transform="translate(336.442512 149.718594) scale(0.09 -0.09)">
       <defs>
        <path id="DejaVuSans-38" d="M 2034 2216
Q 1584 2216 1326 1975
Q 1069 1734 1069 1313
Q 1069 891 1326 650
Q 1584 409 2034 409
Q 2484 409 2743 651
Q 3003 894 3003 1313
Q 3003 1734 2745 1975
Q 2488 2216 2034 2216
z
M 1403 2484
Q 997 2584 770 2862
Q 544 3141 544 3541
Q 544 4100 942 4425
Q 1341 4750 2034 4750
Q 2731 4750 3128 4425
Q 3525 4100 3525 3541
Q 3525 3141 3298 2862
Q 3072 2584 2669 2484
Q 3125 2378 3379 2068
Q 3634 1759 3634 1313
Q 3634 634 3220 271
Q 2806 -91 2034 -91
Q 1263 -91 848 271
Q 434 634 434 1313
Q 434 1759 690 2068
Q 947 2378 1403 2484
z
M 1172 3481
Q 1172 3119 1398 2916
Q 1625 2713 2034 2713
Q 2441 2713 2670 2916
Q 2900 3119 2900 3481
Q 2900 3844 2670 4047
Q 2441 4250 2034 4250
Q 1625 4250 1398 4047
Q 1172 3844 1172 3481
z
" transform="scale(0.015625)"/>
       </defs>
       <use xlink:href="#DejaVuSans-30"/>
       <use xlink:href="#DejaVuSans-2e" transform="translate(63.623047 0)"/>
       <use xlink:href="#DejaVuSans-38" transform="translate(95.410156 0)"/>
      </g>
     </g>
    </g>
    <g id="xtick_8">
     <g id="line2d_10">
      <g>
       <use xlink:href="#m9e1865cbbe" x="384.154144" y="135.88" style="stroke: #000000; stroke-width: 0.8"/>
      </g>
     </g>
     <g id="text_10">
      <!-- 0.9 -->
      <g transform="translate(376.997738 149.718594) scale(0.09 -0.09)">
       <defs>
        <path id="DejaVuSans-39" d="M 703 97
L 703 672
Q 941 559 1184 500
Q 1428 441 1663 441
Q 2288 441 2617 861
Q 2947 1281 2994 2138
Q 2813 1869 2534 1725
Q 2256 1581 1919 1581
Q 1219 1581 811 2004
Q 403 2428 403 3163
Q 403 3881 828 4315
Q 1253 4750 1959 4750
Q 2769 4750 3195 4129
Q 3622 3509 3622 2328
Q 3622 1225 3098 567
Q 2575 -91 1691 -91
Q 1453 -91 1209 -44
Q 966 3 703 97
z
M 1959 2075
Q 2384 2075 2632 2365
Q 2881 2656 2881 3163
Q 2881 3666 2632 3958
Q 2384 4250 1959 4250
Q 1534 4250 1286 3958
Q 1038 3666 1038 3163
Q 1038 2656 1286 2365
Q 1534 2075 1959 2075
z
" transform="scale(0.015625)"/>
       </defs>
       <use xlink:href="#DejaVuSans-30"/>
       <use xlink:href="#DejaVuSans-2e" transform="translate(63.623047 0)"/>
       <use xlink:href="#DejaVuSans-39" transform="translate(95.410156 0)"/>
      </g>
     </g>
    </g>
    <g id="xtick_9">
     <g id="line2d_11">
      <g>
       <use xlink:href="#m9e1865cbbe" x="424.70937" y="135.88" style="stroke: #000000; stroke-width: 0.8"/>
      </g>
     </g>
     <g id="text_11">
      <!-- 1.0 -->
      <g transform="translate(417.552964 149.718594) scale(0.09 -0.09)">
       <defs>
        <path id="DejaVuSans-31" d="M 794 531
L 1825 531
L 1825 4091
L 703 3866
L 703 4441
L 1819 4666
L 2450 4666
L 2450 531
L 3481 531
L 3481 0
L 794 0
L 794 531
z
" transform="scale(0.015625)"/>
       </defs>
       <use xlink:href="#DejaVuSans-31"/>
       <use xlink:href="#DejaVuSans-2e" transform="translate(63.623047 0)"/>
       <use xlink:href="#DejaVuSans-30" transform="translate(95.410156 0)"/>
      </g>
     </g>
    </g>
    <g id="text_12">
     <!-- Accuracy -->
     <g transform="translate(227.924998 162.428906) scale(0.09 -0.09)">
      <defs>
       <path id="DejaVuSans-63" d="M 3122 3366
L 3122 2828
Q 2878 2963 2633 3030
Q 2388 3097 2138 3097
Q 1578 3097 1268 2742
Q 959 2388 959 1747
Q 959 1106 1268 751
Q 1578 397 2138 397
Q 2388 397 2633 464
Q 2878 531 3122 666
L 3122 134
Q 2881 22 2623 -34
Q 2366 -91 2075 -91
Q 1284 -91 818 406
Q 353 903 353 1747
Q 353 2603 823 3093
Q 1294 3584 2113 3584
Q 2378 3584 2631 3529
Q 2884 3475 3122 3366
z
" transform="scale(0.015625)"/>
       <path id="DejaVuSans-75" d="M 544 1381
L 544 3500
L 1119 3500
L 1119 1403
Q 1119 906 1312 657
Q 1506 409 1894 409
Q 2359 409 2629 706
Q 2900 1003 2900 1516
L 2900 3500
L 3475 3500
L 3475 0
L 2900 0
L 2900 538
Q 2691 219 2414 64
Q 2138 -91 1772 -91
Q 1169 -91 856 284
Q 544 659 544 1381
z
M 1991 3584
L 1991 3584
z
" transform="scale(0.015625)"/>
       <path id="DejaVuSans-72" d="M 2631 2963
Q 2534 3019 2420 3045
Q 2306 3072 2169 3072
Q 1681 3072 1420 2755
Q 1159 2438 1159 1844
L 1159 0
L 581 0
L 581 3500
L 1159 3500
L 1159 2956
Q 1341 3275 1631 3429
Q 1922 3584 2338 3584
Q 2397 3584 2469 3576
Q 2541 3569 2628 3553
L 2631 2963
z
" transform="scale(0.015625)"/>
       <path id="DejaVuSans-61" d="M 2194 1759
Q 1497 1759 1228 1600
Q 959 1441 959 1056
Q 959 750 1161 570
Q 1363 391 1709 391
Q 2188 391 2477 730
Q 2766 1069 2766 1631
L 2766 1759
L 2194 1759
z
M 3341 1997
L 3341 0
L 2766 0
L 2766 531
Q 2569 213 2275 61
Q 1981 -91 1556 -91
Q 1019 -91 701 211
Q 384 513 384 1019
Q 384 1609 779 1909
Q 1175 2209 1959 2209
L 2766 2209
L 2766 2266
Q 2766 2663 2505 2880
Q 2244 3097 1772 3097
Q 1472 3097 1187 3025
Q 903 2953 641 2809
L 641 3341
Q 956 3463 1253 3523
Q 1550 3584 1831 3584
Q 2591 3584 2966 3190
Q 3341 2797 3341 1997
z
" transform="scale(0.015625)"/>
       <path id="DejaVuSans-79" d="M 2059 -325
Q 1816 -950 1584 -1140
Q 1353 -1331 966 -1331
L 506 -1331
L 506 -850
L 844 -850
Q 1081 -850 1212 -737
Q 1344 -625 1503 -206
L 1606 56
L 191 3500
L 800 3500
L 1894 763
L 2988 3500
L 3597 3500
L 2059 -325
z
" transform="scale(0.015625)"/>
      </defs>
      <use xlink:href="#DejaVuSans-41"/>
      <use xlink:href="#DejaVuSans-63" transform="translate(66.658203 0)"/>
      <use xlink:href="#DejaVuSans-63" transform="translate(121.638672 0)"/>
      <use xlink:href="#DejaVuSans-75" transform="translate(176.619141 0)"/>
      <use xlink:href="#DejaVuSans-72" transform="translate(239.998047 0)"/>
      <use xlink:href="#DejaVuSans-61" transform="translate(281.111328 0)"/>
      <use xlink:href="#DejaVuSans-63" transform="translate(342.390625 0)"/>
      <use xlink:href="#DejaVuSans-79" transform="translate(397.371094 0)"/>
     </g>
    </g>
   </g>
   <g id="matplotlib.axis_6">
    <g id="text_13">
     <!-- Aggregated -->
     <g transform="translate(15.60375 123.876771) scale(0.09 -0.09)">
      <defs>
       <path id="DejaVuSans-67" d="M 2906 1791
Q 2906 2416 2648 2759
Q 2391 3103 1925 3103
Q 1463 3103 1205 2759
Q 947 2416 947 1791
Q 947 1169 1205 825
Q 1463 481 1925 481
Q 2391 481 2648 825
Q 2906 1169 2906 1791
z
M 3481 434
Q 3481 -459 3084 -895
Q 2688 -1331 1869 -1331
Q 1566 -1331 1297 -1286
Q 1028 -1241 775 -1147
L 775 -588
Q 1028 -725 1275 -790
Q 1522 -856 1778 -856
Q 2344 -856 2625 -561
Q 2906 -266 2906 331
L 2906 616
Q 2728 306 2450 153
Q 2172 0 1784 0
Q 1141 0 747 490
Q 353 981 353 1791
Q 353 2603 747 3093
Q 1141 3584 1784 3584
Q 2172 3584 2450 3431
Q 2728 3278 2906 2969
L 2906 3500
L 3481 3500
L 3481 434
z
" transform="scale(0.015625)"/>
       <path id="DejaVuSans-65" d="M 3597 1894
L 3597 1613
L 953 1613
Q 991 1019 1311 708
Q 1631 397 2203 397
Q 2534 397 2845 478
Q 3156 559 3463 722
L 3463 178
Q 3153 47 2828 -22
Q 2503 -91 2169 -91
Q 1331 -91 842 396
Q 353 884 353 1716
Q 353 2575 817 3079
Q 1281 3584 2069 3584
Q 2775 3584 3186 3129
Q 3597 2675 3597 1894
z
M 3022 2063
Q 3016 2534 2758 2815
Q 2500 3097 2075 3097
Q 1594 3097 1305 2825
Q 1016 2553 972 2059
L 3022 2063
z
" transform="scale(0.015625)"/>
       <path id="DejaVuSans-74" d="M 1172 4494
L 1172 3500
L 2356 3500
L 2356 3053
L 1172 3053
L 1172 1153
Q 1172 725 1289 603
Q 1406 481 1766 481
L 2356 481
L 2356 0
L 1766 0
Q 1100 0 847 248
Q 594 497 594 1153
L 594 3053
L 172 3053
L 172 3500
L 594 3500
L 594 4494
L 1172 4494
z
" transform="scale(0.015625)"/>
       <path id="DejaVuSans-64" d="M 2906 2969
L 2906 4863
L 3481 4863
L 3481 0
L 2906 0
L 2906 525
Q 2725 213 2448 61
Q 2172 -91 1784 -91
Q 1150 -91 751 415
Q 353 922 353 1747
Q 353 2572 751 3078
Q 1150 3584 1784 3584
Q 2172 3584 2448 3432
Q 2725 3281 2906 2969
z
M 947 1747
Q 947 1113 1208 752
Q 1469 391 1925 391
Q 2381 391 2643 752
Q 2906 1113 2906 1747
Q 2906 2381 2643 2742
Q 2381 3103 1925 3103
Q 1469 3103 1208 2742
Q 947 2381 947 1747
z
" transform="scale(0.015625)"/>
      </defs>
      <use xlink:href="#DejaVuSans-41"/>
      <use xlink:href="#DejaVuSans-67" transform="translate(68.408203 0)"/>
      <use xlink:href="#DejaVuSans-67" transform="translate(131.884766 0)"/>
      <use xlink:href="#DejaVuSans-72" transform="translate(195.361328 0)"/>
      <use xlink:href="#DejaVuSans-65" transform="translate(234.224609 0)"/>
      <use xlink:href="#DejaVuSans-67" transform="translate(295.748047 0)"/>
      <use xlink:href="#DejaVuSans-61" transform="translate(359.224609 0)"/>
      <use xlink:href="#DejaVuSans-74" transform="translate(420.503906 0)"/>
      <use xlink:href="#DejaVuSans-65" transform="translate(459.712891 0)"/>
      <use xlink:href="#DejaVuSans-64" transform="translate(521.236328 0)"/>
     </g>
    </g>
   </g>
   <g id="line2d_12">
    <path d="M 296.31556 135.879493
L 304.593362 135.764544
L 307.35263 135.613516
L 309.65202 135.225812
L 312.411287 134.513056
L 316.09031 133.425156
L 317.469944 132.743574
L 318.3897 132.086054
L 319.769334 130.732187
L 322.988479 126.882412
L 324.368113 125.03474
L 325.747747 122.750972
L 327.587259 119.682088
L 329.886648 116.599536
L 334.02555 111.190872
L 335.405183 109.696738
L 336.324939 108.971467
L 337.244695 108.478559
L 338.164451 108.286349
L 339.084207 108.443558
L 340.463841 109.072987
L 343.223108 110.531924
L 344.142864 111.329047
L 345.522498 112.948104
L 348.741643 117.359473
L 350.121277 119.64017
L 353.340422 125.327461
L 354.720056 127.278364
L 356.09969 128.872607
L 357.479324 130.164751
L 359.318835 131.483944
L 363.457737 134.261918
L 364.837371 134.713144
L 367.13676 135.156798
L 371.275662 135.632076
L 374.954685 135.831081
L 382.312732 135.86331
L 387.831267 135.879803
L 387.831267 135.879803
" clip-path="url(#p0351406e10)" style="fill: none; stroke: #000000; stroke-width: 1.5; stroke-linecap: square"/>
   </g>
   <g id="patch_5">
    <path d="M 72.23125 135.88
L 424.70937 135.88
" style="fill: none; stroke: #000000; stroke-width: 0.8; stroke-linejoin: miter; stroke-linecap: square"/>
   </g>
   <g id="LineCollection_16">
    <path d="M 424.70937 135.88
L 72.23125 135.88
" style="fill: none; stroke: #000000"/>
   </g>
   <g id="LineCollection_17">
    <path d="M 296.31556 135.88
L 296.31556 129.739158
" style="fill: none; stroke: #000000"/>
   </g>
   <g id="LineCollection_18">
    <path d="M 387.831267 135.88
L 387.831267 129.739158
" style="fill: none; stroke: #000000"/>
   </g>
  </g>
  <g id="text_14">
   <!-- Group GROUP w/ Fixed-effect Gaussian meta-analytical experiment aggregator -->
   <g transform="translate(38.059138 6.838594) scale(0.09 -0.09)">
    <defs>
     <path id="DejaVuSans-47" d="M 3809 666
L 3809 1919
L 2778 1919
L 2778 2438
L 4434 2438
L 4434 434
Q 4069 175 3628 42
Q 3188 -91 2688 -91
Q 1594 -91 976 548
Q 359 1188 359 2328
Q 359 3472 976 4111
Q 1594 4750 2688 4750
Q 3144 4750 3555 4637
Q 3966 4525 4313 4306
L 4313 3634
Q 3963 3931 3569 4081
Q 3175 4231 2741 4231
Q 1884 4231 1454 3753
Q 1025 3275 1025 2328
Q 1025 1384 1454 906
Q 1884 428 2741 428
Q 3075 428 3337 486
Q 3600 544 3809 666
z
" transform="scale(0.015625)"/>
     <path id="DejaVuSans-6f" d="M 1959 3097
Q 1497 3097 1228 2736
Q 959 2375 959 1747
Q 959 1119 1226 758
Q 1494 397 1959 397
Q 2419 397 2687 759
Q 2956 1122 2956 1747
Q 2956 2369 2687 2733
Q 2419 3097 1959 3097
z
M 1959 3584
Q 2709 3584 3137 3096
Q 3566 2609 3566 1747
Q 3566 888 3137 398
Q 2709 -91 1959 -91
Q 1206 -91 779 398
Q 353 888 353 1747
Q 353 2609 779 3096
Q 1206 3584 1959 3584
z
" transform="scale(0.015625)"/>
     <path id="DejaVuSans-70" d="M 1159 525
L 1159 -1331
L 581 -1331
L 581 3500
L 1159 3500
L 1159 2969
Q 1341 3281 1617 3432
Q 1894 3584 2278 3584
Q 2916 3584 3314 3078
Q 3713 2572 3713 1747
Q 3713 922 3314 415
Q 2916 -91 2278 -91
Q 1894 -91 1617 61
Q 1341 213 1159 525
z
M 3116 1747
Q 3116 2381 2855 2742
Q 2594 3103 2138 3103
Q 1681 3103 1420 2742
Q 1159 2381 1159 1747
Q 1159 1113 1420 752
Q 1681 391 2138 391
Q 2594 391 2855 752
Q 3116 1113 3116 1747
z
" transform="scale(0.015625)"/>
     <path id="DejaVuSans-20" transform="scale(0.015625)"/>
     <path id="DejaVuSans-4f" d="M 2522 4238
Q 1834 4238 1429 3725
Q 1025 3213 1025 2328
Q 1025 1447 1429 934
Q 1834 422 2522 422
Q 3209 422 3611 934
Q 4013 1447 4013 2328
Q 4013 3213 3611 3725
Q 3209 4238 2522 4238
z
M 2522 4750
Q 3503 4750 4090 4092
Q 4678 3434 4678 2328
Q 4678 1225 4090 567
Q 3503 -91 2522 -91
Q 1538 -91 948 565
Q 359 1222 359 2328
Q 359 3434 948 4092
Q 1538 4750 2522 4750
z
" transform="scale(0.015625)"/>
     <path id="DejaVuSans-55" d="M 556 4666
L 1191 4666
L 1191 1831
Q 1191 1081 1462 751
Q 1734 422 2344 422
Q 2950 422 3222 751
Q 3494 1081 3494 1831
L 3494 4666
L 4128 4666
L 4128 1753
Q 4128 841 3676 375
Q 3225 -91 2344 -91
Q 1459 -91 1007 375
Q 556 841 556 1753
L 556 4666
z
" transform="scale(0.015625)"/>
     <path id="DejaVuSans-77" d="M 269 3500
L 844 3500
L 1563 769
L 2278 3500
L 2956 3500
L 3675 769
L 4391 3500
L 4966 3500
L 4050 0
L 3372 0
L 2619 2869
L 1863 0
L 1184 0
L 269 3500
z
" transform="scale(0.015625)"/>
     <path id="DejaVuSans-2f" d="M 1625 4666
L 2156 4666
L 531 -594
L 0 -594
L 1625 4666
z
" transform="scale(0.015625)"/>
     <path id="DejaVuSans-46" d="M 628 4666
L 3309 4666
L 3309 4134
L 1259 4134
L 1259 2759
L 3109 2759
L 3109 2228
L 1259 2228
L 1259 0
L 628 0
L 628 4666
z
" transform="scale(0.015625)"/>
     <path id="DejaVuSans-69" d="M 603 3500
L 1178 3500
L 1178 0
L 603 0
L 603 3500
z
M 603 4863
L 1178 4863
L 1178 4134
L 603 4134
L 603 4863
z
" transform="scale(0.015625)"/>
     <path id="DejaVuSans-78" d="M 3513 3500
L 2247 1797
L 3578 0
L 2900 0
L 1881 1375
L 863 0
L 184 0
L 1544 1831
L 300 3500
L 978 3500
L 1906 2253
L 2834 3500
L 3513 3500
z
" transform="scale(0.015625)"/>
     <path id="DejaVuSans-2d" d="M 313 2009
L 1997 2009
L 1997 1497
L 313 1497
L 313 2009
z
" transform="scale(0.015625)"/>
     <path id="DejaVuSans-66" d="M 2375 4863
L 2375 4384
L 1825 4384
Q 1516 4384 1395 4259
Q 1275 4134 1275 3809
L 1275 3500
L 2222 3500
L 2222 3053
L 1275 3053
L 1275 0
L 697 0
L 697 3053
L 147 3053
L 147 3500
L 697 3500
L 697 3744
Q 697 4328 969 4595
Q 1241 4863 1831 4863
L 2375 4863
z
" transform="scale(0.015625)"/>
     <path id="DejaVuSans-73" d="M 2834 3397
L 2834 2853
Q 2591 2978 2328 3040
Q 2066 3103 1784 3103
Q 1356 3103 1142 2972
Q 928 2841 928 2578
Q 928 2378 1081 2264
Q 1234 2150 1697 2047
L 1894 2003
Q 2506 1872 2764 1633
Q 3022 1394 3022 966
Q 3022 478 2636 193
Q 2250 -91 1575 -91
Q 1294 -91 989 -36
Q 684 19 347 128
L 347 722
Q 666 556 975 473
Q 1284 391 1588 391
Q 1994 391 2212 530
Q 2431 669 2431 922
Q 2431 1156 2273 1281
Q 2116 1406 1581 1522
L 1381 1569
Q 847 1681 609 1914
Q 372 2147 372 2553
Q 372 3047 722 3315
Q 1072 3584 1716 3584
Q 2034 3584 2315 3537
Q 2597 3491 2834 3397
z
" transform="scale(0.015625)"/>
     <path id="DejaVuSans-6e" d="M 3513 2113
L 3513 0
L 2938 0
L 2938 2094
Q 2938 2591 2744 2837
Q 2550 3084 2163 3084
Q 1697 3084 1428 2787
Q 1159 2491 1159 1978
L 1159 0
L 581 0
L 581 3500
L 1159 3500
L 1159 2956
Q 1366 3272 1645 3428
Q 1925 3584 2291 3584
Q 2894 3584 3203 3211
Q 3513 2838 3513 2113
z
" transform="scale(0.015625)"/>
     <path id="DejaVuSans-6d" d="M 3328 2828
Q 3544 3216 3844 3400
Q 4144 3584 4550 3584
Q 5097 3584 5394 3201
Q 5691 2819 5691 2113
L 5691 0
L 5113 0
L 5113 2094
Q 5113 2597 4934 2840
Q 4756 3084 4391 3084
Q 3944 3084 3684 2787
Q 3425 2491 3425 1978
L 3425 0
L 2847 0
L 2847 2094
Q 2847 2600 2669 2842
Q 2491 3084 2119 3084
Q 1678 3084 1418 2786
Q 1159 2488 1159 1978
L 1159 0
L 581 0
L 581 3500
L 1159 3500
L 1159 2956
Q 1356 3278 1631 3431
Q 1906 3584 2284 3584
Q 2666 3584 2933 3390
Q 3200 3197 3328 2828
z
" transform="scale(0.015625)"/>
     <path id="DejaVuSans-6c" d="M 603 4863
L 1178 4863
L 1178 0
L 603 0
L 603 4863
z
" transform="scale(0.015625)"/>
    </defs>
    <use xlink:href="#DejaVuSans-47"/>
    <use xlink:href="#DejaVuSans-72" transform="translate(77.490234 0)"/>
    <use xlink:href="#DejaVuSans-6f" transform="translate(116.353516 0)"/>
    <use xlink:href="#DejaVuSans-75" transform="translate(177.535156 0)"/>
    <use xlink:href="#DejaVuSans-70" transform="translate(240.914062 0)"/>
    <use xlink:href="#DejaVuSans-20" transform="translate(304.390625 0)"/>
    <use xlink:href="#DejaVuSans-47" transform="translate(336.177734 0)"/>
    <use xlink:href="#DejaVuSans-52" transform="translate(413.667969 0)"/>
    <use xlink:href="#DejaVuSans-4f" transform="translate(483.150391 0)"/>
    <use xlink:href="#DejaVuSans-55" transform="translate(561.861328 0)"/>
    <use xlink:href="#DejaVuSans-50" transform="translate(635.054688 0)"/>
    <use xlink:href="#DejaVuSans-20" transform="translate(695.357422 0)"/>
    <use xlink:href="#DejaVuSans-77" transform="translate(727.144531 0)"/>
    <use xlink:href="#DejaVuSans-2f" transform="translate(808.931641 0)"/>
    <use xlink:href="#DejaVuSans-20" transform="translate(842.623047 0)"/>
    <use xlink:href="#DejaVuSans-46" transform="translate(874.410156 0)"/>
    <use xlink:href="#DejaVuSans-69" transform="translate(924.679688 0)"/>
    <use xlink:href="#DejaVuSans-78" transform="translate(952.462891 0)"/>
    <use xlink:href="#DejaVuSans-65" transform="translate(1008.517578 0)"/>
    <use xlink:href="#DejaVuSans-64" transform="translate(1070.041016 0)"/>
    <use xlink:href="#DejaVuSans-2d" transform="translate(1133.517578 0)"/>
    <use xlink:href="#DejaVuSans-65" transform="translate(1169.601562 0)"/>
    <use xlink:href="#DejaVuSans-66" transform="translate(1231.125 0)"/>
    <use xlink:href="#DejaVuSans-66" transform="translate(1266.330078 0)"/>
    <use xlink:href="#DejaVuSans-65" transform="translate(1301.535156 0)"/>
    <use xlink:href="#DejaVuSans-63" transform="translate(1363.058594 0)"/>
    <use xlink:href="#DejaVuSans-74" transform="translate(1418.039062 0)"/>
    <use xlink:href="#DejaVuSans-20" transform="translate(1457.248047 0)"/>
    <use xlink:href="#DejaVuSans-47" transform="translate(1489.035156 0)"/>
    <use xlink:href="#DejaVuSans-61" transform="translate(1566.525391 0)"/>
    <use xlink:href="#DejaVuSans-75" transform="translate(1627.804688 0)"/>
    <use xlink:href="#DejaVuSans-73" transform="translate(1691.183594 0)"/>
    <use xlink:href="#DejaVuSans-73" transform="translate(1743.283203 0)"/>
    <use xlink:href="#DejaVuSans-69" transform="translate(1795.382812 0)"/>
    <use xlink:href="#DejaVuSans-61" transform="translate(1823.166016 0)"/>
    <use xlink:href="#DejaVuSans-6e" transform="translate(1884.445312 0)"/>
    <use xlink:href="#DejaVuSans-20" transform="translate(1947.824219 0)"/>
    <use xlink:href="#DejaVuSans-6d" transform="translate(1979.611328 0)"/>
    <use xlink:href="#DejaVuSans-65" transform="translate(2077.023438 0)"/>
    <use xlink:href="#DejaVuSans-74" transform="translate(2138.546875 0)"/>
    <use xlink:href="#DejaVuSans-61" transform="translate(2177.755859 0)"/>
    <use xlink:href="#DejaVuSans-2d" transform="translate(2239.035156 0)"/>
    <use xlink:href="#DejaVuSans-61" transform="translate(2275.119141 0)"/>
    <use xlink:href="#DejaVuSans-6e" transform="translate(2336.398438 0)"/>
    <use xlink:href="#DejaVuSans-61" transform="translate(2399.777344 0)"/>
    <use xlink:href="#DejaVuSans-6c" transform="translate(2461.056641 0)"/>
    <use xlink:href="#DejaVuSans-79" transform="translate(2488.839844 0)"/>
    <use xlink:href="#DejaVuSans-74" transform="translate(2548.019531 0)"/>
    <use xlink:href="#DejaVuSans-69" transform="translate(2587.228516 0)"/>
    <use xlink:href="#DejaVuSans-63" transform="translate(2615.011719 0)"/>
    <use xlink:href="#DejaVuSans-61" transform="translate(2669.992188 0)"/>
    <use xlink:href="#DejaVuSans-6c" transform="translate(2731.271484 0)"/>
    <use xlink:href="#DejaVuSans-20" transform="translate(2759.054688 0)"/>
    <use xlink:href="#DejaVuSans-65" transform="translate(2790.841797 0)"/>
    <use xlink:href="#DejaVuSans-78" transform="translate(2850.615234 0)"/>
    <use xlink:href="#DejaVuSans-70" transform="translate(2909.794922 0)"/>
    <use xlink:href="#DejaVuSans-65" transform="translate(2973.271484 0)"/>
    <use xlink:href="#DejaVuSans-72" transform="translate(3034.794922 0)"/>
    <use xlink:href="#DejaVuSans-69" transform="translate(3075.908203 0)"/>
    <use xlink:href="#DejaVuSans-6d" transform="translate(3103.691406 0)"/>
    <use xlink:href="#DejaVuSans-65" transform="translate(3201.103516 0)"/>
    <use xlink:href="#DejaVuSans-6e" transform="translate(3262.626953 0)"/>
    <use xlink:href="#DejaVuSans-74" transform="translate(3326.005859 0)"/>
    <use xlink:href="#DejaVuSans-20" transform="translate(3365.214844 0)"/>
    <use xlink:href="#DejaVuSans-61" transform="translate(3397.001953 0)"/>
    <use xlink:href="#DejaVuSans-67" transform="translate(3458.28125 0)"/>
    <use xlink:href="#DejaVuSans-67" transform="translate(3521.757812 0)"/>
    <use xlink:href="#DejaVuSans-72" transform="translate(3585.234375 0)"/>
    <use xlink:href="#DejaVuSans-65" transform="translate(3624.097656 0)"/>
    <use xlink:href="#DejaVuSans-67" transform="translate(3685.621094 0)"/>
    <use xlink:href="#DejaVuSans-61" transform="translate(3749.097656 0)"/>
    <use xlink:href="#DejaVuSans-74" transform="translate(3810.376953 0)"/>
    <use xlink:href="#DejaVuSans-6f" transform="translate(3849.585938 0)"/>
    <use xlink:href="#DejaVuSans-72" transform="translate(3910.767578 0)"/>
   </g>
  </g>
 </g>
 <defs>
  <clipPath id="pe85d6c4ba4">
   <rect x="72.23125" y="27.36" width="352.47812" height="28.973333"/>
  </clipPath>
  <clipPath id="p92499556b8">
   <rect x="72.23125" y="67.133333" width="352.47812" height="28.973333"/>
  </clipPath>
  <clipPath id="p0351406e10">
   <rect x="72.23125" y="106.906667" width="352.47812" height="28.973333"/>
  </clipPath>
 </defs>
</svg>
