<?xml version="1.0" encoding="utf-8" standalone="no"?>
<!DOCTYPE svg PUBLIC "-//W3C//DTD SVG 1.1//EN"
  "http://www.w3.org/Graphics/SVG/1.1/DTD/svg11.dtd">
<svg xmlns:xlink="http://www.w3.org/1999/xlink" width="432pt" height="156.763125pt" viewBox="0 0 432 156.763125" xmlns="http://www.w3.org/2000/svg" version="1.1">
 <metadata>
  <rdf:RDF xmlns:dc="http://purl.org/dc/elements/1.1/" xmlns:cc="http://creativecommons.org/ns#" xmlns:rdf="http://www.w3.org/1999/02/22-rdf-syntax-ns#">
   <cc:Work>
    <dc:type rdf:resource="http://purl.org/dc/dcmitype/StillImage"/>
    <dc:date>2025-05-27T20:18:05.935485</dc:date>
    <dc:format>image/svg+xml</dc:format>
    <dc:creator>
     <cc:Agent>
      <dc:title>Matplotlib v3.10.0, https://matplotlib.org/</dc:title>
     </cc:Agent>
    </dc:creator>
   </cc:Work>
  </rdf:RDF>
 </metadata>
 <defs>
  <style type="text/css">*{stroke-linejoin: round; stroke-linecap: butt}</style>
 </defs>
 <g id="figure_1">
  <g id="patch_1">
   <path d="M 0 156.763125
L 432 156.763125
L 432 0
L 0 0
L 0 156.763125
z
" style="fill: none"/>
  </g>
  <g id="axes_1">
   <g id="patch_2">
    <path d="M 0 141.052813
L 432 141.052813
L 432 14.083313
L 0 14.083313
L 0 141.052813
z
" style="fill: none"/>
   </g>
   <g id="FillBetweenPolyCollection_1">
    <defs>
     <path id="mcb506afd35" d="M 193.508203 -15.710313
L 193.508203 -15.710313
L 193.641594 -15.710313
L 193.774986 -15.710313
L 193.908378 -15.710313
L 194.04177 -15.710313
L 194.175162 -15.710313
L 194.308554 -15.710313
L 194.441946 -15.710313
L 194.575338 -15.710313
L 194.70873 -15.710313
L 194.842122 -15.710313
L 194.975514 -15.710313
L 195.108906 -15.710313
L 195.242298 -15.710313
L 195.37569 -15.710313
L 195.509082 -15.710313
L 195.642474 -15.710313
L 195.775866 -15.710313
L 195.909258 -15.710313
L 196.04265 -15.710313
L 196.176041 -15.710313
L 196.309433 -15.710313
L 196.442825 -15.710313
L 196.576217 -15.710313
L 196.709609 -15.710313
L 196.843001 -15.710313
L 196.976393 -15.710313
L 197.109785 -15.710313
L 197.243177 -15.710313
L 197.376569 -15.710313
L 197.509961 -15.710313
L 197.643353 -15.710313
L 197.776745 -15.710313
L 197.910137 -15.710313
L 198.043529 -15.710313
L 198.176921 -15.710313
L 198.310313 -15.710313
L 198.443705 -15.710313
L 198.577096 -15.710313
L 198.710488 -15.710313
L 198.84388 -15.710313
L 198.977272 -15.710313
L 199.110664 -15.710313
L 199.244056 -15.710313
L 199.377448 -15.710313
L 199.51084 -15.710313
L 199.644232 -15.710313
L 199.777624 -15.710313
L 199.911016 -15.710313
L 200.044408 -15.710313
L 200.1778 -15.710313
L 200.311192 -15.710313
L 200.444584 -15.710313
L 200.577976 -15.710313
L 200.711368 -15.710313
L 200.84476 -15.710313
L 200.978152 -15.710313
L 201.111543 -15.710313
L 201.244935 -15.710313
L 201.378327 -15.710313
L 201.511719 -15.710313
L 201.645111 -15.710313
L 201.778503 -15.710313
L 201.911895 -15.710313
L 202.045287 -15.710313
L 202.178679 -15.710313
L 202.312071 -15.710313
L 202.445463 -15.710313
L 202.578855 -15.710313
L 202.712247 -15.710313
L 202.845639 -15.710313
L 202.979031 -15.710313
L 203.112423 -15.710313
L 203.245815 -15.710313
L 203.379207 -15.710313
L 203.512599 -15.710313
L 203.64599 -15.710313
L 203.779382 -15.710313
L 203.912774 -15.710313
L 204.046166 -15.710313
L 204.179558 -15.710313
L 204.31295 -15.710313
L 204.446342 -15.710313
L 204.579734 -15.710313
L 204.713126 -15.710313
L 204.846518 -15.710313
L 204.97991 -15.710313
L 205.113302 -15.710313
L 205.246694 -15.710313
L 205.380086 -15.710313
L 205.513478 -15.710313
L 205.64687 -15.710313
L 205.780262 -15.710313
L 205.913654 -15.710313
L 206.047046 -15.710313
L 206.180437 -15.710313
L 206.313829 -15.710313
L 206.447221 -15.710313
L 206.580613 -15.710313
L 206.714005 -15.710313
L 206.847397 -15.710313
L 206.980789 -15.710313
L 207.114181 -15.710313
L 207.247573 -15.710313
L 207.380965 -15.710313
L 207.514357 -15.710313
L 207.647749 -15.710313
L 207.781141 -15.710313
L 207.914533 -15.710313
L 208.047925 -15.710313
L 208.181317 -15.710313
L 208.314709 -15.710313
L 208.448101 -15.710313
L 208.581493 -15.710313
L 208.714884 -15.710313
L 208.848276 -15.710313
L 208.981668 -15.710313
L 209.11506 -15.710313
L 209.248452 -15.710313
L 209.381844 -15.710313
L 209.515236 -15.710313
L 209.648628 -15.710313
L 209.78202 -15.710313
L 209.915412 -15.710313
L 210.048804 -15.710313
L 210.182196 -15.710313
L 210.315588 -15.710313
L 210.44898 -15.710313
L 210.582372 -15.710313
L 210.715764 -15.710313
L 210.849156 -15.710313
L 210.982548 -15.710313
L 211.11594 -15.710313
L 211.249331 -15.710313
L 211.382723 -15.710313
L 211.516115 -15.710313
L 211.649507 -15.710313
L 211.782899 -15.710313
L 211.916291 -15.710313
L 212.049683 -15.710313
L 212.183075 -15.710313
L 212.316467 -15.710313
L 212.449859 -15.710313
L 212.583251 -15.710313
L 212.716643 -15.710313
L 212.850035 -15.710313
L 212.983427 -15.710313
L 213.116819 -15.710313
L 213.250211 -15.710313
L 213.383603 -15.710313
L 213.516995 -15.710313
L 213.650387 -15.710313
L 213.783778 -15.710313
L 213.91717 -15.710313
L 214.050562 -15.710313
L 214.183954 -15.710313
L 214.317346 -15.710313
L 214.450738 -15.710313
L 214.58413 -15.710313
L 214.717522 -15.710313
L 214.850914 -15.710313
L 214.984306 -15.710313
L 215.117698 -15.710313
L 215.25109 -15.710313
L 215.384482 -15.710313
L 215.517874 -15.710313
L 215.651266 -15.710313
L 215.784658 -15.710313
L 215.91805 -15.710313
L 216.051442 -15.710313
L 216.184834 -15.710313
L 216.318225 -15.710313
L 216.451617 -15.710313
L 216.585009 -15.710313
L 216.718401 -15.710313
L 216.851793 -15.710313
L 216.985185 -15.710313
L 217.118577 -15.710313
L 217.251969 -15.710313
L 217.385361 -15.710313
L 217.518753 -15.710313
L 217.652145 -15.710313
L 217.785537 -15.710313
L 217.918929 -15.710313
L 218.052321 -15.710313
L 218.185713 -15.710313
L 218.319105 -15.710313
L 218.452497 -15.710313
L 218.585889 -15.710313
L 218.719281 -15.710313
L 218.852672 -15.710313
L 218.986064 -15.710313
L 219.119456 -15.710313
L 219.252848 -15.710313
L 219.38624 -15.710313
L 219.519632 -15.710313
L 219.653024 -15.710313
L 219.786416 -15.710313
L 219.919808 -15.710313
L 220.0532 -15.710313
L 220.186592 -15.710313
L 220.319984 -15.710313
L 220.453376 -15.710313
L 220.586768 -15.710313
L 220.72016 -15.710313
L 220.853552 -15.710313
L 220.986944 -15.710313
L 221.120336 -15.710313
L 221.253728 -15.710313
L 221.387119 -15.710313
L 221.520511 -15.710313
L 221.653903 -15.710313
L 221.787295 -15.710313
L 221.920687 -15.710313
L 222.054079 -15.710313
L 222.187471 -15.710313
L 222.320863 -15.710313
L 222.454255 -15.710313
L 222.587647 -15.710313
L 222.721039 -15.710313
L 222.854431 -15.710313
L 222.987823 -15.710313
L 223.121215 -15.710313
L 223.254607 -15.710313
L 223.387999 -15.710313
L 223.521391 -15.710313
L 223.654783 -15.710313
L 223.788175 -15.710313
L 223.921566 -15.710313
L 224.054958 -15.710313
L 224.18835 -15.710313
L 224.321742 -15.710313
L 224.455134 -15.710313
L 224.588526 -15.710313
L 224.721918 -15.710313
L 224.85531 -15.710313
L 224.988702 -15.710313
L 225.122094 -15.710313
L 225.255486 -15.710313
L 225.388878 -15.710313
L 225.52227 -15.710313
L 225.655662 -15.710313
L 225.789054 -15.710313
L 225.922446 -15.710313
L 226.055838 -15.710313
L 226.18923 -15.710313
L 226.322622 -15.710313
L 226.456013 -15.710313
L 226.589405 -15.710313
L 226.722797 -15.710313
L 226.856189 -15.710313
L 226.989581 -15.710313
L 227.122973 -15.710313
L 227.256365 -15.710313
L 227.389757 -15.710313
L 227.523149 -15.710313
L 227.656541 -15.710313
L 227.789933 -15.710313
L 227.923325 -15.710313
L 228.056717 -15.710313
L 228.190109 -15.710313
L 228.323501 -15.710313
L 228.456893 -15.710313
L 228.590285 -15.710313
L 228.723677 -15.710313
L 228.857069 -15.710313
L 228.99046 -15.710313
L 229.123852 -15.710313
L 229.257244 -15.710313
L 229.390636 -15.710313
L 229.524028 -15.710313
L 229.65742 -15.710313
L 229.790812 -15.710313
L 229.924204 -15.710313
L 230.057596 -15.710313
L 230.190988 -15.710313
L 230.32438 -15.710313
L 230.457772 -15.710313
L 230.591164 -15.710313
L 230.724556 -15.710313
L 230.857948 -15.710313
L 230.99134 -15.710313
L 231.124732 -15.710313
L 231.258124 -15.710313
L 231.391515 -15.710313
L 231.524907 -15.710313
L 231.658299 -15.710313
L 231.791691 -15.710313
L 231.925083 -15.710313
L 232.058475 -15.710313
L 232.191867 -15.710313
L 232.325259 -15.710313
L 232.458651 -15.710313
L 232.592043 -15.710313
L 232.725435 -15.710313
L 232.858827 -15.710313
L 232.992219 -15.710313
L 233.125611 -15.710313
L 233.259003 -15.710313
L 233.392395 -15.710313
L 233.525787 -15.710313
L 233.659179 -15.710313
L 233.792571 -15.710313
L 233.925962 -15.710313
L 234.059354 -15.710313
L 234.192746 -15.710313
L 234.326138 -15.710313
L 234.45953 -15.710313
L 234.592922 -15.710313
L 234.726314 -15.710313
L 234.859706 -15.710313
L 234.993098 -15.710313
L 235.12649 -15.710313
L 235.259882 -15.710313
L 235.393274 -15.710313
L 235.526666 -15.710313
L 235.660058 -15.710313
L 235.79345 -15.710313
L 235.926842 -15.710313
L 236.060234 -15.710313
L 236.193626 -15.710313
L 236.327018 -15.710313
L 236.460409 -15.710313
L 236.593801 -15.710313
L 236.727193 -15.710313
L 236.860585 -15.710313
L 236.993977 -15.710313
L 237.127369 -15.710313
L 237.260761 -15.710313
L 237.394153 -15.710313
L 237.527545 -15.710313
L 237.660937 -15.710313
L 237.794329 -15.710313
L 237.927721 -15.710313
L 238.061113 -15.710313
L 238.194505 -15.710313
L 238.327897 -15.710313
L 238.461289 -15.710313
L 238.594681 -15.710313
L 238.728073 -15.710313
L 238.861465 -15.710313
L 238.994856 -15.710313
L 239.128248 -15.710313
L 239.26164 -15.710313
L 239.395032 -15.710313
L 239.528424 -15.710313
L 239.661816 -15.710313
L 239.795208 -15.710313
L 239.9286 -15.710313
L 240.061992 -15.710313
L 240.195384 -15.710313
L 240.328776 -15.710313
L 240.462168 -15.710313
L 240.59556 -15.710313
L 240.728952 -15.710313
L 240.862344 -15.710313
L 240.995736 -15.710313
L 241.129128 -15.710313
L 241.26252 -15.710313
L 241.395912 -15.710313
L 241.529303 -15.710313
L 241.662695 -15.710313
L 241.796087 -15.710313
L 241.929479 -15.710313
L 242.062871 -15.710313
L 242.196263 -15.710313
L 242.329655 -15.710313
L 242.463047 -15.710313
L 242.596439 -15.710313
L 242.729831 -15.710313
L 242.863223 -15.710313
L 242.996615 -15.710313
L 243.130007 -15.710313
L 243.263399 -15.710313
L 243.396791 -15.710313
L 243.530183 -15.710313
L 243.663575 -15.710313
L 243.796967 -15.710313
L 243.930359 -15.710313
L 244.06375 -15.710313
L 244.197142 -15.710313
L 244.330534 -15.710313
L 244.463926 -15.710313
L 244.597318 -15.710313
L 244.73071 -15.710313
L 244.864102 -15.710313
L 244.997494 -15.710313
L 245.130886 -15.710313
L 245.264278 -15.710313
L 245.39767 -15.710313
L 245.531062 -15.710313
L 245.664454 -15.710313
L 245.797846 -15.710313
L 245.931238 -15.710313
L 246.06463 -15.710313
L 246.198022 -15.710313
L 246.331414 -15.710313
L 246.464806 -15.710313
L 246.598197 -15.710313
L 246.731589 -15.710313
L 246.731589 -15.710313
L 246.731589 -111.694979
L 246.598197 -111.842779
L 246.464806 -111.979648
L 246.331414 -112.115736
L 246.198022 -112.251825
L 246.06463 -112.387913
L 245.931238 -112.524001
L 245.797846 -112.66009
L 245.664454 -112.796178
L 245.531062 -112.932266
L 245.39767 -113.068355
L 245.264278 -113.204443
L 245.130886 -113.340531
L 244.997494 -113.476619
L 244.864102 -113.612708
L 244.73071 -113.748796
L 244.597318 -113.883793
L 244.463926 -114.012004
L 244.330534 -114.140216
L 244.197142 -114.268428
L 244.06375 -114.39664
L 243.930359 -114.524852
L 243.796967 -114.653063
L 243.663575 -114.781275
L 243.530183 -114.909487
L 243.396791 -115.037699
L 243.263399 -115.165911
L 243.130007 -115.294122
L 242.996615 -115.422334
L 242.863223 -115.550546
L 242.729831 -115.678758
L 242.596439 -115.805887
L 242.463047 -115.930949
L 242.329655 -116.056012
L 242.196263 -116.181075
L 242.062871 -116.306137
L 241.929479 -116.4312
L 241.796087 -116.556263
L 241.662695 -116.681325
L 241.529303 -116.806388
L 241.395912 -116.93145
L 241.26252 -117.056513
L 241.129128 -117.181576
L 240.995736 -117.306638
L 240.862344 -117.431701
L 240.728952 -117.556763
L 240.59556 -117.683118
L 240.462168 -117.810534
L 240.328776 -117.937949
L 240.195384 -118.065365
L 240.061992 -118.192781
L 239.9286 -118.320197
L 239.795208 -118.447613
L 239.661816 -118.575028
L 239.528424 -118.702444
L 239.395032 -118.82986
L 239.26164 -118.957276
L 239.128248 -119.084691
L 238.994856 -119.212107
L 238.861465 -119.339523
L 238.728073 -119.466939
L 238.594681 -119.600338
L 238.461289 -119.735686
L 238.327897 -119.871034
L 238.194505 -120.006382
L 238.061113 -120.14173
L 237.927721 -120.277079
L 237.794329 -120.412427
L 237.660937 -120.547775
L 237.527545 -120.683123
L 237.394153 -120.818471
L 237.260761 -120.95382
L 237.127369 -121.089168
L 236.993977 -121.224516
L 236.860585 -121.359864
L 236.727193 -121.495212
L 236.593801 -121.642012
L 236.460409 -121.789295
L 236.327018 -121.936577
L 236.193626 -122.08386
L 236.060234 -122.231143
L 235.926842 -122.378426
L 235.79345 -122.525709
L 235.660058 -122.672991
L 235.526666 -122.820274
L 235.393274 -122.967557
L 235.259882 -123.11484
L 235.12649 -123.262123
L 234.993098 -123.409406
L 234.859706 -123.556688
L 234.726314 -123.70597
L 234.592922 -123.865386
L 234.45953 -124.024803
L 234.326138 -124.184219
L 234.192746 -124.343636
L 234.059354 -124.503052
L 233.925962 -124.662468
L 233.792571 -124.821885
L 233.659179 -124.981301
L 233.525787 -125.140718
L 233.392395 -125.300134
L 233.259003 -125.45955
L 233.125611 -125.618967
L 232.992219 -125.778383
L 232.858827 -125.9378
L 232.725435 -126.099762
L 232.592043 -126.266062
L 232.458651 -126.432361
L 232.325259 -126.598661
L 232.191867 -126.76496
L 232.058475 -126.931259
L 231.925083 -127.097559
L 231.791691 -127.263858
L 231.658299 -127.430157
L 231.524907 -127.596457
L 231.391515 -127.762756
L 231.258124 -127.929055
L 231.124732 -128.095355
L 230.99134 -128.261654
L 230.857948 -128.427954
L 230.724556 -128.592171
L 230.591164 -128.75485
L 230.457772 -128.917529
L 230.32438 -129.080208
L 230.190988 -129.242887
L 230.057596 -129.405566
L 229.924204 -129.568246
L 229.790812 -129.730925
L 229.65742 -129.893604
L 229.524028 -130.056283
L 229.390636 -130.218962
L 229.257244 -130.381641
L 229.123852 -130.54432
L 228.99046 -130.707
L 228.857069 -130.869679
L 228.723677 -131.019167
L 228.590285 -131.164943
L 228.456893 -131.31072
L 228.323501 -131.456496
L 228.190109 -131.602272
L 228.056717 -131.748049
L 227.923325 -131.893825
L 227.789933 -132.039601
L 227.656541 -132.185378
L 227.523149 -132.331154
L 227.389757 -132.47693
L 227.256365 -132.622707
L 227.122973 -132.768483
L 226.989581 -132.914259
L 226.856189 -133.060036
L 226.722797 -133.177103
L 226.589405 -133.293752
L 226.456013 -133.410401
L 226.322622 -133.52705
L 226.18923 -133.643699
L 226.055838 -133.760348
L 225.922446 -133.876997
L 225.789054 -133.993646
L 225.655662 -134.110295
L 225.52227 -134.226944
L 225.388878 -134.343593
L 225.255486 -134.460242
L 225.122094 -134.576891
L 224.988702 -134.69354
L 224.85531 -134.803141
L 224.721918 -134.882864
L 224.588526 -134.962587
L 224.455134 -135.04231
L 224.321742 -135.122033
L 224.18835 -135.201757
L 224.054958 -135.28148
L 223.921566 -135.361203
L 223.788175 -135.440926
L 223.654783 -135.520649
L 223.521391 -135.600372
L 223.387999 -135.680095
L 223.254607 -135.759818
L 223.121215 -135.839541
L 222.987823 -135.919264
L 222.854431 -135.983541
L 222.721039 -136.024267
L 222.587647 -136.064993
L 222.454255 -136.105719
L 222.320863 -136.146445
L 222.187471 -136.187171
L 222.054079 -136.227897
L 221.920687 -136.268622
L 221.787295 -136.309348
L 221.653903 -136.350074
L 221.520511 -136.3908
L 221.387119 -136.431526
L 221.253728 -136.472252
L 221.120336 -136.512978
L 220.986944 -136.553703
L 220.853552 -136.57253
L 220.72016 -136.576836
L 220.586768 -136.581142
L 220.453376 -136.585448
L 220.319984 -136.589754
L 220.186592 -136.59406
L 220.0532 -136.598366
L 219.919808 -136.602671
L 219.786416 -136.606977
L 219.653024 -136.611283
L 219.519632 -136.615589
L 219.38624 -136.619895
L 219.252848 -136.624201
L 219.119456 -136.628507
L 218.986064 -136.632813
L 218.852672 -136.61166
L 218.719281 -136.584401
L 218.585889 -136.557141
L 218.452497 -136.529881
L 218.319105 -136.502622
L 218.185713 -136.475362
L 218.052321 -136.448102
L 217.918929 -136.420842
L 217.785537 -136.393583
L 217.652145 -136.366323
L 217.518753 -136.339063
L 217.385361 -136.311804
L 217.251969 -136.284544
L 217.118577 -136.257284
L 216.985185 -136.229713
L 216.851793 -136.175955
L 216.718401 -136.122196
L 216.585009 -136.068437
L 216.451617 -136.014678
L 216.318225 -135.960919
L 216.184834 -135.907161
L 216.051442 -135.853402
L 215.91805 -135.799643
L 215.784658 -135.745884
L 215.651266 -135.692126
L 215.517874 -135.638367
L 215.384482 -135.584608
L 215.25109 -135.530849
L 215.117698 -135.47709
L 214.984306 -135.418556
L 214.850914 -135.342785
L 214.717522 -135.267015
L 214.58413 -135.191245
L 214.450738 -135.115474
L 214.317346 -135.039704
L 214.183954 -134.963933
L 214.050562 -134.888163
L 213.91717 -134.812392
L 213.783778 -134.736622
L 213.650387 -134.660852
L 213.516995 -134.585081
L 213.383603 -134.509311
L 213.250211 -134.43354
L 213.116819 -134.35777
L 212.983427 -134.274488
L 212.850035 -134.180927
L 212.716643 -134.087366
L 212.583251 -133.993805
L 212.449859 -133.900245
L 212.316467 -133.806684
L 212.183075 -133.713123
L 212.049683 -133.619562
L 211.916291 -133.526001
L 211.782899 -133.43244
L 211.649507 -133.338879
L 211.516115 -133.245318
L 211.382723 -133.151757
L 211.249331 -133.058196
L 211.11594 -132.964635
L 210.982548 -132.862716
L 210.849156 -132.755833
L 210.715764 -132.648951
L 210.582372 -132.542068
L 210.44898 -132.435186
L 210.315588 -132.328303
L 210.182196 -132.22142
L 210.048804 -132.114538
L 209.915412 -132.007655
L 209.78202 -131.900772
L 209.648628 -131.79389
L 209.515236 -131.687007
L 209.381844 -131.580125
L 209.248452 -131.473242
L 209.11506 -131.366359
L 208.981668 -131.252236
L 208.848276 -131.136658
L 208.714884 -131.021079
L 208.581493 -130.905501
L 208.448101 -130.789922
L 208.314709 -130.674344
L 208.181317 -130.558765
L 208.047925 -130.443187
L 207.914533 -130.327608
L 207.781141 -130.21203
L 207.647749 -130.096451
L 207.514357 -129.980873
L 207.380965 -129.865294
L 207.247573 -129.749716
L 207.114181 -129.633957
L 206.980789 -129.51362
L 206.847397 -129.393283
L 206.714005 -129.272945
L 206.580613 -129.152608
L 206.447221 -129.032271
L 206.313829 -128.911933
L 206.180437 -128.791596
L 206.047046 -128.671259
L 205.913654 -128.550922
L 205.780262 -128.430584
L 205.64687 -128.310247
L 205.513478 -128.18991
L 205.380086 -128.069572
L 205.246694 -127.949235
L 205.113302 -127.828257
L 204.97991 -127.705283
L 204.846518 -127.582308
L 204.713126 -127.459334
L 204.579734 -127.33636
L 204.446342 -127.213385
L 204.31295 -127.090411
L 204.179558 -126.967437
L 204.046166 -126.844463
L 203.912774 -126.721488
L 203.779382 -126.598514
L 203.64599 -126.47554
L 203.512599 -126.352565
L 203.379207 -126.229591
L 203.245815 -126.106617
L 203.112423 -125.982269
L 202.979031 -125.856231
L 202.845639 -125.730194
L 202.712247 -125.604156
L 202.578855 -125.478118
L 202.445463 -125.35208
L 202.312071 -125.226042
L 202.178679 -125.100005
L 202.045287 -124.973967
L 201.911895 -124.847929
L 201.778503 -124.721891
L 201.645111 -124.595854
L 201.511719 -124.469816
L 201.378327 -124.343778
L 201.244935 -124.21774
L 201.111543 -124.087826
L 200.978152 -123.955856
L 200.84476 -123.823887
L 200.711368 -123.691917
L 200.577976 -123.559947
L 200.444584 -123.427978
L 200.311192 -123.296008
L 200.1778 -123.164039
L 200.044408 -123.032069
L 199.911016 -122.900099
L 199.777624 -122.76813
L 199.644232 -122.63616
L 199.51084 -122.504191
L 199.377448 -122.372221
L 199.244056 -122.240251
L 199.110664 -122.099454
L 198.977272 -121.957204
L 198.84388 -121.814954
L 198.710488 -121.672704
L 198.577096 -121.530455
L 198.443705 -121.388205
L 198.310313 -121.245955
L 198.176921 -121.103706
L 198.043529 -120.961456
L 197.910137 -120.819206
L 197.776745 -120.676957
L 197.643353 -120.534707
L 197.509961 -120.392457
L 197.376569 -120.250208
L 197.243177 -120.107019
L 197.109785 -119.950104
L 196.976393 -119.793188
L 196.843001 -119.636273
L 196.709609 -119.479357
L 196.576217 -119.322442
L 196.442825 -119.165526
L 196.309433 -119.008611
L 196.176041 -118.851695
L 196.04265 -118.69478
L 195.909258 -118.537864
L 195.775866 -118.380949
L 195.642474 -118.224033
L 195.509082 -118.067118
L 195.37569 -117.910202
L 195.242298 -117.748509
L 195.108906 -117.573844
L 194.975514 -117.399179
L 194.842122 -117.224514
L 194.70873 -117.049849
L 194.575338 -116.875184
L 194.441946 -116.700519
L 194.308554 -116.525854
L 194.175162 -116.351189
L 194.04177 -116.176524
L 193.908378 -116.001859
L 193.774986 -115.827194
L 193.641594 -115.652529
L 193.508203 -115.477865
z
"/>
    </defs>
    <g clip-path="url(#p175893b506)">
     <use xlink:href="#mcb506afd35" x="0" y="156.763125" style="fill: #808080; fill-opacity: 0.5"/>
    </g>
   </g>
   <g id="FillBetweenPolyCollection_2">
    <defs>
     <path id="m3398d056dd" d="M 19.636364 -15.710313
L 19.636364 -15.710313
L 20.072133 -15.710313
L 20.507902 -15.710313
L 20.943671 -15.710313
L 21.37944 -15.710313
L 21.815209 -15.710313
L 22.250978 -15.710313
L 22.686747 -15.710313
L 23.122516 -15.710313
L 23.558285 -15.710313
L 23.994054 -15.710313
L 24.429823 -15.710313
L 24.865592 -15.710313
L 25.301361 -15.710313
L 25.73713 -15.710313
L 26.172899 -15.710313
L 26.608668 -15.710313
L 27.044437 -15.710313
L 27.480206 -15.710313
L 27.915975 -15.710313
L 28.351744 -15.710313
L 28.787513 -15.710313
L 29.223282 -15.710313
L 29.659051 -15.710313
L 30.09482 -15.710313
L 30.530589 -15.710313
L 30.966358 -15.710313
L 31.402127 -15.710313
L 31.837896 -15.710313
L 32.273665 -15.710313
L 32.709434 -15.710313
L 33.145203 -15.710313
L 33.580972 -15.710313
L 34.016741 -15.710313
L 34.45251 -15.710313
L 34.888279 -15.710313
L 35.324048 -15.710313
L 35.759817 -15.710313
L 36.195586 -15.710313
L 36.631355 -15.710313
L 37.067124 -15.710313
L 37.502893 -15.710313
L 37.938662 -15.710313
L 38.374431 -15.710313
L 38.810201 -15.710313
L 39.24597 -15.710313
L 39.681739 -15.710313
L 40.117508 -15.710313
L 40.553277 -15.710313
L 40.989046 -15.710313
L 41.424815 -15.710313
L 41.860584 -15.710313
L 42.296353 -15.710313
L 42.732122 -15.710313
L 43.167891 -15.710313
L 43.60366 -15.710313
L 44.039429 -15.710313
L 44.475198 -15.710313
L 44.910967 -15.710313
L 45.346736 -15.710313
L 45.782505 -15.710313
L 46.218274 -15.710313
L 46.654043 -15.710313
L 47.089812 -15.710313
L 47.525581 -15.710313
L 47.96135 -15.710313
L 48.397119 -15.710313
L 48.832888 -15.710313
L 49.268657 -15.710313
L 49.704426 -15.710313
L 50.140195 -15.710313
L 50.575964 -15.710313
L 51.011733 -15.710313
L 51.447502 -15.710313
L 51.883271 -15.710313
L 52.31904 -15.710313
L 52.754809 -15.710313
L 53.190578 -15.710313
L 53.626347 -15.710313
L 54.062116 -15.710313
L 54.497885 -15.710313
L 54.933654 -15.710313
L 55.369423 -15.710313
L 55.805192 -15.710313
L 56.240961 -15.710313
L 56.67673 -15.710313
L 57.112499 -15.710313
L 57.548268 -15.710313
L 57.984037 -15.710313
L 58.419806 -15.710313
L 58.855575 -15.710313
L 59.291344 -15.710313
L 59.727113 -15.710313
L 60.162882 -15.710313
L 60.598651 -15.710313
L 61.034421 -15.710313
L 61.47019 -15.710313
L 61.905959 -15.710313
L 62.341728 -15.710313
L 62.777497 -15.710313
L 63.213266 -15.710313
L 63.649035 -15.710313
L 64.084804 -15.710313
L 64.520573 -15.710313
L 64.956342 -15.710313
L 65.392111 -15.710313
L 65.82788 -15.710313
L 66.263649 -15.710313
L 66.699418 -15.710313
L 67.135187 -15.710313
L 67.570956 -15.710313
L 68.006725 -15.710313
L 68.442494 -15.710313
L 68.878263 -15.710313
L 69.314032 -15.710313
L 69.749801 -15.710313
L 70.18557 -15.710313
L 70.621339 -15.710313
L 71.057108 -15.710313
L 71.492877 -15.710313
L 71.928646 -15.710313
L 72.364415 -15.710313
L 72.800184 -15.710313
L 73.235953 -15.710313
L 73.671722 -15.710313
L 74.107491 -15.710313
L 74.54326 -15.710313
L 74.979029 -15.710313
L 75.414798 -15.710313
L 75.850567 -15.710313
L 76.286336 -15.710313
L 76.722105 -15.710313
L 77.157874 -15.710313
L 77.593643 -15.710313
L 78.029412 -15.710313
L 78.465181 -15.710313
L 78.90095 -15.710313
L 79.336719 -15.710313
L 79.772488 -15.710313
L 80.208257 -15.710313
L 80.644026 -15.710313
L 81.079795 -15.710313
L 81.515564 -15.710313
L 81.951333 -15.710313
L 82.387102 -15.710313
L 82.822871 -15.710313
L 83.258641 -15.710313
L 83.69441 -15.710313
L 84.130179 -15.710313
L 84.565948 -15.710313
L 85.001717 -15.710313
L 85.437486 -15.710313
L 85.873255 -15.710313
L 86.309024 -15.710313
L 86.744793 -15.710313
L 87.180562 -15.710313
L 87.616331 -15.710313
L 88.0521 -15.710313
L 88.487869 -15.710313
L 88.923638 -15.710313
L 89.359407 -15.710313
L 89.795176 -15.710313
L 90.230945 -15.710313
L 90.666714 -15.710313
L 91.102483 -15.710313
L 91.538252 -15.710313
L 91.974021 -15.710313
L 92.40979 -15.710313
L 92.845559 -15.710313
L 93.281328 -15.710313
L 93.717097 -15.710313
L 94.152866 -15.710313
L 94.588635 -15.710313
L 95.024404 -15.710313
L 95.460173 -15.710313
L 95.895942 -15.710313
L 96.331711 -15.710313
L 96.76748 -15.710313
L 97.203249 -15.710313
L 97.639018 -15.710313
L 98.074787 -15.710313
L 98.510556 -15.710313
L 98.946325 -15.710313
L 99.382094 -15.710313
L 99.817863 -15.710313
L 100.253632 -15.710313
L 100.689401 -15.710313
L 101.12517 -15.710313
L 101.560939 -15.710313
L 101.996708 -15.710313
L 102.432477 -15.710313
L 102.868246 -15.710313
L 103.304015 -15.710313
L 103.739784 -15.710313
L 104.175553 -15.710313
L 104.611322 -15.710313
L 105.047092 -15.710313
L 105.482861 -15.710313
L 105.91863 -15.710313
L 106.354399 -15.710313
L 106.790168 -15.710313
L 107.225937 -15.710313
L 107.661706 -15.710313
L 108.097475 -15.710313
L 108.533244 -15.710313
L 108.969013 -15.710313
L 109.404782 -15.710313
L 109.840551 -15.710313
L 110.27632 -15.710313
L 110.712089 -15.710313
L 111.147858 -15.710313
L 111.583627 -15.710313
L 112.019396 -15.710313
L 112.455165 -15.710313
L 112.890934 -15.710313
L 113.326703 -15.710313
L 113.762472 -15.710313
L 114.198241 -15.710313
L 114.63401 -15.710313
L 115.069779 -15.710313
L 115.505548 -15.710313
L 115.941317 -15.710313
L 116.377086 -15.710313
L 116.812855 -15.710313
L 117.248624 -15.710313
L 117.684393 -15.710313
L 118.120162 -15.710313
L 118.555931 -15.710313
L 118.9917 -15.710313
L 119.427469 -15.710313
L 119.863238 -15.710313
L 120.299007 -15.710313
L 120.734776 -15.710313
L 121.170545 -15.710313
L 121.606314 -15.710313
L 122.042083 -15.710313
L 122.477852 -15.710313
L 122.913621 -15.710313
L 123.34939 -15.710313
L 123.785159 -15.710313
L 124.220928 -15.710313
L 124.656697 -15.710313
L 125.092466 -15.710313
L 125.528235 -15.710313
L 125.964004 -15.710313
L 126.399773 -15.710313
L 126.835542 -15.710313
L 127.271312 -15.710313
L 127.707081 -15.710313
L 128.14285 -15.710313
L 128.578619 -15.710313
L 129.014388 -15.710313
L 129.450157 -15.710313
L 129.885926 -15.710313
L 130.321695 -15.710313
L 130.757464 -15.710313
L 131.193233 -15.710313
L 131.629002 -15.710313
L 132.064771 -15.710313
L 132.50054 -15.710313
L 132.936309 -15.710313
L 133.372078 -15.710313
L 133.807847 -15.710313
L 134.243616 -15.710313
L 134.679385 -15.710313
L 135.115154 -15.710313
L 135.550923 -15.710313
L 135.986692 -15.710313
L 136.422461 -15.710313
L 136.85823 -15.710313
L 137.293999 -15.710313
L 137.729768 -15.710313
L 138.165537 -15.710313
L 138.601306 -15.710313
L 139.037075 -15.710313
L 139.472844 -15.710313
L 139.908613 -15.710313
L 140.344382 -15.710313
L 140.780151 -15.710313
L 141.21592 -15.710313
L 141.651689 -15.710313
L 142.087458 -15.710313
L 142.523227 -15.710313
L 142.958996 -15.710313
L 143.394765 -15.710313
L 143.830534 -15.710313
L 144.266303 -15.710313
L 144.702072 -15.710313
L 145.137841 -15.710313
L 145.57361 -15.710313
L 146.009379 -15.710313
L 146.445148 -15.710313
L 146.880917 -15.710313
L 147.316686 -15.710313
L 147.752455 -15.710313
L 148.188224 -15.710313
L 148.623993 -15.710313
L 149.059762 -15.710313
L 149.495532 -15.710313
L 149.931301 -15.710313
L 150.36707 -15.710313
L 150.802839 -15.710313
L 151.238608 -15.710313
L 151.674377 -15.710313
L 152.110146 -15.710313
L 152.545915 -15.710313
L 152.981684 -15.710313
L 153.417453 -15.710313
L 153.853222 -15.710313
L 154.288991 -15.710313
L 154.72476 -15.710313
L 155.160529 -15.710313
L 155.596298 -15.710313
L 156.032067 -15.710313
L 156.467836 -15.710313
L 156.903605 -15.710313
L 157.339374 -15.710313
L 157.775143 -15.710313
L 158.210912 -15.710313
L 158.646681 -15.710313
L 159.08245 -15.710313
L 159.518219 -15.710313
L 159.953988 -15.710313
L 160.389757 -15.710313
L 160.825526 -15.710313
L 161.261295 -15.710313
L 161.697064 -15.710313
L 162.132833 -15.710313
L 162.568602 -15.710313
L 163.004371 -15.710313
L 163.44014 -15.710313
L 163.875909 -15.710313
L 164.311678 -15.710313
L 164.747447 -15.710313
L 165.183216 -15.710313
L 165.618985 -15.710313
L 166.054754 -15.710313
L 166.490523 -15.710313
L 166.926292 -15.710313
L 167.362061 -15.710313
L 167.79783 -15.710313
L 168.233599 -15.710313
L 168.669368 -15.710313
L 169.105137 -15.710313
L 169.540906 -15.710313
L 169.976675 -15.710313
L 170.412444 -15.710313
L 170.848213 -15.710313
L 171.283983 -15.710313
L 171.719752 -15.710313
L 172.155521 -15.710313
L 172.59129 -15.710313
L 173.027059 -15.710313
L 173.462828 -15.710313
L 173.898597 -15.710313
L 174.334366 -15.710313
L 174.770135 -15.710313
L 175.205904 -15.710313
L 175.641673 -15.710313
L 176.077442 -15.710313
L 176.513211 -15.710313
L 176.94898 -15.710313
L 177.384749 -15.710313
L 177.820518 -15.710313
L 178.256287 -15.710313
L 178.692056 -15.710313
L 179.127825 -15.710313
L 179.563594 -15.710313
L 179.999363 -15.710313
L 180.435132 -15.710313
L 180.870901 -15.710313
L 181.30667 -15.710313
L 181.742439 -15.710313
L 182.178208 -15.710313
L 182.613977 -15.710313
L 183.049746 -15.710313
L 183.485515 -15.710313
L 183.921284 -15.710313
L 184.357053 -15.710313
L 184.792822 -15.710313
L 185.228591 -15.710313
L 185.66436 -15.710313
L 186.100129 -15.710313
L 186.535898 -15.710313
L 186.971667 -15.710313
L 187.407436 -15.710313
L 187.843205 -15.710313
L 188.278974 -15.710313
L 188.714743 -15.710313
L 189.150512 -15.710313
L 189.586281 -15.710313
L 190.02205 -15.710313
L 190.457819 -15.710313
L 190.893588 -15.710313
L 191.329357 -15.710313
L 191.765126 -15.710313
L 192.200895 -15.710313
L 192.636664 -15.710313
L 193.072433 -15.710313
L 193.508203 -15.710313
L 193.508203 -15.710313
L 193.508203 -115.477865
L 193.072433 -114.874478
L 192.636664 -114.242366
L 192.200895 -113.610255
L 191.765126 -112.978144
L 191.329357 -112.345783
L 190.893588 -111.654637
L 190.457819 -110.963492
L 190.02205 -110.272347
L 189.586281 -109.581202
L 189.150512 -108.86475
L 188.714743 -108.120378
L 188.278974 -107.376007
L 187.843205 -106.631635
L 187.407436 -105.887263
L 186.971667 -105.098435
L 186.535898 -104.307102
L 186.100129 -103.515768
L 185.66436 -102.724435
L 185.228591 -101.915867
L 184.792822 -101.083292
L 184.357053 -100.250716
L 183.921284 -99.418141
L 183.485515 -98.585565
L 183.049746 -97.722436
L 182.613977 -96.855496
L 182.178208 -95.988556
L 181.742439 -95.121617
L 181.30667 -94.246354
L 180.870901 -93.356316
L 180.435132 -92.466278
L 179.999363 -91.576239
L 179.563594 -90.686201
L 179.127825 -89.791742
L 178.692056 -88.896388
L 178.256287 -88.001033
L 177.820518 -87.105679
L 177.384749 -86.21569
L 176.94898 -85.338058
L 176.513211 -84.460426
L 176.077442 -83.582795
L 175.641673 -82.705163
L 175.205904 -81.859414
L 174.770135 -81.022977
L 174.334366 -80.186539
L 173.898597 -79.350102
L 173.462828 -78.528115
L 173.027059 -77.750615
L 172.59129 -76.973116
L 172.155521 -76.195617
L 171.719752 -75.418118
L 171.283983 -74.68831
L 170.848213 -73.977384
L 170.412444 -73.266457
L 169.976675 -72.555531
L 169.540906 -71.856496
L 169.105137 -71.208953
L 168.669368 -70.56141
L 168.233599 -69.913867
L 167.79783 -69.266324
L 167.362061 -68.653042
L 166.926292 -68.057503
L 166.490523 -67.461963
L 166.054754 -66.866424
L 165.618985 -66.27565
L 165.183216 -65.716764
L 164.747447 -65.157878
L 164.311678 -64.598992
L 163.875909 -64.040105
L 163.44014 -63.494107
L 163.004371 -62.956655
L 162.568602 -62.419203
L 162.132833 -61.881751
L 161.697064 -61.344985
L 161.261295 -60.817002
L 160.825526 -60.289019
L 160.389757 -59.761036
L 159.953988 -59.233052
L 159.518219 -58.706478
L 159.08245 -58.181087
L 158.646681 -57.655696
L 158.210912 -57.130305
L 157.775143 -56.60493
L 157.339374 -56.080614
L 156.903605 -55.556297
L 156.467836 -55.031981
L 156.032067 -54.507665
L 155.596298 -53.985032
L 155.160529 -53.464179
L 154.72476 -52.943327
L 154.288991 -52.422474
L 153.853222 -51.901621
L 153.417453 -51.387597
L 152.981684 -50.873878
L 152.545915 -50.360159
L 152.110146 -49.84644
L 151.674377 -49.336892
L 151.238608 -48.832906
L 150.802839 -48.32892
L 150.36707 -47.824934
L 149.931301 -47.320947
L 149.495532 -46.826561
L 149.059762 -46.333243
L 148.623993 -45.839926
L 148.188224 -45.346609
L 147.752455 -44.857536
L 147.316686 -44.37566
L 146.880917 -43.893784
L 146.445148 -43.411908
L 146.009379 -42.930032
L 145.57361 -42.460216
L 145.137841 -41.99266
L 144.702072 -41.525103
L 144.266303 -41.057547
L 143.830534 -40.596351
L 143.394765 -40.149089
L 142.958996 -39.701826
L 142.523227 -39.254564
L 142.087458 -38.807302
L 141.651689 -38.381938
L 141.21592 -37.962585
L 140.780151 -37.543231
L 140.344382 -37.123878
L 139.908613 -36.713209
L 139.472844 -36.327797
L 139.037075 -35.942385
L 138.601306 -35.556973
L 138.165537 -35.171561
L 137.729768 -34.811894
L 137.293999 -34.461891
L 136.85823 -34.111888
L 136.422461 -33.761884
L 135.986692 -33.418109
L 135.550923 -33.099518
L 135.115154 -32.780926
L 134.679385 -32.462335
L 134.243616 -32.143743
L 133.807847 -31.840933
L 133.372078 -31.545913
L 132.936309 -31.250894
L 132.50054 -30.955874
L 132.064771 -30.662966
L 131.629002 -30.382957
L 131.193233 -30.102947
L 130.757464 -29.822938
L 130.321695 -29.542928
L 129.885926 -29.268275
L 129.450157 -28.997019
L 129.014388 -28.725763
L 128.578619 -28.454507
L 128.14285 -28.183797
L 127.707081 -27.919116
L 127.271312 -27.654434
L 126.835542 -27.389753
L 126.399773 -27.125071
L 125.964004 -26.865192
L 125.528235 -26.609175
L 125.092466 -26.353157
L 124.656697 -26.097139
L 124.220928 -25.841478
L 123.785159 -25.59938
L 123.34939 -25.357283
L 122.913621 -25.115186
L 122.477852 -24.873088
L 122.042083 -24.641151
L 121.606314 -24.419504
L 121.170545 -24.197857
L 120.734776 -23.976211
L 120.299007 -23.754564
L 119.863238 -23.558128
L 119.427469 -23.362525
L 118.9917 -23.166923
L 118.555931 -22.97132
L 118.120162 -22.788303
L 117.684393 -22.621355
L 117.248624 -22.454408
L 116.812855 -22.28746
L 116.377086 -22.120512
L 115.941317 -21.978125
L 115.505548 -21.838153
L 115.069779 -21.698182
L 114.63401 -21.558211
L 114.198241 -21.426261
L 113.762472 -21.307308
L 113.326703 -21.188355
L 112.890934 -21.069403
L 112.455165 -20.95045
L 112.019396 -20.842043
L 111.583627 -20.735456
L 111.147858 -20.628869
L 110.712089 -20.522282
L 110.27632 -20.41692
L 109.840551 -20.314111
L 109.404782 -20.211303
L 108.969013 -20.108495
L 108.533244 -20.005686
L 108.097475 -19.901384
L 107.661706 -19.796696
L 107.225937 -19.692009
L 106.790168 -19.587321
L 106.354399 -19.481858
L 105.91863 -19.374259
L 105.482861 -19.266661
L 105.047092 -19.159062
L 104.611322 -19.051463
L 104.175553 -18.944203
L 103.739784 -18.837063
L 103.304015 -18.729923
L 102.868246 -18.622782
L 102.432477 -18.516959
L 101.996708 -18.416122
L 101.560939 -18.315286
L 101.12517 -18.214449
L 100.689401 -18.113612
L 100.253632 -18.020959
L 99.817863 -17.932155
L 99.382094 -17.843351
L 98.946325 -17.754547
L 98.510556 -17.668104
L 98.074787 -17.594901
L 97.639018 -17.521698
L 97.203249 -17.448495
L 96.76748 -17.375292
L 96.331711 -17.312192
L 95.895942 -17.255217
L 95.460173 -17.198241
L 95.024404 -17.141266
L 94.588635 -17.085637
L 94.152866 -17.043018
L 93.717097 -17.000399
L 93.281328 -16.95778
L 92.845559 -16.915161
L 92.40979 -16.87881
L 91.974021 -16.847285
L 91.538252 -16.815759
L 91.102483 -16.784233
L 90.666714 -16.752981
L 90.230945 -16.729011
L 89.795176 -16.705042
L 89.359407 -16.681072
L 88.923638 -16.657103
L 88.487869 -16.635406
L 88.0521 -16.615917
L 87.616331 -16.596427
L 87.180562 -16.576937
L 86.744793 -16.557447
L 86.309024 -16.540066
L 85.873255 -16.522731
L 85.437486 -16.505397
L 85.001717 -16.488062
L 84.565948 -16.470994
L 84.130179 -16.454251
L 83.69441 -16.437508
L 83.258641 -16.420766
L 82.822871 -16.404023
L 82.387102 -16.387019
L 81.951333 -16.369992
L 81.515564 -16.352966
L 81.079795 -16.335939
L 80.644026 -16.318705
L 80.208257 -16.301148
L 79.772488 -16.283592
L 79.336719 -16.266036
L 78.90095 -16.24848
L 78.465181 -16.230745
L 78.029412 -16.212983
L 77.593643 -16.19522
L 77.157874 -16.177457
L 76.722105 -16.159872
L 76.286336 -16.142642
L 75.850567 -16.125411
L 75.414798 -16.108181
L 74.979029 -16.09095
L 74.54326 -16.074855
L 74.107491 -16.059033
L 73.671722 -16.043212
L 73.235953 -16.02739
L 72.800184 -16.01215
L 72.364415 -15.998424
L 71.928646 -15.984698
L 71.492877 -15.970971
L 71.057108 -15.957245
L 70.621339 -15.945285
L 70.18557 -15.93392
L 69.749801 -15.922554
L 69.314032 -15.911188
L 68.878263 -15.900301
L 68.442494 -15.891119
L 68.006725 -15.881936
L 67.570956 -15.872754
L 67.135187 -15.863571
L 66.699418 -15.855594
L 66.263649 -15.848157
L 65.82788 -15.84072
L 65.392111 -15.833282
L 64.956342 -15.826056
L 64.520573 -15.819918
L 64.084804 -15.813781
L 63.649035 -15.807643
L 63.213266 -15.801506
L 62.777497 -15.796021
L 62.341728 -15.790913
L 61.905959 -15.785806
L 61.47019 -15.780698
L 61.034421 -15.775693
L 60.598651 -15.77156
L 60.162882 -15.767428
L 59.727113 -15.763295
L 59.291344 -15.759163
L 58.855575 -15.755641
L 58.419806 -15.752569
L 57.984037 -15.749497
L 57.548268 -15.746426
L 57.112499 -15.743409
L 56.67673 -15.741518
L 56.240961 -15.739626
L 55.805192 -15.737735
L 55.369423 -15.735843
L 54.933654 -15.734601
L 54.497885 -15.733962
L 54.062116 -15.733323
L 53.626347 -15.732684
L 53.190578 -15.732045
L 52.754809 -15.732624
L 52.31904 -15.733216
L 51.883271 -15.733808
L 51.447502 -15.7344
L 51.011733 -15.735491
L 50.575964 -15.737166
L 50.140195 -15.738841
L 49.704426 -15.740516
L 49.268657 -15.742191
L 48.832888 -15.744588
L 48.397119 -15.747039
L 47.96135 -15.749489
L 47.525581 -15.751939
L 47.089812 -15.75451
L 46.654043 -15.757258
L 46.218274 -15.760007
L 45.782505 -15.762755
L 45.346736 -15.765504
L 44.910967 -15.767993
L 44.475198 -15.770444
L 44.039429 -15.772896
L 43.60366 -15.775348
L 43.167891 -15.777496
L 42.732122 -15.779068
L 42.296353 -15.78064
L 41.860584 -15.782212
L 41.424815 -15.783784
L 40.989046 -15.784311
L 40.553277 -15.784603
L 40.117508 -15.784895
L 39.681739 -15.785187
L 39.24597 -15.785086
L 38.810201 -15.784014
L 38.374431 -15.782941
L 37.938662 -15.781868
L 37.502893 -15.780796
L 37.067124 -15.778879
L 36.631355 -15.776694
L 36.195586 -15.77451
L 35.759817 -15.772325
L 35.324048 -15.769996
L 34.888279 -15.767186
L 34.45251 -15.764376
L 34.016741 -15.761566
L 33.580972 -15.758756
L 33.145203 -15.755887
L 32.709434 -15.752993
L 32.273665 -15.750099
L 31.837896 -15.747205
L 31.402127 -15.744371
L 30.966358 -15.741824
L 30.530589 -15.739276
L 30.09482 -15.736728
L 29.659051 -15.734181
L 29.223282 -15.732005
L 28.787513 -15.730034
L 28.351744 -15.728063
L 27.915975 -15.726092
L 27.480206 -15.724192
L 27.044437 -15.722832
L 26.608668 -15.721473
L 26.172899 -15.720114
L 25.73713 -15.718754
L 25.301361 -15.717698
L 24.865592 -15.716855
L 24.429823 -15.716012
L 23.994054 -15.71517
L 23.558285 -15.714348
L 23.122516 -15.713876
L 22.686747 -15.713404
L 22.250978 -15.712931
L 21.815209 -15.712459
L 21.37944 -15.712109
L 20.943671 -15.711869
L 20.507902 -15.711629
L 20.072133 -15.711389
L 19.636364 -15.711149
z
"/>
    </defs>
    <g clip-path="url(#p175893b506)">
     <use xlink:href="#m3398d056dd" x="0" y="156.763125" style="fill: #ff0000; fill-opacity: 0.5"/>
    </g>
   </g>
   <g id="FillBetweenPolyCollection_3">
    <defs>
     <path id="m555226a330" d="M 246.731589 -15.710313
L 246.731589 -15.710313
L 247.146707 -15.710313
L 247.561825 -15.710313
L 247.976943 -15.710313
L 248.392061 -15.710313
L 248.807179 -15.710313
L 249.222297 -15.710313
L 249.637415 -15.710313
L 250.052533 -15.710313
L 250.467651 -15.710313
L 250.882769 -15.710313
L 251.297886 -15.710313
L 251.713004 -15.710313
L 252.128122 -15.710313
L 252.54324 -15.710313
L 252.958358 -15.710313
L 253.373476 -15.710313
L 253.788594 -15.710313
L 254.203712 -15.710313
L 254.61883 -15.710313
L 255.033948 -15.710313
L 255.449066 -15.710313
L 255.864183 -15.710313
L 256.279301 -15.710313
L 256.694419 -15.710313
L 257.109537 -15.710313
L 257.524655 -15.710313
L 257.939773 -15.710313
L 258.354891 -15.710313
L 258.770009 -15.710313
L 259.185127 -15.710313
L 259.600245 -15.710313
L 260.015363 -15.710313
L 260.430481 -15.710313
L 260.845598 -15.710313
L 261.260716 -15.710313
L 261.675834 -15.710313
L 262.090952 -15.710313
L 262.50607 -15.710313
L 262.921188 -15.710313
L 263.336306 -15.710313
L 263.751424 -15.710313
L 264.166542 -15.710313
L 264.58166 -15.710313
L 264.996778 -15.710313
L 265.411895 -15.710313
L 265.827013 -15.710313
L 266.242131 -15.710313
L 266.657249 -15.710313
L 267.072367 -15.710313
L 267.487485 -15.710313
L 267.902603 -15.710313
L 268.317721 -15.710313
L 268.732839 -15.710313
L 269.147957 -15.710313
L 269.563075 -15.710313
L 269.978193 -15.710313
L 270.39331 -15.710313
L 270.808428 -15.710313
L 271.223546 -15.710313
L 271.638664 -15.710313
L 272.053782 -15.710313
L 272.4689 -15.710313
L 272.884018 -15.710313
L 273.299136 -15.710313
L 273.714254 -15.710313
L 274.129372 -15.710313
L 274.54449 -15.710313
L 274.959607 -15.710313
L 275.374725 -15.710313
L 275.789843 -15.710313
L 276.204961 -15.710313
L 276.620079 -15.710313
L 277.035197 -15.710313
L 277.450315 -15.710313
L 277.865433 -15.710313
L 278.280551 -15.710313
L 278.695669 -15.710313
L 279.110787 -15.710313
L 279.525904 -15.710313
L 279.941022 -15.710313
L 280.35614 -15.710313
L 280.771258 -15.710313
L 281.186376 -15.710313
L 281.601494 -15.710313
L 282.016612 -15.710313
L 282.43173 -15.710313
L 282.846848 -15.710313
L 283.261966 -15.710313
L 283.677084 -15.710313
L 284.092202 -15.710313
L 284.507319 -15.710313
L 284.922437 -15.710313
L 285.337555 -15.710313
L 285.752673 -15.710313
L 286.167791 -15.710313
L 286.582909 -15.710313
L 286.998027 -15.710313
L 287.413145 -15.710313
L 287.828263 -15.710313
L 288.243381 -15.710313
L 288.658499 -15.710313
L 289.073616 -15.710313
L 289.488734 -15.710313
L 289.903852 -15.710313
L 290.31897 -15.710313
L 290.734088 -15.710313
L 291.149206 -15.710313
L 291.564324 -15.710313
L 291.979442 -15.710313
L 292.39456 -15.710313
L 292.809678 -15.710313
L 293.224796 -15.710313
L 293.639913 -15.710313
L 294.055031 -15.710313
L 294.470149 -15.710313
L 294.885267 -15.710313
L 295.300385 -15.710313
L 295.715503 -15.710313
L 296.130621 -15.710313
L 296.545739 -15.710313
L 296.960857 -15.710313
L 297.375975 -15.710313
L 297.791093 -15.710313
L 298.206211 -15.710313
L 298.621328 -15.710313
L 299.036446 -15.710313
L 299.451564 -15.710313
L 299.866682 -15.710313
L 300.2818 -15.710313
L 300.696918 -15.710313
L 301.112036 -15.710313
L 301.527154 -15.710313
L 301.942272 -15.710313
L 302.35739 -15.710313
L 302.772508 -15.710313
L 303.187625 -15.710313
L 303.602743 -15.710313
L 304.017861 -15.710313
L 304.432979 -15.710313
L 304.848097 -15.710313
L 305.263215 -15.710313
L 305.678333 -15.710313
L 306.093451 -15.710313
L 306.508569 -15.710313
L 306.923687 -15.710313
L 307.338805 -15.710313
L 307.753923 -15.710313
L 308.16904 -15.710313
L 308.584158 -15.710313
L 308.999276 -15.710313
L 309.414394 -15.710313
L 309.829512 -15.710313
L 310.24463 -15.710313
L 310.659748 -15.710313
L 311.074866 -15.710313
L 311.489984 -15.710313
L 311.905102 -15.710313
L 312.32022 -15.710313
L 312.735337 -15.710313
L 313.150455 -15.710313
L 313.565573 -15.710313
L 313.980691 -15.710313
L 314.395809 -15.710313
L 314.810927 -15.710313
L 315.226045 -15.710313
L 315.641163 -15.710313
L 316.056281 -15.710313
L 316.471399 -15.710313
L 316.886517 -15.710313
L 317.301634 -15.710313
L 317.716752 -15.710313
L 318.13187 -15.710313
L 318.546988 -15.710313
L 318.962106 -15.710313
L 319.377224 -15.710313
L 319.792342 -15.710313
L 320.20746 -15.710313
L 320.622578 -15.710313
L 321.037696 -15.710313
L 321.452814 -15.710313
L 321.867932 -15.710313
L 322.283049 -15.710313
L 322.698167 -15.710313
L 323.113285 -15.710313
L 323.528403 -15.710313
L 323.943521 -15.710313
L 324.358639 -15.710313
L 324.773757 -15.710313
L 325.188875 -15.710313
L 325.603993 -15.710313
L 326.019111 -15.710313
L 326.434229 -15.710313
L 326.849346 -15.710313
L 327.264464 -15.710313
L 327.679582 -15.710313
L 328.0947 -15.710313
L 328.509818 -15.710313
L 328.924936 -15.710313
L 329.340054 -15.710313
L 329.755172 -15.710313
L 330.17029 -15.710313
L 330.585408 -15.710313
L 331.000526 -15.710313
L 331.415643 -15.710313
L 331.830761 -15.710313
L 332.245879 -15.710313
L 332.660997 -15.710313
L 333.076115 -15.710313
L 333.491233 -15.710313
L 333.906351 -15.710313
L 334.321469 -15.710313
L 334.736587 -15.710313
L 335.151705 -15.710313
L 335.566823 -15.710313
L 335.981941 -15.710313
L 336.397058 -15.710313
L 336.812176 -15.710313
L 337.227294 -15.710313
L 337.642412 -15.710313
L 338.05753 -15.710313
L 338.472648 -15.710313
L 338.887766 -15.710313
L 339.302884 -15.710313
L 339.718002 -15.710313
L 340.13312 -15.710313
L 340.548238 -15.710313
L 340.963355 -15.710313
L 341.378473 -15.710313
L 341.793591 -15.710313
L 342.208709 -15.710313
L 342.623827 -15.710313
L 343.038945 -15.710313
L 343.454063 -15.710313
L 343.869181 -15.710313
L 344.284299 -15.710313
L 344.699417 -15.710313
L 345.114535 -15.710313
L 345.529653 -15.710313
L 345.94477 -15.710313
L 346.359888 -15.710313
L 346.775006 -15.710313
L 347.190124 -15.710313
L 347.605242 -15.710313
L 348.02036 -15.710313
L 348.435478 -15.710313
L 348.850596 -15.710313
L 349.265714 -15.710313
L 349.680832 -15.710313
L 350.09595 -15.710313
L 350.511067 -15.710313
L 350.926185 -15.710313
L 351.341303 -15.710313
L 351.756421 -15.710313
L 352.171539 -15.710313
L 352.586657 -15.710313
L 353.001775 -15.710313
L 353.416893 -15.710313
L 353.832011 -15.710313
L 354.247129 -15.710313
L 354.662247 -15.710313
L 355.077364 -15.710313
L 355.492482 -15.710313
L 355.9076 -15.710313
L 356.322718 -15.710313
L 356.737836 -15.710313
L 357.152954 -15.710313
L 357.568072 -15.710313
L 357.98319 -15.710313
L 358.398308 -15.710313
L 358.813426 -15.710313
L 359.228544 -15.710313
L 359.643662 -15.710313
L 360.058779 -15.710313
L 360.473897 -15.710313
L 360.889015 -15.710313
L 361.304133 -15.710313
L 361.719251 -15.710313
L 362.134369 -15.710313
L 362.549487 -15.710313
L 362.964605 -15.710313
L 363.379723 -15.710313
L 363.794841 -15.710313
L 364.209959 -15.710313
L 364.625076 -15.710313
L 365.040194 -15.710313
L 365.455312 -15.710313
L 365.87043 -15.710313
L 366.285548 -15.710313
L 366.700666 -15.710313
L 367.115784 -15.710313
L 367.530902 -15.710313
L 367.94602 -15.710313
L 368.361138 -15.710313
L 368.776256 -15.710313
L 369.191374 -15.710313
L 369.606491 -15.710313
L 370.021609 -15.710313
L 370.436727 -15.710313
L 370.851845 -15.710313
L 371.266963 -15.710313
L 371.682081 -15.710313
L 372.097199 -15.710313
L 372.512317 -15.710313
L 372.927435 -15.710313
L 373.342553 -15.710313
L 373.757671 -15.710313
L 374.172788 -15.710313
L 374.587906 -15.710313
L 375.003024 -15.710313
L 375.418142 -15.710313
L 375.83326 -15.710313
L 376.248378 -15.710313
L 376.663496 -15.710313
L 377.078614 -15.710313
L 377.493732 -15.710313
L 377.90885 -15.710313
L 378.323968 -15.710313
L 378.739085 -15.710313
L 379.154203 -15.710313
L 379.569321 -15.710313
L 379.984439 -15.710313
L 380.399557 -15.710313
L 380.814675 -15.710313
L 381.229793 -15.710313
L 381.644911 -15.710313
L 382.060029 -15.710313
L 382.475147 -15.710313
L 382.890265 -15.710313
L 383.305383 -15.710313
L 383.7205 -15.710313
L 384.135618 -15.710313
L 384.550736 -15.710313
L 384.965854 -15.710313
L 385.380972 -15.710313
L 385.79609 -15.710313
L 386.211208 -15.710313
L 386.626326 -15.710313
L 387.041444 -15.710313
L 387.456562 -15.710313
L 387.87168 -15.710313
L 388.286797 -15.710313
L 388.701915 -15.710313
L 389.117033 -15.710313
L 389.532151 -15.710313
L 389.947269 -15.710313
L 390.362387 -15.710313
L 390.777505 -15.710313
L 391.192623 -15.710313
L 391.607741 -15.710313
L 392.022859 -15.710313
L 392.437977 -15.710313
L 392.853094 -15.710313
L 393.268212 -15.710313
L 393.68333 -15.710313
L 394.098448 -15.710313
L 394.513566 -15.710313
L 394.928684 -15.710313
L 395.343802 -15.710313
L 395.75892 -15.710313
L 396.174038 -15.710313
L 396.589156 -15.710313
L 397.004274 -15.710313
L 397.419392 -15.710313
L 397.834509 -15.710313
L 398.249627 -15.710313
L 398.664745 -15.710313
L 399.079863 -15.710313
L 399.494981 -15.710313
L 399.910099 -15.710313
L 400.325217 -15.710313
L 400.740335 -15.710313
L 401.155453 -15.710313
L 401.570571 -15.710313
L 401.985689 -15.710313
L 402.400806 -15.710313
L 402.815924 -15.710313
L 403.231042 -15.710313
L 403.64616 -15.710313
L 404.061278 -15.710313
L 404.476396 -15.710313
L 404.891514 -15.710313
L 405.306632 -15.710313
L 405.72175 -15.710313
L 406.136868 -15.710313
L 406.551986 -15.710313
L 406.967104 -15.710313
L 407.382221 -15.710313
L 407.797339 -15.710313
L 408.212457 -15.710313
L 408.627575 -15.710313
L 409.042693 -15.710313
L 409.457811 -15.710313
L 409.872929 -15.710313
L 410.288047 -15.710313
L 410.703165 -15.710313
L 411.118283 -15.710313
L 411.533401 -15.710313
L 411.948518 -15.710313
L 412.363636 -15.710313
L 412.363636 -15.710313
L 412.363636 -15.711301
L 411.948518 -15.711586
L 411.533401 -15.711872
L 411.118283 -15.712157
L 410.703165 -15.712443
L 410.288047 -15.712803
L 409.872929 -15.713391
L 409.457811 -15.71398
L 409.042693 -15.714569
L 408.627575 -15.715158
L 408.212457 -15.716005
L 407.797339 -15.717118
L 407.382221 -15.718232
L 406.967104 -15.719345
L 406.551986 -15.720459
L 406.136868 -15.722176
L 405.72175 -15.724107
L 405.306632 -15.726038
L 404.891514 -15.727969
L 404.476396 -15.7299
L 404.061278 -15.732951
L 403.64616 -15.73602
L 403.231042 -15.73909
L 402.815924 -15.742159
L 402.400806 -15.745549
L 401.985689 -15.750016
L 401.570571 -15.754483
L 401.155453 -15.75895
L 400.740335 -15.763417
L 400.325217 -15.768587
L 399.910099 -15.774533
L 399.494981 -15.780479
L 399.079863 -15.786424
L 398.664745 -15.79237
L 398.249627 -15.799237
L 397.834509 -15.806459
L 397.419392 -15.813681
L 397.004274 -15.820903
L 396.589156 -15.828125
L 396.174038 -15.83608
L 395.75892 -15.84406
L 395.343802 -15.85204
L 394.928684 -15.86002
L 394.513566 -15.868
L 394.098448 -15.875977
L 393.68333 -15.883954
L 393.268212 -15.891931
L 392.853094 -15.899908
L 392.437977 -15.907503
L 392.022859 -15.91465
L 391.607741 -15.921797
L 391.192623 -15.928943
L 390.777505 -15.93609
L 390.362387 -15.94217
L 389.947269 -15.947804
L 389.532151 -15.953439
L 389.117033 -15.959073
L 388.701915 -15.964707
L 388.286797 -15.968546
L 387.87168 -15.972293
L 387.456562 -15.97604
L 387.041444 -15.979787
L 386.626326 -15.983157
L 386.211208 -15.984993
L 385.79609 -15.986829
L 385.380972 -15.988665
L 384.965854 -15.990501
L 384.550736 -15.991603
L 384.135618 -15.991784
L 383.7205 -15.991964
L 383.305383 -15.992144
L 382.890265 -15.992324
L 382.475147 -15.991642
L 382.060029 -15.99057
L 381.644911 -15.989498
L 381.229793 -15.988425
L 380.814675 -15.987353
L 380.399557 -15.985526
L 379.984439 -15.983647
L 379.569321 -15.981767
L 379.154203 -15.979887
L 378.739085 -15.977945
L 378.323968 -15.975716
L 377.90885 -15.973488
L 377.493732 -15.971259
L 377.078614 -15.969031
L 376.663496 -15.966877
L 376.248378 -15.964823
L 375.83326 -15.962769
L 375.418142 -15.960715
L 375.003024 -15.958661
L 374.587906 -15.957177
L 374.172788 -15.955971
L 373.757671 -15.954764
L 373.342553 -15.953557
L 372.927435 -15.952351
L 372.512317 -15.952733
L 372.097199 -15.953257
L 371.682081 -15.95378
L 371.266963 -15.954304
L 370.851845 -15.955289
L 370.436727 -15.95862
L 370.021609 -15.96195
L 369.606491 -15.965281
L 369.191374 -15.968612
L 368.776256 -15.973565
L 368.361138 -15.98085
L 367.94602 -15.988134
L 367.530902 -15.995419
L 367.115784 -16.002704
L 366.700666 -16.013224
L 366.285548 -16.025441
L 365.87043 -16.037657
L 365.455312 -16.049873
L 365.040194 -16.062089
L 364.625076 -16.079203
L 364.209959 -16.096849
L 363.794841 -16.114495
L 363.379723 -16.132141
L 362.964605 -16.150553
L 362.549487 -16.173375
L 362.134369 -16.196197
L 361.719251 -16.219018
L 361.304133 -16.24184
L 360.889015 -16.266274
L 360.473897 -16.293187
L 360.058779 -16.3201
L 359.643662 -16.347013
L 359.228544 -16.373927
L 358.813426 -16.402393
L 358.398308 -16.431733
L 357.98319 -16.461072
L 357.568072 -16.490412
L 357.152954 -16.519752
L 356.737836 -16.549781
L 356.322718 -16.579898
L 355.9076 -16.610016
L 355.492482 -16.640133
L 355.077364 -16.670239
L 354.662247 -16.700267
L 354.247129 -16.730296
L 353.832011 -16.760325
L 353.416893 -16.790354
L 353.001775 -16.820549
L 352.586657 -16.851018
L 352.171539 -16.881487
L 351.756421 -16.911955
L 351.341303 -16.942424
L 350.926185 -16.974436
L 350.511067 -17.007381
L 350.09595 -17.040325
L 349.680832 -17.073269
L 349.265714 -17.106213
L 348.850596 -17.143917
L 348.435478 -17.182335
L 348.02036 -17.220753
L 347.605242 -17.259171
L 347.190124 -17.298556
L 346.775006 -17.345363
L 346.359888 -17.39217
L 345.94477 -17.438977
L 345.529653 -17.485784
L 345.114535 -17.536244
L 344.699417 -17.593163
L 344.284299 -17.650083
L 343.869181 -17.707002
L 343.454063 -17.763921
L 343.038945 -17.826911
L 342.623827 -17.893827
L 342.208709 -17.960744
L 341.793591 -18.02766
L 341.378473 -18.094576
L 340.963355 -18.16849
L 340.548238 -18.243607
L 340.13312 -18.318725
L 339.718002 -18.393843
L 339.302884 -18.469522
L 338.887766 -18.550307
L 338.472648 -18.631092
L 338.05753 -18.711878
L 337.642412 -18.792663
L 337.227294 -18.87474
L 336.812176 -18.959269
L 336.397058 -19.043799
L 335.981941 -19.128328
L 335.566823 -19.212858
L 335.151705 -19.29954
L 334.736587 -19.387712
L 334.321469 -19.475885
L 333.906351 -19.564057
L 333.491233 -19.652229
L 333.076115 -19.745394
L 332.660997 -19.839533
L 332.245879 -19.933671
L 331.830761 -20.02781
L 331.415643 -20.122815
L 331.000526 -20.227434
L 330.585408 -20.332053
L 330.17029 -20.436671
L 329.755172 -20.54129
L 329.340054 -20.651219
L 328.924936 -20.771994
L 328.509818 -20.89277
L 328.0947 -21.013546
L 327.679582 -21.134322
L 327.264464 -21.267424
L 326.849346 -21.409655
L 326.434229 -21.551885
L 326.019111 -21.694115
L 325.603993 -21.836346
L 325.188875 -21.998884
L 324.773757 -22.165866
L 324.358639 -22.332848
L 323.943521 -22.49983
L 323.528403 -22.668462
L 323.113285 -22.860294
L 322.698167 -23.052125
L 322.283049 -23.243957
L 321.867932 -23.435788
L 321.452814 -23.634297
L 321.037696 -23.847507
L 320.622578 -24.060718
L 320.20746 -24.273929
L 319.792342 -24.487139
L 319.377224 -24.708709
L 318.962106 -24.936894
L 318.546988 -25.165079
L 318.13187 -25.393264
L 317.716752 -25.621448
L 317.301634 -25.855356
L 316.886517 -26.090656
L 316.471399 -26.325957
L 316.056281 -26.561258
L 315.641163 -26.796546
L 315.226045 -27.031584
L 314.810927 -27.266623
L 314.395809 -27.501661
L 313.980691 -27.7367
L 313.565573 -27.970182
L 313.150455 -28.199963
L 312.735337 -28.429745
L 312.32022 -28.659526
L 311.905102 -28.889307
L 311.489984 -29.115614
L 311.074866 -29.338985
L 310.659748 -29.562355
L 310.24463 -29.785726
L 309.829512 -30.009096
L 309.414394 -30.230101
L 308.999276 -30.450468
L 308.584158 -30.670835
L 308.16904 -30.891203
L 307.753923 -31.111731
L 307.338805 -31.336883
L 306.923687 -31.562035
L 306.508569 -31.787187
L 306.093451 -32.012339
L 305.678333 -32.241933
L 305.263215 -32.482968
L 304.848097 -32.724002
L 304.432979 -32.965037
L 304.017861 -33.206072
L 303.602743 -33.46212
L 303.187625 -33.731721
L 302.772508 -34.001323
L 302.35739 -34.270924
L 301.942272 -34.540525
L 301.527154 -34.841662
L 301.112036 -35.152138
L 300.696918 -35.462615
L 300.2818 -35.773092
L 299.866682 -36.084458
L 299.451564 -36.44597
L 299.036446 -36.807482
L 298.621328 -37.168994
L 298.206211 -37.530506
L 297.791093 -37.907203
L 297.375975 -38.326376
L 296.960857 -38.74555
L 296.545739 -39.164723
L 296.130621 -39.583896
L 295.715503 -40.033493
L 295.300385 -40.512405
L 294.885267 -40.991317
L 294.470149 -41.47023
L 294.055031 -41.949142
L 293.639913 -42.470792
L 293.224796 -43.006296
L 292.809678 -43.5418
L 292.39456 -44.077304
L 291.979442 -44.612861
L 291.564324 -45.196433
L 291.149206 -45.780004
L 290.734088 -46.363576
L 290.31897 -46.947148
L 289.903852 -47.539337
L 289.488734 -48.157796
L 289.073616 -48.776255
L 288.658499 -49.394714
L 288.243381 -50.013173
L 287.828263 -50.640921
L 287.413145 -51.278225
L 286.998027 -51.915528
L 286.582909 -52.552832
L 286.167791 -53.190136
L 285.752673 -53.829367
L 285.337555 -54.469279
L 284.922437 -55.109191
L 284.507319 -55.749103
L 284.092202 -56.389015
L 283.677084 -57.018266
L 283.261966 -57.647353
L 282.846848 -58.276439
L 282.43173 -58.905526
L 282.016612 -59.530276
L 281.601494 -60.140562
L 281.186376 -60.750849
L 280.771258 -61.361136
L 280.35614 -61.971422
L 279.941022 -62.572344
L 279.525904 -63.162984
L 279.110787 -63.753623
L 278.695669 -64.344262
L 278.280551 -64.934901
L 277.865433 -65.515934
L 277.450315 -66.093279
L 277.035197 -66.670623
L 276.620079 -67.247967
L 276.204961 -67.825311
L 275.789843 -68.40104
L 275.374725 -68.976717
L 274.959607 -69.552393
L 274.54449 -70.12807
L 274.129372 -70.706219
L 273.714254 -71.293432
L 273.299136 -71.880645
L 272.884018 -72.467859
L 272.4689 -73.055072
L 272.053782 -73.652423
L 271.638664 -74.261661
L 271.223546 -74.870899
L 270.808428 -75.480137
L 270.39331 -76.089375
L 269.978193 -76.717474
L 269.563075 -77.35342
L 269.147957 -77.989366
L 268.732839 -78.625312
L 268.317721 -79.261257
L 267.902603 -79.921065
L 267.487485 -80.582071
L 267.072367 -81.243077
L 266.657249 -81.904084
L 266.242131 -82.568849
L 265.827013 -83.248834
L 265.411895 -83.928819
L 264.996778 -84.608805
L 264.58166 -85.28879
L 264.166542 -85.973702
L 263.751424 -86.664784
L 263.336306 -87.355867
L 262.921188 -88.046949
L 262.50607 -88.738032
L 262.090952 -89.431086
L 261.675834 -90.125026
L 261.260716 -90.818966
L 260.845598 -91.512907
L 260.430481 -92.206847
L 260.015363 -92.895082
L 259.600245 -93.582926
L 259.185127 -94.27077
L 258.770009 -94.958614
L 258.354891 -95.643417
L 257.939773 -96.31453
L 257.524655 -96.985644
L 257.109537 -97.656757
L 256.694419 -98.32787
L 256.279301 -98.986667
L 255.864183 -99.62898
L 255.449066 -100.271293
L 255.033948 -100.913606
L 254.61883 -101.555919
L 254.203712 -102.1712
L 253.788594 -102.77338
L 253.373476 -103.37556
L 252.958358 -103.97774
L 252.54324 -104.57992
L 252.128122 -105.138259
L 251.713004 -105.692761
L 251.297886 -106.247262
L 250.882769 -106.801764
L 250.467651 -107.348098
L 250.052533 -107.853225
L 249.637415 -108.358353
L 249.222297 -108.863481
L 248.807179 -109.368609
L 248.392061 -109.855156
L 247.976943 -110.315112
L 247.561825 -110.775068
L 247.146707 -111.235023
L 246.731589 -111.694979
z
"/>
    </defs>
    <g clip-path="url(#p175893b506)">
     <use xlink:href="#m555226a330" x="0" y="156.763125" style="fill: #008000; fill-opacity: 0.5"/>
    </g>
   </g>
   <g id="LineCollection_1">
    <path d="M 193.508203 141.052813
L 193.508203 41.28526
" clip-path="url(#p175893b506)" style="fill: none; stroke: #000000; stroke-width: 1.5"/>
   </g>
   <g id="LineCollection_2">
    <path d="M 246.731589 141.052813
L 246.731589 45.068146
" clip-path="url(#p175893b506)" style="fill: none; stroke: #000000; stroke-width: 1.5"/>
   </g>
   <g id="LineCollection_3">
    <path d="M 219.962347 141.052813
L 219.962347 20.161827
" clip-path="url(#p175893b506)" style="fill: none; stroke-dasharray: 5.55,2.4; stroke-dashoffset: 0; stroke: #000000; stroke-width: 1.5"/>
   </g>
   <g id="matplotlib.axis_1">
    <g id="xtick_1">
     <g id="line2d_1">
      <defs>
       <path id="mb940853398" d="M 0 0
L 0 3.5
" style="stroke: #000000; stroke-width: 0.8"/>
      </defs>
      <g>
       <use xlink:href="#mb940853398" x="42.708606" y="141.052813" style="stroke: #000000; stroke-width: 0.8"/>
      </g>
     </g>
     <g id="text_1">
      <!-- 0.2 -->
      <g transform="translate(31.781341 154.891406) scale(0.09 -0.09)">
       <defs>
        <path id="DejaVuSans-2212" d="M 678 2272
L 4684 2272
L 4684 1741
L 678 1741
L 678 2272
z
" transform="scale(0.015625)"/>
        <path id="DejaVuSans-30" d="M 2034 4250
Q 1547 4250 1301 3770
Q 1056 3291 1056 2328
Q 1056 1369 1301 889
Q 1547 409 2034 409
Q 2525 409 2770 889
Q 3016 1369 3016 2328
Q 3016 3291 2770 3770
Q 2525 4250 2034 4250
z
M 2034 4750
Q 2819 4750 3233 4129
Q 3647 3509 3647 2328
Q 3647 1150 3233 529
Q 2819 -91 2034 -91
Q 1250 -91 836 529
Q 422 1150 422 2328
Q 422 3509 836 4129
Q 1250 4750 2034 4750
z
" transform="scale(0.015625)"/>
        <path id="DejaVuSans-2e" d="M 684 794
L 1344 794
L 1344 0
L 684 0
L 684 794
z
" transform="scale(0.015625)"/>
        <path id="DejaVuSans-32" d="M 1228 531
L 3431 531
L 3431 0
L 469 0
L 469 531
Q 828 903 1448 1529
Q 2069 2156 2228 2338
Q 2531 2678 2651 2914
Q 2772 3150 2772 3378
Q 2772 3750 2511 3984
Q 2250 4219 1831 4219
Q 1534 4219 1204 4116
Q 875 4013 500 3803
L 500 4441
Q 881 4594 1212 4672
Q 1544 4750 1819 4750
Q 2544 4750 2975 4387
Q 3406 4025 3406 3419
Q 3406 3131 3298 2873
Q 3191 2616 2906 2266
Q 2828 2175 2409 1742
Q 1991 1309 1228 531
z
" transform="scale(0.015625)"/>
       </defs>
       <use xlink:href="#DejaVuSans-2212"/>
       <use xlink:href="#DejaVuSans-30" transform="translate(83.789062 0)"/>
       <use xlink:href="#DejaVuSans-2e" transform="translate(147.412109 0)"/>
       <use xlink:href="#DejaVuSans-32" transform="translate(179.199219 0)"/>
      </g>
     </g>
    </g>
    <g id="xtick_2">
     <g id="line2d_2">
      <g>
       <use xlink:href="#mb940853398" x="131.414251" y="141.052813" style="stroke: #000000; stroke-width: 0.8"/>
      </g>
     </g>
     <g id="text_2">
      <!-- 0.1 -->
      <g transform="translate(120.486985 154.891406) scale(0.09 -0.09)">
       <defs>
        <path id="DejaVuSans-31" d="M 794 531
L 1825 531
L 1825 4091
L 703 3866
L 703 4441
L 1819 4666
L 2450 4666
L 2450 531
L 3481 531
L 3481 0
L 794 0
L 794 531
z
" transform="scale(0.015625)"/>
       </defs>
       <use xlink:href="#DejaVuSans-2212"/>
       <use xlink:href="#DejaVuSans-30" transform="translate(83.789062 0)"/>
       <use xlink:href="#DejaVuSans-2e" transform="translate(147.412109 0)"/>
       <use xlink:href="#DejaVuSans-31" transform="translate(179.199219 0)"/>
      </g>
     </g>
    </g>
    <g id="xtick_3">
     <g id="line2d_3">
      <g>
       <use xlink:href="#mb940853398" x="220.119896" y="141.052813" style="stroke: #000000; stroke-width: 0.8"/>
      </g>
     </g>
     <g id="text_3">
      <!-- 0.0 -->
      <g transform="translate(212.96349 154.891406) scale(0.09 -0.09)">
       <use xlink:href="#DejaVuSans-30"/>
       <use xlink:href="#DejaVuSans-2e" transform="translate(63.623047 0)"/>
       <use xlink:href="#DejaVuSans-30" transform="translate(95.410156 0)"/>
      </g>
     </g>
    </g>
    <g id="xtick_4">
     <g id="line2d_4">
      <g>
       <use xlink:href="#mb940853398" x="308.825541" y="141.052813" style="stroke: #000000; stroke-width: 0.8"/>
      </g>
     </g>
     <g id="text_4">
      <!-- 0.1 -->
      <g transform="translate(301.669135 154.891406) scale(0.09 -0.09)">
       <use xlink:href="#DejaVuSans-30"/>
       <use xlink:href="#DejaVuSans-2e" transform="translate(63.623047 0)"/>
       <use xlink:href="#DejaVuSans-31" transform="translate(95.410156 0)"/>
      </g>
     </g>
    </g>
    <g id="xtick_5">
     <g id="line2d_5">
      <g>
       <use xlink:href="#mb940853398" x="397.531186" y="141.052813" style="stroke: #000000; stroke-width: 0.8"/>
      </g>
     </g>
     <g id="text_5">
      <!-- 0.2 -->
      <g transform="translate(390.374779 154.891406) scale(0.09 -0.09)">
       <use xlink:href="#DejaVuSans-30"/>
       <use xlink:href="#DejaVuSans-2e" transform="translate(63.623047 0)"/>
       <use xlink:href="#DejaVuSans-32" transform="translate(95.410156 0)"/>
      </g>
     </g>
    </g>
   </g>
   <g id="matplotlib.axis_2"/>
   <g id="line2d_6">
    <path d="M 19.636364 141.051976
L 65.026953 140.936075
L 74.894472 140.675519
L 92.656007 139.866502
L 96.603015 139.415461
L 100.550023 138.681765
L 112.391046 135.830178
L 116.338054 134.657566
L 118.311558 133.901496
L 122.258566 132.011864
L 126.205573 129.756009
L 132.126085 126.06076
L 136.073093 123.281848
L 138.046597 121.696759
L 140.020101 119.951312
L 143.967108 116.026598
L 147.914116 111.726824
L 153.834628 104.883729
L 163.702147 92.945875
L 167.649155 87.717729
L 169.622659 84.785147
L 171.596163 81.565515
L 173.569667 78.044388
L 177.516674 70.281739
L 183.437186 58.269897
L 187.384194 50.915564
L 189.357698 47.544465
L 191.331201 44.414418
L 193.304705 41.551722
L 195.278209 38.967594
L 197.251713 36.646064
L 201.198721 32.589051
L 207.119233 27.124611
L 211.06624 23.833349
L 213.039744 22.449136
L 215.013248 21.328129
L 216.986752 20.53278
L 218.960256 20.129479
L 220.93376 20.193184
L 222.907264 20.795714
L 224.880767 21.975199
L 226.854271 23.700993
L 228.827775 25.857721
L 234.748287 33.083415
L 236.721791 35.262431
L 240.668799 39.149965
L 244.615806 42.897102
L 246.58931 44.910498
L 248.562814 47.097166
L 250.536318 49.498584
L 252.509822 52.134728
L 256.45683 58.051148
L 262.377341 67.810787
L 268.297853 77.471431
L 272.244861 83.391134
L 282.11238 97.373643
L 291.979899 112.150907
L 293.953403 114.696737
L 295.926907 116.973525
L 297.900411 118.966309
L 299.873915 120.684966
L 301.847419 122.160997
L 303.820923 123.442703
L 307.767931 125.658991
L 313.688442 128.860955
L 319.608954 132.181795
L 323.555962 134.107398
L 327.502969 135.577419
L 331.449977 136.648963
L 337.370489 137.917544
L 343.291 138.976845
L 347.238008 139.469968
L 355.132024 140.09684
L 363.026039 140.61595
L 368.946551 140.792549
L 378.81407 140.784778
L 390.655094 140.824928
L 408.416629 141.047668
L 412.363636 141.051824
L 412.363636 141.051824
" style="fill: none; stroke: #000000; stroke-width: 1.5; stroke-linecap: square"/>
   </g>
   <g id="PathCollection_1">
    <defs>
     <path id="mdedbb89aca" d="M -0 4.242641
L 4.242641 0
L 0 -4.242641
L -4.242641 -0
z
" style="stroke: #000000"/>
    </defs>
    <g>
     <use xlink:href="#mdedbb89aca" x="220.119896" y="141.052813" style="stroke: #000000"/>
    </g>
   </g>
   <g id="patch_3">
    <path d="M 0 141.052813
L 432 141.052813
" style="fill: none; stroke: #000000; stroke-width: 0.8; stroke-linejoin: miter; stroke-linecap: square"/>
   </g>
   <g id="LineCollection_4">
    <path d="M 19.636364 141.052813
L 412.363636 141.052813
" style="fill: none; stroke: #000000"/>
   </g>
   <g id="LineCollection_5">
    <path d="M 19.636364 141.052813
L 19.636364 133.200648
" style="fill: none; stroke: #000000"/>
   </g>
   <g id="LineCollection_6">
    <path d="M 412.363636 141.052813
L 412.363636 133.200648
" style="fill: none; stroke: #000000"/>
   </g>
   <g id="text_6">
    <!-- $p_{sig}^{+}$ -->
    <g style="fill: #008000" transform="translate(331.850795 7.47) scale(0.09 -0.09)">
     <defs>
      <path id="DejaVuSans-Oblique-70" d="M 3175 2156
Q 3175 2616 2975 2859
Q 2775 3103 2400 3103
Q 2144 3103 1911 2972
Q 1678 2841 1497 2591
Q 1319 2344 1212 1994
Q 1106 1644 1106 1300
Q 1106 863 1306 627
Q 1506 391 1875 391
Q 2147 391 2380 519
Q 2613 647 2778 891
Q 2956 1147 3065 1494
Q 3175 1841 3175 2156
z
M 1394 2969
Q 1625 3272 1939 3428
Q 2253 3584 2638 3584
Q 3175 3584 3472 3232
Q 3769 2881 3769 2247
Q 3769 1728 3584 1258
Q 3400 788 3053 416
Q 2822 169 2531 39
Q 2241 -91 1919 -91
Q 1547 -91 1294 64
Q 1041 219 916 525
L 556 -1331
L -19 -1331
L 922 3500
L 1497 3500
L 1394 2969
z
" transform="scale(0.015625)"/>
      <path id="DejaVuSans-2b" d="M 2944 4013
L 2944 2272
L 4684 2272
L 4684 1741
L 2944 1741
L 2944 0
L 2419 0
L 2419 1741
L 678 1741
L 678 2272
L 2419 2272
L 2419 4013
L 2944 4013
z
" transform="scale(0.015625)"/>
      <path id="DejaVuSans-Oblique-73" d="M 3200 3397
L 3091 2853
Q 2863 2978 2609 3040
Q 2356 3103 2088 3103
Q 1634 3103 1373 2948
Q 1113 2794 1113 2528
Q 1113 2219 1719 2053
Q 1766 2041 1788 2034
L 1972 1978
Q 2547 1819 2739 1644
Q 2931 1469 2931 1166
Q 2931 609 2489 259
Q 2047 -91 1331 -91
Q 1053 -91 747 -37
Q 441 16 72 128
L 184 722
Q 500 559 806 475
Q 1113 391 1394 391
Q 1816 391 2080 572
Q 2344 753 2344 1031
Q 2344 1331 1650 1516
L 1591 1531
L 1394 1581
Q 956 1697 753 1886
Q 550 2075 550 2369
Q 550 2928 970 3256
Q 1391 3584 2113 3584
Q 2397 3584 2667 3537
Q 2938 3491 3200 3397
z
" transform="scale(0.015625)"/>
      <path id="DejaVuSans-Oblique-69" d="M 1172 4863
L 1747 4863
L 1606 4134
L 1031 4134
L 1172 4863
z
M 909 3500
L 1484 3500
L 800 0
L 225 0
L 909 3500
z
" transform="scale(0.015625)"/>
      <path id="DejaVuSans-Oblique-67" d="M 3816 3500
L 3219 434
Q 3047 -456 2561 -893
Q 2075 -1331 1253 -1331
Q 950 -1331 690 -1286
Q 431 -1241 206 -1147
L 313 -588
Q 525 -725 762 -790
Q 1000 -856 1269 -856
Q 1816 -856 2167 -557
Q 2519 -259 2631 300
L 2681 563
Q 2441 288 2122 144
Q 1803 0 1434 0
Q 903 0 598 351
Q 294 703 294 1319
Q 294 1803 478 2267
Q 663 2731 997 3091
Q 1219 3328 1514 3456
Q 1809 3584 2131 3584
Q 2484 3584 2746 3420
Q 3009 3256 3138 2956
L 3238 3500
L 3816 3500
z
M 2950 2216
Q 2950 2641 2750 2872
Q 2550 3103 2181 3103
Q 1953 3103 1747 3012
Q 1541 2922 1394 2759
Q 1156 2491 1023 2127
Q 891 1763 891 1375
Q 891 944 1092 712
Q 1294 481 1672 481
Q 2219 481 2584 976
Q 2950 1472 2950 2216
z
" transform="scale(0.015625)"/>
     </defs>
     <use xlink:href="#DejaVuSans-Oblique-70" transform="translate(0 0.7625)"/>
     <use xlink:href="#DejaVuSans-2b" transform="translate(68.126458 39.107813) scale(0.7)"/>
     <use xlink:href="#DejaVuSans-Oblique-73" transform="translate(63.476562 -26.58125) scale(0.7)"/>
     <use xlink:href="#DejaVuSans-Oblique-69" transform="translate(99.946289 -26.58125) scale(0.7)"/>
     <use xlink:href="#DejaVuSans-Oblique-67" transform="translate(119.394531 -26.58125) scale(0.7)"/>
    </g>
    <!-- 26.84% -->
    <g style="fill: #008000" transform="translate(322.207435 19.456312) scale(0.09 -0.09)">
     <defs>
      <path id="DejaVuSans-36" d="M 2113 2584
Q 1688 2584 1439 2293
Q 1191 2003 1191 1497
Q 1191 994 1439 701
Q 1688 409 2113 409
Q 2538 409 2786 701
Q 3034 994 3034 1497
Q 3034 2003 2786 2293
Q 2538 2584 2113 2584
z
M 3366 4563
L 3366 3988
Q 3128 4100 2886 4159
Q 2644 4219 2406 4219
Q 1781 4219 1451 3797
Q 1122 3375 1075 2522
Q 1259 2794 1537 2939
Q 1816 3084 2150 3084
Q 2853 3084 3261 2657
Q 3669 2231 3669 1497
Q 3669 778 3244 343
Q 2819 -91 2113 -91
Q 1303 -91 875 529
Q 447 1150 447 2328
Q 447 3434 972 4092
Q 1497 4750 2381 4750
Q 2619 4750 2861 4703
Q 3103 4656 3366 4563
z
" transform="scale(0.015625)"/>
      <path id="DejaVuSans-38" d="M 2034 2216
Q 1584 2216 1326 1975
Q 1069 1734 1069 1313
Q 1069 891 1326 650
Q 1584 409 2034 409
Q 2484 409 2743 651
Q 3003 894 3003 1313
Q 3003 1734 2745 1975
Q 2488 2216 2034 2216
z
M 1403 2484
Q 997 2584 770 2862
Q 544 3141 544 3541
Q 544 4100 942 4425
Q 1341 4750 2034 4750
Q 2731 4750 3128 4425
Q 3525 4100 3525 3541
Q 3525 3141 3298 2862
Q 3072 2584 2669 2484
Q 3125 2378 3379 2068
Q 3634 1759 3634 1313
Q 3634 634 3220 271
Q 2806 -91 2034 -91
Q 1263 -91 848 271
Q 434 634 434 1313
Q 434 1759 690 2068
Q 947 2378 1403 2484
z
M 1172 3481
Q 1172 3119 1398 2916
Q 1625 2713 2034 2713
Q 2441 2713 2670 2916
Q 2900 3119 2900 3481
Q 2900 3844 2670 4047
Q 2441 4250 2034 4250
Q 1625 4250 1398 4047
Q 1172 3844 1172 3481
z
" transform="scale(0.015625)"/>
      <path id="DejaVuSans-34" d="M 2419 4116
L 825 1625
L 2419 1625
L 2419 4116
z
M 2253 4666
L 3047 4666
L 3047 1625
L 3713 1625
L 3713 1100
L 3047 1100
L 3047 0
L 2419 0
L 2419 1100
L 313 1100
L 313 1709
L 2253 4666
z
" transform="scale(0.015625)"/>
      <path id="DejaVuSans-25" d="M 4653 2053
Q 4381 2053 4226 1822
Q 4072 1591 4072 1178
Q 4072 772 4226 539
Q 4381 306 4653 306
Q 4919 306 5073 539
Q 5228 772 5228 1178
Q 5228 1588 5073 1820
Q 4919 2053 4653 2053
z
M 4653 2450
Q 5147 2450 5437 2106
Q 5728 1763 5728 1178
Q 5728 594 5436 251
Q 5144 -91 4653 -91
Q 4153 -91 3862 251
Q 3572 594 3572 1178
Q 3572 1766 3864 2108
Q 4156 2450 4653 2450
z
M 1428 4353
Q 1159 4353 1004 4120
Q 850 3888 850 3481
Q 850 3069 1003 2837
Q 1156 2606 1428 2606
Q 1700 2606 1854 2837
Q 2009 3069 2009 3481
Q 2009 3884 1853 4118
Q 1697 4353 1428 4353
z
M 4250 4750
L 4750 4750
L 1831 -91
L 1331 -91
L 4250 4750
z
M 1428 4750
Q 1922 4750 2215 4408
Q 2509 4066 2509 3481
Q 2509 2891 2217 2550
Q 1925 2209 1428 2209
Q 931 2209 642 2551
Q 353 2894 353 3481
Q 353 4063 643 4406
Q 934 4750 1428 4750
z
" transform="scale(0.015625)"/>
     </defs>
     <use xlink:href="#DejaVuSans-32"/>
     <use xlink:href="#DejaVuSans-36" transform="translate(63.623047 0)"/>
     <use xlink:href="#DejaVuSans-2e" transform="translate(127.246094 0)"/>
     <use xlink:href="#DejaVuSans-38" transform="translate(159.033203 0)"/>
     <use xlink:href="#DejaVuSans-34" transform="translate(222.65625 0)"/>
     <use xlink:href="#DejaVuSans-25" transform="translate(286.279297 0)"/>
    </g>
    <!--  -->
    <g style="fill: #008000" transform="translate(339.365795 29.534344) scale(0.09 -0.09)"/>
   </g>
   <g id="text_7">
    <!-- $p_{sig}^{-}$ -->
    <g style="fill: #ff0000" transform="translate(89.239101 6.615) scale(0.09 -0.09)">
     <use xlink:href="#DejaVuSans-Oblique-70" transform="translate(0 0.804688)"/>
     <use xlink:href="#DejaVuSans-2212" transform="translate(68.126458 39.15) scale(0.7)"/>
     <use xlink:href="#DejaVuSans-Oblique-73" transform="translate(63.476562 -26.539062) scale(0.7)"/>
     <use xlink:href="#DejaVuSans-Oblique-69" transform="translate(99.946289 -26.539062) scale(0.7)"/>
     <use xlink:href="#DejaVuSans-Oblique-67" transform="translate(119.394531 -26.539062) scale(0.7)"/>
    </g>
    <!-- 26.27% -->
    <g style="fill: #ff0000" transform="translate(79.595742 18.601313) scale(0.09 -0.09)">
     <defs>
      <path id="DejaVuSans-37" d="M 525 4666
L 3525 4666
L 3525 4397
L 1831 0
L 1172 0
L 2766 4134
L 525 4134
L 525 4666
z
" transform="scale(0.015625)"/>
     </defs>
     <use xlink:href="#DejaVuSans-32"/>
     <use xlink:href="#DejaVuSans-36" transform="translate(63.623047 0)"/>
     <use xlink:href="#DejaVuSans-2e" transform="translate(127.246094 0)"/>
     <use xlink:href="#DejaVuSans-32" transform="translate(159.033203 0)"/>
     <use xlink:href="#DejaVuSans-37" transform="translate(222.65625 0)"/>
     <use xlink:href="#DejaVuSans-25" transform="translate(286.279297 0)"/>
    </g>
    <!--  -->
    <g style="fill: #ff0000" transform="translate(96.754101 28.679344) scale(0.09 -0.09)"/>
   </g>
   <g id="text_8">
    <!-- $p_{ROPE}$ -->
    <g style="fill: #808080" transform="translate(208.554896 8.090156) scale(0.09 -0.09)">
     <defs>
      <path id="DejaVuSans-Oblique-52" d="M 1613 4147
L 1294 2491
L 2106 2491
Q 2584 2491 2879 2755
Q 3175 3019 3175 3444
Q 3175 3784 2976 3965
Q 2778 4147 2406 4147
L 1613 4147
z
M 2772 2241
Q 2972 2194 3105 2009
Q 3238 1825 3413 1275
L 3809 0
L 3144 0
L 2778 1197
Q 2638 1659 2453 1815
Q 2269 1972 1888 1972
L 1191 1972
L 806 0
L 172 0
L 1081 4666
L 2503 4666
Q 3150 4666 3495 4373
Q 3841 4081 3841 3531
Q 3841 3044 3547 2687
Q 3253 2331 2772 2241
z
" transform="scale(0.015625)"/>
      <path id="DejaVuSans-Oblique-4f" d="M 2919 4238
Q 2400 4238 2003 3986
Q 1606 3734 1313 3219
Q 1125 2891 1026 2522
Q 928 2153 928 1778
Q 928 1128 1239 775
Q 1550 422 2119 422
Q 2631 422 3032 676
Q 3434 931 3719 1434
Q 3909 1772 4009 2142
Q 4109 2513 4109 2881
Q 4109 3528 3796 3883
Q 3484 4238 2919 4238
z
M 2100 -91
Q 1241 -91 748 418
Q 256 928 256 1813
Q 256 2319 448 2847
Q 641 3375 978 3788
Q 1375 4272 1862 4511
Q 2350 4750 2938 4750
Q 3794 4750 4287 4245
Q 4781 3741 4781 2869
Q 4781 2331 4593 1812
Q 4406 1294 4056 872
Q 3656 384 3173 146
Q 2691 -91 2100 -91
z
" transform="scale(0.015625)"/>
      <path id="DejaVuSans-Oblique-50" d="M 1081 4666
L 2541 4666
Q 3178 4666 3512 4369
Q 3847 4072 3847 3500
Q 3847 2731 3353 2303
Q 2859 1875 1966 1875
L 1172 1875
L 806 0
L 172 0
L 1081 4666
z
M 1613 4147
L 1275 2394
L 2069 2394
Q 2606 2394 2893 2669
Q 3181 2944 3181 3456
Q 3181 3784 2986 3965
Q 2791 4147 2438 4147
L 1613 4147
z
" transform="scale(0.015625)"/>
      <path id="DejaVuSans-Oblique-45" d="M 1081 4666
L 4031 4666
L 3928 4134
L 1606 4134
L 1338 2753
L 3566 2753
L 3463 2222
L 1234 2222
L 909 531
L 3284 531
L 3181 0
L 172 0
L 1081 4666
z
" transform="scale(0.015625)"/>
     </defs>
     <use xlink:href="#DejaVuSans-Oblique-70"/>
     <use xlink:href="#DejaVuSans-Oblique-52" transform="translate(63.476562 -16.40625) scale(0.7)"/>
     <use xlink:href="#DejaVuSans-Oblique-4f" transform="translate(112.114258 -16.40625) scale(0.7)"/>
     <use xlink:href="#DejaVuSans-Oblique-50" transform="translate(167.211914 -16.40625) scale(0.7)"/>
     <use xlink:href="#DejaVuSans-Oblique-45" transform="translate(209.423828 -16.40625) scale(0.7)"/>
    </g>
    <!-- 46.89% -->
    <g style="fill: #808080" transform="translate(202.961537 18.186469) scale(0.09 -0.09)">
     <defs>
      <path id="DejaVuSans-39" d="M 703 97
L 703 672
Q 941 559 1184 500
Q 1428 441 1663 441
Q 2288 441 2617 861
Q 2947 1281 2994 2138
Q 2813 1869 2534 1725
Q 2256 1581 1919 1581
Q 1219 1581 811 2004
Q 403 2428 403 3163
Q 403 3881 828 4315
Q 1253 4750 1959 4750
Q 2769 4750 3195 4129
Q 3622 3509 3622 2328
Q 3622 1225 3098 567
Q 2575 -91 1691 -91
Q 1453 -91 1209 -44
Q 966 3 703 97
z
M 1959 2075
Q 2384 2075 2632 2365
Q 2881 2656 2881 3163
Q 2881 3666 2632 3958
Q 2384 4250 1959 4250
Q 1534 4250 1286 3958
Q 1038 3666 1038 3163
Q 1038 2656 1286 2365
Q 1534 2075 1959 2075
z
" transform="scale(0.015625)"/>
     </defs>
     <use xlink:href="#DejaVuSans-34"/>
     <use xlink:href="#DejaVuSans-36" transform="translate(63.623047 0)"/>
     <use xlink:href="#DejaVuSans-2e" transform="translate(127.246094 0)"/>
     <use xlink:href="#DejaVuSans-38" transform="translate(159.033203 0)"/>
     <use xlink:href="#DejaVuSans-39" transform="translate(222.65625 0)"/>
     <use xlink:href="#DejaVuSans-25" transform="translate(286.279297 0)"/>
    </g>
    <!--  -->
    <g style="fill: #808080" transform="translate(220.119896 28.2645) scale(0.09 -0.09)"/>
   </g>
  </g>
 </g>
 <defs>
  <clipPath id="p175893b506">
   <rect x="0" y="14.083313" width="432" height="126.9695"/>
  </clipPath>
 </defs>
</svg>
