<!--Generator: Adobe Illustrator 16.0.0, SVG Export Plug-In . SVG Version: 6.00 Build 0)--><svg xmlns="http://www.w3.org/2000/svg" xml:space="preserve" id="cog5" x="0" y="0" viewBox="0 0 96 96"><style>@keyframes spinning-cog4416{0%{transform:rotate(0deg)}to{transform:rotate(360deg)}}</style><path fill="currentColor" d="M87.311 48c0-.983-.076-1.947-.147-2.912 3.839-1.227 6.879-2.397 8.837-3.441l-.704-3.963c-2.198-.316-5.456-.385-9.481-.236a38 38 0 0 0-2.007-5.48c3.179-2.452 5.629-4.58 7.106-6.225l-2.027-3.484c-2.176.449-5.263 1.491-8.997 2.998a39 39 0 0 0-3.767-4.476c2.141-3.381 3.709-6.211 4.53-8.257l-3.106-2.586c-1.886 1.157-4.419 3.175-7.399 5.849-1.614-1.095-3.332-2.041-5.107-2.891.848-3.912 1.346-7.108 1.413-9.313l-3.811-1.375c-1.377 1.731-3.066 4.499-4.952 8.036-1.884-.475-3.805-.854-5.785-1.047-.553-3.948-1.184-7.109-1.88-9.197h-4.055c-.695 2.088-1.327 5.249-1.878 9.196-1.98.194-3.902.573-5.785 1.047-1.886-3.537-3.575-6.305-4.952-8.036l-3.811 1.375c.066 2.205.565 5.401 1.413 9.313-1.775.85-3.493 1.796-5.108 2.891-2.979-2.674-5.513-4.692-7.398-5.849l-3.106 2.586c.821 2.045 2.39 4.875 4.529 8.257a39 39 0 0 0-3.766 4.476c-3.734-1.507-6.821-2.549-8.997-2.998l-2.028 3.484c1.479 1.645 3.928 3.772 7.106 6.225a38.5 38.5 0 0 0-2.006 5.48c-4.026-.148-7.283-.08-9.481.236L0 41.646c1.958 1.044 4.998 2.215 8.837 3.441-.072.966-.149 1.93-.149 2.913s.076 1.947.148 2.912C4.998 52.139 1.958 53.309 0 54.354l.704 3.963c2.198.316 5.455.385 9.481.236a38.4 38.4 0 0 0 2.006 5.48c-3.179 2.452-5.628 4.58-7.106 6.225l2.028 3.484c2.176-.448 5.263-1.49 8.997-2.998a39 39 0 0 0 3.766 4.477c-2.141 3.381-3.708 6.211-4.529 8.257l3.106 2.585c1.886-1.156 4.419-3.176 7.398-5.849 1.615 1.095 3.333 2.04 5.108 2.891-.848 3.911-1.347 7.108-1.413 9.312l3.811 1.376c1.377-1.731 3.066-4.499 4.952-8.037 1.883.475 3.805.854 5.785 1.049.551 3.946 1.183 7.107 1.878 9.195h4.055c.695-2.088 1.327-5.249 1.878-9.195 1.98-.194 3.901-.574 5.785-1.049 1.885 3.538 3.575 6.306 4.952 8.037l3.811-1.376c-.067-2.204-.565-5.401-1.413-9.312 1.775-.851 3.493-1.796 5.108-2.891 2.979 2.673 5.513 4.692 7.398 5.849l3.106-2.585c-.821-2.046-2.39-4.876-4.529-8.257a39.4 39.4 0 0 0 3.766-4.477c3.734 1.508 6.821 2.55 8.997 2.998l2.027-3.484c-1.478-1.645-3.928-3.772-7.106-6.225a38.4 38.4 0 0 0 2.007-5.48c4.025.148 7.283.08 9.481-.236L96 54.354c-1.958-1.045-4.998-2.215-8.837-3.441.071-.966.148-1.931.148-2.913M48 15c17.213 0 31.331 13.183 32.849 30h-6.024C73.33 31.502 61.896 21 48 21c-3.417 0-6.673.661-9.682 1.819l-3.043-5.27A32.9 32.9 0 0 1 48 15M27 48c0-7.115 3.565-13.404 8.995-17.205l3.031 5.251C35.388 38.783 33 43.096 33 48s2.388 9.217 6.026 11.954l-3.031 5.251C30.565 61.404 27 55.115 27 48m17.464 14.536c1.139.276 2.311.464 3.536.464 7.257 0 13.308-5.153 14.697-12h6.063C67.297 61.159 58.559 69 48 69a20.9 20.9 0 0 1-6.638-1.092zM42 48a6 6 0 1 1 12 0 6 6 0 0 1-12 0m20.697-3c-1.39-6.847-7.44-12-14.697-12-1.225 0-2.397.188-3.536.464l-3.102-5.372A20.9 20.9 0 0 1 48 27c10.559 0 19.297 7.84 20.761 18zM15 48c0-11.57 5.967-21.734 14.979-27.625l2.998 5.192C25.755 30.413 21 38.649 21 48s4.755 17.588 11.977 22.434l-2.998 5.191C20.967 69.734 15 59.57 15 48m33 33c-4.511 0-8.809-.91-12.725-2.549l3.043-5.27A26.9 26.9 0 0 0 48 75c13.896 0 25.33-10.502 26.824-24h6.024C79.331 67.817 65.213 81 48 81" style="animation:spinning-cog4416 1.3s infinite ease;transform-origin:50% 50%"/></svg>