<!--Generator: Adobe Illustrator 16.0.0, SVG Export Plug-In . SVG Version: 6.00 Build 0)--><svg xmlns="http://www.w3.org/2000/svg" xml:space="preserve" id="cog12" x="0" y="0" viewBox="0 0 96 96"><style>@keyframes spinning-cog4423{0%{transform:rotate(0deg)}to{transform:rotate(360deg)}}</style><path fill="currentColor" d="M89.284 56.138S86.277 54.489 86.277 48c0-6.487 3.007-8.139 3.007-8.139 4.465-2.45 7.423-6.547 6.569-9.104-.852-2.556-8.015-7.62-12.906-6.195 0 0-3.293.96-7.882-3.627-4.588-4.588-3.629-7.882-3.629-7.882 1.426-4.892.646-9.872-1.731-11.067C67.328.792 58.59 2.25 56.138 6.717c0 0-1.649 3.008-8.138 3.008-6.487 0-8.139-3.008-8.139-3.008-2.45-4.467-6.547-7.423-9.104-6.571-2.555.854-7.619 8.016-6.194 12.908 0 0 .96 3.294-3.628 7.882s-7.882 3.627-7.882 3.627c-4.892-1.425-9.872-.646-11.067 1.732s.264 11.116 4.73 13.566c0 0 3.008 1.651 3.008 8.139s-3.008 8.138-3.008 8.138C2.25 58.59-.707 62.687.146 65.243s8.016 7.619 12.907 6.193c0 0 3.294-.959 7.882 3.629 4.588 4.589 3.628 7.882 3.628 7.882-1.426 4.892-.647 9.871 1.731 11.066s11.116-.265 13.566-4.729c0 0 1.651-3.007 8.139-3.007s8.138 3.007 8.138 3.007c2.452 4.465 6.549 7.423 9.105 6.57s7.619-8.016 6.193-12.907c0 0-.959-3.293 3.629-7.882 4.589-4.588 7.882-3.629 7.882-3.629 4.892 1.426 9.871.646 11.066-1.729 1.197-2.38-.263-11.117-4.728-13.569M48 66.527c-10.231 0-18.526-8.296-18.526-18.527S37.769 29.474 48 29.474 66.527 37.768 66.527 48 58.231 66.527 48 66.527" style="animation:spinning-cog4423 1.3s infinite ease;transform-origin:50% 50%"/></svg>