<?plantuml 1.2026.0?><svg xmlns="http://www.w3.org/2000/svg" xmlns:xlink="http://www.w3.org/1999/xlink" contentStyleType="text/css" data-diagram-type="ACTIVITY" height="2083px" preserveAspectRatio="none" style="width:534px;height:2083px;background:#FFFFFF;" version="1.1" viewBox="0 0 534 2083" width="534px" zoomAndPan="magnify"><defs/><g><ellipse cx="260.4295" cy="20" fill="#222222" rx="10" ry="10" style="stroke:#222222;stroke-width:1;"/><rect fill="#FFFFE0" height="143.7561" style="stroke:#000000;stroke-width:1.5;" width="393.1026" x="63.8782" y="40"/><path d="M146.9159,40 L146.9159,52.0679 L136.9159,62.0679 L63.8782,62.0679" fill="none" style="stroke:#000000;stroke-width:1.5;"/><text fill="#000000" font-family="sans-serif" font-size="14" lengthAdjust="spacing" textLength="73.0377" x="66.8782" y="55.9659">Preprocess</text><rect fill="#F1F1F1" height="36.3441" rx="12.5" ry="12.5" style="stroke:#181818;stroke-width:0.5;" width="289.2699" x="115.7946" y="79.0679"/><text fill="#000000" font-family="sans-serif" font-size="12" lengthAdjust="spacing" textLength="269.2699" x="125.7946" y="101.896">Extract name of ASDM from downloaded tarball</text><rect fill="#F1F1F1" height="36.3441" rx="12.5" ry="12.5" style="stroke:#181818;stroke-width:0.5;" width="373.1026" x="73.8782" y="135.412"/><text fill="#000000" font-family="sans-serif" font-size="12" lengthAdjust="spacing" textLength="353.1026" x="83.8782" y="158.2401">Create working directory for the ASDM. If exists, remove it first</text><rect fill="#FFFFE0" height="87.412" style="stroke:#000000;stroke-width:1.5;" width="283.6377" x="118.6106" y="193.7561"/><path d="M217.4543,193.7561 L217.4543,205.8241 L207.4543,215.8241 L118.6106,215.8241" fill="none" style="stroke:#000000;stroke-width:1.5;"/><text fill="#000000" font-family="sans-serif" font-size="14" lengthAdjust="spacing" textLength="88.8437" x="121.6106" y="209.7221">Extract ASDM</text><rect fill="#F1F1F1" height="36.3441" rx="12.5" ry="12.5" style="stroke:#181818;stroke-width:0.5;" width="263.6377" x="128.6106" y="232.8241"/><text fill="#000000" font-family="sans-serif" font-size="12" lengthAdjust="spacing" textLength="243.6377" x="138.6106" y="255.6522">Extract ASDM tarball into working directory</text><rect fill="#FFFFE0" height="1739.7144" style="stroke:#000000;stroke-width:1.5;" width="512.859" x="11" y="291.1682"/><path d="M114.9397,291.1682 L114.9397,303.2361 L104.9397,313.2361 L11,313.2361" fill="none" style="stroke:#000000;stroke-width:1.5;"/><text fill="#000000" font-family="sans-serif" font-size="14" lengthAdjust="spacing" textLength="93.9397" x="14" y="307.1341">Process ASDM</text><rect fill="#F1F1F1" height="36.3441" rx="12.5" ry="12.5" style="stroke:#181818;stroke-width:0.5;" width="256.8937" x="131.9827" y="330.2361"/><text fill="#000000" font-family="sans-serif" font-size="12" lengthAdjust="spacing" textLength="236.8937" x="141.9827" y="353.0642">Import ASDM into MS and get field names</text><rect fill="#F1F1F1" height="36.3441" rx="12.5" ry="12.5" style="stroke:#181818;stroke-width:0.5;" width="164.601" x="178.129" y="436.0712"/><text fill="#000000" font-family="sans-serif" font-size="12" lengthAdjust="spacing" textLength="144.601" x="188.129" y="458.8992">Record retain field names</text><polygon fill="#F1F1F1" points="201.5799,386.5802,319.2791,386.5802,331.2791,398.5802,319.2791,410.5802,201.5799,410.5802,189.5799,398.5802,201.5799,386.5802" style="stroke:#181818;stroke-width:0.5;"/><text fill="#000000" font-family="sans-serif" font-size="11" lengthAdjust="spacing" textLength="17.0829" x="264.4295" y="422.3391">yes</text><text fill="#000000" font-family="sans-serif" font-size="11" lengthAdjust="spacing" textLength="117.6992" x="201.5799" y="402.8482">User's target contains?</text><text fill="#000000" font-family="sans-serif" font-size="11" lengthAdjust="spacing" textLength="13.4529" x="331.2791" y="395.3572">no</text><ellipse cx="366.732" cy="398.5802" fill="none" rx="11" ry="11" style="stroke:#222222;stroke-width:1;"/><ellipse cx="366.732" cy="398.5802" fill="#222222" rx="6" ry="6" style="stroke:#222222;stroke-width:1;"/><rect fill="#F1F1F1" height="36.3441" rx="12.5" ry="12.5" style="stroke:#181818;stroke-width:0.5;" width="154.509" x="183.175" y="492.4153"/><text fill="#000000" font-family="sans-serif" font-size="12" lengthAdjust="spacing" textLength="134.509" x="193.175" y="515.2434">Create calibration script</text><rect fill="#F1F1F1" height="36.3441" rx="12.5" ry="12.5" style="stroke:#181818;stroke-width:0.5;" width="139.6648" x="190.5971" y="548.7594"/><text fill="#000000" font-family="sans-serif" font-size="12" lengthAdjust="spacing" textLength="119.6648" x="200.5971" y="571.5875">Run calibration script</text><rect fill="#F1F1F1" height="36.3441" rx="12.5" ry="12.5" style="stroke:#181818;stroke-width:0.5;" width="239.0976" x="140.8807" y="605.1035"/><text fill="#000000" font-family="sans-serif" font-size="12" lengthAdjust="spacing" textLength="219.0976" x="150.8807" y="627.9316">Extract user's target fields into new MS</text><rect fill="#FFE4B5" height="207.7561" style="stroke:#000000;stroke-width:1.5;" width="394.6328" x="50.855" y="708.7065"/><path d="M116.0288,708.7065 L116.0288,720.7744 L106.0288,730.7744 L50.855,730.7744" fill="none" style="stroke:#000000;stroke-width:1.5;"/><text fill="#000000" font-family="sans-serif" font-size="14" lengthAdjust="spacing" textLength="55.1738" x="53.855" y="724.6725">Imaging</text><polygon fill="#F1F1F1" points="181.5876,747.7744,339.2715,747.7744,351.2715,759.7744,339.2715,771.7744,181.5876,771.7744,169.5876,759.7744,181.5876,747.7744" style="stroke:#181818;stroke-width:0.5;"/><text fill="#000000" font-family="sans-serif" font-size="11" lengthAdjust="spacing" textLength="157.6839" x="181.5876" y="764.0424">Required self-calibration later?</text><text fill="#000000" font-family="sans-serif" font-size="11" lengthAdjust="spacing" textLength="17.0829" x="152.5047" y="756.5515">yes</text><text fill="#000000" font-family="sans-serif" font-size="11" lengthAdjust="spacing" textLength="13.4529" x="351.2715" y="756.5515">no</text><rect fill="#F1F1F1" height="36.3441" rx="12.5" ry="12.5" style="stroke:#181818;stroke-width:0.5;" width="177.4651" x="70.855" y="781.7744"/><text fill="#000000" font-family="sans-serif" font-size="12" lengthAdjust="spacing" textLength="157.4651" x="80.855" y="804.6025">savemodel = 'modelcolumn'</text><rect fill="#F1F1F1" height="36.3441" rx="12.5" ry="12.5" style="stroke:#181818;stroke-width:0.5;" width="128.4328" x="297.0551" y="781.7744"/><text fill="#000000" font-family="sans-serif" font-size="12" lengthAdjust="spacing" textLength="108.4328" x="307.0551" y="804.6025">savemodel = 'none'</text><polygon fill="#F1F1F1" points="260.4295,824.1186,272.4295,836.1186,260.4295,848.1186,248.4295,836.1186,260.4295,824.1186" style="stroke:#181818;stroke-width:0.5;"/><rect fill="#F1F1F1" height="36.3441" rx="12.5" ry="12.5" style="stroke:#181818;stroke-width:0.5;" width="79.5204" x="220.6693" y="868.1186"/><text fill="#000000" font-family="sans-serif" font-size="12" lengthAdjust="spacing" textLength="59.5204" x="230.6693" y="890.9466">Run tclean</text><polygon fill="#F1F1F1" points="211.9034,661.4476,308.9557,661.4476,320.9557,673.4476,308.9557,685.4476,211.9034,685.4476,199.9034,673.4476,211.9034,661.4476" style="stroke:#181818;stroke-width:0.5;"/><text fill="#000000" font-family="sans-serif" font-size="11" lengthAdjust="spacing" textLength="17.0829" x="264.4295" y="697.2065">yes</text><text fill="#000000" font-family="sans-serif" font-size="11" lengthAdjust="spacing" textLength="97.0523" x="211.9034" y="677.7156">Required imaging?</text><text fill="#000000" font-family="sans-serif" font-size="11" lengthAdjust="spacing" textLength="13.4529" x="320.9557" y="670.2246">no</text><polygon fill="#F1F1F1" points="260.4295,936.4627,272.4295,948.4627,260.4295,960.4627,248.4295,948.4627,260.4295,936.4627" style="stroke:#181818;stroke-width:0.5;"/><rect fill="#FFE4B5" height="87.412" style="stroke:#000000;stroke-width:1.5;" width="290.7029" x="115.078" y="1029.3236"/><path d="M395.781,1029.3236 L395.781,1041.3915 L385.781,1051.3915 L115.078,1051.3915" fill="none" style="stroke:#000000;stroke-width:1.5;"/><text fill="#000000" font-family="sans-serif" font-size="14" lengthAdjust="spacing" textLength="270.7029" x="118.078" y="1045.2895">Self-calibration and generate 2nd images</text><rect fill="#F1F1F1" height="36.3441" rx="12.5" ry="12.5" style="stroke:#181818;stroke-width:0.5;" width="153.129" x="183.865" y="1068.3915"/><text fill="#000000" font-family="sans-serif" font-size="12" lengthAdjust="spacing" textLength="133.129" x="193.865" y="1091.2196">Perform self-calibration</text><polygon fill="#F1F1F1" points="194.881,980.4627,325.978,980.4627,337.978,992.4627,325.978,1004.4627,194.881,1004.4627,182.881,992.4627,194.881,980.4627" style="stroke:#181818;stroke-width:0.5;"/><text fill="#000000" font-family="sans-serif" font-size="11" lengthAdjust="spacing" textLength="17.0829" x="264.4295" y="1016.2216">yes</text><text fill="#000000" font-family="sans-serif" font-size="11" lengthAdjust="spacing" textLength="131.0971" x="194.881" y="996.7306">Required self-calibration?</text><text fill="#000000" font-family="sans-serif" font-size="11" lengthAdjust="spacing" textLength="13.4529" x="337.978" y="989.2397">no</text><polygon fill="#F1F1F1" points="260.4295,1136.7356,272.4295,1148.7356,260.4295,1160.7356,248.4295,1148.7356,260.4295,1136.7356" style="stroke:#181818;stroke-width:0.5;"/><rect fill="#FFE4B5" height="237.2471" style="stroke:#000000;stroke-width:1.5;" width="307.2073" x="117.3259" y="1170.7356"/><path d="M270.1254,1170.7356 L270.1254,1182.8035 L260.1254,1192.8035 L117.3259,1192.8035" fill="none" style="stroke:#000000;stroke-width:1.5;"/><text fill="#000000" font-family="sans-serif" font-size="14" lengthAdjust="spacing" textLength="142.7995" x="120.3259" y="1186.7015">Export images to FITS</text><rect fill="#F1F1F1" height="36.3441" rx="12.5" ry="12.5" style="stroke:#181818;stroke-width:0.5;" width="184.1492" x="168.3549" y="1209.8035"/><text fill="#000000" font-family="sans-serif" font-size="12" lengthAdjust="spacing" textLength="164.1492" x="178.3549" y="1232.6316">Export images to FITS format</text><rect fill="#F1F1F1" height="36.3441" rx="12.5" ry="12.5" style="stroke:#181818;stroke-width:0.5;" width="142.2689" x="189.2951" y="1315.6386"/><text fill="#000000" font-family="sans-serif" font-size="12" lengthAdjust="spacing" textLength="122.2689" x="199.2951" y="1338.4667">Remove CASA images</text><polygon fill="#F1F1F1" points="139.3259,1266.1476,381.5331,1266.1476,393.5331,1278.1476,381.5331,1290.1476,139.3259,1290.1476,127.3259,1278.1476,139.3259,1266.1476" style="stroke:#181818;stroke-width:0.5;"/><text fill="#000000" font-family="sans-serif" font-size="11" lengthAdjust="spacing" textLength="17.0829" x="264.4295" y="1301.9065">yes</text><text fill="#000000" font-family="sans-serif" font-size="11" lengthAdjust="spacing" textLength="242.2073" x="139.3259" y="1282.4156">Required to remove CASA images after export?</text><text fill="#000000" font-family="sans-serif" font-size="11" lengthAdjust="spacing" textLength="13.4529" x="393.5331" y="1274.9246">no</text><polygon fill="#F1F1F1" points="260.4295,1371.9827,272.4295,1383.9827,260.4295,1395.9827,248.4295,1383.9827,260.4295,1371.9827" style="stroke:#181818;stroke-width:0.5;"/><rect fill="#FFE4B5" height="330.738" style="stroke:#000000;stroke-width:1.5;" width="492.859" x="21" y="1417.9827"/><path d="M85.1238,1417.9827 L85.1238,1430.0506 L75.1238,1440.0506 L21,1440.0506" fill="none" style="stroke:#000000;stroke-width:1.5;"/><text fill="#000000" font-family="sans-serif" font-size="14" lengthAdjust="spacing" textLength="54.1238" x="24" y="1433.9486">Cleanup</text><rect fill="#F1F1F1" height="36.3441" rx="12.5" ry="12.5" style="stroke:#181818;stroke-width:0.5;" width="205.4133" x="157.7228" y="1506.5415"/><text fill="#000000" font-family="sans-serif" font-size="12" lengthAdjust="spacing" textLength="185.4133" x="167.7228" y="1529.3696">Remove ASDM working directory</text><polygon fill="#F1F1F1" points="189.6835,1457.0506,331.1755,1457.0506,343.1755,1469.0506,331.1755,1481.0506,189.6835,1481.0506,177.6835,1469.0506,189.6835,1457.0506" style="stroke:#181818;stroke-width:0.5;"/><text fill="#000000" font-family="sans-serif" font-size="11" lengthAdjust="spacing" textLength="17.0829" x="264.4295" y="1492.8095">yes</text><text fill="#000000" font-family="sans-serif" font-size="11" lengthAdjust="spacing" textLength="141.492" x="189.6835" y="1473.3186">Required to remove ASDM?</text><text fill="#000000" font-family="sans-serif" font-size="11" lengthAdjust="spacing" textLength="13.4529" x="343.1755" y="1465.8276">no</text><polygon fill="#F1F1F1" points="260.4295,1562.8857,272.4295,1574.8857,260.4295,1586.8857,248.4295,1574.8857,260.4295,1562.8857" style="stroke:#181818;stroke-width:0.5;"/><rect fill="#F1F1F1" height="36.3441" rx="12.5" ry="12.5" style="stroke:#181818;stroke-width:0.5;" width="454.859" x="33" y="1656.3766"/><text fill="#000000" font-family="sans-serif" font-size="12" lengthAdjust="spacing" textLength="434.859" x="43" y="1679.2047">Remove intermediate files. Only keep images dirs, MS and *.py and *.log files</text><polygon fill="#F1F1F1" points="159.9287,1606.8857,360.9303,1606.8857,372.9303,1618.8857,360.9303,1630.8857,159.9287,1630.8857,147.9287,1618.8857,159.9287,1606.8857" style="stroke:#181818;stroke-width:0.5;"/><text fill="#000000" font-family="sans-serif" font-size="11" lengthAdjust="spacing" textLength="17.0829" x="264.4295" y="1642.6446">yes</text><text fill="#000000" font-family="sans-serif" font-size="11" lengthAdjust="spacing" textLength="201.0016" x="159.9287" y="1623.1536">Required to remove intermediate files?</text><text fill="#000000" font-family="sans-serif" font-size="11" lengthAdjust="spacing" textLength="13.4529" x="372.9303" y="1615.6627">no</text><polygon fill="#F1F1F1" points="260.4295,1712.7207,272.4295,1724.7207,260.4295,1736.7207,248.4295,1724.7207,260.4295,1712.7207" style="stroke:#181818;stroke-width:0.5;"/><rect fill="#FFE4B5" height="260.1619" style="stroke:#000000;stroke-width:1.5;" width="279.6612" x="125.0989" y="1758.7207"/><path d="M228.4365,1758.7207 L228.4365,1770.7886 L218.4365,1780.7886 L125.0989,1780.7886" fill="none" style="stroke:#000000;stroke-width:1.5;"/><text fill="#000000" font-family="sans-serif" font-size="14" lengthAdjust="spacing" textLength="93.3376" x="128.0989" y="1774.6866">Check success</text><rect fill="#F1F1F1" height="36.3441" rx="12.5" ry="12.5" style="stroke:#181818;stroke-width:0.5;" width="182.6612" x="169.0989" y="1904.5385"/><text fill="#000000" font-family="sans-serif" font-size="12" lengthAdjust="spacing" textLength="162.6612" x="179.0989" y="1927.3666">Mark ASDM process as failed</text><polygon fill="#F1F1F1" points="189.865,1855.0475,330.994,1855.0475,342.994,1867.0475,330.994,1879.0475,189.865,1879.0475,177.865,1867.0475,189.865,1855.0475" style="stroke:#181818;stroke-width:0.5;"/><text fill="#000000" font-family="sans-serif" font-size="11" lengthAdjust="spacing" textLength="17.0829" x="264.4295" y="1890.8065">yes</text><text fill="#000000" font-family="sans-serif" font-size="11" lengthAdjust="spacing" textLength="141.129" x="189.865" y="1871.3155">log files contains "SEVERE"?</text><text fill="#000000" font-family="sans-serif" font-size="11" lengthAdjust="spacing" textLength="13.4529" x="342.994" y="1863.8246">no</text><polygon fill="#F1F1F1" points="260.4295,1960.8826,272.4295,1972.8826,260.4295,1984.8826,248.4295,1972.8826,260.4295,1960.8826" style="stroke:#181818;stroke-width:0.5;"/><polygon fill="#F1F1F1" points="222.7438,1797.7886,298.1152,1797.7886,310.1152,1809.7886,298.1152,1821.7886,222.7438,1821.7886,210.7438,1809.7886,222.7438,1797.7886" style="stroke:#181818;stroke-width:0.5;"/><text fill="#000000" font-family="sans-serif" font-size="11" lengthAdjust="spacing" textLength="17.0829" x="264.4295" y="1833.5475">yes</text><text fill="#000000" font-family="sans-serif" font-size="11" lengthAdjust="spacing" textLength="75.3715" x="222.7438" y="1814.0566">more log files?</text><ellipse cx="260.4295" cy="2061.8826" fill="none" rx="11" ry="11" style="stroke:#222222;stroke-width:1;"/><ellipse cx="260.4295" cy="2061.8826" fill="#222222" rx="6" ry="6" style="stroke:#222222;stroke-width:1;"/><line style="stroke:#181818;stroke-width:1;" x1="260.4295" x2="260.4295" y1="115.412" y2="135.412"/><polygon fill="#181818" points="256.4295,125.412,260.4295,135.412,264.4295,125.412,260.4295,129.412" style="stroke:#181818;stroke-width:1;"/><line style="stroke:#181818;stroke-width:1;" x1="260.4295" x2="260.4295" y1="30" y2="79.0679"/><polygon fill="#181818" points="256.4295,69.0679,260.4295,79.0679,264.4295,69.0679,260.4295,73.0679" style="stroke:#181818;stroke-width:1;"/><line style="stroke:#181818;stroke-width:1;" x1="260.4295" x2="260.4295" y1="171.7561" y2="232.8241"/><polygon fill="#181818" points="256.4295,222.8241,260.4295,232.8241,264.4295,222.8241,260.4295,226.8241" style="stroke:#181818;stroke-width:1;"/><line style="stroke:#181818;stroke-width:1;" x1="260.4295" x2="260.4295" y1="410.5802" y2="436.0712"/><polygon fill="#181818" points="256.4295,426.0712,260.4295,436.0712,264.4295,426.0712,260.4295,430.0712" style="stroke:#181818;stroke-width:1;"/><line style="stroke:#181818;stroke-width:1;" x1="331.2791" x2="355.732" y1="398.5802" y2="398.5802"/><polygon fill="#181818" points="345.732,394.5802,355.732,398.5802,345.732,402.5802,349.732,398.5802" style="stroke:#181818;stroke-width:1;"/><line style="stroke:#181818;stroke-width:1;" x1="260.4295" x2="260.4295" y1="472.4153" y2="492.4153"/><polygon fill="#181818" points="256.4295,482.4153,260.4295,492.4153,264.4295,482.4153,260.4295,486.4153" style="stroke:#181818;stroke-width:1;"/><line style="stroke:#181818;stroke-width:1;" x1="260.4295" x2="260.4295" y1="366.5802" y2="386.5802"/><polygon fill="#181818" points="256.4295,376.5802,260.4295,386.5802,264.4295,376.5802,260.4295,380.5802" style="stroke:#181818;stroke-width:1;"/><line style="stroke:#181818;stroke-width:1;" x1="260.4295" x2="260.4295" y1="528.7594" y2="548.7594"/><polygon fill="#181818" points="256.4295,538.7594,260.4295,548.7594,264.4295,538.7594,260.4295,542.7594" style="stroke:#181818;stroke-width:1;"/><line style="stroke:#181818;stroke-width:1;" x1="260.4295" x2="260.4295" y1="585.1035" y2="605.1035"/><polygon fill="#181818" points="256.4295,595.1035,260.4295,605.1035,264.4295,595.1035,260.4295,599.1035" style="stroke:#181818;stroke-width:1;"/><line style="stroke:#181818;stroke-width:1;" x1="169.5876" x2="159.5876" y1="759.7744" y2="759.7744"/><line style="stroke:#181818;stroke-width:1;" x1="159.5876" x2="159.5876" y1="759.7744" y2="781.7744"/><polygon fill="#181818" points="155.5876,771.7744,159.5876,781.7744,163.5876,771.7744,159.5876,775.7744" style="stroke:#181818;stroke-width:1;"/><line style="stroke:#181818;stroke-width:1;" x1="351.2715" x2="361.2715" y1="759.7744" y2="759.7744"/><line style="stroke:#181818;stroke-width:1;" x1="361.2715" x2="361.2715" y1="759.7744" y2="781.7744"/><polygon fill="#181818" points="357.2715,771.7744,361.2715,781.7744,365.2715,771.7744,361.2715,775.7744" style="stroke:#181818;stroke-width:1;"/><line style="stroke:#181818;stroke-width:1;" x1="159.5876" x2="159.5876" y1="818.1186" y2="836.1186"/><line style="stroke:#181818;stroke-width:1;" x1="159.5876" x2="248.4295" y1="836.1186" y2="836.1186"/><polygon fill="#181818" points="238.4295,832.1186,248.4295,836.1186,238.4295,840.1186,242.4295,836.1186" style="stroke:#181818;stroke-width:1;"/><line style="stroke:#181818;stroke-width:1;" x1="361.2715" x2="361.2715" y1="818.1186" y2="836.1186"/><line style="stroke:#181818;stroke-width:1;" x1="361.2715" x2="272.4295" y1="836.1186" y2="836.1186"/><polygon fill="#181818" points="282.4295,832.1186,272.4295,836.1186,282.4295,840.1186,278.4295,836.1186" style="stroke:#181818;stroke-width:1;"/><line style="stroke:#181818;stroke-width:1;" x1="260.4295" x2="260.4295" y1="848.1186" y2="868.1186"/><polygon fill="#181818" points="256.4295,858.1186,260.4295,868.1186,264.4295,858.1186,260.4295,862.1186" style="stroke:#181818;stroke-width:1;"/><line style="stroke:#181818;stroke-width:1;" x1="260.4295" x2="260.4295" y1="685.4476" y2="747.7744"/><polygon fill="#181818" points="256.4295,737.7744,260.4295,747.7744,264.4295,737.7744,260.4295,741.7744" style="stroke:#181818;stroke-width:1;"/><line style="stroke:#181818;stroke-width:1;" x1="320.9557" x2="455.4878" y1="673.4476" y2="673.4476"/><polygon fill="#181818" points="451.4878,814.0846,455.4878,824.0846,459.4878,814.0846,455.4878,818.0846" style="stroke:#181818;stroke-width:1;"/><line style="stroke:#181818;stroke-width:1;" x1="455.4878" x2="455.4878" y1="673.4476" y2="948.4627"/><line style="stroke:#181818;stroke-width:1;" x1="455.4878" x2="272.4295" y1="948.4627" y2="948.4627"/><polygon fill="#181818" points="282.4295,944.4627,272.4295,948.4627,282.4295,952.4627,278.4295,948.4627" style="stroke:#181818;stroke-width:1;"/><line style="stroke:#181818;stroke-width:1;" x1="260.4295" x2="260.4295" y1="904.4627" y2="936.4627"/><polygon fill="#181818" points="256.4295,926.4627,260.4295,936.4627,264.4295,926.4627,260.4295,930.4627" style="stroke:#181818;stroke-width:1;"/><line style="stroke:#181818;stroke-width:1;" x1="260.4295" x2="260.4295" y1="641.4476" y2="661.4476"/><polygon fill="#181818" points="256.4295,651.4476,260.4295,661.4476,264.4295,651.4476,260.4295,655.4476" style="stroke:#181818;stroke-width:1;"/><line style="stroke:#181818;stroke-width:1;" x1="260.4295" x2="260.4295" y1="1004.4627" y2="1068.3915"/><polygon fill="#181818" points="256.4295,1058.3915,260.4295,1068.3915,264.4295,1058.3915,260.4295,1062.3915" style="stroke:#181818;stroke-width:1;"/><line style="stroke:#181818;stroke-width:1;" x1="337.978" x2="415.781" y1="992.4627" y2="992.4627"/><polygon fill="#181818" points="411.781,1067.0296,415.781,1077.0296,419.781,1067.0296,415.781,1071.0296" style="stroke:#181818;stroke-width:1;"/><line style="stroke:#181818;stroke-width:1;" x1="415.781" x2="415.781" y1="992.4627" y2="1148.7356"/><line style="stroke:#181818;stroke-width:1;" x1="415.781" x2="272.4295" y1="1148.7356" y2="1148.7356"/><polygon fill="#181818" points="282.4295,1144.7356,272.4295,1148.7356,282.4295,1152.7356,278.4295,1148.7356" style="stroke:#181818;stroke-width:1;"/><line style="stroke:#181818;stroke-width:1;" x1="260.4295" x2="260.4295" y1="1104.7356" y2="1136.7356"/><polygon fill="#181818" points="256.4295,1126.7356,260.4295,1136.7356,264.4295,1126.7356,260.4295,1130.7356" style="stroke:#181818;stroke-width:1;"/><line style="stroke:#181818;stroke-width:1;" x1="260.4295" x2="260.4295" y1="960.4627" y2="980.4627"/><polygon fill="#181818" points="256.4295,970.4627,260.4295,980.4627,264.4295,970.4627,260.4295,974.4627" style="stroke:#181818;stroke-width:1;"/><line style="stroke:#181818;stroke-width:1;" x1="260.4295" x2="260.4295" y1="1290.1476" y2="1315.6386"/><polygon fill="#181818" points="256.4295,1305.6386,260.4295,1315.6386,264.4295,1305.6386,260.4295,1309.6386" style="stroke:#181818;stroke-width:1;"/><line style="stroke:#181818;stroke-width:1;" x1="393.5331" x2="405.5331" y1="1278.1476" y2="1278.1476"/><polygon fill="#181818" points="401.5331,1323.8106,405.5331,1333.8106,409.5331,1323.8106,405.5331,1327.8106" style="stroke:#181818;stroke-width:1;"/><line style="stroke:#181818;stroke-width:1;" x1="405.5331" x2="405.5331" y1="1278.1476" y2="1383.9827"/><line style="stroke:#181818;stroke-width:1;" x1="405.5331" x2="272.4295" y1="1383.9827" y2="1383.9827"/><polygon fill="#181818" points="282.4295,1379.9827,272.4295,1383.9827,282.4295,1387.9827,278.4295,1383.9827" style="stroke:#181818;stroke-width:1;"/><line style="stroke:#181818;stroke-width:1;" x1="260.4295" x2="260.4295" y1="1351.9827" y2="1371.9827"/><polygon fill="#181818" points="256.4295,1361.9827,260.4295,1371.9827,264.4295,1361.9827,260.4295,1365.9827" style="stroke:#181818;stroke-width:1;"/><line style="stroke:#181818;stroke-width:1;" x1="260.4295" x2="260.4295" y1="1246.1476" y2="1266.1476"/><polygon fill="#181818" points="256.4295,1256.1476,260.4295,1266.1476,264.4295,1256.1476,260.4295,1260.1476" style="stroke:#181818;stroke-width:1;"/><line style="stroke:#181818;stroke-width:1;" x1="260.4295" x2="260.4295" y1="1160.7356" y2="1209.8035"/><polygon fill="#181818" points="256.4295,1199.8035,260.4295,1209.8035,264.4295,1199.8035,260.4295,1203.8035" style="stroke:#181818;stroke-width:1;"/><line style="stroke:#181818;stroke-width:1;" x1="260.4295" x2="260.4295" y1="1481.0506" y2="1506.5415"/><polygon fill="#181818" points="256.4295,1496.5415,260.4295,1506.5415,264.4295,1496.5415,260.4295,1500.5415" style="stroke:#181818;stroke-width:1;"/><line style="stroke:#181818;stroke-width:1;" x1="343.1755" x2="373.1362" y1="1469.0506" y2="1469.0506"/><polygon fill="#181818" points="369.1362,1514.7136,373.1362,1524.7136,377.1362,1514.7136,373.1362,1518.7136" style="stroke:#181818;stroke-width:1;"/><line style="stroke:#181818;stroke-width:1;" x1="373.1362" x2="373.1362" y1="1469.0506" y2="1574.8857"/><line style="stroke:#181818;stroke-width:1;" x1="373.1362" x2="272.4295" y1="1574.8857" y2="1574.8857"/><polygon fill="#181818" points="282.4295,1570.8857,272.4295,1574.8857,282.4295,1578.8857,278.4295,1574.8857" style="stroke:#181818;stroke-width:1;"/><line style="stroke:#181818;stroke-width:1;" x1="260.4295" x2="260.4295" y1="1542.8857" y2="1562.8857"/><polygon fill="#181818" points="256.4295,1552.8857,260.4295,1562.8857,264.4295,1552.8857,260.4295,1556.8857" style="stroke:#181818;stroke-width:1;"/><line style="stroke:#181818;stroke-width:1;" x1="260.4295" x2="260.4295" y1="1630.8857" y2="1656.3766"/><polygon fill="#181818" points="256.4295,1646.3766,260.4295,1656.3766,264.4295,1646.3766,260.4295,1650.3766" style="stroke:#181818;stroke-width:1;"/><line style="stroke:#181818;stroke-width:1;" x1="372.9303" x2="497.859" y1="1618.8857" y2="1618.8857"/><polygon fill="#181818" points="493.859,1664.5487,497.859,1674.5487,501.859,1664.5487,497.859,1668.5487" style="stroke:#181818;stroke-width:1;"/><line style="stroke:#181818;stroke-width:1;" x1="497.859" x2="497.859" y1="1618.8857" y2="1724.7207"/><line style="stroke:#181818;stroke-width:1;" x1="497.859" x2="272.4295" y1="1724.7207" y2="1724.7207"/><polygon fill="#181818" points="282.4295,1720.7207,272.4295,1724.7207,282.4295,1728.7207,278.4295,1724.7207" style="stroke:#181818;stroke-width:1;"/><line style="stroke:#181818;stroke-width:1;" x1="260.4295" x2="260.4295" y1="1692.7207" y2="1712.7207"/><polygon fill="#181818" points="256.4295,1702.7207,260.4295,1712.7207,264.4295,1702.7207,260.4295,1706.7207" style="stroke:#181818;stroke-width:1;"/><line style="stroke:#181818;stroke-width:1;" x1="260.4295" x2="260.4295" y1="1586.8857" y2="1606.8857"/><polygon fill="#181818" points="256.4295,1596.8857,260.4295,1606.8857,264.4295,1596.8857,260.4295,1600.8857" style="stroke:#181818;stroke-width:1;"/><line style="stroke:#181818;stroke-width:1;" x1="260.4295" x2="260.4295" y1="1395.9827" y2="1457.0506"/><polygon fill="#181818" points="256.4295,1447.0506,260.4295,1457.0506,264.4295,1447.0506,260.4295,1451.0506" style="stroke:#181818;stroke-width:1;"/><line style="stroke:#181818;stroke-width:1;" x1="260.4295" x2="260.4295" y1="1879.0475" y2="1904.5385"/><polygon fill="#181818" points="256.4295,1894.5385,260.4295,1904.5385,264.4295,1894.5385,260.4295,1898.5385" style="stroke:#181818;stroke-width:1;"/><line style="stroke:#181818;stroke-width:1;" x1="342.994" x2="361.7601" y1="1867.0475" y2="1867.0475"/><polygon fill="#181818" points="357.7601,1912.7105,361.7601,1922.7105,365.7601,1912.7105,361.7601,1916.7105" style="stroke:#181818;stroke-width:1;"/><line style="stroke:#181818;stroke-width:1;" x1="361.7601" x2="361.7601" y1="1867.0475" y2="1972.8826"/><line style="stroke:#181818;stroke-width:1;" x1="361.7601" x2="272.4295" y1="1972.8826" y2="1972.8826"/><polygon fill="#181818" points="282.4295,1968.8826,272.4295,1972.8826,282.4295,1976.8826,278.4295,1972.8826" style="stroke:#181818;stroke-width:1;"/><line style="stroke:#181818;stroke-width:1;" x1="260.4295" x2="260.4295" y1="1940.8826" y2="1960.8826"/><polygon fill="#181818" points="256.4295,1950.8826,260.4295,1960.8826,264.4295,1950.8826,260.4295,1954.8826" style="stroke:#181818;stroke-width:1;"/><line style="stroke:#181818;stroke-width:1;" x1="260.4295" x2="260.4295" y1="1821.7886" y2="1855.0475"/><polygon fill="#181818" points="256.4295,1845.0475,260.4295,1855.0475,264.4295,1845.0475,260.4295,1849.0475" style="stroke:#181818;stroke-width:1;"/><line style="stroke:#181818;stroke-width:1;" x1="260.4295" x2="260.4295" y1="1984.8826" y2="1994.8826"/><line style="stroke:#181818;stroke-width:1;" x1="260.4295" x2="385.7601" y1="1994.8826" y2="1994.8826"/><polygon fill="#181818" points="381.7601,1913.2196,385.7601,1903.2196,389.7601,1913.2196,385.7601,1909.2196" style="stroke:#181818;stroke-width:1;"/><line style="stroke:#181818;stroke-width:1;" x1="385.7601" x2="385.7601" y1="1809.7886" y2="1994.8826"/><line style="stroke:#181818;stroke-width:1;" x1="385.7601" x2="310.1152" y1="1809.7886" y2="1809.7886"/><polygon fill="#181818" points="320.1152,1805.7886,310.1152,1809.7886,320.1152,1813.7886,316.1152,1809.7886" style="stroke:#181818;stroke-width:1;"/><line style="stroke:#181818;stroke-width:1;" x1="210.7438" x2="147.0989" y1="1809.7886" y2="1809.7886"/><polygon fill="#181818" points="143.0989,1899.2196,147.0989,1909.2196,151.0989,1899.2196,147.0989,1903.2196" style="stroke:#181818;stroke-width:1;"/><line style="stroke:#181818;stroke-width:1;" x1="147.0989" x2="147.0989" y1="1809.7886" y2="2006.8826"/><line style="stroke:#181818;stroke-width:1;" x1="147.0989" x2="260.4295" y1="2006.8826" y2="2006.8826"/><line style="stroke:#181818;stroke-width:1;" x1="260.4295" x2="260.4295" y1="2006.8826" y2="2050.8826"/><polygon fill="#181818" points="256.4295,2040.8826,260.4295,2050.8826,264.4295,2040.8826,260.4295,2044.8826" style="stroke:#181818;stroke-width:1;"/><line style="stroke:#181818;stroke-width:1;" x1="260.4295" x2="260.4295" y1="1736.7207" y2="1797.7886"/><polygon fill="#181818" points="256.4295,1787.7886,260.4295,1797.7886,264.4295,1787.7886,260.4295,1791.7886" style="stroke:#181818;stroke-width:1;"/><line style="stroke:#181818;stroke-width:1;" x1="260.4295" x2="260.4295" y1="269.1682" y2="330.2361"/><polygon fill="#181818" points="256.4295,320.2361,260.4295,330.2361,264.4295,320.2361,260.4295,324.2361" style="stroke:#181818;stroke-width:1;"/><?plantuml-src dLLDZzem4BtpAqRq05kr77e4LHMYL48gAeAsKezUUm8MZftQPbcquhztx8I4aB1PbGC2PJxUUpFpuZoplfVHb_JIQEYlB6RMS7Ik3---o-tE_q6bp15UUa2VyVpPMyOzQ9OYc0IccwzBIAn9GPYZLeO954157vbIapnbPf5vXAEnUwct8AH5xeqzGM8i-1t66YDO983Fqddt0IocvWb1UaYaTNxIErz3l408QQ-3ZE0AC22rDqqGDxLNEVTNQY_IpDYYT2ovt03J0hOOqA8IKHgNSvS937yvj0CNO8GGRhHdKhil3u6wXk49tKECZTNNo8qL9408QjP3vH26sbGPpfiiVwI5J6g2SwRaesMHcEDMPhuOoFgWMn_MnJlKS4SeBcUiyKYiY_X0SOr_3oIe09coBSdRJkvAvaKUHmel3UVC4TUNCgvHrQ5AFbu3LaJFjZSfbNJiYRP8e8BFC8W_k567L0ycjTYcekqLjD5ucregNesFbFLS8TDLwBbbSdbghvDffv2RMsdoLTHemmPyqlb8qDrNUhn2IuUODdg_cK7jDEDnv3s1LkNRukUclVUuDJPuGifyrRic3mKLrZ2RRgQNL9RGDf1tX7Btbu9EwpQpwjBSWcguvmRBMHZm8MldTGTmy8jkSD5LMZog2sTNTpfRj2aA6ROYaGfTDvPcpWX-Q7M2FM9sqPumabyN5lX-b9sA7yfiyvp_rdY7V0_km8jNKOlInnqrW65gB4BPZtX9ry8g25C6bIvC1pJ_FL_F-nrcicHsdm-dU3a2Sv0mgYNUOYTrfw1_4Nh1_DmB7luF?></g></svg>