<?xml version="1.0" encoding="UTF-8" standalone="no"?>
<!-- Created with Inkscape (http://www.inkscape.org/) -->

<svg
   width="142.89507mm"
   height="111.30477mm"
   viewBox="0 0 142.89507 111.30477"
   version="1.1"
   id="svg5"
   xml:space="preserve"
   inkscape:version="1.2.1 (9c6d41e, 2022-07-14)"
   sodipodi:docname="logo.svg"
   inkscape:export-filename="logo.png"
   inkscape:export-xdpi="96"
   inkscape:export-ydpi="96"
   xmlns:inkscape="http://www.inkscape.org/namespaces/inkscape"
   xmlns:sodipodi="http://sodipodi.sourceforge.net/DTD/sodipodi-0.dtd"
   xmlns="http://www.w3.org/2000/svg"
   xmlns:svg="http://www.w3.org/2000/svg"><sodipodi:namedview
     id="namedview7"
     pagecolor="#ffffff"
     bordercolor="#666666"
     borderopacity="1.0"
     inkscape:showpageshadow="2"
     inkscape:pageopacity="0.0"
     inkscape:pagecheckerboard="0"
     inkscape:deskcolor="#d1d1d1"
     inkscape:document-units="mm"
     showgrid="false"
     inkscape:zoom="0.80643879"
     inkscape:cx="257.30409"
     inkscape:cy="541.2686"
     inkscape:window-width="1800"
     inkscape:window-height="1097"
     inkscape:window-x="0"
     inkscape:window-y="44"
     inkscape:window-maximized="0"
     inkscape:current-layer="layer1" /><defs
     id="defs2" /><g
     inkscape:label="Layer 1"
     inkscape:groupmode="layer"
     id="layer1"
     transform="translate(-32.616673,-78.543585)"><g
       id="g4971"
       transform="translate(37.074006,20.669579)"><path
         style="color:#000000;display:inline;fill:#d70000;fill-opacity:1;stroke:none;stroke-opacity:0.732106"
         d="m 75.067592,111.87533 c 1.53523,3.6039 3.54803,8.11727 5.55469,12.54883 3.925,8.66808 7.65639,16.64276 7.82617,17.00586 0.0542,0.23993 0.53043,2.32164 0.54297,3.14258 0.0276,1.80828 -0.75883,2.91105 -0.24609,2.43164 -1.69601,1.58577 -1.12341,1.20357 -2.42774,1.26562 -1.16863,0.0556 -2.49068,0.18653 -2.70117,0.20704 l -18.36134,-0.0488 -18.35937,0.0488 c -0.21036,-0.0205 -1.53443,-0.15146 -2.70313,-0.20704 -1.30422,-0.062 -0.72975,0.32017 -2.42578,-1.26562 0.51274,0.47941 -0.27369,-0.62336 -0.24609,-2.43164 0.0125,-0.81896 0.48475,-2.88578 0.54102,-3.13477 0.16671,-0.35651 3.89952,-8.34194 7.82617,-17.01367 2.00666,-4.43156 4.01946,-8.94493 5.55468,-12.54883 0.76762,-1.80195 1.41554,-3.37325 1.89454,-4.62695 0.2395,-0.62685 0.436,-1.17092 0.59375,-1.66406 3.08885,0.83358 2.12595,0.72387 17.13672,6.29101 z"
         id="path389-7-2"
         sodipodi:nodetypes="cscscscccscscssscc" /><circle
         style="fill:#ffffff;fill-opacity:1;stroke:none;stroke-width:6.78128;stroke-linecap:round;stroke-linejoin:round;stroke-dasharray:none;stroke-opacity:0.732106"
         id="path2045"
         cx="62.490192"
         cy="125.52119"
         r="6" /><circle
         style="fill:#ffffff;fill-opacity:1;stroke:none;stroke-width:4.52085;stroke-linecap:round;stroke-linejoin:round;stroke-dasharray:none;stroke-opacity:0.732106"
         id="path2045-2"
         cx="73.86972"
         cy="137.70099"
         r="4" /><circle
         style="fill:#d70000;fill-opacity:1;stroke:none;stroke-width:4.52085;stroke-linecap:round;stroke-linejoin:round;stroke-dasharray:none;stroke-opacity:0.732106"
         id="path2045-2-8"
         cx="68.067657"
         cy="72.1623"
         r="4" /><circle
         style="fill:#d70000;fill-opacity:1;stroke:none;stroke-width:3.39063;stroke-linecap:round;stroke-linejoin:round;stroke-dasharray:none;stroke-opacity:0.732106"
         id="path2045-2-8-8"
         cx="60.365528"
         cy="64.678368"
         r="3" /><circle
         style="fill:#d70000;fill-opacity:1;stroke:none;stroke-width:2.82553;stroke-linecap:round;stroke-linejoin:round;stroke-dasharray:none;stroke-opacity:0.732106"
         id="path2045-2-8-8-9"
         cx="70.386482"
         cy="60.374001"
         r="2.5" /><path
         style="color:#000000;display:inline;fill:#373737;fill-opacity:1"
         d="m 65.250612,73.127436 c 0,0 -8.391759,0.01367 -9.587888,0.01367 -0.213118,0 -1.25208,-0.221868 -2.824218,0.130859 -0.78607,0.176364 -1.793105,0.59078 -2.605469,1.41602 -0.812364,0.82523 -1.293589,1.95419 -1.462891,3.0039 -0.304317,1.88683 0.804133,3.69293 1.478516,4.40625 0.674383,0.71333 1.00865,1.00267 0.988281,0.97461 0.178808,0.24635 0.298127,0.62416 0.353516,0.78711 -0.0025,0.48397 -0.02215,4.16028 -0.0625,8.62305 -0.042,4.64441 -0.124195,9.695045 -0.177735,10.718755 -0.01105,0.0661 -0.01799,0.13185 -0.05078,0.23437 -0.09346,0.29218 -0.255217,0.74701 -0.466797,1.30079 -0.423158,1.10754 -1.0485,2.62406 -1.796875,4.38085 -1.496749,3.51359 -3.49502,7.99997 -5.490234,12.40625 -3.990428,8.81258 -7.966797,17.31055 -7.966797,17.31055 l -0.126953,0.27344 -0.07813,0.29101 c 0,0 -0.777143,2.4687 -0.816406,5.03907 -0.0432,2.82991 0.133548,5.45619 2.453125,7.625 2.358889,2.20556 5.015783,3.04933 6.853515,3.13672 0.915225,0.0435 2.574219,0.19921 2.574219,0.19921 l 0.171875,0.0156 h 0.171875 l 18.474607,-0.0488 18.648439,0.0488 0.17188,-0.0156 c 0,0 1.65899,-0.15569 2.57421,-0.19921 1.83764,-0.0874 4.49266,-0.93114 6.85157,-3.13672 2.31957,-2.16881 2.49632,-4.79509 2.45312,-7.625 -0.0393,-2.57037 -0.81445,-5.03907 -0.81445,-5.03907 l -0.0781,-0.29101 -0.1289,-0.27344 c 0,0 -3.97442,-8.49797 -7.96485,-17.31055 -1.99521,-4.40628 -3.99543,-8.89266 -5.49218,-12.40625 -0.74838,-1.75679 -1.37177,-3.27331 -1.79493,-4.38085 -0.21158,-0.55378 -0.37333,-1.00861 -0.46679,-1.30079 -0.0333,-0.1042 -0.0418,-0.17235 -0.0527,-0.23828 -0.0535,-1.0264 -0.13575,-6.072125 -0.17773,-10.714845 -0.0404,-4.46277 -0.058,-8.13908 -0.0605,-8.62305 0.0554,-0.16303 0.17278,-0.5408 0.35156,-0.78711 -0.0204,0.0281 0.3139,-0.26129 0.98829,-0.97461 0.67438,-0.71332 1.78478,-2.51942 1.48046,-4.40625 -0.1693,-1.04971 -0.65052,-2.17867 -1.46289,-3.0039 -0.81236,-0.82524 -1.8194,-1.239656 -2.60547,-1.41602 -1.57213,-0.352728 -2.61305,-0.130859 -2.82617,-0.130859 -1.19613,0 -9.587889,-0.01367 -9.587889,-0.01367 h -0.006 z m 0,6.964839 c 0,0 5.06927,0.0102 7.804695,0.0137 -0.695025,1.34308 -1.029305,2.52734 -1.029305,2.52734 l -0.0723,0.35352 0.002,0.36132 c 0,0 0.0214,4.43345 0.0644,9.19727 0.0431,4.76382 0.0857,9.572185 0.19532,11.326175 0.0579,0.9261 0.20944,1.1924 0.36718,1.68555 0.15775,0.49314 0.354265,1.03721 0.593755,1.66406 0.479,1.2537 1.12497,2.825 1.89258,4.62695 1.53523,3.6039 3.54803,8.11727 5.55469,12.54883 3.925,8.66808 7.65639,16.64276 7.82617,17.00586 0.0542,0.23993 0.53043,2.32164 0.54297,3.14258 0.0276,1.80828 -0.75883,2.91105 -0.24609,2.43164 -1.69601,1.58577 -1.12341,1.20357 -2.42774,1.26562 -1.16863,0.0556 -2.49068,0.18653 -2.70117,0.20704 l -18.361335,-0.0488 -18.359373,0.0488 c -0.210361,-0.0205 -1.534433,-0.15146 -2.703125,-0.20704 -1.304224,-0.062 -0.729754,0.32017 -2.425781,-1.26562 0.512739,0.47941 -0.273696,-0.62336 -0.246094,-2.43164 0.01251,-0.81896 0.484752,-2.88578 0.541016,-3.13477 0.166709,-0.35651 3.89952,-8.34194 7.826172,-17.01367 2.006658,-4.43156 4.019465,-8.94493 5.554687,-12.54883 0.767612,-1.80195 1.415533,-3.37325 1.894532,-4.62695 0.239499,-0.62685 0.436006,-1.17092 0.59375,-1.66406 0.157743,-0.49315 0.309307,-0.75945 0.367187,-1.68555 0.109596,-1.75399 0.150284,-6.562355 0.19336,-11.326175 0.04308,-4.76382 0.06641,-9.19727 0.06641,-9.19727 l 0.002,-0.36132 -0.07227,-0.35352 c 0,0 -0.336225,-1.18426 -1.03125,-2.52734 2.731314,-0.003 7.776436,-0.0136 7.792966,-0.0137 z"
         id="path389-7"
         inkscape:label="path389-7" /><circle
         style="fill:#ffffff;fill-opacity:1;stroke:none;stroke-width:3.39063;stroke-linecap:round;stroke-linejoin:round;stroke-dasharray:none;stroke-opacity:0.732106"
         id="path2045-2-3"
         cx="55.978981"
         cy="140.25027"
         r="3" /></g><path
       style="color:#000000;display:inline;fill:#2e9bd9;fill-opacity:1;stroke:none;stroke-opacity:0.732106"
       d="m 154.61844,143.00184 c 1.53523,3.6039 3.54803,8.11727 5.55469,12.54883 3.925,8.66808 7.65639,16.64276 7.82617,17.00586 0.0542,0.23993 0.53043,2.32164 0.54297,3.14258 0.0276,1.80828 -0.75883,2.91105 -0.24609,2.43164 -1.69601,1.58577 -1.12341,1.20357 -2.42774,1.26562 -1.16863,0.0556 -2.49068,0.18653 -2.70117,0.20704 l -18.36134,-0.0488 -18.35937,0.0488 c -0.21036,-0.0205 -1.53443,-0.15146 -2.70313,-0.20704 -1.30422,-0.062 -0.72975,0.32017 -2.42578,-1.26562 0.51274,0.47941 -0.27369,-0.62336 -0.24609,-2.43164 0.0125,-0.81896 0.48475,-2.88578 0.54102,-3.13477 0.16671,-0.35651 3.89952,-8.34194 7.82617,-17.01367 2.00666,-4.43156 4.01946,-8.94493 5.55468,-12.54883 0.76762,-1.80195 1.41554,-3.37325 1.89454,-4.62695 0.2395,-0.62685 0.436,-1.17092 0.59375,-1.66406 3.08885,0.83358 2.12595,0.72387 17.13672,6.29101 z"
       id="path389-7-2-1"
       sodipodi:nodetypes="cscscscccscscssscc" /><circle
       style="fill:#2e9bd9;fill-opacity:1;stroke:none;stroke-width:4.52085;stroke-linecap:round;stroke-linejoin:round;stroke-dasharray:none;stroke-opacity:0.732106"
       id="path2045-2-8-5"
       cx="-141.7352"
       cy="103.28881"
       r="4"
       transform="scale(-1,1)" /><circle
       style="fill:#2e9bd9;fill-opacity:1;stroke:none;stroke-width:3.39063;stroke-linecap:round;stroke-linejoin:round;stroke-dasharray:none;stroke-opacity:0.732106"
       id="path2045-2-8-8-1"
       cx="-149.43732"
       cy="95.804886"
       r="3"
       transform="scale(-1,1)" /><circle
       style="fill:#2e9bd9;fill-opacity:1;stroke:none;stroke-width:2.82553;stroke-linecap:round;stroke-linejoin:round;stroke-dasharray:none;stroke-opacity:0.732106"
       id="path2045-2-8-8-9-1"
       cx="-139.41637"
       cy="91.500519"
       r="2.5"
       transform="scale(-1,1)" /><path
       style="color:#000000;display:inline;fill:#373737;fill-opacity:1"
       d="m 144.80146,104.25396 c 0,0 -8.39176,0.0137 -9.58789,0.0137 -0.21312,0 -1.25208,-0.22187 -2.82422,0.13086 -0.78607,0.17636 -1.79311,0.59078 -2.60547,1.41602 -0.81236,0.82522 -1.29359,1.95418 -1.46289,3.0039 -0.30432,1.88683 0.80413,3.69292 1.47852,4.40625 0.67438,0.71332 1.00865,1.00266 0.98828,0.9746 0.1788,0.24635 0.29812,0.62417 0.35351,0.78711 -0.003,0.48397 -0.0222,4.16029 -0.0625,8.62306 -0.042,4.6444 -0.12419,9.69503 -0.17773,10.71874 -0.011,0.0661 -0.018,0.13185 -0.0508,0.23437 -0.0935,0.29218 -0.25522,0.74701 -0.4668,1.30079 -0.42316,1.10754 -1.0485,2.62406 -1.79687,4.38085 -1.49675,3.51359 -3.49502,7.99997 -5.49024,12.40625 -3.99043,8.81258 -7.9668,17.31055 -7.9668,17.31055 l -0.12695,0.27344 -0.0781,0.29101 c 0,0 -0.77714,2.4687 -0.8164,5.03907 -0.0432,2.82991 0.13354,5.45619 2.45312,7.625 2.35889,2.20556 5.01578,3.04933 6.85352,3.13672 0.91522,0.0435 2.57421,0.19921 2.57421,0.19921 l 0.17188,0.0156 h 0.17187 l 18.47461,-0.0488 18.64844,0.0488 0.17188,-0.0156 c 0,0 1.65899,-0.15569 2.57421,-0.19921 1.83764,-0.0874 4.49266,-0.93114 6.85157,-3.13672 2.31957,-2.16881 2.49632,-4.79509 2.45312,-7.625 -0.0393,-2.57037 -0.81445,-5.03907 -0.81445,-5.03907 l -0.0781,-0.29101 -0.1289,-0.27344 c 0,0 -3.97442,-8.49797 -7.96485,-17.31055 -1.99521,-4.40628 -3.99543,-8.89266 -5.49218,-12.40625 -0.74838,-1.75679 -1.37177,-3.27331 -1.79493,-4.38085 -0.21158,-0.55378 -0.37333,-1.00861 -0.46679,-1.30079 -0.0333,-0.1042 -0.0418,-0.17235 -0.0527,-0.23828 -0.0535,-1.0264 -0.13575,-6.07211 -0.17773,-10.71483 -0.0404,-4.46278 -0.058,-8.13909 -0.0605,-8.62306 0.0554,-0.16303 0.17278,-0.5408 0.35156,-0.78711 -0.0204,0.0281 0.3139,-0.26128 0.98829,-0.9746 0.67438,-0.71333 1.78478,-2.51942 1.48046,-4.40625 -0.1693,-1.04972 -0.65052,-2.17868 -1.46289,-3.0039 -0.81236,-0.82524 -1.8194,-1.23966 -2.60547,-1.41602 -1.57213,-0.35273 -2.61305,-0.13086 -2.82617,-0.13086 -1.19613,0 -9.58789,-0.0137 -9.58789,-0.0137 h -0.006 z m 0,6.96483 c 0,0 5.06927,0.0102 7.80469,0.0137 -0.69502,1.34308 -1.0293,2.52734 -1.0293,2.52734 l -0.0723,0.35352 0.002,0.36133 c 0,0 0.0214,4.43345 0.0644,9.19727 0.0431,4.76381 0.0857,9.57217 0.19532,11.32616 0.0579,0.9261 0.20944,1.1924 0.36718,1.68555 0.15775,0.49314 0.35426,1.03721 0.59375,1.66406 0.479,1.2537 1.12497,2.825 1.89258,4.62695 1.53523,3.6039 3.54803,8.11727 5.55469,12.54883 3.925,8.66808 7.65639,16.64276 7.82617,17.00586 0.0542,0.23993 0.53043,2.32164 0.54297,3.14258 0.0276,1.80828 -0.75883,2.91105 -0.24609,2.43164 -1.69601,1.58577 -1.12341,1.20357 -2.42774,1.26562 -1.16863,0.0556 -2.49068,0.18653 -2.70117,0.20704 l -18.36133,-0.0488 -18.35938,0.0488 c -0.21036,-0.0205 -1.53443,-0.15146 -2.70312,-0.20704 -1.30423,-0.062 -0.72976,0.32017 -2.42578,-1.26562 0.51274,0.47941 -0.2737,-0.62336 -0.2461,-2.43164 0.0125,-0.81896 0.48475,-2.88578 0.54102,-3.13477 0.16671,-0.35651 3.89952,-8.34194 7.82617,-17.01367 2.00666,-4.43156 4.01947,-8.94493 5.55469,-12.54883 0.76761,-1.80195 1.41553,-3.37325 1.89453,-4.62695 0.2395,-0.62685 0.43601,-1.17092 0.59375,-1.66406 0.15775,-0.49315 0.30931,-0.75945 0.36719,-1.68555 0.1096,-1.75399 0.15028,-6.56235 0.19336,-11.32617 0.0431,-4.76381 0.0664,-9.19727 0.0664,-9.19727 l 0.002,-0.36132 -0.0723,-0.35352 c 0,0 -0.33623,-1.18426 -1.03125,-2.52734 2.73131,-0.003 7.77644,-0.0136 7.79297,-0.0137 z"
       id="path389-7-22"
       inkscape:label="path389-7" /><circle
       style="fill:#ffffff;fill-opacity:1;stroke:none;stroke-width:6.78128;stroke-linecap:round;stroke-linejoin:round;stroke-dasharray:none;stroke-opacity:0.732106"
       id="path2045-9"
       cx="-147.90932"
       cy="156.64769"
       r="6"
       transform="scale(-1,1)" /><circle
       style="fill:#ffffff;fill-opacity:1;stroke:none;stroke-width:4.52085;stroke-linecap:round;stroke-linejoin:round;stroke-dasharray:none;stroke-opacity:0.732106"
       id="path2045-2-85"
       cx="-136.52982"
       cy="168.8275"
       r="4"
       transform="scale(-1,1)" /><circle
       style="fill:#ffffff;fill-opacity:1;stroke:none;stroke-width:3.39063;stroke-linecap:round;stroke-linejoin:round;stroke-dasharray:none;stroke-opacity:0.732106"
       id="path2045-2-3-9"
       cx="-154.42055"
       cy="171.37679"
       r="3"
       transform="scale(-1,1)" /><path
       style="color:#000000;display:inline;fill:#f3a82a;fill-opacity:1;stroke:none;stroke-opacity:0.732106"
       d="m 73.132203,146.30912 c 1.53523,3.6039 3.54803,8.11727 5.55469,12.54883 3.925,8.66808 7.65639,16.64277 7.82617,17.00586 0.0542,0.23993 0.53043,2.32164 0.54297,3.14258 0.0276,1.80829 -0.75883,2.91105 -0.24609,2.43165 -1.69601,1.58576 -1.12341,1.20357 -2.42774,1.26562 -1.16863,0.0556 -2.49068,0.18653 -2.70117,0.20704 l -18.36134,-0.0488 -18.359372,0.0488 c -0.21036,-0.0205 -1.53443,-0.15146 -2.70313,-0.20704 -1.30422,-0.062 -0.72975,0.32016 -2.42578,-1.26562 0.51274,0.4794 -0.27369,-0.62336 -0.24609,-2.43165 0.0125,-0.81896 0.48475,-2.88578 0.54102,-3.13477 0.16671,-0.3565 3.89952,-8.34193 7.82617,-17.01367 2.00666,-4.43155 4.01946,-8.94493 5.55468,-12.54883 0.76762,-1.80194 1.41554,-3.37325 1.89454,-4.62694 0.2395,-0.62685 0.436,-1.17093 0.59375,-1.66406 3.08885,0.83357 2.12595,0.72386 17.136722,6.291 z"
       id="path389-7-2-1-9"
       sodipodi:nodetypes="cscscscccscscssscc" /><circle
       style="fill:#f3a82a;fill-opacity:1;stroke:none;stroke-width:4.52085;stroke-linecap:round;stroke-linejoin:round;stroke-dasharray:none;stroke-opacity:0.732106"
       id="path2045-2-8-5-2"
       cx="-60.248974"
       cy="106.59609"
       r="4"
       transform="scale(-1,1)" /><circle
       style="fill:#f3a82a;fill-opacity:1;stroke:none;stroke-width:3.39063;stroke-linecap:round;stroke-linejoin:round;stroke-dasharray:none;stroke-opacity:0.732106"
       id="path2045-2-8-8-1-9"
       cx="-67.951096"
       cy="99.112175"
       r="3"
       transform="scale(-1,1)" /><circle
       style="fill:#f3a82a;fill-opacity:1;stroke:none;stroke-width:2.82553;stroke-linecap:round;stroke-linejoin:round;stroke-dasharray:none;stroke-opacity:0.732106"
       id="path2045-2-8-8-9-1-0"
       cx="-57.930141"
       cy="94.807808"
       r="2.5"
       transform="scale(-1,1)" /><path
       style="color:#000000;display:inline;fill:#373737;fill-opacity:1"
       d="m 63.315223,107.56123 c 0,0 -8.391762,0.0137 -9.587892,0.0137 -0.21312,0 -1.25208,-0.22186 -2.82422,0.13087 -0.78607,0.17635 -1.79311,0.59078 -2.60547,1.41602 -0.81236,0.82522 -1.29359,1.95418 -1.46289,3.0039 -0.30432,1.88683 0.80413,3.69291 1.47852,4.40625 0.67438,0.71332 1.00865,1.00265 0.98828,0.9746 0.1788,0.24635 0.29812,0.62417 0.35351,0.78711 -0.003,0.48397 -0.0222,4.16029 -0.0625,8.62306 -0.042,4.6444 -0.12419,9.69504 -0.17773,10.71875 -0.011,0.0661 -0.018,0.13184 -0.0508,0.23437 -0.0935,0.29218 -0.25522,0.74701 -0.4668,1.30079 -0.42316,1.10754 -1.0485,2.62406 -1.79687,4.38085 -1.49675,3.51359 -3.49502,7.99997 -5.49024,12.40625 -3.99043,8.81258 -7.9668,17.31055 -7.9668,17.31055 l -0.12695,0.27344 -0.0781,0.29101 c 0,0 -0.77714,2.4687 -0.8164,5.03907 -0.0432,2.82991 0.13354,5.45619 2.45312,7.625 2.35889,2.20556 5.01578,3.04933 6.85352,3.13672 0.91522,0.0435 2.57421,0.19921 2.57421,0.19921 l 0.17188,0.0156 h 0.17187 l 18.474612,-0.0488 18.64844,0.0488 0.17188,-0.0156 c 0,0 1.65899,-0.15569 2.57421,-0.19921 1.83764,-0.0874 4.49266,-0.93114 6.85157,-3.13672 2.31957,-2.16881 2.49632,-4.79509 2.45312,-7.625 -0.0393,-2.57037 -0.81445,-5.03907 -0.81445,-5.03907 l -0.0781,-0.29101 -0.1289,-0.27344 c 0,0 -3.97442,-8.49797 -7.96485,-17.31055 -1.99521,-4.40628 -3.99543,-8.89266 -5.49218,-12.40625 -0.74838,-1.75679 -1.37177,-3.27331 -1.79493,-4.38085 -0.21158,-0.55378 -0.37333,-1.00861 -0.46679,-1.30079 -0.0333,-0.1042 -0.0418,-0.17235 -0.0527,-0.23828 -0.0535,-1.0264 -0.13575,-6.07212 -0.17773,-10.71484 -0.0404,-4.46278 -0.058,-8.13909 -0.0605,-8.62306 0.0554,-0.16303 0.17278,-0.5408 0.35156,-0.78711 -0.0204,0.0281 0.3139,-0.26128 0.98829,-0.9746 0.67438,-0.71334 1.78478,-2.51942 1.48046,-4.40625 -0.1693,-1.04973 -0.65052,-2.17869 -1.46289,-3.0039 -0.81236,-0.82524 -1.8194,-1.23966 -2.60547,-1.41602 -1.57213,-0.35273 -2.61305,-0.13087 -2.82617,-0.13087 -1.19613,0 -9.58789,-0.0137 -9.58789,-0.0137 h -0.006 z m 0,6.96484 c 0,0 5.06927,0.0102 7.80469,0.0137 -0.69502,1.34307 -1.0293,2.52734 -1.0293,2.52734 l -0.0723,0.35352 0.002,0.36133 c 0,0 0.0214,4.43345 0.0644,9.19727 0.0431,4.76381 0.0857,9.57218 0.19532,11.32617 0.0579,0.92609 0.20944,1.19239 0.36718,1.68554 0.15775,0.49315 0.35426,1.03722 0.59375,1.66407 0.479,1.2537 1.12497,2.82499 1.89258,4.62695 1.53523,3.6039 3.54803,8.11726 5.55469,12.54883 3.925,8.66808 7.65639,16.64276 7.82617,17.00586 0.0542,0.23993 0.53043,2.32164 0.54297,3.14258 0.0276,1.80828 -0.75883,2.91105 -0.24609,2.43164 -1.69601,1.58577 -1.12341,1.20357 -2.42774,1.26562 -1.16863,0.0556 -2.49068,0.18653 -2.70117,0.20704 l -18.36133,-0.0488 -18.359382,0.0488 c -0.21036,-0.0205 -1.53443,-0.15146 -2.70312,-0.20704 -1.30423,-0.062 -0.72976,0.32017 -2.42578,-1.26562 0.51274,0.47941 -0.2737,-0.62336 -0.2461,-2.43164 0.0125,-0.81896 0.48475,-2.88578 0.54102,-3.13477 0.16671,-0.35651 3.89952,-8.34194 7.82617,-17.01367 2.00666,-4.43156 4.01947,-8.94493 5.55469,-12.54883 0.76761,-1.80195 1.41553,-3.37325 1.89453,-4.62695 0.2395,-0.62685 0.43601,-1.17092 0.59375,-1.66406 0.15775,-0.49315 0.30931,-0.75945 0.36719,-1.68555 0.1096,-1.75399 0.15028,-6.56236 0.19336,-11.32618 0.0431,-4.76381 0.0664,-9.19727 0.0664,-9.19727 l 0.002,-0.36132 -0.0723,-0.35352 c 0,0 -0.33623,-1.18426 -1.03125,-2.52734 2.73131,-0.003 7.776442,-0.0136 7.792972,-0.0137 z"
       id="path389-7-22-1"
       inkscape:label="path389-7" /><circle
       style="fill:#ffffff;fill-opacity:1;stroke:none;stroke-width:6.78128;stroke-linecap:round;stroke-linejoin:round;stroke-dasharray:none;stroke-opacity:0.732106"
       id="path2045-9-5"
       cx="-66.423096"
       cy="159.95497"
       r="6"
       transform="scale(-1,1)" /><circle
       style="fill:#ffffff;fill-opacity:1;stroke:none;stroke-width:4.52085;stroke-linecap:round;stroke-linejoin:round;stroke-dasharray:none;stroke-opacity:0.732106"
       id="path2045-2-85-1"
       cx="-55.043575"
       cy="172.13478"
       r="4"
       transform="scale(-1,1)" /><circle
       style="fill:#ffffff;fill-opacity:1;stroke:none;stroke-width:3.39063;stroke-linecap:round;stroke-linejoin:round;stroke-dasharray:none;stroke-opacity:0.732106"
       id="path2045-2-3-9-3"
       cx="-72.934326"
       cy="174.68407"
       r="3"
       transform="scale(-1,1)" /></g></svg>
